G04 EAGLE Gerber RS-274X export*
G75*
%MOMM*%
%FSLAX34Y34*%
%LPD*%
%INBottom Copper*%
%IPPOS*%
%AMOC8*
5,1,8,0,0,1.08239X$1,22.5*%
G01*
%ADD10C,1.879600*%
%ADD11C,0.609600*%

G36*
X587901Y10557D02*
X587901Y10557D01*
X587996Y10566D01*
X588022Y10577D01*
X588050Y10581D01*
X588134Y10626D01*
X588221Y10664D01*
X588242Y10683D01*
X588267Y10697D01*
X588333Y10766D01*
X588403Y10830D01*
X588417Y10854D01*
X588436Y10875D01*
X588477Y10961D01*
X588523Y11045D01*
X588528Y11072D01*
X588540Y11098D01*
X588550Y11193D01*
X588568Y11286D01*
X588564Y11314D01*
X588567Y11342D01*
X588547Y11436D01*
X588533Y11530D01*
X588519Y11562D01*
X588515Y11583D01*
X588498Y11611D01*
X588466Y11684D01*
X586154Y15688D01*
X584439Y22088D01*
X584439Y28712D01*
X586154Y35112D01*
X589466Y40849D01*
X594151Y45534D01*
X599888Y48846D01*
X606288Y50561D01*
X612912Y50561D01*
X619312Y48846D01*
X623316Y46534D01*
X623405Y46500D01*
X623492Y46460D01*
X623520Y46457D01*
X623546Y46447D01*
X623642Y46443D01*
X623736Y46433D01*
X623764Y46439D01*
X623792Y46438D01*
X623884Y46465D01*
X623977Y46485D01*
X624001Y46500D01*
X624028Y46508D01*
X624106Y46563D01*
X624188Y46611D01*
X624206Y46633D01*
X624229Y46649D01*
X624286Y46726D01*
X624348Y46798D01*
X624358Y46825D01*
X624375Y46847D01*
X624404Y46938D01*
X624440Y47026D01*
X624444Y47062D01*
X624450Y47082D01*
X624450Y47115D01*
X624458Y47193D01*
X624458Y918007D01*
X624443Y918101D01*
X624434Y918196D01*
X624423Y918222D01*
X624419Y918250D01*
X624374Y918334D01*
X624336Y918421D01*
X624317Y918442D01*
X624303Y918467D01*
X624234Y918533D01*
X624170Y918603D01*
X624146Y918617D01*
X624125Y918636D01*
X624039Y918677D01*
X623955Y918723D01*
X623928Y918728D01*
X623902Y918740D01*
X623807Y918750D01*
X623714Y918768D01*
X623686Y918764D01*
X623658Y918767D01*
X623564Y918747D01*
X623470Y918733D01*
X623438Y918719D01*
X623417Y918715D01*
X623389Y918698D01*
X623316Y918666D01*
X619312Y916354D01*
X612912Y914639D01*
X606288Y914639D01*
X599888Y916354D01*
X594151Y919666D01*
X589466Y924351D01*
X586154Y930088D01*
X584439Y936488D01*
X584439Y943112D01*
X586154Y949512D01*
X588466Y953516D01*
X588500Y953605D01*
X588540Y953692D01*
X588543Y953720D01*
X588553Y953746D01*
X588557Y953842D01*
X588567Y953936D01*
X588561Y953964D01*
X588562Y953992D01*
X588535Y954084D01*
X588515Y954177D01*
X588500Y954201D01*
X588492Y954228D01*
X588437Y954306D01*
X588389Y954388D01*
X588367Y954406D01*
X588351Y954429D01*
X588274Y954486D01*
X588202Y954548D01*
X588175Y954558D01*
X588153Y954575D01*
X588062Y954604D01*
X587974Y954640D01*
X587938Y954644D01*
X587918Y954650D01*
X587885Y954650D01*
X587807Y954658D01*
X47193Y954658D01*
X47099Y954643D01*
X47004Y954634D01*
X46978Y954623D01*
X46950Y954619D01*
X46866Y954574D01*
X46779Y954536D01*
X46758Y954517D01*
X46733Y954503D01*
X46667Y954434D01*
X46597Y954370D01*
X46583Y954346D01*
X46564Y954325D01*
X46523Y954239D01*
X46477Y954155D01*
X46472Y954128D01*
X46460Y954102D01*
X46450Y954007D01*
X46432Y953914D01*
X46436Y953886D01*
X46433Y953858D01*
X46453Y953764D01*
X46467Y953670D01*
X46481Y953638D01*
X46485Y953617D01*
X46502Y953589D01*
X46534Y953516D01*
X48846Y949512D01*
X50561Y943112D01*
X50561Y936488D01*
X48846Y930088D01*
X45534Y924351D01*
X40849Y919666D01*
X35112Y916354D01*
X28712Y914639D01*
X22088Y914639D01*
X15688Y916354D01*
X11684Y918666D01*
X11595Y918700D01*
X11508Y918740D01*
X11480Y918743D01*
X11454Y918753D01*
X11358Y918757D01*
X11264Y918767D01*
X11236Y918761D01*
X11208Y918762D01*
X11116Y918735D01*
X11023Y918715D01*
X10999Y918700D01*
X10972Y918692D01*
X10894Y918637D01*
X10812Y918589D01*
X10794Y918567D01*
X10771Y918551D01*
X10714Y918474D01*
X10652Y918402D01*
X10642Y918375D01*
X10625Y918353D01*
X10596Y918262D01*
X10560Y918174D01*
X10556Y918138D01*
X10550Y918118D01*
X10550Y918085D01*
X10542Y918007D01*
X10542Y47193D01*
X10557Y47099D01*
X10566Y47004D01*
X10577Y46978D01*
X10581Y46950D01*
X10626Y46866D01*
X10664Y46779D01*
X10683Y46758D01*
X10697Y46733D01*
X10766Y46667D01*
X10830Y46597D01*
X10854Y46583D01*
X10875Y46564D01*
X10961Y46523D01*
X11045Y46477D01*
X11072Y46472D01*
X11098Y46460D01*
X11193Y46450D01*
X11286Y46432D01*
X11314Y46436D01*
X11342Y46433D01*
X11436Y46453D01*
X11530Y46467D01*
X11562Y46481D01*
X11583Y46485D01*
X11611Y46502D01*
X11684Y46534D01*
X15688Y48846D01*
X22088Y50561D01*
X28712Y50561D01*
X35112Y48846D01*
X40849Y45534D01*
X45534Y40849D01*
X48846Y35112D01*
X50561Y28712D01*
X50561Y22088D01*
X48846Y15688D01*
X46534Y11684D01*
X46500Y11595D01*
X46460Y11508D01*
X46457Y11480D01*
X46447Y11454D01*
X46443Y11358D01*
X46433Y11264D01*
X46439Y11236D01*
X46438Y11208D01*
X46465Y11116D01*
X46485Y11023D01*
X46500Y10999D01*
X46508Y10972D01*
X46563Y10894D01*
X46611Y10812D01*
X46633Y10794D01*
X46649Y10771D01*
X46726Y10714D01*
X46798Y10652D01*
X46825Y10642D01*
X46847Y10625D01*
X46938Y10596D01*
X47026Y10560D01*
X47062Y10556D01*
X47082Y10550D01*
X47115Y10550D01*
X47193Y10542D01*
X587807Y10542D01*
X587901Y10557D01*
G37*
%LPC*%
G36*
X189388Y29336D02*
X189388Y29336D01*
X187334Y30187D01*
X185655Y31866D01*
X171566Y45955D01*
X169887Y47634D01*
X169036Y49688D01*
X169036Y112237D01*
X169887Y114291D01*
X171566Y115970D01*
X208302Y152706D01*
X208359Y152785D01*
X208421Y152860D01*
X208430Y152884D01*
X208446Y152906D01*
X208474Y152999D01*
X208509Y153089D01*
X208510Y153116D01*
X208518Y153141D01*
X208515Y153238D01*
X208520Y153335D01*
X208512Y153360D01*
X208512Y153386D01*
X208478Y153478D01*
X208451Y153571D01*
X208436Y153593D01*
X208427Y153617D01*
X208366Y153694D01*
X208311Y153773D01*
X208290Y153789D01*
X208273Y153810D01*
X208192Y153862D01*
X208113Y153920D01*
X208089Y153928D01*
X208067Y153943D01*
X207972Y153966D01*
X207880Y153996D01*
X207853Y153996D01*
X207828Y154003D01*
X207731Y153995D01*
X207634Y153994D01*
X207602Y153985D01*
X207583Y153983D01*
X207553Y153971D01*
X207473Y153947D01*
X205575Y153161D01*
X200825Y153161D01*
X196437Y154979D01*
X193079Y158337D01*
X191261Y162725D01*
X191261Y167475D01*
X193079Y171863D01*
X196437Y175221D01*
X200825Y177039D01*
X205575Y177039D01*
X209963Y175221D01*
X213321Y171863D01*
X215139Y167475D01*
X215139Y162725D01*
X214353Y160827D01*
X214330Y160733D01*
X214302Y160640D01*
X214302Y160613D01*
X214296Y160588D01*
X214306Y160491D01*
X214308Y160394D01*
X214317Y160369D01*
X214320Y160343D01*
X214359Y160254D01*
X214393Y160163D01*
X214409Y160142D01*
X214420Y160118D01*
X214485Y160047D01*
X214546Y159971D01*
X214568Y159957D01*
X214586Y159937D01*
X214671Y159890D01*
X214753Y159838D01*
X214779Y159831D01*
X214801Y159819D01*
X214897Y159801D01*
X214992Y159778D01*
X215018Y159780D01*
X215044Y159775D01*
X215140Y159789D01*
X215237Y159797D01*
X215261Y159807D01*
X215287Y159811D01*
X215374Y159855D01*
X215463Y159893D01*
X215489Y159913D01*
X215506Y159922D01*
X215529Y159946D01*
X215594Y159998D01*
X216788Y161192D01*
X216856Y161286D01*
X216926Y161380D01*
X216928Y161386D01*
X216931Y161391D01*
X216966Y161502D01*
X217002Y161614D01*
X217002Y161620D01*
X217004Y161626D01*
X217001Y161743D01*
X217000Y161860D01*
X216998Y161867D01*
X216997Y161872D01*
X216991Y161890D01*
X216953Y162021D01*
X216661Y162725D01*
X216661Y167475D01*
X218479Y171863D01*
X221837Y175221D01*
X222541Y175513D01*
X222641Y175574D01*
X222741Y175634D01*
X222745Y175639D01*
X222750Y175642D01*
X222825Y175732D01*
X222901Y175821D01*
X222903Y175827D01*
X222907Y175832D01*
X222949Y175940D01*
X222993Y176049D01*
X222994Y176057D01*
X222995Y176062D01*
X222996Y176080D01*
X223011Y176216D01*
X223011Y192950D01*
X222997Y193040D01*
X222989Y193131D01*
X222977Y193161D01*
X222972Y193192D01*
X222929Y193273D01*
X222893Y193357D01*
X222867Y193389D01*
X222856Y193410D01*
X222833Y193432D01*
X222788Y193488D01*
X122262Y294014D01*
X121411Y296068D01*
X121411Y915984D01*
X121392Y916099D01*
X121375Y916215D01*
X121373Y916220D01*
X121372Y916227D01*
X121317Y916329D01*
X121264Y916434D01*
X121259Y916439D01*
X121256Y916444D01*
X121172Y916524D01*
X121088Y916606D01*
X121082Y916610D01*
X121078Y916613D01*
X121061Y916621D01*
X120941Y916687D01*
X120237Y916979D01*
X116879Y920337D01*
X115061Y924725D01*
X115061Y929475D01*
X116879Y933863D01*
X120237Y937221D01*
X124625Y939039D01*
X129375Y939039D01*
X133763Y937221D01*
X137121Y933863D01*
X138939Y929475D01*
X138939Y924725D01*
X137121Y920337D01*
X133763Y916979D01*
X133059Y916687D01*
X132959Y916626D01*
X132859Y916566D01*
X132855Y916561D01*
X132850Y916558D01*
X132775Y916468D01*
X132699Y916379D01*
X132697Y916373D01*
X132693Y916368D01*
X132651Y916260D01*
X132607Y916151D01*
X132606Y916143D01*
X132605Y916138D01*
X132604Y916120D01*
X132589Y915984D01*
X132589Y299810D01*
X132592Y299793D01*
X132590Y299777D01*
X132604Y299711D01*
X132611Y299629D01*
X132623Y299599D01*
X132628Y299568D01*
X132640Y299545D01*
X132642Y299537D01*
X132665Y299498D01*
X132671Y299487D01*
X132707Y299403D01*
X132733Y299371D01*
X132744Y299350D01*
X132767Y299328D01*
X132768Y299326D01*
X132770Y299325D01*
X132812Y299272D01*
X233338Y198746D01*
X234189Y196692D01*
X234189Y176216D01*
X234208Y176101D01*
X234225Y175985D01*
X234227Y175980D01*
X234228Y175973D01*
X234283Y175871D01*
X234336Y175766D01*
X234341Y175761D01*
X234344Y175756D01*
X234428Y175676D01*
X234512Y175594D01*
X234518Y175590D01*
X234522Y175587D01*
X234539Y175579D01*
X234659Y175513D01*
X235363Y175221D01*
X238721Y171863D01*
X240539Y167475D01*
X240539Y162725D01*
X238721Y158337D01*
X235363Y154979D01*
X230975Y153161D01*
X226225Y153161D01*
X225521Y153453D01*
X225407Y153480D01*
X225294Y153508D01*
X225288Y153508D01*
X225282Y153509D01*
X225165Y153498D01*
X225049Y153489D01*
X225043Y153487D01*
X225037Y153486D01*
X224929Y153438D01*
X224823Y153393D01*
X224817Y153388D01*
X224812Y153386D01*
X224798Y153373D01*
X224692Y153288D01*
X180437Y109033D01*
X180384Y108959D01*
X180324Y108890D01*
X180312Y108859D01*
X180293Y108833D01*
X180266Y108746D01*
X180232Y108661D01*
X180228Y108621D01*
X180221Y108598D01*
X180222Y108566D01*
X180214Y108495D01*
X180214Y104230D01*
X180225Y104159D01*
X180227Y104088D01*
X180245Y104039D01*
X180253Y103987D01*
X180287Y103924D01*
X180312Y103857D01*
X180344Y103816D01*
X180369Y103770D01*
X180421Y103721D01*
X180465Y103665D01*
X180509Y103637D01*
X180547Y103601D01*
X180612Y103571D01*
X180672Y103532D01*
X180723Y103519D01*
X180770Y103497D01*
X180841Y103489D01*
X180911Y103472D01*
X180963Y103476D01*
X181014Y103470D01*
X181085Y103485D01*
X181156Y103491D01*
X181204Y103511D01*
X181255Y103522D01*
X181316Y103559D01*
X181382Y103587D01*
X181438Y103632D01*
X181466Y103648D01*
X181481Y103666D01*
X181513Y103692D01*
X226930Y149109D01*
X228609Y150788D01*
X230663Y151639D01*
X314870Y151639D01*
X314960Y151653D01*
X315051Y151661D01*
X315081Y151673D01*
X315112Y151678D01*
X315193Y151721D01*
X315277Y151757D01*
X315309Y151783D01*
X315330Y151794D01*
X315352Y151817D01*
X315408Y151862D01*
X320443Y156897D01*
X320455Y156913D01*
X320470Y156925D01*
X320526Y157012D01*
X320586Y157096D01*
X320592Y157115D01*
X320603Y157132D01*
X320628Y157233D01*
X320659Y157331D01*
X320658Y157351D01*
X320663Y157371D01*
X320655Y157474D01*
X320652Y157577D01*
X320646Y157596D01*
X320644Y157616D01*
X320604Y157711D01*
X320568Y157808D01*
X320556Y157824D01*
X320548Y157842D01*
X320443Y157973D01*
X320079Y158337D01*
X318261Y162725D01*
X318261Y167475D01*
X320079Y171863D01*
X320443Y172227D01*
X320455Y172243D01*
X320470Y172255D01*
X320526Y172343D01*
X320586Y172427D01*
X320592Y172446D01*
X320603Y172462D01*
X320628Y172563D01*
X320659Y172662D01*
X320658Y172682D01*
X320663Y172701D01*
X320655Y172804D01*
X320652Y172908D01*
X320646Y172926D01*
X320644Y172946D01*
X320604Y173041D01*
X320568Y173139D01*
X320556Y173154D01*
X320548Y173172D01*
X320443Y173303D01*
X300062Y193684D01*
X299211Y195738D01*
X299211Y915984D01*
X299192Y916099D01*
X299175Y916215D01*
X299173Y916220D01*
X299172Y916227D01*
X299117Y916329D01*
X299064Y916434D01*
X299059Y916439D01*
X299056Y916444D01*
X298972Y916524D01*
X298888Y916606D01*
X298882Y916610D01*
X298878Y916613D01*
X298861Y916621D01*
X298741Y916687D01*
X298037Y916979D01*
X294679Y920337D01*
X292861Y924725D01*
X292861Y929475D01*
X294679Y933863D01*
X298037Y937221D01*
X302425Y939039D01*
X307175Y939039D01*
X311563Y937221D01*
X314921Y933863D01*
X316739Y929475D01*
X316739Y924725D01*
X314921Y920337D01*
X311563Y916979D01*
X310859Y916687D01*
X310759Y916626D01*
X310659Y916566D01*
X310655Y916561D01*
X310650Y916558D01*
X310575Y916468D01*
X310499Y916379D01*
X310497Y916373D01*
X310493Y916368D01*
X310451Y916260D01*
X310407Y916151D01*
X310406Y916143D01*
X310405Y916138D01*
X310404Y916120D01*
X310389Y915984D01*
X310389Y199480D01*
X310403Y199390D01*
X310411Y199299D01*
X310423Y199269D01*
X310428Y199238D01*
X310471Y199157D01*
X310507Y199073D01*
X310533Y199041D01*
X310544Y199020D01*
X310567Y198998D01*
X310612Y198942D01*
X332366Y177188D01*
X332419Y177150D01*
X332466Y177104D01*
X332539Y177064D01*
X332565Y177045D01*
X332584Y177039D01*
X332613Y177023D01*
X336963Y175221D01*
X340321Y171863D01*
X342139Y167475D01*
X342139Y162725D01*
X340321Y158337D01*
X336963Y154979D01*
X332613Y153177D01*
X332557Y153142D01*
X332497Y153117D01*
X332432Y153065D01*
X332403Y153047D01*
X332391Y153032D01*
X332366Y153012D01*
X320666Y141312D01*
X318612Y140461D01*
X234405Y140461D01*
X234315Y140447D01*
X234224Y140439D01*
X234194Y140427D01*
X234163Y140422D01*
X234082Y140379D01*
X233998Y140343D01*
X233966Y140317D01*
X233945Y140306D01*
X233923Y140283D01*
X233867Y140238D01*
X189962Y96333D01*
X189919Y96273D01*
X189877Y96230D01*
X189870Y96214D01*
X189849Y96190D01*
X189837Y96159D01*
X189818Y96133D01*
X189791Y96046D01*
X189786Y96033D01*
X189774Y96007D01*
X189773Y96001D01*
X189757Y95961D01*
X189753Y95921D01*
X189746Y95898D01*
X189747Y95866D01*
X189739Y95795D01*
X189739Y56605D01*
X189753Y56515D01*
X189761Y56424D01*
X189773Y56394D01*
X189778Y56363D01*
X189821Y56282D01*
X189857Y56198D01*
X189883Y56166D01*
X189894Y56145D01*
X189917Y56123D01*
X189962Y56067D01*
X195767Y50262D01*
X195841Y50209D01*
X195910Y50149D01*
X195940Y50137D01*
X195967Y50118D01*
X196054Y50091D01*
X196139Y50057D01*
X196179Y50053D01*
X196202Y50046D01*
X196234Y50047D01*
X196305Y50039D01*
X217080Y50039D01*
X217170Y50053D01*
X217261Y50061D01*
X217291Y50073D01*
X217322Y50078D01*
X217403Y50121D01*
X217487Y50157D01*
X217519Y50183D01*
X217540Y50194D01*
X217562Y50217D01*
X217618Y50262D01*
X220748Y53392D01*
X220760Y53408D01*
X220775Y53420D01*
X220816Y53484D01*
X220836Y53505D01*
X220848Y53531D01*
X220891Y53591D01*
X220897Y53610D01*
X220908Y53627D01*
X220926Y53699D01*
X220940Y53728D01*
X220943Y53759D01*
X220964Y53826D01*
X220963Y53846D01*
X220968Y53866D01*
X220963Y53936D01*
X220967Y53972D01*
X220959Y54007D01*
X220957Y54072D01*
X220951Y54091D01*
X220949Y54111D01*
X220924Y54171D01*
X220914Y54213D01*
X220893Y54249D01*
X220873Y54303D01*
X220861Y54319D01*
X220853Y54337D01*
X220803Y54399D01*
X220788Y54424D01*
X220773Y54437D01*
X220748Y54468D01*
X218479Y56737D01*
X216661Y61125D01*
X216661Y65875D01*
X218479Y70263D01*
X221837Y73621D01*
X226225Y75439D01*
X230975Y75439D01*
X235363Y73621D01*
X238721Y70263D01*
X240539Y65875D01*
X240539Y61125D01*
X238721Y56737D01*
X235363Y53379D01*
X234659Y53087D01*
X234559Y53026D01*
X234459Y52966D01*
X234455Y52961D01*
X234450Y52958D01*
X234375Y52868D01*
X234299Y52779D01*
X234297Y52773D01*
X234293Y52768D01*
X234251Y52660D01*
X234207Y52551D01*
X234206Y52543D01*
X234205Y52538D01*
X234204Y52520D01*
X234189Y52384D01*
X234189Y52228D01*
X233338Y50174D01*
X224977Y41813D01*
X224935Y41755D01*
X224886Y41703D01*
X224864Y41656D01*
X224833Y41614D01*
X224812Y41545D01*
X224782Y41480D01*
X224776Y41428D01*
X224761Y41378D01*
X224763Y41307D01*
X224755Y41236D01*
X224766Y41185D01*
X224767Y41133D01*
X224792Y41065D01*
X224807Y40995D01*
X224834Y40950D01*
X224852Y40902D01*
X224897Y40846D01*
X224933Y40784D01*
X224973Y40750D01*
X225006Y40710D01*
X225066Y40671D01*
X225120Y40624D01*
X225169Y40605D01*
X225212Y40577D01*
X225282Y40559D01*
X225348Y40532D01*
X225420Y40524D01*
X225451Y40516D01*
X225474Y40518D01*
X225515Y40514D01*
X356145Y40514D01*
X356235Y40528D01*
X356326Y40536D01*
X356356Y40548D01*
X356387Y40553D01*
X356468Y40596D01*
X356552Y40632D01*
X356584Y40658D01*
X356605Y40669D01*
X356627Y40692D01*
X356683Y40737D01*
X371243Y55297D01*
X371255Y55313D01*
X371270Y55325D01*
X371326Y55413D01*
X371386Y55496D01*
X371392Y55515D01*
X371403Y55532D01*
X371428Y55633D01*
X371459Y55731D01*
X371458Y55751D01*
X371463Y55771D01*
X371455Y55874D01*
X371452Y55977D01*
X371446Y55996D01*
X371444Y56016D01*
X371404Y56111D01*
X371368Y56208D01*
X371355Y56224D01*
X371348Y56242D01*
X371243Y56373D01*
X370879Y56737D01*
X369061Y61125D01*
X369061Y65875D01*
X370879Y70263D01*
X374237Y73621D01*
X378625Y75439D01*
X383375Y75439D01*
X387763Y73621D01*
X391121Y70263D01*
X392939Y65875D01*
X392939Y61125D01*
X391121Y56737D01*
X387763Y53379D01*
X383413Y51577D01*
X383357Y51542D01*
X383297Y51517D01*
X383232Y51465D01*
X383203Y51447D01*
X383191Y51432D01*
X383166Y51412D01*
X361941Y30187D01*
X359887Y29336D01*
X189388Y29336D01*
G37*
%LPD*%
%LPC*%
G36*
X251625Y76961D02*
X251625Y76961D01*
X247237Y78779D01*
X243879Y82137D01*
X242061Y86525D01*
X242061Y91275D01*
X243879Y95663D01*
X247237Y99021D01*
X251587Y100823D01*
X251643Y100858D01*
X251703Y100883D01*
X251768Y100935D01*
X251797Y100953D01*
X251809Y100968D01*
X251834Y100988D01*
X266709Y115863D01*
X268763Y116714D01*
X530770Y116714D01*
X530860Y116728D01*
X530951Y116736D01*
X530981Y116748D01*
X531012Y116753D01*
X531093Y116796D01*
X531177Y116832D01*
X531209Y116858D01*
X531230Y116869D01*
X531252Y116892D01*
X531308Y116937D01*
X572038Y157667D01*
X572091Y157741D01*
X572151Y157810D01*
X572163Y157841D01*
X572182Y157867D01*
X572209Y157954D01*
X572243Y158039D01*
X572247Y158079D01*
X572254Y158102D01*
X572253Y158134D01*
X572261Y158205D01*
X572261Y171995D01*
X572247Y172085D01*
X572239Y172176D01*
X572227Y172206D01*
X572222Y172237D01*
X572179Y172318D01*
X572143Y172402D01*
X572117Y172434D01*
X572106Y172455D01*
X572083Y172477D01*
X572038Y172533D01*
X566233Y178338D01*
X566159Y178391D01*
X566090Y178451D01*
X566059Y178463D01*
X566033Y178482D01*
X565946Y178509D01*
X565861Y178543D01*
X565821Y178547D01*
X565798Y178554D01*
X565766Y178553D01*
X565695Y178561D01*
X389413Y178561D01*
X387641Y179295D01*
X387597Y179306D01*
X387555Y179325D01*
X387478Y179334D01*
X387402Y179351D01*
X387356Y179347D01*
X387311Y179352D01*
X387234Y179336D01*
X387157Y179328D01*
X387115Y179310D01*
X387070Y179300D01*
X387003Y179260D01*
X386932Y179228D01*
X386898Y179197D01*
X386859Y179174D01*
X386808Y179115D01*
X386751Y179062D01*
X386729Y179022D01*
X386699Y178987D01*
X386670Y178915D01*
X386633Y178846D01*
X386624Y178801D01*
X386607Y178759D01*
X386592Y178623D01*
X386589Y178604D01*
X386590Y178599D01*
X386589Y178592D01*
X386589Y176216D01*
X386608Y176101D01*
X386625Y175985D01*
X386627Y175980D01*
X386628Y175973D01*
X386683Y175871D01*
X386736Y175766D01*
X386741Y175761D01*
X386744Y175756D01*
X386828Y175676D01*
X386912Y175594D01*
X386918Y175590D01*
X386922Y175587D01*
X386939Y175579D01*
X387059Y175513D01*
X387763Y175221D01*
X391121Y171863D01*
X392939Y167475D01*
X392939Y162725D01*
X391121Y158337D01*
X387763Y154979D01*
X383375Y153161D01*
X378625Y153161D01*
X374237Y154979D01*
X370879Y158337D01*
X369061Y162725D01*
X369061Y167475D01*
X370879Y171863D01*
X374237Y175221D01*
X374941Y175513D01*
X375041Y175574D01*
X375141Y175634D01*
X375145Y175639D01*
X375150Y175642D01*
X375225Y175732D01*
X375301Y175821D01*
X375303Y175827D01*
X375307Y175832D01*
X375349Y175940D01*
X375393Y176049D01*
X375394Y176057D01*
X375395Y176062D01*
X375396Y176080D01*
X375411Y176216D01*
X375411Y191045D01*
X375397Y191135D01*
X375389Y191226D01*
X375377Y191256D01*
X375372Y191287D01*
X375329Y191368D01*
X375293Y191452D01*
X375267Y191484D01*
X375256Y191505D01*
X375233Y191527D01*
X375188Y191583D01*
X350862Y215909D01*
X350011Y217963D01*
X350011Y915984D01*
X349992Y916099D01*
X349975Y916215D01*
X349973Y916220D01*
X349972Y916227D01*
X349917Y916329D01*
X349864Y916434D01*
X349859Y916439D01*
X349856Y916444D01*
X349772Y916524D01*
X349688Y916606D01*
X349682Y916610D01*
X349678Y916613D01*
X349661Y916621D01*
X349541Y916687D01*
X348837Y916979D01*
X345479Y920337D01*
X343661Y924725D01*
X343661Y929475D01*
X345479Y933863D01*
X348837Y937221D01*
X353225Y939039D01*
X357975Y939039D01*
X362363Y937221D01*
X365721Y933863D01*
X367539Y929475D01*
X367539Y924725D01*
X365721Y920337D01*
X362363Y916979D01*
X361659Y916687D01*
X361559Y916626D01*
X361459Y916566D01*
X361455Y916561D01*
X361450Y916558D01*
X361375Y916468D01*
X361299Y916379D01*
X361297Y916373D01*
X361293Y916368D01*
X361251Y916260D01*
X361207Y916151D01*
X361206Y916143D01*
X361205Y916138D01*
X361204Y916120D01*
X361189Y915984D01*
X361189Y221705D01*
X361203Y221615D01*
X361211Y221524D01*
X361223Y221494D01*
X361228Y221463D01*
X361271Y221382D01*
X361307Y221298D01*
X361333Y221266D01*
X361344Y221245D01*
X361367Y221223D01*
X361412Y221167D01*
X392617Y189962D01*
X392691Y189909D01*
X392760Y189849D01*
X392791Y189837D01*
X392817Y189818D01*
X392904Y189791D01*
X392989Y189757D01*
X393029Y189753D01*
X393052Y189746D01*
X393084Y189747D01*
X393155Y189739D01*
X569437Y189739D01*
X571491Y188888D01*
X582588Y177791D01*
X583439Y175737D01*
X583439Y154463D01*
X582588Y152409D01*
X536566Y106387D01*
X534512Y105536D01*
X272505Y105536D01*
X272415Y105522D01*
X272324Y105514D01*
X272294Y105502D01*
X272263Y105497D01*
X272182Y105454D01*
X272098Y105418D01*
X272066Y105392D01*
X272045Y105381D01*
X272023Y105358D01*
X271967Y105313D01*
X263757Y97103D01*
X263745Y97087D01*
X263730Y97075D01*
X263693Y97017D01*
X263668Y96991D01*
X263653Y96958D01*
X263614Y96904D01*
X263608Y96885D01*
X263597Y96868D01*
X263580Y96803D01*
X263564Y96768D01*
X263560Y96730D01*
X263541Y96669D01*
X263542Y96649D01*
X263537Y96629D01*
X263542Y96565D01*
X263537Y96524D01*
X263546Y96484D01*
X263548Y96423D01*
X263554Y96404D01*
X263556Y96384D01*
X263580Y96328D01*
X263590Y96283D01*
X263613Y96244D01*
X263632Y96192D01*
X263644Y96176D01*
X263652Y96158D01*
X263701Y96097D01*
X263716Y96072D01*
X263732Y96058D01*
X263757Y96027D01*
X264121Y95663D01*
X265939Y91275D01*
X265939Y86525D01*
X264121Y82137D01*
X260763Y78779D01*
X256375Y76961D01*
X251625Y76961D01*
G37*
%LPD*%
%LPC*%
G36*
X173513Y14731D02*
X173513Y14731D01*
X171459Y15582D01*
X96862Y90179D01*
X96011Y92233D01*
X96011Y153984D01*
X95992Y154099D01*
X95975Y154215D01*
X95973Y154220D01*
X95972Y154227D01*
X95917Y154329D01*
X95864Y154434D01*
X95859Y154439D01*
X95856Y154444D01*
X95772Y154524D01*
X95688Y154606D01*
X95682Y154610D01*
X95678Y154613D01*
X95661Y154621D01*
X95541Y154687D01*
X94837Y154979D01*
X91479Y158337D01*
X89661Y162725D01*
X89661Y167475D01*
X91479Y171863D01*
X94837Y175221D01*
X95541Y175513D01*
X95641Y175574D01*
X95741Y175634D01*
X95745Y175639D01*
X95750Y175642D01*
X95825Y175732D01*
X95901Y175821D01*
X95903Y175827D01*
X95907Y175832D01*
X95949Y175940D01*
X95993Y176049D01*
X95994Y176057D01*
X95995Y176062D01*
X95996Y176080D01*
X96011Y176216D01*
X96011Y915984D01*
X95992Y916099D01*
X95975Y916215D01*
X95973Y916220D01*
X95972Y916227D01*
X95917Y916329D01*
X95864Y916434D01*
X95859Y916439D01*
X95856Y916444D01*
X95772Y916524D01*
X95688Y916606D01*
X95682Y916610D01*
X95678Y916613D01*
X95661Y916621D01*
X95541Y916687D01*
X94837Y916979D01*
X91479Y920337D01*
X89661Y924725D01*
X89661Y929475D01*
X91479Y933863D01*
X94837Y937221D01*
X99225Y939039D01*
X103975Y939039D01*
X108363Y937221D01*
X111721Y933863D01*
X113539Y929475D01*
X113539Y924725D01*
X111721Y920337D01*
X108363Y916979D01*
X107659Y916687D01*
X107559Y916626D01*
X107459Y916566D01*
X107455Y916561D01*
X107450Y916558D01*
X107375Y916468D01*
X107299Y916379D01*
X107297Y916373D01*
X107293Y916368D01*
X107251Y916260D01*
X107207Y916151D01*
X107206Y916143D01*
X107205Y916138D01*
X107204Y916120D01*
X107189Y915984D01*
X107189Y176216D01*
X107208Y176101D01*
X107225Y175985D01*
X107227Y175980D01*
X107228Y175973D01*
X107283Y175871D01*
X107336Y175766D01*
X107341Y175761D01*
X107344Y175756D01*
X107428Y175676D01*
X107512Y175594D01*
X107518Y175590D01*
X107522Y175587D01*
X107539Y175579D01*
X107659Y175513D01*
X108363Y175221D01*
X111721Y171863D01*
X113539Y167475D01*
X113539Y162725D01*
X111721Y158337D01*
X108363Y154979D01*
X107659Y154687D01*
X107559Y154626D01*
X107459Y154566D01*
X107455Y154561D01*
X107450Y154558D01*
X107375Y154468D01*
X107299Y154379D01*
X107297Y154373D01*
X107293Y154368D01*
X107251Y154260D01*
X107207Y154151D01*
X107206Y154143D01*
X107205Y154138D01*
X107204Y154120D01*
X107189Y153984D01*
X107189Y95975D01*
X107203Y95885D01*
X107211Y95794D01*
X107223Y95764D01*
X107228Y95733D01*
X107271Y95652D01*
X107307Y95568D01*
X107333Y95536D01*
X107344Y95515D01*
X107367Y95493D01*
X107412Y95437D01*
X176717Y26132D01*
X176791Y26079D01*
X176860Y26019D01*
X176891Y26007D01*
X176917Y25988D01*
X177004Y25961D01*
X177089Y25927D01*
X177129Y25923D01*
X177152Y25916D01*
X177184Y25917D01*
X177255Y25909D01*
X408215Y25909D01*
X408305Y25923D01*
X408396Y25931D01*
X408426Y25943D01*
X408457Y25948D01*
X408538Y25991D01*
X408622Y26027D01*
X408654Y26053D01*
X408675Y26064D01*
X408697Y26087D01*
X408753Y26132D01*
X441863Y59242D01*
X441916Y59316D01*
X441976Y59385D01*
X441988Y59416D01*
X442007Y59442D01*
X442034Y59529D01*
X442068Y59614D01*
X442072Y59654D01*
X442079Y59677D01*
X442078Y59709D01*
X442086Y59780D01*
X442086Y75475D01*
X442072Y75565D01*
X442064Y75656D01*
X442052Y75686D01*
X442047Y75717D01*
X442004Y75798D01*
X441968Y75882D01*
X441942Y75914D01*
X441931Y75935D01*
X441908Y75957D01*
X441863Y76013D01*
X439301Y78576D01*
X439206Y78644D01*
X439112Y78714D01*
X439106Y78716D01*
X439101Y78719D01*
X438990Y78754D01*
X438878Y78790D01*
X438872Y78790D01*
X438866Y78792D01*
X438749Y78789D01*
X438632Y78788D01*
X438625Y78785D01*
X438620Y78785D01*
X438602Y78779D01*
X438471Y78741D01*
X434175Y76961D01*
X429425Y76961D01*
X425037Y78779D01*
X421679Y82137D01*
X419861Y86525D01*
X419861Y91275D01*
X421679Y95663D01*
X425037Y99021D01*
X429425Y100839D01*
X434175Y100839D01*
X438563Y99021D01*
X441921Y95663D01*
X443739Y91275D01*
X443739Y90260D01*
X443753Y90170D01*
X443761Y90079D01*
X443773Y90049D01*
X443778Y90018D01*
X443821Y89937D01*
X443857Y89853D01*
X443883Y89821D01*
X443894Y89800D01*
X443917Y89778D01*
X443962Y89722D01*
X452413Y81271D01*
X453264Y79217D01*
X453264Y56038D01*
X452413Y53984D01*
X414011Y15582D01*
X411957Y14731D01*
X173513Y14731D01*
G37*
%LPD*%
%LPC*%
G36*
X226225Y76961D02*
X226225Y76961D01*
X221837Y78779D01*
X218479Y82137D01*
X216661Y86525D01*
X216661Y91275D01*
X218479Y95663D01*
X221837Y99021D01*
X222541Y99313D01*
X222641Y99374D01*
X222741Y99434D01*
X222745Y99439D01*
X222750Y99442D01*
X222825Y99532D01*
X222901Y99621D01*
X222903Y99627D01*
X222907Y99632D01*
X222949Y99740D01*
X222993Y99849D01*
X222994Y99857D01*
X222995Y99862D01*
X222996Y99880D01*
X223011Y100016D01*
X223011Y107792D01*
X223862Y109846D01*
X247024Y133008D01*
X249078Y133859D01*
X389800Y133859D01*
X389890Y133873D01*
X389981Y133881D01*
X390011Y133893D01*
X390042Y133898D01*
X390123Y133941D01*
X390207Y133977D01*
X390239Y134003D01*
X390260Y134014D01*
X390265Y134019D01*
X390283Y134038D01*
X390338Y134082D01*
X400588Y144332D01*
X400641Y144406D01*
X400701Y144475D01*
X400713Y144506D01*
X400732Y144532D01*
X400759Y144619D01*
X400793Y144704D01*
X400797Y144744D01*
X400804Y144767D01*
X400803Y144799D01*
X400811Y144870D01*
X400811Y153984D01*
X400792Y154099D01*
X400775Y154215D01*
X400773Y154220D01*
X400772Y154227D01*
X400717Y154329D01*
X400664Y154434D01*
X400659Y154439D01*
X400656Y154444D01*
X400572Y154524D01*
X400488Y154606D01*
X400482Y154610D01*
X400478Y154613D01*
X400461Y154621D01*
X400341Y154687D01*
X399637Y154979D01*
X396279Y158337D01*
X394461Y162725D01*
X394461Y167475D01*
X396279Y171863D01*
X399637Y175221D01*
X404025Y177039D01*
X408775Y177039D01*
X413163Y175221D01*
X416521Y171863D01*
X418339Y167475D01*
X418339Y162725D01*
X416521Y158337D01*
X413163Y154979D01*
X412459Y154687D01*
X412359Y154626D01*
X412259Y154566D01*
X412255Y154561D01*
X412250Y154558D01*
X412175Y154468D01*
X412099Y154379D01*
X412097Y154373D01*
X412093Y154368D01*
X412051Y154260D01*
X412007Y154151D01*
X412006Y154143D01*
X412005Y154138D01*
X412004Y154120D01*
X411989Y153984D01*
X411989Y141128D01*
X411138Y139074D01*
X395596Y123532D01*
X393542Y122681D01*
X252820Y122681D01*
X252730Y122667D01*
X252639Y122659D01*
X252609Y122647D01*
X252578Y122642D01*
X252497Y122599D01*
X252413Y122563D01*
X252381Y122537D01*
X252360Y122526D01*
X252338Y122503D01*
X252282Y122458D01*
X234412Y104588D01*
X234359Y104514D01*
X234299Y104445D01*
X234287Y104414D01*
X234268Y104388D01*
X234241Y104301D01*
X234207Y104216D01*
X234203Y104175D01*
X234196Y104153D01*
X234197Y104121D01*
X234189Y104050D01*
X234189Y100016D01*
X234208Y99901D01*
X234225Y99785D01*
X234227Y99780D01*
X234228Y99773D01*
X234283Y99671D01*
X234336Y99566D01*
X234341Y99561D01*
X234344Y99556D01*
X234428Y99476D01*
X234512Y99394D01*
X234518Y99390D01*
X234522Y99387D01*
X234539Y99379D01*
X234659Y99313D01*
X235363Y99021D01*
X238721Y95663D01*
X240539Y91275D01*
X240539Y86525D01*
X238721Y82137D01*
X235363Y78779D01*
X230975Y76961D01*
X226225Y76961D01*
G37*
%LPD*%
%LPC*%
G36*
X480225Y915161D02*
X480225Y915161D01*
X475837Y916979D01*
X472479Y920337D01*
X470661Y924725D01*
X470661Y929475D01*
X472479Y933863D01*
X475837Y937221D01*
X480225Y939039D01*
X484975Y939039D01*
X489363Y937221D01*
X492721Y933863D01*
X494539Y929475D01*
X494539Y924725D01*
X492721Y920337D01*
X489363Y916979D01*
X484975Y915161D01*
X480225Y915161D01*
G37*
%LPD*%
%LPC*%
G36*
X556425Y915161D02*
X556425Y915161D01*
X552037Y916979D01*
X548679Y920337D01*
X546861Y924725D01*
X546861Y929475D01*
X548679Y933863D01*
X552037Y937221D01*
X556425Y939039D01*
X561175Y939039D01*
X565563Y937221D01*
X568921Y933863D01*
X570739Y929475D01*
X570739Y924725D01*
X568921Y920337D01*
X565563Y916979D01*
X561175Y915161D01*
X556425Y915161D01*
G37*
%LPD*%
%LPC*%
G36*
X505625Y915161D02*
X505625Y915161D01*
X501237Y916979D01*
X497879Y920337D01*
X496061Y924725D01*
X496061Y929475D01*
X497879Y933863D01*
X501237Y937221D01*
X505625Y939039D01*
X510375Y939039D01*
X514763Y937221D01*
X518121Y933863D01*
X519939Y929475D01*
X519939Y924725D01*
X518121Y920337D01*
X514763Y916979D01*
X510375Y915161D01*
X505625Y915161D01*
G37*
%LPD*%
%LPC*%
G36*
X251625Y915161D02*
X251625Y915161D01*
X247237Y916979D01*
X243879Y920337D01*
X242061Y924725D01*
X242061Y929475D01*
X243879Y933863D01*
X247237Y937221D01*
X251625Y939039D01*
X256375Y939039D01*
X260763Y937221D01*
X264121Y933863D01*
X265939Y929475D01*
X265939Y924725D01*
X264121Y920337D01*
X260763Y916979D01*
X256375Y915161D01*
X251625Y915161D01*
G37*
%LPD*%
%LPC*%
G36*
X226225Y915161D02*
X226225Y915161D01*
X221837Y916979D01*
X218479Y920337D01*
X216661Y924725D01*
X216661Y929475D01*
X218479Y933863D01*
X221837Y937221D01*
X226225Y939039D01*
X230975Y939039D01*
X235363Y937221D01*
X238721Y933863D01*
X240539Y929475D01*
X240539Y924725D01*
X238721Y920337D01*
X235363Y916979D01*
X230975Y915161D01*
X226225Y915161D01*
G37*
%LPD*%
%LPC*%
G36*
X378625Y915161D02*
X378625Y915161D01*
X374237Y916979D01*
X370879Y920337D01*
X369061Y924725D01*
X369061Y929475D01*
X370879Y933863D01*
X374237Y937221D01*
X378625Y939039D01*
X383375Y939039D01*
X387763Y937221D01*
X391121Y933863D01*
X392939Y929475D01*
X392939Y924725D01*
X391121Y920337D01*
X387763Y916979D01*
X383375Y915161D01*
X378625Y915161D01*
G37*
%LPD*%
%LPC*%
G36*
X150025Y915161D02*
X150025Y915161D01*
X145637Y916979D01*
X142279Y920337D01*
X140461Y924725D01*
X140461Y929475D01*
X142279Y933863D01*
X145637Y937221D01*
X150025Y939039D01*
X154775Y939039D01*
X159163Y937221D01*
X162521Y933863D01*
X164339Y929475D01*
X164339Y924725D01*
X162521Y920337D01*
X159163Y916979D01*
X154775Y915161D01*
X150025Y915161D01*
G37*
%LPD*%
%LPC*%
G36*
X404025Y915161D02*
X404025Y915161D01*
X399637Y916979D01*
X396279Y920337D01*
X394461Y924725D01*
X394461Y929475D01*
X396279Y933863D01*
X399637Y937221D01*
X404025Y939039D01*
X408775Y939039D01*
X413163Y937221D01*
X416521Y933863D01*
X418339Y929475D01*
X418339Y924725D01*
X416521Y920337D01*
X413163Y916979D01*
X408775Y915161D01*
X404025Y915161D01*
G37*
%LPD*%
%LPC*%
G36*
X429425Y915161D02*
X429425Y915161D01*
X425037Y916979D01*
X421679Y920337D01*
X419861Y924725D01*
X419861Y929475D01*
X421679Y933863D01*
X425037Y937221D01*
X429425Y939039D01*
X434175Y939039D01*
X438563Y937221D01*
X441921Y933863D01*
X443739Y929475D01*
X443739Y924725D01*
X441921Y920337D01*
X438563Y916979D01*
X434175Y915161D01*
X429425Y915161D01*
G37*
%LPD*%
%LPC*%
G36*
X454825Y915161D02*
X454825Y915161D01*
X450437Y916979D01*
X447079Y920337D01*
X445261Y924725D01*
X445261Y929475D01*
X447079Y933863D01*
X450437Y937221D01*
X454825Y939039D01*
X459575Y939039D01*
X463963Y937221D01*
X467321Y933863D01*
X469139Y929475D01*
X469139Y924725D01*
X467321Y920337D01*
X463963Y916979D01*
X459575Y915161D01*
X454825Y915161D01*
G37*
%LPD*%
%LPC*%
G36*
X531025Y915161D02*
X531025Y915161D01*
X526637Y916979D01*
X523279Y920337D01*
X521461Y924725D01*
X521461Y929475D01*
X523279Y933863D01*
X526637Y937221D01*
X531025Y939039D01*
X535775Y939039D01*
X540163Y937221D01*
X543521Y933863D01*
X545339Y929475D01*
X545339Y924725D01*
X543521Y920337D01*
X540163Y916979D01*
X535775Y915161D01*
X531025Y915161D01*
G37*
%LPD*%
%LPC*%
G36*
X200825Y915161D02*
X200825Y915161D01*
X196437Y916979D01*
X193079Y920337D01*
X191261Y924725D01*
X191261Y929475D01*
X193079Y933863D01*
X196437Y937221D01*
X200825Y939039D01*
X205575Y939039D01*
X209963Y937221D01*
X213321Y933863D01*
X215139Y929475D01*
X215139Y924725D01*
X213321Y920337D01*
X209963Y916979D01*
X205575Y915161D01*
X200825Y915161D01*
G37*
%LPD*%
%LPC*%
G36*
X277025Y915161D02*
X277025Y915161D01*
X272637Y916979D01*
X269279Y920337D01*
X267461Y924725D01*
X267461Y929475D01*
X269279Y933863D01*
X272637Y937221D01*
X277025Y939039D01*
X281775Y939039D01*
X286163Y937221D01*
X289521Y933863D01*
X291339Y929475D01*
X291339Y924725D01*
X289521Y920337D01*
X286163Y916979D01*
X281775Y915161D01*
X277025Y915161D01*
G37*
%LPD*%
%LPC*%
G36*
X175425Y915161D02*
X175425Y915161D01*
X171037Y916979D01*
X167679Y920337D01*
X165861Y924725D01*
X165861Y929475D01*
X167679Y933863D01*
X171037Y937221D01*
X175425Y939039D01*
X180175Y939039D01*
X184563Y937221D01*
X187921Y933863D01*
X189739Y929475D01*
X189739Y924725D01*
X187921Y920337D01*
X184563Y916979D01*
X180175Y915161D01*
X175425Y915161D01*
G37*
%LPD*%
%LPC*%
G36*
X353225Y153161D02*
X353225Y153161D01*
X348837Y154979D01*
X345479Y158337D01*
X343661Y162725D01*
X343661Y167475D01*
X345479Y171863D01*
X348837Y175221D01*
X353225Y177039D01*
X357975Y177039D01*
X362363Y175221D01*
X365721Y171863D01*
X367539Y167475D01*
X367539Y162725D01*
X365721Y158337D01*
X362363Y154979D01*
X357975Y153161D01*
X353225Y153161D01*
G37*
%LPD*%
%LPC*%
G36*
X531025Y153161D02*
X531025Y153161D01*
X526637Y154979D01*
X523279Y158337D01*
X521461Y162725D01*
X521461Y167475D01*
X523279Y171863D01*
X526637Y175221D01*
X531025Y177039D01*
X535775Y177039D01*
X540163Y175221D01*
X543521Y171863D01*
X545339Y167475D01*
X545339Y162725D01*
X543521Y158337D01*
X540163Y154979D01*
X535775Y153161D01*
X531025Y153161D01*
G37*
%LPD*%
%LPC*%
G36*
X556425Y153161D02*
X556425Y153161D01*
X552037Y154979D01*
X548679Y158337D01*
X546861Y162725D01*
X546861Y167475D01*
X548679Y171863D01*
X552037Y175221D01*
X556425Y177039D01*
X561175Y177039D01*
X565563Y175221D01*
X568921Y171863D01*
X570739Y167475D01*
X570739Y162725D01*
X568921Y158337D01*
X565563Y154979D01*
X561175Y153161D01*
X556425Y153161D01*
G37*
%LPD*%
%LPC*%
G36*
X505625Y153161D02*
X505625Y153161D01*
X501237Y154979D01*
X497879Y158337D01*
X496061Y162725D01*
X496061Y167475D01*
X497879Y171863D01*
X501237Y175221D01*
X505625Y177039D01*
X510375Y177039D01*
X514763Y175221D01*
X518121Y171863D01*
X519939Y167475D01*
X519939Y162725D01*
X518121Y158337D01*
X514763Y154979D01*
X510375Y153161D01*
X505625Y153161D01*
G37*
%LPD*%
%LPC*%
G36*
X480225Y153161D02*
X480225Y153161D01*
X475837Y154979D01*
X472479Y158337D01*
X470661Y162725D01*
X470661Y167475D01*
X472479Y171863D01*
X475837Y175221D01*
X480225Y177039D01*
X484975Y177039D01*
X489363Y175221D01*
X492721Y171863D01*
X494539Y167475D01*
X494539Y162725D01*
X492721Y158337D01*
X489363Y154979D01*
X484975Y153161D01*
X480225Y153161D01*
G37*
%LPD*%
%LPC*%
G36*
X454825Y153161D02*
X454825Y153161D01*
X450437Y154979D01*
X447079Y158337D01*
X445261Y162725D01*
X445261Y167475D01*
X447079Y171863D01*
X450437Y175221D01*
X454825Y177039D01*
X459575Y177039D01*
X463963Y175221D01*
X467321Y171863D01*
X469139Y167475D01*
X469139Y162725D01*
X467321Y158337D01*
X463963Y154979D01*
X459575Y153161D01*
X454825Y153161D01*
G37*
%LPD*%
%LPC*%
G36*
X429425Y153161D02*
X429425Y153161D01*
X425037Y154979D01*
X421679Y158337D01*
X419861Y162725D01*
X419861Y167475D01*
X421679Y171863D01*
X425037Y175221D01*
X429425Y177039D01*
X434175Y177039D01*
X438563Y175221D01*
X441921Y171863D01*
X443739Y167475D01*
X443739Y162725D01*
X441921Y158337D01*
X438563Y154979D01*
X434175Y153161D01*
X429425Y153161D01*
G37*
%LPD*%
%LPC*%
G36*
X327825Y915161D02*
X327825Y915161D01*
X323437Y916979D01*
X320079Y920337D01*
X318261Y924725D01*
X318261Y929475D01*
X320079Y933863D01*
X323437Y937221D01*
X327825Y939039D01*
X332575Y939039D01*
X336963Y937221D01*
X340321Y933863D01*
X342139Y929475D01*
X342139Y924725D01*
X340321Y920337D01*
X336963Y916979D01*
X332575Y915161D01*
X327825Y915161D01*
G37*
%LPD*%
%LPC*%
G36*
X302425Y153161D02*
X302425Y153161D01*
X298037Y154979D01*
X294679Y158337D01*
X292861Y162725D01*
X292861Y167475D01*
X294679Y171863D01*
X298037Y175221D01*
X302425Y177039D01*
X307175Y177039D01*
X311563Y175221D01*
X314921Y171863D01*
X316739Y167475D01*
X316739Y162725D01*
X314921Y158337D01*
X311563Y154979D01*
X307175Y153161D01*
X302425Y153161D01*
G37*
%LPD*%
%LPC*%
G36*
X277025Y153161D02*
X277025Y153161D01*
X272637Y154979D01*
X269279Y158337D01*
X267461Y162725D01*
X267461Y167475D01*
X269279Y171863D01*
X272637Y175221D01*
X277025Y177039D01*
X281775Y177039D01*
X286163Y175221D01*
X289521Y171863D01*
X291339Y167475D01*
X291339Y162725D01*
X289521Y158337D01*
X286163Y154979D01*
X281775Y153161D01*
X277025Y153161D01*
G37*
%LPD*%
%LPC*%
G36*
X251625Y153161D02*
X251625Y153161D01*
X247237Y154979D01*
X243879Y158337D01*
X242061Y162725D01*
X242061Y167475D01*
X243879Y171863D01*
X247237Y175221D01*
X251625Y177039D01*
X256375Y177039D01*
X260763Y175221D01*
X264121Y171863D01*
X265939Y167475D01*
X265939Y162725D01*
X264121Y158337D01*
X260763Y154979D01*
X256375Y153161D01*
X251625Y153161D01*
G37*
%LPD*%
%LPC*%
G36*
X175425Y153161D02*
X175425Y153161D01*
X171037Y154979D01*
X167679Y158337D01*
X165861Y162725D01*
X165861Y167475D01*
X167679Y171863D01*
X171037Y175221D01*
X175425Y177039D01*
X180175Y177039D01*
X184563Y175221D01*
X187921Y171863D01*
X189739Y167475D01*
X189739Y162725D01*
X187921Y158337D01*
X184563Y154979D01*
X180175Y153161D01*
X175425Y153161D01*
G37*
%LPD*%
%LPC*%
G36*
X150025Y153161D02*
X150025Y153161D01*
X145637Y154979D01*
X142279Y158337D01*
X140461Y162725D01*
X140461Y167475D01*
X142279Y171863D01*
X145637Y175221D01*
X150025Y177039D01*
X154775Y177039D01*
X159163Y175221D01*
X162521Y171863D01*
X164339Y167475D01*
X164339Y162725D01*
X162521Y158337D01*
X159163Y154979D01*
X154775Y153161D01*
X150025Y153161D01*
G37*
%LPD*%
%LPC*%
G36*
X124625Y153161D02*
X124625Y153161D01*
X120237Y154979D01*
X116879Y158337D01*
X115061Y162725D01*
X115061Y167475D01*
X116879Y171863D01*
X120237Y175221D01*
X124625Y177039D01*
X129375Y177039D01*
X133763Y175221D01*
X137121Y171863D01*
X138939Y167475D01*
X138939Y162725D01*
X137121Y158337D01*
X133763Y154979D01*
X129375Y153161D01*
X124625Y153161D01*
G37*
%LPD*%
%LPC*%
G36*
X327825Y76961D02*
X327825Y76961D01*
X323437Y78779D01*
X320079Y82137D01*
X318261Y86525D01*
X318261Y91275D01*
X320079Y95663D01*
X323437Y99021D01*
X327825Y100839D01*
X332575Y100839D01*
X336963Y99021D01*
X340321Y95663D01*
X342139Y91275D01*
X342139Y86525D01*
X340321Y82137D01*
X336963Y78779D01*
X332575Y76961D01*
X327825Y76961D01*
G37*
%LPD*%
%LPC*%
G36*
X302425Y76961D02*
X302425Y76961D01*
X298037Y78779D01*
X294679Y82137D01*
X292861Y86525D01*
X292861Y91275D01*
X294679Y95663D01*
X298037Y99021D01*
X302425Y100839D01*
X307175Y100839D01*
X311563Y99021D01*
X314921Y95663D01*
X316739Y91275D01*
X316739Y86525D01*
X314921Y82137D01*
X311563Y78779D01*
X307175Y76961D01*
X302425Y76961D01*
G37*
%LPD*%
%LPC*%
G36*
X404025Y76961D02*
X404025Y76961D01*
X399637Y78779D01*
X396279Y82137D01*
X394461Y86525D01*
X394461Y91275D01*
X396279Y95663D01*
X399637Y99021D01*
X404025Y100839D01*
X408775Y100839D01*
X413163Y99021D01*
X416521Y95663D01*
X418339Y91275D01*
X418339Y86525D01*
X416521Y82137D01*
X413163Y78779D01*
X408775Y76961D01*
X404025Y76961D01*
G37*
%LPD*%
%LPC*%
G36*
X378625Y76961D02*
X378625Y76961D01*
X374237Y78779D01*
X370879Y82137D01*
X369061Y86525D01*
X369061Y91275D01*
X370879Y95663D01*
X374237Y99021D01*
X378625Y100839D01*
X383375Y100839D01*
X387763Y99021D01*
X391121Y95663D01*
X392939Y91275D01*
X392939Y86525D01*
X391121Y82137D01*
X387763Y78779D01*
X383375Y76961D01*
X378625Y76961D01*
G37*
%LPD*%
%LPC*%
G36*
X353225Y76961D02*
X353225Y76961D01*
X348837Y78779D01*
X345479Y82137D01*
X343661Y86525D01*
X343661Y91275D01*
X345479Y95663D01*
X348837Y99021D01*
X353225Y100839D01*
X357975Y100839D01*
X362363Y99021D01*
X365721Y95663D01*
X367539Y91275D01*
X367539Y86525D01*
X365721Y82137D01*
X362363Y78779D01*
X357975Y76961D01*
X353225Y76961D01*
G37*
%LPD*%
%LPC*%
G36*
X277025Y76961D02*
X277025Y76961D01*
X272637Y78779D01*
X269279Y82137D01*
X267461Y86525D01*
X267461Y91275D01*
X269279Y95663D01*
X272637Y99021D01*
X277025Y100839D01*
X281775Y100839D01*
X286163Y99021D01*
X289521Y95663D01*
X291339Y91275D01*
X291339Y86525D01*
X289521Y82137D01*
X286163Y78779D01*
X281775Y76961D01*
X277025Y76961D01*
G37*
%LPD*%
%LPC*%
G36*
X200825Y76961D02*
X200825Y76961D01*
X196437Y78779D01*
X193079Y82137D01*
X191261Y86525D01*
X191261Y91275D01*
X193079Y95663D01*
X196437Y99021D01*
X200825Y100839D01*
X205575Y100839D01*
X209963Y99021D01*
X213321Y95663D01*
X215139Y91275D01*
X215139Y86525D01*
X213321Y82137D01*
X209963Y78779D01*
X205575Y76961D01*
X200825Y76961D01*
G37*
%LPD*%
%LPC*%
G36*
X404025Y51561D02*
X404025Y51561D01*
X399637Y53379D01*
X396279Y56737D01*
X394461Y61125D01*
X394461Y65875D01*
X396279Y70263D01*
X399637Y73621D01*
X404025Y75439D01*
X408775Y75439D01*
X413163Y73621D01*
X416521Y70263D01*
X418339Y65875D01*
X418339Y61125D01*
X416521Y56737D01*
X413163Y53379D01*
X408775Y51561D01*
X404025Y51561D01*
G37*
%LPD*%
%LPC*%
G36*
X353225Y51561D02*
X353225Y51561D01*
X348837Y53379D01*
X345479Y56737D01*
X343661Y61125D01*
X343661Y65875D01*
X345479Y70263D01*
X348837Y73621D01*
X353225Y75439D01*
X357975Y75439D01*
X362363Y73621D01*
X365721Y70263D01*
X367539Y65875D01*
X367539Y61125D01*
X365721Y56737D01*
X362363Y53379D01*
X357975Y51561D01*
X353225Y51561D01*
G37*
%LPD*%
%LPC*%
G36*
X327825Y51561D02*
X327825Y51561D01*
X323437Y53379D01*
X320079Y56737D01*
X318261Y61125D01*
X318261Y65875D01*
X320079Y70263D01*
X323437Y73621D01*
X327825Y75439D01*
X332575Y75439D01*
X336963Y73621D01*
X340321Y70263D01*
X342139Y65875D01*
X342139Y61125D01*
X340321Y56737D01*
X336963Y53379D01*
X332575Y51561D01*
X327825Y51561D01*
G37*
%LPD*%
%LPC*%
G36*
X302425Y51561D02*
X302425Y51561D01*
X298037Y53379D01*
X294679Y56737D01*
X292861Y61125D01*
X292861Y65875D01*
X294679Y70263D01*
X298037Y73621D01*
X302425Y75439D01*
X307175Y75439D01*
X311563Y73621D01*
X314921Y70263D01*
X316739Y65875D01*
X316739Y61125D01*
X314921Y56737D01*
X311563Y53379D01*
X307175Y51561D01*
X302425Y51561D01*
G37*
%LPD*%
%LPC*%
G36*
X277025Y51561D02*
X277025Y51561D01*
X272637Y53379D01*
X269279Y56737D01*
X267461Y61125D01*
X267461Y65875D01*
X269279Y70263D01*
X272637Y73621D01*
X277025Y75439D01*
X281775Y75439D01*
X286163Y73621D01*
X289521Y70263D01*
X291339Y65875D01*
X291339Y61125D01*
X289521Y56737D01*
X286163Y53379D01*
X281775Y51561D01*
X277025Y51561D01*
G37*
%LPD*%
%LPC*%
G36*
X251625Y51561D02*
X251625Y51561D01*
X247237Y53379D01*
X243879Y56737D01*
X242061Y61125D01*
X242061Y65875D01*
X243879Y70263D01*
X247237Y73621D01*
X251625Y75439D01*
X256375Y75439D01*
X260763Y73621D01*
X264121Y70263D01*
X265939Y65875D01*
X265939Y61125D01*
X264121Y56737D01*
X260763Y53379D01*
X256375Y51561D01*
X251625Y51561D01*
G37*
%LPD*%
%LPC*%
G36*
X200825Y51561D02*
X200825Y51561D01*
X196437Y53379D01*
X193079Y56737D01*
X191261Y61125D01*
X191261Y65875D01*
X193079Y70263D01*
X196437Y73621D01*
X200825Y75439D01*
X205575Y75439D01*
X209963Y73621D01*
X213321Y70263D01*
X215139Y65875D01*
X215139Y61125D01*
X213321Y56737D01*
X209963Y53379D01*
X205575Y51561D01*
X200825Y51561D01*
G37*
%LPD*%
D10*
X76200Y165100D03*
X101600Y165100D03*
X127000Y165100D03*
X152400Y165100D03*
X177800Y165100D03*
X203200Y165100D03*
X228600Y165100D03*
X254000Y165100D03*
X279400Y165100D03*
X304800Y165100D03*
X330200Y165100D03*
X355600Y165100D03*
X381000Y165100D03*
X406400Y165100D03*
X431800Y165100D03*
X457200Y165100D03*
X482600Y165100D03*
X508000Y165100D03*
X533400Y165100D03*
X558800Y165100D03*
X76200Y927100D03*
X101600Y927100D03*
X127000Y927100D03*
X152400Y927100D03*
X177800Y927100D03*
X203200Y927100D03*
X228600Y927100D03*
X254000Y927100D03*
X279400Y927100D03*
X304800Y927100D03*
X330200Y927100D03*
X355600Y927100D03*
X381000Y927100D03*
X406400Y927100D03*
X431800Y927100D03*
X457200Y927100D03*
X482600Y927100D03*
X508000Y927100D03*
X533400Y927100D03*
X558800Y927100D03*
X203200Y63500D03*
X203200Y88900D03*
X228600Y63500D03*
X228600Y88900D03*
X254000Y63500D03*
X254000Y88900D03*
X279400Y63500D03*
X279400Y88900D03*
X304800Y63500D03*
X304800Y88900D03*
X330200Y63500D03*
X330200Y88900D03*
X355600Y63500D03*
X355600Y88900D03*
X381000Y63500D03*
X381000Y88900D03*
X406400Y63500D03*
X406400Y88900D03*
X431800Y63500D03*
X431800Y88900D03*
D11*
X101600Y93345D02*
X101600Y165100D01*
X101600Y93345D02*
X174625Y20320D01*
X410845Y20320D01*
X447675Y57150D01*
X101600Y165100D02*
X101600Y927100D01*
X431800Y88900D02*
X436880Y88900D01*
X447675Y78105D01*
X447675Y57150D01*
X190500Y34925D02*
X174625Y50800D01*
X190500Y34925D02*
X358775Y34925D01*
X127000Y297180D02*
X127000Y927100D01*
X381000Y63500D02*
X381000Y57150D01*
X358775Y34925D01*
X228600Y165100D02*
X174625Y111125D01*
X174625Y50800D01*
X228600Y165100D02*
X228600Y195580D01*
X127000Y297180D01*
X184150Y53975D02*
X193675Y44450D01*
X184150Y53975D02*
X184150Y98425D01*
X231775Y146050D01*
X317500Y146050D01*
X304800Y196850D02*
X304800Y927100D01*
X228600Y63500D02*
X228600Y53340D01*
X219710Y44450D01*
X193675Y44450D01*
X330200Y158750D02*
X330200Y165100D01*
X330200Y158750D02*
X317500Y146050D01*
X330200Y165100D02*
X330200Y171450D01*
X304800Y196850D01*
X269875Y111125D02*
X533400Y111125D01*
X577850Y155575D01*
X577850Y174625D01*
X568325Y184150D01*
X355600Y219075D02*
X355600Y927100D01*
X381000Y193675D02*
X390525Y184150D01*
X381000Y193675D02*
X355600Y219075D01*
X390525Y184150D02*
X568325Y184150D01*
X381000Y193675D02*
X381000Y165100D01*
X254000Y95250D02*
X254000Y88900D01*
X254000Y95250D02*
X269875Y111125D01*
X228600Y106680D02*
X228600Y88900D01*
X228600Y106680D02*
X250190Y128270D01*
X392430Y128270D02*
X406400Y142240D01*
X406400Y165100D01*
X392430Y128270D02*
X250190Y128270D01*
M02*
