G04 EAGLE Gerber RS-274X export*
G75*
%MOMM*%
%FSLAX34Y34*%
%LPD*%
%IN*%
%IPPOS*%
%AMOC8*
5,1,8,0,0,1.08239X$1,22.5*%
G01*
%ADD10C,0.254000*%


D10*
X0Y25400D02*
X97Y23186D01*
X386Y20989D01*
X865Y18826D01*
X1532Y16713D01*
X2380Y14666D01*
X3403Y12700D01*
X4594Y10831D01*
X5942Y9073D01*
X7440Y7440D01*
X9073Y5942D01*
X10831Y4594D01*
X12700Y3403D01*
X14666Y2380D01*
X16713Y1532D01*
X18826Y865D01*
X20989Y386D01*
X23186Y97D01*
X25400Y0D01*
X609600Y0D01*
X611814Y97D01*
X614011Y386D01*
X616174Y865D01*
X618287Y1532D01*
X620335Y2380D01*
X622300Y3403D01*
X624169Y4594D01*
X625927Y5942D01*
X627561Y7440D01*
X629058Y9073D01*
X630406Y10831D01*
X631597Y12700D01*
X632620Y14666D01*
X633468Y16713D01*
X634135Y18826D01*
X634614Y20989D01*
X634903Y23186D01*
X635000Y25400D01*
X635000Y939800D01*
X634903Y942014D01*
X634614Y944211D01*
X634135Y946374D01*
X633468Y948487D01*
X632620Y950535D01*
X631597Y952500D01*
X630406Y954369D01*
X629058Y956127D01*
X627561Y957761D01*
X625927Y959258D01*
X624169Y960606D01*
X622300Y961797D01*
X620335Y962820D01*
X618287Y963668D01*
X616174Y964335D01*
X614011Y964814D01*
X611814Y965103D01*
X609600Y965200D01*
X25400Y965200D01*
X23186Y965103D01*
X20989Y964814D01*
X18826Y964335D01*
X16713Y963668D01*
X14666Y962820D01*
X12700Y961797D01*
X10831Y960606D01*
X9073Y959258D01*
X7440Y957761D01*
X5942Y956127D01*
X4594Y954369D01*
X3403Y952500D01*
X2380Y950535D01*
X1532Y948487D01*
X865Y946374D01*
X386Y944211D01*
X97Y942014D01*
X0Y939800D01*
X0Y25400D01*
X40400Y24864D02*
X40324Y23796D01*
X40171Y22735D01*
X39943Y21688D01*
X39641Y20660D01*
X39267Y19656D01*
X38822Y18681D01*
X38308Y17741D01*
X37729Y16840D01*
X37087Y15982D01*
X36385Y15172D01*
X35628Y14415D01*
X34818Y13713D01*
X33960Y13071D01*
X33059Y12492D01*
X32119Y11978D01*
X31144Y11533D01*
X30140Y11159D01*
X29112Y10857D01*
X28065Y10629D01*
X27004Y10476D01*
X25936Y10400D01*
X24864Y10400D01*
X23796Y10476D01*
X22735Y10629D01*
X21688Y10857D01*
X20660Y11159D01*
X19656Y11533D01*
X18681Y11978D01*
X17741Y12492D01*
X16840Y13071D01*
X15982Y13713D01*
X15172Y14415D01*
X14415Y15172D01*
X13713Y15982D01*
X13071Y16840D01*
X12492Y17741D01*
X11978Y18681D01*
X11533Y19656D01*
X11159Y20660D01*
X10857Y21688D01*
X10629Y22735D01*
X10476Y23796D01*
X10400Y24864D01*
X10400Y25936D01*
X10476Y27004D01*
X10629Y28065D01*
X10857Y29112D01*
X11159Y30140D01*
X11533Y31144D01*
X11978Y32119D01*
X12492Y33059D01*
X13071Y33960D01*
X13713Y34818D01*
X14415Y35628D01*
X15172Y36385D01*
X15982Y37087D01*
X16840Y37729D01*
X17741Y38308D01*
X18681Y38822D01*
X19656Y39267D01*
X20660Y39641D01*
X21688Y39943D01*
X22735Y40171D01*
X23796Y40324D01*
X24864Y40400D01*
X25936Y40400D01*
X27004Y40324D01*
X28065Y40171D01*
X29112Y39943D01*
X30140Y39641D01*
X31144Y39267D01*
X32119Y38822D01*
X33059Y38308D01*
X33960Y37729D01*
X34818Y37087D01*
X35628Y36385D01*
X36385Y35628D01*
X37087Y34818D01*
X37729Y33960D01*
X38308Y33059D01*
X38822Y32119D01*
X39267Y31144D01*
X39641Y30140D01*
X39943Y29112D01*
X40171Y28065D01*
X40324Y27004D01*
X40400Y25936D01*
X40400Y24864D01*
X624600Y24864D02*
X624524Y23796D01*
X624371Y22735D01*
X624143Y21688D01*
X623841Y20660D01*
X623467Y19656D01*
X623022Y18681D01*
X622508Y17741D01*
X621929Y16840D01*
X621287Y15982D01*
X620585Y15172D01*
X619828Y14415D01*
X619018Y13713D01*
X618160Y13071D01*
X617259Y12492D01*
X616319Y11978D01*
X615344Y11533D01*
X614340Y11159D01*
X613312Y10857D01*
X612265Y10629D01*
X611204Y10476D01*
X610136Y10400D01*
X609064Y10400D01*
X607996Y10476D01*
X606935Y10629D01*
X605888Y10857D01*
X604860Y11159D01*
X603856Y11533D01*
X602881Y11978D01*
X601941Y12492D01*
X601040Y13071D01*
X600182Y13713D01*
X599372Y14415D01*
X598615Y15172D01*
X597913Y15982D01*
X597271Y16840D01*
X596692Y17741D01*
X596178Y18681D01*
X595733Y19656D01*
X595359Y20660D01*
X595057Y21688D01*
X594829Y22735D01*
X594676Y23796D01*
X594600Y24864D01*
X594600Y25936D01*
X594676Y27004D01*
X594829Y28065D01*
X595057Y29112D01*
X595359Y30140D01*
X595733Y31144D01*
X596178Y32119D01*
X596692Y33059D01*
X597271Y33960D01*
X597913Y34818D01*
X598615Y35628D01*
X599372Y36385D01*
X600182Y37087D01*
X601040Y37729D01*
X601941Y38308D01*
X602881Y38822D01*
X603856Y39267D01*
X604860Y39641D01*
X605888Y39943D01*
X606935Y40171D01*
X607996Y40324D01*
X609064Y40400D01*
X610136Y40400D01*
X611204Y40324D01*
X612265Y40171D01*
X613312Y39943D01*
X614340Y39641D01*
X615344Y39267D01*
X616319Y38822D01*
X617259Y38308D01*
X618160Y37729D01*
X619018Y37087D01*
X619828Y36385D01*
X620585Y35628D01*
X621287Y34818D01*
X621929Y33960D01*
X622508Y33059D01*
X623022Y32119D01*
X623467Y31144D01*
X623841Y30140D01*
X624143Y29112D01*
X624371Y28065D01*
X624524Y27004D01*
X624600Y25936D01*
X624600Y24864D01*
X624600Y939264D02*
X624524Y938196D01*
X624371Y937135D01*
X624143Y936088D01*
X623841Y935060D01*
X623467Y934056D01*
X623022Y933081D01*
X622508Y932141D01*
X621929Y931240D01*
X621287Y930382D01*
X620585Y929572D01*
X619828Y928815D01*
X619018Y928113D01*
X618160Y927471D01*
X617259Y926892D01*
X616319Y926378D01*
X615344Y925933D01*
X614340Y925559D01*
X613312Y925257D01*
X612265Y925029D01*
X611204Y924876D01*
X610136Y924800D01*
X609064Y924800D01*
X607996Y924876D01*
X606935Y925029D01*
X605888Y925257D01*
X604860Y925559D01*
X603856Y925933D01*
X602881Y926378D01*
X601941Y926892D01*
X601040Y927471D01*
X600182Y928113D01*
X599372Y928815D01*
X598615Y929572D01*
X597913Y930382D01*
X597271Y931240D01*
X596692Y932141D01*
X596178Y933081D01*
X595733Y934056D01*
X595359Y935060D01*
X595057Y936088D01*
X594829Y937135D01*
X594676Y938196D01*
X594600Y939264D01*
X594600Y940336D01*
X594676Y941404D01*
X594829Y942465D01*
X595057Y943512D01*
X595359Y944540D01*
X595733Y945544D01*
X596178Y946519D01*
X596692Y947459D01*
X597271Y948360D01*
X597913Y949218D01*
X598615Y950028D01*
X599372Y950785D01*
X600182Y951487D01*
X601040Y952129D01*
X601941Y952708D01*
X602881Y953222D01*
X603856Y953667D01*
X604860Y954041D01*
X605888Y954343D01*
X606935Y954571D01*
X607996Y954724D01*
X609064Y954800D01*
X610136Y954800D01*
X611204Y954724D01*
X612265Y954571D01*
X613312Y954343D01*
X614340Y954041D01*
X615344Y953667D01*
X616319Y953222D01*
X617259Y952708D01*
X618160Y952129D01*
X619018Y951487D01*
X619828Y950785D01*
X620585Y950028D01*
X621287Y949218D01*
X621929Y948360D01*
X622508Y947459D01*
X623022Y946519D01*
X623467Y945544D01*
X623841Y944540D01*
X624143Y943512D01*
X624371Y942465D01*
X624524Y941404D01*
X624600Y940336D01*
X624600Y939264D01*
X40400Y939264D02*
X40324Y938196D01*
X40171Y937135D01*
X39943Y936088D01*
X39641Y935060D01*
X39267Y934056D01*
X38822Y933081D01*
X38308Y932141D01*
X37729Y931240D01*
X37087Y930382D01*
X36385Y929572D01*
X35628Y928815D01*
X34818Y928113D01*
X33960Y927471D01*
X33059Y926892D01*
X32119Y926378D01*
X31144Y925933D01*
X30140Y925559D01*
X29112Y925257D01*
X28065Y925029D01*
X27004Y924876D01*
X25936Y924800D01*
X24864Y924800D01*
X23796Y924876D01*
X22735Y925029D01*
X21688Y925257D01*
X20660Y925559D01*
X19656Y925933D01*
X18681Y926378D01*
X17741Y926892D01*
X16840Y927471D01*
X15982Y928113D01*
X15172Y928815D01*
X14415Y929572D01*
X13713Y930382D01*
X13071Y931240D01*
X12492Y932141D01*
X11978Y933081D01*
X11533Y934056D01*
X11159Y935060D01*
X10857Y936088D01*
X10629Y937135D01*
X10476Y938196D01*
X10400Y939264D01*
X10400Y940336D01*
X10476Y941404D01*
X10629Y942465D01*
X10857Y943512D01*
X11159Y944540D01*
X11533Y945544D01*
X11978Y946519D01*
X12492Y947459D01*
X13071Y948360D01*
X13713Y949218D01*
X14415Y950028D01*
X15172Y950785D01*
X15982Y951487D01*
X16840Y952129D01*
X17741Y952708D01*
X18681Y953222D01*
X19656Y953667D01*
X20660Y954041D01*
X21688Y954343D01*
X22735Y954571D01*
X23796Y954724D01*
X24864Y954800D01*
X25936Y954800D01*
X27004Y954724D01*
X28065Y954571D01*
X29112Y954343D01*
X30140Y954041D01*
X31144Y953667D01*
X32119Y953222D01*
X33059Y952708D01*
X33960Y952129D01*
X34818Y951487D01*
X35628Y950785D01*
X36385Y950028D01*
X37087Y949218D01*
X37729Y948360D01*
X38308Y947459D01*
X38822Y946519D01*
X39267Y945544D01*
X39641Y944540D01*
X39943Y943512D01*
X40171Y942465D01*
X40324Y941404D01*
X40400Y940336D01*
X40400Y939264D01*
M02*
