<?xml version="1.0" encoding="UTF-8" standalone="no"?>
<!-- Created with Inkscape (http://www.inkscape.org/) -->

<svg
   width="54.249516mm"
   height="291.56714mm"
   viewBox="0 0 54.249516 291.56714"
   version="1.1"
   id="svg1"
   xml:space="preserve"
   inkscape:version="1.4 (86a8ad7, 2024-10-11)"
   sodipodi:docname="cabo_vermelho_uUSB.svg"
   xmlns:inkscape="http://www.inkscape.org/namespaces/inkscape"
   xmlns:sodipodi="http://sodipodi.sourceforge.net/DTD/sodipodi-0.dtd"
   xmlns="http://www.w3.org/2000/svg"
   xmlns:svg="http://www.w3.org/2000/svg"><sodipodi:namedview
     id="namedview1"
     pagecolor="#ffffff"
     bordercolor="#000000"
     borderopacity="0.25"
     inkscape:showpageshadow="2"
     inkscape:pageopacity="0.0"
     inkscape:pagecheckerboard="0"
     inkscape:deskcolor="#d1d1d1"
     inkscape:document-units="mm"
     inkscape:zoom="0.71891835"
     inkscape:cx="-331.74838"
     inkscape:cy="539.00419"
     inkscape:window-width="1920"
     inkscape:window-height="1009"
     inkscape:window-x="-8"
     inkscape:window-y="-8"
     inkscape:window-maximized="1"
     inkscape:current-layer="layer1" /><defs
     id="defs1" /><g
     inkscape:label="Camada 1"
     inkscape:groupmode="layer"
     id="layer1"
     transform="translate(-192.66756,-5.8686518)"><g
       id="g1"
       transform="translate(109.30483,1.1040892)"><path
         style="fill:#e9e9e9"
         d="m 89.034754,296.1329 c -0.841815,-0.56209 -0.899505,-1.40493 -0.899505,-13.14157 v -11.79135 h -2.06375 c -1.252361,0 -2.188579,-0.12483 -2.38125,-0.3175 -0.436686,-0.43669 -0.436686,-6.07207 0,-6.50875 0.192671,-0.19267 1.128889,-0.3175 2.38125,-0.3175 1.135063,0 2.06375,-0.0718 2.06375,-0.15945 0,-0.0877 -0.327422,-0.74962 -0.727604,-1.47095 l -0.727604,-1.31152 0.742358,-0.64571 c 1.092395,-0.95017 1.642213,-0.82771 2.44663,0.54492 0.383764,0.65484 0.805501,1.19062 0.937195,1.19062 0.13283,0 0.239442,-1.87353 0.239442,-4.20779 v -4.20779 l -2.534206,-0.0917 -2.534205,-0.0917 -0.905378,-0.98831 -0.905378,-0.9883 0.0094,-36.31795 c 0.0075,-29.02954 0.07745,-36.44061 0.348569,-36.9292 0.186556,-0.33618 0.688353,-0.84142 1.115103,-1.12273 0.693157,-0.45693 1.275639,-0.51167 5.461448,-0.51323 l 4.685538,-0.002 0.07696,-11.17865 0.07696,-11.17864 0.64199,-1.12085 c 0.619904,-1.08228 2.227064,-2.45103 2.877961,-2.45103 0.244857,0 0.316508,-16.53136 0.316508,-73.024998 V 4.7645626 h 10.847914 10.84792 l 7.1e-4,72.9588534 7.2e-4,72.958854 0.96991,0.52917 c 0.53345,0.29104 1.3368,0.98658 1.78522,1.54564 l 0.81531,1.01648 0.0742,11.48508 0.0742,11.48509 h 4.89059 4.8906 l 0.9883,0.90568 0.9883,0.90569 0.0689,36.27602 c 0.0762,40.1039 0.19361,37.29236 -1.60314,38.3879 -0.65892,0.40177 -1.33184,0.5167 -3.02986,0.51747 l -2.18281,9.9e-4 v 4.23333 c 0,2.32833 0.0902,4.23333 0.20036,4.23333 0.1102,0 0.52399,-0.53578 0.91953,-1.19062 0.82565,-1.36692 1.40219,-1.49928 2.48263,-0.56992 l 0.72161,0.6207 -0.70686,1.26471 c -0.38877,0.69558 -0.70686,1.36877 -0.70686,1.49596 0,0.12719 0.86916,0.23126 1.93146,0.23126 1.14947,0 2.06001,0.12854 2.24896,0.3175 0.20937,0.20936 0.3175,1.3326 0.3175,3.29798 0,3.52174 -0.005,3.52827 -2.89302,3.52827 h -1.86948 v 12.12982 c 0,11.41516 -0.0285,12.15563 -0.48385,12.56771 -0.44187,0.39989 -2.33025,0.43753 -21.76198,0.43383 -11.70297,-0.002 -21.40913,-0.0915 -21.569246,-0.19844 z"
         id="path7" /><path
         style="fill:#a0a0a0"
         d="m 89.034754,296.1329 c -0.841815,-0.56209 -0.899505,-1.40493 -0.899505,-13.14157 v -11.79135 h -1.965476 c -2.702856,0 -2.797024,-0.12026 -2.797024,-3.57188 0,-3.45162 0.09417,-3.57187 2.797024,-3.57187 1.221855,0 1.965476,-0.10731 1.965476,-0.28362 0,-0.15599 -0.319354,-0.82855 -0.709675,-1.49458 l -0.709676,-1.21097 0.775822,-0.62077 c 1.097997,-0.87855 1.475758,-0.78509 2.292588,0.56723 0.39554,0.65484 0.841157,1.19062 0.990261,1.19062 0.173709,0 0.271097,-1.51158 0.271097,-4.20779 v -4.20779 l -2.534206,-0.0917 -2.534205,-0.0917 -0.905378,-0.98831 -0.905378,-0.9883 0.0094,-36.31795 c 0.0075,-29.02954 0.07745,-36.44061 0.348569,-36.9292 0.186556,-0.33618 0.688353,-0.84142 1.115103,-1.12273 0.693327,-0.45705 1.275763,-0.51167 5.472265,-0.51323 l 4.696354,-0.002 v -10.46617 c 0,-6.75773 0.103496,-10.8772 0.292094,-11.62618 0.344292,-1.36731 1.737373,-3.09774 2.872279,-3.56783 l 0.804377,-0.33319 V 77.757463 4.7645626 h 10.84791 10.84792 l 7.1e-4,72.9588534 7.2e-4,72.958854 0.96991,0.52917 c 0.53345,0.29104 1.3368,0.98658 1.78522,1.54564 l 0.81531,1.01648 0.0742,11.48508 0.0742,11.48509 h 4.89059 4.8906 l 0.9883,0.90568 0.9883,0.90569 0.0689,36.27602 c 0.0762,40.1039 0.19361,37.29236 -1.60314,38.3879 -0.65892,0.40177 -1.33184,0.5167 -3.02986,0.51747 l -2.18281,9.9e-4 v 4.23333 c 0,2.3495 0.10655,4.23333 0.23944,4.23333 0.13169,0 0.55343,-0.53578 0.9372,-1.19062 0.75473,-1.28786 1.13331,-1.4229 2.13996,-0.76332 0.79015,0.51773 0.82352,1.13092 0.12397,2.27828 -0.85011,1.39431 -0.73823,1.52775 1.28092,1.52775 2.52294,0 2.68684,0.2207 2.68684,3.61784 0,3.33919 -0.15172,3.52591 -2.8651,3.52591 h -1.8974 v 12.12982 c 0,11.41516 -0.0285,12.15563 -0.48385,12.56771 -0.44187,0.39989 -2.33025,0.43753 -21.76198,0.43383 -11.702966,-0.002 -21.409126,-0.0915 -21.569242,-0.19844 z m 6.769799,-1.18657 c -0.0075,-1.79385 -0.1677,-1.97361 -2.071127,-2.32457 -0.968945,-0.17866 -1.910547,-0.44279 -2.092448,-0.58696 -0.42447,-0.33641 -0.434679,-2.89796 -0.01323,-3.31941 0.216142,-0.21614 1.478333,-0.3175 3.953747,-0.3175 4.593675,0 4.460005,-0.12864 4.460005,4.29221 v 3.11613 h 3.04271 3.04271 V 294.438 c 0,-2.22466 0.2155,-2.33594 4.52392,-2.33594 3.46996,0 3.66827,0.0287 4.06003,0.58804 0.23325,0.33301 0.41188,1.13624 0.41188,1.85208 v 1.26405 h 3.04271 3.04271 v -3.22032 c 0,-4.34637 -0.17127,-4.18802 4.52961,-4.18802 3.34167,0 3.67725,0.0437 3.92774,0.51178 0.33106,0.61859 0.3539,2.39186 0.0373,2.89167 -0.1257,0.1984 -1.10615,0.55944 -2.17876,0.8023 l -1.95022,0.44157 -0.08,1.38051 -0.08,1.38051 h 3.13591 c 2.08627,0 3.24219,-0.10628 3.45341,-0.3175 0.23988,-0.23988 0.3175,-4.19053 0.3175,-16.15862 V 263.489 l 0.69423,-1.18461 c 0.66924,-1.14197 0.67649,-1.19758 0.20136,-1.54501 -0.62119,-0.45422 -0.73595,-0.37707 -1.57905,1.06156 -0.7823,1.3349 -1.11166,1.41463 -2.46031,0.59561 -1.24259,-0.75462 -1.34526,-0.92557 -1.35009,-2.24792 -0.007,-2.03521 0.90541,-1.93324 -17.30615,-1.93324 -18.17719,0 -17.093735,-0.12577 -17.093735,1.98438 0,1.20011 -0.313154,1.60993 -1.809818,2.36849 -1.121618,0.56847 -1.477822,0.4218 -2.143197,-0.88244 -0.66749,-1.30839 -0.817263,-1.40215 -1.473391,-0.92238 -0.522419,0.38201 -0.521978,0.39107 0.06906,1.41802 l 0.594842,1.03356 v 15.60692 c 0,9.50023 0.100964,15.87248 0.258035,16.2856 0.258026,0.67867 0.258136,0.67869 3.571874,0.67869 h 3.313841 z m -1.530971,-18.5076 c -0.187695,-0.1877 -0.3175,-1.09038 -0.3175,-2.20795 0,-1.55444 -0.09406,-1.97558 -0.529166,-2.36934 -0.437231,-0.39569 -0.529167,-0.81491 -0.529167,-2.41295 0,-2.38736 0.128727,-2.48185 3.381182,-2.48185 2.947062,0 3.233401,0.23053 3.233401,2.60311 0,1.30799 -0.105942,1.72612 -0.529166,2.08849 -0.437232,0.37437 -0.529167,0.78051 -0.529167,2.33766 0,2.36968 -0.341817,2.76033 -2.415313,2.76033 -0.796182,0 -1.590479,-0.14288 -1.765104,-0.3175 z m 28.795978,-0.19428 c -0.15064,-0.28147 -0.27389,-1.27505 -0.27389,-2.20795 0,-1.36016 -0.10483,-1.79104 -0.52917,-2.17506 -0.73956,-0.66929 -0.77138,-3.79983 -0.0453,-4.45691 0.7357,-0.6658 5.08045,-0.63072 5.69284,0.046 0.6752,0.74609 0.61254,3.77398 -0.0913,4.41094 -0.43511,0.39376 -0.52917,0.8149 -0.52917,2.36934 0,1.11757 -0.1298,2.02025 -0.3175,2.20795 -0.17937,0.17937 -1.03862,0.3175 -1.97506,0.3175 -1.368,0 -1.70542,-0.0894 -1.93146,-0.51178 z M 92.633166,260.47327 c 0,-1.37032 0.453957,-2.25545 1.325473,-2.58441 0.559977,-0.21137 0.791193,-0.475 0.791193,-0.9021 0,-0.70703 0.864272,-1.66178 1.504302,-1.66178 0.664628,0 1.670698,1.0634 1.670698,1.76591 v 0.61534 h 12.567708 12.56771 v -0.66146 c 0,-0.7859 0.85162,-1.71979 1.56829,-1.71979 0.60104,0 1.60671,1.18158 1.60671,1.88776 0,0.30139 0.18803,0.49349 0.48304,0.49349 0.8047,0 1.6543,1.1608 1.84977,2.52731 0.0995,0.69582 0.32975,1.31472 0.51158,1.37533 0.25468,0.0849 0.33061,-0.80633 0.33061,-3.88059 v -3.9908 H 110.62483 91.839416 v 3.96044 c 0,3.4117 0.05499,3.93935 0.396875,3.80815 0.242765,-0.0932 0.396875,-0.4942 0.396875,-1.0328 z m 4.449345,-3.49465 c -0.151213,-1.31417 -1.787752,-1.07355 -1.79946,0.26459 -0.0031,0.35517 0.215728,0.46302 0.939564,0.46302 0.873306,0 0.937378,-0.0542 0.859896,-0.72761 z m 28.310419,0 c -0.15122,-1.31417 -1.78775,-1.07355 -1.79946,0.26459 -0.003,0.35517 0.21572,0.46302 0.93956,0.46302 0.87331,0 0.93738,-0.0542 0.8599,-0.72761 z"
         id="path6" /><path
         style="fill:#8a8891"
         d="m 89.034754,296.1329 c -0.842549,-0.56258 -0.899505,-1.40307 -0.899505,-13.27386 v -11.92365 h -2.107357 c -2.569871,0 -2.65665,-0.1055 -2.65153,-3.22375 0.0057,-3.48929 -0.06805,-3.39083 2.540788,-3.39083 2.503067,0 2.671612,-0.17897 1.687944,-1.79233 -0.742179,-1.21729 -0.670387,-1.82471 0.273342,-2.31273 0.972505,-0.5029 1.120246,-0.42278 2.005308,1.08746 0.383042,0.65361 0.830939,1.14368 0.995327,1.08904 0.201481,-0.067 0.32254,-1.48529 0.371467,-4.35207 l 0.07258,-4.25271 -2.673036,-0.0911 -2.673037,-0.0911 -0.905273,-0.98831 -0.905273,-0.9883 V 215.2406 178.85262 l 0.905119,-0.9883 0.905118,-0.9883 4.915715,-0.0825 4.915715,-0.0825 v -10.4498 c 0,-6.7458 0.103535,-10.86099 0.292094,-11.60982 0.344292,-1.36731 1.737373,-3.09774 2.872279,-3.56783 l 0.804377,-0.33319 V 77.757463 4.7645626 h 10.847914 10.84792 l 0.002,72.9588534 0.002,72.958854 1.07337,0.61303 c 0.59838,0.34176 1.41705,1.15499 1.85004,1.83774 l 0.77669,1.22471 v 11.19299 11.19299 h 4.64334 c 5.16987,0 5.82739,0.16247 6.74445,1.66649 0.50556,0.82915 0.51648,1.60742 0.51648,36.83038 0,35.22296 -0.0109,36.00124 -0.51648,36.83039 -0.78932,1.29452 -1.76467,1.66649 -4.36975,1.66649 h -2.26865 l 0.0727,4.27771 c 0.0469,2.75926 0.17385,4.31133 0.35768,4.37242 0.15673,0.0521 0.61065,-0.50366 1.0087,-1.235 0.39804,-0.73134 0.84674,-1.32972 0.99711,-1.32972 0.53013,0 1.81025,0.91263 1.81025,1.29058 0,0.2105 -0.30962,0.91105 -0.68804,1.55678 -0.3788,0.64636 -0.58677,1.27534 -0.46272,1.39939 0.12394,0.12393 1.11816,0.26091 2.2094,0.3044 l 1.98407,0.0791 v 3.175 3.175 l -2.11667,0.13229 -2.11667,0.1323 -0.0688,12.15298 c -0.0614,10.84535 -0.11568,12.20473 -0.50403,12.63385 -0.41381,0.45726 -1.48223,0.48067 -21.75928,0.47682 -11.728252,-0.002 -21.4551,-0.0915 -21.615216,-0.19844 z m 6.773412,-1.52297 c 0,-1.6584 -0.08645,-1.73182 -2.63595,-2.23893 -1.669488,-0.33207 -1.852406,-0.53252 -1.857915,-2.03598 -0.0066,-1.79144 0.309131,-1.93713 4.19761,-1.93713 2.283719,0 3.512751,0.10662 3.812586,0.33073 0.366824,0.27419 0.454629,0.91877 0.51359,3.77032 l 0.07112,3.43958 3.108853,0.0745 3.10886,0.0745 v -1.4636 c 0,-2.34154 0.31813,-2.52194 4.44734,-2.52194 2.30152,0 3.52939,0.10613 3.82646,0.33073 0.3029,0.229 0.46087,0.81903 0.51359,1.91823 l 0.0761,1.5875 h 3.175 3.175 l 0.0711,-3.43958 c 0.059,-2.85155 0.14676,-3.49613 0.51359,-3.77032 0.4617,-0.3451 6.50943,-0.48545 7.33115,-0.17013 0.32056,0.12301 0.41851,0.5521 0.41851,1.83333 v 1.67272 l -1.52135,0.29506 c -2.62273,0.50867 -2.71198,0.58273 -2.71198,2.25033 v 1.46088 h 3.04271 c 2.68993,0 3.10406,-0.0614 3.57187,-0.52917 0.51743,-0.51743 0.52917,-0.88194 0.52917,-16.43428 0,-15.86639 0.001,-15.90763 0.57842,-16.9343 0.56989,-1.01396 0.57086,-1.03489 0.0661,-1.41667 -0.7301,-0.55226 -0.76788,-0.53201 -1.46725,0.7863 -0.72733,1.37103 -1.39709,1.52908 -2.81534,0.66435 -0.7323,-0.44649 -0.8599,-0.67661 -0.8599,-1.55083 0,-0.63789 -0.20761,-1.29047 -0.54837,-1.72368 l -0.54837,-0.69714 h -16.38496 c -16.032186,0 -16.396358,0.0114 -16.914131,0.52917 -0.369482,0.36948 -0.529167,0.88195 -0.529167,1.69821 0,1.04193 -0.0969,1.22894 -0.891125,1.71979 -1.384538,0.8557 -2.085988,0.72947 -2.776813,-0.49969 -0.742511,-1.32112 -0.878481,-1.39969 -1.576344,-0.91089 l -0.568019,0.39786 0.657192,1.04106 0.657193,1.04106 v 15.88026 c 0,15.52748 0.01175,15.89201 0.529167,16.40942 0.467814,0.46782 0.881944,0.52917 3.571874,0.52917 h 3.042709 z m -1.43631,-18.26948 c -0.296134,-0.29613 -0.415774,-0.93147 -0.415774,-2.20795 0,-1.45616 -0.09921,-1.88196 -0.529166,-2.27106 -0.428258,-0.38757 -0.528394,-0.81164 -0.525115,-2.22382 0.0022,-0.95972 0.101167,-1.89799 0.219865,-2.08507 0.159353,-0.25115 0.971614,-0.32037 3.104802,-0.26458 l 2.888989,0.0756 0.07787,2.08354 c 0.06908,1.8484 0.01682,2.12631 -0.463021,2.4624 -0.460146,0.3223 -0.54089,0.66495 -0.54089,2.29531 0,1.1378 -0.129001,2.04546 -0.3175,2.23396 -0.474525,0.47452 -2.998118,0.40366 -3.50006,-0.0983 z m 29.019124,0.24055 c -0.22052,-0.089 -0.33073,-0.75261 -0.33073,-1.99144 0,-1.59584 -0.0933,-1.9689 -0.66146,-2.64408 -0.52974,-0.62957 -0.66146,-1.0753 -0.66146,-2.23841 0,-2.40028 0.10094,-2.47584 3.30729,-2.47584 3.20635,0 3.30729,0.0756 3.30729,2.47584 0,1.16311 -0.13171,1.60884 -0.66145,2.23841 -0.56767,0.67463 -0.66146,1.04866 -0.66146,2.63782 0,1.44446 -0.0921,1.88705 -0.41852,2.01233 -0.49151,0.18861 -2.74115,0.17839 -3.2195,-0.0146 z m 6.28385,-18.74248 v -4.10104 h -19.05 -19.049998 v 3.96875 c 0,3.08002 0.07702,3.96875 0.343959,3.96875 0.630745,0 0.978958,-0.62383 0.978958,-1.75381 0,-1.16253 0.398471,-1.78924 1.324483,-2.08315 0.330834,-0.105 0.5276,-0.40044 0.5276,-0.79218 0,-0.83214 0.665802,-1.45628 1.553483,-1.45628 0.921993,0 1.356934,0.441 1.356934,1.37583 v 0.74084 h 12.700001 c 12.65833,0 12.7,-0.002 12.7,-0.54656 0,-1.0197 0.49484,-1.57011 1.4116,-1.57011 1.05888,0 1.49881,0.40384 1.49881,1.37583 0,0.54659 0.1294,0.74084 0.49349,0.74084 0.27142,0 0.8072,0.24676 1.19063,0.54837 0.56315,0.44297 0.69713,0.77063 0.69713,1.70479 0,0.89507 0.1329,1.2495 0.58804,1.56829 0.32342,0.22654 0.62108,0.41188 0.66146,0.41188 0.0404,0 0.0734,-1.84547 0.0734,-4.10104 z m -32.279164,-0.57448 c 0,-0.46185 -0.726515,-1.4099 -1.080442,-1.4099 -0.39155,0 -1.036225,0.8348 -1.036225,1.34182 0,0.41892 0.189455,0.51027 1.058333,0.51027 0.812553,0 1.058334,-0.10269 1.058334,-0.44219 z m 28.310414,-0.046 c 0,-0.26849 -0.22822,-0.6947 -0.50716,-0.94713 -0.67346,-0.60948 -1.6095,-0.15402 -1.6095,0.78314 0,0.58445 0.10986,0.65215 1.05833,0.65215 0.85231,0 1.05833,-0.095 1.05833,-0.48816 z"
         id="path5" /><path
         style="fill:#e42948"
         d="m 89.034754,296.1329 c -0.842549,-0.56258 -0.899505,-1.40307 -0.899505,-13.27386 v -11.92365 h -2.107357 c -2.577346,0 -2.655143,-0.0969 -2.655143,-3.30729 0,-3.21038 0.0778,-3.30729 2.655143,-3.30729 1.922375,0 2.107357,-0.0459 2.107357,-0.52277 0,-0.28753 -0.23768,-0.9126 -0.528177,-1.38906 -0.72509,-1.18926 -0.667375,-1.59719 0.307445,-2.17303 0.825368,-0.48755 0.843722,-0.48688 1.25677,0.0463 0.230544,0.29758 0.627661,0.92116 0.882484,1.38573 0.889746,1.62212 1.11903,0.92709 1.196767,-3.62777 l 0.07258,-4.25271 -2.673036,-0.0911 -2.673037,-0.0911 -0.905273,-0.98831 -0.905273,-0.9883 9.89e-4,-36.18565 c 9.8e-4,-35.8276 0.0063,-36.19433 0.53496,-37.06148 0.866348,-1.42098 1.772198,-1.63772 6.844615,-1.63772 h 4.487144 l 0.02683,-11.02528 c 0.02463,-10.12292 0.06694,-11.11596 0.516995,-12.13338 0.463334,-1.04744 1.712335,-2.23021 2.735868,-2.59079 0.43946,-0.15481 0.463021,-3.87941 0.463021,-73.196414 V 4.7645626 h 10.715629 10.71563 V 77.749379 150.73419 l 1.08452,0.48906 c 1.19054,0.53686 2.11824,1.6158 2.5831,3.00423 0.20552,0.61383 0.30113,4.33104 0.30113,11.70781 v 10.80844 l 4.56406,4.1e-4 c 5.1778,4.7e-4 6.00088,0.22225 6.85673,1.84754 0.46398,0.88113 0.48541,2.50826 0.48447,36.77709 -9.7e-4,35.09493 -0.0119,35.87313 -0.51747,36.70222 -0.78932,1.29452 -1.76467,1.66649 -4.36975,1.66649 h -2.26865 l 0.0727,4.29948 c 0.0816,4.82365 0.21428,5.09055 1.51298,3.0427 0.43835,-0.69122 0.88893,-1.25617 1.00129,-1.25545 0.11234,7.2e-4 0.56145,0.29045 0.99801,0.64384 l 0.79374,0.64253 -0.7276,1.31338 c -0.40019,0.72236 -0.7276,1.43985 -0.7276,1.59442 0,0.1694 0.86704,0.31155 2.1828,0.35788 l 2.18282,0.0768 v 3.175 3.175 l -2.18282,0.0769 -2.1828,0.0768 v 12.25142 c 0,11.53296 -0.0284,12.2771 -0.48385,12.6893 -0.44187,0.39989 -2.33025,0.43753 -21.76198,0.43383 -11.702975,-0.002 -21.409135,-0.0915 -21.569251,-0.19844 z m 6.773412,-1.4849 c 0,-0.81927 -0.140292,-1.53622 -0.330729,-1.69017 -0.181901,-0.14704 -0.968762,-0.35317 -1.748579,-0.45806 -1.741878,-0.23428 -2.418609,-0.83944 -2.418609,-2.16281 0,-1.73385 0.432133,-1.93907 4.083177,-1.93907 4.499158,0 4.38349,-0.1121 4.38349,4.24834 v 3.42458 h 3.175004 3.175 v -1.20802 c 0,-1.2037 0.34642,-2.18894 0.8995,-2.55824 0.16012,-0.10691 1.72314,-0.19621 3.47339,-0.19844 4.06026,-0.005 4.35836,0.15845 4.35836,2.3922 v 1.5725 h 3.30729 3.30729 v -3.56257 c 0,-3.25141 0.0447,-3.58648 0.51177,-3.83645 0.28148,-0.15064 1.89665,-0.2739 3.58927,-0.2739 1.69262,0 3.30779,0.12326 3.58927,0.2739 0.40951,0.21916 0.51177,0.56095 0.51177,1.71048 0,1.64332 -0.17281,1.80737 -2.21664,2.10413 -2.01445,0.2925 -2.01669,0.29475 -2.01669,2.02522 v 1.55919 h 3.16 c 2.96551,0 3.18534,-0.0362 3.57187,-0.58804 0.3616,-0.51626 0.41179,-2.51048 0.41114,-16.33802 l -7.3e-4,-15.74998 0.59605,-1.14065 c 0.58726,-1.12383 0.58847,-1.14626 0.0824,-1.52135 -0.73837,-0.54733 -0.81724,-0.50714 -1.58909,0.80992 -0.78923,1.34673 -1.24519,1.46105 -2.61167,0.6548 -0.80746,-0.47641 -0.92264,-0.68666 -1.03889,-1.8965 -0.0864,-0.89878 -0.29437,-1.48033 -0.61276,-1.71314 -0.38924,-0.28462 -3.65223,-0.35246 -16.9529,-0.35246 H 93.986088 l -0.411878,0.58804 c -0.226533,0.32342 -0.411878,1.09491 -0.411878,1.71442 0,1.04584 -0.07492,1.16459 -1.047792,1.66092 -1.487866,0.75905 -1.785499,0.68379 -2.594815,-0.65608 -0.785813,-1.30097 -1.087412,-1.42847 -1.721107,-0.72761 -0.384157,0.42488 -0.36585,0.55021 0.22222,1.52136 l 0.640867,1.05833 0.0014,15.85417 c 0.0012,14.37998 0.04207,15.89915 0.439238,16.33802 0.377264,0.41687 0.871732,0.48385 3.571875,0.48385 h 3.133993 z m -1.43631,-18.30755 c -0.301048,-0.30105 -0.415774,-0.94188 -0.415774,-2.32245 0,-1.57925 -0.09087,-1.98448 -0.529166,-2.35976 -0.425386,-0.36422 -0.529167,-0.7805 -0.529167,-2.12255 0,-0.94569 0.137647,-1.80711 0.3175,-1.98696 0.205413,-0.20542 1.269589,-0.3175 3.014401,-0.3175 3.102561,0 3.018099,-0.0698 3.018099,2.49417 0,1.32113 -0.107299,1.75425 -0.529167,2.13604 -0.43723,0.39568 -0.529166,0.8149 -0.529166,2.41294 0,1.64136 -0.07745,1.97551 -0.511773,2.20796 -0.790957,0.4233 -2.828027,0.33587 -3.305787,-0.14189 z m 29.005894,0.0983 c -0.18286,-0.18286 -0.3175,-1.05867 -0.3175,-2.06527 0,-1.44881 -0.11314,-1.90111 -0.66146,-2.64432 -0.49234,-0.66732 -0.66146,-1.2261 -0.66146,-2.18546 0,-2.22006 0.13214,-2.31245 3.30729,-2.31245 3.1908,0 3.30729,0.0842 3.30729,2.3918 0,1.07347 -0.14251,1.53764 -0.66145,2.15437 -0.56202,0.66792 -0.66146,1.05352 -0.66146,2.56496 0,1.03079 -0.13352,1.91239 -0.3175,2.09637 -0.17463,0.17462 -0.92472,0.3175 -1.66688,0.3175 -0.74215,0 -1.49225,-0.14288 -1.66687,-0.3175 z M 92.441445,261.47606 c 0.230704,-0.25492 0.457516,-0.99744 0.504028,-1.65003 0.07166,-1.00542 0.214267,-1.26785 0.934272,-1.71931 0.467337,-0.29303 0.85429,-0.71465 0.859896,-0.93693 0.01955,-0.7751 0.814258,-1.58023 1.559778,-1.58023 0.925741,0 1.36083,0.43989 1.36083,1.37583 v 0.74084 h 12.700001 c 11.99368,0 12.7,-0.0262 12.7,-0.4703 0,-0.824 0.77402,-1.64637 1.54958,-1.64637 0.91984,0 1.36083,0.43905 1.36083,1.35481 0,0.58459 0.14905,0.75255 0.79343,0.89408 1.04872,0.23034 1.58782,1.05567 1.58782,2.43088 0,0.83894 0.12927,1.19163 0.51178,1.39634 0.28147,0.15064 0.57913,0.27389 0.66146,0.27389 0.0823,0 0.14968,-1.84547 0.14968,-4.10104 v -4.10104 h -19.05 -19.049998 v 4.10104 c 0,2.25557 0.10061,4.10104 0.223577,4.10104 0.122967,0 0.412333,-0.20857 0.643036,-0.4635 z m 4.954221,-4.2801 c 0,-0.57346 -0.662303,-1.34182 -1.156607,-1.34182 -0.512731,0 -0.96006,0.57942 -0.96006,1.24355 0,0.53357 0.130374,0.60854 1.058333,0.60854 0.868879,0 1.058334,-0.0913 1.058334,-0.51027 z m 28.310414,0 c 0,-0.57346 -0.6623,-1.34182 -1.15661,-1.34182 -0.51273,0 -0.96005,0.57942 -0.96005,1.24355 0,0.53357 0.13037,0.60854 1.05833,0.60854 0.86888,0 1.05833,-0.0913 1.05833,-0.51027 z"
         id="path4" /><path
         style="fill:#565655"
         d="m 89.034754,296.1329 c -0.842549,-0.56258 -0.899505,-1.40307 -0.899505,-13.27386 v -11.92365 h -2.107357 c -2.577346,0 -2.655143,-0.0969 -2.655143,-3.30729 0,-3.21038 0.0778,-3.30729 2.655143,-3.30729 1.922375,0 2.107357,-0.0459 2.107357,-0.52277 0,-0.28753 -0.23768,-0.9126 -0.528177,-1.38906 -0.72509,-1.18926 -0.667375,-1.59719 0.307445,-2.17303 0.825368,-0.48755 0.843722,-0.48688 1.25677,0.0463 0.230544,0.29758 0.627661,0.92116 0.882484,1.38573 0.889746,1.62212 1.11903,0.92709 1.196767,-3.62777 l 0.07258,-4.25271 -2.673036,-0.0911 -2.673037,-0.0911 -0.905273,-0.98831 -0.905273,-0.9883 9.89e-4,-36.18565 c 9.8e-4,-35.8276 0.0063,-36.19433 0.53496,-37.06148 0.866348,-1.42098 1.772198,-1.63772 6.844615,-1.63772 h 4.487144 l 0.02683,-11.02528 c 0.02463,-10.12292 0.06694,-11.11596 0.516995,-12.13338 0.463334,-1.04744 1.712335,-2.23021 2.735868,-2.59079 0.43946,-0.15481 0.463021,-3.87941 0.463021,-73.196414 0,-64.742103 0.04506,-73.0333034 0.396879,-73.0333034 0.35182,0 0.39688,8.2755784 0.39688,72.8927074 v 72.89271 H 110.62483 120.679 V 77.65727 c 0,-48.418749 0.0888,-72.8927074 0.26458,-72.8927074 0.17575,0 0.26459,24.5046614 0.26459,72.9848164 v 72.984811 l 1.08452,0.48906 c 1.19054,0.53686 2.11824,1.6158 2.5831,3.00423 0.20552,0.61383 0.30113,4.33104 0.30113,11.70781 v 10.80844 l 4.56406,4.1e-4 c 5.1778,4.7e-4 6.00088,0.22225 6.85673,1.84754 0.46398,0.88113 0.48541,2.50826 0.48447,36.77709 -9.7e-4,35.09493 -0.0119,35.87313 -0.51747,36.70222 -0.78932,1.29452 -1.76467,1.66649 -4.36975,1.66649 h -2.26865 l 0.0727,4.29948 c 0.0816,4.82365 0.21428,5.09055 1.51298,3.0427 0.43836,-0.69122 0.88894,-1.25617 1.00129,-1.25545 0.11234,7.2e-4 0.56145,0.29045 0.99801,0.64384 l 0.79375,0.64253 -0.7276,1.31338 c -0.40019,0.72236 -0.72761,1.43985 -0.72761,1.59442 0,0.1694 0.86704,0.31155 2.18281,0.35788 l 2.18282,0.0768 v 3.175 3.175 l -2.18282,0.0769 -2.18281,0.0768 v 12.25142 c 0,11.53296 -0.0284,12.2771 -0.48385,12.6893 -0.44187,0.39989 -2.33025,0.43753 -21.76198,0.43383 -11.70297,-0.002 -21.40913,-0.0915 -21.569246,-0.19844 z m 6.773412,-1.4849 c 0,-0.81927 -0.140292,-1.53622 -0.330729,-1.69017 -0.181901,-0.14704 -0.968762,-0.35317 -1.748579,-0.45806 -1.741878,-0.23428 -2.418609,-0.83944 -2.418609,-2.16281 0,-1.73385 0.432133,-1.93907 4.083177,-1.93907 4.499158,0 4.38349,-0.1121 4.38349,4.24834 v 3.42458 h 3.175004 3.175 v -1.20802 c 0,-1.2037 0.34642,-2.18894 0.8995,-2.55824 0.16012,-0.10691 1.72314,-0.19621 3.47339,-0.19844 4.06026,-0.005 4.35836,0.15845 4.35836,2.3922 v 1.5725 h 3.30729 3.30729 v -3.56257 c 0,-3.25141 0.0447,-3.58648 0.51177,-3.83645 0.28148,-0.15064 1.89665,-0.2739 3.58927,-0.2739 1.69262,0 3.30779,0.12326 3.58927,0.2739 0.40951,0.21916 0.51177,0.56095 0.51177,1.71048 0,1.64332 -0.17281,1.80737 -2.21664,2.10413 -2.01445,0.2925 -2.01669,0.29475 -2.01669,2.02522 v 1.55919 h 3.16 c 2.96551,0 3.18534,-0.0362 3.57187,-0.58804 0.3616,-0.51626 0.41179,-2.51048 0.41114,-16.33802 l -7.3e-4,-15.74998 0.59605,-1.14065 c 0.58726,-1.12383 0.58847,-1.14626 0.0824,-1.52135 -0.73837,-0.54733 -0.81724,-0.50714 -1.58909,0.80992 -0.78923,1.34673 -1.24519,1.46105 -2.61167,0.6548 -0.80746,-0.47641 -0.92264,-0.68666 -1.03889,-1.8965 -0.0864,-0.89878 -0.29437,-1.48033 -0.61276,-1.71314 -0.38924,-0.28462 -3.65223,-0.35246 -16.9529,-0.35246 H 93.986088 l -0.411878,0.58804 c -0.226533,0.32342 -0.411878,1.09491 -0.411878,1.71442 0,1.04584 -0.07492,1.16459 -1.047792,1.66092 -1.487866,0.75905 -1.785499,0.68379 -2.594815,-0.65608 -0.785813,-1.30097 -1.087412,-1.42847 -1.721107,-0.72761 -0.384157,0.42488 -0.36585,0.55021 0.22222,1.52136 l 0.640867,1.05833 0.0014,15.85417 c 0.0012,14.37998 0.04207,15.89915 0.439238,16.33802 0.377264,0.41687 0.871732,0.48385 3.571875,0.48385 h 3.133993 z m -1.43631,-18.30755 c -0.301048,-0.30105 -0.415774,-0.94188 -0.415774,-2.32245 0,-1.57925 -0.09087,-1.98448 -0.529166,-2.35976 -0.425386,-0.36422 -0.529167,-0.7805 -0.529167,-2.12255 0,-0.94569 0.137647,-1.80711 0.3175,-1.98696 0.205413,-0.20542 1.269589,-0.3175 3.014401,-0.3175 3.102561,0 3.018099,-0.0698 3.018099,2.49417 0,1.32113 -0.107299,1.75425 -0.529167,2.13604 -0.43723,0.39568 -0.529166,0.8149 -0.529166,2.41294 0,1.64136 -0.07745,1.97551 -0.511773,2.20796 -0.790957,0.4233 -2.828027,0.33587 -3.305787,-0.14189 z m 29.005894,0.0983 c -0.18286,-0.18286 -0.3175,-1.05867 -0.3175,-2.06527 0,-1.44881 -0.11314,-1.90111 -0.66146,-2.64432 -0.49234,-0.66732 -0.66146,-1.2261 -0.66146,-2.18546 0,-2.22006 0.13214,-2.31245 3.30729,-2.31245 3.1908,0 3.30729,0.0842 3.30729,2.3918 0,1.07347 -0.14251,1.53764 -0.66145,2.15437 -0.56202,0.66792 -0.66146,1.05352 -0.66146,2.56496 0,1.03079 -0.13352,1.91239 -0.3175,2.09637 -0.17463,0.17462 -0.92472,0.3175 -1.66688,0.3175 -0.74215,0 -1.49225,-0.14288 -1.66687,-0.3175 z M 92.441445,261.47606 c 0.230704,-0.25492 0.457516,-0.99744 0.504028,-1.65003 0.07166,-1.00542 0.214267,-1.26785 0.934272,-1.71931 0.467337,-0.29303 0.85429,-0.71465 0.859896,-0.93693 0.01955,-0.7751 0.814258,-1.58023 1.559778,-1.58023 0.925741,0 1.36083,0.43989 1.36083,1.37583 v 0.74084 h 12.700001 c 11.99368,0 12.7,-0.0262 12.7,-0.4703 0,-0.824 0.77402,-1.64637 1.54958,-1.64637 0.91984,0 1.36083,0.43905 1.36083,1.35481 0,0.58459 0.14905,0.75255 0.79343,0.89408 1.04872,0.23034 1.58782,1.05567 1.58782,2.43088 0,0.83894 0.12927,1.19163 0.51178,1.39634 0.28147,0.15064 0.57913,0.27389 0.66146,0.27389 0.0823,0 0.14968,-1.84547 0.14968,-4.10104 v -4.10104 h -19.05 -19.049998 v 4.10104 c 0,2.25557 0.10061,4.10104 0.223577,4.10104 0.122967,0 0.412333,-0.20857 0.643036,-0.4635 z m 4.954221,-4.2801 c 0,-0.57346 -0.662303,-1.34182 -1.156607,-1.34182 -0.512731,0 -0.96006,0.57942 -0.96006,1.24355 0,0.53357 0.130374,0.60854 1.058333,0.60854 0.868879,0 1.058334,-0.0913 1.058334,-0.51027 z m 28.310414,0 c 0,-0.57346 -0.6623,-1.34182 -1.15661,-1.34182 -0.51273,0 -0.96005,0.57942 -0.96005,1.24355 0,0.53357 0.13037,0.60854 1.05833,0.60854 0.86888,0 1.05833,-0.0913 1.05833,-0.51027 z m 9.22205,-4.62926 c 0.401,-0.20737 0.87134,-0.68922 1.04519,-1.07079 0.2401,-0.52696 0.31609,-9.31455 0.31609,-36.55269 v -35.85895 l -0.77339,-0.77339 -0.7734,-0.7734 H 110.62483 86.507044 l -0.750735,0.75073 c -0.501092,0.5011 -0.80622,1.13897 -0.917591,1.91823 -0.09177,0.64212 -0.131734,16.82948 -0.08881,35.97191 0.07412,33.05447 0.102103,34.84112 0.556493,35.53454 0.263145,0.40157 0.739395,0.83525 1.058333,0.96372 0.319093,0.12853 11.205856,0.24112 24.207096,0.25035 19.95551,0.0142 23.7405,-0.0418 24.3563,-0.36026 z m -10.60295,-87.13391 -0.0743,-11.31094 -0.61759,-0.86588 c -0.33968,-0.47624 -1.07908,-1.10132 -1.64311,-1.38907 -0.9698,-0.49475 -1.5871,-0.52317 -11.3633,-0.52317 -8.13258,0 -10.52203,0.077 -11.201535,0.3609 -1.101242,0.46012 -2.196906,1.75949 -2.547193,3.02075 -0.166768,0.60048 -0.27385,5.08298 -0.274751,11.50116 l -0.0015,10.51719 h 13.898799 13.89879 z"
         id="path3" /><path
         style="fill:#7d1d35"
         d="m 85.83299,253.21902 c -1.786282,-1.08916 -1.666491,1.63542 -1.666491,-37.90326 0,-34.16873 0.02206,-35.84329 0.483464,-36.70363 0.883372,-1.64715 1.693954,-1.8684 6.84496,-1.8684 h 4.558554 l 0.01338,-10.99767 c 0.01435,-11.79138 0.0296,-11.93832 1.389666,-13.38455 0.363103,-0.38611 1.033734,-0.89518 1.49029,-1.13127 l 0.830103,-0.42927 V 77.782768 c 0,-64.728683 0.04506,-73.0182054 0.396874,-73.0182054 0.35182,0 0.39688,8.2755784 0.39688,72.8927074 v 72.89271 H 110.62483 120.679 V 77.65727 c 0,-48.418749 0.0888,-72.8927074 0.26458,-72.8927074 0.17575,0 0.26459,24.5073554 0.26459,72.9929004 v 72.992897 l 0.75901,0.3144 c 0.41746,0.17291 1.1258,0.69337 1.57409,1.15658 1.6301,1.68431 1.63565,1.73056 1.63565,13.64927 v 10.83972 l 4.74403,0.0828 c 5.30028,0.0926 5.7544,0.23398 6.69878,2.08603 0.43365,0.85044 0.46264,3.14151 0.46302,36.59476 4.1e-4,35.31911 -0.005,35.69642 -0.53292,36.55047 -1.11364,1.8019 0.23918,1.71315 -26.09728,1.71206 -23.111216,-9.6e-4 -23.796072,-0.0154 -24.61956,-0.51747 z m 49.09514,-0.65232 c 0.401,-0.20737 0.87134,-0.68922 1.04519,-1.07079 0.2401,-0.52696 0.31609,-9.31455 0.31609,-36.55269 v -35.85895 l -0.77339,-0.77339 -0.7734,-0.7734 H 110.62483 86.507044 l -0.750735,0.75073 c -0.501092,0.5011 -0.80622,1.13897 -0.917591,1.91823 -0.09177,0.64212 -0.131734,16.82948 -0.08881,35.97191 0.07412,33.05447 0.102103,34.84112 0.556493,35.53454 0.263145,0.40157 0.739395,0.83525 1.058333,0.96372 0.319093,0.12853 11.205856,0.24112 24.207096,0.25035 19.95551,0.0142 23.7405,-0.0418 24.3563,-0.36026 z m -10.60295,-87.13391 -0.0743,-11.31094 -0.61759,-0.86588 c -0.33968,-0.47624 -1.07908,-1.10132 -1.64311,-1.38907 -0.9698,-0.49475 -1.5871,-0.52317 -11.3633,-0.52317 -8.13258,0 -10.52203,0.077 -11.201535,0.3609 -1.101242,0.46012 -2.196906,1.75949 -2.547193,3.02075 -0.166768,0.60048 -0.27385,5.08298 -0.274751,11.50116 l -0.0015,10.51719 h 13.898799 13.89879 z"
         id="path2" /><path
         style="fill:#161223"
         d="m 85.83299,253.21902 c -1.786282,-1.08916 -1.666491,1.63542 -1.666491,-37.90326 0,-34.16873 0.02206,-35.84329 0.483464,-36.70363 0.883372,-1.64715 1.693954,-1.8684 6.84496,-1.8684 h 4.558554 l 0.01338,-10.99767 c 0.01435,-11.79138 0.0296,-11.93832 1.389666,-13.38455 0.363103,-0.38611 1.033734,-0.89518 1.49029,-1.13127 l 0.830103,-0.42927 V 77.782768 c 0,-48.502415 0.08883,-73.0182054 0.264584,-73.0182054 0.17575,0 0.26458,24.4739584 0.26458,72.8927074 v 72.89271 H 110.49254 120.679 V 77.65727 c 0,-48.418749 0.0888,-72.8927074 0.26458,-72.8927074 0.17575,0 0.26459,24.5073554 0.26459,72.9929004 v 72.992897 l 0.75901,0.3144 c 0.41746,0.17291 1.1258,0.69337 1.57409,1.15658 1.6301,1.68431 1.63565,1.73056 1.63565,13.64927 v 10.83972 l 4.74403,0.0828 c 5.30028,0.0926 5.7544,0.23398 6.69878,2.08603 0.43365,0.85044 0.46264,3.14151 0.46302,36.59476 4.1e-4,35.31911 -0.005,35.69642 -0.53292,36.55047 -1.11364,1.8019 0.23918,1.71315 -26.09728,1.71206 -23.111216,-9.6e-4 -23.796072,-0.0154 -24.61956,-0.51747 z m 49.31263,-0.69767 c 0.41081,-0.30507 0.89469,-0.84085 1.0753,-1.19063 0.25764,-0.49894 0.31464,-8.3442 0.26459,-36.41579 l -0.0638,-35.77983 -0.86492,-0.86496 -0.86493,-0.86495 -23.47674,-0.0789 c -16.544323,-0.0556 -23.773464,0.007 -24.481587,0.21285 -0.66606,0.1934 -1.178648,0.57683 -1.520365,1.13726 -0.504244,0.82698 -0.515546,1.62721 -0.516513,36.57151 -9.16e-4,33.1051 0.03181,35.77401 0.446063,36.38021 0.487831,0.71385 0.985479,1.08878 1.801906,1.35755 0.291042,0.0958 11.087272,0.15534 23.991626,0.13229 23.37582,-0.0418 23.46521,-0.044 24.20937,-0.59658 z m -10.49935,-86.4271 c -8.8e-4,-6.38304 -0.10898,-11.03654 -0.26982,-11.61562 -0.34089,-1.22727 -2.00615,-2.75073 -3.42413,-3.13255 -0.72058,-0.19403 -4.40551,-0.26475 -11.08117,-0.21267 l -10.001583,0.078 -1.072605,0.71014 c -0.645706,0.42751 -1.295972,1.17156 -1.633826,1.86948 -0.544054,1.12386 -0.56122,1.49263 -0.56122,12.056 v 10.89667 h 14.022914 14.02292 z"
         id="path1" /></g></g></svg>
