<svg height="300" width="800" xmlns="http://www.w3.org/2000/svg" xmlns:xlink="http://www.w3.org/1999/xlink"><filter id="a" filterUnits="userSpaceOnUse"><feOffset dx="8.504" dy="10"/><feGaussianBlur result="blur" stdDeviation="10"/><feFlood flood-color="#262626" flood-opacity=".15"/><feComposite in2="blur" operator="in"/><feComposite in="SourceGraphic"/></filter><filter id="b" filterUnits="userSpaceOnUse"><feOffset dx="8.504" dy="10"/><feGaussianBlur result="blur-2" stdDeviation="10"/><feFlood flood-color="#262626" flood-opacity=".15"/><feComposite in2="blur-2" operator="in"/><feComposite in="SourceGraphic"/></filter><filter id="c" filterUnits="userSpaceOnUse"><feOffset dx="8.504" dy="10"/><feGaussianBlur result="blur-3" stdDeviation="10"/><feFlood flood-color="#262626" flood-opacity=".15"/><feComposite in2="blur-3" operator="in"/><feComposite in="SourceGraphic"/></filter><filter id="d" filterUnits="userSpaceOnUse"><feOffset dx="8.504" dy="10"/><feGaussianBlur result="blur-4" stdDeviation="10"/><feFlood flood-color="#262626" flood-opacity=".15"/><feComposite in2="blur-4" operator="in"/><feComposite in="SourceGraphic"/></filter><filter id="e" filterUnits="userSpaceOnUse"><feOffset dx="8.504" dy="10"/><feGaussianBlur result="blur-5" stdDeviation="10"/><feFlood flood-color="#262626" flood-opacity=".15"/><feComposite in2="blur-5" operator="in"/><feComposite in="SourceGraphic"/></filter><filter id="f" filterUnits="userSpaceOnUse"><feOffset dx="8.504" dy="10"/><feGaussianBlur result="blur-6" stdDeviation="10"/><feFlood flood-color="#262626" flood-opacity=".15"/><feComposite in2="blur-6" operator="in"/><feComposite in="SourceGraphic"/></filter><clipPath id="g"><path d="m-8349.608 286.418h6720v1807.433h-6720z"/></clipPath><g clip-path="url(#g)" fill="#fff"><path d="m-2281.383 288.193h5416.974v1805.658h-5416.974z"/><path d="m-114.594 286.418h180.566v180.566h-180.566z" filter="url(#a)"/><path d="m246.538 286.418h180.566v180.566h-180.566z" filter="url(#b)" transform="matrix(-1 0 0 -1 673.642 753.4)"/><path d="m65.972 286.418h180.566v180.566h-180.566z" filter="url(#c)" transform="matrix(-1 0 0 -1 312.51 753.4)"/><path d="m788.236 288.193h180.566v180.566h-180.566z" filter="url(#d)"/><path d="m607.67 288.193h180.566v180.566h-180.566z" filter="url(#e)"/><path d="m427.104 288.193h180.566v180.566h-180.566z" filter="url(#f)"/></g><rect fill="#d72555" height="136.601" rx="17.669" width="136.601" x="331.699" y="22.556"/><path d="m441.362 98.868c-.475-4.934-2.692-9.322-5.841-11.635-.562-1.99-1.472-3.76-2.712-5.273-.186-2.324-1.177-6.866-5.755-10.872.51-.45.99-.992 1.333-1.624 3.822-1.707 6.517-5.292 6.83-7.959 2.039-2.04 3.206-4.452 3.304-6.851.047-1.132-.157-2.186-.584-3.085 1.688-1.823 2.245-3.971 1.527-6.05-1.14-3.305-5.14-5.45-10.51-5.679-1.44-1.313-3.448-2.004-5.853-2.004-1.028 0-2.109.134-3.16.39-.86-.414-1.919-.63-3.105-.63-2.013 0-4.22.61-5.925 1.615a5.453 5.453 0 0 0 -.716-.046c-2.666 0-5.331 1.837-6.682 2.932a20.257 20.257 0 0 0 -3.513 3.66 20.277 20.277 0 0 0 -3.512-3.66c-1.352-1.094-4.017-2.932-6.683-2.932a5.46 5.46 0 0 0 -.716.046c-1.705-1.005-3.912-1.615-5.924-1.615-1.187 0-2.245.216-3.106.63a13.534 13.534 0 0 0 -3.16-.39c-2.405 0-4.413.69-5.853 2.004-5.37.228-9.37 2.374-10.51 5.68-.718 2.078-.16 4.226 1.527 6.05-.427.898-.63 1.953-.584 3.084.098 2.4 1.265 4.812 3.304 6.851.312 2.667 3.008 6.252 6.83 7.96.343.63.823 1.172 1.332 1.623-4.577 4.006-5.568 8.548-5.754 10.873-1.24 1.512-2.15 3.281-2.712 5.272-3.149 2.313-5.366 6.702-5.84 11.634-.473 4.904.873 9.481 3.61 12.38.376 2.2 1.63 5.08 2.978 6.837.27 3.717 1.854 7.382 4.49 10.377 2.656 3.015 6.157 5.092 9.904 5.885 2.263 2.117 4.671 3.607 7.92 4.903 1.419 1.43 5.553 4.869 12.459 4.869s11.04-3.44 12.459-4.869c3.249-1.296 5.657-2.786 7.92-4.903 3.746-.793 7.248-2.87 9.903-5.885 2.637-2.995 4.22-6.66 4.491-10.377 1.349-1.757 2.603-4.636 2.977-6.836 2.738-2.9 4.083-7.477 3.612-12.38zm-18.498-14.996c-3.242-1.767-6.306-4.346-8.621-7.226-3.092-3.674-1.082-5.31 3.788-4.428 3.63.88 7.064 3.76 8.556 7.181 1.73 4.603.382 6.817-3.723 4.473zm-12.824-39.128a.423.423 0 0 1 .538.45c-.134 1.267.632 1.107.814.882 1.995-2.48 4.108-3.045 6-2.879.333.03.492.418.29.684-.752 1.115.058 1.327.357 1.126 3.07-1.92 6-1.923 7.124-1.117.218.157.226.48.025.658-1.136.968-.5 1.45-.099 1.303 3.118-1.1 7.422-.127 8.923 1.142.199.169.205.473.01.646-1.897 1.682-2.83 3.032-3.255 5.679-.084.747 1.155.59 1.677.455.26-.067.52.127.528.395.047 1.795-1.65 3.768-4.176 5.455-.338.226-.29.768.482.788.349.026.51.35.36.63-.901 1.671-2.126 3.245-6.297 4.326-.398.103-.43.645-.06.806.371.161.375.516.134.723-4.153 3.568-14.68 2.161-16.017-3.844a.421.421 0 0 1 .076-.344c2.498-3.332 8.304-9.853 17.458-13.283.371-.139.228-.697-.164-.639-8.891 1.32-15.152 6.262-18.96 11.43a.428.428 0 0 1 -.543.123c-6.748-3.484-1.207-13.771 4.775-15.595zm-10.04 26.599c1.295 0 4.658.12 8.175 2.877 5.87 4.88-.855 8.333-8.175 8.333s-14.046-3.454-8.175-8.333c3.517-2.758 6.88-2.877 8.175-2.877zm-29.636-10.303c-.151-.28.01-.604.359-.63.772-.02.82-.562.482-.788-2.526-1.687-4.223-3.66-4.176-5.455a.423.423 0 0 1 .527-.395c.523.134 1.762.292 1.678-.455-.426-2.647-1.358-3.997-3.256-5.679a.427.427 0 0 1 .01-.645c1.502-1.27 5.806-2.243 8.923-1.143.402.147 1.038-.335-.098-1.303a.423.423 0 0 1 .025-.658c1.124-.806 4.053-.802 7.124 1.117.3.2 1.109-.011.357-1.126-.202-.266-.043-.654.29-.684 1.892-.166 4.005.398 6 2.879.181.225.948.385.814-.882a.423.423 0 0 1 .537-.45c5.983 1.824 11.524 12.111 4.776 15.595a.428.428 0 0 1 -.543-.123c-3.809-5.168-10.07-10.11-18.96-11.43-.392-.058-.536.5-.164.64 9.153 3.43 14.96 9.95 17.458 13.282a.422.422 0 0 1 .076.344c-1.336 6.005-11.864 7.412-16.017 3.844-.241-.207-.237-.562.133-.723.37-.16.339-.703-.059-.806-4.171-1.081-5.396-2.655-6.296-4.326zm3.05 18.358c1.49-3.42 4.924-6.3 8.555-7.18 4.87-.883 6.88.753 3.788 4.427-2.316 2.88-5.38 5.459-8.621 7.226-4.105 2.344-5.453.13-3.723-4.473zm-8.492 25.58c-1.356-3.55-1.018-7.866.975-11.184 2.17-3.69 4.352-3.543 5.218-.417 1.117 4.128.687 9.052-1.13 12.923-1.606 3.193-3.614 2.114-5.063-1.323zm15.64 23.902c-5.207-1.097-9.629-6.342-9.828-11.66.814-18.946 28.119 14.888 9.828 11.66zm.555-23.597c-4.579-2.643-5.79-9.117-2.706-14.46 3.084-5.341 9.296-7.529 13.875-4.885s5.79 9.117 2.706 14.46c-3.084 5.341-9.296 7.529-13.875 4.885zm26.524 30.828a13.013 13.013 0 0 1 -7.641 2.464c-2.853 0-5.491-.914-7.64-2.464-4.538-3.134.027-6.739 7.64-6.739s12.178 3.605 7.64 6.739zm-7.641-11.485c-5.87 0-10.628-4.078-10.628-9.11 0-5.03 4.758-9.11 10.628-9.11s10.628 4.08 10.628 9.11c0 5.032-4.758 9.11-10.628 9.11zm5.007-24.228c-3.084-5.342-1.872-11.815 2.707-14.459s10.79-.456 13.875 4.886c3.084 5.342 1.873 11.816-2.706 14.46-4.579 2.643-10.791.455-13.876-4.887zm14.431 28.483c-18.291 3.228 9.014-30.606 9.828-11.66-.2 5.318-4.621 10.563-9.828 11.66zm15.64-23.903c-1.449 3.437-3.457 4.515-5.064 1.323-1.816-3.871-2.246-8.795-1.13-12.923.867-3.126 3.05-3.273 5.219.417 1.993 3.318 2.331 7.635.975 11.183z" fill="#fff"/><path d="m67.691 236.875h-9.995v21.12c0 .647-.525 1.172-1.173 1.172h-10.202a1.172 1.172 0 0 1 -1.172-1.172v-58.55c0-.648.524-1.172 1.172-1.172h21.454c7.193 0 12.741 1.604 16.645 4.81s5.856 7.737 5.856 13.592c0 4.155-.9 7.619-2.698 10.393-1.798 2.775-4.524 4.984-8.176 6.629l12.578 23.75c.413.78-.153 1.72-1.036 1.72h-10.975a1.407 1.407 0 0 1 -1.252-.765l-11.027-21.527zm-9.995-10.163h10.12c3.151 0 5.59-.8 7.32-2.404 1.728-1.603 2.593-3.813 2.593-6.63 0-2.87-.816-5.129-2.447-6.775-1.631-1.644-4.134-2.467-7.507-2.467h-10.08v18.276zm66.14 31.772c-.397-.955-.696-2.08-.897-3.374-2.927 3.262-6.733 4.893-11.417 4.893-4.434 0-8.108-1.281-11.02-3.847-2.915-2.565-4.371-5.8-4.371-9.703 0-4.795 1.777-8.476 5.332-11.041s8.692-3.862 15.412-3.89h5.562v-2.593c0-2.091-.537-3.764-1.61-5.019-1.074-1.254-2.767-1.882-5.081-1.882-2.036 0-3.633.488-4.789 1.464-.93.785-1.487 1.804-1.669 3.057-.08.558-.582.958-1.145.958h-9.768c-.71 0-1.246-.626-1.169-1.332.23-2.116 1.015-4.097 2.354-5.945 1.617-2.23 3.903-3.98 6.86-5.249 2.954-1.268 6.273-1.903 9.953-1.903 5.576 0 10.002 1.401 13.279 4.203 3.276 2.802 4.914 6.741 4.914 11.815v19.615c.022 3.422.347 6.411 1.405 8.774.354.791-.18 1.682-1.047 1.682h-10.014c-.461 0-.896-.257-1.074-.683zm-9.68-7.723c1.784 0 3.43-.398 4.936-1.192 1.505-.795 2.62-1.862 3.345-3.2v-7.779h-4.516c-6.051 0-9.272 2.091-9.662 6.273l-.041.711c0 1.506.529 2.747 1.589 3.723s2.51 1.464 4.35 1.464zm53.294-4.099c0-1.478-.731-2.641-2.195-3.492-1.464-.85-3.813-1.61-7.047-2.28-10.764-2.258-16.144-6.83-16.144-13.718 0-4.015 1.666-7.367 4.998-10.058 3.331-2.69 7.688-4.036 13.07-4.036 5.743 0 10.336 1.353 13.78 4.057 3.113 2.445 4.82 5.552 5.118 9.319.052.664-.507 1.22-1.173 1.22h-9.782c-.568 0-1.072-.408-1.148-.971-.174-1.3-.711-2.405-1.61-3.316-1.115-1.129-2.858-1.693-5.227-1.693-2.036 0-3.612.46-4.726 1.38-1.116.92-1.673 2.09-1.673 3.513 0 1.338.633 2.42 1.903 3.241 1.268.823 3.408 1.534 6.42 2.133 3.01.6 5.547 1.276 7.611 2.029 6.385 2.342 9.578 6.398 9.578 12.17 0 4.127-1.771 7.465-5.312 10.017-3.541 2.55-8.113 3.826-13.718 3.826-3.792 0-7.159-.676-10.1-2.028-2.942-1.352-5.249-3.206-6.922-5.562-1.398-1.97-2.212-4.07-2.441-6.303-.073-.706.458-1.33 1.168-1.33h9.174c.555 0 1.059.386 1.146.934.268 1.696 1.031 3.03 2.287 4.001 1.478 1.144 3.457 1.715 5.94 1.715 2.313 0 4.062-.44 5.248-1.318 1.185-.878 1.777-2.028 1.777-3.45zm59.728-9.703c0 6.97-1.583 12.554-4.747 16.75-3.165 4.197-7.438 6.294-12.819 6.294-4.573 0-8.267-1.589-11.083-4.767v20.157c0 .648-.525 1.172-1.172 1.172h-9.743a1.172 1.172 0 0 1 -1.172-1.172v-60.306c0-.648.525-1.172 1.172-1.172h8.97c.605 0 1.11.46 1.167 1.062l.318 3.37c2.928-3.512 6.747-5.269 11.46-5.269 5.576 0 9.912 2.064 13.006 6.19 3.095 4.127 4.643 9.815 4.643 17.064zm-12.087-.878c0-4.21-.747-7.458-2.238-9.745-1.492-2.286-3.659-3.43-6.503-3.43-3.792 0-6.399 1.45-7.82 4.35v18.528c1.476 2.984 4.111 4.475 7.904 4.475 5.771 0 8.657-4.726 8.657-14.178zm59.948.878c0 7.25-1.547 12.902-4.642 16.96-3.095 4.056-7.418 6.084-12.966 6.084-4.907 0-8.824-1.882-11.752-5.646l-.426 3.77a1.172 1.172 0 0 1 -1.165 1.04h-8.654a1.172 1.172 0 0 1 -1.172-1.172v-61.896c0-.647.524-1.172 1.172-1.172h9.742c.648 0 1.172.525 1.172 1.172v21.872c2.788-3.262 6.455-4.893 11-4.893 5.52 0 9.85 2.028 12.986 6.085 3.137 4.057 4.705 9.766 4.705 17.127zm-12.087-.878c0-4.573-.725-7.911-2.175-10.017-1.45-2.105-3.611-3.158-6.482-3.158-3.848 0-6.497 1.576-7.947 4.726v17.859c1.478 3.178 4.154 4.768 8.03 4.768 3.904 0 6.468-1.924 7.696-5.772.585-1.84.878-4.642.878-8.406zm39.76 23.922c-6.636 0-12.039-2.034-16.206-6.106-4.169-4.07-6.253-9.494-6.253-16.269v-1.17c0-4.545.879-8.61 2.635-12.192 1.757-3.582 4.245-6.343 7.465-8.281s6.894-2.907 11.02-2.907c6.19 0 11.063 1.952 14.618 5.855 3.555 3.904 5.332 9.439 5.332 16.604v3.763c0 .647-.524 1.172-1.172 1.172h-27.644c.39 2.956 1.569 5.326 3.534 7.11 1.966 1.785 4.455 2.677 7.466 2.677 4.19 0 7.556-1.366 10.099-4.1.464-.498 1.273-.45 1.727.058l4.382 4.907c.375.42.414 1.06.064 1.5-1.744 2.197-4.003 3.938-6.778 5.226-3.095 1.435-6.525 2.153-10.289 2.153zm-1.38-37.18c-2.399 0-4.343.812-5.834 2.437-1.492 1.624-2.447 3.95-2.865 6.973h16.813v-.966c-.057-2.69-.781-4.768-2.175-6.24-1.395-1.47-3.374-2.204-5.939-2.204zm52.228 1.123a1.168 1.168 0 0 1 -1.282 1.15 29.404 29.404 0 0 0 -3.086-.182c-4.573 0-7.57 1.547-8.992 4.642v28.439c0 .647-.525 1.172-1.172 1.172h-9.743a1.172 1.172 0 0 1 -1.172-1.172v-42.908c0-.648.525-1.172 1.172-1.172h9.144c.62 0 1.132.481 1.17 1.1l.267 4.295c2.425-4.154 5.784-6.232 10.079-6.232 1.007 0 1.967.103 2.88.308.525.118.879.613.87 1.15zm30.548 0a1.168 1.168 0 0 1 -1.283 1.15 29.415 29.415 0 0 0 -3.085-.182c-4.572 0-7.57 1.547-8.992 4.642v28.439c0 .647-.525 1.172-1.172 1.172h-9.743a1.172 1.172 0 0 1 -1.172-1.172v-42.908c0-.648.525-1.172 1.172-1.172h9.144c.619 0 1.131.481 1.17 1.1l.266 4.295c2.426-4.154 5.786-6.232 10.08-6.232 1.007 0 1.967.103 2.88.308.524.118.878.613.87 1.15zm24.37 18.115 8.116-27.308a1.172 1.172 0 0 1 1.123-.838h10.442c.807 0 1.372.795 1.107 1.557l-17.651 50.721-1.004 2.384c-2.704 5.91-7.166 8.867-13.383 8.867-1.471 0-2.961-.187-4.471-.558a1.18 1.18 0 0 1 -.882-1.146v-7.031c0-.666.553-1.197 1.218-1.171l1.2.047c2.286 0 3.416-.403 4.545-1.099 1.13-.697 2.014-1.855 2.656-3.471l1.422-3.723-15.307-43.819a1.172 1.172 0 0 1 1.107-1.558h10.483c.518 0 .974.34 1.123.836zm60.769-4.349v20.283c0 .647-.525 1.172-1.172 1.172h-10.203a1.172 1.172 0 0 1 -1.172-1.172v-58.55c0-.647.525-1.172 1.172-1.172h22.584c4.573 0 8.594.836 12.065 2.51 3.472 1.672 6.142 4.05 8.01 7.13 1.867 3.081 2.802 6.587 2.802 10.518 0 5.967-2.043 10.673-6.127 14.116-4.084 3.444-9.739 5.165-16.96 5.165zm0-10.163h11.209c3.318 0 5.848-.78 7.59-2.342 1.742-1.561 2.614-3.792 2.614-6.692 0-2.983-.878-5.395-2.635-7.235-1.756-1.84-4.182-2.788-7.277-2.844h-11.501zm40.016-25.345c0-1.812.607-3.304 1.82-4.475 1.212-1.171 2.864-1.757 4.955-1.757 2.064 0 3.708.586 4.936 1.757 1.227 1.171 1.84 2.663 1.84 4.475 0 1.84-.621 3.346-1.861 4.517s-2.88 1.757-4.915 1.757-3.674-.586-4.914-1.757-1.86-2.677-1.86-4.517zm11.668 56.963h-9.785a1.172 1.172 0 0 1 -1.172-1.172v-42.908c0-.648.525-1.172 1.172-1.172h9.785c.647 0 1.172.524 1.172 1.172v42.908c0 .647-.525 1.172-1.172 1.172z" fill="#1d1d1b"/><path d="m742.222 185.514a6.93 6.93 0 0 1 6.922 6.922v72.378a6.93 6.93 0 0 1 -6.922 6.923h-178.156a6.93 6.93 0 0 1 -6.921-6.923v-72.378a6.93 6.93 0 0 1 6.921-6.922zm0-5.707h-178.156c-6.974 0-12.629 5.654-12.629 12.629v72.378c0 6.975 5.655 12.63 12.63 12.63h178.155c6.975 0 12.63-5.655 12.63-12.63v-72.378c0-6.975-5.655-12.63-12.63-12.63z" fill="#d72555"/><path d="m584.992 235.503v23.826h-8.026v-60.861h22.447c6.66 0 11.878 1.7 15.654 5.1s5.664 7.9 5.664 13.501c0 5.908-1.846 10.457-5.538 13.648-3.693 3.19-8.98 4.786-15.864 4.786zm0-6.563h14.42c4.292 0 7.58-1.012 9.866-3.035 2.285-2.024 3.427-4.949 3.427-8.773 0-3.63-1.142-6.532-3.427-8.709-2.285-2.179-5.42-3.309-9.405-3.392h-14.881v23.91zm43.946-26.836c0-1.254.383-2.312 1.15-3.176s1.901-1.296 3.406-1.296 2.648.432 3.428 1.296 1.17 1.922 1.17 3.176-.39 2.3-1.17 3.136-1.923 1.254-3.428 1.254-2.64-.418-3.407-1.254-1.149-1.882-1.149-3.136zm8.36 57.225h-7.733v-45.228h7.733zm29.727-5.476c2.759 0 5.17-.836 7.232-2.508s3.204-3.762 3.427-6.27h7.316c-.139 2.592-1.03 5.058-2.675 7.399-1.644 2.34-3.839 4.208-6.583 5.601s-5.65 2.09-8.716 2.09c-6.158 0-11.056-2.055-14.693-6.165-3.636-4.11-5.455-9.733-5.455-16.867v-1.296c0-4.403.808-8.318 2.425-11.745s3.936-6.09 6.96-7.984 6.597-2.843 10.721-2.843c5.072 0 9.287 1.519 12.645 4.556s5.148 6.981 5.371 11.83h-7.315c-.223-2.926-1.33-5.33-3.323-7.21-1.992-1.882-4.452-2.822-7.378-2.822-3.929 0-6.973 1.414-9.133 4.243s-3.24 6.918-3.24 12.268v1.463c0 5.211 1.073 9.224 3.219 12.039 2.146 2.814 5.211 4.221 9.196 4.221zm24.568-17.556c0-4.43.871-8.416 2.613-11.955s4.166-6.27 7.273-8.193 6.653-2.884 10.638-2.884c6.159 0 11.14 2.132 14.944 6.396 3.804 4.263 5.706 9.934 5.706 17.012v.544c0 4.403-.843 8.353-2.53 11.85-1.685 3.498-4.096 6.222-7.23 8.172-3.136 1.95-6.737 2.926-10.806 2.926-6.13 0-11.098-2.132-14.902-6.395-3.804-4.264-5.706-9.907-5.706-16.93zm7.775.92c0 5.016 1.164 9.043 3.49 12.08s5.442 4.556 9.343 4.556c3.93 0 7.05-1.54 9.363-4.619s3.47-7.391 3.47-12.937c0-4.96-1.178-8.98-3.532-12.06-2.355-3.078-5.483-4.618-9.385-4.618-3.817 0-6.897 1.519-9.238 4.556-2.34 3.038-3.51 7.385-3.51 13.042z" fill="#1d1d1b"/></svg>