G75*
%MOIN*%
%OFA0B0*%
%FSLAX25Y25*%
%IPPOS*%
%LPD*%
%AMOC8*
5,1,8,0,0,1.08239X$1,22.5*
%
%ADD10C,0.08200*%
%ADD11C,0.00500*%
D10*
X0028800Y0013000D03*
X0028800Y0023000D03*
X0028800Y0033000D03*
X0028800Y0043000D03*
X0068800Y0043000D03*
X0068800Y0033000D03*
X0068800Y0023000D03*
X0068800Y0013000D03*
D11*
X0057550Y0013000D02*
X0057485Y0012342D01*
X0057306Y0011705D01*
X0057019Y0011109D01*
X0056634Y0010571D01*
X0056160Y0010109D01*
X0055614Y0009736D01*
X0055011Y0009464D01*
X0054370Y0009300D01*
X0053710Y0009250D01*
X0052987Y0009331D01*
X0052294Y0009552D01*
X0051658Y0009903D01*
X0051102Y0010372D01*
X0050648Y0010940D01*
X0050313Y0011586D01*
X0050112Y0012285D01*
X0050050Y0013010D01*
X0050113Y0013731D01*
X0050315Y0014425D01*
X0050649Y0015067D01*
X0051102Y0015631D01*
X0051656Y0016096D01*
X0052291Y0016444D01*
X0052981Y0016662D01*
X0053700Y0016740D01*
X0054360Y0016692D01*
X0055001Y0016530D01*
X0055605Y0016259D01*
X0056152Y0015888D01*
X0056627Y0015427D01*
X0057014Y0014890D01*
X0057303Y0014295D01*
X0057483Y0013658D01*
X0057550Y0013000D01*
X0057547Y0012967D02*
X0050054Y0012967D01*
X0050096Y0012469D02*
X0057498Y0012469D01*
X0057381Y0011970D02*
X0050203Y0011970D01*
X0050373Y0011472D02*
X0057194Y0011472D01*
X0056922Y0010973D02*
X0050631Y0010973D01*
X0051020Y0010475D02*
X0056535Y0010475D01*
X0055966Y0009976D02*
X0051571Y0009976D01*
X0052527Y0009478D02*
X0055042Y0009478D01*
X0057503Y0013466D02*
X0050090Y0013466D01*
X0050181Y0013964D02*
X0057396Y0013964D01*
X0057221Y0014463D02*
X0050335Y0014463D01*
X0050594Y0014961D02*
X0056963Y0014961D01*
X0056593Y0015460D02*
X0050965Y0015460D01*
X0051492Y0015958D02*
X0056048Y0015958D01*
X0055165Y0016457D02*
X0052331Y0016457D01*
X0047303Y0014295D02*
X0047483Y0013658D01*
X0047550Y0013000D01*
X0047485Y0012342D01*
X0047306Y0011705D01*
X0047019Y0011109D01*
X0046634Y0010571D01*
X0046160Y0010109D01*
X0045614Y0009736D01*
X0045011Y0009464D01*
X0044370Y0009300D01*
X0043710Y0009250D01*
X0042987Y0009331D01*
X0042294Y0009552D01*
X0041658Y0009903D01*
X0041102Y0010372D01*
X0040648Y0010940D01*
X0040313Y0011586D01*
X0040112Y0012285D01*
X0040050Y0013010D01*
X0040113Y0013731D01*
X0040315Y0014425D01*
X0040649Y0015067D01*
X0041102Y0015631D01*
X0041656Y0016096D01*
X0042291Y0016444D01*
X0042981Y0016662D01*
X0043700Y0016740D01*
X0044360Y0016692D01*
X0045001Y0016530D01*
X0045605Y0016259D01*
X0046152Y0015888D01*
X0046627Y0015427D01*
X0047014Y0014890D01*
X0047303Y0014295D01*
X0047221Y0014463D02*
X0040335Y0014463D01*
X0040181Y0013964D02*
X0047396Y0013964D01*
X0047503Y0013466D02*
X0040090Y0013466D01*
X0040054Y0012967D02*
X0047547Y0012967D01*
X0047498Y0012469D02*
X0040096Y0012469D01*
X0040203Y0011970D02*
X0047381Y0011970D01*
X0047194Y0011472D02*
X0040373Y0011472D01*
X0040631Y0010973D02*
X0046922Y0010973D01*
X0046535Y0010475D02*
X0041020Y0010475D01*
X0041571Y0009976D02*
X0045966Y0009976D01*
X0045042Y0009478D02*
X0042527Y0009478D01*
X0040594Y0014961D02*
X0046963Y0014961D01*
X0046593Y0015460D02*
X0040965Y0015460D01*
X0041492Y0015958D02*
X0046048Y0015958D01*
X0045165Y0016457D02*
X0042331Y0016457D01*
X0043740Y0039280D02*
X0043017Y0039361D01*
X0042324Y0039582D01*
X0041687Y0039933D01*
X0041131Y0040402D01*
X0040678Y0040970D01*
X0040343Y0041616D01*
X0040142Y0042315D01*
X0040080Y0043040D01*
X0040143Y0043761D01*
X0040345Y0044455D01*
X0040679Y0045097D01*
X0041132Y0045661D01*
X0041686Y0046126D01*
X0042321Y0046474D01*
X0043011Y0046691D01*
X0043730Y0046770D01*
X0044390Y0046722D01*
X0045031Y0046560D01*
X0045635Y0046289D01*
X0046182Y0045918D01*
X0046657Y0045457D01*
X0047044Y0044920D01*
X0047333Y0044325D01*
X0047513Y0043688D01*
X0047580Y0043030D01*
X0047515Y0042372D01*
X0047336Y0041735D01*
X0047049Y0041138D01*
X0046663Y0040601D01*
X0046190Y0040139D01*
X0045644Y0039766D01*
X0045041Y0039494D01*
X0044400Y0039330D01*
X0043740Y0039280D01*
X0042932Y0039388D02*
X0044628Y0039388D01*
X0045821Y0039887D02*
X0041771Y0039887D01*
X0041151Y0040385D02*
X0046443Y0040385D01*
X0046867Y0040884D02*
X0040747Y0040884D01*
X0040464Y0041382D02*
X0047167Y0041382D01*
X0047377Y0041881D02*
X0040267Y0041881D01*
X0040136Y0042379D02*
X0047516Y0042379D01*
X0047565Y0042878D02*
X0040094Y0042878D01*
X0040109Y0043376D02*
X0047545Y0043376D01*
X0047460Y0043875D02*
X0040176Y0043875D01*
X0040321Y0044373D02*
X0047309Y0044373D01*
X0047068Y0044872D02*
X0040562Y0044872D01*
X0040899Y0045370D02*
X0046719Y0045370D01*
X0046232Y0045869D02*
X0041380Y0045869D01*
X0042127Y0046368D02*
X0045460Y0046368D01*
X0050345Y0044455D02*
X0050143Y0043761D01*
X0050080Y0043040D01*
X0050142Y0042315D01*
X0050343Y0041616D01*
X0050678Y0040970D01*
X0051131Y0040402D01*
X0051687Y0039933D01*
X0052324Y0039582D01*
X0053017Y0039361D01*
X0053740Y0039280D01*
X0054400Y0039330D01*
X0055041Y0039494D01*
X0055644Y0039766D01*
X0056190Y0040139D01*
X0056663Y0040601D01*
X0057049Y0041138D01*
X0057336Y0041735D01*
X0057515Y0042372D01*
X0057580Y0043030D01*
X0057513Y0043688D01*
X0057333Y0044325D01*
X0057044Y0044920D01*
X0056657Y0045457D01*
X0056182Y0045918D01*
X0055635Y0046289D01*
X0055031Y0046560D01*
X0054390Y0046722D01*
X0053730Y0046770D01*
X0053011Y0046691D01*
X0052321Y0046474D01*
X0051686Y0046126D01*
X0051132Y0045661D01*
X0050679Y0045097D01*
X0050345Y0044455D01*
X0050321Y0044373D02*
X0057309Y0044373D01*
X0057460Y0043875D02*
X0050176Y0043875D01*
X0050109Y0043376D02*
X0057545Y0043376D01*
X0057565Y0042878D02*
X0050094Y0042878D01*
X0050136Y0042379D02*
X0057516Y0042379D01*
X0057377Y0041881D02*
X0050267Y0041881D01*
X0050464Y0041382D02*
X0057167Y0041382D01*
X0056867Y0040884D02*
X0050747Y0040884D01*
X0051151Y0040385D02*
X0056443Y0040385D01*
X0055821Y0039887D02*
X0051771Y0039887D01*
X0052932Y0039388D02*
X0054628Y0039388D01*
X0057068Y0044872D02*
X0050562Y0044872D01*
X0050899Y0045370D02*
X0056719Y0045370D01*
X0056232Y0045869D02*
X0051380Y0045869D01*
X0052127Y0046368D02*
X0055460Y0046368D01*
M02*
