G75*
%MOIN*%
%OFA0B0*%
%FSLAX25Y25*%
%IPPOS*%
%LPD*%
%AMOC8*
5,1,8,0,0,1.08239X$1,22.5*
%
%ADD10C,0.08200*%
%ADD11C,0.00500*%
D10*
X0028800Y0013000D03*
X0028800Y0023000D03*
X0028800Y0033000D03*
X0028800Y0043000D03*
X0068800Y0043000D03*
X0068800Y0033000D03*
X0068800Y0023000D03*
X0068800Y0013000D03*
D11*
X0055560Y0013000D02*
X0055505Y0012602D01*
X0055363Y0012226D01*
X0055140Y0011891D01*
X0054849Y0011614D01*
X0054503Y0011408D01*
X0054121Y0011285D01*
X0053720Y0011250D01*
X0053341Y0011302D01*
X0052982Y0011437D01*
X0052663Y0011648D01*
X0052398Y0011925D01*
X0052202Y0012254D01*
X0052084Y0012618D01*
X0052050Y0013000D01*
X0052090Y0013384D01*
X0052214Y0013750D01*
X0052417Y0014079D01*
X0052688Y0014354D01*
X0053013Y0014563D01*
X0053377Y0014693D01*
X0053760Y0014740D01*
X0054155Y0014702D01*
X0054531Y0014577D01*
X0054870Y0014372D01*
X0055155Y0014097D01*
X0055372Y0013765D01*
X0055509Y0013393D01*
X0055560Y0013000D01*
X0055555Y0012967D02*
X0052053Y0012967D01*
X0052118Y0013466D02*
X0055482Y0013466D01*
X0055242Y0013964D02*
X0052346Y0013964D01*
X0052857Y0014463D02*
X0054721Y0014463D01*
X0055455Y0012469D02*
X0052132Y0012469D01*
X0052371Y0011970D02*
X0055193Y0011970D01*
X0054610Y0011472D02*
X0052929Y0011472D01*
X0045505Y0012602D02*
X0045363Y0012226D01*
X0045140Y0011891D01*
X0044849Y0011614D01*
X0044503Y0011408D01*
X0044121Y0011285D01*
X0043720Y0011250D01*
X0043341Y0011302D01*
X0042982Y0011437D01*
X0042663Y0011648D01*
X0042398Y0011925D01*
X0042202Y0012254D01*
X0042084Y0012618D01*
X0042050Y0013000D01*
X0042090Y0013384D01*
X0042214Y0013750D01*
X0042417Y0014079D01*
X0042688Y0014354D01*
X0043013Y0014563D01*
X0043377Y0014693D01*
X0043760Y0014740D01*
X0044155Y0014702D01*
X0044531Y0014577D01*
X0044870Y0014372D01*
X0045155Y0014097D01*
X0045372Y0013765D01*
X0045509Y0013393D01*
X0045560Y0013000D01*
X0045505Y0012602D01*
X0045455Y0012469D02*
X0042132Y0012469D01*
X0042053Y0012967D02*
X0045555Y0012967D01*
X0045482Y0013466D02*
X0042118Y0013466D01*
X0042346Y0013964D02*
X0045242Y0013964D01*
X0044721Y0014463D02*
X0042857Y0014463D01*
X0042371Y0011970D02*
X0045193Y0011970D01*
X0044610Y0011472D02*
X0042929Y0011472D01*
X0043750Y0041280D02*
X0043370Y0041332D01*
X0043012Y0041467D01*
X0042692Y0041678D01*
X0042428Y0041955D01*
X0042232Y0042284D01*
X0042114Y0042648D01*
X0042080Y0043030D01*
X0042120Y0043414D01*
X0042244Y0043780D01*
X0042447Y0044109D01*
X0042718Y0044384D01*
X0043043Y0044593D01*
X0043407Y0044723D01*
X0043790Y0044770D01*
X0044185Y0044732D01*
X0044561Y0044607D01*
X0044900Y0044402D01*
X0045185Y0044127D01*
X0045402Y0043795D01*
X0045539Y0043423D01*
X0045590Y0043030D01*
X0045535Y0042632D01*
X0045393Y0042256D01*
X0045170Y0041921D01*
X0044879Y0041644D01*
X0044533Y0041438D01*
X0044151Y0041315D01*
X0043750Y0041280D01*
X0043236Y0041382D02*
X0044360Y0041382D01*
X0045128Y0041881D02*
X0042499Y0041881D01*
X0042201Y0042379D02*
X0045439Y0042379D01*
X0045569Y0042878D02*
X0042093Y0042878D01*
X0042116Y0043376D02*
X0045545Y0043376D01*
X0045349Y0043875D02*
X0042303Y0043875D01*
X0042707Y0044373D02*
X0044930Y0044373D01*
X0052120Y0043414D02*
X0052080Y0043030D01*
X0052114Y0042648D01*
X0052232Y0042284D01*
X0052428Y0041955D01*
X0052692Y0041678D01*
X0053012Y0041467D01*
X0053370Y0041332D01*
X0053750Y0041280D01*
X0054151Y0041315D01*
X0054533Y0041438D01*
X0054879Y0041644D01*
X0055170Y0041921D01*
X0055393Y0042256D01*
X0055535Y0042632D01*
X0055590Y0043030D01*
X0055539Y0043423D01*
X0055402Y0043795D01*
X0055185Y0044127D01*
X0054900Y0044402D01*
X0054561Y0044607D01*
X0054185Y0044732D01*
X0053790Y0044770D01*
X0053407Y0044723D01*
X0053043Y0044593D01*
X0052718Y0044384D01*
X0052447Y0044109D01*
X0052244Y0043780D01*
X0052120Y0043414D01*
X0052116Y0043376D02*
X0055545Y0043376D01*
X0055569Y0042878D02*
X0052093Y0042878D01*
X0052201Y0042379D02*
X0055439Y0042379D01*
X0055128Y0041881D02*
X0052499Y0041881D01*
X0053236Y0041382D02*
X0054360Y0041382D01*
X0055349Y0043875D02*
X0052303Y0043875D01*
X0052707Y0044373D02*
X0054930Y0044373D01*
M02*
