G75*
%MOIN*%
%OFA0B0*%
%FSLAX25Y25*%
%IPPOS*%
%LPD*%
%AMOC8*
5,1,8,0,0,1.08239X$1,22.5*
%
%ADD10C,0.07400*%
%ADD11C,0.08000*%
%ADD12C,0.01600*%
%ADD13C,0.00600*%
D10*
X0028800Y0013000D03*
X0028800Y0023000D03*
X0028800Y0033000D03*
X0028800Y0043000D03*
X0068800Y0043000D03*
X0068800Y0033000D03*
X0068800Y0023000D03*
X0068800Y0013000D03*
D11*
X0053800Y0013000D03*
X0043800Y0013000D03*
X0043800Y0043000D03*
X0053800Y0043000D03*
D12*
X0049300Y0043000D01*
X0049300Y0031000D01*
X0041300Y0023000D01*
X0028800Y0023000D01*
X0043800Y0043000D02*
X0049300Y0043000D01*
D13*
X0076000Y0006300D02*
X0005600Y0006300D01*
X0005600Y0049700D01*
X0076000Y0049700D01*
X0076000Y0006300D01*
X0076000Y0006788D02*
X0005600Y0006788D01*
X0005600Y0007387D02*
X0076000Y0007387D01*
X0076000Y0007985D02*
X0055543Y0007985D01*
X0054854Y0007700D02*
X0056802Y0008507D01*
X0058293Y0009998D01*
X0059100Y0011946D01*
X0059100Y0014054D01*
X0058293Y0016002D01*
X0056802Y0017493D01*
X0054854Y0018300D01*
X0052746Y0018300D01*
X0050798Y0017493D01*
X0049307Y0016002D01*
X0048797Y0014772D01*
X0048712Y0015034D01*
X0048333Y0015778D01*
X0047843Y0016453D01*
X0047253Y0017043D01*
X0046578Y0017533D01*
X0045834Y0017912D01*
X0045041Y0018169D01*
X0044217Y0018300D01*
X0044100Y0018300D01*
X0044100Y0013300D01*
X0043500Y0013300D01*
X0043500Y0018300D01*
X0043383Y0018300D01*
X0042559Y0018169D01*
X0041766Y0017912D01*
X0041022Y0017533D01*
X0040347Y0017043D01*
X0039757Y0016453D01*
X0039267Y0015778D01*
X0038888Y0015034D01*
X0038630Y0014241D01*
X0038500Y0013417D01*
X0038500Y0013300D01*
X0043500Y0013300D01*
X0043500Y0012700D01*
X0038500Y0012700D01*
X0038500Y0012583D01*
X0038630Y0011759D01*
X0038888Y0010966D01*
X0039267Y0010222D01*
X0039757Y0009547D01*
X0040347Y0008957D01*
X0041022Y0008467D01*
X0041766Y0008088D01*
X0042559Y0007830D01*
X0043383Y0007700D01*
X0043500Y0007700D01*
X0043500Y0012700D01*
X0044100Y0012700D01*
X0044100Y0007700D01*
X0044217Y0007700D01*
X0045041Y0007830D01*
X0045834Y0008088D01*
X0046578Y0008467D01*
X0047253Y0008957D01*
X0047843Y0009547D01*
X0048333Y0010222D01*
X0048712Y0010966D01*
X0048797Y0011228D01*
X0049307Y0009998D01*
X0050798Y0008507D01*
X0052746Y0007700D01*
X0054854Y0007700D01*
X0056879Y0008584D02*
X0066454Y0008584D01*
X0066179Y0008724D02*
X0066881Y0008366D01*
X0067629Y0008123D01*
X0068406Y0008000D01*
X0068500Y0008000D01*
X0068500Y0012700D01*
X0069100Y0012700D01*
X0069100Y0013300D01*
X0073800Y0013300D01*
X0073800Y0013394D01*
X0073677Y0014171D01*
X0073434Y0014919D01*
X0073076Y0015621D01*
X0072614Y0016257D01*
X0072057Y0016814D01*
X0071421Y0017276D01*
X0070719Y0017634D01*
X0069971Y0017877D01*
X0069194Y0018000D01*
X0069100Y0018000D01*
X0069100Y0013300D01*
X0068500Y0013300D01*
X0068500Y0018000D01*
X0068406Y0018000D01*
X0067629Y0017877D01*
X0066881Y0017634D01*
X0066179Y0017276D01*
X0065543Y0016814D01*
X0064986Y0016257D01*
X0064524Y0015621D01*
X0064166Y0014919D01*
X0063923Y0014171D01*
X0063800Y0013394D01*
X0063800Y0013300D01*
X0068500Y0013300D01*
X0068500Y0012700D01*
X0063800Y0012700D01*
X0063800Y0012606D01*
X0063923Y0011829D01*
X0064166Y0011081D01*
X0064524Y0010379D01*
X0058451Y0010379D01*
X0058699Y0010978D02*
X0064219Y0010978D01*
X0064005Y0011576D02*
X0058947Y0011576D01*
X0059100Y0012175D02*
X0063868Y0012175D01*
X0063800Y0013372D02*
X0059100Y0013372D01*
X0059100Y0013970D02*
X0063891Y0013970D01*
X0064052Y0014569D02*
X0058887Y0014569D01*
X0058639Y0015167D02*
X0064293Y0015167D01*
X0064629Y0015766D02*
X0058391Y0015766D01*
X0057931Y0016364D02*
X0065093Y0016364D01*
X0065748Y0016963D02*
X0057333Y0016963D01*
X0056638Y0017561D02*
X0066739Y0017561D01*
X0067420Y0018160D02*
X0055193Y0018160D01*
X0052407Y0018160D02*
X0045071Y0018160D01*
X0044100Y0018160D02*
X0043500Y0018160D01*
X0043500Y0017561D02*
X0044100Y0017561D01*
X0044100Y0016963D02*
X0043500Y0016963D01*
X0043500Y0016364D02*
X0044100Y0016364D01*
X0044100Y0015766D02*
X0043500Y0015766D01*
X0043500Y0015167D02*
X0044100Y0015167D01*
X0044100Y0014569D02*
X0043500Y0014569D01*
X0043500Y0013970D02*
X0044100Y0013970D01*
X0044100Y0013372D02*
X0043500Y0013372D01*
X0043500Y0012773D02*
X0029100Y0012773D01*
X0029100Y0012700D02*
X0029100Y0013300D01*
X0033800Y0013300D01*
X0033800Y0013394D01*
X0033677Y0014171D01*
X0033434Y0014919D01*
X0033076Y0015621D01*
X0032614Y0016257D01*
X0032057Y0016814D01*
X0031421Y0017276D01*
X0030719Y0017634D01*
X0029971Y0017877D01*
X0029194Y0018000D01*
X0029100Y0018000D01*
X0029100Y0013300D01*
X0028500Y0013300D01*
X0028500Y0018000D01*
X0028406Y0018000D01*
X0027629Y0017877D01*
X0026881Y0017634D01*
X0026179Y0017276D01*
X0025543Y0016814D01*
X0024986Y0016257D01*
X0024524Y0015621D01*
X0024166Y0014919D01*
X0023923Y0014171D01*
X0023800Y0013394D01*
X0023800Y0013300D01*
X0028500Y0013300D01*
X0028500Y0012700D01*
X0029100Y0012700D01*
X0033800Y0012700D01*
X0033800Y0012606D01*
X0033677Y0011829D01*
X0033434Y0011081D01*
X0033076Y0010379D01*
X0039187Y0010379D01*
X0038884Y0010978D02*
X0033381Y0010978D01*
X0033595Y0011576D02*
X0038690Y0011576D01*
X0038565Y0012175D02*
X0033732Y0012175D01*
X0033800Y0013372D02*
X0038500Y0013372D01*
X0038588Y0013970D02*
X0033709Y0013970D01*
X0033548Y0014569D02*
X0038737Y0014569D01*
X0038956Y0015167D02*
X0033307Y0015167D01*
X0032971Y0015766D02*
X0039261Y0015766D01*
X0039693Y0016364D02*
X0032507Y0016364D01*
X0031852Y0016963D02*
X0040267Y0016963D01*
X0041078Y0017561D02*
X0030861Y0017561D01*
X0030180Y0018160D02*
X0042529Y0018160D01*
X0042170Y0020900D02*
X0051400Y0030130D01*
X0064599Y0030130D01*
X0064561Y0030168D02*
X0065968Y0028761D01*
X0067805Y0028000D01*
X0069795Y0028000D01*
X0071632Y0028761D01*
X0073039Y0030168D01*
X0073800Y0032005D01*
X0073800Y0033995D01*
X0073039Y0035832D01*
X0071632Y0037239D01*
X0069795Y0038000D01*
X0071632Y0038761D01*
X0073039Y0040168D01*
X0073800Y0042005D01*
X0073800Y0043995D01*
X0073039Y0045832D01*
X0071632Y0047239D01*
X0069795Y0048000D01*
X0067805Y0048000D01*
X0065968Y0047239D01*
X0064561Y0045832D01*
X0063800Y0043995D01*
X0063800Y0042005D01*
X0064561Y0040168D01*
X0065968Y0038761D01*
X0067805Y0038000D01*
X0069795Y0038000D01*
X0067805Y0038000D01*
X0065968Y0037239D01*
X0064561Y0035832D01*
X0063800Y0033995D01*
X0063800Y0032005D01*
X0064561Y0030168D01*
X0064329Y0030729D02*
X0051400Y0030729D01*
X0051400Y0031327D02*
X0064081Y0031327D01*
X0063833Y0031926D02*
X0051400Y0031926D01*
X0051400Y0032524D02*
X0063800Y0032524D01*
X0063800Y0033123D02*
X0051400Y0033123D01*
X0051400Y0033721D02*
X0063800Y0033721D01*
X0063935Y0034320D02*
X0051400Y0034320D01*
X0051400Y0034918D02*
X0064183Y0034918D01*
X0064430Y0035517D02*
X0051400Y0035517D01*
X0051400Y0036115D02*
X0064844Y0036115D01*
X0065443Y0036714D02*
X0051400Y0036714D01*
X0051400Y0037312D02*
X0066145Y0037312D01*
X0066576Y0038509D02*
X0056805Y0038509D01*
X0056802Y0038507D02*
X0058293Y0039998D01*
X0059100Y0041946D01*
X0059100Y0044054D01*
X0058293Y0046002D01*
X0056802Y0047493D01*
X0054854Y0048300D01*
X0052746Y0048300D01*
X0050798Y0047493D01*
X0049307Y0046002D01*
X0048933Y0045100D01*
X0048667Y0045100D01*
X0048293Y0046002D01*
X0046802Y0047493D01*
X0044854Y0048300D01*
X0042746Y0048300D01*
X0040798Y0047493D01*
X0039307Y0046002D01*
X0038500Y0044054D01*
X0038500Y0041946D01*
X0039307Y0039998D01*
X0040798Y0038507D01*
X0042746Y0037700D01*
X0044854Y0037700D01*
X0046802Y0038507D01*
X0047200Y0038905D01*
X0047200Y0031870D01*
X0040430Y0025100D01*
X0033342Y0025100D01*
X0033039Y0025832D01*
X0031632Y0027239D01*
X0029795Y0028000D01*
X0031632Y0028761D01*
X0033039Y0030168D01*
X0033800Y0032005D01*
X0033800Y0033995D01*
X0033039Y0035832D01*
X0031632Y0037239D01*
X0029795Y0038000D01*
X0027805Y0038000D01*
X0025968Y0037239D01*
X0024561Y0035832D01*
X0023800Y0033995D01*
X0023800Y0032005D01*
X0024561Y0030168D01*
X0025968Y0028761D01*
X0027805Y0028000D01*
X0029795Y0028000D01*
X0027805Y0028000D01*
X0025968Y0027239D01*
X0024561Y0025832D01*
X0023800Y0023995D01*
X0023800Y0022005D01*
X0024561Y0020168D01*
X0025968Y0018761D01*
X0027805Y0018000D01*
X0029795Y0018000D01*
X0031632Y0018761D01*
X0033039Y0020168D01*
X0033342Y0020900D01*
X0042170Y0020900D01*
X0042422Y0021152D02*
X0064153Y0021152D01*
X0064401Y0020554D02*
X0033199Y0020554D01*
X0032826Y0019955D02*
X0064774Y0019955D01*
X0064561Y0020168D02*
X0065968Y0018761D01*
X0067805Y0018000D01*
X0069795Y0018000D01*
X0071632Y0018761D01*
X0073039Y0020168D01*
X0073800Y0022005D01*
X0073800Y0023995D01*
X0073039Y0025832D01*
X0071632Y0027239D01*
X0069795Y0028000D01*
X0067805Y0028000D01*
X0065968Y0027239D01*
X0064561Y0025832D01*
X0063800Y0023995D01*
X0063800Y0022005D01*
X0064561Y0020168D01*
X0065372Y0019357D02*
X0032228Y0019357D01*
X0031625Y0018758D02*
X0065975Y0018758D01*
X0068500Y0017561D02*
X0069100Y0017561D01*
X0069100Y0016963D02*
X0068500Y0016963D01*
X0068500Y0016364D02*
X0069100Y0016364D01*
X0069100Y0015766D02*
X0068500Y0015766D01*
X0068500Y0015167D02*
X0069100Y0015167D01*
X0069100Y0014569D02*
X0068500Y0014569D01*
X0068500Y0013970D02*
X0069100Y0013970D01*
X0069100Y0013372D02*
X0068500Y0013372D01*
X0068500Y0012773D02*
X0059100Y0012773D01*
X0058076Y0009781D02*
X0064959Y0009781D01*
X0064986Y0009743D02*
X0065543Y0009186D01*
X0066179Y0008724D01*
X0065548Y0009182D02*
X0057477Y0009182D01*
X0052057Y0007985D02*
X0045517Y0007985D01*
X0046738Y0008584D02*
X0050721Y0008584D01*
X0050123Y0009182D02*
X0047477Y0009182D01*
X0048012Y0009781D02*
X0049524Y0009781D01*
X0049149Y0010379D02*
X0048413Y0010379D01*
X0048716Y0010978D02*
X0048901Y0010978D01*
X0044100Y0010978D02*
X0043500Y0010978D01*
X0043500Y0011576D02*
X0044100Y0011576D01*
X0044100Y0012175D02*
X0043500Y0012175D01*
X0043500Y0010379D02*
X0044100Y0010379D01*
X0044100Y0009781D02*
X0043500Y0009781D01*
X0043500Y0009182D02*
X0044100Y0009182D01*
X0044100Y0008584D02*
X0043500Y0008584D01*
X0043500Y0007985D02*
X0044100Y0007985D01*
X0042083Y0007985D02*
X0005600Y0007985D01*
X0005600Y0008584D02*
X0026454Y0008584D01*
X0026179Y0008724D02*
X0025543Y0009186D01*
X0024986Y0009743D01*
X0024524Y0010379D01*
X0005600Y0010379D01*
X0005600Y0009781D02*
X0024959Y0009781D01*
X0024524Y0010379D02*
X0024166Y0011081D01*
X0023923Y0011829D01*
X0023800Y0012606D01*
X0023800Y0012700D01*
X0028500Y0012700D01*
X0028500Y0008000D01*
X0028406Y0008000D01*
X0027629Y0008123D01*
X0026881Y0008366D01*
X0026179Y0008724D01*
X0025548Y0009182D02*
X0005600Y0009182D01*
X0005600Y0010978D02*
X0024219Y0010978D01*
X0024005Y0011576D02*
X0005600Y0011576D01*
X0005600Y0012175D02*
X0023868Y0012175D01*
X0023800Y0013372D02*
X0005600Y0013372D01*
X0005600Y0013970D02*
X0023891Y0013970D01*
X0024052Y0014569D02*
X0005600Y0014569D01*
X0005600Y0015167D02*
X0024293Y0015167D01*
X0024629Y0015766D02*
X0005600Y0015766D01*
X0005600Y0016364D02*
X0025093Y0016364D01*
X0025748Y0016963D02*
X0005600Y0016963D01*
X0005600Y0017561D02*
X0026739Y0017561D01*
X0027420Y0018160D02*
X0005600Y0018160D01*
X0005600Y0018758D02*
X0025975Y0018758D01*
X0025372Y0019357D02*
X0005600Y0019357D01*
X0005600Y0019955D02*
X0024774Y0019955D01*
X0024401Y0020554D02*
X0005600Y0020554D01*
X0005600Y0021152D02*
X0024153Y0021152D01*
X0023905Y0021751D02*
X0005600Y0021751D01*
X0005600Y0022349D02*
X0023800Y0022349D01*
X0023800Y0022948D02*
X0005600Y0022948D01*
X0005600Y0023546D02*
X0023800Y0023546D01*
X0023862Y0024145D02*
X0005600Y0024145D01*
X0005600Y0024743D02*
X0024110Y0024743D01*
X0024358Y0025342D02*
X0005600Y0025342D01*
X0005600Y0025940D02*
X0024669Y0025940D01*
X0025268Y0026539D02*
X0005600Y0026539D01*
X0005600Y0027137D02*
X0025866Y0027137D01*
X0027168Y0027736D02*
X0005600Y0027736D01*
X0005600Y0028334D02*
X0026998Y0028334D01*
X0025796Y0028933D02*
X0005600Y0028933D01*
X0005600Y0029532D02*
X0025197Y0029532D01*
X0024599Y0030130D02*
X0005600Y0030130D01*
X0005600Y0030729D02*
X0024329Y0030729D01*
X0024081Y0031327D02*
X0005600Y0031327D01*
X0005600Y0031926D02*
X0023833Y0031926D01*
X0023800Y0032524D02*
X0005600Y0032524D01*
X0005600Y0033123D02*
X0023800Y0033123D01*
X0023800Y0033721D02*
X0005600Y0033721D01*
X0005600Y0034320D02*
X0023935Y0034320D01*
X0024183Y0034918D02*
X0005600Y0034918D01*
X0005600Y0035517D02*
X0024430Y0035517D01*
X0024844Y0036115D02*
X0005600Y0036115D01*
X0005600Y0036714D02*
X0025443Y0036714D01*
X0026145Y0037312D02*
X0005600Y0037312D01*
X0005600Y0037911D02*
X0027590Y0037911D01*
X0027805Y0038000D02*
X0029795Y0038000D01*
X0031632Y0038761D01*
X0033039Y0040168D01*
X0033800Y0042005D01*
X0033800Y0043995D01*
X0033039Y0045832D01*
X0031632Y0047239D01*
X0029795Y0048000D01*
X0027805Y0048000D01*
X0025968Y0047239D01*
X0024561Y0045832D01*
X0023800Y0043995D01*
X0023800Y0042005D01*
X0024561Y0040168D01*
X0025968Y0038761D01*
X0027805Y0038000D01*
X0026576Y0038509D02*
X0005600Y0038509D01*
X0005600Y0039108D02*
X0025621Y0039108D01*
X0025023Y0039706D02*
X0005600Y0039706D01*
X0005600Y0040305D02*
X0024504Y0040305D01*
X0024257Y0040903D02*
X0005600Y0040903D01*
X0005600Y0041502D02*
X0024009Y0041502D01*
X0023800Y0042100D02*
X0005600Y0042100D01*
X0005600Y0042699D02*
X0023800Y0042699D01*
X0023800Y0043297D02*
X0005600Y0043297D01*
X0005600Y0043896D02*
X0023800Y0043896D01*
X0024007Y0044494D02*
X0005600Y0044494D01*
X0005600Y0045093D02*
X0024255Y0045093D01*
X0024503Y0045691D02*
X0005600Y0045691D01*
X0005600Y0046290D02*
X0025019Y0046290D01*
X0025617Y0046888D02*
X0005600Y0046888D01*
X0005600Y0047487D02*
X0026567Y0047487D01*
X0031033Y0047487D02*
X0040792Y0047487D01*
X0040193Y0046888D02*
X0031983Y0046888D01*
X0032581Y0046290D02*
X0039595Y0046290D01*
X0039178Y0045691D02*
X0033097Y0045691D01*
X0033345Y0045093D02*
X0038930Y0045093D01*
X0038682Y0044494D02*
X0033593Y0044494D01*
X0033800Y0043896D02*
X0038500Y0043896D01*
X0038500Y0043297D02*
X0033800Y0043297D01*
X0033800Y0042699D02*
X0038500Y0042699D01*
X0038500Y0042100D02*
X0033800Y0042100D01*
X0033591Y0041502D02*
X0038684Y0041502D01*
X0038932Y0040903D02*
X0033343Y0040903D01*
X0033096Y0040305D02*
X0039180Y0040305D01*
X0039598Y0039706D02*
X0032577Y0039706D01*
X0031979Y0039108D02*
X0040197Y0039108D01*
X0040795Y0038509D02*
X0031024Y0038509D01*
X0030010Y0037911D02*
X0042237Y0037911D01*
X0045363Y0037911D02*
X0047200Y0037911D01*
X0047200Y0038509D02*
X0046805Y0038509D01*
X0047200Y0037312D02*
X0031455Y0037312D01*
X0032157Y0036714D02*
X0047200Y0036714D01*
X0047200Y0036115D02*
X0032756Y0036115D01*
X0033170Y0035517D02*
X0047200Y0035517D01*
X0047200Y0034918D02*
X0033417Y0034918D01*
X0033665Y0034320D02*
X0047200Y0034320D01*
X0047200Y0033721D02*
X0033800Y0033721D01*
X0033800Y0033123D02*
X0047200Y0033123D01*
X0047200Y0032524D02*
X0033800Y0032524D01*
X0033767Y0031926D02*
X0047200Y0031926D01*
X0046657Y0031327D02*
X0033519Y0031327D01*
X0033271Y0030729D02*
X0046059Y0030729D01*
X0045460Y0030130D02*
X0033001Y0030130D01*
X0032403Y0029532D02*
X0044862Y0029532D01*
X0044263Y0028933D02*
X0031804Y0028933D01*
X0030602Y0028334D02*
X0043665Y0028334D01*
X0043066Y0027736D02*
X0030432Y0027736D01*
X0031734Y0027137D02*
X0042468Y0027137D01*
X0041869Y0026539D02*
X0032332Y0026539D01*
X0032931Y0025940D02*
X0041271Y0025940D01*
X0040672Y0025342D02*
X0033242Y0025342D01*
X0043021Y0021751D02*
X0063905Y0021751D01*
X0063800Y0022349D02*
X0043619Y0022349D01*
X0044218Y0022948D02*
X0063800Y0022948D01*
X0063800Y0023546D02*
X0044816Y0023546D01*
X0045415Y0024145D02*
X0063862Y0024145D01*
X0064110Y0024743D02*
X0046013Y0024743D01*
X0046612Y0025342D02*
X0064358Y0025342D01*
X0064669Y0025940D02*
X0047210Y0025940D01*
X0047809Y0026539D02*
X0065268Y0026539D01*
X0065866Y0027137D02*
X0048407Y0027137D01*
X0049006Y0027736D02*
X0067168Y0027736D01*
X0066998Y0028334D02*
X0049604Y0028334D01*
X0050203Y0028933D02*
X0065796Y0028933D01*
X0065197Y0029532D02*
X0050801Y0029532D01*
X0051400Y0030130D02*
X0051400Y0038257D01*
X0052746Y0037700D01*
X0054854Y0037700D01*
X0056802Y0038507D01*
X0057403Y0039108D02*
X0065621Y0039108D01*
X0065023Y0039706D02*
X0058002Y0039706D01*
X0058420Y0040305D02*
X0064504Y0040305D01*
X0064257Y0040903D02*
X0058668Y0040903D01*
X0058916Y0041502D02*
X0064009Y0041502D01*
X0063800Y0042100D02*
X0059100Y0042100D01*
X0059100Y0042699D02*
X0063800Y0042699D01*
X0063800Y0043297D02*
X0059100Y0043297D01*
X0059100Y0043896D02*
X0063800Y0043896D01*
X0064007Y0044494D02*
X0058918Y0044494D01*
X0058670Y0045093D02*
X0064255Y0045093D01*
X0064503Y0045691D02*
X0058422Y0045691D01*
X0058005Y0046290D02*
X0065019Y0046290D01*
X0065617Y0046888D02*
X0057407Y0046888D01*
X0056808Y0047487D02*
X0066567Y0047487D01*
X0071033Y0047487D02*
X0076000Y0047487D01*
X0076000Y0048085D02*
X0055372Y0048085D01*
X0052228Y0048085D02*
X0045372Y0048085D01*
X0046808Y0047487D02*
X0050792Y0047487D01*
X0050193Y0046888D02*
X0047407Y0046888D01*
X0048005Y0046290D02*
X0049595Y0046290D01*
X0049178Y0045691D02*
X0048422Y0045691D01*
X0042228Y0048085D02*
X0005600Y0048085D01*
X0005600Y0048684D02*
X0076000Y0048684D01*
X0076000Y0049282D02*
X0005600Y0049282D01*
X0051400Y0037911D02*
X0052237Y0037911D01*
X0055363Y0037911D02*
X0067590Y0037911D01*
X0070010Y0037911D02*
X0076000Y0037911D01*
X0076000Y0038509D02*
X0071024Y0038509D01*
X0071979Y0039108D02*
X0076000Y0039108D01*
X0076000Y0039706D02*
X0072577Y0039706D01*
X0073096Y0040305D02*
X0076000Y0040305D01*
X0076000Y0040903D02*
X0073343Y0040903D01*
X0073591Y0041502D02*
X0076000Y0041502D01*
X0076000Y0042100D02*
X0073800Y0042100D01*
X0073800Y0042699D02*
X0076000Y0042699D01*
X0076000Y0043297D02*
X0073800Y0043297D01*
X0073800Y0043896D02*
X0076000Y0043896D01*
X0076000Y0044494D02*
X0073593Y0044494D01*
X0073345Y0045093D02*
X0076000Y0045093D01*
X0076000Y0045691D02*
X0073097Y0045691D01*
X0072581Y0046290D02*
X0076000Y0046290D01*
X0076000Y0046888D02*
X0071983Y0046888D01*
X0071455Y0037312D02*
X0076000Y0037312D01*
X0076000Y0036714D02*
X0072157Y0036714D01*
X0072756Y0036115D02*
X0076000Y0036115D01*
X0076000Y0035517D02*
X0073170Y0035517D01*
X0073417Y0034918D02*
X0076000Y0034918D01*
X0076000Y0034320D02*
X0073665Y0034320D01*
X0073800Y0033721D02*
X0076000Y0033721D01*
X0076000Y0033123D02*
X0073800Y0033123D01*
X0073800Y0032524D02*
X0076000Y0032524D01*
X0076000Y0031926D02*
X0073767Y0031926D01*
X0073519Y0031327D02*
X0076000Y0031327D01*
X0076000Y0030729D02*
X0073271Y0030729D01*
X0073001Y0030130D02*
X0076000Y0030130D01*
X0076000Y0029532D02*
X0072403Y0029532D01*
X0071804Y0028933D02*
X0076000Y0028933D01*
X0076000Y0028334D02*
X0070602Y0028334D01*
X0070432Y0027736D02*
X0076000Y0027736D01*
X0076000Y0027137D02*
X0071734Y0027137D01*
X0072332Y0026539D02*
X0076000Y0026539D01*
X0076000Y0025940D02*
X0072931Y0025940D01*
X0073242Y0025342D02*
X0076000Y0025342D01*
X0076000Y0024743D02*
X0073490Y0024743D01*
X0073738Y0024145D02*
X0076000Y0024145D01*
X0076000Y0023546D02*
X0073800Y0023546D01*
X0073800Y0022948D02*
X0076000Y0022948D01*
X0076000Y0022349D02*
X0073800Y0022349D01*
X0073695Y0021751D02*
X0076000Y0021751D01*
X0076000Y0021152D02*
X0073447Y0021152D01*
X0073199Y0020554D02*
X0076000Y0020554D01*
X0076000Y0019955D02*
X0072826Y0019955D01*
X0072228Y0019357D02*
X0076000Y0019357D01*
X0076000Y0018758D02*
X0071625Y0018758D01*
X0070861Y0017561D02*
X0076000Y0017561D01*
X0076000Y0016963D02*
X0071852Y0016963D01*
X0072507Y0016364D02*
X0076000Y0016364D01*
X0076000Y0015766D02*
X0072971Y0015766D01*
X0073307Y0015167D02*
X0076000Y0015167D01*
X0076000Y0014569D02*
X0073548Y0014569D01*
X0073709Y0013970D02*
X0076000Y0013970D01*
X0076000Y0013372D02*
X0073800Y0013372D01*
X0073800Y0012700D02*
X0069100Y0012700D01*
X0069100Y0008000D01*
X0069194Y0008000D01*
X0069971Y0008123D01*
X0070719Y0008366D01*
X0071421Y0008724D01*
X0072057Y0009186D01*
X0072614Y0009743D01*
X0073076Y0010379D01*
X0076000Y0010379D01*
X0076000Y0009781D02*
X0072641Y0009781D01*
X0073076Y0010379D02*
X0073434Y0011081D01*
X0073677Y0011829D01*
X0073800Y0012606D01*
X0073800Y0012700D01*
X0073732Y0012175D02*
X0076000Y0012175D01*
X0076000Y0012773D02*
X0069100Y0012773D01*
X0069100Y0012175D02*
X0068500Y0012175D01*
X0068500Y0011576D02*
X0069100Y0011576D01*
X0069100Y0010978D02*
X0068500Y0010978D01*
X0068500Y0010379D02*
X0069100Y0010379D01*
X0069100Y0009781D02*
X0068500Y0009781D01*
X0068500Y0009182D02*
X0069100Y0009182D01*
X0069100Y0008584D02*
X0068500Y0008584D01*
X0071146Y0008584D02*
X0076000Y0008584D01*
X0076000Y0009182D02*
X0072052Y0009182D01*
X0073381Y0010978D02*
X0076000Y0010978D01*
X0076000Y0011576D02*
X0073595Y0011576D01*
X0064986Y0009743D02*
X0064524Y0010379D01*
X0070180Y0018160D02*
X0076000Y0018160D01*
X0050962Y0017561D02*
X0046522Y0017561D01*
X0047333Y0016963D02*
X0050267Y0016963D01*
X0049669Y0016364D02*
X0047907Y0016364D01*
X0048339Y0015766D02*
X0049209Y0015766D01*
X0048961Y0015167D02*
X0048644Y0015167D01*
X0040123Y0009182D02*
X0032052Y0009182D01*
X0032057Y0009186D02*
X0032614Y0009743D01*
X0033076Y0010379D01*
X0032641Y0009781D02*
X0039588Y0009781D01*
X0040862Y0008584D02*
X0031146Y0008584D01*
X0031421Y0008724D02*
X0030719Y0008366D01*
X0029971Y0008123D01*
X0029194Y0008000D01*
X0029100Y0008000D01*
X0029100Y0012700D01*
X0029100Y0012175D02*
X0028500Y0012175D01*
X0028500Y0012773D02*
X0005600Y0012773D01*
X0028500Y0013372D02*
X0029100Y0013372D01*
X0029100Y0013970D02*
X0028500Y0013970D01*
X0028500Y0014569D02*
X0029100Y0014569D01*
X0029100Y0015167D02*
X0028500Y0015167D01*
X0028500Y0015766D02*
X0029100Y0015766D01*
X0029100Y0016364D02*
X0028500Y0016364D01*
X0028500Y0016963D02*
X0029100Y0016963D01*
X0029100Y0017561D02*
X0028500Y0017561D01*
X0028500Y0011576D02*
X0029100Y0011576D01*
X0029100Y0010978D02*
X0028500Y0010978D01*
X0028500Y0010379D02*
X0029100Y0010379D01*
X0029100Y0009781D02*
X0028500Y0009781D01*
X0028500Y0009182D02*
X0029100Y0009182D01*
X0029100Y0008584D02*
X0028500Y0008584D01*
X0031421Y0008724D02*
X0032057Y0009186D01*
M02*
