M48
;GenerationSoftware,Autodesk,EAGLE,8.7.0*%
;CreationDate,2018-03-15T14:00:45Z*%
FMAT,2
ICI,OFF
METRIC,TZ,000.000
T9C0.700
T8C0.800
T7C0.813
T6C0.900
T5C1.000
T4C1.016
T3C2.997
T2C3.200
T1C3.302
%
G90
M71
T1
X31750Y2540
X83820Y7620
X83820Y35560
X33020Y50800
X1524Y20320
T2
X8671Y8636
T3
X1350Y8611
X5493Y4874
T4
X68580Y2540
X71120Y2540
X73660Y2540
X76200Y2540
X78740Y2540
X81280Y2540
X81280Y50800
X78740Y50800
X76200Y50800
X73660Y50800
X71120Y50800
X68580Y50800
X66040Y50800
X63500Y50800
X59436Y50800
X56896Y50800
X54356Y50800
X51816Y50800
X49276Y50800
X46736Y50800
X44196Y50800
X41656Y50800
X81280Y30480
X83820Y30480
X81280Y27940
X83820Y27940
X81280Y25400
X83820Y25400
X33833Y36805
X33833Y34265
X50800Y2540
X53340Y2540
X55880Y2540
X58420Y2540
X60960Y2540
X63500Y2540
X33833Y31725
X28753Y29185
X26213Y29185
X23673Y29185
X21133Y29185
X18593Y29185
X813Y46965
X13513Y29185
X10973Y29185
X8433Y29185
X70409Y30201
X76911Y30201
X70409Y25679
X76911Y25679
X5893Y29185
X3353Y29185
X813Y29185
X28753Y46965
X26213Y46965
X23673Y46965
X21133Y46965
X18593Y46965
X16053Y46965
X13513Y46965
X10973Y46965
X8433Y46965
X5893Y46965
X3353Y46965
X16510Y17780
X16510Y20320
X16510Y22860
X16053Y29185
X33833Y44425
X33833Y41885
X33833Y39345
T5
X21590Y12700
X11430Y12700
T6
X69850Y33020
X45720Y33020
X38100Y33020
X77470Y33020
X45720Y30480
X38100Y30480
T7
X53340Y20320
X41910Y39370
X41910Y36830
X73660Y39370
X73660Y36830
X33782Y9652
X50800Y20320
X48260Y20320
X48260Y12700
X50800Y12700
X53340Y12700
X55880Y12700
X58420Y12700
X60960Y12700
X63500Y12700
X66040Y12700
X71120Y12700
X73660Y12700
X76200Y12700
X78740Y12700
X81280Y20320
X81280Y12700
X36322Y9652
X35052Y11557
X68580Y12700
X78740Y20320
X76200Y20320
X73660Y20320
X71120Y20320
X68580Y20320
X66040Y20320
X63500Y20320
X60960Y20320
X58420Y20320
X55880Y20320
T8
X19050Y8890
X13970Y8890
T9
X40640Y43180
X66040Y6350
X66040Y8890
X44450Y3810
X46990Y3810
X41910Y21590
X41910Y19050
X16510Y3810
X19050Y3810
X32766Y27178
X35306Y27178
X40640Y27940
X43180Y27940
X67310Y26670
X67310Y24130
X52070Y24130
X43180Y43180
X57150Y25400
X62230Y25400
X52070Y26670
M30