G04 EAGLE Gerber X2 export*
%TF.Part,Single*%
%TF.FileFunction,Legend,Bot,1*%
%TF.FilePolarity,Positive*%
%TF.GenerationSoftware,Autodesk,EAGLE,8.7.0*%
%TF.CreationDate,2018-03-15T14:00:46Z*%
G75*
%MOMM*%
%FSLAX34Y34*%
%LPD*%
%AMOC8*
5,1,8,0,0,1.08239X$1,22.5*%
G01*
%ADD10C,0.279400*%


D10*
X291973Y520841D02*
X291973Y509825D01*
X286465Y504317D01*
X280957Y509825D01*
X280957Y520841D01*
X274198Y520841D02*
X263182Y520841D01*
X274198Y520841D02*
X274198Y504317D01*
X263182Y504317D01*
X268690Y512579D02*
X274198Y512579D01*
X256423Y504317D02*
X256423Y520841D01*
X248161Y520841D01*
X245407Y518087D01*
X245407Y512579D01*
X248161Y509825D01*
X256423Y509825D01*
X250915Y509825D02*
X245407Y504317D01*
X220874Y515333D02*
X215366Y520841D01*
X215366Y504317D01*
X220874Y504317D02*
X209858Y504317D01*
X203099Y504317D02*
X203099Y507071D01*
X200345Y507071D01*
X200345Y504317D01*
X203099Y504317D01*
X194211Y507071D02*
X194211Y518087D01*
X191457Y520841D01*
X185949Y520841D01*
X183195Y518087D01*
X183195Y507071D01*
X185949Y504317D01*
X191457Y504317D01*
X194211Y507071D01*
X183195Y518087D01*
X158662Y512579D02*
X147646Y512579D01*
X123112Y504317D02*
X123112Y520841D01*
X112096Y520841D01*
X117604Y512579D02*
X123112Y512579D01*
X105337Y520841D02*
X94321Y520841D01*
X105337Y520841D02*
X105337Y504317D01*
X94321Y504317D01*
X99829Y512579D02*
X105337Y512579D01*
X87562Y509825D02*
X87562Y520841D01*
X87562Y509825D02*
X82054Y504317D01*
X76546Y509825D01*
X76546Y520841D01*
X58771Y520841D02*
X69787Y504317D01*
X52013Y504317D02*
X40997Y504317D01*
X52013Y504317D02*
X40997Y515333D01*
X40997Y518087D01*
X43751Y520841D01*
X49259Y520841D01*
X52013Y518087D01*
X34238Y518087D02*
X34238Y507071D01*
X34238Y518087D02*
X31484Y520841D01*
X25976Y520841D01*
X23222Y518087D01*
X23222Y507071D01*
X25976Y504317D01*
X31484Y504317D01*
X34238Y507071D01*
X23222Y518087D01*
X16463Y515333D02*
X10955Y520841D01*
X10955Y504317D01*
X16463Y504317D02*
X5447Y504317D01*
X-1312Y518087D02*
X-4066Y520841D01*
X-9574Y520841D01*
X-12328Y518087D01*
X-12328Y515333D01*
X-9574Y512579D01*
X-12328Y509825D01*
X-12328Y507071D01*
X-9574Y504317D01*
X-4066Y504317D01*
X-1312Y507071D01*
X-1312Y509825D01*
X-4066Y512579D01*
X-1312Y515333D01*
X-1312Y518087D01*
X-4066Y512579D02*
X-9574Y512579D01*
M02*
