G04 EAGLE Gerber X2 export*
%TF.Part,Single*%
%TF.FileFunction,Legend,Top,1*%
%TF.FilePolarity,Positive*%
%TF.GenerationSoftware,Autodesk,EAGLE,8.7.0*%
%TF.CreationDate,2018-03-15T14:00:46Z*%
G75*
%MOMM*%
%FSLAX34Y34*%
%LPD*%
%AMOC8*
5,1,8,0,0,1.08239X$1,22.5*%
G01*
%ADD10R,0.076200X0.025400*%
%ADD11R,0.050800X0.025400*%
%ADD12R,0.101600X0.025400*%
%ADD13R,0.152400X0.025400*%
%ADD14R,0.127000X0.025400*%
%ADD15R,0.177800X0.025400*%
%ADD16R,0.203200X0.025400*%
%ADD17R,0.254000X0.025400*%
%ADD18R,0.279400X0.025400*%
%ADD19R,0.330200X0.025400*%
%ADD20R,0.355600X0.025400*%
%ADD21R,0.406400X0.025400*%
%ADD22R,0.431800X0.025400*%
%ADD23R,0.482600X0.025400*%
%ADD24R,0.508000X0.025400*%
%ADD25R,0.533400X0.025400*%
%ADD26R,0.558800X0.025400*%
%ADD27R,0.584200X0.025400*%
%ADD28R,0.635000X0.025400*%
%ADD29R,0.660400X0.025400*%
%ADD30R,0.685800X0.025400*%
%ADD31R,0.711200X0.025400*%
%ADD32R,0.736600X0.025400*%
%ADD33R,0.762000X0.025400*%
%ADD34R,0.863600X0.025400*%
%ADD35R,0.787400X0.025400*%
%ADD36R,0.812800X0.025400*%
%ADD37R,0.838200X0.025400*%
%ADD38R,0.889000X0.025400*%
%ADD39R,0.914400X0.025400*%
%ADD40R,0.939800X0.025400*%
%ADD41R,0.965200X0.025400*%
%ADD42R,0.990600X0.025400*%
%ADD43R,1.041400X0.025400*%
%ADD44R,1.066800X0.025400*%
%ADD45R,1.092200X0.025400*%
%ADD46R,1.117600X0.025400*%
%ADD47R,1.143000X0.025400*%
%ADD48R,1.193800X0.025400*%
%ADD49R,1.219200X0.025400*%
%ADD50R,1.244600X0.025400*%
%ADD51R,1.270000X0.025400*%
%ADD52R,1.295400X0.025400*%
%ADD53R,1.346200X0.025400*%
%ADD54R,1.016000X0.025400*%
%ADD55R,1.371600X0.025400*%
%ADD56R,1.397000X0.025400*%
%ADD57R,1.422400X0.025400*%
%ADD58R,1.447800X0.025400*%
%ADD59R,1.473200X0.025400*%
%ADD60R,1.498600X0.025400*%
%ADD61R,1.524000X0.025400*%
%ADD62R,1.549400X0.025400*%
%ADD63R,1.600200X0.025400*%
%ADD64R,1.574800X0.025400*%
%ADD65R,1.625600X0.025400*%
%ADD66R,1.651000X0.025400*%
%ADD67R,1.676400X0.025400*%
%ADD68R,1.701800X0.025400*%
%ADD69R,1.752600X0.025400*%
%ADD70R,1.727200X0.025400*%
%ADD71R,1.778000X0.025400*%
%ADD72R,1.803400X0.025400*%
%ADD73R,1.828800X0.025400*%
%ADD74R,1.854200X0.025400*%
%ADD75R,1.879600X0.025400*%
%ADD76R,1.930400X0.025400*%
%ADD77R,1.905000X0.025400*%
%ADD78R,1.955800X0.025400*%
%ADD79R,1.981200X0.025400*%
%ADD80R,2.006600X0.025400*%
%ADD81R,2.032000X0.025400*%
%ADD82R,2.057400X0.025400*%
%ADD83R,2.082800X0.025400*%
%ADD84R,2.108200X0.025400*%
%ADD85R,2.133600X0.025400*%
%ADD86R,2.159000X0.025400*%
%ADD87R,2.184400X0.025400*%
%ADD88R,2.209800X0.025400*%
%ADD89R,2.235200X0.025400*%
%ADD90R,2.260600X0.025400*%
%ADD91R,2.286000X0.025400*%
%ADD92R,2.311400X0.025400*%
%ADD93R,2.336800X0.025400*%
%ADD94R,1.320800X0.025400*%
%ADD95R,2.362200X0.025400*%
%ADD96R,2.387600X0.025400*%
%ADD97R,2.413000X0.025400*%
%ADD98R,2.438400X0.025400*%
%ADD99R,2.463800X0.025400*%
%ADD100R,2.489200X0.025400*%
%ADD101R,2.514600X0.025400*%
%ADD102R,2.540000X0.025400*%
%ADD103R,2.565400X0.025400*%
%ADD104R,2.590800X0.025400*%
%ADD105R,2.616200X0.025400*%
%ADD106R,2.641600X0.025400*%
%ADD107R,2.667000X0.025400*%
%ADD108R,2.692400X0.025400*%
%ADD109R,2.717800X0.025400*%
%ADD110R,2.743200X0.025400*%
%ADD111R,2.768600X0.025400*%
%ADD112R,2.794000X0.025400*%
%ADD113R,2.819400X0.025400*%
%ADD114R,2.844800X0.025400*%
%ADD115R,2.870200X0.025400*%
%ADD116R,2.895600X0.025400*%
%ADD117R,2.921000X0.025400*%
%ADD118R,2.946400X0.025400*%
%ADD119R,2.971800X0.025400*%
%ADD120R,2.997200X0.025400*%
%ADD121R,3.022600X0.025400*%
%ADD122R,3.073400X0.025400*%
%ADD123R,3.175000X0.025400*%
%ADD124R,3.302000X0.025400*%
%ADD125R,3.429000X0.025400*%
%ADD126R,3.530600X0.025400*%
%ADD127R,3.657600X0.025400*%
%ADD128R,3.784600X0.025400*%
%ADD129R,3.886200X0.025400*%
%ADD130R,3.987800X0.025400*%
%ADD131R,4.114800X0.025400*%
%ADD132R,4.241800X0.025400*%
%ADD133R,4.343400X0.025400*%
%ADD134R,4.470400X0.025400*%
%ADD135R,4.597400X0.025400*%
%ADD136R,4.699000X0.025400*%
%ADD137R,4.826000X0.025400*%
%ADD138R,4.953000X0.025400*%
%ADD139R,5.054600X0.025400*%
%ADD140R,5.156200X0.025400*%
%ADD141R,5.308600X0.025400*%
%ADD142R,5.410200X0.025400*%
%ADD143R,5.511800X0.025400*%
%ADD144R,3.759200X0.025400*%
%ADD145R,0.228600X0.025400*%
%ADD146R,0.304800X0.025400*%
%ADD147R,0.381000X0.025400*%
%ADD148R,3.556000X0.025400*%
%ADD149R,3.683000X0.025400*%
%ADD150R,3.937000X0.025400*%
%ADD151R,4.038600X0.025400*%
%ADD152R,4.191000X0.025400*%
%ADD153R,4.292600X0.025400*%
%ADD154R,4.419600X0.025400*%
%ADD155R,4.546600X0.025400*%
%ADD156R,1.168400X0.025400*%
%ADD157R,4.648200X0.025400*%
%ADD158R,4.800600X0.025400*%
%ADD159R,4.902200X0.025400*%
%ADD160R,5.435600X0.025400*%
%ADD161R,6.832600X0.025400*%
%ADD162R,8.077200X0.025400*%
%ADD163R,8.001000X0.025400*%
%ADD164R,7.899400X0.025400*%
%ADD165R,7.797800X0.025400*%
%ADD166R,7.721600X0.025400*%
%ADD167R,7.645400X0.025400*%
%ADD168R,7.543800X0.025400*%
%ADD169R,7.442200X0.025400*%
%ADD170R,7.366000X0.025400*%
%ADD171R,7.289800X0.025400*%
%ADD172R,0.025400X0.025400*%
%ADD173R,7.188200X0.025400*%
%ADD174R,7.086600X0.025400*%
%ADD175R,6.985000X0.025400*%
%ADD176R,6.934200X0.025400*%
%ADD177R,6.731000X0.025400*%
%ADD178R,6.629400X0.025400*%
%ADD179R,0.457200X0.025400*%
%ADD180R,6.553200X0.025400*%
%ADD181R,6.477000X0.025400*%
%ADD182R,0.609600X0.025400*%
%ADD183R,6.426200X0.025400*%
%ADD184R,6.451600X0.025400*%
%ADD185R,6.502400X0.025400*%
%ADD186R,6.604000X0.025400*%
%ADD187R,6.654800X0.025400*%
%ADD188R,6.705600X0.025400*%
%ADD189R,6.781800X0.025400*%
%ADD190R,6.883400X0.025400*%
%ADD191R,7.010400X0.025400*%
%ADD192R,7.137400X0.025400*%
%ADD193R,7.239000X0.025400*%
%ADD194R,7.315200X0.025400*%
%ADD195R,7.493000X0.025400*%
%ADD196R,7.620000X0.025400*%
%ADD197R,7.696200X0.025400*%
%ADD198R,7.747000X0.025400*%
%ADD199R,7.848600X0.025400*%
%ADD200R,7.924800X0.025400*%
%ADD201R,8.051800X0.025400*%
%ADD202R,6.223000X0.025400*%
%ADD203R,6.146800X0.025400*%
%ADD204R,3.911600X0.025400*%
%ADD205R,3.733800X0.025400*%
%ADD206R,3.403600X0.025400*%
%ADD207R,3.200400X0.025400*%
%ADD208C,0.482600*%


D10*
X575818Y342646D03*
D11*
X585851Y342646D03*
D12*
X575691Y342900D03*
D10*
X585978Y342900D03*
D13*
X575437Y343154D03*
D14*
X586232Y343154D03*
D15*
X575310Y343408D03*
D14*
X586486Y343408D03*
D16*
X575183Y343662D03*
D15*
X586740Y343662D03*
D17*
X574929Y343916D03*
D16*
X586867Y343916D03*
D17*
X574675Y344170D03*
X587121Y344170D03*
D18*
X574548Y344424D03*
X587248Y344424D03*
D19*
X574294Y344678D03*
X587502Y344678D03*
D20*
X574167Y344932D03*
X587629Y344932D03*
D21*
X573913Y345186D03*
D20*
X587883Y345186D03*
D21*
X573659Y345440D03*
X588137Y345440D03*
D22*
X573532Y345694D03*
X588264Y345694D03*
D23*
X573278Y345948D03*
X588518Y345948D03*
D24*
X573151Y346202D03*
X588645Y346202D03*
D25*
X573024Y346456D03*
X588772Y346456D03*
D26*
X572643Y346710D03*
X589153Y346710D03*
D27*
X572516Y346964D03*
X589280Y346964D03*
D28*
X572262Y347218D03*
X589534Y347218D03*
D29*
X572135Y347472D03*
X589661Y347472D03*
D30*
X572008Y347726D03*
X589788Y347726D03*
D31*
X571627Y347980D03*
X590169Y347980D03*
D32*
X571500Y348234D03*
D25*
X582422Y348234D03*
D32*
X590296Y348234D03*
D33*
X571373Y348488D03*
D34*
X581025Y348488D03*
D35*
X590550Y348488D03*
D36*
X571119Y348742D03*
D34*
X581025Y348742D03*
D36*
X590677Y348742D03*
D37*
X570992Y348996D03*
D38*
X580898Y348996D03*
D37*
X590804Y348996D03*
D38*
X570738Y349250D03*
X580898Y349250D03*
D34*
X591185Y349250D03*
D38*
X570484Y349504D03*
X580898Y349504D03*
X591312Y349504D03*
D39*
X570357Y349758D03*
X581025Y349758D03*
D40*
X591566Y349758D03*
D41*
X570103Y350012D03*
D39*
X581025Y350012D03*
D41*
X591693Y350012D03*
D42*
X569976Y350266D03*
D40*
X580898Y350266D03*
D42*
X591820Y350266D03*
D43*
X569722Y350520D03*
D40*
X580898Y350520D03*
D43*
X592074Y350520D03*
X569468Y350774D03*
D40*
X580898Y350774D03*
D43*
X592328Y350774D03*
D44*
X569341Y351028D03*
D40*
X580898Y351028D03*
D45*
X592582Y351028D03*
D46*
X569087Y351282D03*
D40*
X580898Y351282D03*
D46*
X592709Y351282D03*
D47*
X568960Y351536D03*
D41*
X581025Y351536D03*
D47*
X592836Y351536D03*
D48*
X568706Y351790D03*
D42*
X580898Y351790D03*
D48*
X593090Y351790D03*
D49*
X568579Y352044D03*
D42*
X580898Y352044D03*
D48*
X593344Y352044D03*
D49*
X568325Y352298D03*
D42*
X580898Y352298D03*
D50*
X593598Y352298D03*
D51*
X568071Y352552D03*
D42*
X580898Y352552D03*
D51*
X593725Y352552D03*
D52*
X567944Y352806D03*
D42*
X580898Y352806D03*
D52*
X593852Y352806D03*
D53*
X567690Y353060D03*
D54*
X581025Y353060D03*
D53*
X594106Y353060D03*
D55*
X567563Y353314D03*
D43*
X580898Y353314D03*
D55*
X594233Y353314D03*
D56*
X567436Y353568D03*
D43*
X580898Y353568D03*
D56*
X594614Y353568D03*
D57*
X567055Y353822D03*
D43*
X580898Y353822D03*
D57*
X594741Y353822D03*
D58*
X566928Y354076D03*
D43*
X580898Y354076D03*
D58*
X594868Y354076D03*
D59*
X566801Y354330D03*
D43*
X580898Y354330D03*
D60*
X595122Y354330D03*
D61*
X566547Y354584D03*
D45*
X580898Y354584D03*
D61*
X595249Y354584D03*
D62*
X566420Y354838D03*
D45*
X580898Y354838D03*
D61*
X595503Y354838D03*
D63*
X566166Y355092D03*
D45*
X580898Y355092D03*
D64*
X595757Y355092D03*
D63*
X565912Y355346D03*
D45*
X580898Y355346D03*
D63*
X595884Y355346D03*
D65*
X565785Y355600D03*
D45*
X580898Y355600D03*
D66*
X596138Y355600D03*
D67*
X565531Y355854D03*
D47*
X580898Y355854D03*
D67*
X596265Y355854D03*
D68*
X565404Y356108D03*
D47*
X580898Y356108D03*
D68*
X596392Y356108D03*
D69*
X565150Y356362D03*
D47*
X580898Y356362D03*
D70*
X596773Y356362D03*
D69*
X564896Y356616D03*
D47*
X580898Y356616D03*
D69*
X596900Y356616D03*
D71*
X564769Y356870D03*
D47*
X580898Y356870D03*
D72*
X597154Y356870D03*
D73*
X564515Y357124D03*
D47*
X580898Y357124D03*
D73*
X597281Y357124D03*
D74*
X564388Y357378D03*
D48*
X580898Y357378D03*
D74*
X597408Y357378D03*
D75*
X564261Y357632D03*
D48*
X580898Y357632D03*
D75*
X597789Y357632D03*
D76*
X564007Y357886D03*
D48*
X580898Y357886D03*
D77*
X597916Y357886D03*
D76*
X563753Y358140D03*
D48*
X580898Y358140D03*
D78*
X598170Y358140D03*
D79*
X563499Y358394D03*
D48*
X580898Y358394D03*
D79*
X598297Y358394D03*
D80*
X563372Y358648D03*
D49*
X581025Y358648D03*
D80*
X598424Y358648D03*
D81*
X563245Y358902D03*
D50*
X580898Y358902D03*
D82*
X598678Y358902D03*
D83*
X562991Y359156D03*
D50*
X580898Y359156D03*
D82*
X598932Y359156D03*
D83*
X562737Y359410D03*
D50*
X580898Y359410D03*
D84*
X599186Y359410D03*
D85*
X562483Y359664D03*
D50*
X580898Y359664D03*
D85*
X599313Y359664D03*
D86*
X562356Y359918D03*
D50*
X580898Y359918D03*
D86*
X599440Y359918D03*
D87*
X562229Y360172D03*
D51*
X581025Y360172D03*
D88*
X599694Y360172D03*
D89*
X561975Y360426D03*
D52*
X580898Y360426D03*
D88*
X599948Y360426D03*
D90*
X561848Y360680D03*
D52*
X580898Y360680D03*
D90*
X600202Y360680D03*
X561594Y360934D03*
D52*
X580898Y360934D03*
D91*
X600329Y360934D03*
D92*
X561340Y361188D03*
D52*
X580898Y361188D03*
D92*
X600456Y361188D03*
D93*
X561213Y361442D03*
D94*
X581025Y361442D03*
D95*
X600710Y361442D03*
D96*
X560959Y361696D03*
D94*
X581025Y361696D03*
D96*
X600837Y361696D03*
D97*
X560832Y361950D03*
D53*
X580898Y361950D03*
D96*
X601091Y361950D03*
D97*
X560578Y362204D03*
D53*
X580898Y362204D03*
D98*
X601345Y362204D03*
D99*
X560324Y362458D03*
D53*
X580898Y362458D03*
D99*
X601472Y362458D03*
D100*
X560197Y362712D03*
D53*
X580898Y362712D03*
D101*
X601726Y362712D03*
D102*
X559943Y362966D03*
D55*
X581025Y362966D03*
D102*
X601853Y362966D03*
D103*
X559816Y363220D03*
D56*
X580898Y363220D03*
D103*
X601980Y363220D03*
X559562Y363474D03*
D56*
X580898Y363474D03*
D104*
X602361Y363474D03*
D105*
X559308Y363728D03*
D56*
X580898Y363728D03*
D105*
X602488Y363728D03*
D106*
X559181Y363982D03*
D56*
X580898Y363982D03*
D106*
X602615Y363982D03*
D107*
X559054Y364236D03*
D57*
X581025Y364236D03*
D108*
X602869Y364236D03*
D109*
X558800Y364490D03*
D58*
X580898Y364490D03*
D109*
X602996Y364490D03*
D110*
X558673Y364744D03*
D58*
X580898Y364744D03*
D110*
X603377Y364744D03*
X558419Y364998D03*
D58*
X580898Y364998D03*
D111*
X603504Y364998D03*
D112*
X558165Y365252D03*
D58*
X580898Y365252D03*
D112*
X603631Y365252D03*
D113*
X558038Y365506D03*
D59*
X581025Y365506D03*
D114*
X603885Y365506D03*
X557911Y365760D03*
D60*
X580898Y365760D03*
D115*
X604012Y365760D03*
D116*
X557657Y366014D03*
D60*
X580898Y366014D03*
D116*
X604139Y366014D03*
X557403Y366268D03*
D60*
X580898Y366268D03*
D116*
X604393Y366268D03*
D117*
X557276Y366522D03*
D60*
X580898Y366522D03*
D118*
X604647Y366522D03*
D119*
X557022Y366776D03*
D62*
X580898Y366776D03*
D119*
X604774Y366776D03*
D120*
X556895Y367030D03*
D62*
X580898Y367030D03*
D120*
X604901Y367030D03*
D121*
X556768Y367284D03*
D62*
X580898Y367284D03*
D121*
X605028Y367284D03*
D119*
X556768Y367538D03*
D62*
X580898Y367538D03*
D121*
X605028Y367538D03*
D119*
X556768Y367792D03*
D64*
X581025Y367792D03*
D119*
X605028Y367792D03*
D118*
X556895Y368046D03*
D63*
X580898Y368046D03*
D118*
X604901Y368046D03*
D116*
X556895Y368300D03*
D63*
X580898Y368300D03*
D116*
X604901Y368300D03*
D113*
X556768Y368554D03*
D63*
X580898Y368554D03*
D113*
X605028Y368554D03*
D110*
X556641Y368808D03*
D66*
X580898Y368808D03*
D110*
X605155Y368808D03*
D107*
X556514Y369062D03*
D67*
X580771Y369062D03*
D107*
X605282Y369062D03*
D103*
X556260Y369316D03*
D70*
X580771Y369316D03*
D103*
X605536Y369316D03*
D101*
X556006Y369570D03*
D72*
X580898Y369570D03*
D101*
X605790Y369570D03*
D98*
X555879Y369824D03*
D77*
X580898Y369824D03*
D98*
X605917Y369824D03*
D93*
X555625Y370078D03*
D80*
X580898Y370078D03*
D93*
X606171Y370078D03*
D90*
X555498Y370332D03*
D85*
X581025Y370332D03*
D90*
X606298Y370332D03*
D87*
X555371Y370586D03*
D89*
X581025Y370586D03*
D87*
X606425Y370586D03*
D83*
X555117Y370840D03*
D95*
X580898Y370840D03*
D83*
X606679Y370840D03*
D80*
X554990Y371094D03*
D99*
X580898Y371094D03*
D80*
X606806Y371094D03*
D76*
X554863Y371348D03*
D104*
X581025Y371348D03*
D76*
X606933Y371348D03*
D74*
X554736Y371602D03*
D109*
X580898Y371602D03*
D73*
X607187Y371602D03*
D69*
X554482Y371856D03*
D113*
X580898Y371856D03*
D69*
X607314Y371856D03*
D70*
X554101Y372110D03*
D118*
X581025Y372110D03*
D70*
X607695Y372110D03*
X553593Y372364D03*
D122*
X580898Y372364D03*
D68*
X608330Y372364D03*
D67*
X553085Y372618D03*
D123*
X580898Y372618D03*
D67*
X608711Y372618D03*
D66*
X552704Y372872D03*
D124*
X581025Y372872D03*
D66*
X609092Y372872D03*
D65*
X552323Y373126D03*
D125*
X580898Y373126D03*
D63*
X609600Y373126D03*
X551688Y373380D03*
D126*
X580898Y373380D03*
D63*
X610108Y373380D03*
D64*
X551307Y373634D03*
D127*
X581025Y373634D03*
D64*
X610489Y373634D03*
D62*
X550926Y373888D03*
D128*
X580898Y373888D03*
D61*
X610997Y373888D03*
D60*
X550418Y374142D03*
D129*
X580898Y374142D03*
D60*
X611378Y374142D03*
D59*
X550037Y374396D03*
D130*
X580898Y374396D03*
D60*
X611886Y374396D03*
D59*
X549529Y374650D03*
D131*
X581025Y374650D03*
D59*
X612267Y374650D03*
D58*
X549148Y374904D03*
D132*
X580898Y374904D03*
D57*
X612775Y374904D03*
D56*
X548640Y375158D03*
D133*
X580898Y375158D03*
D56*
X613156Y375158D03*
D55*
X548259Y375412D03*
D134*
X581025Y375412D03*
D55*
X613537Y375412D03*
D53*
X547878Y375666D03*
D135*
X580898Y375666D03*
D53*
X614172Y375666D03*
D52*
X547370Y375920D03*
D136*
X580898Y375920D03*
D94*
X614553Y375920D03*
D52*
X546862Y376174D03*
D137*
X581025Y376174D03*
D52*
X614934Y376174D03*
D51*
X546481Y376428D03*
D138*
X580898Y376428D03*
D50*
X615442Y376428D03*
D48*
X546100Y376682D03*
D139*
X580898Y376682D03*
D49*
X615823Y376682D03*
D46*
X545973Y376936D03*
D140*
X580898Y376936D03*
D47*
X615950Y376936D03*
D54*
X545973Y377190D03*
D141*
X580898Y377190D03*
D42*
X615950Y377190D03*
D38*
X546100Y377444D03*
D142*
X580898Y377444D03*
D38*
X615950Y377444D03*
D33*
X545973Y377698D03*
D143*
X580898Y377698D03*
D33*
X615823Y377698D03*
D28*
X546100Y377952D03*
D73*
X561721Y377952D03*
D144*
X590423Y377952D03*
D28*
X615696Y377952D03*
D23*
X546100Y378206D03*
D72*
X561086Y378206D03*
D75*
X581025Y378206D03*
D74*
X600456Y378206D03*
D23*
X615696Y378206D03*
D20*
X546227Y378460D03*
D72*
X560578Y378460D03*
D74*
X580898Y378460D03*
D73*
X601091Y378460D03*
D20*
X615569Y378460D03*
D145*
X546354Y378714D03*
D71*
X559943Y378714D03*
D74*
X580898Y378714D03*
D73*
X601853Y378714D03*
D145*
X615442Y378714D03*
D10*
X546608Y378968D03*
D72*
X559308Y378968D03*
D74*
X580898Y378968D03*
D72*
X602488Y378968D03*
D10*
X615442Y378968D03*
D71*
X558673Y379222D03*
D74*
X580898Y379222D03*
D72*
X602996Y379222D03*
D71*
X558165Y379476D03*
D74*
X580898Y379476D03*
D71*
X603631Y379476D03*
X557403Y379730D03*
D74*
X580898Y379730D03*
D71*
X604393Y379730D03*
D69*
X556768Y379984D03*
D74*
X580898Y379984D03*
D69*
X605028Y379984D03*
D70*
X556133Y380238D03*
D74*
X580898Y380238D03*
D69*
X605536Y380238D03*
D70*
X555371Y380492D03*
D73*
X581025Y380492D03*
D69*
X606298Y380492D03*
D70*
X554863Y380746D03*
D73*
X581025Y380746D03*
D70*
X606933Y380746D03*
D68*
X554228Y381000D03*
D11*
X567309Y381000D03*
D73*
X581025Y381000D03*
D11*
X594741Y381000D03*
D68*
X607568Y381000D03*
D67*
X553593Y381254D03*
D12*
X567309Y381254D03*
D73*
X581025Y381254D03*
D10*
X594614Y381254D03*
D68*
X608076Y381254D03*
X552958Y381508D03*
D12*
X567309Y381508D03*
D73*
X581025Y381508D03*
D12*
X594487Y381508D03*
D68*
X608838Y381508D03*
D67*
X552323Y381762D03*
D12*
X567309Y381762D03*
D73*
X581025Y381762D03*
D12*
X594487Y381762D03*
D67*
X609473Y381762D03*
D66*
X551688Y382016D03*
D12*
X567309Y382016D03*
D73*
X581025Y382016D03*
D12*
X594487Y382016D03*
D67*
X609981Y382016D03*
D66*
X550926Y382270D03*
D14*
X567436Y382270D03*
D73*
X581025Y382270D03*
D12*
X594487Y382270D03*
D67*
X610743Y382270D03*
D66*
X550418Y382524D03*
D14*
X567436Y382524D03*
D73*
X581025Y382524D03*
D14*
X594614Y382524D03*
D66*
X611378Y382524D03*
D65*
X549783Y382778D03*
D14*
X567436Y382778D03*
D73*
X581025Y382778D03*
D14*
X594614Y382778D03*
D66*
X611886Y382778D03*
D65*
X549021Y383032D03*
D14*
X567436Y383032D03*
D73*
X581025Y383032D03*
D14*
X594614Y383032D03*
D66*
X612648Y383032D03*
D65*
X548513Y383286D03*
D14*
X567436Y383286D03*
D73*
X581025Y383286D03*
D13*
X594487Y383286D03*
D66*
X613156Y383286D03*
D63*
X547878Y383540D03*
D14*
X567436Y383540D03*
D73*
X581025Y383540D03*
D13*
X594487Y383540D03*
D65*
X613791Y383540D03*
D63*
X547370Y383794D03*
D14*
X567436Y383794D03*
D73*
X581025Y383794D03*
D14*
X594614Y383794D03*
D65*
X614299Y383794D03*
D63*
X546862Y384048D03*
D14*
X557784Y384048D03*
X567436Y384048D03*
D73*
X581025Y384048D03*
D14*
X594614Y384048D03*
D63*
X614934Y384048D03*
D65*
X546735Y384302D03*
D16*
X557403Y384302D03*
D14*
X567436Y384302D03*
D73*
X581025Y384302D03*
D14*
X594614Y384302D03*
D65*
X615315Y384302D03*
X546481Y384556D03*
D17*
X557149Y384556D03*
D14*
X567436Y384556D03*
D73*
X581025Y384556D03*
D14*
X594614Y384556D03*
D65*
X615569Y384556D03*
D66*
X546354Y384810D03*
D18*
X557022Y384810D03*
D14*
X567436Y384810D03*
D73*
X581025Y384810D03*
D14*
X594614Y384810D03*
D66*
X615696Y384810D03*
X546100Y385064D03*
D146*
X556895Y385064D03*
D14*
X567436Y385064D03*
D73*
X581025Y385064D03*
D14*
X594614Y385064D03*
D67*
X615823Y385064D03*
X545973Y385318D03*
D146*
X556895Y385318D03*
D14*
X567436Y385318D03*
D73*
X581025Y385318D03*
D12*
X594487Y385318D03*
D67*
X615823Y385318D03*
X545973Y385572D03*
D19*
X556768Y385572D03*
D12*
X567563Y385572D03*
D73*
X581025Y385572D03*
D12*
X594487Y385572D03*
D67*
X616077Y385572D03*
D68*
X545846Y385826D03*
D19*
X556768Y385826D03*
D12*
X567563Y385826D03*
D73*
X581025Y385826D03*
D12*
X594487Y385826D03*
D67*
X616077Y385826D03*
X545719Y386080D03*
D19*
X556768Y386080D03*
D12*
X567563Y386080D03*
D73*
X581025Y386080D03*
D10*
X594614Y386080D03*
D67*
X616077Y386080D03*
D68*
X545592Y386334D03*
D20*
X556641Y386334D03*
D11*
X567563Y386334D03*
D74*
X580898Y386334D03*
D10*
X594614Y386334D03*
D68*
X616204Y386334D03*
X545592Y386588D03*
D20*
X556641Y386588D03*
D78*
X580898Y386588D03*
D67*
X616331Y386588D03*
D70*
X545465Y386842D03*
D20*
X556641Y386842D03*
D82*
X580898Y386842D03*
D68*
X616458Y386842D03*
X545338Y387096D03*
D20*
X556641Y387096D03*
D88*
X580898Y387096D03*
D68*
X616458Y387096D03*
X545338Y387350D03*
D147*
X556514Y387350D03*
D92*
X580898Y387350D03*
D68*
X616458Y387350D03*
D70*
X545211Y387604D03*
D147*
X556514Y387604D03*
D98*
X581025Y387604D03*
D70*
X616585Y387604D03*
X545211Y387858D03*
D147*
X556514Y387858D03*
D103*
X580898Y387858D03*
D68*
X616712Y387858D03*
X545084Y388112D03*
D147*
X556514Y388112D03*
D108*
X581025Y388112D03*
D70*
X616839Y388112D03*
X544957Y388366D03*
D147*
X556514Y388366D03*
D113*
X580898Y388366D03*
D70*
X616839Y388366D03*
X544957Y388620D03*
D21*
X556387Y388620D03*
D117*
X580898Y388620D03*
D70*
X616839Y388620D03*
D25*
X538988Y388874D03*
D54*
X548259Y388874D03*
D21*
X556387Y388874D03*
D122*
X580898Y388874D03*
D44*
X613537Y388874D03*
D26*
X622935Y388874D03*
D19*
X537972Y389128D03*
D54*
X548259Y389128D03*
D20*
X556133Y389128D03*
D123*
X580898Y389128D03*
D43*
X613664Y389128D03*
D20*
X623951Y389128D03*
D14*
X536956Y389382D03*
D43*
X548132Y389382D03*
D17*
X555625Y389382D03*
D124*
X581025Y389382D03*
D44*
X613791Y389382D03*
D15*
X624840Y389382D03*
D44*
X548005Y389636D03*
D14*
X554990Y389636D03*
D125*
X580898Y389636D03*
D45*
X613918Y389636D03*
X547624Y389890D03*
D148*
X581025Y389890D03*
D45*
X614172Y389890D03*
D46*
X547497Y390144D03*
D149*
X580898Y390144D03*
D46*
X614299Y390144D03*
X547243Y390398D03*
D128*
X580898Y390398D03*
D46*
X614553Y390398D03*
D54*
X546481Y390652D03*
D150*
X580898Y390652D03*
D45*
X615188Y390652D03*
D54*
X546227Y390906D03*
D151*
X580898Y390906D03*
D43*
X615696Y390906D03*
D44*
X545973Y391160D03*
D152*
X580898Y391160D03*
D43*
X615950Y391160D03*
D45*
X545846Y391414D03*
D153*
X580898Y391414D03*
D44*
X616077Y391414D03*
D46*
X545719Y391668D03*
D154*
X581025Y391668D03*
D46*
X616331Y391668D03*
D48*
X545592Y391922D03*
D155*
X580898Y391922D03*
D156*
X616331Y391922D03*
D50*
X545592Y392176D03*
D157*
X580898Y392176D03*
D49*
X616331Y392176D03*
D51*
X545465Y392430D03*
D158*
X580898Y392430D03*
D51*
X616331Y392430D03*
D94*
X545465Y392684D03*
D159*
X580898Y392684D03*
D94*
X616585Y392684D03*
D55*
X545465Y392938D03*
D139*
X580898Y392938D03*
D53*
X616458Y392938D03*
D55*
X545719Y393192D03*
D140*
X580898Y393192D03*
D53*
X616204Y393192D03*
D94*
X545973Y393446D03*
D141*
X580898Y393446D03*
D94*
X615823Y393446D03*
X546227Y393700D03*
D160*
X580771Y393700D03*
D94*
X615569Y393700D03*
D161*
X574294Y393954D03*
D52*
X615188Y393954D03*
D162*
X581025Y394208D03*
D163*
X580898Y394462D03*
D164*
X580898Y394716D03*
D11*
X627253Y394716D03*
D165*
X580898Y394970D03*
D12*
X626999Y394970D03*
D11*
X535051Y395224D03*
D166*
X581025Y395224D03*
D14*
X626872Y395224D03*
X535178Y395478D03*
D167*
X580898Y395478D03*
D15*
X626618Y395478D03*
X535432Y395732D03*
D168*
X580898Y395732D03*
D16*
X626491Y395732D03*
X535559Y395986D03*
D169*
X580898Y395986D03*
D145*
X626364Y395986D03*
D17*
X535813Y396240D03*
D170*
X581025Y396240D03*
D17*
X626237Y396240D03*
D18*
X535940Y396494D03*
D171*
X580898Y396494D03*
D18*
X626110Y396494D03*
X535940Y396748D03*
D172*
X541782Y396748D03*
D173*
X580898Y396748D03*
D11*
X620141Y396748D03*
D146*
X625983Y396748D03*
D18*
X535940Y397002D03*
D14*
X542036Y397002D03*
D174*
X580898Y397002D03*
D13*
X619887Y397002D03*
D19*
X626110Y397002D03*
D17*
X535813Y397256D03*
D15*
X542036Y397256D03*
D175*
X580898Y397256D03*
D145*
X619760Y397256D03*
D146*
X626237Y397256D03*
D17*
X535813Y397510D03*
X542163Y397510D03*
D176*
X580898Y397510D03*
D18*
X619760Y397510D03*
D146*
X626237Y397510D03*
D145*
X535686Y397764D03*
D19*
X542290Y397764D03*
D161*
X580898Y397764D03*
D19*
X619506Y397764D03*
D18*
X626364Y397764D03*
D17*
X535559Y398018D03*
D147*
X542544Y398018D03*
D177*
X580898Y398018D03*
D21*
X619379Y398018D03*
D18*
X626364Y398018D03*
D145*
X535432Y398272D03*
D22*
X542544Y398272D03*
D178*
X580898Y398272D03*
D179*
X619379Y398272D03*
D17*
X626491Y398272D03*
D145*
X535432Y398526D03*
D24*
X542671Y398526D03*
D180*
X581025Y398526D03*
D24*
X619125Y398526D03*
D145*
X626618Y398526D03*
D16*
X535305Y398780D03*
D27*
X542798Y398780D03*
D181*
X580898Y398780D03*
D26*
X619125Y398780D03*
D145*
X626618Y398780D03*
D15*
X535178Y399034D03*
D182*
X542925Y399034D03*
D183*
X580898Y399034D03*
D182*
X619125Y399034D03*
D16*
X626745Y399034D03*
D15*
X535178Y399288D03*
D29*
X542925Y399288D03*
D184*
X581025Y399288D03*
D29*
X618871Y399288D03*
D15*
X626872Y399288D03*
D13*
X535051Y399542D03*
D30*
X542798Y399542D03*
D185*
X581025Y399542D03*
D30*
X618998Y399542D03*
D15*
X626872Y399542D03*
D14*
X534924Y399796D03*
D29*
X542671Y399796D03*
D180*
X581025Y399796D03*
D29*
X619125Y399796D03*
D13*
X626999Y399796D03*
D14*
X534924Y400050D03*
D29*
X542417Y400050D03*
D186*
X581025Y400050D03*
D29*
X619379Y400050D03*
D14*
X627126Y400050D03*
D12*
X534797Y400304D03*
D29*
X542163Y400304D03*
D187*
X581025Y400304D03*
D29*
X619633Y400304D03*
D14*
X627126Y400304D03*
D10*
X534670Y400558D03*
D28*
X542036Y400558D03*
D188*
X581025Y400558D03*
D182*
X619887Y400558D03*
D12*
X627253Y400558D03*
D10*
X534670Y400812D03*
D28*
X541782Y400812D03*
D189*
X580898Y400812D03*
D182*
X620141Y400812D03*
D10*
X627380Y400812D03*
D11*
X534543Y401066D03*
D182*
X541655Y401066D03*
D161*
X580898Y401066D03*
D182*
X620395Y401066D03*
D10*
X627380Y401066D03*
D172*
X534416Y401320D03*
D182*
X541401Y401320D03*
D190*
X580898Y401320D03*
D27*
X620522Y401320D03*
D11*
X627507Y401320D03*
D27*
X541020Y401574D03*
D176*
X580898Y401574D03*
D27*
X620776Y401574D03*
D172*
X627634Y401574D03*
D26*
X540893Y401828D03*
D191*
X581025Y401828D03*
D27*
X621030Y401828D03*
D172*
X627634Y401828D03*
D26*
X540639Y402082D03*
D174*
X580898Y402082D03*
D25*
X621284Y402082D03*
D26*
X540385Y402336D03*
D192*
X580898Y402336D03*
D25*
X621538Y402336D03*
X540258Y402590D03*
D173*
X580898Y402590D03*
D25*
X621792Y402590D03*
D24*
X539877Y402844D03*
D193*
X580898Y402844D03*
D24*
X621919Y402844D03*
X539623Y403098D03*
D194*
X581025Y403098D03*
D24*
X622173Y403098D03*
D23*
X539496Y403352D03*
D170*
X581025Y403352D03*
D179*
X622427Y403352D03*
D23*
X539242Y403606D03*
D169*
X580898Y403606D03*
D179*
X622681Y403606D03*
X538861Y403860D03*
D195*
X580898Y403860D03*
D179*
X622935Y403860D03*
D22*
X538734Y404114D03*
D168*
X580898Y404114D03*
D22*
X623062Y404114D03*
X538480Y404368D03*
D196*
X581025Y404368D03*
D22*
X623316Y404368D03*
X538226Y404622D03*
D197*
X580898Y404622D03*
D21*
X623697Y404622D03*
X538099Y404876D03*
D198*
X580898Y404876D03*
D147*
X623824Y404876D03*
X537718Y405130D03*
D165*
X580898Y405130D03*
D147*
X624078Y405130D03*
D20*
X537591Y405384D03*
D199*
X580898Y405384D03*
D147*
X624332Y405384D03*
D20*
X537337Y405638D03*
D200*
X581025Y405638D03*
D20*
X624459Y405638D03*
X537083Y405892D03*
D163*
X580898Y405892D03*
D19*
X624840Y405892D03*
D146*
X536829Y406146D03*
D201*
X580898Y406146D03*
D19*
X625094Y406146D03*
D146*
X536575Y406400D03*
D202*
X571500Y406400D03*
D72*
X612394Y406400D03*
D146*
X625221Y406400D03*
X536321Y406654D03*
D203*
X570865Y406654D03*
D72*
X612648Y406654D03*
D146*
X625475Y406654D03*
D18*
X536194Y406908D03*
D74*
X548894Y406908D03*
D204*
X581025Y406908D03*
D71*
X613283Y406908D03*
D17*
X625729Y406908D03*
X535813Y407162D03*
D69*
X548132Y407162D03*
D205*
X581152Y407162D03*
D70*
X613791Y407162D03*
D17*
X625983Y407162D03*
X535559Y407416D03*
D68*
X547624Y407416D03*
D148*
X581025Y407416D03*
D67*
X614299Y407416D03*
D17*
X626237Y407416D03*
D145*
X535432Y407670D03*
D65*
X546989Y407670D03*
D206*
X581025Y407670D03*
D65*
X614807Y407670D03*
D145*
X626364Y407670D03*
X535178Y407924D03*
D64*
X546481Y407924D03*
D207*
X581025Y407924D03*
D64*
X615569Y407924D03*
D16*
X626745Y407924D03*
X535051Y408178D03*
D62*
X545846Y408178D03*
D120*
X581025Y408178D03*
D61*
X616077Y408178D03*
D16*
X626999Y408178D03*
D15*
X534670Y408432D03*
D60*
X545338Y408432D03*
D93*
X580517Y408432D03*
D59*
X616585Y408432D03*
D15*
X627126Y408432D03*
X534416Y408686D03*
D58*
X544830Y408686D03*
D57*
X617093Y408686D03*
D15*
X627380Y408686D03*
D13*
X534289Y408940D03*
D55*
X544195Y408940D03*
X617601Y408940D03*
D15*
X627634Y408940D03*
D13*
X534035Y409194D03*
D53*
X543560Y409194D03*
X618236Y409194D03*
D14*
X627888Y409194D03*
X533654Y409448D03*
D52*
X543052Y409448D03*
X618744Y409448D03*
D14*
X628142Y409448D03*
D12*
X533527Y409702D03*
D50*
X542544Y409702D03*
X619252Y409702D03*
D12*
X628269Y409702D03*
X533273Y409956D03*
D48*
X542036Y409956D03*
X619760Y409956D03*
D12*
X628523Y409956D03*
D11*
X533019Y410210D03*
D47*
X541528Y410210D03*
X620268Y410210D03*
D10*
X628904Y410210D03*
D11*
X532765Y410464D03*
D46*
X540893Y410464D03*
X620903Y410464D03*
D11*
X629031Y410464D03*
X532511Y410718D03*
D44*
X540385Y410718D03*
X621411Y410718D03*
D11*
X629285Y410718D03*
D54*
X539877Y410972D03*
X621919Y410972D03*
D41*
X539369Y411226D03*
X622427Y411226D03*
D39*
X538861Y411480D03*
X622935Y411480D03*
D38*
X538226Y411734D03*
X623570Y411734D03*
D37*
X537718Y411988D03*
X624078Y411988D03*
D35*
X537210Y412242D03*
X624586Y412242D03*
D32*
X536702Y412496D03*
D31*
X625221Y412496D03*
D30*
X536194Y412750D03*
D29*
X625729Y412750D03*
X535559Y413004D03*
D28*
X626364Y413004D03*
D27*
X534924Y413258D03*
X626872Y413258D03*
D25*
X534416Y413512D03*
X627380Y413512D03*
D23*
X533908Y413766D03*
X627888Y413766D03*
D22*
X533400Y414020D03*
X628396Y414020D03*
D20*
X532765Y414274D03*
D147*
X628904Y414274D03*
D18*
X532384Y414528D03*
X629412Y414528D03*
D14*
X531876Y414782D03*
D13*
X629793Y414782D03*
D53*
X184404Y352044D03*
D57*
X184277Y352298D03*
D58*
X184404Y352552D03*
X184404Y352806D03*
X184404Y353060D03*
X184404Y353314D03*
X184404Y353568D03*
X184404Y353822D03*
D57*
X184277Y354076D03*
D55*
X184277Y354330D03*
D43*
X184658Y354584D03*
D39*
X184785Y354838D03*
D35*
X184912Y355092D03*
D32*
X184912Y355346D03*
D30*
X184912Y355600D03*
D28*
X184912Y355854D03*
D182*
X185039Y356108D03*
D27*
X184912Y356362D03*
X184912Y356616D03*
D26*
X185039Y356870D03*
X185039Y357124D03*
X185039Y357378D03*
X185039Y357632D03*
D25*
X184912Y357886D03*
X184912Y358140D03*
X184912Y358394D03*
X184912Y358648D03*
X184912Y358902D03*
X184912Y359156D03*
X184912Y359410D03*
X184912Y359664D03*
X184912Y359918D03*
X184912Y360172D03*
X184912Y360426D03*
X184912Y360680D03*
X184912Y360934D03*
X184912Y361188D03*
X184912Y361442D03*
X184912Y361696D03*
X184912Y361950D03*
X184912Y362204D03*
X184912Y362458D03*
X184912Y362712D03*
X184912Y362966D03*
X184912Y363220D03*
X184912Y363474D03*
X184912Y363728D03*
X184912Y363982D03*
X184912Y364236D03*
X184912Y364490D03*
X184912Y364744D03*
X184912Y364998D03*
D22*
X201676Y365252D03*
D25*
X184912Y365252D03*
D147*
X176530Y365252D03*
D179*
X148463Y365252D03*
D29*
X201803Y365506D03*
D25*
X184912Y365506D03*
D28*
X176530Y365506D03*
D31*
X148463Y365506D03*
D70*
X255905Y365760D03*
D47*
X237490Y365760D03*
D156*
X221361Y365760D03*
D13*
X210947Y365760D03*
D37*
X201930Y365760D03*
D25*
X184912Y365760D03*
D35*
X176530Y365760D03*
D38*
X148336Y365760D03*
D56*
X126746Y365760D03*
D71*
X255905Y366014D03*
D48*
X237490Y366014D03*
D49*
X221361Y366014D03*
D17*
X210693Y366014D03*
D42*
X201930Y366014D03*
D25*
X184912Y366014D03*
D39*
X176403Y366014D03*
D43*
X148336Y366014D03*
D58*
X126746Y366014D03*
D72*
X255778Y366268D03*
D50*
X237490Y366268D03*
D49*
X221361Y366268D03*
D146*
X210439Y366268D03*
D156*
X202311Y366268D03*
D25*
X184912Y366268D03*
D54*
X176403Y366268D03*
D156*
X148463Y366268D03*
D58*
X126746Y366268D03*
D72*
X255778Y366522D03*
D50*
X237490Y366522D03*
D49*
X221361Y366522D03*
D63*
X203962Y366522D03*
D25*
X184912Y366522D03*
D46*
X176403Y366522D03*
D51*
X148463Y366522D03*
D58*
X126746Y366522D03*
D72*
X255778Y366776D03*
D50*
X237490Y366776D03*
D49*
X221361Y366776D03*
D65*
X203835Y366776D03*
D70*
X178943Y366776D03*
D53*
X148336Y366776D03*
D58*
X126746Y366776D03*
D72*
X255778Y367030D03*
D50*
X237490Y367030D03*
D49*
X221361Y367030D03*
D67*
X203581Y367030D03*
D69*
X178816Y367030D03*
D57*
X148463Y367030D03*
D58*
X126746Y367030D03*
D72*
X255778Y367284D03*
D50*
X237490Y367284D03*
D49*
X221361Y367284D03*
D68*
X203454Y367284D03*
D72*
X178562Y367284D03*
D60*
X148336Y367284D03*
D58*
X126746Y367284D03*
D71*
X255905Y367538D03*
D50*
X237490Y367538D03*
D49*
X221361Y367538D03*
D38*
X207518Y367538D03*
D26*
X197485Y367538D03*
D39*
X183007Y367538D03*
D28*
X172466Y367538D03*
D64*
X148463Y367538D03*
D58*
X126746Y367538D03*
D71*
X255905Y367792D03*
D48*
X237490Y367792D03*
X221488Y367792D03*
D35*
X208026Y367792D03*
D24*
X196977Y367792D03*
D36*
X183515Y367792D03*
D27*
X171958Y367792D03*
D65*
X148463Y367792D03*
D58*
X126746Y367792D03*
D67*
X255905Y368046D03*
D45*
X237490Y368046D03*
D46*
X221361Y368046D03*
D32*
X208280Y368046D03*
D179*
X196469Y368046D03*
D33*
X183769Y368046D03*
D27*
X171450Y368046D03*
D68*
X583184Y375666D03*
D51*
X126873Y368046D03*
D156*
X255905Y368300D03*
D37*
X237490Y368300D03*
X221488Y368300D03*
D30*
X208534Y368300D03*
D179*
X196215Y368300D03*
D31*
X184023Y368300D03*
D26*
X171069Y368300D03*
D69*
X148336Y368300D03*
D39*
X127127Y368300D03*
D54*
X255905Y368554D03*
D32*
X237490Y368554D03*
D33*
X221361Y368554D03*
D28*
X208788Y368554D03*
D22*
X195834Y368554D03*
D30*
X184150Y368554D03*
D25*
X170688Y368554D03*
D72*
X148336Y368554D03*
D35*
X127254Y368554D03*
D39*
X255905Y368808D03*
D30*
X237490Y368808D03*
D31*
X221361Y368808D03*
D182*
X208915Y368808D03*
D21*
X195707Y368808D03*
D29*
X184277Y368808D03*
D25*
X170434Y368808D03*
D74*
X148336Y368808D03*
D32*
X127254Y368808D03*
D36*
X255905Y369062D03*
D29*
X237617Y369062D03*
X221361Y369062D03*
D26*
X209169Y369062D03*
D21*
X195453Y369062D03*
D28*
X184404Y369062D03*
D25*
X170180Y369062D03*
D77*
X148336Y369062D03*
D30*
X127254Y369062D03*
D33*
X255905Y369316D03*
D28*
X237490Y369316D03*
X221488Y369316D03*
D25*
X209296Y369316D03*
D22*
X195326Y369316D03*
D182*
X184531Y369316D03*
D24*
X170053Y369316D03*
D43*
X152908Y369316D03*
D29*
X141859Y369316D03*
D28*
X127254Y369316D03*
D31*
X255905Y369570D03*
D182*
X237617Y369570D03*
X221361Y369570D03*
D24*
X209423Y369570D03*
D21*
X195199Y369570D03*
D182*
X184531Y369570D03*
D24*
X169799Y369570D03*
D39*
X153543Y369570D03*
D25*
X141224Y369570D03*
D182*
X127381Y369570D03*
D31*
X255905Y369824D03*
D27*
X237490Y369824D03*
X221488Y369824D03*
D23*
X209550Y369824D03*
D21*
X194945Y369824D03*
D27*
X184658Y369824D03*
D24*
X169545Y369824D03*
D34*
X154051Y369824D03*
D23*
X140716Y369824D03*
D27*
X127254Y369824D03*
D29*
X255905Y370078D03*
D27*
X237490Y370078D03*
D26*
X221361Y370078D03*
D179*
X209677Y370078D03*
D21*
X194945Y370078D03*
D26*
X184785Y370078D03*
D24*
X169291Y370078D03*
D37*
X154432Y370078D03*
D179*
X140335Y370078D03*
D26*
X127381Y370078D03*
D29*
X255905Y370332D03*
D26*
X237617Y370332D03*
X221361Y370332D03*
D179*
X209677Y370332D03*
D21*
X194691Y370332D03*
D26*
X184785Y370332D03*
D23*
X169164Y370332D03*
D35*
X154686Y370332D03*
D22*
X139954Y370332D03*
D26*
X127381Y370332D03*
D28*
X255778Y370586D03*
D26*
X237617Y370586D03*
X221361Y370586D03*
D22*
X209804Y370586D03*
D21*
X194691Y370586D03*
D26*
X184785Y370586D03*
D24*
X169037Y370586D03*
D35*
X154940Y370586D03*
D21*
X139573Y370586D03*
D26*
X127381Y370586D03*
D182*
X255905Y370840D03*
D25*
X237490Y370840D03*
D26*
X221361Y370840D03*
D21*
X209931Y370840D03*
X194691Y370840D03*
D25*
X184912Y370840D03*
D24*
X168783Y370840D03*
D33*
X155321Y370840D03*
D147*
X139446Y370840D03*
D26*
X127381Y370840D03*
D182*
X255905Y371094D03*
D25*
X237490Y371094D03*
X221488Y371094D03*
D21*
X209931Y371094D03*
D22*
X194564Y371094D03*
D25*
X184912Y371094D03*
D23*
X168656Y371094D03*
D32*
X155448Y371094D03*
D147*
X139192Y371094D03*
D26*
X127381Y371094D03*
D182*
X255905Y371348D03*
D25*
X237490Y371348D03*
X221488Y371348D03*
D147*
X210058Y371348D03*
D22*
X194564Y371348D03*
D25*
X184912Y371348D03*
D24*
X562991Y378968D03*
D32*
X155702Y371348D03*
D20*
X138811Y371348D03*
D26*
X127381Y371348D03*
D182*
X255905Y371602D03*
D25*
X237490Y371602D03*
X221488Y371602D03*
D20*
X210185Y371602D03*
D22*
X194564Y371602D03*
D25*
X184912Y371602D03*
D23*
X168402Y371602D03*
D31*
X155829Y371602D03*
D19*
X138684Y371602D03*
D25*
X127254Y371602D03*
D182*
X255905Y371856D03*
D25*
X237490Y371856D03*
X221488Y371856D03*
D20*
X210185Y371856D03*
D22*
X194564Y371856D03*
D25*
X184912Y371856D03*
D24*
X168275Y371856D03*
D31*
X156083Y371856D03*
D19*
X138430Y371856D03*
D25*
X127254Y371856D03*
D182*
X255905Y372110D03*
D25*
X237490Y372110D03*
X221488Y372110D03*
D19*
X210312Y372110D03*
D22*
X194564Y372110D03*
D25*
X184912Y372110D03*
D23*
X168148Y372110D03*
D30*
X156210Y372110D03*
D19*
X138176Y372110D03*
D25*
X127254Y372110D03*
D182*
X255905Y372364D03*
D25*
X237490Y372364D03*
X221488Y372364D03*
D19*
X210312Y372364D03*
D179*
X194437Y372364D03*
D25*
X184912Y372364D03*
D24*
X168021Y372364D03*
D29*
X156337Y372364D03*
D146*
X138049Y372364D03*
D25*
X127254Y372364D03*
D182*
X255905Y372618D03*
D25*
X237490Y372618D03*
X221488Y372618D03*
D19*
X210312Y372618D03*
D179*
X194437Y372618D03*
D25*
X184912Y372618D03*
D24*
X168021Y372618D03*
D30*
X156464Y372618D03*
D146*
X137795Y372618D03*
D25*
X127254Y372618D03*
D182*
X255905Y372872D03*
D25*
X237490Y372872D03*
X221488Y372872D03*
D146*
X210439Y372872D03*
D179*
X194437Y372872D03*
D25*
X184912Y372872D03*
D24*
X167767Y372872D03*
D29*
X574929Y380492D03*
D146*
X137795Y372872D03*
D25*
X127254Y372872D03*
D182*
X255905Y373126D03*
D25*
X237490Y373126D03*
X221488Y373126D03*
D146*
X210439Y373126D03*
D179*
X194437Y373126D03*
D25*
X184912Y373126D03*
D24*
X167767Y373126D03*
D29*
X156845Y373126D03*
D146*
X137541Y373126D03*
D25*
X127254Y373126D03*
D182*
X255905Y373380D03*
D25*
X237490Y373380D03*
X221488Y373380D03*
D146*
X210439Y373380D03*
D23*
X194564Y373380D03*
D25*
X184912Y373380D03*
X167640Y373380D03*
D29*
X156845Y373380D03*
D17*
X137541Y373380D03*
D25*
X127254Y373380D03*
D182*
X255905Y373634D03*
D25*
X237490Y373634D03*
X221488Y373634D03*
D18*
X210566Y373634D03*
D23*
X194564Y373634D03*
D25*
X184912Y373634D03*
D24*
X167513Y373634D03*
D28*
X156972Y373634D03*
D16*
X137541Y373634D03*
D25*
X127254Y373634D03*
D182*
X255905Y373888D03*
D25*
X237490Y373888D03*
X221488Y373888D03*
D18*
X210566Y373888D03*
D24*
X194691Y373888D03*
D25*
X184912Y373888D03*
D24*
X167513Y373888D03*
D28*
X156972Y373888D03*
D14*
X137668Y373888D03*
D25*
X127254Y373888D03*
D182*
X255905Y374142D03*
D25*
X237490Y374142D03*
X221488Y374142D03*
D18*
X210566Y374142D03*
D25*
X194818Y374142D03*
X184912Y374142D03*
X167386Y374142D03*
D28*
X157226Y374142D03*
D10*
X137922Y374142D03*
D25*
X127254Y374142D03*
D182*
X255905Y374396D03*
D25*
X237490Y374396D03*
X221488Y374396D03*
D18*
X210566Y374396D03*
D25*
X194818Y374396D03*
X184912Y374396D03*
D24*
X167259Y374396D03*
D28*
X157226Y374396D03*
D25*
X127254Y374396D03*
D182*
X255905Y374650D03*
D25*
X237490Y374650D03*
X221488Y374650D03*
D145*
X210566Y374650D03*
D27*
X195072Y374650D03*
D25*
X184912Y374650D03*
D24*
X167259Y374650D03*
D182*
X157353Y374650D03*
D25*
X127254Y374650D03*
D182*
X255905Y374904D03*
D25*
X237490Y374904D03*
X221488Y374904D03*
D27*
X195326Y374904D03*
D25*
X184912Y374904D03*
D24*
X167259Y374904D03*
D182*
X157353Y374904D03*
D25*
X127254Y374904D03*
D182*
X255905Y375158D03*
D25*
X237490Y375158D03*
X221488Y375158D03*
D182*
X195453Y375158D03*
D25*
X184912Y375158D03*
X167132Y375158D03*
D28*
X157480Y375158D03*
D25*
X127254Y375158D03*
D182*
X255905Y375412D03*
D25*
X237490Y375412D03*
X221488Y375412D03*
D29*
X195707Y375412D03*
D25*
X184912Y375412D03*
X167132Y375412D03*
D182*
X157607Y375412D03*
D25*
X127254Y375412D03*
D182*
X255905Y375666D03*
D25*
X237490Y375666D03*
X221488Y375666D03*
D31*
X195961Y375666D03*
D25*
X184912Y375666D03*
X167132Y375666D03*
D182*
X157607Y375666D03*
D25*
X127254Y375666D03*
D182*
X255905Y375920D03*
D25*
X237490Y375920D03*
X221488Y375920D03*
D32*
X196342Y375920D03*
D25*
X184912Y375920D03*
X167132Y375920D03*
D182*
X157607Y375920D03*
D25*
X127254Y375920D03*
D182*
X255905Y376174D03*
D25*
X237490Y376174D03*
X221488Y376174D03*
D35*
X196596Y376174D03*
D25*
X184912Y376174D03*
X166878Y376174D03*
D27*
X157734Y376174D03*
D25*
X127254Y376174D03*
D182*
X255905Y376428D03*
D25*
X237490Y376428D03*
X221488Y376428D03*
D34*
X196977Y376428D03*
D25*
X184912Y376428D03*
X166878Y376428D03*
D27*
X157734Y376428D03*
D25*
X127254Y376428D03*
D182*
X255905Y376682D03*
D25*
X237490Y376682D03*
X221488Y376682D03*
D39*
X197485Y376682D03*
D25*
X184912Y376682D03*
X166878Y376682D03*
D182*
X157861Y376682D03*
D25*
X127254Y376682D03*
D182*
X255905Y376936D03*
D25*
X237490Y376936D03*
X221488Y376936D03*
D42*
X197866Y376936D03*
D25*
X184912Y376936D03*
X166878Y376936D03*
D182*
X157861Y376936D03*
D25*
X127254Y376936D03*
D182*
X255905Y377190D03*
D25*
X237490Y377190D03*
X221488Y377190D03*
D43*
X198374Y377190D03*
D25*
X184912Y377190D03*
X166878Y377190D03*
D182*
X157861Y377190D03*
D25*
X127254Y377190D03*
D182*
X255905Y377444D03*
D25*
X237490Y377444D03*
X221488Y377444D03*
D46*
X198755Y377444D03*
D25*
X184912Y377444D03*
X166878Y377444D03*
D27*
X157988Y377444D03*
D25*
X127254Y377444D03*
D182*
X255905Y377698D03*
D25*
X237490Y377698D03*
X221488Y377698D03*
D156*
X199263Y377698D03*
D25*
X184912Y377698D03*
X166878Y377698D03*
D27*
X157988Y377698D03*
D25*
X127254Y377698D03*
D182*
X255905Y377952D03*
D25*
X237490Y377952D03*
X221488Y377952D03*
D49*
X199771Y377952D03*
D25*
X184912Y377952D03*
D26*
X166751Y377952D03*
D27*
X157988Y377952D03*
D25*
X127254Y377952D03*
D182*
X255905Y378206D03*
D25*
X237490Y378206D03*
X221488Y378206D03*
D50*
X200152Y378206D03*
D25*
X184912Y378206D03*
D26*
X564769Y385826D03*
D27*
X157988Y378206D03*
D25*
X127254Y378206D03*
D182*
X255905Y378460D03*
D25*
X237490Y378460D03*
X221488Y378460D03*
D52*
X200660Y378460D03*
D25*
X184912Y378460D03*
D26*
X166751Y378460D03*
D27*
X157988Y378460D03*
D25*
X127254Y378460D03*
D182*
X255905Y378714D03*
D25*
X237490Y378714D03*
X221488Y378714D03*
D94*
X201041Y378714D03*
D25*
X184912Y378714D03*
D26*
X166751Y378714D03*
D27*
X157988Y378714D03*
D25*
X127254Y378714D03*
D182*
X255905Y378968D03*
D25*
X237490Y378968D03*
X221488Y378968D03*
D53*
X201422Y378968D03*
D25*
X184912Y378968D03*
D26*
X166751Y378968D03*
D27*
X157988Y378968D03*
D25*
X127254Y378968D03*
D182*
X255905Y379222D03*
D25*
X237490Y379222D03*
X221488Y379222D03*
D53*
X201676Y379222D03*
D25*
X184912Y379222D03*
D26*
X166751Y379222D03*
D27*
X157988Y379222D03*
D25*
X127254Y379222D03*
D182*
X255905Y379476D03*
D25*
X237490Y379476D03*
X221488Y379476D03*
D53*
X202184Y379476D03*
D25*
X184912Y379476D03*
D26*
X166751Y379476D03*
D27*
X157988Y379476D03*
D25*
X127254Y379476D03*
D182*
X255905Y379730D03*
D25*
X237490Y379730D03*
X221488Y379730D03*
D53*
X202438Y379730D03*
D25*
X184912Y379730D03*
D26*
X166751Y379730D03*
D27*
X157988Y379730D03*
D25*
X127254Y379730D03*
D182*
X255905Y379984D03*
D25*
X237490Y379984D03*
X221488Y379984D03*
D94*
X202819Y379984D03*
D25*
X546608Y387604D03*
D26*
X166751Y379984D03*
D97*
X148844Y379984D03*
D25*
X127254Y379984D03*
D182*
X255905Y380238D03*
D25*
X237490Y380238D03*
X221488Y380238D03*
D94*
X203327Y380238D03*
D25*
X184912Y380238D03*
D26*
X166751Y380238D03*
D98*
X148717Y380238D03*
D25*
X127254Y380238D03*
D182*
X255905Y380492D03*
D25*
X237490Y380492D03*
X221488Y380492D03*
D52*
X203708Y380492D03*
D25*
X184912Y380492D03*
D27*
X166878Y380492D03*
D98*
X148717Y380492D03*
D25*
X127254Y380492D03*
D182*
X255905Y380746D03*
D25*
X237490Y380746D03*
X221488Y380746D03*
D49*
X204089Y380746D03*
D25*
X184912Y380746D03*
D27*
X166878Y380746D03*
D98*
X148717Y380746D03*
D25*
X127254Y380746D03*
D182*
X255905Y381000D03*
D25*
X237490Y381000D03*
X221488Y381000D03*
D48*
X204470Y381000D03*
D25*
X184912Y381000D03*
D27*
X166878Y381000D03*
D97*
X148590Y381000D03*
D25*
X127254Y381000D03*
D182*
X255905Y381254D03*
D25*
X237490Y381254D03*
X221488Y381254D03*
D47*
X204978Y381254D03*
D25*
X184912Y381254D03*
D27*
X166878Y381254D03*
D97*
X148590Y381254D03*
D25*
X127254Y381254D03*
D182*
X255905Y381508D03*
D25*
X237490Y381508D03*
X221488Y381508D03*
D45*
X205486Y381508D03*
D25*
X546608Y389128D03*
D27*
X166878Y381508D03*
D97*
X148590Y381508D03*
D25*
X127254Y381508D03*
D182*
X255905Y381762D03*
D25*
X237490Y381762D03*
X221488Y381762D03*
D54*
X205867Y381762D03*
D25*
X184912Y381762D03*
D26*
X167005Y381762D03*
D97*
X148590Y381762D03*
D26*
X127127Y381762D03*
D182*
X255905Y382016D03*
D25*
X237490Y382016D03*
X221488Y382016D03*
D40*
X206502Y382016D03*
D25*
X184912Y382016D03*
D27*
X167132Y382016D03*
D97*
X148590Y382016D03*
D26*
X127127Y382016D03*
D182*
X255905Y382270D03*
D25*
X237490Y382270D03*
X221488Y382270D03*
D34*
X206883Y382270D03*
D25*
X184912Y382270D03*
D27*
X167132Y382270D03*
D97*
X148590Y382270D03*
D26*
X127127Y382270D03*
D182*
X255905Y382524D03*
D25*
X237490Y382524D03*
X221488Y382524D03*
D35*
X207264Y382524D03*
D25*
X184912Y382524D03*
D27*
X167132Y382524D03*
D95*
X148590Y382524D03*
D26*
X127127Y382524D03*
D182*
X255905Y382778D03*
D25*
X237490Y382778D03*
X221488Y382778D03*
D33*
X207645Y382778D03*
D25*
X184912Y382778D03*
D27*
X167132Y382778D03*
D25*
X157734Y382778D03*
D27*
X139700Y382778D03*
D26*
X127127Y382778D03*
D182*
X255905Y383032D03*
D25*
X237490Y383032D03*
X221488Y383032D03*
D30*
X208026Y383032D03*
D25*
X184912Y383032D03*
D182*
X167259Y383032D03*
D25*
X157734Y383032D03*
D27*
X139700Y383032D03*
X127000Y383032D03*
D182*
X255905Y383286D03*
D25*
X237490Y383286D03*
X221488Y383286D03*
D28*
X208280Y383286D03*
D25*
X184912Y383286D03*
D182*
X167259Y383286D03*
D25*
X157480Y383286D03*
D27*
X139700Y383286D03*
X127000Y383286D03*
D182*
X255905Y383540D03*
D25*
X237490Y383540D03*
X221488Y383540D03*
D182*
X208661Y383540D03*
D25*
X184912Y383540D03*
D182*
X167259Y383540D03*
D25*
X157480Y383540D03*
D27*
X139700Y383540D03*
X127000Y383540D03*
D182*
X255905Y383794D03*
D25*
X237490Y383794D03*
X221488Y383794D03*
D27*
X208788Y383794D03*
D25*
X184912Y383794D03*
D27*
X167386Y383794D03*
D25*
X157480Y383794D03*
D26*
X139827Y383794D03*
D182*
X126873Y383794D03*
D15*
X113792Y383794D03*
D182*
X255905Y384048D03*
D25*
X237490Y384048D03*
X221488Y384048D03*
D26*
X208915Y384048D03*
D25*
X184912Y384048D03*
D182*
X167513Y384048D03*
D25*
X157480Y384048D03*
D26*
X139827Y384048D03*
D182*
X126873Y384048D03*
D18*
X113792Y384048D03*
D182*
X255905Y384302D03*
D25*
X237490Y384302D03*
X221488Y384302D03*
X209042Y384302D03*
X184912Y384302D03*
D182*
X167513Y384302D03*
D24*
X157353Y384302D03*
D26*
X139827Y384302D03*
D28*
X126746Y384302D03*
D20*
X113919Y384302D03*
D182*
X255905Y384556D03*
D25*
X237490Y384556D03*
X221488Y384556D03*
D24*
X209169Y384556D03*
D25*
X184912Y384556D03*
D28*
X167640Y384556D03*
D25*
X157226Y384556D03*
D26*
X139827Y384556D03*
D28*
X126746Y384556D03*
D22*
X113792Y384556D03*
D182*
X255905Y384810D03*
D25*
X237490Y384810D03*
X221488Y384810D03*
D23*
X209296Y384810D03*
D25*
X184912Y384810D03*
D182*
X167767Y384810D03*
D24*
X157099Y384810D03*
D25*
X139954Y384810D03*
D29*
X126619Y384810D03*
D179*
X113919Y384810D03*
D182*
X255905Y385064D03*
D26*
X237363Y385064D03*
D25*
X221488Y385064D03*
D23*
X209296Y385064D03*
D145*
X195326Y385064D03*
D25*
X184912Y385064D03*
D28*
X167894Y385064D03*
D24*
X157099Y385064D03*
D26*
X140081Y385064D03*
D29*
X126619Y385064D03*
D24*
X113919Y385064D03*
D182*
X255905Y385318D03*
D27*
X237236Y385318D03*
D25*
X221488Y385318D03*
D179*
X209423Y385318D03*
D19*
X195326Y385318D03*
D25*
X184912Y385318D03*
D28*
X167894Y385318D03*
D24*
X157099Y385318D03*
D26*
X140081Y385318D03*
D30*
X126492Y385318D03*
D25*
X113792Y385318D03*
D182*
X255905Y385572D03*
X237109Y385572D03*
D26*
X221615Y385572D03*
D179*
X209423Y385572D03*
D147*
X195326Y385572D03*
D25*
X184912Y385572D03*
D29*
X168021Y385572D03*
D24*
X156845Y385572D03*
D25*
X140208Y385572D03*
D30*
X126492Y385572D03*
D26*
X113919Y385572D03*
D182*
X255905Y385826D03*
D28*
X236982Y385826D03*
D26*
X221615Y385826D03*
D179*
X209423Y385826D03*
D22*
X195326Y385826D03*
D25*
X184912Y385826D03*
D28*
X168148Y385826D03*
D24*
X156845Y385826D03*
D25*
X140208Y385826D03*
D31*
X126365Y385826D03*
D26*
X113919Y385826D03*
D182*
X255905Y386080D03*
D30*
X236982Y386080D03*
D26*
X221615Y386080D03*
D22*
X209296Y386080D03*
D23*
X195326Y386080D03*
D26*
X184785Y386080D03*
D29*
X168275Y386080D03*
D24*
X156591Y386080D03*
D25*
X140462Y386080D03*
D24*
X127635Y386080D03*
D16*
X123825Y386080D03*
D27*
X113792Y386080D03*
D182*
X255905Y386334D03*
D31*
X236855Y386334D03*
D27*
X221742Y386334D03*
D22*
X209296Y386334D03*
D25*
X195326Y386334D03*
D27*
X184658Y386334D03*
D30*
X168402Y386334D03*
D23*
X156464Y386334D03*
D25*
X140462Y386334D03*
D24*
X127635Y386334D03*
D16*
X123571Y386334D03*
D27*
X113792Y386334D03*
D182*
X255905Y386588D03*
D32*
X236728Y386588D03*
D27*
X221742Y386588D03*
D22*
X209296Y386588D03*
D25*
X195326Y386588D03*
D28*
X184404Y386588D03*
D30*
X168656Y386588D03*
D23*
X156464Y386588D03*
D26*
X140589Y386588D03*
D24*
X127635Y386588D03*
D16*
X123317Y386588D03*
D27*
X113792Y386588D03*
D182*
X255905Y386842D03*
D33*
X236601Y386842D03*
D182*
X221869Y386842D03*
D22*
X209296Y386842D03*
D26*
X195453Y386842D03*
D29*
X184277Y386842D03*
D31*
X168783Y386842D03*
D23*
X156210Y386842D03*
D25*
X140716Y386842D03*
D24*
X127635Y386842D03*
D145*
X123190Y386842D03*
D182*
X113919Y386842D03*
X255905Y387096D03*
D36*
X236601Y387096D03*
D182*
X221869Y387096D03*
D22*
X209296Y387096D03*
D27*
X195326Y387096D03*
D30*
X184150Y387096D03*
D31*
X169037Y387096D03*
D24*
X156083Y387096D03*
D26*
X140843Y387096D03*
D24*
X127635Y387096D03*
D145*
X122936Y387096D03*
D182*
X113919Y387096D03*
X255905Y387350D03*
D34*
X236347Y387350D03*
D182*
X222123Y387350D03*
D21*
X209169Y387350D03*
D182*
X195453Y387350D03*
D32*
X183896Y387350D03*
X169164Y387350D03*
D23*
X155956Y387350D03*
D25*
X140970Y387350D03*
D24*
X127635Y387350D03*
D145*
X122936Y387350D03*
D182*
X113919Y387350D03*
X255905Y387604D03*
D39*
X236347Y387604D03*
D28*
X222250Y387604D03*
D21*
X209169Y387604D03*
D182*
X195453Y387604D03*
D33*
X183769Y387604D03*
D32*
X169418Y387604D03*
D23*
X155702Y387604D03*
D25*
X141224Y387604D03*
X127762Y387604D03*
D17*
X122555Y387604D03*
D28*
X114046Y387604D03*
D182*
X255905Y387858D03*
D42*
X236220Y387858D03*
D29*
X222377Y387858D03*
D21*
X208915Y387858D03*
D28*
X195580Y387858D03*
D36*
X183515Y387858D03*
D35*
X169672Y387858D03*
D23*
X155448Y387858D03*
D25*
X141224Y387858D03*
X127762Y387858D03*
D17*
X122301Y387858D03*
D29*
X114173Y387858D03*
D182*
X255905Y388112D03*
D44*
X236093Y388112D03*
D31*
X222631Y388112D03*
D21*
X208915Y388112D03*
D28*
X195580Y388112D03*
D34*
X183261Y388112D03*
D35*
X169926Y388112D03*
D23*
X155448Y388112D03*
D25*
X141478Y388112D03*
D26*
X127889Y388112D03*
D18*
X122174Y388112D03*
D29*
X114427Y388112D03*
D182*
X255905Y388366D03*
D31*
X238379Y388366D03*
D179*
X232283Y388366D03*
D32*
X223012Y388366D03*
D21*
X208661Y388366D03*
D28*
X195834Y388366D03*
D40*
X182880Y388366D03*
D34*
X170307Y388366D03*
D23*
X155194Y388366D03*
D25*
X141732Y388366D03*
D27*
X128016Y388366D03*
D146*
X121793Y388366D03*
D30*
X114554Y388366D03*
D182*
X255905Y388620D03*
D33*
X238633Y388620D03*
D60*
X226822Y388620D03*
D21*
X208661Y388620D03*
D29*
X195961Y388620D03*
D85*
X176911Y388620D03*
D23*
X154940Y388620D03*
D26*
X141859Y388620D03*
D28*
X128270Y388620D03*
D48*
X117094Y388620D03*
D182*
X255905Y388874D03*
D37*
X239014Y388874D03*
D58*
X226822Y388874D03*
D21*
X208407Y388874D03*
D29*
X195961Y388874D03*
D84*
X177038Y388874D03*
D23*
X154686Y388874D03*
D26*
X142113Y388874D03*
D31*
X128651Y388874D03*
D156*
X117221Y388874D03*
D182*
X255905Y389128D03*
D34*
X239141Y389128D03*
D57*
X226695Y389128D03*
D22*
X208280Y389128D03*
D29*
X196215Y389128D03*
D25*
X184912Y389128D03*
D61*
X174117Y389128D03*
D24*
X154305Y389128D03*
D26*
X142367Y389128D03*
D36*
X129159Y389128D03*
D47*
X117094Y389128D03*
D182*
X255905Y389382D03*
D38*
X239268Y389382D03*
D53*
X226568Y389382D03*
D179*
X207899Y389382D03*
D30*
X196596Y389382D03*
D25*
X184912Y389382D03*
D59*
X174117Y389382D03*
D24*
X154051Y389382D03*
D27*
X142748Y389382D03*
D38*
X129540Y389382D03*
D45*
X117094Y389382D03*
D182*
X255905Y389636D03*
D38*
X239268Y389636D03*
D52*
X226568Y389636D03*
D179*
X207645Y389636D03*
D31*
X196977Y389636D03*
D25*
X184912Y389636D03*
D56*
X173990Y389636D03*
D25*
X153670Y389636D03*
D182*
X143129Y389636D03*
D39*
X129667Y389636D03*
D44*
X116967Y389636D03*
D182*
X255905Y389890D03*
D38*
X239268Y389890D03*
D51*
X226441Y389890D03*
D23*
X207264Y389890D03*
D33*
X197485Y389890D03*
D25*
X184912Y389890D03*
D53*
X173990Y389890D03*
D26*
X153035Y389890D03*
D28*
X143510Y389890D03*
D39*
X129667Y389890D03*
D54*
X116967Y389890D03*
D182*
X255905Y390144D03*
D38*
X239268Y390144D03*
D49*
X226441Y390144D03*
D61*
X201803Y390144D03*
D25*
X184912Y390144D03*
D52*
X173990Y390144D03*
D60*
X148082Y390144D03*
D39*
X129667Y390144D03*
D41*
X116967Y390144D03*
D182*
X255905Y390398D03*
D38*
X239268Y390398D03*
D156*
X226441Y390398D03*
D57*
X202057Y390398D03*
D25*
X184912Y390398D03*
D49*
X173863Y390398D03*
D57*
X148209Y390398D03*
D39*
X129667Y390398D03*
D40*
X116840Y390398D03*
D182*
X255905Y390652D03*
D34*
X239141Y390652D03*
D45*
X226314Y390652D03*
D53*
X202184Y390652D03*
D25*
X184912Y390652D03*
D156*
X173863Y390652D03*
D53*
X148082Y390652D03*
D39*
X129667Y390652D03*
D38*
X116840Y390652D03*
D182*
X255905Y390906D03*
D34*
X239141Y390906D03*
D43*
X226314Y390906D03*
D50*
X202184Y390906D03*
D25*
X184912Y390906D03*
D44*
X173863Y390906D03*
D50*
X148082Y390906D03*
D39*
X129667Y390906D03*
D37*
X116840Y390906D03*
D182*
X255905Y391160D03*
D33*
X238633Y391160D03*
D40*
X226314Y391160D03*
D48*
X202184Y391160D03*
D25*
X184912Y391160D03*
D54*
X173863Y391160D03*
D47*
X148082Y391160D03*
D38*
X129540Y391160D03*
D35*
X116840Y391160D03*
D182*
X255905Y391414D03*
X237871Y391414D03*
D34*
X226187Y391414D03*
D46*
X202057Y391414D03*
D25*
X184912Y391414D03*
D39*
X173863Y391414D03*
D43*
X148082Y391414D03*
D34*
X129413Y391414D03*
D31*
X116713Y391414D03*
D182*
X255905Y391668D03*
D179*
X237109Y391668D03*
D33*
X226187Y391668D03*
D43*
X201930Y391668D03*
D25*
X184912Y391668D03*
D36*
X173863Y391668D03*
D40*
X148082Y391668D03*
D29*
X128397Y391668D03*
D182*
X116713Y391668D03*
X255905Y391922D03*
D19*
X236474Y391922D03*
D28*
X226314Y391922D03*
D41*
X201549Y391922D03*
D25*
X184912Y391922D03*
D29*
X173863Y391922D03*
D35*
X148082Y391922D03*
D179*
X127381Y391922D03*
D24*
X116713Y391922D03*
D182*
X255905Y392176D03*
D15*
X235712Y392176D03*
D23*
X226314Y392176D03*
D26*
X202819Y392176D03*
D146*
X198247Y392176D03*
D25*
X184912Y392176D03*
D24*
X173863Y392176D03*
D27*
X148082Y392176D03*
D145*
X126492Y392176D03*
D147*
X116586Y392176D03*
D182*
X255905Y392430D03*
D15*
X226314Y392430D03*
D17*
X202819Y392430D03*
D146*
X198247Y392430D03*
D25*
X184912Y392430D03*
D16*
X173863Y392430D03*
D145*
X148082Y392430D03*
D13*
X116459Y392430D03*
D182*
X255905Y392684D03*
D18*
X198120Y392684D03*
D25*
X184912Y392684D03*
D182*
X255905Y392938D03*
D18*
X198120Y392938D03*
D25*
X184912Y392938D03*
D182*
X255905Y393192D03*
D18*
X197866Y393192D03*
D25*
X184912Y393192D03*
D182*
X255905Y393446D03*
D17*
X197739Y393446D03*
D25*
X184912Y393446D03*
D182*
X255905Y393700D03*
D18*
X197612Y393700D03*
D25*
X184912Y393700D03*
D182*
X255905Y393954D03*
D18*
X197358Y393954D03*
D25*
X184912Y393954D03*
D182*
X255905Y394208D03*
D18*
X197104Y394208D03*
D25*
X184912Y394208D03*
D182*
X255905Y394462D03*
D18*
X196850Y394462D03*
D25*
X184912Y394462D03*
D182*
X255905Y394716D03*
D18*
X196596Y394716D03*
D25*
X184912Y394716D03*
D182*
X255905Y394970D03*
D18*
X196342Y394970D03*
D25*
X184912Y394970D03*
D182*
X255905Y395224D03*
D18*
X196088Y395224D03*
D25*
X184912Y395224D03*
D182*
X255905Y395478D03*
D146*
X195707Y395478D03*
D25*
X184912Y395478D03*
D182*
X255905Y395732D03*
D146*
X195453Y395732D03*
D25*
X184912Y395732D03*
D182*
X255905Y395986D03*
D19*
X195072Y395986D03*
D25*
X184912Y395986D03*
D182*
X255905Y396240D03*
D19*
X194564Y396240D03*
D25*
X184912Y396240D03*
D182*
X255905Y396494D03*
D147*
X194056Y396494D03*
D26*
X185039Y396494D03*
D182*
X255905Y396748D03*
D21*
X193421Y396748D03*
D26*
X185039Y396748D03*
D182*
X255905Y397002D03*
D23*
X192786Y397002D03*
D27*
X185166Y397002D03*
D182*
X255905Y397256D03*
D50*
X188468Y397256D03*
D182*
X255905Y397510D03*
D48*
X188214Y397510D03*
D182*
X255905Y397764D03*
D46*
X187833Y397764D03*
D182*
X255905Y398018D03*
D43*
X187452Y398018D03*
D182*
X255905Y398272D03*
D41*
X187071Y398272D03*
D182*
X255905Y398526D03*
D38*
X186690Y398526D03*
D182*
X255905Y398780D03*
D36*
X186309Y398780D03*
D182*
X255905Y399034D03*
D31*
X185801Y399034D03*
D182*
X255905Y399288D03*
D27*
X185166Y399288D03*
D182*
X255905Y399542D03*
D179*
X184531Y399542D03*
D182*
X255905Y399796D03*
D146*
X183769Y399796D03*
D182*
X255905Y400050D03*
D10*
X182880Y400050D03*
D182*
X255905Y400304D03*
X255905Y400558D03*
X255905Y400812D03*
X255905Y401066D03*
X255905Y401320D03*
D29*
X255905Y401574D03*
X255905Y401828D03*
X255905Y402082D03*
D31*
X255905Y402336D03*
D33*
X255905Y402590D03*
D36*
X255905Y402844D03*
D34*
X255905Y403098D03*
D41*
X255905Y403352D03*
D46*
X255905Y403606D03*
D55*
X255905Y403860D03*
D70*
X255905Y404114D03*
D71*
X255905Y404368D03*
D72*
X255778Y404622D03*
X255778Y404876D03*
X255778Y405130D03*
X255778Y405384D03*
X255778Y405638D03*
D71*
X255905Y405892D03*
D70*
X255905Y406146D03*
D208*
X102997Y386138D02*
X98506Y386138D01*
X98506Y368173D01*
X102997Y368173D02*
X94015Y368173D01*
X98506Y395120D02*
X98506Y399611D01*
X83507Y386138D02*
X83507Y368173D01*
X83507Y386138D02*
X70034Y386138D01*
X65542Y381647D01*
X65542Y368173D01*
X49781Y368173D02*
X40799Y368173D01*
X36307Y372664D01*
X36307Y381647D01*
X40799Y386138D01*
X49781Y386138D01*
X54272Y381647D01*
X54272Y372664D01*
X49781Y368173D01*
M02*
