G04 EAGLE Gerber X2 export*
%TF.Part,Single*%
%TF.FileFunction,Soldermask,Top,1*%
%TF.FilePolarity,Negative*%
%TF.GenerationSoftware,Autodesk,EAGLE,8.7.0*%
%TF.CreationDate,2018-03-15T14:00:46Z*%
G75*
%MOMM*%
%FSLAX34Y34*%
%LPD*%
%AMOC8*
5,1,8,0,0,1.08239X$1,22.5*%
G01*
%ADD10C,2.082800*%
%ADD11R,2.082800X2.082800*%
%ADD12P,2.254402X8X292.500000*%
%ADD13C,1.854200*%
%ADD14R,1.854200X1.854200*%
%ADD15C,3.505200*%
%ADD16C,4.419200*%
%ADD17C,4.318000*%
%ADD18C,2.184400*%
%ADD19C,1.828800*%
%ADD20C,1.625600*%


D10*
X685800Y25400D03*
X711200Y25400D03*
X736600Y25400D03*
X762000Y25400D03*
X787400Y25400D03*
X812800Y25400D03*
D11*
X812800Y508000D03*
D10*
X787400Y508000D03*
X762000Y508000D03*
X736600Y508000D03*
X711200Y508000D03*
X685800Y508000D03*
X660400Y508000D03*
X635000Y508000D03*
D11*
X594360Y508000D03*
D10*
X568960Y508000D03*
X543560Y508000D03*
X518160Y508000D03*
X492760Y508000D03*
X467360Y508000D03*
X441960Y508000D03*
X416560Y508000D03*
D12*
X812800Y304800D03*
X838200Y304800D03*
X812800Y279400D03*
X838200Y279400D03*
X812800Y254000D03*
X838200Y254000D03*
D13*
X431800Y431800D03*
X406400Y431800D03*
D10*
X508000Y25400D03*
X533400Y25400D03*
X558800Y25400D03*
X584200Y25400D03*
X609600Y25400D03*
X635000Y25400D03*
X457200Y330200D03*
X381000Y330200D03*
X419100Y393700D03*
X419100Y368300D03*
X736600Y393700D03*
X736600Y368300D03*
X698500Y330200D03*
X774700Y330200D03*
X457200Y304800D03*
X381000Y304800D03*
X704088Y302006D03*
X769112Y302006D03*
X704088Y256794D03*
X769112Y256794D03*
D13*
X660400Y63500D03*
X660400Y88900D03*
X444500Y38100D03*
D14*
X469900Y38100D03*
D13*
X419100Y215900D03*
X419100Y190500D03*
X165100Y38100D03*
D14*
X190500Y38100D03*
D13*
X327660Y271780D03*
X353060Y271780D03*
X406400Y279400D03*
X431800Y279400D03*
D15*
X317500Y25400D03*
X838200Y76200D03*
X838200Y355600D03*
X330200Y508000D03*
D16*
X86708Y86360D03*
D17*
X13500Y86106D03*
X54930Y48744D03*
D18*
X114300Y127000D03*
X215900Y127000D03*
D19*
X173228Y177800D02*
X156972Y177800D01*
X156972Y203200D02*
X173228Y203200D01*
X173228Y228600D02*
X156972Y228600D01*
D15*
X15240Y203200D03*
D20*
X812800Y210312D02*
X812800Y196088D01*
X787400Y196088D02*
X787400Y210312D01*
X762000Y210312D02*
X762000Y196088D01*
X736600Y196088D02*
X736600Y210312D01*
X711200Y210312D02*
X711200Y196088D01*
X685800Y196088D02*
X685800Y210312D01*
X660400Y210312D02*
X660400Y196088D01*
X635000Y196088D02*
X635000Y210312D01*
X609600Y210312D02*
X609600Y196088D01*
X584200Y196088D02*
X584200Y210312D01*
X558800Y210312D02*
X558800Y196088D01*
X533400Y196088D02*
X533400Y210312D01*
X508000Y210312D02*
X508000Y196088D01*
X482600Y196088D02*
X482600Y210312D01*
X482600Y134112D02*
X482600Y119888D01*
X508000Y119888D02*
X508000Y134112D01*
X533400Y134112D02*
X533400Y119888D01*
X558800Y119888D02*
X558800Y134112D01*
X584200Y134112D02*
X584200Y119888D01*
X609600Y119888D02*
X609600Y134112D01*
X635000Y134112D02*
X635000Y119888D01*
X660400Y119888D02*
X660400Y134112D01*
X685800Y134112D02*
X685800Y119888D01*
X711200Y119888D02*
X711200Y134112D01*
X736600Y134112D02*
X736600Y119888D01*
X762000Y119888D02*
X762000Y134112D01*
X787400Y134112D02*
X787400Y119888D01*
X812800Y119888D02*
X812800Y134112D01*
D13*
X571500Y254000D03*
X622300Y254000D03*
X673100Y266700D03*
X673100Y241300D03*
X520700Y266700D03*
X520700Y241300D03*
D10*
X363220Y96520D03*
X350520Y115570D03*
X337820Y96520D03*
X139700Y88900D03*
X190500Y88900D03*
X338328Y444246D03*
X338328Y418846D03*
X338328Y393446D03*
X338328Y368046D03*
X338328Y342646D03*
X338328Y317246D03*
X287528Y291846D03*
X262128Y291846D03*
X236728Y291846D03*
X211328Y291846D03*
X185928Y291846D03*
X160528Y291846D03*
X135128Y291846D03*
X109728Y291846D03*
X84328Y291846D03*
X58928Y291846D03*
X33528Y291846D03*
X8128Y291846D03*
X287528Y469646D03*
X262128Y469646D03*
X236728Y469646D03*
X211328Y469646D03*
X185928Y469646D03*
X160528Y469646D03*
X135128Y469646D03*
X109728Y469646D03*
X84328Y469646D03*
X58928Y469646D03*
X33528Y469646D03*
X8128Y469646D03*
M02*
