%
M48
M72
T01C0.01969
T02C0.04000
T03C0.04331
T04C0.04400
T05C0.04724
%
T01
X218100Y96600
X238100Y126600
X305100Y126600
X325100Y96600
T02
X121600Y100100
X121600Y90100
X121600Y80100
X121600Y70100
X121600Y110100
X121600Y120100
X121600Y130100
X121600Y140100
X121600Y150100
X121600Y160100
X121600Y170100
X121600Y180100
X121600Y190100
X121600Y200100
X121600Y210100
X121600Y220100
X121600Y230100
X121600Y240100
X121600Y250100
X121600Y260100
X21600Y260100
X21600Y250100
X21600Y240100
X21600Y230100
X21600Y220100
X21600Y210100
X21600Y200100
X21600Y190100
X21600Y180100
X21600Y170100
X21600Y160100
X21600Y150100
X21600Y140100
X21600Y130100
X21600Y120100
X21600Y110100
X21600Y100100
X21600Y90100
X21600Y80100
X21600Y70100
X226600Y283600
X226600Y293600
X236600Y293600
X246600Y293600
X246600Y283600
X236600Y283600
X256600Y283600
X266600Y283600
X276600Y283600
X276600Y293600
X266600Y293600
X256600Y293600
X286600Y293600
X296600Y293600
X296600Y283600
X286600Y283600
X306600Y283600
X316600Y283600
X316600Y293600
X306600Y293600
T03
X106600Y260100
X106600Y250100
X106600Y240100
X106600Y230100
X106600Y220100
X106600Y210100
X106600Y200100
X106600Y190100
X106600Y180100
X106600Y170100
X106600Y160100
X106600Y150100
X106600Y140100
X106600Y130100
X106600Y120100
X106600Y110100
X106600Y100100
X106600Y90100
X106600Y80100
X106600Y70100
X36600Y70100
X36600Y80100
X36600Y90100
X36600Y100100
X36600Y110100
X36600Y120100
X36600Y130100
X36600Y140100
X36600Y150100
X36600Y160100
X36600Y170100
X36600Y180100
X36600Y190100
X36600Y200100
X36600Y210100
X36600Y220100
X36600Y230100
X36600Y240100
X36600Y250100
X36600Y260100
X70852Y142069
X80852Y142069
X90852Y142069
T04
X81600Y72600
X81600Y32600
T05
X44820Y31600
X58600Y31600
M30
