G75*
%MOIN*%
%OFA0B0*%
%FSLAX25Y25*%
%IPPOS*%
%LPD*%
%AMOC8*
5,1,8,0,0,1.08239X$1,22.5*
%
%ADD10C,0.00600*%
%ADD11C,0.02000*%
%ADD12R,0.11200X0.00200*%
%ADD13R,0.10800X0.00200*%
%ADD14R,0.08200X0.00200*%
%ADD15R,0.07200X0.00200*%
%ADD16R,0.06200X0.00200*%
%ADD17R,0.05800X0.00200*%
%ADD18R,0.05400X0.00200*%
%ADD19R,0.05000X0.00200*%
%ADD20R,0.04800X0.00200*%
%ADD21R,0.04600X0.00200*%
%ADD22R,0.04400X0.00200*%
%ADD23R,0.04200X0.00200*%
%ADD24R,0.03400X0.00200*%
%ADD25R,0.03000X0.00200*%
%ADD26R,0.03600X0.00200*%
%ADD27R,0.05200X0.00200*%
%ADD28R,0.05600X0.00200*%
%ADD29R,0.13600X0.00200*%
%ADD30R,0.09000X0.00200*%
%ADD31R,0.09200X0.00200*%
%ADD32R,0.01200X0.00200*%
%ADD33R,0.06600X0.00200*%
%ADD34R,0.07000X0.00200*%
%ADD35R,0.11000X0.00200*%
%ADD36R,0.14000X0.00200*%
%ADD37R,0.09400X0.00200*%
%ADD38R,0.09600X0.00200*%
%ADD39R,0.02000X0.00200*%
%ADD40R,0.07800X0.00200*%
%ADD41R,0.11400X0.00200*%
%ADD42R,0.14200X0.00200*%
%ADD43R,0.09800X0.00200*%
%ADD44R,0.02400X0.00200*%
%ADD45R,0.08000X0.00200*%
%ADD46R,0.12600X0.00200*%
%ADD47R,0.08800X0.00200*%
%ADD48R,0.10000X0.00200*%
%ADD49R,0.12800X0.00200*%
%ADD50R,0.10600X0.00200*%
%ADD51R,0.13200X0.00200*%
%ADD52R,0.13800X0.00200*%
%ADD53R,0.13400X0.00200*%
%ADD54R,0.11800X0.00200*%
%ADD55R,0.12400X0.00200*%
%ADD56R,0.04000X0.00200*%
%ADD57R,0.06400X0.00200*%
%ADD58R,0.08600X0.00200*%
%ADD59R,0.06000X0.00200*%
%ADD60R,0.03200X0.00200*%
%ADD61R,0.14600X0.00200*%
%ADD62R,0.15000X0.00200*%
%ADD63R,0.03800X0.00200*%
%ADD64R,0.06800X0.00200*%
%ADD65R,0.02800X0.00200*%
%ADD66R,0.02600X0.00200*%
%ADD67R,0.02200X0.00200*%
%ADD68R,0.01600X0.00200*%
%ADD69R,0.01000X0.00200*%
%ADD70R,0.00600X0.00200*%
%ADD71R,0.01800X0.00200*%
%ADD72R,0.10200X0.00200*%
%ADD73R,0.10400X0.00200*%
%ADD74R,0.19000X0.00200*%
%ADD75R,0.19200X0.00200*%
%ADD76R,0.07400X0.00200*%
%ADD77R,0.18600X0.00200*%
%ADD78R,0.01400X0.00200*%
%ADD79R,0.08400X0.00200*%
%ADD80R,0.16800X0.00200*%
%ADD81R,0.16600X0.00200*%
%ADD82R,0.12000X0.00200*%
%ADD83R,0.11600X0.00200*%
%ADD84R,0.07600X0.00200*%
%ADD85C,0.02600*%
%ADD86C,0.01000*%
%ADD87C,0.01100*%
%ADD88C,0.00060*%
%ADD89C,0.00800*%
D10*
X0021600Y0001600D02*
X0391600Y0001600D01*
X0392083Y0001606D01*
X0392566Y0001623D01*
X0393049Y0001653D01*
X0393530Y0001693D01*
X0394011Y0001746D01*
X0394490Y0001810D01*
X0394967Y0001885D01*
X0395443Y0001973D01*
X0395916Y0002071D01*
X0396386Y0002181D01*
X0396854Y0002302D01*
X0397319Y0002435D01*
X0397780Y0002579D01*
X0398238Y0002734D01*
X0398692Y0002900D01*
X0399142Y0003077D01*
X0399587Y0003264D01*
X0400028Y0003463D01*
X0400464Y0003671D01*
X0400894Y0003891D01*
X0401320Y0004121D01*
X0401739Y0004361D01*
X0402153Y0004611D01*
X0402560Y0004871D01*
X0402961Y0005140D01*
X0403356Y0005420D01*
X0403743Y0005708D01*
X0404124Y0006007D01*
X0404497Y0006314D01*
X0404862Y0006630D01*
X0405220Y0006955D01*
X0405570Y0007288D01*
X0405912Y0007630D01*
X0406245Y0007980D01*
X0406570Y0008338D01*
X0406886Y0008703D01*
X0407193Y0009076D01*
X0407492Y0009457D01*
X0407780Y0009844D01*
X0408060Y0010239D01*
X0408329Y0010640D01*
X0408589Y0011047D01*
X0408839Y0011461D01*
X0409079Y0011880D01*
X0409309Y0012306D01*
X0409529Y0012736D01*
X0409737Y0013172D01*
X0409936Y0013613D01*
X0410123Y0014058D01*
X0410300Y0014508D01*
X0410466Y0014962D01*
X0410621Y0015420D01*
X0410765Y0015881D01*
X0410898Y0016346D01*
X0411019Y0016814D01*
X0411129Y0017284D01*
X0411227Y0017757D01*
X0411315Y0018233D01*
X0411390Y0018710D01*
X0411454Y0019189D01*
X0411507Y0019670D01*
X0411547Y0020151D01*
X0411577Y0020634D01*
X0411594Y0021117D01*
X0411600Y0021600D01*
X0411600Y0291600D01*
X0391600Y0311600D02*
X0021600Y0311600D01*
X0001600Y0291600D02*
X0001600Y0021600D01*
D11*
X0168872Y0017878D02*
X0173316Y0017878D01*
X0171538Y0024100D01*
X0170205Y0019656D02*
X0170205Y0016100D01*
X0177092Y0016100D02*
X0181536Y0016100D01*
X0177758Y0020544D01*
X0179092Y0024100D02*
X0179190Y0024098D01*
X0179288Y0024093D01*
X0179385Y0024083D01*
X0179482Y0024070D01*
X0179579Y0024054D01*
X0179674Y0024033D01*
X0179769Y0024009D01*
X0179863Y0023982D01*
X0179956Y0023950D01*
X0180047Y0023916D01*
X0180138Y0023878D01*
X0180226Y0023836D01*
X0180313Y0023791D01*
X0180399Y0023743D01*
X0180482Y0023692D01*
X0180563Y0023637D01*
X0180642Y0023579D01*
X0180719Y0023519D01*
X0180794Y0023455D01*
X0180866Y0023389D01*
X0180935Y0023320D01*
X0181002Y0023249D01*
X0181066Y0023175D01*
X0181127Y0023098D01*
X0181186Y0023020D01*
X0181241Y0022939D01*
X0181293Y0022856D01*
X0181342Y0022771D01*
X0181387Y0022684D01*
X0181430Y0022596D01*
X0181469Y0022506D01*
X0181504Y0022415D01*
X0181536Y0022323D01*
X0177759Y0020545D02*
X0177694Y0020609D01*
X0177632Y0020676D01*
X0177572Y0020746D01*
X0177516Y0020818D01*
X0177463Y0020893D01*
X0177413Y0020970D01*
X0177367Y0021049D01*
X0177324Y0021129D01*
X0177284Y0021212D01*
X0177248Y0021296D01*
X0177216Y0021382D01*
X0177187Y0021469D01*
X0177162Y0021557D01*
X0177141Y0021646D01*
X0177123Y0021736D01*
X0177110Y0021826D01*
X0177100Y0021917D01*
X0177094Y0022008D01*
X0177092Y0022100D01*
X0177094Y0022187D01*
X0177100Y0022274D01*
X0177109Y0022361D01*
X0177122Y0022447D01*
X0177139Y0022533D01*
X0177160Y0022618D01*
X0177185Y0022701D01*
X0177213Y0022784D01*
X0177244Y0022865D01*
X0177279Y0022945D01*
X0177318Y0023023D01*
X0177360Y0023100D01*
X0177405Y0023175D01*
X0177454Y0023247D01*
X0177505Y0023318D01*
X0177560Y0023386D01*
X0177617Y0023451D01*
X0177678Y0023514D01*
X0177741Y0023575D01*
X0177806Y0023632D01*
X0177874Y0023687D01*
X0177945Y0023738D01*
X0178017Y0023787D01*
X0178092Y0023832D01*
X0178169Y0023874D01*
X0178247Y0023913D01*
X0178327Y0023948D01*
X0178408Y0023979D01*
X0178491Y0024007D01*
X0178574Y0024032D01*
X0178659Y0024053D01*
X0178745Y0024070D01*
X0178831Y0024083D01*
X0178918Y0024092D01*
X0179005Y0024098D01*
X0179092Y0024100D01*
X0184934Y0024989D02*
X0188490Y0015211D01*
X0191888Y0016100D02*
X0196332Y0016100D01*
X0194110Y0016100D02*
X0194110Y0024100D01*
X0196332Y0022322D01*
X0204552Y0020100D02*
X0204550Y0019943D01*
X0204544Y0019785D01*
X0204535Y0019628D01*
X0204522Y0019471D01*
X0204505Y0019315D01*
X0204484Y0019159D01*
X0204460Y0019003D01*
X0204432Y0018848D01*
X0204400Y0018694D01*
X0204365Y0018541D01*
X0204326Y0018388D01*
X0204283Y0018237D01*
X0204237Y0018087D01*
X0204187Y0017937D01*
X0204134Y0017789D01*
X0204077Y0017642D01*
X0204016Y0017497D01*
X0203953Y0017353D01*
X0203885Y0017211D01*
X0204108Y0017878D02*
X0200552Y0022322D01*
X0200775Y0022989D02*
X0200802Y0023063D01*
X0200833Y0023135D01*
X0200867Y0023206D01*
X0200904Y0023274D01*
X0200945Y0023342D01*
X0200989Y0023407D01*
X0201036Y0023470D01*
X0201085Y0023530D01*
X0201138Y0023588D01*
X0201193Y0023644D01*
X0201251Y0023697D01*
X0201312Y0023747D01*
X0201374Y0023794D01*
X0201439Y0023838D01*
X0201506Y0023879D01*
X0201575Y0023916D01*
X0201646Y0023951D01*
X0201718Y0023982D01*
X0201791Y0024009D01*
X0201866Y0024033D01*
X0201942Y0024053D01*
X0202018Y0024070D01*
X0202095Y0024083D01*
X0202173Y0024093D01*
X0202252Y0024098D01*
X0202330Y0024100D01*
X0202408Y0024098D01*
X0202487Y0024093D01*
X0202565Y0024083D01*
X0202642Y0024070D01*
X0202718Y0024053D01*
X0202794Y0024033D01*
X0202869Y0024009D01*
X0202942Y0023982D01*
X0203014Y0023951D01*
X0203085Y0023916D01*
X0203154Y0023879D01*
X0203221Y0023838D01*
X0203286Y0023794D01*
X0203348Y0023747D01*
X0203409Y0023697D01*
X0203467Y0023644D01*
X0203522Y0023588D01*
X0203575Y0023530D01*
X0203624Y0023470D01*
X0203671Y0023407D01*
X0203715Y0023342D01*
X0203756Y0023274D01*
X0203793Y0023206D01*
X0203827Y0023135D01*
X0203858Y0023063D01*
X0203885Y0022989D01*
X0200774Y0022989D02*
X0200706Y0022847D01*
X0200643Y0022703D01*
X0200582Y0022558D01*
X0200525Y0022411D01*
X0200472Y0022263D01*
X0200422Y0022114D01*
X0200376Y0021963D01*
X0200333Y0021812D01*
X0200294Y0021659D01*
X0200259Y0021506D01*
X0200227Y0021352D01*
X0200199Y0021197D01*
X0200175Y0021041D01*
X0200154Y0020885D01*
X0200137Y0020729D01*
X0200124Y0020572D01*
X0200115Y0020415D01*
X0200109Y0020257D01*
X0200107Y0020100D01*
X0204552Y0020100D02*
X0204550Y0020257D01*
X0204544Y0020415D01*
X0204535Y0020572D01*
X0204522Y0020729D01*
X0204505Y0020885D01*
X0204484Y0021041D01*
X0204460Y0021197D01*
X0204432Y0021352D01*
X0204400Y0021506D01*
X0204365Y0021659D01*
X0204326Y0021812D01*
X0204283Y0021963D01*
X0204237Y0022113D01*
X0204187Y0022263D01*
X0204134Y0022411D01*
X0204077Y0022558D01*
X0204016Y0022703D01*
X0203953Y0022847D01*
X0203885Y0022989D01*
X0200107Y0020100D02*
X0200109Y0019943D01*
X0200115Y0019785D01*
X0200124Y0019628D01*
X0200137Y0019471D01*
X0200154Y0019315D01*
X0200175Y0019159D01*
X0200199Y0019003D01*
X0200227Y0018848D01*
X0200259Y0018694D01*
X0200294Y0018541D01*
X0200333Y0018388D01*
X0200376Y0018237D01*
X0200422Y0018087D01*
X0200472Y0017937D01*
X0200525Y0017789D01*
X0200582Y0017642D01*
X0200643Y0017497D01*
X0200706Y0017353D01*
X0200774Y0017211D01*
X0200775Y0017211D02*
X0200802Y0017137D01*
X0200833Y0017065D01*
X0200867Y0016994D01*
X0200904Y0016925D01*
X0200945Y0016858D01*
X0200989Y0016793D01*
X0201036Y0016730D01*
X0201085Y0016670D01*
X0201138Y0016612D01*
X0201193Y0016556D01*
X0201251Y0016503D01*
X0201312Y0016453D01*
X0201374Y0016406D01*
X0201439Y0016362D01*
X0201506Y0016321D01*
X0201575Y0016284D01*
X0201646Y0016249D01*
X0201718Y0016218D01*
X0201791Y0016191D01*
X0201866Y0016167D01*
X0201942Y0016147D01*
X0202018Y0016130D01*
X0202095Y0016117D01*
X0202173Y0016107D01*
X0202252Y0016102D01*
X0202330Y0016100D01*
X0202408Y0016102D01*
X0202487Y0016107D01*
X0202565Y0016117D01*
X0202642Y0016130D01*
X0202718Y0016147D01*
X0202794Y0016167D01*
X0202869Y0016191D01*
X0202942Y0016218D01*
X0203014Y0016249D01*
X0203085Y0016284D01*
X0203154Y0016321D01*
X0203221Y0016362D01*
X0203286Y0016406D01*
X0203348Y0016453D01*
X0203409Y0016503D01*
X0203467Y0016556D01*
X0203522Y0016612D01*
X0203575Y0016670D01*
X0203624Y0016730D01*
X0203671Y0016793D01*
X0203715Y0016858D01*
X0203756Y0016925D01*
X0203793Y0016994D01*
X0203827Y0017065D01*
X0203858Y0017137D01*
X0203885Y0017211D01*
X0203747Y0031100D02*
X0203747Y0035100D01*
X0203747Y0034211D02*
X0205747Y0034211D01*
X0203747Y0035100D02*
X0203749Y0035172D01*
X0203755Y0035244D01*
X0203765Y0035316D01*
X0203778Y0035387D01*
X0203796Y0035457D01*
X0203817Y0035526D01*
X0203842Y0035593D01*
X0203870Y0035660D01*
X0203902Y0035724D01*
X0203938Y0035787D01*
X0203977Y0035848D01*
X0204019Y0035907D01*
X0204064Y0035963D01*
X0204112Y0036017D01*
X0204163Y0036068D01*
X0204217Y0036116D01*
X0204273Y0036161D01*
X0204332Y0036203D01*
X0204393Y0036242D01*
X0204456Y0036278D01*
X0204520Y0036310D01*
X0204587Y0036338D01*
X0204654Y0036363D01*
X0204723Y0036384D01*
X0204793Y0036402D01*
X0204864Y0036415D01*
X0204936Y0036425D01*
X0205008Y0036431D01*
X0205080Y0036433D01*
X0206858Y0036433D01*
X0210530Y0036433D02*
X0213197Y0036433D01*
X0212308Y0039100D02*
X0212308Y0032433D01*
X0212307Y0032433D02*
X0212305Y0032361D01*
X0212299Y0032289D01*
X0212289Y0032217D01*
X0212276Y0032146D01*
X0212258Y0032076D01*
X0212237Y0032007D01*
X0212212Y0031940D01*
X0212184Y0031873D01*
X0212152Y0031809D01*
X0212116Y0031746D01*
X0212077Y0031685D01*
X0212035Y0031626D01*
X0211990Y0031570D01*
X0211942Y0031516D01*
X0211891Y0031465D01*
X0211837Y0031417D01*
X0211781Y0031372D01*
X0211722Y0031330D01*
X0211661Y0031291D01*
X0211598Y0031255D01*
X0211534Y0031223D01*
X0211467Y0031195D01*
X0211400Y0031170D01*
X0211331Y0031149D01*
X0211261Y0031131D01*
X0211190Y0031118D01*
X0211118Y0031108D01*
X0211046Y0031102D01*
X0210974Y0031100D01*
X0210530Y0031100D01*
X0205747Y0031100D02*
X0203747Y0031100D01*
X0205747Y0031100D02*
X0205825Y0031102D01*
X0205902Y0031108D01*
X0205979Y0031117D01*
X0206055Y0031131D01*
X0206131Y0031148D01*
X0206206Y0031169D01*
X0206279Y0031194D01*
X0206351Y0031222D01*
X0206422Y0031254D01*
X0206491Y0031289D01*
X0206558Y0031328D01*
X0206624Y0031370D01*
X0206687Y0031416D01*
X0206747Y0031464D01*
X0206805Y0031515D01*
X0206861Y0031570D01*
X0206914Y0031626D01*
X0206964Y0031686D01*
X0207010Y0031748D01*
X0207054Y0031812D01*
X0207095Y0031878D01*
X0207132Y0031946D01*
X0207165Y0032016D01*
X0207195Y0032088D01*
X0207222Y0032160D01*
X0207245Y0032235D01*
X0207264Y0032310D01*
X0207279Y0032386D01*
X0207291Y0032463D01*
X0207299Y0032540D01*
X0207303Y0032617D01*
X0207303Y0032695D01*
X0207299Y0032772D01*
X0207291Y0032849D01*
X0207279Y0032926D01*
X0207264Y0033002D01*
X0207245Y0033077D01*
X0207222Y0033152D01*
X0207195Y0033224D01*
X0207165Y0033296D01*
X0207132Y0033366D01*
X0207095Y0033434D01*
X0207054Y0033500D01*
X0207010Y0033564D01*
X0206964Y0033626D01*
X0206914Y0033686D01*
X0206861Y0033742D01*
X0206805Y0033797D01*
X0206747Y0033848D01*
X0206687Y0033896D01*
X0206624Y0033942D01*
X0206558Y0033984D01*
X0206491Y0034023D01*
X0206422Y0034058D01*
X0206351Y0034090D01*
X0206279Y0034118D01*
X0206206Y0034143D01*
X0206131Y0034164D01*
X0206055Y0034181D01*
X0205979Y0034195D01*
X0205902Y0034204D01*
X0205825Y0034210D01*
X0205747Y0034212D01*
X0199905Y0035100D02*
X0199905Y0032433D01*
X0199904Y0032433D02*
X0199902Y0032361D01*
X0199896Y0032289D01*
X0199886Y0032217D01*
X0199873Y0032146D01*
X0199855Y0032076D01*
X0199834Y0032007D01*
X0199809Y0031940D01*
X0199781Y0031873D01*
X0199749Y0031809D01*
X0199713Y0031746D01*
X0199674Y0031685D01*
X0199632Y0031626D01*
X0199587Y0031570D01*
X0199539Y0031516D01*
X0199488Y0031465D01*
X0199434Y0031417D01*
X0199378Y0031372D01*
X0199319Y0031330D01*
X0199258Y0031291D01*
X0199195Y0031255D01*
X0199131Y0031223D01*
X0199064Y0031195D01*
X0198997Y0031170D01*
X0198928Y0031149D01*
X0198858Y0031131D01*
X0198787Y0031118D01*
X0198715Y0031108D01*
X0198643Y0031102D01*
X0198571Y0031100D01*
X0196349Y0031100D01*
X0196349Y0039100D01*
X0196349Y0036433D02*
X0198571Y0036433D01*
X0198643Y0036431D01*
X0198715Y0036425D01*
X0198787Y0036415D01*
X0198858Y0036402D01*
X0198928Y0036384D01*
X0198997Y0036363D01*
X0199064Y0036338D01*
X0199131Y0036310D01*
X0199195Y0036278D01*
X0199258Y0036242D01*
X0199319Y0036203D01*
X0199378Y0036161D01*
X0199434Y0036116D01*
X0199488Y0036068D01*
X0199539Y0036017D01*
X0199587Y0035963D01*
X0199632Y0035907D01*
X0199674Y0035848D01*
X0199713Y0035787D01*
X0199749Y0035724D01*
X0199781Y0035660D01*
X0199809Y0035593D01*
X0199834Y0035526D01*
X0199855Y0035457D01*
X0199873Y0035387D01*
X0199886Y0035316D01*
X0199896Y0035244D01*
X0199902Y0035172D01*
X0199904Y0035100D01*
X0192450Y0034656D02*
X0192450Y0032878D01*
X0192451Y0032878D02*
X0192449Y0032795D01*
X0192443Y0032712D01*
X0192433Y0032629D01*
X0192420Y0032546D01*
X0192402Y0032465D01*
X0192381Y0032384D01*
X0192356Y0032305D01*
X0192327Y0032227D01*
X0192295Y0032150D01*
X0192259Y0032075D01*
X0192220Y0032001D01*
X0192177Y0031930D01*
X0192131Y0031860D01*
X0192081Y0031793D01*
X0192029Y0031728D01*
X0191974Y0031666D01*
X0191915Y0031606D01*
X0191854Y0031549D01*
X0191791Y0031495D01*
X0191725Y0031444D01*
X0191656Y0031397D01*
X0191586Y0031352D01*
X0191513Y0031311D01*
X0191439Y0031274D01*
X0191363Y0031239D01*
X0191285Y0031209D01*
X0191207Y0031182D01*
X0191126Y0031159D01*
X0191045Y0031139D01*
X0190963Y0031124D01*
X0190881Y0031112D01*
X0190798Y0031104D01*
X0190715Y0031100D01*
X0190631Y0031100D01*
X0190548Y0031104D01*
X0190465Y0031112D01*
X0190383Y0031124D01*
X0190301Y0031139D01*
X0190220Y0031159D01*
X0190139Y0031182D01*
X0190061Y0031209D01*
X0189983Y0031239D01*
X0189907Y0031274D01*
X0189833Y0031311D01*
X0189760Y0031352D01*
X0189690Y0031397D01*
X0189621Y0031444D01*
X0189555Y0031495D01*
X0189492Y0031549D01*
X0189431Y0031606D01*
X0189372Y0031666D01*
X0189317Y0031728D01*
X0189265Y0031793D01*
X0189215Y0031860D01*
X0189169Y0031930D01*
X0189126Y0032001D01*
X0189087Y0032075D01*
X0189051Y0032150D01*
X0189019Y0032227D01*
X0188990Y0032305D01*
X0188965Y0032384D01*
X0188944Y0032465D01*
X0188926Y0032546D01*
X0188913Y0032629D01*
X0188903Y0032712D01*
X0188897Y0032795D01*
X0188895Y0032878D01*
X0188895Y0034656D01*
X0188897Y0034739D01*
X0188903Y0034822D01*
X0188913Y0034905D01*
X0188926Y0034988D01*
X0188944Y0035069D01*
X0188965Y0035150D01*
X0188990Y0035229D01*
X0189019Y0035307D01*
X0189051Y0035384D01*
X0189087Y0035459D01*
X0189126Y0035533D01*
X0189169Y0035604D01*
X0189215Y0035674D01*
X0189265Y0035741D01*
X0189317Y0035806D01*
X0189372Y0035868D01*
X0189431Y0035928D01*
X0189492Y0035985D01*
X0189555Y0036039D01*
X0189621Y0036090D01*
X0189690Y0036137D01*
X0189760Y0036182D01*
X0189833Y0036223D01*
X0189907Y0036260D01*
X0189983Y0036295D01*
X0190061Y0036325D01*
X0190139Y0036352D01*
X0190220Y0036375D01*
X0190301Y0036395D01*
X0190383Y0036410D01*
X0190465Y0036422D01*
X0190548Y0036430D01*
X0190631Y0036434D01*
X0190715Y0036434D01*
X0190798Y0036430D01*
X0190881Y0036422D01*
X0190963Y0036410D01*
X0191045Y0036395D01*
X0191126Y0036375D01*
X0191207Y0036352D01*
X0191285Y0036325D01*
X0191363Y0036295D01*
X0191439Y0036260D01*
X0191513Y0036223D01*
X0191586Y0036182D01*
X0191656Y0036137D01*
X0191725Y0036090D01*
X0191791Y0036039D01*
X0191854Y0035985D01*
X0191915Y0035928D01*
X0191974Y0035868D01*
X0192029Y0035806D01*
X0192081Y0035741D01*
X0192131Y0035674D01*
X0192177Y0035604D01*
X0192220Y0035533D01*
X0192259Y0035459D01*
X0192295Y0035384D01*
X0192327Y0035307D01*
X0192356Y0035229D01*
X0192381Y0035150D01*
X0192402Y0035069D01*
X0192420Y0034988D01*
X0192433Y0034905D01*
X0192443Y0034822D01*
X0192449Y0034739D01*
X0192451Y0034656D01*
X0184982Y0036433D02*
X0184982Y0031100D01*
X0179572Y0032433D02*
X0179572Y0034656D01*
X0179572Y0033767D02*
X0176017Y0033767D01*
X0176017Y0034656D01*
X0176019Y0034739D01*
X0176025Y0034822D01*
X0176035Y0034905D01*
X0176048Y0034988D01*
X0176066Y0035069D01*
X0176087Y0035150D01*
X0176112Y0035229D01*
X0176141Y0035307D01*
X0176173Y0035384D01*
X0176209Y0035459D01*
X0176248Y0035533D01*
X0176291Y0035604D01*
X0176337Y0035674D01*
X0176387Y0035741D01*
X0176439Y0035806D01*
X0176494Y0035868D01*
X0176553Y0035928D01*
X0176614Y0035985D01*
X0176677Y0036039D01*
X0176743Y0036090D01*
X0176812Y0036137D01*
X0176882Y0036182D01*
X0176955Y0036223D01*
X0177029Y0036260D01*
X0177105Y0036295D01*
X0177183Y0036325D01*
X0177261Y0036352D01*
X0177342Y0036375D01*
X0177423Y0036395D01*
X0177505Y0036410D01*
X0177587Y0036422D01*
X0177670Y0036430D01*
X0177753Y0036434D01*
X0177837Y0036434D01*
X0177920Y0036430D01*
X0178003Y0036422D01*
X0178085Y0036410D01*
X0178167Y0036395D01*
X0178248Y0036375D01*
X0178329Y0036352D01*
X0178407Y0036325D01*
X0178485Y0036295D01*
X0178561Y0036260D01*
X0178635Y0036223D01*
X0178708Y0036182D01*
X0178778Y0036137D01*
X0178847Y0036090D01*
X0178913Y0036039D01*
X0178976Y0035985D01*
X0179037Y0035928D01*
X0179096Y0035868D01*
X0179151Y0035806D01*
X0179203Y0035741D01*
X0179253Y0035674D01*
X0179299Y0035604D01*
X0179342Y0035533D01*
X0179381Y0035459D01*
X0179417Y0035384D01*
X0179449Y0035307D01*
X0179478Y0035229D01*
X0179503Y0035150D01*
X0179524Y0035069D01*
X0179542Y0034988D01*
X0179555Y0034905D01*
X0179565Y0034822D01*
X0179571Y0034739D01*
X0179573Y0034656D01*
X0179572Y0032433D02*
X0179570Y0032361D01*
X0179564Y0032289D01*
X0179554Y0032217D01*
X0179541Y0032146D01*
X0179523Y0032076D01*
X0179502Y0032007D01*
X0179477Y0031940D01*
X0179449Y0031873D01*
X0179417Y0031809D01*
X0179381Y0031746D01*
X0179342Y0031685D01*
X0179300Y0031626D01*
X0179255Y0031570D01*
X0179207Y0031516D01*
X0179156Y0031465D01*
X0179102Y0031417D01*
X0179046Y0031372D01*
X0178987Y0031330D01*
X0178926Y0031291D01*
X0178863Y0031255D01*
X0178799Y0031223D01*
X0178732Y0031195D01*
X0178665Y0031170D01*
X0178596Y0031149D01*
X0178526Y0031131D01*
X0178455Y0031118D01*
X0178383Y0031108D01*
X0178311Y0031102D01*
X0178239Y0031100D01*
X0176017Y0031100D01*
X0171337Y0036432D02*
X0171199Y0036429D01*
X0171062Y0036421D01*
X0170925Y0036410D01*
X0170788Y0036395D01*
X0170652Y0036376D01*
X0170516Y0036353D01*
X0170381Y0036327D01*
X0170247Y0036297D01*
X0170114Y0036264D01*
X0169981Y0036227D01*
X0169850Y0036186D01*
X0169720Y0036142D01*
X0169591Y0036094D01*
X0169463Y0036043D01*
X0169337Y0035988D01*
X0171338Y0036433D02*
X0171404Y0036432D01*
X0171471Y0036427D01*
X0171537Y0036418D01*
X0171602Y0036406D01*
X0171667Y0036390D01*
X0171730Y0036370D01*
X0171792Y0036346D01*
X0171853Y0036319D01*
X0171912Y0036289D01*
X0171970Y0036255D01*
X0172025Y0036217D01*
X0172078Y0036177D01*
X0172129Y0036134D01*
X0172177Y0036088D01*
X0172222Y0036039D01*
X0172264Y0035987D01*
X0172303Y0035934D01*
X0172340Y0035878D01*
X0172372Y0035820D01*
X0172402Y0035760D01*
X0172428Y0035699D01*
X0172450Y0035636D01*
X0172469Y0035572D01*
X0172484Y0035507D01*
X0172495Y0035441D01*
X0172502Y0035375D01*
X0172506Y0035309D01*
X0172505Y0035242D01*
X0172501Y0035176D01*
X0172493Y0035109D01*
X0172481Y0035044D01*
X0172466Y0034979D01*
X0172446Y0034915D01*
X0172423Y0034853D01*
X0172397Y0034792D01*
X0172367Y0034732D01*
X0172334Y0034675D01*
X0172297Y0034619D01*
X0172257Y0034566D01*
X0172214Y0034515D01*
X0172168Y0034466D01*
X0172120Y0034421D01*
X0172069Y0034378D01*
X0172016Y0034338D01*
X0171960Y0034301D01*
X0171902Y0034268D01*
X0171843Y0034238D01*
X0171782Y0034211D01*
X0169559Y0033322D01*
X0169498Y0033295D01*
X0169439Y0033265D01*
X0169381Y0033232D01*
X0169325Y0033195D01*
X0169272Y0033155D01*
X0169221Y0033112D01*
X0169173Y0033067D01*
X0169127Y0033018D01*
X0169084Y0032967D01*
X0169044Y0032914D01*
X0169007Y0032858D01*
X0168974Y0032801D01*
X0168944Y0032741D01*
X0168918Y0032680D01*
X0168895Y0032618D01*
X0168875Y0032554D01*
X0168860Y0032489D01*
X0168848Y0032424D01*
X0168840Y0032357D01*
X0168836Y0032291D01*
X0168835Y0032224D01*
X0168839Y0032158D01*
X0168846Y0032092D01*
X0168857Y0032026D01*
X0168872Y0031961D01*
X0168891Y0031897D01*
X0168913Y0031834D01*
X0168939Y0031773D01*
X0168969Y0031713D01*
X0169001Y0031655D01*
X0169038Y0031599D01*
X0169077Y0031546D01*
X0169119Y0031494D01*
X0169164Y0031445D01*
X0169212Y0031399D01*
X0169263Y0031356D01*
X0169316Y0031316D01*
X0169371Y0031278D01*
X0169429Y0031244D01*
X0169488Y0031214D01*
X0169549Y0031187D01*
X0169611Y0031163D01*
X0169674Y0031143D01*
X0169739Y0031127D01*
X0169804Y0031115D01*
X0169870Y0031106D01*
X0169937Y0031101D01*
X0170003Y0031100D01*
X0170004Y0031100D02*
X0170182Y0031104D01*
X0170360Y0031113D01*
X0170538Y0031126D01*
X0170715Y0031144D01*
X0170892Y0031165D01*
X0171069Y0031191D01*
X0171244Y0031221D01*
X0171419Y0031255D01*
X0171594Y0031293D01*
X0171767Y0031335D01*
X0171939Y0031381D01*
X0172110Y0031431D01*
X0172280Y0031486D01*
X0172448Y0031544D01*
X0182315Y0035544D02*
X0182315Y0036433D01*
X0184982Y0036433D01*
X0216295Y0036433D02*
X0216295Y0031100D01*
X0218517Y0031100D01*
X0218589Y0031102D01*
X0218661Y0031108D01*
X0218733Y0031118D01*
X0218804Y0031131D01*
X0218874Y0031149D01*
X0218943Y0031170D01*
X0219010Y0031195D01*
X0219077Y0031223D01*
X0219141Y0031255D01*
X0219204Y0031291D01*
X0219265Y0031330D01*
X0219324Y0031372D01*
X0219380Y0031417D01*
X0219434Y0031465D01*
X0219485Y0031516D01*
X0219533Y0031570D01*
X0219578Y0031626D01*
X0219620Y0031685D01*
X0219659Y0031746D01*
X0219695Y0031809D01*
X0219727Y0031873D01*
X0219755Y0031940D01*
X0219780Y0032007D01*
X0219801Y0032076D01*
X0219819Y0032146D01*
X0219832Y0032217D01*
X0219842Y0032289D01*
X0219848Y0032361D01*
X0219850Y0032433D01*
X0219850Y0036433D01*
X0223636Y0035100D02*
X0223636Y0032433D01*
X0223637Y0032433D02*
X0223639Y0032361D01*
X0223645Y0032289D01*
X0223655Y0032217D01*
X0223668Y0032146D01*
X0223686Y0032076D01*
X0223707Y0032007D01*
X0223732Y0031940D01*
X0223760Y0031873D01*
X0223792Y0031809D01*
X0223828Y0031746D01*
X0223867Y0031685D01*
X0223909Y0031626D01*
X0223954Y0031570D01*
X0224002Y0031516D01*
X0224053Y0031465D01*
X0224107Y0031417D01*
X0224163Y0031372D01*
X0224222Y0031330D01*
X0224283Y0031291D01*
X0224346Y0031255D01*
X0224410Y0031223D01*
X0224477Y0031195D01*
X0224544Y0031170D01*
X0224613Y0031149D01*
X0224683Y0031131D01*
X0224754Y0031118D01*
X0224826Y0031108D01*
X0224898Y0031102D01*
X0224970Y0031100D01*
X0227192Y0031100D01*
X0227192Y0028433D02*
X0227192Y0036433D01*
X0224970Y0036433D01*
X0224898Y0036431D01*
X0224826Y0036425D01*
X0224754Y0036415D01*
X0224683Y0036402D01*
X0224613Y0036384D01*
X0224544Y0036363D01*
X0224477Y0036338D01*
X0224410Y0036310D01*
X0224346Y0036278D01*
X0224283Y0036242D01*
X0224222Y0036203D01*
X0224163Y0036161D01*
X0224107Y0036116D01*
X0224053Y0036068D01*
X0224002Y0036017D01*
X0223954Y0035963D01*
X0223909Y0035907D01*
X0223867Y0035848D01*
X0223828Y0035787D01*
X0223792Y0035724D01*
X0223760Y0035660D01*
X0223732Y0035593D01*
X0223707Y0035526D01*
X0223686Y0035457D01*
X0223668Y0035387D01*
X0223655Y0035316D01*
X0223645Y0035244D01*
X0223639Y0035172D01*
X0223637Y0035100D01*
X0231572Y0035100D02*
X0231572Y0031100D01*
X0234238Y0031100D02*
X0234238Y0036433D01*
X0232905Y0036433D02*
X0236905Y0036433D01*
X0236905Y0031100D01*
X0240955Y0032878D02*
X0240955Y0034656D01*
X0240954Y0034656D02*
X0240956Y0034739D01*
X0240962Y0034822D01*
X0240972Y0034905D01*
X0240985Y0034988D01*
X0241003Y0035069D01*
X0241024Y0035150D01*
X0241049Y0035229D01*
X0241078Y0035307D01*
X0241110Y0035384D01*
X0241146Y0035459D01*
X0241185Y0035533D01*
X0241228Y0035604D01*
X0241274Y0035674D01*
X0241324Y0035741D01*
X0241376Y0035806D01*
X0241431Y0035868D01*
X0241490Y0035928D01*
X0241551Y0035985D01*
X0241614Y0036039D01*
X0241680Y0036090D01*
X0241749Y0036137D01*
X0241819Y0036182D01*
X0241892Y0036223D01*
X0241966Y0036260D01*
X0242042Y0036295D01*
X0242120Y0036325D01*
X0242198Y0036352D01*
X0242279Y0036375D01*
X0242360Y0036395D01*
X0242442Y0036410D01*
X0242524Y0036422D01*
X0242607Y0036430D01*
X0242690Y0036434D01*
X0242774Y0036434D01*
X0242857Y0036430D01*
X0242940Y0036422D01*
X0243022Y0036410D01*
X0243104Y0036395D01*
X0243185Y0036375D01*
X0243266Y0036352D01*
X0243344Y0036325D01*
X0243422Y0036295D01*
X0243498Y0036260D01*
X0243572Y0036223D01*
X0243645Y0036182D01*
X0243715Y0036137D01*
X0243784Y0036090D01*
X0243850Y0036039D01*
X0243913Y0035985D01*
X0243974Y0035928D01*
X0244033Y0035868D01*
X0244088Y0035806D01*
X0244140Y0035741D01*
X0244190Y0035674D01*
X0244236Y0035604D01*
X0244279Y0035533D01*
X0244318Y0035459D01*
X0244354Y0035384D01*
X0244386Y0035307D01*
X0244415Y0035229D01*
X0244440Y0035150D01*
X0244461Y0035069D01*
X0244479Y0034988D01*
X0244492Y0034905D01*
X0244502Y0034822D01*
X0244508Y0034739D01*
X0244510Y0034656D01*
X0244510Y0032878D01*
X0244508Y0032795D01*
X0244502Y0032712D01*
X0244492Y0032629D01*
X0244479Y0032546D01*
X0244461Y0032465D01*
X0244440Y0032384D01*
X0244415Y0032305D01*
X0244386Y0032227D01*
X0244354Y0032150D01*
X0244318Y0032075D01*
X0244279Y0032001D01*
X0244236Y0031930D01*
X0244190Y0031860D01*
X0244140Y0031793D01*
X0244088Y0031728D01*
X0244033Y0031666D01*
X0243974Y0031606D01*
X0243913Y0031549D01*
X0243850Y0031495D01*
X0243784Y0031444D01*
X0243715Y0031397D01*
X0243645Y0031352D01*
X0243572Y0031311D01*
X0243498Y0031274D01*
X0243422Y0031239D01*
X0243344Y0031209D01*
X0243266Y0031182D01*
X0243185Y0031159D01*
X0243104Y0031139D01*
X0243022Y0031124D01*
X0242940Y0031112D01*
X0242857Y0031104D01*
X0242774Y0031100D01*
X0242690Y0031100D01*
X0242607Y0031104D01*
X0242524Y0031112D01*
X0242442Y0031124D01*
X0242360Y0031139D01*
X0242279Y0031159D01*
X0242198Y0031182D01*
X0242120Y0031209D01*
X0242042Y0031239D01*
X0241966Y0031274D01*
X0241892Y0031311D01*
X0241819Y0031352D01*
X0241749Y0031397D01*
X0241680Y0031444D01*
X0241614Y0031495D01*
X0241551Y0031549D01*
X0241490Y0031606D01*
X0241431Y0031666D01*
X0241376Y0031728D01*
X0241324Y0031793D01*
X0241274Y0031860D01*
X0241228Y0031930D01*
X0241185Y0032001D01*
X0241146Y0032075D01*
X0241110Y0032150D01*
X0241078Y0032227D01*
X0241049Y0032305D01*
X0241024Y0032384D01*
X0241003Y0032465D01*
X0240985Y0032546D01*
X0240972Y0032629D01*
X0240962Y0032712D01*
X0240956Y0032795D01*
X0240954Y0032878D01*
X0247727Y0031100D02*
X0249505Y0031100D01*
X0249587Y0031102D01*
X0249669Y0031108D01*
X0249751Y0031117D01*
X0249832Y0031130D01*
X0249912Y0031147D01*
X0249992Y0031168D01*
X0250070Y0031192D01*
X0250147Y0031220D01*
X0250223Y0031251D01*
X0250298Y0031286D01*
X0250370Y0031325D01*
X0250441Y0031366D01*
X0250510Y0031411D01*
X0250576Y0031459D01*
X0250641Y0031510D01*
X0250703Y0031564D01*
X0250762Y0031621D01*
X0250819Y0031680D01*
X0250873Y0031742D01*
X0250924Y0031807D01*
X0250972Y0031873D01*
X0251017Y0031942D01*
X0251058Y0032013D01*
X0251097Y0032085D01*
X0251132Y0032160D01*
X0251163Y0032236D01*
X0251191Y0032313D01*
X0251215Y0032391D01*
X0251236Y0032471D01*
X0251253Y0032551D01*
X0251266Y0032632D01*
X0251275Y0032714D01*
X0251281Y0032796D01*
X0251283Y0032878D01*
X0251283Y0037322D01*
X0251281Y0037404D01*
X0251275Y0037486D01*
X0251266Y0037568D01*
X0251253Y0037649D01*
X0251236Y0037729D01*
X0251215Y0037809D01*
X0251191Y0037887D01*
X0251163Y0037964D01*
X0251132Y0038040D01*
X0251097Y0038115D01*
X0251058Y0038187D01*
X0251017Y0038258D01*
X0250972Y0038327D01*
X0250924Y0038393D01*
X0250873Y0038458D01*
X0250819Y0038520D01*
X0250762Y0038579D01*
X0250703Y0038636D01*
X0250641Y0038690D01*
X0250576Y0038741D01*
X0250510Y0038789D01*
X0250441Y0038834D01*
X0250370Y0038875D01*
X0250298Y0038914D01*
X0250223Y0038948D01*
X0250147Y0038980D01*
X0250070Y0039008D01*
X0249992Y0039032D01*
X0249912Y0039053D01*
X0249832Y0039070D01*
X0249751Y0039083D01*
X0249669Y0039092D01*
X0249587Y0039098D01*
X0249505Y0039100D01*
X0247727Y0039100D01*
X0259313Y0034656D02*
X0259313Y0033767D01*
X0262868Y0033767D01*
X0262868Y0034656D02*
X0262868Y0032433D01*
X0262866Y0032361D01*
X0262860Y0032289D01*
X0262850Y0032217D01*
X0262837Y0032146D01*
X0262819Y0032076D01*
X0262798Y0032007D01*
X0262773Y0031940D01*
X0262745Y0031873D01*
X0262713Y0031809D01*
X0262677Y0031746D01*
X0262638Y0031685D01*
X0262596Y0031626D01*
X0262551Y0031570D01*
X0262503Y0031516D01*
X0262452Y0031465D01*
X0262398Y0031417D01*
X0262342Y0031372D01*
X0262283Y0031330D01*
X0262222Y0031291D01*
X0262159Y0031255D01*
X0262095Y0031223D01*
X0262028Y0031195D01*
X0261961Y0031170D01*
X0261892Y0031149D01*
X0261822Y0031131D01*
X0261751Y0031118D01*
X0261679Y0031108D01*
X0261607Y0031102D01*
X0261535Y0031100D01*
X0259313Y0031100D01*
X0259312Y0034656D02*
X0259314Y0034739D01*
X0259320Y0034822D01*
X0259330Y0034905D01*
X0259343Y0034988D01*
X0259361Y0035069D01*
X0259382Y0035150D01*
X0259407Y0035229D01*
X0259436Y0035307D01*
X0259468Y0035384D01*
X0259504Y0035459D01*
X0259543Y0035533D01*
X0259586Y0035604D01*
X0259632Y0035674D01*
X0259682Y0035741D01*
X0259734Y0035806D01*
X0259789Y0035868D01*
X0259848Y0035928D01*
X0259909Y0035985D01*
X0259972Y0036039D01*
X0260038Y0036090D01*
X0260107Y0036137D01*
X0260177Y0036182D01*
X0260250Y0036223D01*
X0260324Y0036260D01*
X0260400Y0036295D01*
X0260478Y0036325D01*
X0260556Y0036352D01*
X0260637Y0036375D01*
X0260718Y0036395D01*
X0260800Y0036410D01*
X0260882Y0036422D01*
X0260965Y0036430D01*
X0261048Y0036434D01*
X0261132Y0036434D01*
X0261215Y0036430D01*
X0261298Y0036422D01*
X0261380Y0036410D01*
X0261462Y0036395D01*
X0261543Y0036375D01*
X0261624Y0036352D01*
X0261702Y0036325D01*
X0261780Y0036295D01*
X0261856Y0036260D01*
X0261930Y0036223D01*
X0262003Y0036182D01*
X0262073Y0036137D01*
X0262142Y0036090D01*
X0262208Y0036039D01*
X0262271Y0035985D01*
X0262332Y0035928D01*
X0262391Y0035868D01*
X0262446Y0035806D01*
X0262498Y0035741D01*
X0262548Y0035674D01*
X0262594Y0035604D01*
X0262637Y0035533D01*
X0262676Y0035459D01*
X0262712Y0035384D01*
X0262744Y0035307D01*
X0262773Y0035229D01*
X0262798Y0035150D01*
X0262819Y0035069D01*
X0262837Y0034988D01*
X0262850Y0034905D01*
X0262860Y0034822D01*
X0262866Y0034739D01*
X0262868Y0034656D01*
X0266767Y0036433D02*
X0268989Y0036433D01*
X0269061Y0036431D01*
X0269133Y0036425D01*
X0269205Y0036415D01*
X0269276Y0036402D01*
X0269346Y0036384D01*
X0269415Y0036363D01*
X0269482Y0036338D01*
X0269549Y0036310D01*
X0269613Y0036278D01*
X0269676Y0036242D01*
X0269737Y0036203D01*
X0269796Y0036161D01*
X0269852Y0036116D01*
X0269906Y0036068D01*
X0269957Y0036017D01*
X0270005Y0035963D01*
X0270050Y0035907D01*
X0270092Y0035848D01*
X0270131Y0035787D01*
X0270167Y0035724D01*
X0270199Y0035660D01*
X0270227Y0035593D01*
X0270252Y0035526D01*
X0270273Y0035457D01*
X0270291Y0035387D01*
X0270304Y0035316D01*
X0270314Y0035244D01*
X0270320Y0035172D01*
X0270322Y0035100D01*
X0270322Y0032433D01*
X0270320Y0032361D01*
X0270314Y0032289D01*
X0270304Y0032217D01*
X0270291Y0032146D01*
X0270273Y0032076D01*
X0270252Y0032007D01*
X0270227Y0031940D01*
X0270199Y0031873D01*
X0270167Y0031809D01*
X0270131Y0031746D01*
X0270092Y0031685D01*
X0270050Y0031626D01*
X0270005Y0031570D01*
X0269957Y0031516D01*
X0269906Y0031465D01*
X0269852Y0031417D01*
X0269796Y0031372D01*
X0269737Y0031330D01*
X0269676Y0031291D01*
X0269613Y0031255D01*
X0269549Y0031223D01*
X0269482Y0031195D01*
X0269415Y0031170D01*
X0269346Y0031149D01*
X0269276Y0031131D01*
X0269205Y0031118D01*
X0269133Y0031108D01*
X0269061Y0031102D01*
X0268989Y0031100D01*
X0266767Y0031100D01*
X0266767Y0039100D01*
X0278549Y0035100D02*
X0278549Y0031100D01*
X0280549Y0031100D01*
X0280627Y0031102D01*
X0280704Y0031108D01*
X0280781Y0031117D01*
X0280857Y0031131D01*
X0280933Y0031148D01*
X0281008Y0031169D01*
X0281081Y0031194D01*
X0281153Y0031222D01*
X0281224Y0031254D01*
X0281293Y0031289D01*
X0281360Y0031328D01*
X0281426Y0031370D01*
X0281489Y0031416D01*
X0281549Y0031464D01*
X0281607Y0031515D01*
X0281663Y0031570D01*
X0281716Y0031626D01*
X0281766Y0031686D01*
X0281812Y0031748D01*
X0281856Y0031812D01*
X0281897Y0031878D01*
X0281934Y0031946D01*
X0281967Y0032016D01*
X0281997Y0032088D01*
X0282024Y0032160D01*
X0282047Y0032235D01*
X0282066Y0032310D01*
X0282081Y0032386D01*
X0282093Y0032463D01*
X0282101Y0032540D01*
X0282105Y0032617D01*
X0282105Y0032695D01*
X0282101Y0032772D01*
X0282093Y0032849D01*
X0282081Y0032926D01*
X0282066Y0033002D01*
X0282047Y0033077D01*
X0282024Y0033152D01*
X0281997Y0033224D01*
X0281967Y0033296D01*
X0281934Y0033366D01*
X0281897Y0033434D01*
X0281856Y0033500D01*
X0281812Y0033564D01*
X0281766Y0033626D01*
X0281716Y0033686D01*
X0281663Y0033742D01*
X0281607Y0033797D01*
X0281549Y0033848D01*
X0281489Y0033896D01*
X0281426Y0033942D01*
X0281360Y0033984D01*
X0281293Y0034023D01*
X0281224Y0034058D01*
X0281153Y0034090D01*
X0281081Y0034118D01*
X0281008Y0034143D01*
X0280933Y0034164D01*
X0280857Y0034181D01*
X0280781Y0034195D01*
X0280704Y0034204D01*
X0280627Y0034210D01*
X0280549Y0034212D01*
X0280549Y0034211D02*
X0278549Y0034211D01*
X0278549Y0035100D02*
X0278551Y0035172D01*
X0278557Y0035244D01*
X0278567Y0035316D01*
X0278580Y0035387D01*
X0278598Y0035457D01*
X0278619Y0035526D01*
X0278644Y0035593D01*
X0278672Y0035660D01*
X0278704Y0035724D01*
X0278740Y0035787D01*
X0278779Y0035848D01*
X0278821Y0035907D01*
X0278866Y0035963D01*
X0278914Y0036017D01*
X0278965Y0036068D01*
X0279019Y0036116D01*
X0279075Y0036161D01*
X0279134Y0036203D01*
X0279195Y0036242D01*
X0279258Y0036278D01*
X0279322Y0036310D01*
X0279389Y0036338D01*
X0279456Y0036363D01*
X0279525Y0036384D01*
X0279595Y0036402D01*
X0279666Y0036415D01*
X0279738Y0036425D01*
X0279810Y0036431D01*
X0279882Y0036433D01*
X0281660Y0036433D01*
X0284791Y0036433D02*
X0284791Y0035544D01*
X0284791Y0036433D02*
X0287457Y0036433D01*
X0287457Y0031100D01*
X0291645Y0031100D02*
X0291645Y0036433D01*
X0295200Y0036433D02*
X0295200Y0032433D01*
X0295198Y0032361D01*
X0295192Y0032289D01*
X0295182Y0032217D01*
X0295169Y0032146D01*
X0295151Y0032076D01*
X0295130Y0032007D01*
X0295105Y0031940D01*
X0295077Y0031873D01*
X0295045Y0031809D01*
X0295009Y0031746D01*
X0294970Y0031685D01*
X0294928Y0031626D01*
X0294883Y0031570D01*
X0294835Y0031516D01*
X0294784Y0031465D01*
X0294730Y0031417D01*
X0294674Y0031372D01*
X0294615Y0031330D01*
X0294554Y0031291D01*
X0294491Y0031255D01*
X0294427Y0031223D01*
X0294360Y0031195D01*
X0294293Y0031170D01*
X0294224Y0031149D01*
X0294154Y0031131D01*
X0294083Y0031118D01*
X0294011Y0031108D01*
X0293939Y0031102D01*
X0293867Y0031100D01*
X0291645Y0031100D01*
X0298758Y0031100D02*
X0299202Y0031100D01*
X0299274Y0031102D01*
X0299346Y0031108D01*
X0299418Y0031118D01*
X0299489Y0031131D01*
X0299559Y0031149D01*
X0299628Y0031170D01*
X0299695Y0031195D01*
X0299762Y0031223D01*
X0299826Y0031255D01*
X0299889Y0031291D01*
X0299950Y0031330D01*
X0300009Y0031372D01*
X0300065Y0031417D01*
X0300119Y0031465D01*
X0300170Y0031516D01*
X0300218Y0031570D01*
X0300263Y0031626D01*
X0300305Y0031685D01*
X0300344Y0031746D01*
X0300380Y0031809D01*
X0300412Y0031873D01*
X0300440Y0031940D01*
X0300465Y0032007D01*
X0300486Y0032076D01*
X0300504Y0032146D01*
X0300517Y0032217D01*
X0300527Y0032289D01*
X0300533Y0032361D01*
X0300535Y0032433D01*
X0300535Y0039100D01*
X0301424Y0036433D02*
X0298758Y0036433D01*
X0304248Y0034656D02*
X0304248Y0033767D01*
X0307804Y0033767D01*
X0307804Y0034656D02*
X0307804Y0032433D01*
X0307802Y0032361D01*
X0307796Y0032289D01*
X0307786Y0032217D01*
X0307773Y0032146D01*
X0307755Y0032076D01*
X0307734Y0032007D01*
X0307709Y0031940D01*
X0307681Y0031873D01*
X0307649Y0031809D01*
X0307613Y0031746D01*
X0307574Y0031685D01*
X0307532Y0031626D01*
X0307487Y0031570D01*
X0307439Y0031516D01*
X0307388Y0031465D01*
X0307334Y0031417D01*
X0307278Y0031372D01*
X0307219Y0031330D01*
X0307158Y0031291D01*
X0307095Y0031255D01*
X0307031Y0031223D01*
X0306964Y0031195D01*
X0306897Y0031170D01*
X0306828Y0031149D01*
X0306758Y0031131D01*
X0306687Y0031118D01*
X0306615Y0031108D01*
X0306543Y0031102D01*
X0306471Y0031100D01*
X0304248Y0031100D01*
X0304248Y0034656D02*
X0304250Y0034739D01*
X0304256Y0034822D01*
X0304266Y0034905D01*
X0304279Y0034988D01*
X0304297Y0035069D01*
X0304318Y0035150D01*
X0304343Y0035229D01*
X0304372Y0035307D01*
X0304404Y0035384D01*
X0304440Y0035459D01*
X0304479Y0035533D01*
X0304522Y0035604D01*
X0304568Y0035674D01*
X0304618Y0035741D01*
X0304670Y0035806D01*
X0304725Y0035868D01*
X0304784Y0035928D01*
X0304845Y0035985D01*
X0304908Y0036039D01*
X0304974Y0036090D01*
X0305043Y0036137D01*
X0305113Y0036182D01*
X0305186Y0036223D01*
X0305260Y0036260D01*
X0305336Y0036295D01*
X0305414Y0036325D01*
X0305492Y0036352D01*
X0305573Y0036375D01*
X0305654Y0036395D01*
X0305736Y0036410D01*
X0305818Y0036422D01*
X0305901Y0036430D01*
X0305984Y0036434D01*
X0306068Y0036434D01*
X0306151Y0036430D01*
X0306234Y0036422D01*
X0306316Y0036410D01*
X0306398Y0036395D01*
X0306479Y0036375D01*
X0306560Y0036352D01*
X0306638Y0036325D01*
X0306716Y0036295D01*
X0306792Y0036260D01*
X0306866Y0036223D01*
X0306939Y0036182D01*
X0307009Y0036137D01*
X0307078Y0036090D01*
X0307144Y0036039D01*
X0307207Y0035985D01*
X0307268Y0035928D01*
X0307327Y0035868D01*
X0307382Y0035806D01*
X0307434Y0035741D01*
X0307484Y0035674D01*
X0307530Y0035604D01*
X0307573Y0035533D01*
X0307612Y0035459D01*
X0307648Y0035384D01*
X0307680Y0035307D01*
X0307709Y0035229D01*
X0307734Y0035150D01*
X0307755Y0035069D01*
X0307773Y0034988D01*
X0307786Y0034905D01*
X0307796Y0034822D01*
X0307802Y0034739D01*
X0307804Y0034656D01*
X0311088Y0036433D02*
X0313754Y0036433D01*
X0316438Y0036433D02*
X0316438Y0031100D01*
X0320140Y0031100D02*
X0320140Y0036433D01*
X0323696Y0036433D02*
X0323696Y0032433D01*
X0323694Y0032361D01*
X0323688Y0032289D01*
X0323678Y0032217D01*
X0323665Y0032146D01*
X0323647Y0032076D01*
X0323626Y0032007D01*
X0323601Y0031940D01*
X0323573Y0031873D01*
X0323541Y0031809D01*
X0323505Y0031746D01*
X0323466Y0031685D01*
X0323424Y0031626D01*
X0323379Y0031570D01*
X0323331Y0031516D01*
X0323280Y0031465D01*
X0323226Y0031417D01*
X0323170Y0031372D01*
X0323111Y0031330D01*
X0323050Y0031291D01*
X0322987Y0031255D01*
X0322923Y0031223D01*
X0322856Y0031195D01*
X0322789Y0031170D01*
X0322720Y0031149D01*
X0322650Y0031131D01*
X0322579Y0031118D01*
X0322507Y0031108D01*
X0322435Y0031102D01*
X0322363Y0031100D01*
X0320140Y0031100D01*
X0312865Y0032433D02*
X0312865Y0039100D01*
X0316216Y0039100D02*
X0316216Y0038656D01*
X0316660Y0038656D01*
X0316660Y0039100D01*
X0316216Y0039100D01*
X0312865Y0032433D02*
X0312863Y0032361D01*
X0312857Y0032289D01*
X0312847Y0032217D01*
X0312834Y0032146D01*
X0312816Y0032076D01*
X0312795Y0032007D01*
X0312770Y0031940D01*
X0312742Y0031873D01*
X0312710Y0031809D01*
X0312674Y0031746D01*
X0312635Y0031685D01*
X0312593Y0031626D01*
X0312548Y0031570D01*
X0312500Y0031516D01*
X0312449Y0031465D01*
X0312395Y0031417D01*
X0312339Y0031372D01*
X0312280Y0031330D01*
X0312219Y0031291D01*
X0312156Y0031255D01*
X0312092Y0031223D01*
X0312025Y0031195D01*
X0311958Y0031170D01*
X0311889Y0031149D01*
X0311819Y0031131D01*
X0311748Y0031118D01*
X0311676Y0031108D01*
X0311604Y0031102D01*
X0311532Y0031100D01*
X0311088Y0031100D01*
X0312547Y0024100D02*
X0312547Y0017433D01*
X0312545Y0017361D01*
X0312539Y0017289D01*
X0312529Y0017217D01*
X0312516Y0017146D01*
X0312498Y0017076D01*
X0312477Y0017007D01*
X0312452Y0016940D01*
X0312424Y0016873D01*
X0312392Y0016809D01*
X0312356Y0016746D01*
X0312317Y0016685D01*
X0312275Y0016626D01*
X0312230Y0016570D01*
X0312182Y0016516D01*
X0312131Y0016465D01*
X0312077Y0016417D01*
X0312021Y0016372D01*
X0311962Y0016330D01*
X0311901Y0016291D01*
X0311838Y0016255D01*
X0311774Y0016223D01*
X0311707Y0016195D01*
X0311640Y0016170D01*
X0311571Y0016149D01*
X0311501Y0016131D01*
X0311430Y0016118D01*
X0311358Y0016108D01*
X0311286Y0016102D01*
X0311214Y0016100D01*
X0308228Y0017878D02*
X0308228Y0019656D01*
X0308226Y0019739D01*
X0308220Y0019822D01*
X0308210Y0019905D01*
X0308197Y0019988D01*
X0308179Y0020069D01*
X0308158Y0020150D01*
X0308133Y0020229D01*
X0308104Y0020307D01*
X0308072Y0020384D01*
X0308036Y0020459D01*
X0307997Y0020533D01*
X0307954Y0020604D01*
X0307908Y0020674D01*
X0307858Y0020741D01*
X0307806Y0020806D01*
X0307751Y0020868D01*
X0307692Y0020928D01*
X0307631Y0020985D01*
X0307568Y0021039D01*
X0307502Y0021090D01*
X0307433Y0021137D01*
X0307363Y0021182D01*
X0307290Y0021223D01*
X0307216Y0021260D01*
X0307140Y0021295D01*
X0307062Y0021325D01*
X0306984Y0021352D01*
X0306903Y0021375D01*
X0306822Y0021395D01*
X0306740Y0021410D01*
X0306658Y0021422D01*
X0306575Y0021430D01*
X0306492Y0021434D01*
X0306408Y0021434D01*
X0306325Y0021430D01*
X0306242Y0021422D01*
X0306160Y0021410D01*
X0306078Y0021395D01*
X0305997Y0021375D01*
X0305916Y0021352D01*
X0305838Y0021325D01*
X0305760Y0021295D01*
X0305684Y0021260D01*
X0305610Y0021223D01*
X0305537Y0021182D01*
X0305467Y0021137D01*
X0305398Y0021090D01*
X0305332Y0021039D01*
X0305269Y0020985D01*
X0305208Y0020928D01*
X0305149Y0020868D01*
X0305094Y0020806D01*
X0305042Y0020741D01*
X0304992Y0020674D01*
X0304946Y0020604D01*
X0304903Y0020533D01*
X0304864Y0020459D01*
X0304828Y0020384D01*
X0304796Y0020307D01*
X0304767Y0020229D01*
X0304742Y0020150D01*
X0304721Y0020069D01*
X0304703Y0019988D01*
X0304690Y0019905D01*
X0304680Y0019822D01*
X0304674Y0019739D01*
X0304672Y0019656D01*
X0304672Y0017878D01*
X0304674Y0017795D01*
X0304680Y0017712D01*
X0304690Y0017629D01*
X0304703Y0017546D01*
X0304721Y0017465D01*
X0304742Y0017384D01*
X0304767Y0017305D01*
X0304796Y0017227D01*
X0304828Y0017150D01*
X0304864Y0017075D01*
X0304903Y0017001D01*
X0304946Y0016930D01*
X0304992Y0016860D01*
X0305042Y0016793D01*
X0305094Y0016728D01*
X0305149Y0016666D01*
X0305208Y0016606D01*
X0305269Y0016549D01*
X0305332Y0016495D01*
X0305398Y0016444D01*
X0305467Y0016397D01*
X0305537Y0016352D01*
X0305610Y0016311D01*
X0305684Y0016274D01*
X0305760Y0016239D01*
X0305838Y0016209D01*
X0305916Y0016182D01*
X0305997Y0016159D01*
X0306078Y0016139D01*
X0306160Y0016124D01*
X0306242Y0016112D01*
X0306325Y0016104D01*
X0306408Y0016100D01*
X0306492Y0016100D01*
X0306575Y0016104D01*
X0306658Y0016112D01*
X0306740Y0016124D01*
X0306822Y0016139D01*
X0306903Y0016159D01*
X0306984Y0016182D01*
X0307062Y0016209D01*
X0307140Y0016239D01*
X0307216Y0016274D01*
X0307290Y0016311D01*
X0307363Y0016352D01*
X0307433Y0016397D01*
X0307502Y0016444D01*
X0307568Y0016495D01*
X0307631Y0016549D01*
X0307692Y0016606D01*
X0307751Y0016666D01*
X0307806Y0016728D01*
X0307858Y0016793D01*
X0307908Y0016860D01*
X0307954Y0016930D01*
X0307997Y0017001D01*
X0308036Y0017075D01*
X0308072Y0017150D01*
X0308104Y0017227D01*
X0308133Y0017305D01*
X0308158Y0017384D01*
X0308179Y0017465D01*
X0308197Y0017546D01*
X0308210Y0017629D01*
X0308220Y0017712D01*
X0308226Y0017795D01*
X0308228Y0017878D01*
X0315598Y0016100D02*
X0315670Y0016102D01*
X0315742Y0016108D01*
X0315814Y0016118D01*
X0315885Y0016131D01*
X0315955Y0016149D01*
X0316024Y0016170D01*
X0316091Y0016195D01*
X0316158Y0016223D01*
X0316222Y0016255D01*
X0316285Y0016291D01*
X0316346Y0016330D01*
X0316405Y0016372D01*
X0316461Y0016417D01*
X0316515Y0016465D01*
X0316566Y0016516D01*
X0316614Y0016570D01*
X0316659Y0016626D01*
X0316701Y0016685D01*
X0316740Y0016746D01*
X0316776Y0016809D01*
X0316808Y0016873D01*
X0316836Y0016940D01*
X0316861Y0017007D01*
X0316882Y0017076D01*
X0316900Y0017146D01*
X0316913Y0017217D01*
X0316923Y0017289D01*
X0316929Y0017361D01*
X0316931Y0017433D01*
X0316931Y0024100D01*
X0320564Y0019656D02*
X0320564Y0018767D01*
X0324119Y0018767D01*
X0324119Y0019656D02*
X0324119Y0017433D01*
X0324117Y0017361D01*
X0324111Y0017289D01*
X0324101Y0017217D01*
X0324088Y0017146D01*
X0324070Y0017076D01*
X0324049Y0017007D01*
X0324024Y0016940D01*
X0323996Y0016873D01*
X0323964Y0016809D01*
X0323928Y0016746D01*
X0323889Y0016685D01*
X0323847Y0016626D01*
X0323802Y0016570D01*
X0323754Y0016516D01*
X0323703Y0016465D01*
X0323649Y0016417D01*
X0323593Y0016372D01*
X0323534Y0016330D01*
X0323473Y0016291D01*
X0323410Y0016255D01*
X0323346Y0016223D01*
X0323279Y0016195D01*
X0323212Y0016170D01*
X0323143Y0016149D01*
X0323073Y0016131D01*
X0323002Y0016118D01*
X0322930Y0016108D01*
X0322858Y0016102D01*
X0322786Y0016100D01*
X0320564Y0016100D01*
X0320564Y0019656D02*
X0320566Y0019739D01*
X0320572Y0019822D01*
X0320582Y0019905D01*
X0320595Y0019988D01*
X0320613Y0020069D01*
X0320634Y0020150D01*
X0320659Y0020229D01*
X0320688Y0020307D01*
X0320720Y0020384D01*
X0320756Y0020459D01*
X0320795Y0020533D01*
X0320838Y0020604D01*
X0320884Y0020674D01*
X0320934Y0020741D01*
X0320986Y0020806D01*
X0321041Y0020868D01*
X0321100Y0020928D01*
X0321161Y0020985D01*
X0321224Y0021039D01*
X0321290Y0021090D01*
X0321359Y0021137D01*
X0321429Y0021182D01*
X0321502Y0021223D01*
X0321576Y0021260D01*
X0321652Y0021295D01*
X0321730Y0021325D01*
X0321808Y0021352D01*
X0321889Y0021375D01*
X0321970Y0021395D01*
X0322052Y0021410D01*
X0322134Y0021422D01*
X0322217Y0021430D01*
X0322300Y0021434D01*
X0322384Y0021434D01*
X0322467Y0021430D01*
X0322550Y0021422D01*
X0322632Y0021410D01*
X0322714Y0021395D01*
X0322795Y0021375D01*
X0322876Y0021352D01*
X0322954Y0021325D01*
X0323032Y0021295D01*
X0323108Y0021260D01*
X0323182Y0021223D01*
X0323255Y0021182D01*
X0323325Y0021137D01*
X0323394Y0021090D01*
X0323460Y0021039D01*
X0323523Y0020985D01*
X0323584Y0020928D01*
X0323643Y0020868D01*
X0323698Y0020806D01*
X0323750Y0020741D01*
X0323800Y0020674D01*
X0323846Y0020604D01*
X0323889Y0020533D01*
X0323928Y0020459D01*
X0323964Y0020384D01*
X0323996Y0020307D01*
X0324025Y0020229D01*
X0324050Y0020150D01*
X0324071Y0020069D01*
X0324089Y0019988D01*
X0324102Y0019905D01*
X0324112Y0019822D01*
X0324118Y0019739D01*
X0324120Y0019656D01*
X0328169Y0016100D02*
X0328169Y0024100D01*
X0330836Y0019656D01*
X0333502Y0024100D01*
X0333502Y0016100D01*
X0341936Y0017878D02*
X0341936Y0019656D01*
X0341938Y0019739D01*
X0341944Y0019822D01*
X0341954Y0019905D01*
X0341967Y0019988D01*
X0341985Y0020069D01*
X0342006Y0020150D01*
X0342031Y0020229D01*
X0342060Y0020307D01*
X0342092Y0020384D01*
X0342128Y0020459D01*
X0342167Y0020533D01*
X0342210Y0020604D01*
X0342256Y0020674D01*
X0342306Y0020741D01*
X0342358Y0020806D01*
X0342413Y0020868D01*
X0342472Y0020928D01*
X0342533Y0020985D01*
X0342596Y0021039D01*
X0342662Y0021090D01*
X0342731Y0021137D01*
X0342801Y0021182D01*
X0342874Y0021223D01*
X0342948Y0021260D01*
X0343024Y0021295D01*
X0343102Y0021325D01*
X0343180Y0021352D01*
X0343261Y0021375D01*
X0343342Y0021395D01*
X0343424Y0021410D01*
X0343506Y0021422D01*
X0343589Y0021430D01*
X0343672Y0021434D01*
X0343756Y0021434D01*
X0343839Y0021430D01*
X0343922Y0021422D01*
X0344004Y0021410D01*
X0344086Y0021395D01*
X0344167Y0021375D01*
X0344248Y0021352D01*
X0344326Y0021325D01*
X0344404Y0021295D01*
X0344480Y0021260D01*
X0344554Y0021223D01*
X0344627Y0021182D01*
X0344697Y0021137D01*
X0344766Y0021090D01*
X0344832Y0021039D01*
X0344895Y0020985D01*
X0344956Y0020928D01*
X0345015Y0020868D01*
X0345070Y0020806D01*
X0345122Y0020741D01*
X0345172Y0020674D01*
X0345218Y0020604D01*
X0345261Y0020533D01*
X0345300Y0020459D01*
X0345336Y0020384D01*
X0345368Y0020307D01*
X0345397Y0020229D01*
X0345422Y0020150D01*
X0345443Y0020069D01*
X0345461Y0019988D01*
X0345474Y0019905D01*
X0345484Y0019822D01*
X0345490Y0019739D01*
X0345492Y0019656D01*
X0345491Y0019656D02*
X0345491Y0017878D01*
X0345492Y0017878D02*
X0345490Y0017795D01*
X0345484Y0017712D01*
X0345474Y0017629D01*
X0345461Y0017546D01*
X0345443Y0017465D01*
X0345422Y0017384D01*
X0345397Y0017305D01*
X0345368Y0017227D01*
X0345336Y0017150D01*
X0345300Y0017075D01*
X0345261Y0017001D01*
X0345218Y0016930D01*
X0345172Y0016860D01*
X0345122Y0016793D01*
X0345070Y0016728D01*
X0345015Y0016666D01*
X0344956Y0016606D01*
X0344895Y0016549D01*
X0344832Y0016495D01*
X0344766Y0016444D01*
X0344697Y0016397D01*
X0344627Y0016352D01*
X0344554Y0016311D01*
X0344480Y0016274D01*
X0344404Y0016239D01*
X0344326Y0016209D01*
X0344248Y0016182D01*
X0344167Y0016159D01*
X0344086Y0016139D01*
X0344004Y0016124D01*
X0343922Y0016112D01*
X0343839Y0016104D01*
X0343756Y0016100D01*
X0343672Y0016100D01*
X0343589Y0016104D01*
X0343506Y0016112D01*
X0343424Y0016124D01*
X0343342Y0016139D01*
X0343261Y0016159D01*
X0343180Y0016182D01*
X0343102Y0016209D01*
X0343024Y0016239D01*
X0342948Y0016274D01*
X0342874Y0016311D01*
X0342801Y0016352D01*
X0342731Y0016397D01*
X0342662Y0016444D01*
X0342596Y0016495D01*
X0342533Y0016549D01*
X0342472Y0016606D01*
X0342413Y0016666D01*
X0342358Y0016728D01*
X0342306Y0016793D01*
X0342256Y0016860D01*
X0342210Y0016930D01*
X0342167Y0017001D01*
X0342128Y0017075D01*
X0342092Y0017150D01*
X0342060Y0017227D01*
X0342031Y0017305D01*
X0342006Y0017384D01*
X0341985Y0017465D01*
X0341967Y0017546D01*
X0341954Y0017629D01*
X0341944Y0017712D01*
X0341938Y0017795D01*
X0341936Y0017878D01*
X0348666Y0016100D02*
X0350444Y0016100D01*
X0350516Y0016102D01*
X0350588Y0016108D01*
X0350660Y0016118D01*
X0350731Y0016131D01*
X0350801Y0016149D01*
X0350870Y0016170D01*
X0350937Y0016195D01*
X0351004Y0016223D01*
X0351068Y0016255D01*
X0351131Y0016291D01*
X0351192Y0016330D01*
X0351251Y0016372D01*
X0351307Y0016417D01*
X0351361Y0016465D01*
X0351412Y0016516D01*
X0351460Y0016570D01*
X0351505Y0016626D01*
X0351547Y0016685D01*
X0351586Y0016746D01*
X0351622Y0016809D01*
X0351654Y0016873D01*
X0351682Y0016940D01*
X0351707Y0017007D01*
X0351728Y0017076D01*
X0351746Y0017146D01*
X0351759Y0017217D01*
X0351769Y0017289D01*
X0351775Y0017361D01*
X0351777Y0017433D01*
X0351777Y0020100D01*
X0351775Y0020172D01*
X0351769Y0020244D01*
X0351759Y0020316D01*
X0351746Y0020387D01*
X0351728Y0020457D01*
X0351707Y0020526D01*
X0351682Y0020593D01*
X0351654Y0020660D01*
X0351622Y0020724D01*
X0351586Y0020787D01*
X0351547Y0020848D01*
X0351505Y0020907D01*
X0351460Y0020963D01*
X0351412Y0021017D01*
X0351361Y0021068D01*
X0351307Y0021116D01*
X0351251Y0021161D01*
X0351192Y0021203D01*
X0351131Y0021242D01*
X0351068Y0021278D01*
X0351004Y0021310D01*
X0350937Y0021338D01*
X0350870Y0021363D01*
X0350801Y0021384D01*
X0350731Y0021402D01*
X0350660Y0021415D01*
X0350588Y0021425D01*
X0350516Y0021431D01*
X0350444Y0021433D01*
X0348666Y0021433D01*
X0354536Y0021433D02*
X0354536Y0020544D01*
X0354536Y0021433D02*
X0357203Y0021433D01*
X0357203Y0016100D01*
X0361446Y0016100D02*
X0361446Y0020100D01*
X0361446Y0019211D02*
X0363446Y0019211D01*
X0361446Y0020100D02*
X0361448Y0020172D01*
X0361454Y0020244D01*
X0361464Y0020316D01*
X0361477Y0020387D01*
X0361495Y0020457D01*
X0361516Y0020526D01*
X0361541Y0020593D01*
X0361569Y0020660D01*
X0361601Y0020724D01*
X0361637Y0020787D01*
X0361676Y0020848D01*
X0361718Y0020907D01*
X0361763Y0020963D01*
X0361811Y0021017D01*
X0361862Y0021068D01*
X0361916Y0021116D01*
X0361972Y0021161D01*
X0362031Y0021203D01*
X0362092Y0021242D01*
X0362155Y0021278D01*
X0362219Y0021310D01*
X0362286Y0021338D01*
X0362353Y0021363D01*
X0362422Y0021384D01*
X0362492Y0021402D01*
X0362563Y0021415D01*
X0362635Y0021425D01*
X0362707Y0021431D01*
X0362779Y0021433D01*
X0364557Y0021433D01*
X0363446Y0019212D02*
X0363524Y0019210D01*
X0363601Y0019204D01*
X0363678Y0019195D01*
X0363754Y0019181D01*
X0363830Y0019164D01*
X0363905Y0019143D01*
X0363978Y0019118D01*
X0364050Y0019090D01*
X0364121Y0019058D01*
X0364190Y0019023D01*
X0364257Y0018984D01*
X0364323Y0018942D01*
X0364386Y0018896D01*
X0364446Y0018848D01*
X0364504Y0018797D01*
X0364560Y0018742D01*
X0364613Y0018686D01*
X0364663Y0018626D01*
X0364709Y0018564D01*
X0364753Y0018500D01*
X0364794Y0018434D01*
X0364831Y0018366D01*
X0364864Y0018296D01*
X0364894Y0018224D01*
X0364921Y0018152D01*
X0364944Y0018077D01*
X0364963Y0018002D01*
X0364978Y0017926D01*
X0364990Y0017849D01*
X0364998Y0017772D01*
X0365002Y0017695D01*
X0365002Y0017617D01*
X0364998Y0017540D01*
X0364990Y0017463D01*
X0364978Y0017386D01*
X0364963Y0017310D01*
X0364944Y0017235D01*
X0364921Y0017160D01*
X0364894Y0017088D01*
X0364864Y0017016D01*
X0364831Y0016946D01*
X0364794Y0016878D01*
X0364753Y0016812D01*
X0364709Y0016748D01*
X0364663Y0016686D01*
X0364613Y0016626D01*
X0364560Y0016570D01*
X0364504Y0016515D01*
X0364446Y0016464D01*
X0364386Y0016416D01*
X0364323Y0016370D01*
X0364257Y0016328D01*
X0364190Y0016289D01*
X0364121Y0016254D01*
X0364050Y0016222D01*
X0363978Y0016194D01*
X0363905Y0016169D01*
X0363830Y0016148D01*
X0363754Y0016131D01*
X0363678Y0016117D01*
X0363601Y0016108D01*
X0363524Y0016102D01*
X0363446Y0016100D01*
X0361446Y0016100D01*
X0368995Y0016100D02*
X0368995Y0024100D01*
X0371662Y0019656D01*
X0374328Y0024100D01*
X0374328Y0016100D01*
X0374529Y0031100D02*
X0370974Y0031100D01*
X0374529Y0031100D02*
X0374529Y0039100D01*
X0367422Y0036433D02*
X0365644Y0036433D01*
X0365572Y0036431D01*
X0365500Y0036425D01*
X0365428Y0036415D01*
X0365357Y0036402D01*
X0365287Y0036384D01*
X0365218Y0036363D01*
X0365151Y0036338D01*
X0365084Y0036310D01*
X0365020Y0036278D01*
X0364957Y0036242D01*
X0364896Y0036203D01*
X0364837Y0036161D01*
X0364781Y0036116D01*
X0364727Y0036068D01*
X0364676Y0036017D01*
X0364628Y0035963D01*
X0364583Y0035907D01*
X0364541Y0035848D01*
X0364502Y0035787D01*
X0364466Y0035724D01*
X0364434Y0035660D01*
X0364406Y0035593D01*
X0364381Y0035526D01*
X0364360Y0035457D01*
X0364342Y0035387D01*
X0364329Y0035316D01*
X0364319Y0035244D01*
X0364313Y0035172D01*
X0364311Y0035100D01*
X0364311Y0031100D01*
X0366311Y0031100D01*
X0366389Y0031102D01*
X0366466Y0031108D01*
X0366543Y0031117D01*
X0366619Y0031131D01*
X0366695Y0031148D01*
X0366770Y0031169D01*
X0366843Y0031194D01*
X0366915Y0031222D01*
X0366986Y0031254D01*
X0367055Y0031289D01*
X0367122Y0031328D01*
X0367188Y0031370D01*
X0367251Y0031416D01*
X0367311Y0031464D01*
X0367369Y0031515D01*
X0367425Y0031570D01*
X0367478Y0031626D01*
X0367528Y0031686D01*
X0367574Y0031748D01*
X0367618Y0031812D01*
X0367659Y0031878D01*
X0367696Y0031946D01*
X0367729Y0032016D01*
X0367759Y0032088D01*
X0367786Y0032160D01*
X0367809Y0032235D01*
X0367828Y0032310D01*
X0367843Y0032386D01*
X0367855Y0032463D01*
X0367863Y0032540D01*
X0367867Y0032617D01*
X0367867Y0032695D01*
X0367863Y0032772D01*
X0367855Y0032849D01*
X0367843Y0032926D01*
X0367828Y0033002D01*
X0367809Y0033077D01*
X0367786Y0033152D01*
X0367759Y0033224D01*
X0367729Y0033296D01*
X0367696Y0033366D01*
X0367659Y0033434D01*
X0367618Y0033500D01*
X0367574Y0033564D01*
X0367528Y0033626D01*
X0367478Y0033686D01*
X0367425Y0033742D01*
X0367369Y0033797D01*
X0367311Y0033848D01*
X0367251Y0033896D01*
X0367188Y0033942D01*
X0367122Y0033984D01*
X0367055Y0034023D01*
X0366986Y0034058D01*
X0366915Y0034090D01*
X0366843Y0034118D01*
X0366770Y0034143D01*
X0366695Y0034164D01*
X0366619Y0034181D01*
X0366543Y0034195D01*
X0366466Y0034204D01*
X0366389Y0034210D01*
X0366311Y0034212D01*
X0366311Y0034211D02*
X0364311Y0034211D01*
X0360082Y0036433D02*
X0357859Y0036433D01*
X0357787Y0036431D01*
X0357715Y0036425D01*
X0357643Y0036415D01*
X0357572Y0036402D01*
X0357502Y0036384D01*
X0357433Y0036363D01*
X0357366Y0036338D01*
X0357299Y0036310D01*
X0357235Y0036278D01*
X0357172Y0036242D01*
X0357111Y0036203D01*
X0357052Y0036161D01*
X0356996Y0036116D01*
X0356942Y0036068D01*
X0356891Y0036017D01*
X0356843Y0035963D01*
X0356798Y0035907D01*
X0356756Y0035848D01*
X0356717Y0035787D01*
X0356681Y0035724D01*
X0356649Y0035660D01*
X0356621Y0035593D01*
X0356596Y0035526D01*
X0356575Y0035457D01*
X0356557Y0035387D01*
X0356544Y0035316D01*
X0356534Y0035244D01*
X0356528Y0035172D01*
X0356526Y0035100D01*
X0356526Y0032433D01*
X0356528Y0032361D01*
X0356534Y0032289D01*
X0356544Y0032217D01*
X0356557Y0032146D01*
X0356575Y0032076D01*
X0356596Y0032007D01*
X0356621Y0031940D01*
X0356649Y0031873D01*
X0356681Y0031809D01*
X0356717Y0031746D01*
X0356756Y0031685D01*
X0356798Y0031626D01*
X0356843Y0031570D01*
X0356891Y0031516D01*
X0356942Y0031465D01*
X0356996Y0031417D01*
X0357052Y0031372D01*
X0357111Y0031330D01*
X0357172Y0031291D01*
X0357235Y0031255D01*
X0357299Y0031223D01*
X0357366Y0031195D01*
X0357433Y0031170D01*
X0357502Y0031149D01*
X0357572Y0031131D01*
X0357643Y0031118D01*
X0357715Y0031108D01*
X0357787Y0031102D01*
X0357859Y0031100D01*
X0360082Y0031100D01*
X0360082Y0039100D01*
X0353376Y0031544D02*
X0352932Y0031544D01*
X0352932Y0031100D01*
X0353376Y0031100D01*
X0353376Y0031544D01*
X0345683Y0031100D02*
X0343016Y0039100D01*
X0340349Y0031100D01*
X0341016Y0033100D02*
X0345016Y0033100D01*
X0336777Y0031100D02*
X0336777Y0036433D01*
X0334111Y0036433D01*
X0334111Y0035544D01*
X0331424Y0035100D02*
X0331424Y0032433D01*
X0331422Y0032361D01*
X0331416Y0032289D01*
X0331406Y0032217D01*
X0331393Y0032146D01*
X0331375Y0032076D01*
X0331354Y0032007D01*
X0331329Y0031940D01*
X0331301Y0031873D01*
X0331269Y0031809D01*
X0331233Y0031746D01*
X0331194Y0031685D01*
X0331152Y0031626D01*
X0331107Y0031570D01*
X0331059Y0031516D01*
X0331008Y0031465D01*
X0330954Y0031417D01*
X0330898Y0031372D01*
X0330839Y0031330D01*
X0330778Y0031291D01*
X0330715Y0031255D01*
X0330651Y0031223D01*
X0330584Y0031195D01*
X0330517Y0031170D01*
X0330448Y0031149D01*
X0330378Y0031131D01*
X0330307Y0031118D01*
X0330235Y0031108D01*
X0330163Y0031102D01*
X0330091Y0031100D01*
X0327869Y0031100D01*
X0327869Y0028433D02*
X0327869Y0036433D01*
X0330091Y0036433D01*
X0330163Y0036431D01*
X0330235Y0036425D01*
X0330307Y0036415D01*
X0330378Y0036402D01*
X0330448Y0036384D01*
X0330517Y0036363D01*
X0330584Y0036338D01*
X0330651Y0036310D01*
X0330715Y0036278D01*
X0330778Y0036242D01*
X0330839Y0036203D01*
X0330898Y0036161D01*
X0330954Y0036116D01*
X0331008Y0036068D01*
X0331059Y0036017D01*
X0331107Y0035963D01*
X0331152Y0035907D01*
X0331194Y0035848D01*
X0331233Y0035787D01*
X0331269Y0035724D01*
X0331301Y0035660D01*
X0331329Y0035593D01*
X0331354Y0035526D01*
X0331375Y0035457D01*
X0331393Y0035387D01*
X0331406Y0035316D01*
X0331416Y0035244D01*
X0331422Y0035172D01*
X0331424Y0035100D01*
X0232905Y0036433D02*
X0232833Y0036431D01*
X0232761Y0036425D01*
X0232689Y0036415D01*
X0232618Y0036402D01*
X0232548Y0036384D01*
X0232479Y0036363D01*
X0232412Y0036338D01*
X0232345Y0036310D01*
X0232281Y0036278D01*
X0232218Y0036242D01*
X0232157Y0036203D01*
X0232098Y0036161D01*
X0232042Y0036116D01*
X0231988Y0036068D01*
X0231937Y0036017D01*
X0231889Y0035963D01*
X0231844Y0035907D01*
X0231802Y0035848D01*
X0231763Y0035787D01*
X0231727Y0035724D01*
X0231695Y0035660D01*
X0231667Y0035593D01*
X0231642Y0035526D01*
X0231621Y0035457D01*
X0231603Y0035387D01*
X0231590Y0035316D01*
X0231580Y0035244D01*
X0231574Y0035172D01*
X0231572Y0035100D01*
D12*
X0240700Y0061700D03*
X0240500Y0080100D03*
X0268900Y0051500D03*
X0282900Y0080100D03*
X0302300Y0079100D03*
D13*
X0325300Y0090700D03*
X0268900Y0051700D03*
D14*
X0269200Y0051900D03*
X0280000Y0069700D03*
X0282800Y0081100D03*
X0271400Y0086100D03*
X0240400Y0080900D03*
X0244200Y0063500D03*
X0240600Y0060900D03*
X0302000Y0080500D03*
D15*
X0309900Y0077900D03*
X0325300Y0063100D03*
X0279300Y0069300D03*
X0267900Y0062100D03*
X0262700Y0060900D03*
X0269300Y0052100D03*
X0244700Y0063700D03*
X0223900Y0062700D03*
X0225900Y0079500D03*
X0225900Y0079700D03*
X0225900Y0079900D03*
X0225900Y0080100D03*
X0225900Y0080300D03*
X0225900Y0080500D03*
X0260700Y0080900D03*
D16*
X0257600Y0078300D03*
X0257400Y0078100D03*
X0240400Y0081300D03*
X0245800Y0064500D03*
X0245600Y0064300D03*
X0262800Y0060700D03*
X0269400Y0052300D03*
X0287600Y0062300D03*
X0278600Y0068900D03*
X0287000Y0073900D03*
X0224000Y0062900D03*
X0215800Y0080700D03*
D17*
X0224000Y0063100D03*
X0246200Y0064900D03*
X0246400Y0065100D03*
X0257000Y0077700D03*
X0257200Y0077900D03*
X0268600Y0077700D03*
X0278400Y0068700D03*
X0287800Y0062500D03*
X0269400Y0052500D03*
X0299400Y0078500D03*
X0310200Y0077100D03*
X0310800Y0062900D03*
D18*
X0310800Y0063100D03*
X0310400Y0076700D03*
X0287600Y0074300D03*
X0278600Y0079300D03*
X0268800Y0077500D03*
X0256600Y0077100D03*
X0256400Y0076900D03*
X0247000Y0066100D03*
X0246800Y0065700D03*
X0224000Y0063300D03*
X0223400Y0076100D03*
X0223400Y0076300D03*
X0214000Y0078500D03*
X0268800Y0062900D03*
X0269400Y0052700D03*
X0288000Y0062700D03*
D19*
X0288200Y0062900D03*
X0298200Y0063500D03*
X0310800Y0063500D03*
X0325200Y0064500D03*
X0310400Y0076500D03*
X0302000Y0081300D03*
X0298800Y0077900D03*
X0287800Y0074500D03*
X0278000Y0078500D03*
X0277800Y0078300D03*
X0277800Y0078100D03*
X0269000Y0077100D03*
X0256200Y0076500D03*
X0256000Y0076100D03*
X0256000Y0075900D03*
X0255800Y0075500D03*
X0247800Y0068100D03*
X0247600Y0067500D03*
X0247600Y0067300D03*
X0247400Y0067100D03*
X0247400Y0066900D03*
X0259600Y0062100D03*
X0262800Y0060500D03*
X0269000Y0063300D03*
X0269400Y0052900D03*
X0236800Y0079700D03*
X0224800Y0078700D03*
X0223600Y0075500D03*
X0223600Y0075300D03*
X0213600Y0077900D03*
X0224000Y0063500D03*
D20*
X0224100Y0063700D03*
X0223700Y0074900D03*
X0223700Y0075100D03*
X0215700Y0081100D03*
X0213500Y0077700D03*
X0213500Y0077500D03*
X0213500Y0077300D03*
X0236500Y0079500D03*
X0248100Y0069700D03*
X0248100Y0069500D03*
X0248100Y0069300D03*
X0247900Y0068700D03*
X0247900Y0068500D03*
X0247900Y0068300D03*
X0247700Y0067900D03*
X0247700Y0067700D03*
X0255500Y0074300D03*
X0255500Y0074500D03*
X0255500Y0074700D03*
X0255700Y0075100D03*
X0255700Y0075300D03*
X0255900Y0075700D03*
X0269100Y0063700D03*
X0269100Y0063500D03*
X0277700Y0068100D03*
X0288300Y0063100D03*
X0298100Y0063700D03*
X0310900Y0063700D03*
X0325300Y0064700D03*
X0325300Y0064900D03*
X0325300Y0065100D03*
X0325300Y0065300D03*
X0325300Y0065500D03*
X0325300Y0065700D03*
X0325300Y0065900D03*
X0325300Y0066100D03*
X0325300Y0066300D03*
X0325300Y0066500D03*
X0325300Y0066700D03*
X0325300Y0066900D03*
X0325300Y0067100D03*
X0325300Y0067300D03*
X0325300Y0067500D03*
X0325300Y0067700D03*
X0325300Y0067900D03*
X0325300Y0068100D03*
X0325300Y0068300D03*
X0325300Y0068500D03*
X0325300Y0068700D03*
X0325300Y0068900D03*
X0325300Y0069100D03*
X0325300Y0069300D03*
X0325300Y0069500D03*
X0325300Y0069700D03*
X0325300Y0069900D03*
X0325300Y0070100D03*
X0325300Y0070300D03*
X0325300Y0070500D03*
X0325300Y0070700D03*
X0325300Y0070900D03*
X0325300Y0071100D03*
X0325300Y0071300D03*
X0325300Y0071500D03*
X0325300Y0071700D03*
X0325300Y0071900D03*
X0325300Y0072100D03*
X0325300Y0072300D03*
X0325300Y0072500D03*
X0325300Y0072700D03*
X0325300Y0072900D03*
X0325300Y0073100D03*
X0325300Y0073300D03*
X0325300Y0073500D03*
X0325300Y0073700D03*
X0325300Y0073900D03*
X0325300Y0074100D03*
X0325300Y0074300D03*
X0325300Y0074500D03*
X0325300Y0074700D03*
X0325300Y0074900D03*
X0325300Y0075100D03*
X0325300Y0075300D03*
X0325300Y0075500D03*
X0325300Y0075700D03*
X0325300Y0075900D03*
X0325300Y0076100D03*
X0325300Y0076300D03*
X0325300Y0076500D03*
X0325300Y0076700D03*
X0325300Y0076900D03*
X0325300Y0077100D03*
X0325300Y0077300D03*
X0325300Y0077500D03*
X0325300Y0077700D03*
X0325300Y0077900D03*
X0325300Y0078100D03*
X0325300Y0078300D03*
X0325300Y0078500D03*
X0325300Y0078700D03*
X0325300Y0078900D03*
X0325300Y0079100D03*
X0325300Y0079300D03*
X0325300Y0079500D03*
X0325300Y0079700D03*
X0325300Y0079900D03*
X0325300Y0080100D03*
X0325300Y0080300D03*
X0325300Y0080500D03*
X0325300Y0080700D03*
X0325300Y0080900D03*
X0325300Y0081100D03*
X0325300Y0081300D03*
X0325300Y0081500D03*
X0325300Y0081700D03*
X0325300Y0081900D03*
X0325300Y0082100D03*
X0325300Y0082300D03*
X0325300Y0082500D03*
X0325300Y0082700D03*
X0325300Y0082900D03*
X0325300Y0083100D03*
X0325300Y0083300D03*
X0325300Y0083500D03*
X0325300Y0083700D03*
X0325300Y0083900D03*
X0325300Y0084100D03*
X0325300Y0084300D03*
X0325300Y0084500D03*
X0325300Y0084700D03*
X0325300Y0084900D03*
X0325300Y0085100D03*
X0325300Y0085300D03*
X0325300Y0085500D03*
X0325300Y0085700D03*
X0325300Y0085900D03*
X0325300Y0086100D03*
X0325300Y0086300D03*
X0325300Y0086500D03*
X0325300Y0086700D03*
X0325300Y0086900D03*
X0325300Y0087100D03*
X0325300Y0087300D03*
X0325300Y0087500D03*
X0325300Y0087700D03*
X0325300Y0087900D03*
X0325300Y0088100D03*
X0325300Y0088300D03*
X0325300Y0088500D03*
X0325300Y0088700D03*
X0311100Y0080900D03*
X0310500Y0076300D03*
X0298700Y0077700D03*
X0298500Y0077500D03*
X0298500Y0077300D03*
X0288100Y0074700D03*
X0277700Y0077700D03*
X0277700Y0077900D03*
X0269500Y0053100D03*
D21*
X0269400Y0053300D03*
X0269400Y0053500D03*
X0269200Y0063900D03*
X0277400Y0067700D03*
X0277600Y0067900D03*
X0288200Y0074900D03*
X0277600Y0077500D03*
X0269200Y0076900D03*
X0269600Y0085300D03*
X0269600Y0087100D03*
X0255600Y0074900D03*
X0255400Y0074100D03*
X0255400Y0073900D03*
X0255400Y0073700D03*
X0255400Y0073500D03*
X0255200Y0073100D03*
X0255200Y0072900D03*
X0255200Y0072700D03*
X0255200Y0072500D03*
X0255200Y0072300D03*
X0248200Y0071700D03*
X0248200Y0071500D03*
X0248200Y0071300D03*
X0248200Y0071100D03*
X0248200Y0070900D03*
X0248200Y0070700D03*
X0248200Y0070500D03*
X0248200Y0070300D03*
X0248200Y0070100D03*
X0248200Y0069900D03*
X0248000Y0069100D03*
X0248000Y0068900D03*
X0258800Y0062500D03*
X0259200Y0062300D03*
X0233800Y0074100D03*
X0233800Y0074300D03*
X0233800Y0074500D03*
X0233800Y0074700D03*
X0236200Y0079300D03*
X0240400Y0081500D03*
X0224600Y0078500D03*
X0223800Y0074700D03*
X0223800Y0074500D03*
X0223800Y0074300D03*
X0224000Y0063900D03*
X0213400Y0076700D03*
X0213400Y0076900D03*
X0213400Y0077100D03*
X0298400Y0077100D03*
X0298400Y0076900D03*
X0310600Y0076100D03*
X0310800Y0064100D03*
X0310800Y0063900D03*
X0298200Y0063900D03*
D22*
X0298100Y0064100D03*
X0298100Y0064300D03*
X0298100Y0064500D03*
X0298100Y0064700D03*
X0288500Y0063300D03*
X0279300Y0062100D03*
X0269300Y0064100D03*
X0269300Y0064300D03*
X0269300Y0064500D03*
X0269500Y0054300D03*
X0269500Y0054100D03*
X0269500Y0053900D03*
X0269500Y0053700D03*
X0258500Y0062700D03*
X0255100Y0070300D03*
X0255100Y0070500D03*
X0255100Y0070700D03*
X0255100Y0070900D03*
X0255100Y0071100D03*
X0255100Y0071300D03*
X0255100Y0071500D03*
X0255100Y0071700D03*
X0255100Y0071900D03*
X0255100Y0072100D03*
X0255300Y0073300D03*
X0244300Y0079700D03*
X0235900Y0079100D03*
X0235700Y0078900D03*
X0235500Y0078700D03*
X0234700Y0077500D03*
X0234500Y0077100D03*
X0234100Y0076100D03*
X0234100Y0075900D03*
X0233900Y0075500D03*
X0233900Y0075300D03*
X0233900Y0075100D03*
X0233900Y0074900D03*
X0224500Y0078300D03*
X0223900Y0074100D03*
X0223900Y0073900D03*
X0223900Y0073700D03*
X0223900Y0073500D03*
X0223900Y0073300D03*
X0224100Y0065100D03*
X0224100Y0064900D03*
X0224100Y0064700D03*
X0224100Y0064500D03*
X0224100Y0064300D03*
X0224100Y0064100D03*
X0213500Y0076300D03*
X0213500Y0076500D03*
X0269300Y0076700D03*
X0277700Y0077300D03*
X0283500Y0081500D03*
X0288300Y0075100D03*
X0298300Y0076300D03*
X0298300Y0076500D03*
X0298300Y0076700D03*
X0310700Y0075900D03*
X0310900Y0064500D03*
X0310900Y0064300D03*
X0269500Y0084900D03*
X0269500Y0085100D03*
D23*
X0269400Y0084700D03*
X0269400Y0084500D03*
X0269400Y0084300D03*
X0269400Y0084100D03*
X0269400Y0083900D03*
X0269400Y0083700D03*
X0269400Y0083500D03*
X0269400Y0083300D03*
X0269400Y0083100D03*
X0269400Y0082900D03*
X0269400Y0082700D03*
X0269400Y0082500D03*
X0269400Y0082300D03*
X0269400Y0082100D03*
X0269400Y0081900D03*
X0269400Y0081700D03*
X0269400Y0081500D03*
X0269400Y0081300D03*
X0269400Y0081100D03*
X0269400Y0080900D03*
X0269400Y0080700D03*
X0269400Y0080500D03*
X0269400Y0080300D03*
X0269400Y0080100D03*
X0269400Y0079900D03*
X0269400Y0079700D03*
X0269400Y0079500D03*
X0269400Y0079300D03*
X0269400Y0079100D03*
X0269400Y0076500D03*
X0269400Y0076300D03*
X0269400Y0076100D03*
X0269400Y0075900D03*
X0269400Y0075700D03*
X0269400Y0075500D03*
X0269400Y0075300D03*
X0269400Y0075100D03*
X0269400Y0074900D03*
X0269400Y0074700D03*
X0269400Y0074500D03*
X0269400Y0074300D03*
X0269400Y0074100D03*
X0269400Y0073900D03*
X0269400Y0073700D03*
X0269400Y0073500D03*
X0269400Y0073300D03*
X0269400Y0073100D03*
X0269400Y0072900D03*
X0269400Y0072700D03*
X0269400Y0072500D03*
X0269400Y0072300D03*
X0269400Y0072100D03*
X0269400Y0071900D03*
X0269400Y0071700D03*
X0269400Y0071500D03*
X0269400Y0071300D03*
X0269400Y0071100D03*
X0269400Y0070900D03*
X0269400Y0070700D03*
X0269400Y0070500D03*
X0269400Y0070300D03*
X0269400Y0070100D03*
X0269400Y0069900D03*
X0269400Y0069700D03*
X0269400Y0069500D03*
X0269400Y0069300D03*
X0269400Y0069100D03*
X0269400Y0068900D03*
X0269400Y0068700D03*
X0269400Y0068500D03*
X0269400Y0068300D03*
X0269400Y0068100D03*
X0269400Y0067900D03*
X0269400Y0067700D03*
X0269400Y0067500D03*
X0269400Y0067300D03*
X0269400Y0067100D03*
X0269400Y0066900D03*
X0269400Y0066700D03*
X0269400Y0066500D03*
X0269400Y0066300D03*
X0269400Y0066100D03*
X0269400Y0065900D03*
X0269400Y0065700D03*
X0269400Y0065500D03*
X0269400Y0065300D03*
X0269400Y0065100D03*
X0269400Y0064900D03*
X0269400Y0064700D03*
X0269400Y0061300D03*
X0269400Y0061100D03*
X0269400Y0060900D03*
X0269400Y0060700D03*
X0269400Y0060500D03*
X0269400Y0060300D03*
X0269400Y0060100D03*
X0269400Y0059900D03*
X0269400Y0059700D03*
X0269400Y0059500D03*
X0269400Y0059300D03*
X0269400Y0059100D03*
X0269400Y0058900D03*
X0269400Y0058700D03*
X0269400Y0058500D03*
X0269400Y0058300D03*
X0269400Y0058100D03*
X0269400Y0057900D03*
X0269400Y0057700D03*
X0269400Y0057500D03*
X0269400Y0057300D03*
X0269400Y0057100D03*
X0269400Y0056900D03*
X0269400Y0056700D03*
X0269400Y0056500D03*
X0269400Y0056300D03*
X0269400Y0056100D03*
X0269400Y0055900D03*
X0269400Y0055700D03*
X0269400Y0055500D03*
X0269400Y0055300D03*
X0269400Y0055100D03*
X0269400Y0054900D03*
X0269400Y0054700D03*
X0269400Y0054500D03*
X0258200Y0062900D03*
X0258000Y0063100D03*
X0257800Y0063300D03*
X0255800Y0066700D03*
X0255600Y0067300D03*
X0255400Y0068100D03*
X0255400Y0068300D03*
X0255400Y0068500D03*
X0255400Y0068700D03*
X0255200Y0068900D03*
X0255200Y0069100D03*
X0255200Y0069300D03*
X0255200Y0069500D03*
X0255200Y0069700D03*
X0255200Y0069900D03*
X0255200Y0070100D03*
X0248000Y0074100D03*
X0248000Y0074300D03*
X0247800Y0074500D03*
X0247800Y0074700D03*
X0247800Y0074900D03*
X0247800Y0075100D03*
X0247600Y0075500D03*
X0244800Y0079500D03*
X0235400Y0078500D03*
X0235200Y0078300D03*
X0235000Y0078100D03*
X0235000Y0077900D03*
X0234800Y0077700D03*
X0234600Y0077300D03*
X0234400Y0076900D03*
X0234400Y0076700D03*
X0234200Y0076500D03*
X0234200Y0076300D03*
X0234000Y0075700D03*
X0224400Y0077900D03*
X0224400Y0078100D03*
X0224000Y0073100D03*
X0224000Y0072900D03*
X0224000Y0072700D03*
X0224000Y0072500D03*
X0224000Y0072300D03*
X0224000Y0072100D03*
X0224000Y0071900D03*
X0224000Y0071700D03*
X0224000Y0071500D03*
X0224000Y0071300D03*
X0224000Y0071100D03*
X0224000Y0070900D03*
X0224000Y0070700D03*
X0224000Y0070500D03*
X0224000Y0070300D03*
X0224000Y0070100D03*
X0224000Y0069900D03*
X0224000Y0069700D03*
X0224000Y0069500D03*
X0224000Y0069300D03*
X0224000Y0069100D03*
X0224000Y0068900D03*
X0224000Y0068700D03*
X0224000Y0068500D03*
X0224000Y0068300D03*
X0224000Y0068100D03*
X0224000Y0067900D03*
X0224000Y0067700D03*
X0224000Y0067500D03*
X0224000Y0067300D03*
X0224000Y0067100D03*
X0224000Y0066900D03*
X0224000Y0066700D03*
X0224000Y0066500D03*
X0224000Y0066300D03*
X0224000Y0066100D03*
X0224000Y0065900D03*
X0224000Y0065700D03*
X0224000Y0065500D03*
X0224000Y0065300D03*
X0235000Y0063700D03*
X0213400Y0076100D03*
X0277600Y0076900D03*
X0277600Y0077100D03*
X0288400Y0075300D03*
X0298200Y0075300D03*
X0298200Y0075500D03*
X0298200Y0075700D03*
X0298200Y0075900D03*
X0298200Y0076100D03*
X0298200Y0075100D03*
X0298200Y0074900D03*
X0298200Y0074700D03*
X0298200Y0074500D03*
X0298200Y0074300D03*
X0298200Y0074100D03*
X0298200Y0073900D03*
X0298200Y0073700D03*
X0298200Y0073500D03*
X0298200Y0073300D03*
X0298200Y0073100D03*
X0298200Y0072900D03*
X0298200Y0072700D03*
X0298200Y0072500D03*
X0298200Y0072300D03*
X0298200Y0072100D03*
X0298200Y0071900D03*
X0298200Y0071700D03*
X0298200Y0071500D03*
X0298200Y0071300D03*
X0298200Y0071100D03*
X0298200Y0070900D03*
X0298200Y0070700D03*
X0298200Y0070500D03*
X0298200Y0070300D03*
X0298200Y0070100D03*
X0298200Y0069900D03*
X0298200Y0069700D03*
X0298200Y0069500D03*
X0298200Y0069300D03*
X0298200Y0069100D03*
X0298200Y0068900D03*
X0298200Y0068700D03*
X0298200Y0068500D03*
X0298200Y0068300D03*
X0298200Y0068100D03*
X0298200Y0067900D03*
X0298200Y0067700D03*
X0298200Y0067500D03*
X0298200Y0067300D03*
X0298200Y0067100D03*
X0298200Y0066900D03*
X0298200Y0066700D03*
X0298200Y0066500D03*
X0298200Y0066300D03*
X0298200Y0066100D03*
X0298200Y0065900D03*
X0298200Y0065700D03*
X0298200Y0065500D03*
X0298200Y0065300D03*
X0298200Y0065100D03*
X0298200Y0064900D03*
X0288600Y0063500D03*
X0277200Y0067300D03*
X0277200Y0067500D03*
X0310800Y0067500D03*
X0310800Y0067700D03*
X0310800Y0067900D03*
X0310800Y0068100D03*
X0310800Y0068300D03*
X0310800Y0068500D03*
X0310800Y0068700D03*
X0310800Y0068900D03*
X0310800Y0069100D03*
X0310800Y0069300D03*
X0310800Y0069500D03*
X0310800Y0069700D03*
X0310800Y0069900D03*
X0310800Y0070100D03*
X0310800Y0070300D03*
X0310800Y0070500D03*
X0310800Y0070700D03*
X0310800Y0070900D03*
X0310800Y0071100D03*
X0310800Y0071300D03*
X0310800Y0071500D03*
X0310800Y0071700D03*
X0310800Y0071900D03*
X0310800Y0072100D03*
X0310800Y0072300D03*
X0310800Y0072500D03*
X0310800Y0072700D03*
X0310800Y0072900D03*
X0310800Y0073100D03*
X0310800Y0073300D03*
X0310800Y0073500D03*
X0310800Y0073700D03*
X0310800Y0073900D03*
X0310800Y0074100D03*
X0310800Y0074300D03*
X0310800Y0074500D03*
X0310800Y0074700D03*
X0310800Y0074900D03*
X0310800Y0075100D03*
X0310800Y0075300D03*
X0310800Y0075500D03*
X0310800Y0075700D03*
X0310800Y0067300D03*
X0310800Y0067100D03*
X0310800Y0066900D03*
X0310800Y0066700D03*
X0310800Y0066500D03*
X0310800Y0066300D03*
X0310800Y0066100D03*
X0310800Y0065900D03*
X0310800Y0065700D03*
X0310800Y0065500D03*
X0310800Y0065300D03*
X0310800Y0065100D03*
X0310800Y0064900D03*
X0310800Y0064700D03*
D24*
X0289000Y0064500D03*
X0282600Y0060300D03*
X0278000Y0062900D03*
X0277600Y0063500D03*
X0277000Y0064900D03*
X0277000Y0065100D03*
X0277000Y0065300D03*
X0277000Y0065500D03*
X0277000Y0065700D03*
X0277600Y0076500D03*
X0287800Y0079100D03*
X0288600Y0077500D03*
X0288600Y0077300D03*
X0288600Y0077100D03*
X0288600Y0076900D03*
X0288600Y0076700D03*
X0234000Y0064300D03*
X0213400Y0075500D03*
D25*
X0215600Y0081500D03*
X0233400Y0064900D03*
X0233600Y0064700D03*
X0262800Y0060300D03*
X0277600Y0076300D03*
X0276600Y0084900D03*
X0289200Y0065100D03*
D26*
X0288900Y0064300D03*
X0288900Y0064100D03*
X0278500Y0062500D03*
X0278300Y0062700D03*
X0276900Y0065900D03*
X0276900Y0066100D03*
X0276900Y0066300D03*
X0276900Y0066500D03*
X0288700Y0076100D03*
X0288700Y0076300D03*
X0288700Y0076500D03*
X0287500Y0079300D03*
X0287300Y0079500D03*
X0269100Y0087300D03*
X0240700Y0060300D03*
X0234300Y0064100D03*
X0224100Y0081300D03*
X0213500Y0075700D03*
X0306700Y0078500D03*
X0310500Y0081100D03*
D27*
X0298900Y0078100D03*
X0298100Y0063300D03*
X0310900Y0063300D03*
X0325300Y0064100D03*
X0325300Y0064300D03*
X0325300Y0088900D03*
X0325300Y0089100D03*
X0325300Y0089300D03*
X0282700Y0060500D03*
X0277900Y0068300D03*
X0268900Y0063100D03*
X0268900Y0077300D03*
X0260700Y0081300D03*
X0256300Y0076700D03*
X0256100Y0076300D03*
X0247300Y0066700D03*
X0247300Y0066500D03*
X0247100Y0066300D03*
X0246900Y0065900D03*
X0235500Y0063500D03*
X0223500Y0075700D03*
X0223500Y0075900D03*
X0224900Y0081100D03*
X0213900Y0078300D03*
X0213700Y0078100D03*
X0278100Y0078700D03*
X0278100Y0078900D03*
X0278300Y0079100D03*
D28*
X0278900Y0079500D03*
X0270100Y0086900D03*
X0256900Y0077500D03*
X0256700Y0077300D03*
X0246700Y0065500D03*
X0246500Y0065300D03*
X0240700Y0060500D03*
X0223300Y0076500D03*
X0225100Y0078900D03*
X0215700Y0080900D03*
X0268700Y0062700D03*
X0278100Y0068500D03*
X0298100Y0063100D03*
X0310300Y0076900D03*
X0311500Y0078500D03*
X0299100Y0078300D03*
X0325300Y0089500D03*
X0325300Y0063900D03*
X0325300Y0063700D03*
D29*
X0325300Y0060700D03*
X0325300Y0090900D03*
X0325300Y0092500D03*
X0264700Y0061500D03*
D30*
X0285200Y0072900D03*
X0310800Y0060700D03*
X0240400Y0080700D03*
X0216000Y0079100D03*
D31*
X0216100Y0078900D03*
X0240700Y0061100D03*
X0260700Y0080300D03*
X0280700Y0070100D03*
X0283100Y0061100D03*
X0298100Y0060700D03*
X0302100Y0080100D03*
X0325300Y0062700D03*
D32*
X0289900Y0060700D03*
X0215500Y0081700D03*
D33*
X0215800Y0080500D03*
X0245400Y0064100D03*
X0282800Y0060700D03*
X0298200Y0062700D03*
X0310800Y0062700D03*
X0312000Y0078900D03*
D34*
X0312200Y0079300D03*
X0312200Y0079500D03*
X0312200Y0079700D03*
X0312200Y0079900D03*
X0312200Y0080100D03*
X0287200Y0062100D03*
X0270800Y0086500D03*
X0240600Y0060700D03*
X0225800Y0079300D03*
X0225800Y0080700D03*
X0215800Y0080300D03*
D35*
X0223600Y0060700D03*
X0260800Y0079500D03*
D36*
X0325300Y0091100D03*
X0325300Y0092300D03*
X0325300Y0062300D03*
X0325300Y0062100D03*
X0325300Y0060900D03*
D37*
X0310800Y0060900D03*
X0310800Y0062300D03*
X0298200Y0062300D03*
X0284800Y0072700D03*
X0283000Y0080700D03*
X0272000Y0085700D03*
X0216000Y0078700D03*
D38*
X0260700Y0080100D03*
X0281100Y0070300D03*
X0284500Y0072500D03*
X0298100Y0062100D03*
X0298100Y0061900D03*
X0298100Y0061700D03*
X0298100Y0061500D03*
X0298100Y0061300D03*
X0298100Y0061100D03*
X0298100Y0060900D03*
X0302100Y0079900D03*
D39*
X0283500Y0081700D03*
X0279500Y0082500D03*
X0289700Y0060900D03*
X0232100Y0066700D03*
X0220300Y0077900D03*
X0220100Y0078100D03*
D40*
X0279600Y0069500D03*
X0282800Y0060900D03*
X0309800Y0078100D03*
D41*
X0302400Y0078900D03*
X0223600Y0062300D03*
X0223600Y0062100D03*
X0223600Y0061900D03*
X0223600Y0061700D03*
X0223600Y0061500D03*
X0223600Y0061300D03*
X0223600Y0061100D03*
X0223600Y0060900D03*
D42*
X0240600Y0062900D03*
X0264400Y0061900D03*
X0325200Y0061900D03*
X0325200Y0061700D03*
X0325200Y0061500D03*
X0325200Y0061300D03*
X0325200Y0061100D03*
X0325200Y0091300D03*
X0325200Y0091500D03*
X0325200Y0091700D03*
X0325200Y0091900D03*
X0325200Y0092100D03*
D43*
X0310800Y0062100D03*
X0310800Y0061900D03*
X0310800Y0061700D03*
X0310800Y0061500D03*
X0310800Y0061300D03*
X0310800Y0061100D03*
X0281400Y0070500D03*
X0283000Y0080500D03*
X0272200Y0085500D03*
X0240400Y0080500D03*
D44*
X0232100Y0066500D03*
X0232300Y0066300D03*
X0232300Y0066100D03*
X0232500Y0065900D03*
X0219700Y0078500D03*
X0268500Y0087500D03*
X0277700Y0084300D03*
X0277900Y0084100D03*
X0279900Y0081700D03*
X0279900Y0081500D03*
X0289500Y0066700D03*
X0289500Y0066500D03*
X0289500Y0066300D03*
X0289500Y0061100D03*
D45*
X0285900Y0073300D03*
X0262700Y0061100D03*
X0260700Y0080700D03*
X0215900Y0079700D03*
X0325300Y0062900D03*
D46*
X0284400Y0061300D03*
D47*
X0280300Y0069900D03*
X0282900Y0080900D03*
X0271700Y0085900D03*
X0262700Y0061300D03*
X0298100Y0062500D03*
X0325300Y0090500D03*
D48*
X0302100Y0079700D03*
X0240700Y0061300D03*
X0223700Y0062500D03*
D49*
X0240700Y0062300D03*
X0284300Y0061500D03*
D50*
X0282400Y0071100D03*
X0282600Y0071300D03*
X0283000Y0071500D03*
X0283200Y0071700D03*
X0283000Y0080300D03*
X0302200Y0079300D03*
X0260800Y0079700D03*
X0240400Y0080300D03*
X0240600Y0061500D03*
D51*
X0284100Y0061700D03*
X0325300Y0062500D03*
D52*
X0264600Y0061700D03*
X0240600Y0062700D03*
D53*
X0240600Y0062500D03*
X0284000Y0061900D03*
D54*
X0302400Y0078700D03*
X0240400Y0079900D03*
X0240600Y0061900D03*
D55*
X0240700Y0062100D03*
D56*
X0255700Y0066900D03*
X0255700Y0067100D03*
X0255500Y0067500D03*
X0255500Y0067700D03*
X0255500Y0067900D03*
X0255900Y0066500D03*
X0255900Y0066300D03*
X0256100Y0066100D03*
X0256100Y0065900D03*
X0256300Y0065500D03*
X0256500Y0065100D03*
X0256700Y0064700D03*
X0256900Y0064500D03*
X0257100Y0064100D03*
X0257300Y0063900D03*
X0257500Y0063700D03*
X0257700Y0063500D03*
X0247700Y0075300D03*
X0247500Y0075700D03*
X0247500Y0075900D03*
X0247500Y0076100D03*
X0247300Y0076300D03*
X0247300Y0076500D03*
X0247100Y0076700D03*
X0246700Y0077500D03*
X0245300Y0079100D03*
X0245100Y0079300D03*
X0260700Y0081500D03*
X0277100Y0067100D03*
X0278900Y0062300D03*
X0288700Y0063700D03*
X0288500Y0075500D03*
X0224300Y0076700D03*
X0224300Y0076900D03*
X0224300Y0077100D03*
X0224300Y0077300D03*
X0224300Y0077500D03*
X0224300Y0077700D03*
X0215700Y0081300D03*
X0213500Y0075900D03*
D57*
X0225500Y0079100D03*
X0260700Y0081100D03*
X0268300Y0078100D03*
X0270500Y0086700D03*
X0268300Y0062300D03*
X0310100Y0077500D03*
X0325300Y0089900D03*
X0325300Y0063300D03*
D58*
X0310800Y0062500D03*
X0302000Y0080300D03*
X0285600Y0073100D03*
X0216000Y0079300D03*
D59*
X0246100Y0064700D03*
X0268500Y0062500D03*
X0268500Y0077900D03*
X0279300Y0079700D03*
X0287300Y0074100D03*
X0298100Y0062900D03*
X0310100Y0077300D03*
X0311700Y0078700D03*
X0311700Y0080700D03*
X0301900Y0081100D03*
X0325300Y0089700D03*
X0325300Y0063500D03*
D60*
X0289100Y0064700D03*
X0289100Y0064900D03*
X0277900Y0063100D03*
X0277700Y0063300D03*
X0277500Y0063700D03*
X0277300Y0063900D03*
X0277300Y0064100D03*
X0277100Y0064300D03*
X0277100Y0064500D03*
X0277100Y0064700D03*
X0288500Y0077700D03*
X0288500Y0077900D03*
X0288300Y0078100D03*
X0288300Y0078300D03*
X0288100Y0078500D03*
X0288100Y0078700D03*
X0287900Y0078900D03*
X0276100Y0085100D03*
X0233700Y0064500D03*
D61*
X0240600Y0063100D03*
D62*
X0240600Y0063300D03*
D63*
X0234600Y0063900D03*
X0247000Y0076900D03*
X0247000Y0077100D03*
X0246800Y0077300D03*
X0246600Y0077700D03*
X0246400Y0077900D03*
X0246200Y0078100D03*
X0246200Y0078300D03*
X0246000Y0078500D03*
X0245800Y0078700D03*
X0245600Y0078900D03*
X0256200Y0065700D03*
X0256400Y0065300D03*
X0256600Y0064900D03*
X0257000Y0064300D03*
X0277000Y0066700D03*
X0277000Y0066900D03*
X0288800Y0063900D03*
X0288600Y0075700D03*
X0288600Y0075900D03*
X0287000Y0079700D03*
X0277600Y0076700D03*
X0275600Y0085300D03*
X0302000Y0081500D03*
D64*
X0301900Y0080900D03*
X0309900Y0077700D03*
X0312100Y0079100D03*
X0312100Y0080300D03*
X0312100Y0080500D03*
X0325300Y0090100D03*
X0286700Y0073700D03*
X0278900Y0069100D03*
X0268100Y0078300D03*
X0257900Y0078500D03*
X0245100Y0063900D03*
X0225700Y0080900D03*
D65*
X0213500Y0075300D03*
X0233100Y0065100D03*
X0289300Y0065300D03*
X0289300Y0065500D03*
D66*
X0289400Y0065700D03*
X0289400Y0065900D03*
X0289400Y0066100D03*
X0277600Y0076100D03*
X0277400Y0084500D03*
X0277000Y0084700D03*
X0310000Y0081300D03*
X0233000Y0065300D03*
X0232800Y0065500D03*
X0232600Y0065700D03*
D67*
X0220000Y0078300D03*
X0213400Y0075100D03*
X0278200Y0083900D03*
X0278400Y0083700D03*
X0278600Y0083500D03*
X0278800Y0083300D03*
X0279000Y0083100D03*
X0279200Y0082900D03*
X0279400Y0082700D03*
X0279600Y0082300D03*
X0279800Y0082100D03*
X0279800Y0081900D03*
X0289600Y0067500D03*
X0289600Y0067300D03*
X0289600Y0067100D03*
X0289600Y0066900D03*
D68*
X0260700Y0081700D03*
X0232100Y0066900D03*
X0221300Y0076700D03*
X0221100Y0076900D03*
X0220900Y0077100D03*
D69*
X0232200Y0067100D03*
D70*
X0232400Y0067300D03*
X0267800Y0087700D03*
D71*
X0277600Y0075900D03*
X0289600Y0067700D03*
X0240400Y0081700D03*
X0223400Y0081500D03*
X0220600Y0077700D03*
X0220600Y0077500D03*
X0220800Y0077300D03*
D72*
X0260800Y0079900D03*
X0281800Y0070700D03*
X0284200Y0072300D03*
X0302200Y0079500D03*
D73*
X0283900Y0072100D03*
X0283500Y0071900D03*
X0282100Y0070900D03*
D74*
X0241000Y0071900D03*
X0240800Y0072700D03*
X0240800Y0072900D03*
X0240800Y0073100D03*
X0240800Y0073300D03*
X0240800Y0073500D03*
X0240800Y0073700D03*
D75*
X0240900Y0072500D03*
X0240900Y0072300D03*
X0240900Y0072100D03*
D76*
X0240400Y0081100D03*
X0215800Y0080100D03*
X0267800Y0078500D03*
X0286400Y0073500D03*
X0302000Y0080700D03*
D77*
X0240800Y0073900D03*
D78*
X0213400Y0074900D03*
X0302000Y0081700D03*
X0309400Y0081500D03*
D79*
X0309700Y0078300D03*
X0260700Y0080500D03*
X0215900Y0079500D03*
D80*
X0263100Y0078700D03*
D81*
X0263200Y0078900D03*
D82*
X0260900Y0079100D03*
X0282700Y0079900D03*
D83*
X0260900Y0079300D03*
D84*
X0271100Y0086300D03*
X0282500Y0081300D03*
X0325300Y0090300D03*
X0215900Y0079900D03*
D85*
X0216374Y0229150D02*
X0213063Y0244050D01*
X0219685Y0239083D02*
X0216374Y0229150D01*
X0222997Y0229150D02*
X0219685Y0239083D01*
X0226308Y0244050D02*
X0222997Y0229150D01*
X0230374Y0232461D02*
X0230374Y0235772D01*
X0230376Y0235886D01*
X0230382Y0236000D01*
X0230392Y0236114D01*
X0230406Y0236228D01*
X0230423Y0236341D01*
X0230445Y0236453D01*
X0230470Y0236564D01*
X0230499Y0236675D01*
X0230533Y0236784D01*
X0230569Y0236892D01*
X0230610Y0236999D01*
X0230654Y0237105D01*
X0230702Y0237209D01*
X0230753Y0237311D01*
X0230808Y0237411D01*
X0230866Y0237509D01*
X0230928Y0237606D01*
X0230993Y0237700D01*
X0231061Y0237791D01*
X0231132Y0237881D01*
X0231207Y0237968D01*
X0231284Y0238052D01*
X0231364Y0238133D01*
X0231447Y0238212D01*
X0231533Y0238288D01*
X0231621Y0238361D01*
X0231711Y0238430D01*
X0231804Y0238497D01*
X0231899Y0238560D01*
X0231997Y0238620D01*
X0232096Y0238677D01*
X0232197Y0238730D01*
X0232300Y0238779D01*
X0232405Y0238825D01*
X0232511Y0238868D01*
X0232618Y0238907D01*
X0232727Y0238941D01*
X0232837Y0238973D01*
X0232948Y0239000D01*
X0233060Y0239023D01*
X0233173Y0239043D01*
X0233286Y0239059D01*
X0233400Y0239071D01*
X0233514Y0239079D01*
X0233628Y0239083D01*
X0233742Y0239083D01*
X0233856Y0239079D01*
X0233970Y0239071D01*
X0234084Y0239059D01*
X0234197Y0239043D01*
X0234310Y0239023D01*
X0234422Y0239000D01*
X0234533Y0238973D01*
X0234643Y0238941D01*
X0234752Y0238907D01*
X0234859Y0238868D01*
X0234965Y0238825D01*
X0235070Y0238779D01*
X0235173Y0238730D01*
X0235274Y0238677D01*
X0235373Y0238620D01*
X0235471Y0238560D01*
X0235566Y0238497D01*
X0235659Y0238430D01*
X0235749Y0238361D01*
X0235837Y0238288D01*
X0235923Y0238212D01*
X0236006Y0238133D01*
X0236086Y0238052D01*
X0236163Y0237968D01*
X0236238Y0237881D01*
X0236309Y0237791D01*
X0236377Y0237700D01*
X0236442Y0237606D01*
X0236504Y0237509D01*
X0236562Y0237411D01*
X0236617Y0237311D01*
X0236668Y0237209D01*
X0236716Y0237105D01*
X0236760Y0236999D01*
X0236801Y0236892D01*
X0236837Y0236784D01*
X0236871Y0236675D01*
X0236900Y0236564D01*
X0236925Y0236453D01*
X0236947Y0236341D01*
X0236964Y0236228D01*
X0236978Y0236114D01*
X0236988Y0236000D01*
X0236994Y0235886D01*
X0236996Y0235772D01*
X0236997Y0235772D02*
X0236997Y0232461D01*
X0236996Y0232461D02*
X0236994Y0232347D01*
X0236988Y0232233D01*
X0236978Y0232119D01*
X0236964Y0232005D01*
X0236947Y0231892D01*
X0236925Y0231780D01*
X0236900Y0231669D01*
X0236871Y0231558D01*
X0236837Y0231449D01*
X0236801Y0231341D01*
X0236760Y0231234D01*
X0236716Y0231128D01*
X0236668Y0231024D01*
X0236617Y0230922D01*
X0236562Y0230822D01*
X0236504Y0230724D01*
X0236442Y0230627D01*
X0236377Y0230533D01*
X0236309Y0230442D01*
X0236238Y0230352D01*
X0236163Y0230265D01*
X0236086Y0230181D01*
X0236006Y0230100D01*
X0235923Y0230021D01*
X0235837Y0229945D01*
X0235749Y0229872D01*
X0235659Y0229803D01*
X0235566Y0229736D01*
X0235471Y0229673D01*
X0235373Y0229613D01*
X0235274Y0229556D01*
X0235173Y0229503D01*
X0235070Y0229454D01*
X0234965Y0229408D01*
X0234859Y0229365D01*
X0234752Y0229326D01*
X0234643Y0229292D01*
X0234533Y0229260D01*
X0234422Y0229233D01*
X0234310Y0229210D01*
X0234197Y0229190D01*
X0234084Y0229174D01*
X0233970Y0229162D01*
X0233856Y0229154D01*
X0233742Y0229150D01*
X0233628Y0229150D01*
X0233514Y0229154D01*
X0233400Y0229162D01*
X0233286Y0229174D01*
X0233173Y0229190D01*
X0233060Y0229210D01*
X0232948Y0229233D01*
X0232837Y0229260D01*
X0232727Y0229292D01*
X0232618Y0229326D01*
X0232511Y0229365D01*
X0232405Y0229408D01*
X0232300Y0229454D01*
X0232197Y0229503D01*
X0232096Y0229556D01*
X0231997Y0229613D01*
X0231899Y0229673D01*
X0231804Y0229736D01*
X0231711Y0229803D01*
X0231621Y0229872D01*
X0231533Y0229945D01*
X0231447Y0230021D01*
X0231364Y0230100D01*
X0231284Y0230181D01*
X0231207Y0230265D01*
X0231132Y0230352D01*
X0231061Y0230442D01*
X0230993Y0230533D01*
X0230928Y0230627D01*
X0230866Y0230724D01*
X0230808Y0230822D01*
X0230753Y0230922D01*
X0230702Y0231024D01*
X0230654Y0231128D01*
X0230610Y0231234D01*
X0230569Y0231341D01*
X0230533Y0231449D01*
X0230499Y0231558D01*
X0230470Y0231669D01*
X0230445Y0231780D01*
X0230423Y0231892D01*
X0230406Y0232005D01*
X0230392Y0232119D01*
X0230382Y0232233D01*
X0230376Y0232347D01*
X0230374Y0232461D01*
X0241255Y0229150D02*
X0244566Y0229150D01*
X0244663Y0229152D01*
X0244761Y0229158D01*
X0244858Y0229167D01*
X0244954Y0229181D01*
X0245050Y0229198D01*
X0245146Y0229219D01*
X0245240Y0229243D01*
X0245333Y0229272D01*
X0245425Y0229303D01*
X0245516Y0229339D01*
X0245606Y0229378D01*
X0245693Y0229421D01*
X0245779Y0229467D01*
X0245863Y0229516D01*
X0245945Y0229568D01*
X0246025Y0229624D01*
X0246103Y0229683D01*
X0246179Y0229745D01*
X0246251Y0229810D01*
X0246322Y0229877D01*
X0246389Y0229948D01*
X0246454Y0230020D01*
X0246516Y0230096D01*
X0246575Y0230174D01*
X0246631Y0230254D01*
X0246683Y0230336D01*
X0246732Y0230420D01*
X0246778Y0230506D01*
X0246821Y0230593D01*
X0246860Y0230683D01*
X0246896Y0230774D01*
X0246927Y0230866D01*
X0246956Y0230959D01*
X0246980Y0231053D01*
X0247001Y0231149D01*
X0247018Y0231245D01*
X0247032Y0231341D01*
X0247041Y0231438D01*
X0247047Y0231536D01*
X0247049Y0231633D01*
X0247050Y0231633D02*
X0247050Y0236600D01*
X0247049Y0236600D02*
X0247047Y0236697D01*
X0247041Y0236795D01*
X0247032Y0236892D01*
X0247018Y0236988D01*
X0247001Y0237084D01*
X0246980Y0237180D01*
X0246956Y0237274D01*
X0246927Y0237367D01*
X0246896Y0237459D01*
X0246860Y0237550D01*
X0246821Y0237640D01*
X0246778Y0237727D01*
X0246732Y0237813D01*
X0246683Y0237897D01*
X0246631Y0237979D01*
X0246575Y0238059D01*
X0246516Y0238137D01*
X0246454Y0238213D01*
X0246389Y0238285D01*
X0246322Y0238356D01*
X0246251Y0238423D01*
X0246179Y0238488D01*
X0246103Y0238550D01*
X0246025Y0238609D01*
X0245945Y0238665D01*
X0245863Y0238717D01*
X0245779Y0238766D01*
X0245693Y0238812D01*
X0245606Y0238855D01*
X0245516Y0238894D01*
X0245425Y0238930D01*
X0245333Y0238961D01*
X0245240Y0238990D01*
X0245146Y0239014D01*
X0245050Y0239035D01*
X0244954Y0239052D01*
X0244858Y0239066D01*
X0244761Y0239075D01*
X0244663Y0239081D01*
X0244566Y0239083D01*
X0241255Y0239083D01*
X0251647Y0243222D02*
X0252474Y0243222D01*
X0252474Y0244050D01*
X0251647Y0244050D01*
X0251647Y0243222D01*
X0252060Y0239083D02*
X0252060Y0229150D01*
X0260732Y0235772D02*
X0264871Y0235772D01*
X0270281Y0234944D02*
X0280215Y0234944D01*
X0285547Y0233289D02*
X0285547Y0239911D01*
X0285546Y0239911D02*
X0285548Y0240038D01*
X0285554Y0240166D01*
X0285564Y0240293D01*
X0285577Y0240420D01*
X0285595Y0240546D01*
X0285616Y0240672D01*
X0285642Y0240796D01*
X0285671Y0240921D01*
X0285704Y0241044D01*
X0285741Y0241166D01*
X0285781Y0241287D01*
X0285826Y0241406D01*
X0285873Y0241524D01*
X0285925Y0241641D01*
X0285980Y0241756D01*
X0286038Y0241869D01*
X0286101Y0241981D01*
X0286166Y0242090D01*
X0286235Y0242197D01*
X0286307Y0242302D01*
X0286382Y0242405D01*
X0286460Y0242506D01*
X0286542Y0242604D01*
X0286626Y0242699D01*
X0286714Y0242792D01*
X0286804Y0242882D01*
X0286897Y0242970D01*
X0286992Y0243054D01*
X0287090Y0243136D01*
X0287191Y0243214D01*
X0287294Y0243289D01*
X0287399Y0243361D01*
X0287506Y0243430D01*
X0287616Y0243495D01*
X0287727Y0243558D01*
X0287840Y0243616D01*
X0287955Y0243671D01*
X0288072Y0243723D01*
X0288190Y0243771D01*
X0288309Y0243815D01*
X0288430Y0243855D01*
X0288552Y0243892D01*
X0288675Y0243925D01*
X0288800Y0243954D01*
X0288924Y0243980D01*
X0289050Y0244001D01*
X0289176Y0244019D01*
X0289303Y0244032D01*
X0289430Y0244042D01*
X0289558Y0244048D01*
X0289685Y0244050D01*
X0293824Y0244050D01*
X0293824Y0229150D01*
X0289685Y0229150D01*
X0289558Y0229152D01*
X0289430Y0229158D01*
X0289303Y0229168D01*
X0289176Y0229181D01*
X0289050Y0229199D01*
X0288924Y0229220D01*
X0288800Y0229246D01*
X0288675Y0229275D01*
X0288552Y0229308D01*
X0288430Y0229345D01*
X0288309Y0229385D01*
X0288190Y0229429D01*
X0288072Y0229477D01*
X0287955Y0229529D01*
X0287840Y0229584D01*
X0287727Y0229642D01*
X0287616Y0229705D01*
X0287506Y0229770D01*
X0287399Y0229839D01*
X0287294Y0229911D01*
X0287191Y0229986D01*
X0287090Y0230064D01*
X0286992Y0230146D01*
X0286897Y0230230D01*
X0286804Y0230318D01*
X0286714Y0230408D01*
X0286626Y0230501D01*
X0286542Y0230596D01*
X0286460Y0230694D01*
X0286382Y0230795D01*
X0286307Y0230898D01*
X0286235Y0231003D01*
X0286166Y0231110D01*
X0286101Y0231219D01*
X0286038Y0231331D01*
X0285980Y0231444D01*
X0285925Y0231559D01*
X0285873Y0231676D01*
X0285825Y0231794D01*
X0285781Y0231913D01*
X0285741Y0232034D01*
X0285704Y0232156D01*
X0285671Y0232279D01*
X0285642Y0232404D01*
X0285616Y0232528D01*
X0285595Y0232654D01*
X0285577Y0232780D01*
X0285564Y0232907D01*
X0285554Y0233034D01*
X0285548Y0233162D01*
X0285546Y0233289D01*
X0298561Y0229150D02*
X0305184Y0229150D01*
X0305184Y0244050D01*
X0298561Y0244050D01*
X0300217Y0237428D02*
X0305184Y0237428D01*
X0309936Y0229150D02*
X0316559Y0229150D01*
X0316559Y0244050D01*
X0321859Y0239911D02*
X0321859Y0233289D01*
X0321861Y0233162D01*
X0321867Y0233034D01*
X0321877Y0232907D01*
X0321890Y0232780D01*
X0321908Y0232654D01*
X0321929Y0232528D01*
X0321955Y0232404D01*
X0321984Y0232279D01*
X0322017Y0232156D01*
X0322054Y0232034D01*
X0322094Y0231913D01*
X0322138Y0231794D01*
X0322186Y0231676D01*
X0322238Y0231559D01*
X0322293Y0231444D01*
X0322351Y0231331D01*
X0322414Y0231220D01*
X0322479Y0231110D01*
X0322548Y0231003D01*
X0322620Y0230898D01*
X0322695Y0230795D01*
X0322773Y0230694D01*
X0322855Y0230596D01*
X0322939Y0230501D01*
X0323027Y0230408D01*
X0323117Y0230318D01*
X0323210Y0230230D01*
X0323305Y0230146D01*
X0323403Y0230064D01*
X0323504Y0229986D01*
X0323607Y0229911D01*
X0323712Y0229839D01*
X0323819Y0229770D01*
X0323929Y0229705D01*
X0324040Y0229642D01*
X0324153Y0229584D01*
X0324268Y0229529D01*
X0324385Y0229477D01*
X0324503Y0229429D01*
X0324622Y0229385D01*
X0324743Y0229345D01*
X0324865Y0229308D01*
X0324988Y0229275D01*
X0325113Y0229246D01*
X0325237Y0229220D01*
X0325363Y0229199D01*
X0325489Y0229181D01*
X0325616Y0229168D01*
X0325743Y0229158D01*
X0325871Y0229152D01*
X0325998Y0229150D01*
X0326125Y0229152D01*
X0326253Y0229158D01*
X0326380Y0229168D01*
X0326507Y0229181D01*
X0326633Y0229199D01*
X0326759Y0229220D01*
X0326883Y0229246D01*
X0327008Y0229275D01*
X0327131Y0229308D01*
X0327253Y0229345D01*
X0327374Y0229385D01*
X0327493Y0229429D01*
X0327611Y0229477D01*
X0327728Y0229529D01*
X0327843Y0229584D01*
X0327956Y0229642D01*
X0328068Y0229705D01*
X0328177Y0229770D01*
X0328284Y0229839D01*
X0328389Y0229911D01*
X0328492Y0229986D01*
X0328593Y0230064D01*
X0328691Y0230146D01*
X0328786Y0230230D01*
X0328879Y0230318D01*
X0328969Y0230408D01*
X0329057Y0230501D01*
X0329141Y0230596D01*
X0329223Y0230694D01*
X0329301Y0230795D01*
X0329376Y0230898D01*
X0329448Y0231003D01*
X0329517Y0231110D01*
X0329582Y0231219D01*
X0329645Y0231331D01*
X0329703Y0231444D01*
X0329758Y0231559D01*
X0329810Y0231676D01*
X0329858Y0231794D01*
X0329902Y0231913D01*
X0329942Y0232034D01*
X0329979Y0232156D01*
X0330012Y0232279D01*
X0330041Y0232404D01*
X0330067Y0232528D01*
X0330088Y0232654D01*
X0330106Y0232780D01*
X0330119Y0232907D01*
X0330129Y0233034D01*
X0330135Y0233162D01*
X0330137Y0233289D01*
X0330137Y0239911D01*
X0330135Y0240038D01*
X0330129Y0240166D01*
X0330119Y0240293D01*
X0330106Y0240420D01*
X0330088Y0240546D01*
X0330067Y0240672D01*
X0330041Y0240796D01*
X0330012Y0240921D01*
X0329979Y0241044D01*
X0329942Y0241166D01*
X0329902Y0241287D01*
X0329858Y0241406D01*
X0329810Y0241524D01*
X0329758Y0241641D01*
X0329703Y0241756D01*
X0329645Y0241869D01*
X0329582Y0241981D01*
X0329517Y0242090D01*
X0329448Y0242197D01*
X0329376Y0242302D01*
X0329301Y0242405D01*
X0329223Y0242506D01*
X0329141Y0242604D01*
X0329057Y0242699D01*
X0328969Y0242792D01*
X0328879Y0242882D01*
X0328786Y0242970D01*
X0328691Y0243054D01*
X0328593Y0243136D01*
X0328492Y0243214D01*
X0328389Y0243289D01*
X0328284Y0243361D01*
X0328177Y0243430D01*
X0328068Y0243495D01*
X0327956Y0243558D01*
X0327843Y0243616D01*
X0327728Y0243671D01*
X0327611Y0243723D01*
X0327493Y0243771D01*
X0327374Y0243815D01*
X0327253Y0243855D01*
X0327131Y0243892D01*
X0327008Y0243925D01*
X0326883Y0243954D01*
X0326759Y0243980D01*
X0326633Y0244001D01*
X0326507Y0244019D01*
X0326380Y0244032D01*
X0326253Y0244042D01*
X0326125Y0244048D01*
X0325998Y0244050D01*
X0325871Y0244048D01*
X0325743Y0244042D01*
X0325616Y0244032D01*
X0325489Y0244019D01*
X0325363Y0244001D01*
X0325237Y0243980D01*
X0325113Y0243954D01*
X0324988Y0243925D01*
X0324865Y0243892D01*
X0324743Y0243855D01*
X0324622Y0243815D01*
X0324503Y0243771D01*
X0324385Y0243723D01*
X0324268Y0243671D01*
X0324153Y0243616D01*
X0324040Y0243558D01*
X0323929Y0243495D01*
X0323819Y0243430D01*
X0323712Y0243361D01*
X0323607Y0243289D01*
X0323504Y0243214D01*
X0323403Y0243136D01*
X0323305Y0243054D01*
X0323210Y0242970D01*
X0323117Y0242882D01*
X0323027Y0242792D01*
X0322939Y0242699D01*
X0322855Y0242604D01*
X0322773Y0242506D01*
X0322695Y0242405D01*
X0322620Y0242302D01*
X0322548Y0242197D01*
X0322479Y0242090D01*
X0322414Y0241981D01*
X0322351Y0241869D01*
X0322293Y0241756D01*
X0322238Y0241641D01*
X0322186Y0241524D01*
X0322138Y0241406D01*
X0322094Y0241287D01*
X0322054Y0241166D01*
X0322017Y0241044D01*
X0321984Y0240921D01*
X0321955Y0240796D01*
X0321929Y0240672D01*
X0321908Y0240546D01*
X0321890Y0240420D01*
X0321877Y0240293D01*
X0321867Y0240166D01*
X0321861Y0240038D01*
X0321859Y0239911D01*
X0264871Y0244050D02*
X0264871Y0229150D01*
X0260732Y0235772D02*
X0260605Y0235774D01*
X0260477Y0235780D01*
X0260350Y0235790D01*
X0260223Y0235803D01*
X0260097Y0235821D01*
X0259971Y0235842D01*
X0259847Y0235868D01*
X0259722Y0235897D01*
X0259599Y0235930D01*
X0259477Y0235967D01*
X0259356Y0236007D01*
X0259237Y0236051D01*
X0259119Y0236099D01*
X0259002Y0236151D01*
X0258887Y0236206D01*
X0258774Y0236264D01*
X0258662Y0236327D01*
X0258553Y0236392D01*
X0258446Y0236461D01*
X0258341Y0236533D01*
X0258238Y0236608D01*
X0258137Y0236686D01*
X0258039Y0236768D01*
X0257944Y0236852D01*
X0257851Y0236940D01*
X0257761Y0237030D01*
X0257673Y0237123D01*
X0257589Y0237218D01*
X0257507Y0237316D01*
X0257429Y0237417D01*
X0257354Y0237520D01*
X0257282Y0237625D01*
X0257213Y0237732D01*
X0257148Y0237842D01*
X0257085Y0237953D01*
X0257027Y0238066D01*
X0256972Y0238181D01*
X0256920Y0238298D01*
X0256872Y0238416D01*
X0256828Y0238535D01*
X0256788Y0238656D01*
X0256751Y0238778D01*
X0256718Y0238901D01*
X0256689Y0239026D01*
X0256663Y0239150D01*
X0256642Y0239276D01*
X0256624Y0239402D01*
X0256611Y0239529D01*
X0256601Y0239656D01*
X0256595Y0239784D01*
X0256593Y0239911D01*
X0256595Y0240038D01*
X0256601Y0240166D01*
X0256611Y0240293D01*
X0256624Y0240420D01*
X0256642Y0240546D01*
X0256663Y0240672D01*
X0256689Y0240796D01*
X0256718Y0240921D01*
X0256751Y0241044D01*
X0256788Y0241166D01*
X0256828Y0241287D01*
X0256872Y0241406D01*
X0256920Y0241524D01*
X0256972Y0241641D01*
X0257027Y0241756D01*
X0257085Y0241869D01*
X0257148Y0241981D01*
X0257213Y0242090D01*
X0257282Y0242197D01*
X0257354Y0242302D01*
X0257429Y0242405D01*
X0257507Y0242506D01*
X0257589Y0242604D01*
X0257673Y0242699D01*
X0257761Y0242792D01*
X0257851Y0242882D01*
X0257944Y0242970D01*
X0258039Y0243054D01*
X0258137Y0243136D01*
X0258238Y0243214D01*
X0258341Y0243289D01*
X0258446Y0243361D01*
X0258553Y0243430D01*
X0258663Y0243495D01*
X0258774Y0243558D01*
X0258887Y0243616D01*
X0259002Y0243671D01*
X0259119Y0243723D01*
X0259237Y0243771D01*
X0259356Y0243815D01*
X0259477Y0243855D01*
X0259599Y0243892D01*
X0259722Y0243925D01*
X0259847Y0243954D01*
X0259971Y0243980D01*
X0260097Y0244001D01*
X0260223Y0244019D01*
X0260350Y0244032D01*
X0260477Y0244042D01*
X0260605Y0244048D01*
X0260732Y0244050D01*
X0264871Y0244050D01*
D86*
X0232583Y0271820D02*
X0230806Y0271820D01*
X0229071Y0271820D02*
X0226405Y0275820D01*
X0224649Y0275820D02*
X0222427Y0275820D01*
X0223538Y0275820D02*
X0223538Y0271820D01*
X0226405Y0271820D02*
X0229071Y0275820D01*
X0230806Y0275820D02*
X0232583Y0275820D01*
X0232583Y0271820D01*
X0232583Y0274043D02*
X0231250Y0274043D01*
D87*
X0258567Y0221050D02*
X0258567Y0215717D01*
X0258568Y0215717D02*
X0258566Y0215653D01*
X0258560Y0215588D01*
X0258551Y0215525D01*
X0258537Y0215462D01*
X0258520Y0215400D01*
X0258499Y0215339D01*
X0258474Y0215279D01*
X0258446Y0215221D01*
X0258414Y0215165D01*
X0258379Y0215111D01*
X0258341Y0215059D01*
X0258300Y0215009D01*
X0258255Y0214963D01*
X0258209Y0214918D01*
X0258159Y0214877D01*
X0258107Y0214839D01*
X0258053Y0214804D01*
X0257997Y0214772D01*
X0257939Y0214744D01*
X0257879Y0214719D01*
X0257818Y0214698D01*
X0257756Y0214681D01*
X0257693Y0214667D01*
X0257630Y0214658D01*
X0257565Y0214652D01*
X0257501Y0214650D01*
X0261431Y0214650D02*
X0263209Y0214650D01*
X0263273Y0214652D01*
X0263338Y0214658D01*
X0263401Y0214667D01*
X0263464Y0214681D01*
X0263526Y0214698D01*
X0263587Y0214719D01*
X0263647Y0214744D01*
X0263705Y0214772D01*
X0263761Y0214804D01*
X0263815Y0214839D01*
X0263867Y0214877D01*
X0263917Y0214918D01*
X0263963Y0214963D01*
X0264008Y0215009D01*
X0264049Y0215059D01*
X0264087Y0215111D01*
X0264122Y0215165D01*
X0264154Y0215221D01*
X0264182Y0215279D01*
X0264207Y0215339D01*
X0264228Y0215400D01*
X0264245Y0215462D01*
X0264259Y0215525D01*
X0264268Y0215588D01*
X0264274Y0215653D01*
X0264276Y0215717D01*
X0264275Y0215717D02*
X0264275Y0217494D01*
X0264275Y0216783D02*
X0261431Y0216783D01*
X0261431Y0217494D01*
X0261433Y0217568D01*
X0261439Y0217643D01*
X0261449Y0217716D01*
X0261462Y0217790D01*
X0261479Y0217862D01*
X0261501Y0217933D01*
X0261525Y0218004D01*
X0261554Y0218072D01*
X0261586Y0218140D01*
X0261622Y0218205D01*
X0261660Y0218268D01*
X0261703Y0218330D01*
X0261748Y0218389D01*
X0261796Y0218446D01*
X0261847Y0218500D01*
X0261901Y0218551D01*
X0261958Y0218599D01*
X0262017Y0218644D01*
X0262079Y0218687D01*
X0262142Y0218725D01*
X0262207Y0218761D01*
X0262275Y0218793D01*
X0262343Y0218822D01*
X0262414Y0218846D01*
X0262485Y0218868D01*
X0262557Y0218885D01*
X0262631Y0218898D01*
X0262704Y0218908D01*
X0262779Y0218914D01*
X0262853Y0218916D01*
X0262927Y0218914D01*
X0263002Y0218908D01*
X0263075Y0218898D01*
X0263149Y0218885D01*
X0263221Y0218868D01*
X0263292Y0218846D01*
X0263363Y0218822D01*
X0263431Y0218793D01*
X0263499Y0218761D01*
X0263564Y0218725D01*
X0263627Y0218687D01*
X0263689Y0218644D01*
X0263748Y0218599D01*
X0263805Y0218551D01*
X0263859Y0218500D01*
X0263910Y0218446D01*
X0263958Y0218389D01*
X0264003Y0218330D01*
X0264046Y0218268D01*
X0264084Y0218205D01*
X0264120Y0218140D01*
X0264152Y0218072D01*
X0264181Y0218004D01*
X0264205Y0217933D01*
X0264227Y0217862D01*
X0264244Y0217790D01*
X0264257Y0217716D01*
X0264267Y0217643D01*
X0264273Y0217568D01*
X0264275Y0217494D01*
X0266866Y0218917D02*
X0268288Y0214650D01*
X0269710Y0218917D01*
X0272127Y0218917D02*
X0272127Y0214650D01*
X0274680Y0214650D02*
X0275036Y0214650D01*
X0275100Y0214652D01*
X0275165Y0214658D01*
X0275228Y0214667D01*
X0275291Y0214681D01*
X0275353Y0214698D01*
X0275414Y0214719D01*
X0275474Y0214744D01*
X0275532Y0214772D01*
X0275588Y0214804D01*
X0275642Y0214839D01*
X0275694Y0214877D01*
X0275744Y0214918D01*
X0275790Y0214963D01*
X0275835Y0215009D01*
X0275876Y0215059D01*
X0275914Y0215111D01*
X0275949Y0215165D01*
X0275981Y0215221D01*
X0276009Y0215279D01*
X0276034Y0215339D01*
X0276055Y0215400D01*
X0276072Y0215462D01*
X0276086Y0215525D01*
X0276095Y0215588D01*
X0276101Y0215653D01*
X0276103Y0215717D01*
X0276103Y0221050D01*
X0276814Y0218917D02*
X0274680Y0218917D01*
X0272305Y0220517D02*
X0271594Y0221939D01*
X0279300Y0217850D02*
X0279300Y0214650D01*
X0280900Y0214650D01*
X0280970Y0214652D01*
X0281039Y0214658D01*
X0281108Y0214668D01*
X0281177Y0214681D01*
X0281244Y0214699D01*
X0281311Y0214720D01*
X0281376Y0214745D01*
X0281440Y0214773D01*
X0281502Y0214805D01*
X0281562Y0214841D01*
X0281620Y0214879D01*
X0281676Y0214921D01*
X0281729Y0214966D01*
X0281780Y0215014D01*
X0281828Y0215065D01*
X0281873Y0215118D01*
X0281915Y0215174D01*
X0281953Y0215232D01*
X0281989Y0215292D01*
X0282021Y0215354D01*
X0282049Y0215418D01*
X0282074Y0215483D01*
X0282095Y0215550D01*
X0282113Y0215617D01*
X0282126Y0215686D01*
X0282136Y0215755D01*
X0282142Y0215824D01*
X0282144Y0215894D01*
X0282142Y0215964D01*
X0282136Y0216033D01*
X0282126Y0216102D01*
X0282113Y0216171D01*
X0282095Y0216238D01*
X0282074Y0216305D01*
X0282049Y0216370D01*
X0282021Y0216434D01*
X0281989Y0216496D01*
X0281953Y0216556D01*
X0281915Y0216614D01*
X0281873Y0216670D01*
X0281828Y0216723D01*
X0281780Y0216774D01*
X0281729Y0216822D01*
X0281676Y0216867D01*
X0281620Y0216909D01*
X0281562Y0216947D01*
X0281502Y0216983D01*
X0281440Y0217015D01*
X0281376Y0217043D01*
X0281311Y0217068D01*
X0281244Y0217089D01*
X0281177Y0217107D01*
X0281108Y0217120D01*
X0281039Y0217130D01*
X0280970Y0217136D01*
X0280900Y0217138D01*
X0280900Y0217139D02*
X0279300Y0217139D01*
X0279300Y0217850D02*
X0279302Y0217914D01*
X0279308Y0217979D01*
X0279317Y0218042D01*
X0279331Y0218105D01*
X0279348Y0218167D01*
X0279369Y0218228D01*
X0279394Y0218288D01*
X0279422Y0218346D01*
X0279454Y0218402D01*
X0279489Y0218456D01*
X0279527Y0218508D01*
X0279568Y0218558D01*
X0279613Y0218604D01*
X0279659Y0218649D01*
X0279709Y0218690D01*
X0279761Y0218728D01*
X0279815Y0218763D01*
X0279871Y0218795D01*
X0279929Y0218823D01*
X0279989Y0218848D01*
X0280050Y0218869D01*
X0280112Y0218886D01*
X0280175Y0218900D01*
X0280238Y0218909D01*
X0280303Y0218915D01*
X0280367Y0218917D01*
X0281789Y0218917D01*
X0284869Y0217850D02*
X0284869Y0215717D01*
X0284868Y0215717D02*
X0284870Y0215653D01*
X0284876Y0215588D01*
X0284885Y0215525D01*
X0284899Y0215462D01*
X0284916Y0215400D01*
X0284937Y0215339D01*
X0284962Y0215279D01*
X0284990Y0215221D01*
X0285022Y0215165D01*
X0285057Y0215111D01*
X0285095Y0215059D01*
X0285136Y0215009D01*
X0285181Y0214963D01*
X0285227Y0214918D01*
X0285277Y0214877D01*
X0285329Y0214839D01*
X0285383Y0214804D01*
X0285439Y0214772D01*
X0285497Y0214744D01*
X0285557Y0214719D01*
X0285618Y0214698D01*
X0285680Y0214681D01*
X0285743Y0214667D01*
X0285806Y0214658D01*
X0285871Y0214652D01*
X0285935Y0214650D01*
X0287713Y0214650D01*
X0287713Y0212517D02*
X0287713Y0218917D01*
X0285935Y0218917D01*
X0285871Y0218915D01*
X0285806Y0218909D01*
X0285743Y0218900D01*
X0285680Y0218886D01*
X0285618Y0218869D01*
X0285557Y0218848D01*
X0285497Y0218823D01*
X0285439Y0218795D01*
X0285383Y0218763D01*
X0285329Y0218728D01*
X0285277Y0218690D01*
X0285227Y0218649D01*
X0285181Y0218604D01*
X0285136Y0218558D01*
X0285095Y0218508D01*
X0285057Y0218456D01*
X0285022Y0218402D01*
X0284990Y0218346D01*
X0284962Y0218288D01*
X0284937Y0218228D01*
X0284916Y0218167D01*
X0284899Y0218105D01*
X0284885Y0218042D01*
X0284876Y0217979D01*
X0284870Y0217914D01*
X0284868Y0217850D01*
X0291157Y0217850D02*
X0291157Y0214650D01*
X0293290Y0214650D02*
X0293290Y0218917D01*
X0292223Y0218917D02*
X0295423Y0218917D01*
X0295423Y0214650D01*
X0298607Y0216072D02*
X0298607Y0217494D01*
X0298609Y0217568D01*
X0298615Y0217643D01*
X0298625Y0217716D01*
X0298638Y0217790D01*
X0298655Y0217862D01*
X0298677Y0217933D01*
X0298701Y0218004D01*
X0298730Y0218072D01*
X0298762Y0218140D01*
X0298798Y0218205D01*
X0298836Y0218268D01*
X0298879Y0218330D01*
X0298924Y0218389D01*
X0298972Y0218446D01*
X0299023Y0218500D01*
X0299077Y0218551D01*
X0299134Y0218599D01*
X0299193Y0218644D01*
X0299255Y0218687D01*
X0299318Y0218725D01*
X0299383Y0218761D01*
X0299451Y0218793D01*
X0299519Y0218822D01*
X0299590Y0218846D01*
X0299661Y0218868D01*
X0299733Y0218885D01*
X0299807Y0218898D01*
X0299880Y0218908D01*
X0299955Y0218914D01*
X0300029Y0218916D01*
X0300103Y0218914D01*
X0300178Y0218908D01*
X0300251Y0218898D01*
X0300325Y0218885D01*
X0300397Y0218868D01*
X0300468Y0218846D01*
X0300539Y0218822D01*
X0300607Y0218793D01*
X0300675Y0218761D01*
X0300740Y0218725D01*
X0300803Y0218687D01*
X0300865Y0218644D01*
X0300924Y0218599D01*
X0300981Y0218551D01*
X0301035Y0218500D01*
X0301086Y0218446D01*
X0301134Y0218389D01*
X0301179Y0218330D01*
X0301222Y0218268D01*
X0301260Y0218205D01*
X0301296Y0218140D01*
X0301328Y0218072D01*
X0301357Y0218004D01*
X0301381Y0217933D01*
X0301403Y0217862D01*
X0301420Y0217790D01*
X0301433Y0217716D01*
X0301443Y0217643D01*
X0301449Y0217568D01*
X0301451Y0217494D01*
X0301452Y0217494D02*
X0301452Y0216072D01*
X0301451Y0216072D02*
X0301449Y0215998D01*
X0301443Y0215923D01*
X0301433Y0215850D01*
X0301420Y0215776D01*
X0301403Y0215704D01*
X0301381Y0215633D01*
X0301357Y0215562D01*
X0301328Y0215494D01*
X0301296Y0215426D01*
X0301260Y0215361D01*
X0301222Y0215298D01*
X0301179Y0215236D01*
X0301134Y0215177D01*
X0301086Y0215120D01*
X0301035Y0215066D01*
X0300981Y0215015D01*
X0300924Y0214967D01*
X0300865Y0214922D01*
X0300803Y0214879D01*
X0300740Y0214841D01*
X0300675Y0214805D01*
X0300607Y0214773D01*
X0300539Y0214744D01*
X0300468Y0214720D01*
X0300397Y0214698D01*
X0300325Y0214681D01*
X0300251Y0214668D01*
X0300178Y0214658D01*
X0300103Y0214652D01*
X0300029Y0214650D01*
X0299955Y0214652D01*
X0299880Y0214658D01*
X0299807Y0214668D01*
X0299733Y0214681D01*
X0299661Y0214698D01*
X0299590Y0214720D01*
X0299519Y0214744D01*
X0299451Y0214773D01*
X0299383Y0214805D01*
X0299318Y0214841D01*
X0299255Y0214879D01*
X0299193Y0214922D01*
X0299134Y0214967D01*
X0299077Y0215015D01*
X0299023Y0215066D01*
X0298972Y0215120D01*
X0298924Y0215177D01*
X0298879Y0215236D01*
X0298836Y0215298D01*
X0298798Y0215361D01*
X0298762Y0215426D01*
X0298730Y0215494D01*
X0298701Y0215562D01*
X0298677Y0215633D01*
X0298655Y0215704D01*
X0298638Y0215776D01*
X0298625Y0215850D01*
X0298615Y0215923D01*
X0298609Y0215998D01*
X0298607Y0216072D01*
X0303985Y0214650D02*
X0305407Y0214650D01*
X0305481Y0214652D01*
X0305556Y0214658D01*
X0305629Y0214668D01*
X0305703Y0214681D01*
X0305775Y0214698D01*
X0305846Y0214720D01*
X0305917Y0214744D01*
X0305985Y0214773D01*
X0306053Y0214805D01*
X0306118Y0214841D01*
X0306181Y0214879D01*
X0306243Y0214922D01*
X0306302Y0214967D01*
X0306359Y0215015D01*
X0306413Y0215066D01*
X0306464Y0215120D01*
X0306512Y0215177D01*
X0306557Y0215236D01*
X0306600Y0215298D01*
X0306638Y0215361D01*
X0306674Y0215426D01*
X0306706Y0215494D01*
X0306735Y0215562D01*
X0306759Y0215633D01*
X0306781Y0215704D01*
X0306798Y0215776D01*
X0306811Y0215850D01*
X0306821Y0215923D01*
X0306827Y0215998D01*
X0306829Y0216072D01*
X0306830Y0216072D02*
X0306830Y0219628D01*
X0306829Y0219628D02*
X0306827Y0219702D01*
X0306821Y0219777D01*
X0306811Y0219850D01*
X0306798Y0219924D01*
X0306781Y0219996D01*
X0306759Y0220067D01*
X0306735Y0220138D01*
X0306706Y0220206D01*
X0306674Y0220274D01*
X0306638Y0220339D01*
X0306600Y0220402D01*
X0306557Y0220464D01*
X0306512Y0220523D01*
X0306464Y0220580D01*
X0306413Y0220634D01*
X0306359Y0220685D01*
X0306302Y0220733D01*
X0306243Y0220778D01*
X0306181Y0220821D01*
X0306118Y0220859D01*
X0306053Y0220895D01*
X0305985Y0220927D01*
X0305917Y0220956D01*
X0305846Y0220980D01*
X0305775Y0221002D01*
X0305703Y0221019D01*
X0305629Y0221032D01*
X0305556Y0221042D01*
X0305481Y0221048D01*
X0305407Y0221050D01*
X0303985Y0221050D01*
X0292223Y0218917D02*
X0292159Y0218915D01*
X0292094Y0218909D01*
X0292031Y0218900D01*
X0291968Y0218886D01*
X0291906Y0218869D01*
X0291845Y0218848D01*
X0291785Y0218823D01*
X0291727Y0218795D01*
X0291671Y0218763D01*
X0291617Y0218728D01*
X0291565Y0218690D01*
X0291515Y0218649D01*
X0291469Y0218604D01*
X0291424Y0218558D01*
X0291383Y0218508D01*
X0291345Y0218456D01*
X0291310Y0218402D01*
X0291278Y0218346D01*
X0291250Y0218288D01*
X0291225Y0218228D01*
X0291204Y0218167D01*
X0291187Y0218105D01*
X0291173Y0218042D01*
X0291164Y0217979D01*
X0291158Y0217914D01*
X0291156Y0217850D01*
X0288699Y0209800D02*
X0288699Y0204467D01*
X0288697Y0204403D01*
X0288691Y0204338D01*
X0288682Y0204275D01*
X0288668Y0204212D01*
X0288651Y0204150D01*
X0288630Y0204089D01*
X0288605Y0204029D01*
X0288577Y0203971D01*
X0288545Y0203915D01*
X0288510Y0203861D01*
X0288472Y0203809D01*
X0288431Y0203759D01*
X0288386Y0203713D01*
X0288340Y0203668D01*
X0288290Y0203627D01*
X0288238Y0203589D01*
X0288184Y0203554D01*
X0288128Y0203522D01*
X0288070Y0203494D01*
X0288010Y0203469D01*
X0287949Y0203448D01*
X0287887Y0203431D01*
X0287824Y0203417D01*
X0287761Y0203408D01*
X0287696Y0203402D01*
X0287632Y0203400D01*
X0284074Y0203400D02*
X0282474Y0203400D01*
X0282474Y0206600D01*
X0282474Y0205889D02*
X0284074Y0205889D01*
X0282473Y0206600D02*
X0282475Y0206664D01*
X0282481Y0206729D01*
X0282490Y0206792D01*
X0282504Y0206855D01*
X0282521Y0206917D01*
X0282542Y0206978D01*
X0282567Y0207038D01*
X0282595Y0207096D01*
X0282627Y0207152D01*
X0282662Y0207206D01*
X0282700Y0207258D01*
X0282741Y0207308D01*
X0282786Y0207354D01*
X0282832Y0207399D01*
X0282882Y0207440D01*
X0282934Y0207478D01*
X0282988Y0207513D01*
X0283044Y0207545D01*
X0283102Y0207573D01*
X0283162Y0207598D01*
X0283223Y0207619D01*
X0283285Y0207636D01*
X0283348Y0207650D01*
X0283411Y0207659D01*
X0283476Y0207665D01*
X0283540Y0207667D01*
X0284963Y0207667D01*
X0284074Y0205888D02*
X0284144Y0205886D01*
X0284213Y0205880D01*
X0284282Y0205870D01*
X0284351Y0205857D01*
X0284418Y0205839D01*
X0284485Y0205818D01*
X0284550Y0205793D01*
X0284614Y0205765D01*
X0284676Y0205733D01*
X0284736Y0205697D01*
X0284794Y0205659D01*
X0284850Y0205617D01*
X0284903Y0205572D01*
X0284954Y0205524D01*
X0285002Y0205473D01*
X0285047Y0205420D01*
X0285089Y0205364D01*
X0285127Y0205306D01*
X0285163Y0205246D01*
X0285195Y0205184D01*
X0285223Y0205120D01*
X0285248Y0205055D01*
X0285269Y0204988D01*
X0285287Y0204921D01*
X0285300Y0204852D01*
X0285310Y0204783D01*
X0285316Y0204714D01*
X0285318Y0204644D01*
X0285316Y0204574D01*
X0285310Y0204505D01*
X0285300Y0204436D01*
X0285287Y0204367D01*
X0285269Y0204300D01*
X0285248Y0204233D01*
X0285223Y0204168D01*
X0285195Y0204104D01*
X0285163Y0204042D01*
X0285127Y0203982D01*
X0285089Y0203924D01*
X0285047Y0203868D01*
X0285002Y0203815D01*
X0284954Y0203764D01*
X0284903Y0203716D01*
X0284850Y0203671D01*
X0284794Y0203629D01*
X0284736Y0203591D01*
X0284676Y0203555D01*
X0284614Y0203523D01*
X0284550Y0203495D01*
X0284485Y0203470D01*
X0284418Y0203449D01*
X0284351Y0203431D01*
X0284282Y0203418D01*
X0284213Y0203408D01*
X0284144Y0203402D01*
X0284074Y0203400D01*
X0279506Y0203400D02*
X0279506Y0207667D01*
X0279328Y0209444D02*
X0279684Y0209444D01*
X0279684Y0209800D01*
X0279328Y0209800D01*
X0279328Y0209444D01*
X0276580Y0207667D02*
X0274802Y0207667D01*
X0274738Y0207665D01*
X0274673Y0207659D01*
X0274610Y0207650D01*
X0274547Y0207636D01*
X0274485Y0207619D01*
X0274424Y0207598D01*
X0274364Y0207573D01*
X0274306Y0207545D01*
X0274250Y0207513D01*
X0274196Y0207478D01*
X0274144Y0207440D01*
X0274094Y0207399D01*
X0274048Y0207354D01*
X0274003Y0207308D01*
X0273962Y0207258D01*
X0273924Y0207206D01*
X0273889Y0207152D01*
X0273857Y0207096D01*
X0273829Y0207038D01*
X0273804Y0206978D01*
X0273783Y0206917D01*
X0273766Y0206855D01*
X0273752Y0206792D01*
X0273743Y0206729D01*
X0273737Y0206664D01*
X0273735Y0206600D01*
X0273736Y0206600D02*
X0273736Y0203400D01*
X0276580Y0203400D02*
X0276580Y0207667D01*
X0270710Y0206244D02*
X0270710Y0204467D01*
X0270710Y0205533D02*
X0267866Y0205533D01*
X0267866Y0206244D01*
X0267868Y0206318D01*
X0267874Y0206393D01*
X0267884Y0206466D01*
X0267897Y0206540D01*
X0267914Y0206612D01*
X0267936Y0206683D01*
X0267960Y0206754D01*
X0267989Y0206822D01*
X0268021Y0206890D01*
X0268057Y0206955D01*
X0268095Y0207018D01*
X0268138Y0207080D01*
X0268183Y0207139D01*
X0268231Y0207196D01*
X0268282Y0207250D01*
X0268336Y0207301D01*
X0268393Y0207349D01*
X0268452Y0207394D01*
X0268514Y0207437D01*
X0268577Y0207475D01*
X0268642Y0207511D01*
X0268710Y0207543D01*
X0268778Y0207572D01*
X0268849Y0207596D01*
X0268920Y0207618D01*
X0268992Y0207635D01*
X0269066Y0207648D01*
X0269139Y0207658D01*
X0269214Y0207664D01*
X0269288Y0207666D01*
X0269362Y0207664D01*
X0269437Y0207658D01*
X0269510Y0207648D01*
X0269584Y0207635D01*
X0269656Y0207618D01*
X0269727Y0207596D01*
X0269798Y0207572D01*
X0269866Y0207543D01*
X0269934Y0207511D01*
X0269999Y0207475D01*
X0270062Y0207437D01*
X0270124Y0207394D01*
X0270183Y0207349D01*
X0270240Y0207301D01*
X0270294Y0207250D01*
X0270345Y0207196D01*
X0270393Y0207139D01*
X0270438Y0207080D01*
X0270481Y0207018D01*
X0270519Y0206955D01*
X0270555Y0206890D01*
X0270587Y0206822D01*
X0270616Y0206754D01*
X0270640Y0206683D01*
X0270662Y0206612D01*
X0270679Y0206540D01*
X0270692Y0206466D01*
X0270702Y0206393D01*
X0270708Y0206318D01*
X0270710Y0206244D01*
X0270710Y0204467D02*
X0270708Y0204403D01*
X0270702Y0204338D01*
X0270693Y0204275D01*
X0270679Y0204212D01*
X0270662Y0204150D01*
X0270641Y0204089D01*
X0270616Y0204029D01*
X0270588Y0203971D01*
X0270556Y0203915D01*
X0270521Y0203861D01*
X0270483Y0203809D01*
X0270442Y0203759D01*
X0270397Y0203713D01*
X0270351Y0203668D01*
X0270301Y0203627D01*
X0270249Y0203589D01*
X0270195Y0203554D01*
X0270139Y0203522D01*
X0270081Y0203494D01*
X0270021Y0203469D01*
X0269960Y0203448D01*
X0269898Y0203431D01*
X0269835Y0203417D01*
X0269772Y0203408D01*
X0269707Y0203402D01*
X0269643Y0203400D01*
X0267866Y0203400D01*
X0265099Y0204467D02*
X0265099Y0206600D01*
X0265100Y0206600D02*
X0265098Y0206664D01*
X0265092Y0206729D01*
X0265083Y0206792D01*
X0265069Y0206855D01*
X0265052Y0206917D01*
X0265031Y0206978D01*
X0265006Y0207038D01*
X0264978Y0207096D01*
X0264946Y0207152D01*
X0264911Y0207206D01*
X0264873Y0207258D01*
X0264832Y0207308D01*
X0264787Y0207354D01*
X0264741Y0207399D01*
X0264691Y0207440D01*
X0264639Y0207478D01*
X0264585Y0207513D01*
X0264529Y0207545D01*
X0264471Y0207573D01*
X0264411Y0207598D01*
X0264350Y0207619D01*
X0264288Y0207636D01*
X0264225Y0207650D01*
X0264162Y0207659D01*
X0264097Y0207665D01*
X0264033Y0207667D01*
X0262255Y0207667D01*
X0262255Y0209800D02*
X0262255Y0203400D01*
X0264033Y0203400D01*
X0264097Y0203402D01*
X0264162Y0203408D01*
X0264225Y0203417D01*
X0264288Y0203431D01*
X0264350Y0203448D01*
X0264411Y0203469D01*
X0264471Y0203494D01*
X0264529Y0203522D01*
X0264585Y0203554D01*
X0264639Y0203589D01*
X0264691Y0203627D01*
X0264741Y0203668D01*
X0264787Y0203713D01*
X0264832Y0203759D01*
X0264873Y0203809D01*
X0264911Y0203861D01*
X0264946Y0203915D01*
X0264978Y0203971D01*
X0265006Y0204029D01*
X0265031Y0204089D01*
X0265052Y0204150D01*
X0265069Y0204212D01*
X0265083Y0204275D01*
X0265092Y0204338D01*
X0265098Y0204403D01*
X0265100Y0204467D01*
X0261935Y0198550D02*
X0261935Y0192150D01*
X0264653Y0192150D02*
X0266075Y0192150D01*
X0266139Y0192152D01*
X0266204Y0192158D01*
X0266267Y0192167D01*
X0266330Y0192181D01*
X0266392Y0192198D01*
X0266453Y0192219D01*
X0266513Y0192244D01*
X0266571Y0192272D01*
X0266627Y0192304D01*
X0266681Y0192339D01*
X0266733Y0192377D01*
X0266783Y0192418D01*
X0266829Y0192463D01*
X0266874Y0192509D01*
X0266915Y0192559D01*
X0266953Y0192611D01*
X0266988Y0192665D01*
X0267020Y0192721D01*
X0267048Y0192779D01*
X0267073Y0192839D01*
X0267094Y0192900D01*
X0267111Y0192962D01*
X0267125Y0193025D01*
X0267134Y0193088D01*
X0267140Y0193153D01*
X0267142Y0193217D01*
X0267142Y0195350D01*
X0267140Y0195414D01*
X0267134Y0195479D01*
X0267125Y0195542D01*
X0267111Y0195605D01*
X0267094Y0195667D01*
X0267073Y0195728D01*
X0267048Y0195788D01*
X0267020Y0195846D01*
X0266988Y0195902D01*
X0266953Y0195956D01*
X0266915Y0196008D01*
X0266874Y0196058D01*
X0266829Y0196104D01*
X0266783Y0196149D01*
X0266733Y0196190D01*
X0266681Y0196228D01*
X0266627Y0196263D01*
X0266571Y0196295D01*
X0266513Y0196323D01*
X0266453Y0196348D01*
X0266392Y0196369D01*
X0266330Y0196386D01*
X0266267Y0196400D01*
X0266204Y0196409D01*
X0266139Y0196415D01*
X0266075Y0196417D01*
X0264653Y0196417D01*
X0261935Y0196417D02*
X0260157Y0196417D01*
X0260093Y0196415D01*
X0260028Y0196409D01*
X0259965Y0196400D01*
X0259902Y0196386D01*
X0259840Y0196369D01*
X0259779Y0196348D01*
X0259719Y0196323D01*
X0259661Y0196295D01*
X0259605Y0196263D01*
X0259551Y0196228D01*
X0259499Y0196190D01*
X0259449Y0196149D01*
X0259403Y0196104D01*
X0259358Y0196058D01*
X0259317Y0196008D01*
X0259279Y0195956D01*
X0259244Y0195902D01*
X0259212Y0195846D01*
X0259184Y0195788D01*
X0259159Y0195728D01*
X0259138Y0195667D01*
X0259121Y0195605D01*
X0259107Y0195542D01*
X0259098Y0195479D01*
X0259092Y0195414D01*
X0259090Y0195350D01*
X0259090Y0192150D01*
X0256164Y0192150D02*
X0256164Y0196417D01*
X0255986Y0198194D02*
X0256342Y0198194D01*
X0256342Y0198550D01*
X0255986Y0198550D01*
X0255986Y0198194D01*
X0253196Y0196417D02*
X0251419Y0196417D01*
X0251355Y0196415D01*
X0251290Y0196409D01*
X0251227Y0196400D01*
X0251164Y0196386D01*
X0251102Y0196369D01*
X0251041Y0196348D01*
X0250981Y0196323D01*
X0250923Y0196295D01*
X0250867Y0196263D01*
X0250813Y0196228D01*
X0250761Y0196190D01*
X0250711Y0196149D01*
X0250665Y0196104D01*
X0250620Y0196058D01*
X0250579Y0196008D01*
X0250541Y0195956D01*
X0250506Y0195902D01*
X0250474Y0195846D01*
X0250446Y0195788D01*
X0250421Y0195728D01*
X0250400Y0195667D01*
X0250383Y0195605D01*
X0250369Y0195542D01*
X0250360Y0195479D01*
X0250354Y0195414D01*
X0250352Y0195350D01*
X0250352Y0193217D01*
X0250354Y0193153D01*
X0250360Y0193088D01*
X0250369Y0193025D01*
X0250383Y0192962D01*
X0250400Y0192900D01*
X0250421Y0192839D01*
X0250446Y0192779D01*
X0250474Y0192721D01*
X0250506Y0192665D01*
X0250541Y0192611D01*
X0250579Y0192559D01*
X0250620Y0192509D01*
X0250665Y0192463D01*
X0250711Y0192418D01*
X0250761Y0192377D01*
X0250813Y0192339D01*
X0250867Y0192304D01*
X0250923Y0192272D01*
X0250981Y0192244D01*
X0251041Y0192219D01*
X0251102Y0192198D01*
X0251164Y0192181D01*
X0251227Y0192167D01*
X0251290Y0192158D01*
X0251355Y0192152D01*
X0251419Y0192150D01*
X0253196Y0192150D01*
X0253196Y0190017D02*
X0253196Y0196417D01*
X0246343Y0195350D02*
X0246345Y0195198D01*
X0246351Y0195047D01*
X0246360Y0194895D01*
X0246373Y0194744D01*
X0246390Y0194594D01*
X0246411Y0194443D01*
X0246435Y0194294D01*
X0246464Y0194144D01*
X0246495Y0193996D01*
X0246531Y0193849D01*
X0246570Y0193702D01*
X0246613Y0193557D01*
X0246660Y0193412D01*
X0246710Y0193269D01*
X0246763Y0193127D01*
X0246820Y0192987D01*
X0246881Y0192848D01*
X0246945Y0192710D01*
X0247012Y0192574D01*
X0247083Y0192440D01*
X0247157Y0192308D01*
X0247235Y0192177D01*
X0247315Y0192049D01*
X0247399Y0191923D01*
X0247486Y0191798D01*
X0247576Y0191676D01*
X0247669Y0191556D01*
X0247765Y0191439D01*
X0246343Y0195350D02*
X0246345Y0195502D01*
X0246351Y0195653D01*
X0246360Y0195805D01*
X0246373Y0195956D01*
X0246390Y0196106D01*
X0246411Y0196257D01*
X0246435Y0196406D01*
X0246464Y0196556D01*
X0246495Y0196704D01*
X0246531Y0196851D01*
X0246570Y0196998D01*
X0246613Y0197143D01*
X0246660Y0197288D01*
X0246710Y0197431D01*
X0246763Y0197573D01*
X0246820Y0197713D01*
X0246881Y0197852D01*
X0246945Y0197990D01*
X0247012Y0198126D01*
X0247083Y0198260D01*
X0247157Y0198392D01*
X0247235Y0198523D01*
X0247315Y0198651D01*
X0247399Y0198778D01*
X0247486Y0198902D01*
X0247576Y0199024D01*
X0247669Y0199144D01*
X0247765Y0199261D01*
X0248920Y0203400D02*
X0248920Y0207667D01*
X0246787Y0207667D01*
X0246787Y0206956D01*
X0244621Y0206244D02*
X0244621Y0204822D01*
X0244619Y0204748D01*
X0244613Y0204673D01*
X0244603Y0204600D01*
X0244590Y0204526D01*
X0244573Y0204454D01*
X0244551Y0204383D01*
X0244527Y0204312D01*
X0244498Y0204244D01*
X0244466Y0204176D01*
X0244430Y0204111D01*
X0244392Y0204048D01*
X0244349Y0203986D01*
X0244304Y0203927D01*
X0244256Y0203870D01*
X0244205Y0203816D01*
X0244151Y0203765D01*
X0244094Y0203717D01*
X0244035Y0203672D01*
X0243973Y0203629D01*
X0243910Y0203591D01*
X0243845Y0203555D01*
X0243777Y0203523D01*
X0243709Y0203494D01*
X0243638Y0203470D01*
X0243567Y0203448D01*
X0243495Y0203431D01*
X0243421Y0203418D01*
X0243348Y0203408D01*
X0243273Y0203402D01*
X0243199Y0203400D01*
X0243125Y0203402D01*
X0243050Y0203408D01*
X0242977Y0203418D01*
X0242903Y0203431D01*
X0242831Y0203448D01*
X0242760Y0203470D01*
X0242689Y0203494D01*
X0242621Y0203523D01*
X0242553Y0203555D01*
X0242488Y0203591D01*
X0242425Y0203629D01*
X0242363Y0203672D01*
X0242304Y0203717D01*
X0242247Y0203765D01*
X0242193Y0203816D01*
X0242142Y0203870D01*
X0242094Y0203927D01*
X0242049Y0203986D01*
X0242006Y0204048D01*
X0241968Y0204111D01*
X0241932Y0204176D01*
X0241900Y0204244D01*
X0241871Y0204312D01*
X0241847Y0204383D01*
X0241825Y0204454D01*
X0241808Y0204526D01*
X0241795Y0204600D01*
X0241785Y0204673D01*
X0241779Y0204748D01*
X0241777Y0204822D01*
X0241777Y0206244D01*
X0241779Y0206318D01*
X0241785Y0206393D01*
X0241795Y0206466D01*
X0241808Y0206540D01*
X0241825Y0206612D01*
X0241847Y0206683D01*
X0241871Y0206754D01*
X0241900Y0206822D01*
X0241932Y0206890D01*
X0241968Y0206955D01*
X0242006Y0207018D01*
X0242049Y0207080D01*
X0242094Y0207139D01*
X0242142Y0207196D01*
X0242193Y0207250D01*
X0242247Y0207301D01*
X0242304Y0207349D01*
X0242363Y0207394D01*
X0242425Y0207437D01*
X0242488Y0207475D01*
X0242553Y0207511D01*
X0242621Y0207543D01*
X0242689Y0207572D01*
X0242760Y0207596D01*
X0242831Y0207618D01*
X0242903Y0207635D01*
X0242977Y0207648D01*
X0243050Y0207658D01*
X0243125Y0207664D01*
X0243199Y0207666D01*
X0243273Y0207664D01*
X0243348Y0207658D01*
X0243421Y0207648D01*
X0243495Y0207635D01*
X0243567Y0207618D01*
X0243638Y0207596D01*
X0243709Y0207572D01*
X0243777Y0207543D01*
X0243845Y0207511D01*
X0243910Y0207475D01*
X0243973Y0207437D01*
X0244035Y0207394D01*
X0244094Y0207349D01*
X0244151Y0207301D01*
X0244205Y0207250D01*
X0244256Y0207196D01*
X0244304Y0207139D01*
X0244349Y0207080D01*
X0244392Y0207018D01*
X0244430Y0206955D01*
X0244466Y0206890D01*
X0244498Y0206822D01*
X0244527Y0206754D01*
X0244551Y0206683D01*
X0244573Y0206612D01*
X0244590Y0206540D01*
X0244603Y0206466D01*
X0244613Y0206393D01*
X0244619Y0206318D01*
X0244621Y0206244D01*
X0253514Y0206244D02*
X0255291Y0206244D01*
X0253514Y0206244D02*
X0253431Y0206246D01*
X0253348Y0206252D01*
X0253265Y0206262D01*
X0253182Y0206275D01*
X0253101Y0206293D01*
X0253020Y0206314D01*
X0252941Y0206339D01*
X0252863Y0206368D01*
X0252786Y0206400D01*
X0252711Y0206436D01*
X0252637Y0206475D01*
X0252566Y0206518D01*
X0252496Y0206564D01*
X0252429Y0206614D01*
X0252364Y0206666D01*
X0252302Y0206721D01*
X0252242Y0206780D01*
X0252185Y0206841D01*
X0252131Y0206904D01*
X0252080Y0206970D01*
X0252033Y0207039D01*
X0251988Y0207109D01*
X0251947Y0207182D01*
X0251910Y0207256D01*
X0251875Y0207332D01*
X0251845Y0207410D01*
X0251818Y0207488D01*
X0251795Y0207569D01*
X0251775Y0207650D01*
X0251760Y0207732D01*
X0251748Y0207814D01*
X0251740Y0207897D01*
X0251736Y0207980D01*
X0251736Y0208064D01*
X0251740Y0208147D01*
X0251748Y0208230D01*
X0251760Y0208312D01*
X0251775Y0208394D01*
X0251795Y0208475D01*
X0251818Y0208556D01*
X0251845Y0208634D01*
X0251875Y0208712D01*
X0251910Y0208788D01*
X0251947Y0208862D01*
X0251988Y0208935D01*
X0252033Y0209005D01*
X0252080Y0209074D01*
X0252131Y0209140D01*
X0252185Y0209203D01*
X0252242Y0209264D01*
X0252302Y0209323D01*
X0252364Y0209378D01*
X0252429Y0209430D01*
X0252496Y0209480D01*
X0252566Y0209526D01*
X0252637Y0209569D01*
X0252711Y0209608D01*
X0252786Y0209644D01*
X0252863Y0209676D01*
X0252941Y0209705D01*
X0253020Y0209730D01*
X0253101Y0209751D01*
X0253182Y0209769D01*
X0253265Y0209782D01*
X0253348Y0209792D01*
X0253431Y0209798D01*
X0253514Y0209800D01*
X0255291Y0209800D01*
X0255291Y0203400D01*
X0250589Y0214650D02*
X0249167Y0214650D01*
X0250589Y0214650D02*
X0250653Y0214652D01*
X0250718Y0214658D01*
X0250781Y0214667D01*
X0250844Y0214681D01*
X0250906Y0214698D01*
X0250967Y0214719D01*
X0251027Y0214744D01*
X0251085Y0214772D01*
X0251141Y0214804D01*
X0251195Y0214839D01*
X0251247Y0214877D01*
X0251297Y0214918D01*
X0251343Y0214963D01*
X0251388Y0215009D01*
X0251429Y0215059D01*
X0251467Y0215111D01*
X0251502Y0215165D01*
X0251534Y0215221D01*
X0251562Y0215279D01*
X0251587Y0215339D01*
X0251608Y0215400D01*
X0251625Y0215462D01*
X0251639Y0215525D01*
X0251648Y0215588D01*
X0251654Y0215653D01*
X0251656Y0215717D01*
X0251655Y0215717D02*
X0251655Y0217850D01*
X0251656Y0217850D02*
X0251654Y0217914D01*
X0251648Y0217979D01*
X0251639Y0218042D01*
X0251625Y0218105D01*
X0251608Y0218167D01*
X0251587Y0218228D01*
X0251562Y0218288D01*
X0251534Y0218346D01*
X0251502Y0218402D01*
X0251467Y0218456D01*
X0251429Y0218508D01*
X0251388Y0218558D01*
X0251343Y0218604D01*
X0251297Y0218649D01*
X0251247Y0218690D01*
X0251195Y0218728D01*
X0251141Y0218763D01*
X0251085Y0218795D01*
X0251027Y0218823D01*
X0250967Y0218848D01*
X0250906Y0218869D01*
X0250844Y0218886D01*
X0250781Y0218900D01*
X0250718Y0218909D01*
X0250653Y0218915D01*
X0250589Y0218917D01*
X0249167Y0218917D01*
X0246665Y0217494D02*
X0246665Y0216072D01*
X0246663Y0215998D01*
X0246657Y0215923D01*
X0246647Y0215850D01*
X0246634Y0215776D01*
X0246617Y0215704D01*
X0246595Y0215633D01*
X0246571Y0215562D01*
X0246542Y0215494D01*
X0246510Y0215426D01*
X0246474Y0215361D01*
X0246436Y0215298D01*
X0246393Y0215236D01*
X0246348Y0215177D01*
X0246300Y0215120D01*
X0246249Y0215066D01*
X0246195Y0215015D01*
X0246138Y0214967D01*
X0246079Y0214922D01*
X0246017Y0214879D01*
X0245954Y0214841D01*
X0245889Y0214805D01*
X0245821Y0214773D01*
X0245753Y0214744D01*
X0245682Y0214720D01*
X0245611Y0214698D01*
X0245539Y0214681D01*
X0245465Y0214668D01*
X0245392Y0214658D01*
X0245317Y0214652D01*
X0245243Y0214650D01*
X0245169Y0214652D01*
X0245094Y0214658D01*
X0245021Y0214668D01*
X0244947Y0214681D01*
X0244875Y0214698D01*
X0244804Y0214720D01*
X0244733Y0214744D01*
X0244665Y0214773D01*
X0244597Y0214805D01*
X0244532Y0214841D01*
X0244469Y0214879D01*
X0244407Y0214922D01*
X0244348Y0214967D01*
X0244291Y0215015D01*
X0244237Y0215066D01*
X0244186Y0215120D01*
X0244138Y0215177D01*
X0244093Y0215236D01*
X0244050Y0215298D01*
X0244012Y0215361D01*
X0243976Y0215426D01*
X0243944Y0215494D01*
X0243915Y0215562D01*
X0243891Y0215633D01*
X0243869Y0215704D01*
X0243852Y0215776D01*
X0243839Y0215850D01*
X0243829Y0215923D01*
X0243823Y0215998D01*
X0243821Y0216072D01*
X0243821Y0217494D01*
X0243823Y0217568D01*
X0243829Y0217643D01*
X0243839Y0217716D01*
X0243852Y0217790D01*
X0243869Y0217862D01*
X0243891Y0217933D01*
X0243915Y0218004D01*
X0243944Y0218072D01*
X0243976Y0218140D01*
X0244012Y0218205D01*
X0244050Y0218268D01*
X0244093Y0218330D01*
X0244138Y0218389D01*
X0244186Y0218446D01*
X0244237Y0218500D01*
X0244291Y0218551D01*
X0244348Y0218599D01*
X0244407Y0218644D01*
X0244469Y0218687D01*
X0244532Y0218725D01*
X0244597Y0218761D01*
X0244665Y0218793D01*
X0244733Y0218822D01*
X0244804Y0218846D01*
X0244875Y0218868D01*
X0244947Y0218885D01*
X0245021Y0218898D01*
X0245094Y0218908D01*
X0245169Y0218914D01*
X0245243Y0218916D01*
X0245317Y0218914D01*
X0245392Y0218908D01*
X0245465Y0218898D01*
X0245539Y0218885D01*
X0245611Y0218868D01*
X0245682Y0218846D01*
X0245753Y0218822D01*
X0245821Y0218793D01*
X0245889Y0218761D01*
X0245954Y0218725D01*
X0246017Y0218687D01*
X0246079Y0218644D01*
X0246138Y0218599D01*
X0246195Y0218551D01*
X0246249Y0218500D01*
X0246300Y0218446D01*
X0246348Y0218389D01*
X0246393Y0218330D01*
X0246436Y0218268D01*
X0246474Y0218205D01*
X0246510Y0218140D01*
X0246542Y0218072D01*
X0246571Y0218004D01*
X0246595Y0217933D01*
X0246617Y0217862D01*
X0246634Y0217790D01*
X0246647Y0217716D01*
X0246657Y0217643D01*
X0246663Y0217568D01*
X0246665Y0217494D01*
X0240637Y0218917D02*
X0240637Y0214650D01*
X0238504Y0214650D02*
X0238504Y0218917D01*
X0237437Y0218917D02*
X0240637Y0218917D01*
X0237437Y0218917D02*
X0237373Y0218915D01*
X0237308Y0218909D01*
X0237245Y0218900D01*
X0237182Y0218886D01*
X0237120Y0218869D01*
X0237059Y0218848D01*
X0236999Y0218823D01*
X0236941Y0218795D01*
X0236885Y0218763D01*
X0236831Y0218728D01*
X0236779Y0218690D01*
X0236729Y0218649D01*
X0236683Y0218604D01*
X0236638Y0218558D01*
X0236597Y0218508D01*
X0236559Y0218456D01*
X0236524Y0218402D01*
X0236492Y0218346D01*
X0236464Y0218288D01*
X0236439Y0218228D01*
X0236418Y0218167D01*
X0236401Y0218105D01*
X0236387Y0218042D01*
X0236378Y0217979D01*
X0236372Y0217914D01*
X0236370Y0217850D01*
X0236370Y0214650D01*
X0269960Y0194994D02*
X0269960Y0193572D01*
X0269961Y0193572D02*
X0269963Y0193498D01*
X0269969Y0193423D01*
X0269979Y0193350D01*
X0269992Y0193276D01*
X0270009Y0193204D01*
X0270031Y0193133D01*
X0270055Y0193062D01*
X0270084Y0192994D01*
X0270116Y0192926D01*
X0270152Y0192861D01*
X0270190Y0192798D01*
X0270233Y0192736D01*
X0270278Y0192677D01*
X0270326Y0192620D01*
X0270377Y0192566D01*
X0270431Y0192515D01*
X0270488Y0192467D01*
X0270547Y0192422D01*
X0270609Y0192379D01*
X0270672Y0192341D01*
X0270737Y0192305D01*
X0270805Y0192273D01*
X0270873Y0192244D01*
X0270944Y0192220D01*
X0271015Y0192198D01*
X0271087Y0192181D01*
X0271161Y0192168D01*
X0271234Y0192158D01*
X0271309Y0192152D01*
X0271383Y0192150D01*
X0271457Y0192152D01*
X0271532Y0192158D01*
X0271605Y0192168D01*
X0271679Y0192181D01*
X0271751Y0192198D01*
X0271822Y0192220D01*
X0271893Y0192244D01*
X0271961Y0192273D01*
X0272029Y0192305D01*
X0272094Y0192341D01*
X0272157Y0192379D01*
X0272219Y0192422D01*
X0272278Y0192467D01*
X0272335Y0192515D01*
X0272389Y0192566D01*
X0272440Y0192620D01*
X0272488Y0192677D01*
X0272533Y0192736D01*
X0272576Y0192798D01*
X0272614Y0192861D01*
X0272650Y0192926D01*
X0272682Y0192994D01*
X0272711Y0193062D01*
X0272735Y0193133D01*
X0272757Y0193204D01*
X0272774Y0193276D01*
X0272787Y0193350D01*
X0272797Y0193423D01*
X0272803Y0193498D01*
X0272805Y0193572D01*
X0272805Y0194994D01*
X0272803Y0195068D01*
X0272797Y0195143D01*
X0272787Y0195216D01*
X0272774Y0195290D01*
X0272757Y0195362D01*
X0272735Y0195433D01*
X0272711Y0195504D01*
X0272682Y0195572D01*
X0272650Y0195640D01*
X0272614Y0195705D01*
X0272576Y0195768D01*
X0272533Y0195830D01*
X0272488Y0195889D01*
X0272440Y0195946D01*
X0272389Y0196000D01*
X0272335Y0196051D01*
X0272278Y0196099D01*
X0272219Y0196144D01*
X0272157Y0196187D01*
X0272094Y0196225D01*
X0272029Y0196261D01*
X0271961Y0196293D01*
X0271893Y0196322D01*
X0271822Y0196346D01*
X0271751Y0196368D01*
X0271679Y0196385D01*
X0271605Y0196398D01*
X0271532Y0196408D01*
X0271457Y0196414D01*
X0271383Y0196416D01*
X0271309Y0196414D01*
X0271234Y0196408D01*
X0271161Y0196398D01*
X0271087Y0196385D01*
X0271015Y0196368D01*
X0270944Y0196346D01*
X0270873Y0196322D01*
X0270805Y0196293D01*
X0270737Y0196261D01*
X0270672Y0196225D01*
X0270609Y0196187D01*
X0270547Y0196144D01*
X0270488Y0196099D01*
X0270431Y0196051D01*
X0270377Y0196000D01*
X0270326Y0195946D01*
X0270278Y0195889D01*
X0270233Y0195830D01*
X0270190Y0195768D01*
X0270152Y0195705D01*
X0270116Y0195640D01*
X0270084Y0195572D01*
X0270055Y0195504D01*
X0270031Y0195433D01*
X0270009Y0195362D01*
X0269992Y0195290D01*
X0269979Y0195216D01*
X0269969Y0195143D01*
X0269963Y0195068D01*
X0269961Y0194994D01*
X0274970Y0195706D02*
X0274970Y0196417D01*
X0277104Y0196417D01*
X0277104Y0192150D01*
X0279871Y0192150D02*
X0281294Y0192150D01*
X0281358Y0192152D01*
X0281423Y0192158D01*
X0281486Y0192167D01*
X0281549Y0192181D01*
X0281611Y0192198D01*
X0281672Y0192219D01*
X0281732Y0192244D01*
X0281790Y0192272D01*
X0281846Y0192304D01*
X0281900Y0192339D01*
X0281952Y0192377D01*
X0282002Y0192418D01*
X0282048Y0192463D01*
X0282093Y0192509D01*
X0282134Y0192559D01*
X0282172Y0192611D01*
X0282207Y0192665D01*
X0282239Y0192721D01*
X0282267Y0192779D01*
X0282292Y0192839D01*
X0282313Y0192900D01*
X0282330Y0192962D01*
X0282344Y0193025D01*
X0282353Y0193088D01*
X0282359Y0193153D01*
X0282361Y0193217D01*
X0282360Y0193217D02*
X0282360Y0195350D01*
X0282361Y0195350D02*
X0282359Y0195414D01*
X0282353Y0195479D01*
X0282344Y0195542D01*
X0282330Y0195605D01*
X0282313Y0195667D01*
X0282292Y0195728D01*
X0282267Y0195788D01*
X0282239Y0195846D01*
X0282207Y0195902D01*
X0282172Y0195956D01*
X0282134Y0196008D01*
X0282093Y0196058D01*
X0282048Y0196104D01*
X0282002Y0196149D01*
X0281952Y0196190D01*
X0281900Y0196228D01*
X0281846Y0196263D01*
X0281790Y0196295D01*
X0281732Y0196323D01*
X0281672Y0196348D01*
X0281611Y0196369D01*
X0281549Y0196386D01*
X0281486Y0196400D01*
X0281423Y0196409D01*
X0281358Y0196415D01*
X0281294Y0196417D01*
X0279871Y0196417D01*
X0285079Y0196417D02*
X0285079Y0192150D01*
X0288164Y0192150D02*
X0288164Y0198550D01*
X0290297Y0194994D01*
X0292430Y0198550D01*
X0292430Y0192150D01*
X0296857Y0195350D02*
X0296855Y0195502D01*
X0296849Y0195653D01*
X0296840Y0195805D01*
X0296827Y0195956D01*
X0296810Y0196106D01*
X0296789Y0196257D01*
X0296765Y0196406D01*
X0296736Y0196556D01*
X0296705Y0196704D01*
X0296669Y0196851D01*
X0296630Y0196998D01*
X0296587Y0197143D01*
X0296540Y0197288D01*
X0296490Y0197431D01*
X0296437Y0197573D01*
X0296380Y0197713D01*
X0296319Y0197852D01*
X0296255Y0197990D01*
X0296188Y0198126D01*
X0296117Y0198260D01*
X0296043Y0198392D01*
X0295965Y0198523D01*
X0295885Y0198651D01*
X0295801Y0198778D01*
X0295714Y0198902D01*
X0295624Y0199024D01*
X0295531Y0199144D01*
X0295435Y0199261D01*
X0294365Y0201267D02*
X0294365Y0207667D01*
X0292587Y0207667D01*
X0292523Y0207665D01*
X0292458Y0207659D01*
X0292395Y0207650D01*
X0292332Y0207636D01*
X0292270Y0207619D01*
X0292209Y0207598D01*
X0292149Y0207573D01*
X0292091Y0207545D01*
X0292035Y0207513D01*
X0291981Y0207478D01*
X0291929Y0207440D01*
X0291879Y0207399D01*
X0291833Y0207354D01*
X0291788Y0207308D01*
X0291747Y0207258D01*
X0291709Y0207206D01*
X0291674Y0207152D01*
X0291642Y0207096D01*
X0291614Y0207038D01*
X0291589Y0206978D01*
X0291568Y0206917D01*
X0291551Y0206855D01*
X0291537Y0206792D01*
X0291528Y0206729D01*
X0291522Y0206664D01*
X0291520Y0206600D01*
X0291521Y0206600D02*
X0291521Y0204467D01*
X0291520Y0204467D02*
X0291522Y0204403D01*
X0291528Y0204338D01*
X0291537Y0204275D01*
X0291551Y0204212D01*
X0291568Y0204150D01*
X0291589Y0204089D01*
X0291614Y0204029D01*
X0291642Y0203971D01*
X0291674Y0203915D01*
X0291709Y0203861D01*
X0291747Y0203809D01*
X0291788Y0203759D01*
X0291833Y0203713D01*
X0291879Y0203668D01*
X0291929Y0203627D01*
X0291981Y0203589D01*
X0292035Y0203554D01*
X0292091Y0203522D01*
X0292149Y0203494D01*
X0292209Y0203469D01*
X0292270Y0203448D01*
X0292332Y0203431D01*
X0292395Y0203417D01*
X0292458Y0203408D01*
X0292523Y0203402D01*
X0292587Y0203400D01*
X0294365Y0203400D01*
X0297156Y0203400D02*
X0301423Y0209800D01*
X0297156Y0209800D02*
X0301423Y0203400D01*
X0296857Y0195350D02*
X0296855Y0195198D01*
X0296849Y0195047D01*
X0296840Y0194895D01*
X0296827Y0194744D01*
X0296810Y0194594D01*
X0296789Y0194443D01*
X0296765Y0194294D01*
X0296736Y0194144D01*
X0296705Y0193996D01*
X0296669Y0193849D01*
X0296630Y0193702D01*
X0296587Y0193557D01*
X0296540Y0193412D01*
X0296490Y0193269D01*
X0296437Y0193127D01*
X0296380Y0192987D01*
X0296319Y0192848D01*
X0296255Y0192710D01*
X0296188Y0192574D01*
X0296117Y0192440D01*
X0296043Y0192308D01*
X0295965Y0192177D01*
X0295885Y0192049D01*
X0295801Y0191923D01*
X0295714Y0191798D01*
X0295624Y0191676D01*
X0295531Y0191556D01*
X0295435Y0191439D01*
X0285257Y0198194D02*
X0284901Y0198194D01*
X0284901Y0198550D01*
X0285257Y0198550D01*
X0285257Y0198194D01*
D88*
X0411869Y0291629D02*
X0411329Y0291629D01*
X0411330Y0291630D02*
X0411323Y0292113D01*
X0411305Y0292596D01*
X0411275Y0293079D01*
X0411232Y0293560D01*
X0411179Y0294040D01*
X0411113Y0294519D01*
X0411036Y0294996D01*
X0410946Y0295471D01*
X0410846Y0295944D01*
X0410734Y0296414D01*
X0410610Y0296881D01*
X0410475Y0297345D01*
X0410329Y0297806D01*
X0410171Y0298263D01*
X0410002Y0298716D01*
X0409822Y0299164D01*
X0409632Y0299608D01*
X0409430Y0300048D01*
X0409218Y0300482D01*
X0408995Y0300911D01*
X0408762Y0301334D01*
X0408518Y0301751D01*
X0408264Y0302163D01*
X0408001Y0302568D01*
X0407727Y0302966D01*
X0407444Y0303358D01*
X0407151Y0303742D01*
X0406849Y0304119D01*
X0406538Y0304489D01*
X0406218Y0304851D01*
X0405889Y0305205D01*
X0405551Y0305551D01*
X0405205Y0305889D01*
X0404851Y0306218D01*
X0404489Y0306538D01*
X0404119Y0306849D01*
X0403742Y0307151D01*
X0403358Y0307444D01*
X0402966Y0307727D01*
X0402568Y0308001D01*
X0402163Y0308264D01*
X0401751Y0308518D01*
X0401334Y0308762D01*
X0400911Y0308995D01*
X0400482Y0309218D01*
X0400048Y0309430D01*
X0399608Y0309632D01*
X0399164Y0309822D01*
X0398716Y0310002D01*
X0398263Y0310171D01*
X0397806Y0310329D01*
X0397345Y0310475D01*
X0396881Y0310610D01*
X0396414Y0310734D01*
X0395944Y0310846D01*
X0395471Y0310946D01*
X0394996Y0311036D01*
X0394519Y0311113D01*
X0394040Y0311179D01*
X0393560Y0311232D01*
X0393079Y0311275D01*
X0392596Y0311305D01*
X0392113Y0311323D01*
X0391630Y0311330D01*
X0391629Y0311869D01*
X0391630Y0311870D01*
X0392127Y0311863D01*
X0392623Y0311844D01*
X0393118Y0311813D01*
X0393613Y0311770D01*
X0394106Y0311714D01*
X0394598Y0311647D01*
X0395088Y0311568D01*
X0395577Y0311476D01*
X0396062Y0311373D01*
X0396545Y0311258D01*
X0397025Y0311130D01*
X0397502Y0310992D01*
X0397975Y0310841D01*
X0398445Y0310679D01*
X0398910Y0310506D01*
X0399371Y0310321D01*
X0399827Y0310125D01*
X0400278Y0309918D01*
X0400725Y0309700D01*
X0401165Y0309471D01*
X0401600Y0309232D01*
X0402029Y0308981D01*
X0402452Y0308721D01*
X0402868Y0308450D01*
X0403277Y0308169D01*
X0403679Y0307878D01*
X0404074Y0307577D01*
X0404462Y0307267D01*
X0404842Y0306947D01*
X0405214Y0306618D01*
X0405578Y0306280D01*
X0405933Y0305933D01*
X0406280Y0305578D01*
X0406618Y0305214D01*
X0406947Y0304842D01*
X0407267Y0304462D01*
X0407577Y0304074D01*
X0407878Y0303679D01*
X0408169Y0303277D01*
X0408450Y0302868D01*
X0408721Y0302452D01*
X0408981Y0302029D01*
X0409232Y0301600D01*
X0409471Y0301165D01*
X0409700Y0300725D01*
X0409918Y0300278D01*
X0410125Y0299827D01*
X0410321Y0299371D01*
X0410506Y0298910D01*
X0410679Y0298445D01*
X0410841Y0297975D01*
X0410992Y0297502D01*
X0411130Y0297025D01*
X0411258Y0296545D01*
X0411373Y0296062D01*
X0411476Y0295577D01*
X0411568Y0295088D01*
X0411647Y0294598D01*
X0411714Y0294106D01*
X0411770Y0293613D01*
X0411813Y0293118D01*
X0411844Y0292623D01*
X0411863Y0292127D01*
X0411870Y0291630D01*
X0411814Y0291630D01*
X0411807Y0292125D01*
X0411788Y0292620D01*
X0411757Y0293114D01*
X0411714Y0293607D01*
X0411659Y0294100D01*
X0411592Y0294590D01*
X0411512Y0295079D01*
X0411421Y0295566D01*
X0411318Y0296050D01*
X0411203Y0296532D01*
X0411077Y0297010D01*
X0410938Y0297486D01*
X0410788Y0297958D01*
X0410627Y0298426D01*
X0410454Y0298890D01*
X0410270Y0299349D01*
X0410074Y0299804D01*
X0409868Y0300254D01*
X0409650Y0300699D01*
X0409422Y0301139D01*
X0409183Y0301572D01*
X0408933Y0302000D01*
X0408673Y0302422D01*
X0408403Y0302837D01*
X0408123Y0303245D01*
X0407833Y0303646D01*
X0407533Y0304040D01*
X0407223Y0304427D01*
X0406904Y0304805D01*
X0406576Y0305176D01*
X0406239Y0305539D01*
X0405893Y0305893D01*
X0405539Y0306239D01*
X0405176Y0306576D01*
X0404805Y0306904D01*
X0404427Y0307223D01*
X0404040Y0307533D01*
X0403646Y0307833D01*
X0403245Y0308123D01*
X0402837Y0308403D01*
X0402422Y0308673D01*
X0402000Y0308933D01*
X0401572Y0309183D01*
X0401139Y0309422D01*
X0400699Y0309650D01*
X0400254Y0309868D01*
X0399804Y0310074D01*
X0399349Y0310270D01*
X0398890Y0310454D01*
X0398426Y0310627D01*
X0397958Y0310788D01*
X0397486Y0310938D01*
X0397010Y0311077D01*
X0396532Y0311203D01*
X0396050Y0311318D01*
X0395566Y0311421D01*
X0395079Y0311512D01*
X0394590Y0311592D01*
X0394100Y0311659D01*
X0393607Y0311714D01*
X0393114Y0311757D01*
X0392620Y0311788D01*
X0392125Y0311807D01*
X0391630Y0311814D01*
X0391630Y0311758D01*
X0392124Y0311751D01*
X0392617Y0311732D01*
X0393110Y0311701D01*
X0393602Y0311658D01*
X0394093Y0311603D01*
X0394582Y0311536D01*
X0395069Y0311457D01*
X0395555Y0311366D01*
X0396038Y0311263D01*
X0396518Y0311149D01*
X0396995Y0311023D01*
X0397469Y0310885D01*
X0397940Y0310735D01*
X0398407Y0310574D01*
X0398870Y0310402D01*
X0399328Y0310218D01*
X0399782Y0310023D01*
X0400231Y0309817D01*
X0400674Y0309600D01*
X0401112Y0309372D01*
X0401545Y0309134D01*
X0401971Y0308885D01*
X0402392Y0308626D01*
X0402805Y0308357D01*
X0403213Y0308077D01*
X0403613Y0307788D01*
X0404006Y0307489D01*
X0404391Y0307180D01*
X0404769Y0306862D01*
X0405139Y0306535D01*
X0405500Y0306199D01*
X0405854Y0305854D01*
X0406199Y0305500D01*
X0406535Y0305139D01*
X0406862Y0304769D01*
X0407180Y0304391D01*
X0407489Y0304006D01*
X0407788Y0303613D01*
X0408077Y0303213D01*
X0408357Y0302805D01*
X0408626Y0302392D01*
X0408885Y0301971D01*
X0409134Y0301545D01*
X0409372Y0301112D01*
X0409600Y0300674D01*
X0409817Y0300231D01*
X0410023Y0299782D01*
X0410218Y0299328D01*
X0410402Y0298870D01*
X0410574Y0298407D01*
X0410735Y0297940D01*
X0410885Y0297469D01*
X0411023Y0296995D01*
X0411149Y0296518D01*
X0411263Y0296038D01*
X0411366Y0295555D01*
X0411457Y0295069D01*
X0411536Y0294582D01*
X0411603Y0294093D01*
X0411658Y0293602D01*
X0411701Y0293110D01*
X0411732Y0292617D01*
X0411751Y0292124D01*
X0411758Y0291630D01*
X0411702Y0291630D01*
X0411695Y0292122D01*
X0411676Y0292614D01*
X0411646Y0293106D01*
X0411603Y0293596D01*
X0411548Y0294086D01*
X0411481Y0294574D01*
X0411402Y0295060D01*
X0411311Y0295544D01*
X0411209Y0296025D01*
X0411095Y0296504D01*
X0410969Y0296980D01*
X0410831Y0297453D01*
X0410682Y0297923D01*
X0410521Y0298388D01*
X0410349Y0298849D01*
X0410166Y0299307D01*
X0409972Y0299759D01*
X0409766Y0300207D01*
X0409550Y0300649D01*
X0409323Y0301086D01*
X0409085Y0301517D01*
X0408837Y0301943D01*
X0408579Y0302362D01*
X0408310Y0302774D01*
X0408031Y0303180D01*
X0407743Y0303579D01*
X0407444Y0303971D01*
X0407137Y0304355D01*
X0406820Y0304732D01*
X0406493Y0305101D01*
X0406158Y0305462D01*
X0405814Y0305814D01*
X0405462Y0306158D01*
X0405101Y0306493D01*
X0404732Y0306820D01*
X0404355Y0307137D01*
X0403971Y0307444D01*
X0403579Y0307743D01*
X0403180Y0308031D01*
X0402774Y0308310D01*
X0402362Y0308579D01*
X0401943Y0308837D01*
X0401517Y0309085D01*
X0401086Y0309323D01*
X0400649Y0309550D01*
X0400207Y0309766D01*
X0399759Y0309972D01*
X0399307Y0310166D01*
X0398849Y0310349D01*
X0398388Y0310521D01*
X0397923Y0310682D01*
X0397453Y0310831D01*
X0396980Y0310969D01*
X0396504Y0311095D01*
X0396025Y0311209D01*
X0395544Y0311311D01*
X0395060Y0311402D01*
X0394574Y0311481D01*
X0394086Y0311548D01*
X0393596Y0311603D01*
X0393106Y0311646D01*
X0392614Y0311676D01*
X0392122Y0311695D01*
X0391630Y0311702D01*
X0391630Y0311646D01*
X0392121Y0311639D01*
X0392612Y0311620D01*
X0393102Y0311590D01*
X0393591Y0311547D01*
X0394079Y0311492D01*
X0394565Y0311425D01*
X0395050Y0311347D01*
X0395533Y0311256D01*
X0396013Y0311154D01*
X0396491Y0311040D01*
X0396965Y0310915D01*
X0397437Y0310777D01*
X0397905Y0310629D01*
X0398369Y0310469D01*
X0398829Y0310297D01*
X0399285Y0310114D01*
X0399736Y0309921D01*
X0400183Y0309716D01*
X0400624Y0309500D01*
X0401060Y0309274D01*
X0401490Y0309037D01*
X0401914Y0308789D01*
X0402332Y0308531D01*
X0402743Y0308263D01*
X0403148Y0307986D01*
X0403546Y0307698D01*
X0403937Y0307400D01*
X0404320Y0307093D01*
X0404696Y0306777D01*
X0405063Y0306452D01*
X0405423Y0306118D01*
X0405775Y0305775D01*
X0406118Y0305423D01*
X0406452Y0305063D01*
X0406777Y0304696D01*
X0407093Y0304320D01*
X0407400Y0303937D01*
X0407698Y0303546D01*
X0407986Y0303148D01*
X0408263Y0302743D01*
X0408531Y0302332D01*
X0408789Y0301914D01*
X0409037Y0301490D01*
X0409274Y0301060D01*
X0409500Y0300624D01*
X0409716Y0300183D01*
X0409921Y0299736D01*
X0410114Y0299285D01*
X0410297Y0298829D01*
X0410469Y0298369D01*
X0410629Y0297905D01*
X0410777Y0297437D01*
X0410915Y0296965D01*
X0411040Y0296491D01*
X0411154Y0296013D01*
X0411256Y0295533D01*
X0411347Y0295050D01*
X0411425Y0294565D01*
X0411492Y0294079D01*
X0411547Y0293591D01*
X0411590Y0293102D01*
X0411620Y0292612D01*
X0411639Y0292121D01*
X0411646Y0291630D01*
X0411590Y0291630D01*
X0411583Y0292120D01*
X0411565Y0292609D01*
X0411534Y0293098D01*
X0411491Y0293585D01*
X0411437Y0294072D01*
X0411370Y0294557D01*
X0411292Y0295041D01*
X0411201Y0295522D01*
X0411100Y0296001D01*
X0410986Y0296477D01*
X0410861Y0296951D01*
X0410724Y0297421D01*
X0410575Y0297887D01*
X0410416Y0298350D01*
X0410245Y0298809D01*
X0410063Y0299264D01*
X0409869Y0299714D01*
X0409665Y0300159D01*
X0409450Y0300599D01*
X0409224Y0301033D01*
X0408988Y0301462D01*
X0408741Y0301885D01*
X0408484Y0302302D01*
X0408217Y0302712D01*
X0407940Y0303116D01*
X0407653Y0303513D01*
X0407356Y0303902D01*
X0407050Y0304284D01*
X0406735Y0304659D01*
X0406410Y0305026D01*
X0406077Y0305385D01*
X0405735Y0305735D01*
X0405385Y0306077D01*
X0405026Y0306410D01*
X0404659Y0306735D01*
X0404284Y0307050D01*
X0403902Y0307356D01*
X0403513Y0307653D01*
X0403116Y0307940D01*
X0402712Y0308217D01*
X0402302Y0308484D01*
X0401885Y0308741D01*
X0401462Y0308988D01*
X0401033Y0309224D01*
X0400599Y0309450D01*
X0400159Y0309665D01*
X0399714Y0309869D01*
X0399264Y0310063D01*
X0398809Y0310245D01*
X0398350Y0310416D01*
X0397887Y0310575D01*
X0397421Y0310724D01*
X0396951Y0310861D01*
X0396477Y0310986D01*
X0396001Y0311100D01*
X0395522Y0311201D01*
X0395041Y0311292D01*
X0394557Y0311370D01*
X0394072Y0311437D01*
X0393585Y0311491D01*
X0393098Y0311534D01*
X0392609Y0311565D01*
X0392120Y0311583D01*
X0391630Y0311590D01*
X0391630Y0311534D01*
X0392118Y0311527D01*
X0392606Y0311509D01*
X0393094Y0311478D01*
X0393580Y0311435D01*
X0394065Y0311381D01*
X0394549Y0311315D01*
X0395031Y0311237D01*
X0395511Y0311147D01*
X0395989Y0311045D01*
X0396464Y0310932D01*
X0396936Y0310807D01*
X0397404Y0310670D01*
X0397870Y0310522D01*
X0398331Y0310363D01*
X0398789Y0310193D01*
X0399242Y0310011D01*
X0399691Y0309818D01*
X0400135Y0309615D01*
X0400573Y0309400D01*
X0401007Y0309175D01*
X0401434Y0308939D01*
X0401856Y0308693D01*
X0402272Y0308437D01*
X0402681Y0308170D01*
X0403084Y0307894D01*
X0403479Y0307608D01*
X0403868Y0307312D01*
X0404249Y0307007D01*
X0404622Y0306692D01*
X0404988Y0306369D01*
X0405346Y0306036D01*
X0405695Y0305695D01*
X0406036Y0305346D01*
X0406369Y0304988D01*
X0406692Y0304622D01*
X0407007Y0304249D01*
X0407312Y0303868D01*
X0407608Y0303479D01*
X0407894Y0303084D01*
X0408170Y0302681D01*
X0408437Y0302272D01*
X0408693Y0301856D01*
X0408939Y0301434D01*
X0409175Y0301007D01*
X0409400Y0300573D01*
X0409615Y0300135D01*
X0409818Y0299691D01*
X0410011Y0299242D01*
X0410193Y0298789D01*
X0410363Y0298331D01*
X0410522Y0297870D01*
X0410670Y0297404D01*
X0410807Y0296936D01*
X0410932Y0296464D01*
X0411045Y0295989D01*
X0411147Y0295511D01*
X0411237Y0295031D01*
X0411315Y0294549D01*
X0411381Y0294065D01*
X0411435Y0293580D01*
X0411478Y0293094D01*
X0411509Y0292606D01*
X0411527Y0292118D01*
X0411534Y0291630D01*
X0411478Y0291630D01*
X0411471Y0292117D01*
X0411453Y0292603D01*
X0411422Y0293089D01*
X0411380Y0293575D01*
X0411325Y0294058D01*
X0411259Y0294541D01*
X0411181Y0295021D01*
X0411092Y0295500D01*
X0410990Y0295976D01*
X0410877Y0296450D01*
X0410753Y0296921D01*
X0410617Y0297388D01*
X0410469Y0297852D01*
X0410310Y0298313D01*
X0410140Y0298769D01*
X0409959Y0299221D01*
X0409767Y0299668D01*
X0409564Y0300111D01*
X0409350Y0300548D01*
X0409126Y0300980D01*
X0408891Y0301407D01*
X0408645Y0301827D01*
X0408389Y0302242D01*
X0408124Y0302650D01*
X0407848Y0303051D01*
X0407563Y0303446D01*
X0407268Y0303833D01*
X0406964Y0304213D01*
X0406650Y0304586D01*
X0406327Y0304951D01*
X0405996Y0305307D01*
X0405656Y0305656D01*
X0405307Y0305996D01*
X0404951Y0306327D01*
X0404586Y0306650D01*
X0404213Y0306964D01*
X0403833Y0307268D01*
X0403446Y0307563D01*
X0403051Y0307848D01*
X0402650Y0308124D01*
X0402242Y0308389D01*
X0401827Y0308645D01*
X0401407Y0308891D01*
X0400980Y0309126D01*
X0400548Y0309350D01*
X0400111Y0309564D01*
X0399668Y0309767D01*
X0399221Y0309959D01*
X0398769Y0310140D01*
X0398313Y0310310D01*
X0397852Y0310469D01*
X0397388Y0310617D01*
X0396921Y0310753D01*
X0396450Y0310877D01*
X0395976Y0310990D01*
X0395500Y0311092D01*
X0395021Y0311181D01*
X0394541Y0311259D01*
X0394058Y0311325D01*
X0393575Y0311380D01*
X0393089Y0311422D01*
X0392603Y0311453D01*
X0392117Y0311471D01*
X0391630Y0311478D01*
X0391630Y0311422D01*
X0392116Y0311415D01*
X0392601Y0311397D01*
X0393085Y0311366D01*
X0393569Y0311324D01*
X0394052Y0311270D01*
X0394533Y0311204D01*
X0395012Y0311126D01*
X0395489Y0311037D01*
X0395964Y0310936D01*
X0396436Y0310823D01*
X0396906Y0310699D01*
X0397372Y0310563D01*
X0397835Y0310416D01*
X0398294Y0310258D01*
X0398749Y0310088D01*
X0399199Y0309907D01*
X0399646Y0309716D01*
X0400087Y0309513D01*
X0400523Y0309300D01*
X0400954Y0309076D01*
X0401379Y0308842D01*
X0401799Y0308597D01*
X0402212Y0308342D01*
X0402619Y0308077D01*
X0403019Y0307802D01*
X0403412Y0307518D01*
X0403799Y0307224D01*
X0404178Y0306920D01*
X0404549Y0306608D01*
X0404913Y0306286D01*
X0405269Y0305955D01*
X0405616Y0305616D01*
X0405955Y0305269D01*
X0406286Y0304913D01*
X0406608Y0304549D01*
X0406920Y0304178D01*
X0407224Y0303799D01*
X0407518Y0303412D01*
X0407802Y0303019D01*
X0408077Y0302619D01*
X0408342Y0302212D01*
X0408597Y0301799D01*
X0408842Y0301379D01*
X0409076Y0300954D01*
X0409300Y0300523D01*
X0409513Y0300087D01*
X0409716Y0299646D01*
X0409907Y0299199D01*
X0410088Y0298749D01*
X0410258Y0298294D01*
X0410416Y0297835D01*
X0410563Y0297372D01*
X0410699Y0296906D01*
X0410823Y0296436D01*
X0410936Y0295964D01*
X0411037Y0295489D01*
X0411126Y0295012D01*
X0411204Y0294533D01*
X0411270Y0294052D01*
X0411324Y0293569D01*
X0411366Y0293085D01*
X0411397Y0292601D01*
X0411415Y0292116D01*
X0411422Y0291630D01*
X0411366Y0291630D01*
X0411359Y0292114D01*
X0411341Y0292598D01*
X0411310Y0293081D01*
X0411268Y0293564D01*
X0411214Y0294045D01*
X0411148Y0294524D01*
X0411071Y0295002D01*
X0410982Y0295478D01*
X0410881Y0295952D01*
X0410769Y0296423D01*
X0410645Y0296891D01*
X0410509Y0297356D01*
X0410363Y0297817D01*
X0410205Y0298275D01*
X0410036Y0298729D01*
X0409856Y0299178D01*
X0409665Y0299623D01*
X0409463Y0300063D01*
X0409250Y0300498D01*
X0409027Y0300928D01*
X0408793Y0301352D01*
X0408549Y0301770D01*
X0408295Y0302182D01*
X0408031Y0302588D01*
X0407757Y0302987D01*
X0407473Y0303379D01*
X0407180Y0303764D01*
X0406877Y0304142D01*
X0406565Y0304513D01*
X0406244Y0304875D01*
X0405915Y0305230D01*
X0405577Y0305577D01*
X0405230Y0305915D01*
X0404875Y0306244D01*
X0404513Y0306565D01*
X0404142Y0306877D01*
X0403764Y0307180D01*
X0403379Y0307473D01*
X0402987Y0307757D01*
X0402588Y0308031D01*
X0402182Y0308295D01*
X0401770Y0308549D01*
X0401352Y0308793D01*
X0400928Y0309027D01*
X0400498Y0309250D01*
X0400063Y0309463D01*
X0399623Y0309665D01*
X0399178Y0309856D01*
X0398729Y0310036D01*
X0398275Y0310205D01*
X0397817Y0310363D01*
X0397356Y0310509D01*
X0396891Y0310645D01*
X0396423Y0310769D01*
X0395952Y0310881D01*
X0395478Y0310982D01*
X0395002Y0311071D01*
X0394524Y0311148D01*
X0394045Y0311214D01*
X0393564Y0311268D01*
X0393081Y0311310D01*
X0392598Y0311341D01*
X0392114Y0311359D01*
X0391630Y0311366D01*
X0021571Y0311869D02*
X0021571Y0311329D01*
X0021570Y0311330D02*
X0021087Y0311323D01*
X0020604Y0311305D01*
X0020121Y0311275D01*
X0019640Y0311232D01*
X0019160Y0311179D01*
X0018681Y0311113D01*
X0018204Y0311036D01*
X0017729Y0310946D01*
X0017256Y0310846D01*
X0016786Y0310734D01*
X0016319Y0310610D01*
X0015855Y0310475D01*
X0015394Y0310329D01*
X0014937Y0310171D01*
X0014484Y0310002D01*
X0014036Y0309822D01*
X0013592Y0309632D01*
X0013152Y0309430D01*
X0012718Y0309218D01*
X0012289Y0308995D01*
X0011866Y0308762D01*
X0011449Y0308518D01*
X0011037Y0308264D01*
X0010632Y0308001D01*
X0010234Y0307727D01*
X0009842Y0307444D01*
X0009458Y0307151D01*
X0009081Y0306849D01*
X0008711Y0306538D01*
X0008349Y0306218D01*
X0007995Y0305889D01*
X0007649Y0305551D01*
X0007311Y0305205D01*
X0006982Y0304851D01*
X0006662Y0304489D01*
X0006351Y0304119D01*
X0006049Y0303742D01*
X0005756Y0303358D01*
X0005473Y0302966D01*
X0005199Y0302568D01*
X0004936Y0302163D01*
X0004682Y0301751D01*
X0004438Y0301334D01*
X0004205Y0300911D01*
X0003982Y0300482D01*
X0003770Y0300048D01*
X0003568Y0299608D01*
X0003378Y0299164D01*
X0003198Y0298716D01*
X0003029Y0298263D01*
X0002871Y0297806D01*
X0002725Y0297345D01*
X0002590Y0296881D01*
X0002466Y0296414D01*
X0002354Y0295944D01*
X0002254Y0295471D01*
X0002164Y0294996D01*
X0002087Y0294519D01*
X0002021Y0294040D01*
X0001968Y0293560D01*
X0001925Y0293079D01*
X0001895Y0292596D01*
X0001877Y0292113D01*
X0001870Y0291630D01*
X0001331Y0291629D01*
X0001330Y0291630D01*
X0001337Y0292127D01*
X0001356Y0292623D01*
X0001387Y0293118D01*
X0001430Y0293613D01*
X0001486Y0294106D01*
X0001553Y0294598D01*
X0001632Y0295088D01*
X0001724Y0295577D01*
X0001827Y0296062D01*
X0001942Y0296545D01*
X0002070Y0297025D01*
X0002208Y0297502D01*
X0002359Y0297975D01*
X0002521Y0298445D01*
X0002694Y0298910D01*
X0002879Y0299371D01*
X0003075Y0299827D01*
X0003282Y0300278D01*
X0003500Y0300725D01*
X0003729Y0301165D01*
X0003968Y0301600D01*
X0004219Y0302029D01*
X0004479Y0302452D01*
X0004750Y0302868D01*
X0005031Y0303277D01*
X0005322Y0303679D01*
X0005623Y0304074D01*
X0005933Y0304462D01*
X0006253Y0304842D01*
X0006582Y0305214D01*
X0006920Y0305578D01*
X0007267Y0305933D01*
X0007622Y0306280D01*
X0007986Y0306618D01*
X0008358Y0306947D01*
X0008738Y0307267D01*
X0009126Y0307577D01*
X0009521Y0307878D01*
X0009923Y0308169D01*
X0010332Y0308450D01*
X0010748Y0308721D01*
X0011171Y0308981D01*
X0011600Y0309232D01*
X0012035Y0309471D01*
X0012475Y0309700D01*
X0012922Y0309918D01*
X0013373Y0310125D01*
X0013829Y0310321D01*
X0014290Y0310506D01*
X0014755Y0310679D01*
X0015225Y0310841D01*
X0015698Y0310992D01*
X0016175Y0311130D01*
X0016655Y0311258D01*
X0017138Y0311373D01*
X0017623Y0311476D01*
X0018112Y0311568D01*
X0018602Y0311647D01*
X0019094Y0311714D01*
X0019587Y0311770D01*
X0020082Y0311813D01*
X0020577Y0311844D01*
X0021073Y0311863D01*
X0021570Y0311870D01*
X0021570Y0311814D01*
X0021075Y0311807D01*
X0020580Y0311788D01*
X0020086Y0311757D01*
X0019593Y0311714D01*
X0019100Y0311659D01*
X0018610Y0311592D01*
X0018121Y0311512D01*
X0017634Y0311421D01*
X0017150Y0311318D01*
X0016668Y0311203D01*
X0016190Y0311077D01*
X0015714Y0310938D01*
X0015242Y0310788D01*
X0014774Y0310627D01*
X0014310Y0310454D01*
X0013851Y0310270D01*
X0013396Y0310074D01*
X0012946Y0309868D01*
X0012501Y0309650D01*
X0012061Y0309422D01*
X0011628Y0309183D01*
X0011200Y0308933D01*
X0010778Y0308673D01*
X0010363Y0308403D01*
X0009955Y0308123D01*
X0009554Y0307833D01*
X0009160Y0307533D01*
X0008773Y0307223D01*
X0008395Y0306904D01*
X0008024Y0306576D01*
X0007661Y0306239D01*
X0007307Y0305893D01*
X0006961Y0305539D01*
X0006624Y0305176D01*
X0006296Y0304805D01*
X0005977Y0304427D01*
X0005667Y0304040D01*
X0005367Y0303646D01*
X0005077Y0303245D01*
X0004797Y0302837D01*
X0004527Y0302422D01*
X0004267Y0302000D01*
X0004017Y0301572D01*
X0003778Y0301139D01*
X0003550Y0300699D01*
X0003332Y0300254D01*
X0003126Y0299804D01*
X0002930Y0299349D01*
X0002746Y0298890D01*
X0002573Y0298426D01*
X0002412Y0297958D01*
X0002262Y0297486D01*
X0002123Y0297010D01*
X0001997Y0296532D01*
X0001882Y0296050D01*
X0001779Y0295566D01*
X0001688Y0295079D01*
X0001608Y0294590D01*
X0001541Y0294100D01*
X0001486Y0293607D01*
X0001443Y0293114D01*
X0001412Y0292620D01*
X0001393Y0292125D01*
X0001386Y0291630D01*
X0001442Y0291630D01*
X0001449Y0292124D01*
X0001468Y0292617D01*
X0001499Y0293110D01*
X0001542Y0293602D01*
X0001597Y0294093D01*
X0001664Y0294582D01*
X0001743Y0295069D01*
X0001834Y0295555D01*
X0001937Y0296038D01*
X0002051Y0296518D01*
X0002177Y0296995D01*
X0002315Y0297469D01*
X0002465Y0297940D01*
X0002626Y0298407D01*
X0002798Y0298870D01*
X0002982Y0299328D01*
X0003177Y0299782D01*
X0003383Y0300231D01*
X0003600Y0300674D01*
X0003828Y0301112D01*
X0004066Y0301545D01*
X0004315Y0301971D01*
X0004574Y0302392D01*
X0004843Y0302805D01*
X0005123Y0303213D01*
X0005412Y0303613D01*
X0005711Y0304006D01*
X0006020Y0304391D01*
X0006338Y0304769D01*
X0006665Y0305139D01*
X0007001Y0305500D01*
X0007346Y0305854D01*
X0007700Y0306199D01*
X0008061Y0306535D01*
X0008431Y0306862D01*
X0008809Y0307180D01*
X0009194Y0307489D01*
X0009587Y0307788D01*
X0009987Y0308077D01*
X0010395Y0308357D01*
X0010808Y0308626D01*
X0011229Y0308885D01*
X0011655Y0309134D01*
X0012088Y0309372D01*
X0012526Y0309600D01*
X0012969Y0309817D01*
X0013418Y0310023D01*
X0013872Y0310218D01*
X0014330Y0310402D01*
X0014793Y0310574D01*
X0015260Y0310735D01*
X0015731Y0310885D01*
X0016205Y0311023D01*
X0016682Y0311149D01*
X0017162Y0311263D01*
X0017645Y0311366D01*
X0018131Y0311457D01*
X0018618Y0311536D01*
X0019107Y0311603D01*
X0019598Y0311658D01*
X0020090Y0311701D01*
X0020583Y0311732D01*
X0021076Y0311751D01*
X0021570Y0311758D01*
X0021570Y0311702D01*
X0021078Y0311695D01*
X0020586Y0311676D01*
X0020094Y0311646D01*
X0019604Y0311603D01*
X0019114Y0311548D01*
X0018626Y0311481D01*
X0018140Y0311402D01*
X0017656Y0311311D01*
X0017175Y0311209D01*
X0016696Y0311095D01*
X0016220Y0310969D01*
X0015747Y0310831D01*
X0015277Y0310682D01*
X0014812Y0310521D01*
X0014351Y0310349D01*
X0013893Y0310166D01*
X0013441Y0309972D01*
X0012993Y0309766D01*
X0012551Y0309550D01*
X0012114Y0309323D01*
X0011683Y0309085D01*
X0011257Y0308837D01*
X0010838Y0308579D01*
X0010426Y0308310D01*
X0010020Y0308031D01*
X0009621Y0307743D01*
X0009229Y0307444D01*
X0008845Y0307137D01*
X0008468Y0306820D01*
X0008099Y0306493D01*
X0007738Y0306158D01*
X0007386Y0305814D01*
X0007042Y0305462D01*
X0006707Y0305101D01*
X0006380Y0304732D01*
X0006063Y0304355D01*
X0005756Y0303971D01*
X0005457Y0303579D01*
X0005169Y0303180D01*
X0004890Y0302774D01*
X0004621Y0302362D01*
X0004363Y0301943D01*
X0004115Y0301517D01*
X0003877Y0301086D01*
X0003650Y0300649D01*
X0003434Y0300207D01*
X0003228Y0299759D01*
X0003034Y0299307D01*
X0002851Y0298849D01*
X0002679Y0298388D01*
X0002518Y0297923D01*
X0002369Y0297453D01*
X0002231Y0296980D01*
X0002105Y0296504D01*
X0001991Y0296025D01*
X0001889Y0295544D01*
X0001798Y0295060D01*
X0001719Y0294574D01*
X0001652Y0294086D01*
X0001597Y0293596D01*
X0001554Y0293106D01*
X0001524Y0292614D01*
X0001505Y0292122D01*
X0001498Y0291630D01*
X0001554Y0291630D01*
X0001561Y0292121D01*
X0001580Y0292612D01*
X0001610Y0293102D01*
X0001653Y0293591D01*
X0001708Y0294079D01*
X0001775Y0294565D01*
X0001853Y0295050D01*
X0001944Y0295533D01*
X0002046Y0296013D01*
X0002160Y0296491D01*
X0002285Y0296965D01*
X0002423Y0297437D01*
X0002571Y0297905D01*
X0002731Y0298369D01*
X0002903Y0298829D01*
X0003086Y0299285D01*
X0003279Y0299736D01*
X0003484Y0300183D01*
X0003700Y0300624D01*
X0003926Y0301060D01*
X0004163Y0301490D01*
X0004411Y0301914D01*
X0004669Y0302332D01*
X0004937Y0302743D01*
X0005214Y0303148D01*
X0005502Y0303546D01*
X0005800Y0303937D01*
X0006107Y0304320D01*
X0006423Y0304696D01*
X0006748Y0305063D01*
X0007082Y0305423D01*
X0007425Y0305775D01*
X0007777Y0306118D01*
X0008137Y0306452D01*
X0008504Y0306777D01*
X0008880Y0307093D01*
X0009263Y0307400D01*
X0009654Y0307698D01*
X0010052Y0307986D01*
X0010457Y0308263D01*
X0010868Y0308531D01*
X0011286Y0308789D01*
X0011710Y0309037D01*
X0012140Y0309274D01*
X0012576Y0309500D01*
X0013017Y0309716D01*
X0013464Y0309921D01*
X0013915Y0310114D01*
X0014371Y0310297D01*
X0014831Y0310469D01*
X0015295Y0310629D01*
X0015763Y0310777D01*
X0016235Y0310915D01*
X0016709Y0311040D01*
X0017187Y0311154D01*
X0017667Y0311256D01*
X0018150Y0311347D01*
X0018635Y0311425D01*
X0019121Y0311492D01*
X0019609Y0311547D01*
X0020098Y0311590D01*
X0020588Y0311620D01*
X0021079Y0311639D01*
X0021570Y0311646D01*
X0021570Y0311590D01*
X0021080Y0311583D01*
X0020591Y0311565D01*
X0020102Y0311534D01*
X0019615Y0311491D01*
X0019128Y0311437D01*
X0018643Y0311370D01*
X0018159Y0311292D01*
X0017678Y0311201D01*
X0017199Y0311100D01*
X0016723Y0310986D01*
X0016249Y0310861D01*
X0015779Y0310724D01*
X0015313Y0310575D01*
X0014850Y0310416D01*
X0014391Y0310245D01*
X0013936Y0310063D01*
X0013486Y0309869D01*
X0013041Y0309665D01*
X0012601Y0309450D01*
X0012167Y0309224D01*
X0011738Y0308988D01*
X0011315Y0308741D01*
X0010898Y0308484D01*
X0010488Y0308217D01*
X0010084Y0307940D01*
X0009687Y0307653D01*
X0009298Y0307356D01*
X0008916Y0307050D01*
X0008541Y0306735D01*
X0008174Y0306410D01*
X0007815Y0306077D01*
X0007465Y0305735D01*
X0007123Y0305385D01*
X0006790Y0305026D01*
X0006465Y0304659D01*
X0006150Y0304284D01*
X0005844Y0303902D01*
X0005547Y0303513D01*
X0005260Y0303116D01*
X0004983Y0302712D01*
X0004716Y0302302D01*
X0004459Y0301885D01*
X0004212Y0301462D01*
X0003976Y0301033D01*
X0003750Y0300599D01*
X0003535Y0300159D01*
X0003331Y0299714D01*
X0003137Y0299264D01*
X0002955Y0298809D01*
X0002784Y0298350D01*
X0002625Y0297887D01*
X0002476Y0297421D01*
X0002339Y0296951D01*
X0002214Y0296477D01*
X0002100Y0296001D01*
X0001999Y0295522D01*
X0001908Y0295041D01*
X0001830Y0294557D01*
X0001763Y0294072D01*
X0001709Y0293585D01*
X0001666Y0293098D01*
X0001635Y0292609D01*
X0001617Y0292120D01*
X0001610Y0291630D01*
X0001666Y0291630D01*
X0001673Y0292118D01*
X0001691Y0292606D01*
X0001722Y0293094D01*
X0001765Y0293580D01*
X0001819Y0294065D01*
X0001885Y0294549D01*
X0001963Y0295031D01*
X0002053Y0295511D01*
X0002155Y0295989D01*
X0002268Y0296464D01*
X0002393Y0296936D01*
X0002530Y0297404D01*
X0002678Y0297870D01*
X0002837Y0298331D01*
X0003007Y0298789D01*
X0003189Y0299242D01*
X0003382Y0299691D01*
X0003585Y0300135D01*
X0003800Y0300573D01*
X0004025Y0301007D01*
X0004261Y0301434D01*
X0004507Y0301856D01*
X0004763Y0302272D01*
X0005030Y0302681D01*
X0005306Y0303084D01*
X0005592Y0303479D01*
X0005888Y0303868D01*
X0006193Y0304249D01*
X0006508Y0304622D01*
X0006831Y0304988D01*
X0007164Y0305346D01*
X0007505Y0305695D01*
X0007854Y0306036D01*
X0008212Y0306369D01*
X0008578Y0306692D01*
X0008951Y0307007D01*
X0009332Y0307312D01*
X0009721Y0307608D01*
X0010116Y0307894D01*
X0010519Y0308170D01*
X0010928Y0308437D01*
X0011344Y0308693D01*
X0011766Y0308939D01*
X0012193Y0309175D01*
X0012627Y0309400D01*
X0013065Y0309615D01*
X0013509Y0309818D01*
X0013958Y0310011D01*
X0014411Y0310193D01*
X0014869Y0310363D01*
X0015330Y0310522D01*
X0015796Y0310670D01*
X0016264Y0310807D01*
X0016736Y0310932D01*
X0017211Y0311045D01*
X0017689Y0311147D01*
X0018169Y0311237D01*
X0018651Y0311315D01*
X0019135Y0311381D01*
X0019620Y0311435D01*
X0020106Y0311478D01*
X0020594Y0311509D01*
X0021082Y0311527D01*
X0021570Y0311534D01*
X0021570Y0311478D01*
X0021083Y0311471D01*
X0020597Y0311453D01*
X0020111Y0311422D01*
X0019625Y0311380D01*
X0019142Y0311325D01*
X0018659Y0311259D01*
X0018179Y0311181D01*
X0017700Y0311092D01*
X0017224Y0310990D01*
X0016750Y0310877D01*
X0016279Y0310753D01*
X0015812Y0310617D01*
X0015348Y0310469D01*
X0014887Y0310310D01*
X0014431Y0310140D01*
X0013979Y0309959D01*
X0013532Y0309767D01*
X0013089Y0309564D01*
X0012652Y0309350D01*
X0012220Y0309126D01*
X0011793Y0308891D01*
X0011373Y0308645D01*
X0010958Y0308389D01*
X0010550Y0308124D01*
X0010149Y0307848D01*
X0009754Y0307563D01*
X0009367Y0307268D01*
X0008987Y0306964D01*
X0008614Y0306650D01*
X0008249Y0306327D01*
X0007893Y0305996D01*
X0007544Y0305656D01*
X0007204Y0305307D01*
X0006873Y0304951D01*
X0006550Y0304586D01*
X0006236Y0304213D01*
X0005932Y0303833D01*
X0005637Y0303446D01*
X0005352Y0303051D01*
X0005076Y0302650D01*
X0004811Y0302242D01*
X0004555Y0301827D01*
X0004309Y0301407D01*
X0004074Y0300980D01*
X0003850Y0300548D01*
X0003636Y0300111D01*
X0003433Y0299668D01*
X0003241Y0299221D01*
X0003060Y0298769D01*
X0002890Y0298313D01*
X0002731Y0297852D01*
X0002583Y0297388D01*
X0002447Y0296921D01*
X0002323Y0296450D01*
X0002210Y0295976D01*
X0002108Y0295500D01*
X0002019Y0295021D01*
X0001941Y0294541D01*
X0001875Y0294058D01*
X0001820Y0293575D01*
X0001778Y0293089D01*
X0001747Y0292603D01*
X0001729Y0292117D01*
X0001722Y0291630D01*
X0001778Y0291630D01*
X0001785Y0292116D01*
X0001803Y0292601D01*
X0001834Y0293085D01*
X0001876Y0293569D01*
X0001930Y0294052D01*
X0001996Y0294533D01*
X0002074Y0295012D01*
X0002163Y0295489D01*
X0002264Y0295964D01*
X0002377Y0296436D01*
X0002501Y0296906D01*
X0002637Y0297372D01*
X0002784Y0297835D01*
X0002942Y0298294D01*
X0003112Y0298749D01*
X0003293Y0299199D01*
X0003484Y0299646D01*
X0003687Y0300087D01*
X0003900Y0300523D01*
X0004124Y0300954D01*
X0004358Y0301379D01*
X0004603Y0301799D01*
X0004858Y0302212D01*
X0005123Y0302619D01*
X0005398Y0303019D01*
X0005682Y0303412D01*
X0005976Y0303799D01*
X0006280Y0304178D01*
X0006592Y0304549D01*
X0006914Y0304913D01*
X0007245Y0305269D01*
X0007584Y0305616D01*
X0007931Y0305955D01*
X0008287Y0306286D01*
X0008651Y0306608D01*
X0009022Y0306920D01*
X0009401Y0307224D01*
X0009788Y0307518D01*
X0010181Y0307802D01*
X0010581Y0308077D01*
X0010988Y0308342D01*
X0011401Y0308597D01*
X0011821Y0308842D01*
X0012246Y0309076D01*
X0012677Y0309300D01*
X0013113Y0309513D01*
X0013554Y0309716D01*
X0014001Y0309907D01*
X0014451Y0310088D01*
X0014906Y0310258D01*
X0015365Y0310416D01*
X0015828Y0310563D01*
X0016294Y0310699D01*
X0016764Y0310823D01*
X0017236Y0310936D01*
X0017711Y0311037D01*
X0018188Y0311126D01*
X0018667Y0311204D01*
X0019148Y0311270D01*
X0019631Y0311324D01*
X0020115Y0311366D01*
X0020599Y0311397D01*
X0021084Y0311415D01*
X0021570Y0311422D01*
X0021570Y0311366D01*
X0021086Y0311359D01*
X0020602Y0311341D01*
X0020119Y0311310D01*
X0019636Y0311268D01*
X0019155Y0311214D01*
X0018676Y0311148D01*
X0018198Y0311071D01*
X0017722Y0310982D01*
X0017248Y0310881D01*
X0016777Y0310769D01*
X0016309Y0310645D01*
X0015844Y0310509D01*
X0015383Y0310363D01*
X0014925Y0310205D01*
X0014471Y0310036D01*
X0014022Y0309856D01*
X0013577Y0309665D01*
X0013137Y0309463D01*
X0012702Y0309250D01*
X0012272Y0309027D01*
X0011848Y0308793D01*
X0011430Y0308549D01*
X0011018Y0308295D01*
X0010612Y0308031D01*
X0010213Y0307757D01*
X0009821Y0307473D01*
X0009436Y0307180D01*
X0009058Y0306877D01*
X0008687Y0306565D01*
X0008325Y0306244D01*
X0007970Y0305915D01*
X0007623Y0305577D01*
X0007285Y0305230D01*
X0006956Y0304875D01*
X0006635Y0304513D01*
X0006323Y0304142D01*
X0006020Y0303764D01*
X0005727Y0303379D01*
X0005443Y0302987D01*
X0005169Y0302588D01*
X0004905Y0302182D01*
X0004651Y0301770D01*
X0004407Y0301352D01*
X0004173Y0300928D01*
X0003950Y0300498D01*
X0003737Y0300063D01*
X0003535Y0299623D01*
X0003344Y0299178D01*
X0003164Y0298729D01*
X0002995Y0298275D01*
X0002837Y0297817D01*
X0002691Y0297356D01*
X0002555Y0296891D01*
X0002431Y0296423D01*
X0002319Y0295952D01*
X0002218Y0295478D01*
X0002129Y0295002D01*
X0002052Y0294524D01*
X0001986Y0294045D01*
X0001932Y0293564D01*
X0001890Y0293081D01*
X0001859Y0292598D01*
X0001841Y0292114D01*
X0001834Y0291630D01*
X0001331Y0021571D02*
X0001871Y0021571D01*
X0001870Y0021570D02*
X0001877Y0021087D01*
X0001895Y0020604D01*
X0001925Y0020121D01*
X0001968Y0019640D01*
X0002021Y0019160D01*
X0002087Y0018681D01*
X0002164Y0018204D01*
X0002254Y0017729D01*
X0002354Y0017256D01*
X0002466Y0016786D01*
X0002590Y0016319D01*
X0002725Y0015855D01*
X0002871Y0015394D01*
X0003029Y0014937D01*
X0003198Y0014484D01*
X0003378Y0014036D01*
X0003568Y0013592D01*
X0003770Y0013152D01*
X0003982Y0012718D01*
X0004205Y0012289D01*
X0004438Y0011866D01*
X0004682Y0011449D01*
X0004936Y0011037D01*
X0005199Y0010632D01*
X0005473Y0010234D01*
X0005756Y0009842D01*
X0006049Y0009458D01*
X0006351Y0009081D01*
X0006662Y0008711D01*
X0006982Y0008349D01*
X0007311Y0007995D01*
X0007649Y0007649D01*
X0007995Y0007311D01*
X0008349Y0006982D01*
X0008711Y0006662D01*
X0009081Y0006351D01*
X0009458Y0006049D01*
X0009842Y0005756D01*
X0010234Y0005473D01*
X0010632Y0005199D01*
X0011037Y0004936D01*
X0011449Y0004682D01*
X0011866Y0004438D01*
X0012289Y0004205D01*
X0012718Y0003982D01*
X0013152Y0003770D01*
X0013592Y0003568D01*
X0014036Y0003378D01*
X0014484Y0003198D01*
X0014937Y0003029D01*
X0015394Y0002871D01*
X0015855Y0002725D01*
X0016319Y0002590D01*
X0016786Y0002466D01*
X0017256Y0002354D01*
X0017729Y0002254D01*
X0018204Y0002164D01*
X0018681Y0002087D01*
X0019160Y0002021D01*
X0019640Y0001968D01*
X0020121Y0001925D01*
X0020604Y0001895D01*
X0021087Y0001877D01*
X0021570Y0001870D01*
X0021571Y0001331D01*
X0021570Y0001330D01*
X0021073Y0001337D01*
X0020577Y0001356D01*
X0020082Y0001387D01*
X0019587Y0001430D01*
X0019094Y0001486D01*
X0018602Y0001553D01*
X0018112Y0001632D01*
X0017623Y0001724D01*
X0017138Y0001827D01*
X0016655Y0001942D01*
X0016175Y0002070D01*
X0015698Y0002208D01*
X0015225Y0002359D01*
X0014755Y0002521D01*
X0014290Y0002694D01*
X0013829Y0002879D01*
X0013373Y0003075D01*
X0012922Y0003282D01*
X0012475Y0003500D01*
X0012035Y0003729D01*
X0011600Y0003968D01*
X0011171Y0004219D01*
X0010748Y0004479D01*
X0010332Y0004750D01*
X0009923Y0005031D01*
X0009521Y0005322D01*
X0009126Y0005623D01*
X0008738Y0005933D01*
X0008358Y0006253D01*
X0007986Y0006582D01*
X0007622Y0006920D01*
X0007267Y0007267D01*
X0006920Y0007622D01*
X0006582Y0007986D01*
X0006253Y0008358D01*
X0005933Y0008738D01*
X0005623Y0009126D01*
X0005322Y0009521D01*
X0005031Y0009923D01*
X0004750Y0010332D01*
X0004479Y0010748D01*
X0004219Y0011171D01*
X0003968Y0011600D01*
X0003729Y0012035D01*
X0003500Y0012475D01*
X0003282Y0012922D01*
X0003075Y0013373D01*
X0002879Y0013829D01*
X0002694Y0014290D01*
X0002521Y0014755D01*
X0002359Y0015225D01*
X0002208Y0015698D01*
X0002070Y0016175D01*
X0001942Y0016655D01*
X0001827Y0017138D01*
X0001724Y0017623D01*
X0001632Y0018112D01*
X0001553Y0018602D01*
X0001486Y0019094D01*
X0001430Y0019587D01*
X0001387Y0020082D01*
X0001356Y0020577D01*
X0001337Y0021073D01*
X0001330Y0021570D01*
X0001386Y0021570D01*
X0001393Y0021075D01*
X0001412Y0020580D01*
X0001443Y0020086D01*
X0001486Y0019593D01*
X0001541Y0019100D01*
X0001608Y0018610D01*
X0001688Y0018121D01*
X0001779Y0017634D01*
X0001882Y0017150D01*
X0001997Y0016668D01*
X0002123Y0016190D01*
X0002262Y0015714D01*
X0002412Y0015242D01*
X0002573Y0014774D01*
X0002746Y0014310D01*
X0002930Y0013851D01*
X0003126Y0013396D01*
X0003332Y0012946D01*
X0003550Y0012501D01*
X0003778Y0012061D01*
X0004017Y0011628D01*
X0004267Y0011200D01*
X0004527Y0010778D01*
X0004797Y0010363D01*
X0005077Y0009955D01*
X0005367Y0009554D01*
X0005667Y0009160D01*
X0005977Y0008773D01*
X0006296Y0008395D01*
X0006624Y0008024D01*
X0006961Y0007661D01*
X0007307Y0007307D01*
X0007661Y0006961D01*
X0008024Y0006624D01*
X0008395Y0006296D01*
X0008773Y0005977D01*
X0009160Y0005667D01*
X0009554Y0005367D01*
X0009955Y0005077D01*
X0010363Y0004797D01*
X0010778Y0004527D01*
X0011200Y0004267D01*
X0011628Y0004017D01*
X0012061Y0003778D01*
X0012501Y0003550D01*
X0012946Y0003332D01*
X0013396Y0003126D01*
X0013851Y0002930D01*
X0014310Y0002746D01*
X0014774Y0002573D01*
X0015242Y0002412D01*
X0015714Y0002262D01*
X0016190Y0002123D01*
X0016668Y0001997D01*
X0017150Y0001882D01*
X0017634Y0001779D01*
X0018121Y0001688D01*
X0018610Y0001608D01*
X0019100Y0001541D01*
X0019593Y0001486D01*
X0020086Y0001443D01*
X0020580Y0001412D01*
X0021075Y0001393D01*
X0021570Y0001386D01*
X0021570Y0001442D01*
X0021076Y0001449D01*
X0020583Y0001468D01*
X0020090Y0001499D01*
X0019598Y0001542D01*
X0019107Y0001597D01*
X0018618Y0001664D01*
X0018131Y0001743D01*
X0017645Y0001834D01*
X0017162Y0001937D01*
X0016682Y0002051D01*
X0016205Y0002177D01*
X0015731Y0002315D01*
X0015260Y0002465D01*
X0014793Y0002626D01*
X0014330Y0002798D01*
X0013872Y0002982D01*
X0013418Y0003177D01*
X0012969Y0003383D01*
X0012526Y0003600D01*
X0012088Y0003828D01*
X0011655Y0004066D01*
X0011229Y0004315D01*
X0010808Y0004574D01*
X0010395Y0004843D01*
X0009987Y0005123D01*
X0009587Y0005412D01*
X0009194Y0005711D01*
X0008809Y0006020D01*
X0008431Y0006338D01*
X0008061Y0006665D01*
X0007700Y0007001D01*
X0007346Y0007346D01*
X0007001Y0007700D01*
X0006665Y0008061D01*
X0006338Y0008431D01*
X0006020Y0008809D01*
X0005711Y0009194D01*
X0005412Y0009587D01*
X0005123Y0009987D01*
X0004843Y0010395D01*
X0004574Y0010808D01*
X0004315Y0011229D01*
X0004066Y0011655D01*
X0003828Y0012088D01*
X0003600Y0012526D01*
X0003383Y0012969D01*
X0003177Y0013418D01*
X0002982Y0013872D01*
X0002798Y0014330D01*
X0002626Y0014793D01*
X0002465Y0015260D01*
X0002315Y0015731D01*
X0002177Y0016205D01*
X0002051Y0016682D01*
X0001937Y0017162D01*
X0001834Y0017645D01*
X0001743Y0018131D01*
X0001664Y0018618D01*
X0001597Y0019107D01*
X0001542Y0019598D01*
X0001499Y0020090D01*
X0001468Y0020583D01*
X0001449Y0021076D01*
X0001442Y0021570D01*
X0001498Y0021570D01*
X0001505Y0021078D01*
X0001524Y0020586D01*
X0001554Y0020094D01*
X0001597Y0019604D01*
X0001652Y0019114D01*
X0001719Y0018626D01*
X0001798Y0018140D01*
X0001889Y0017656D01*
X0001991Y0017175D01*
X0002105Y0016696D01*
X0002231Y0016220D01*
X0002369Y0015747D01*
X0002518Y0015277D01*
X0002679Y0014812D01*
X0002851Y0014351D01*
X0003034Y0013893D01*
X0003228Y0013441D01*
X0003434Y0012993D01*
X0003650Y0012551D01*
X0003877Y0012114D01*
X0004115Y0011683D01*
X0004363Y0011257D01*
X0004621Y0010838D01*
X0004890Y0010426D01*
X0005169Y0010020D01*
X0005457Y0009621D01*
X0005756Y0009229D01*
X0006063Y0008845D01*
X0006380Y0008468D01*
X0006707Y0008099D01*
X0007042Y0007738D01*
X0007386Y0007386D01*
X0007738Y0007042D01*
X0008099Y0006707D01*
X0008468Y0006380D01*
X0008845Y0006063D01*
X0009229Y0005756D01*
X0009621Y0005457D01*
X0010020Y0005169D01*
X0010426Y0004890D01*
X0010838Y0004621D01*
X0011257Y0004363D01*
X0011683Y0004115D01*
X0012114Y0003877D01*
X0012551Y0003650D01*
X0012993Y0003434D01*
X0013441Y0003228D01*
X0013893Y0003034D01*
X0014351Y0002851D01*
X0014812Y0002679D01*
X0015277Y0002518D01*
X0015747Y0002369D01*
X0016220Y0002231D01*
X0016696Y0002105D01*
X0017175Y0001991D01*
X0017656Y0001889D01*
X0018140Y0001798D01*
X0018626Y0001719D01*
X0019114Y0001652D01*
X0019604Y0001597D01*
X0020094Y0001554D01*
X0020586Y0001524D01*
X0021078Y0001505D01*
X0021570Y0001498D01*
X0021570Y0001554D01*
X0021079Y0001561D01*
X0020588Y0001580D01*
X0020098Y0001610D01*
X0019609Y0001653D01*
X0019121Y0001708D01*
X0018635Y0001775D01*
X0018150Y0001853D01*
X0017667Y0001944D01*
X0017187Y0002046D01*
X0016709Y0002160D01*
X0016235Y0002285D01*
X0015763Y0002423D01*
X0015295Y0002571D01*
X0014831Y0002731D01*
X0014371Y0002903D01*
X0013915Y0003086D01*
X0013464Y0003279D01*
X0013017Y0003484D01*
X0012576Y0003700D01*
X0012140Y0003926D01*
X0011710Y0004163D01*
X0011286Y0004411D01*
X0010868Y0004669D01*
X0010457Y0004937D01*
X0010052Y0005214D01*
X0009654Y0005502D01*
X0009263Y0005800D01*
X0008880Y0006107D01*
X0008504Y0006423D01*
X0008137Y0006748D01*
X0007777Y0007082D01*
X0007425Y0007425D01*
X0007082Y0007777D01*
X0006748Y0008137D01*
X0006423Y0008504D01*
X0006107Y0008880D01*
X0005800Y0009263D01*
X0005502Y0009654D01*
X0005214Y0010052D01*
X0004937Y0010457D01*
X0004669Y0010868D01*
X0004411Y0011286D01*
X0004163Y0011710D01*
X0003926Y0012140D01*
X0003700Y0012576D01*
X0003484Y0013017D01*
X0003279Y0013464D01*
X0003086Y0013915D01*
X0002903Y0014371D01*
X0002731Y0014831D01*
X0002571Y0015295D01*
X0002423Y0015763D01*
X0002285Y0016235D01*
X0002160Y0016709D01*
X0002046Y0017187D01*
X0001944Y0017667D01*
X0001853Y0018150D01*
X0001775Y0018635D01*
X0001708Y0019121D01*
X0001653Y0019609D01*
X0001610Y0020098D01*
X0001580Y0020588D01*
X0001561Y0021079D01*
X0001554Y0021570D01*
X0001610Y0021570D01*
X0001617Y0021080D01*
X0001635Y0020591D01*
X0001666Y0020102D01*
X0001709Y0019615D01*
X0001763Y0019128D01*
X0001830Y0018643D01*
X0001908Y0018159D01*
X0001999Y0017678D01*
X0002100Y0017199D01*
X0002214Y0016723D01*
X0002339Y0016249D01*
X0002476Y0015779D01*
X0002625Y0015313D01*
X0002784Y0014850D01*
X0002955Y0014391D01*
X0003137Y0013936D01*
X0003331Y0013486D01*
X0003535Y0013041D01*
X0003750Y0012601D01*
X0003976Y0012167D01*
X0004212Y0011738D01*
X0004459Y0011315D01*
X0004716Y0010898D01*
X0004983Y0010488D01*
X0005260Y0010084D01*
X0005547Y0009687D01*
X0005844Y0009298D01*
X0006150Y0008916D01*
X0006465Y0008541D01*
X0006790Y0008174D01*
X0007123Y0007815D01*
X0007465Y0007465D01*
X0007815Y0007123D01*
X0008174Y0006790D01*
X0008541Y0006465D01*
X0008916Y0006150D01*
X0009298Y0005844D01*
X0009687Y0005547D01*
X0010084Y0005260D01*
X0010488Y0004983D01*
X0010898Y0004716D01*
X0011315Y0004459D01*
X0011738Y0004212D01*
X0012167Y0003976D01*
X0012601Y0003750D01*
X0013041Y0003535D01*
X0013486Y0003331D01*
X0013936Y0003137D01*
X0014391Y0002955D01*
X0014850Y0002784D01*
X0015313Y0002625D01*
X0015779Y0002476D01*
X0016249Y0002339D01*
X0016723Y0002214D01*
X0017199Y0002100D01*
X0017678Y0001999D01*
X0018159Y0001908D01*
X0018643Y0001830D01*
X0019128Y0001763D01*
X0019615Y0001709D01*
X0020102Y0001666D01*
X0020591Y0001635D01*
X0021080Y0001617D01*
X0021570Y0001610D01*
X0021570Y0001666D01*
X0021082Y0001673D01*
X0020594Y0001691D01*
X0020106Y0001722D01*
X0019620Y0001765D01*
X0019135Y0001819D01*
X0018651Y0001885D01*
X0018169Y0001963D01*
X0017689Y0002053D01*
X0017211Y0002155D01*
X0016736Y0002268D01*
X0016264Y0002393D01*
X0015796Y0002530D01*
X0015330Y0002678D01*
X0014869Y0002837D01*
X0014411Y0003007D01*
X0013958Y0003189D01*
X0013509Y0003382D01*
X0013065Y0003585D01*
X0012627Y0003800D01*
X0012193Y0004025D01*
X0011766Y0004261D01*
X0011344Y0004507D01*
X0010928Y0004763D01*
X0010519Y0005030D01*
X0010116Y0005306D01*
X0009721Y0005592D01*
X0009332Y0005888D01*
X0008951Y0006193D01*
X0008578Y0006508D01*
X0008212Y0006831D01*
X0007854Y0007164D01*
X0007505Y0007505D01*
X0007164Y0007854D01*
X0006831Y0008212D01*
X0006508Y0008578D01*
X0006193Y0008951D01*
X0005888Y0009332D01*
X0005592Y0009721D01*
X0005306Y0010116D01*
X0005030Y0010519D01*
X0004763Y0010928D01*
X0004507Y0011344D01*
X0004261Y0011766D01*
X0004025Y0012193D01*
X0003800Y0012627D01*
X0003585Y0013065D01*
X0003382Y0013509D01*
X0003189Y0013958D01*
X0003007Y0014411D01*
X0002837Y0014869D01*
X0002678Y0015330D01*
X0002530Y0015796D01*
X0002393Y0016264D01*
X0002268Y0016736D01*
X0002155Y0017211D01*
X0002053Y0017689D01*
X0001963Y0018169D01*
X0001885Y0018651D01*
X0001819Y0019135D01*
X0001765Y0019620D01*
X0001722Y0020106D01*
X0001691Y0020594D01*
X0001673Y0021082D01*
X0001666Y0021570D01*
X0001722Y0021570D01*
X0001729Y0021083D01*
X0001747Y0020597D01*
X0001778Y0020111D01*
X0001820Y0019625D01*
X0001875Y0019142D01*
X0001941Y0018659D01*
X0002019Y0018179D01*
X0002108Y0017700D01*
X0002210Y0017224D01*
X0002323Y0016750D01*
X0002447Y0016279D01*
X0002583Y0015812D01*
X0002731Y0015348D01*
X0002890Y0014887D01*
X0003060Y0014431D01*
X0003241Y0013979D01*
X0003433Y0013532D01*
X0003636Y0013089D01*
X0003850Y0012652D01*
X0004074Y0012220D01*
X0004309Y0011793D01*
X0004555Y0011373D01*
X0004811Y0010958D01*
X0005076Y0010550D01*
X0005352Y0010149D01*
X0005637Y0009754D01*
X0005932Y0009367D01*
X0006236Y0008987D01*
X0006550Y0008614D01*
X0006873Y0008249D01*
X0007204Y0007893D01*
X0007544Y0007544D01*
X0007893Y0007204D01*
X0008249Y0006873D01*
X0008614Y0006550D01*
X0008987Y0006236D01*
X0009367Y0005932D01*
X0009754Y0005637D01*
X0010149Y0005352D01*
X0010550Y0005076D01*
X0010958Y0004811D01*
X0011373Y0004555D01*
X0011793Y0004309D01*
X0012220Y0004074D01*
X0012652Y0003850D01*
X0013089Y0003636D01*
X0013532Y0003433D01*
X0013979Y0003241D01*
X0014431Y0003060D01*
X0014887Y0002890D01*
X0015348Y0002731D01*
X0015812Y0002583D01*
X0016279Y0002447D01*
X0016750Y0002323D01*
X0017224Y0002210D01*
X0017700Y0002108D01*
X0018179Y0002019D01*
X0018659Y0001941D01*
X0019142Y0001875D01*
X0019625Y0001820D01*
X0020111Y0001778D01*
X0020597Y0001747D01*
X0021083Y0001729D01*
X0021570Y0001722D01*
X0021570Y0001778D01*
X0021084Y0001785D01*
X0020599Y0001803D01*
X0020115Y0001834D01*
X0019631Y0001876D01*
X0019148Y0001930D01*
X0018667Y0001996D01*
X0018188Y0002074D01*
X0017711Y0002163D01*
X0017236Y0002264D01*
X0016764Y0002377D01*
X0016294Y0002501D01*
X0015828Y0002637D01*
X0015365Y0002784D01*
X0014906Y0002942D01*
X0014451Y0003112D01*
X0014001Y0003293D01*
X0013554Y0003484D01*
X0013113Y0003687D01*
X0012677Y0003900D01*
X0012246Y0004124D01*
X0011821Y0004358D01*
X0011401Y0004603D01*
X0010988Y0004858D01*
X0010581Y0005123D01*
X0010181Y0005398D01*
X0009788Y0005682D01*
X0009401Y0005976D01*
X0009022Y0006280D01*
X0008651Y0006592D01*
X0008287Y0006914D01*
X0007931Y0007245D01*
X0007584Y0007584D01*
X0007245Y0007931D01*
X0006914Y0008287D01*
X0006592Y0008651D01*
X0006280Y0009022D01*
X0005976Y0009401D01*
X0005682Y0009788D01*
X0005398Y0010181D01*
X0005123Y0010581D01*
X0004858Y0010988D01*
X0004603Y0011401D01*
X0004358Y0011821D01*
X0004124Y0012246D01*
X0003900Y0012677D01*
X0003687Y0013113D01*
X0003484Y0013554D01*
X0003293Y0014001D01*
X0003112Y0014451D01*
X0002942Y0014906D01*
X0002784Y0015365D01*
X0002637Y0015828D01*
X0002501Y0016294D01*
X0002377Y0016764D01*
X0002264Y0017236D01*
X0002163Y0017711D01*
X0002074Y0018188D01*
X0001996Y0018667D01*
X0001930Y0019148D01*
X0001876Y0019631D01*
X0001834Y0020115D01*
X0001803Y0020599D01*
X0001785Y0021084D01*
X0001778Y0021570D01*
X0001834Y0021570D01*
X0001841Y0021086D01*
X0001859Y0020602D01*
X0001890Y0020119D01*
X0001932Y0019636D01*
X0001986Y0019155D01*
X0002052Y0018676D01*
X0002129Y0018198D01*
X0002218Y0017722D01*
X0002319Y0017248D01*
X0002431Y0016777D01*
X0002555Y0016309D01*
X0002691Y0015844D01*
X0002837Y0015383D01*
X0002995Y0014925D01*
X0003164Y0014471D01*
X0003344Y0014022D01*
X0003535Y0013577D01*
X0003737Y0013137D01*
X0003950Y0012702D01*
X0004173Y0012272D01*
X0004407Y0011848D01*
X0004651Y0011430D01*
X0004905Y0011018D01*
X0005169Y0010612D01*
X0005443Y0010213D01*
X0005727Y0009821D01*
X0006020Y0009436D01*
X0006323Y0009058D01*
X0006635Y0008687D01*
X0006956Y0008325D01*
X0007285Y0007970D01*
X0007623Y0007623D01*
X0007970Y0007285D01*
X0008325Y0006956D01*
X0008687Y0006635D01*
X0009058Y0006323D01*
X0009436Y0006020D01*
X0009821Y0005727D01*
X0010213Y0005443D01*
X0010612Y0005169D01*
X0011018Y0004905D01*
X0011430Y0004651D01*
X0011848Y0004407D01*
X0012272Y0004173D01*
X0012702Y0003950D01*
X0013137Y0003737D01*
X0013577Y0003535D01*
X0014022Y0003344D01*
X0014471Y0003164D01*
X0014925Y0002995D01*
X0015383Y0002837D01*
X0015844Y0002691D01*
X0016309Y0002555D01*
X0016777Y0002431D01*
X0017248Y0002319D01*
X0017722Y0002218D01*
X0018198Y0002129D01*
X0018676Y0002052D01*
X0019155Y0001986D01*
X0019636Y0001932D01*
X0020119Y0001890D01*
X0020602Y0001859D01*
X0021086Y0001841D01*
X0021570Y0001834D01*
X0001331Y0021571D02*
X0001871Y0021571D01*
X0001870Y0021570D02*
X0001877Y0021087D01*
X0001895Y0020604D01*
X0001925Y0020121D01*
X0001968Y0019640D01*
X0002021Y0019160D01*
X0002087Y0018681D01*
X0002164Y0018204D01*
X0002254Y0017729D01*
X0002354Y0017256D01*
X0002466Y0016786D01*
X0002590Y0016319D01*
X0002725Y0015855D01*
X0002871Y0015394D01*
X0003029Y0014937D01*
X0003198Y0014484D01*
X0003378Y0014036D01*
X0003568Y0013592D01*
X0003770Y0013152D01*
X0003982Y0012718D01*
X0004205Y0012289D01*
X0004438Y0011866D01*
X0004682Y0011449D01*
X0004936Y0011037D01*
X0005199Y0010632D01*
X0005473Y0010234D01*
X0005756Y0009842D01*
X0006049Y0009458D01*
X0006351Y0009081D01*
X0006662Y0008711D01*
X0006982Y0008349D01*
X0007311Y0007995D01*
X0007649Y0007649D01*
X0007995Y0007311D01*
X0008349Y0006982D01*
X0008711Y0006662D01*
X0009081Y0006351D01*
X0009458Y0006049D01*
X0009842Y0005756D01*
X0010234Y0005473D01*
X0010632Y0005199D01*
X0011037Y0004936D01*
X0011449Y0004682D01*
X0011866Y0004438D01*
X0012289Y0004205D01*
X0012718Y0003982D01*
X0013152Y0003770D01*
X0013592Y0003568D01*
X0014036Y0003378D01*
X0014484Y0003198D01*
X0014937Y0003029D01*
X0015394Y0002871D01*
X0015855Y0002725D01*
X0016319Y0002590D01*
X0016786Y0002466D01*
X0017256Y0002354D01*
X0017729Y0002254D01*
X0018204Y0002164D01*
X0018681Y0002087D01*
X0019160Y0002021D01*
X0019640Y0001968D01*
X0020121Y0001925D01*
X0020604Y0001895D01*
X0021087Y0001877D01*
X0021570Y0001870D01*
X0021571Y0001331D01*
X0021570Y0001330D01*
X0021073Y0001337D01*
X0020577Y0001356D01*
X0020082Y0001387D01*
X0019587Y0001430D01*
X0019094Y0001486D01*
X0018602Y0001553D01*
X0018112Y0001632D01*
X0017623Y0001724D01*
X0017138Y0001827D01*
X0016655Y0001942D01*
X0016175Y0002070D01*
X0015698Y0002208D01*
X0015225Y0002359D01*
X0014755Y0002521D01*
X0014290Y0002694D01*
X0013829Y0002879D01*
X0013373Y0003075D01*
X0012922Y0003282D01*
X0012475Y0003500D01*
X0012035Y0003729D01*
X0011600Y0003968D01*
X0011171Y0004219D01*
X0010748Y0004479D01*
X0010332Y0004750D01*
X0009923Y0005031D01*
X0009521Y0005322D01*
X0009126Y0005623D01*
X0008738Y0005933D01*
X0008358Y0006253D01*
X0007986Y0006582D01*
X0007622Y0006920D01*
X0007267Y0007267D01*
X0006920Y0007622D01*
X0006582Y0007986D01*
X0006253Y0008358D01*
X0005933Y0008738D01*
X0005623Y0009126D01*
X0005322Y0009521D01*
X0005031Y0009923D01*
X0004750Y0010332D01*
X0004479Y0010748D01*
X0004219Y0011171D01*
X0003968Y0011600D01*
X0003729Y0012035D01*
X0003500Y0012475D01*
X0003282Y0012922D01*
X0003075Y0013373D01*
X0002879Y0013829D01*
X0002694Y0014290D01*
X0002521Y0014755D01*
X0002359Y0015225D01*
X0002208Y0015698D01*
X0002070Y0016175D01*
X0001942Y0016655D01*
X0001827Y0017138D01*
X0001724Y0017623D01*
X0001632Y0018112D01*
X0001553Y0018602D01*
X0001486Y0019094D01*
X0001430Y0019587D01*
X0001387Y0020082D01*
X0001356Y0020577D01*
X0001337Y0021073D01*
X0001330Y0021570D01*
X0001386Y0021570D01*
X0001393Y0021075D01*
X0001412Y0020580D01*
X0001443Y0020086D01*
X0001486Y0019593D01*
X0001541Y0019100D01*
X0001608Y0018610D01*
X0001688Y0018121D01*
X0001779Y0017634D01*
X0001882Y0017150D01*
X0001997Y0016668D01*
X0002123Y0016190D01*
X0002262Y0015714D01*
X0002412Y0015242D01*
X0002573Y0014774D01*
X0002746Y0014310D01*
X0002930Y0013851D01*
X0003126Y0013396D01*
X0003332Y0012946D01*
X0003550Y0012501D01*
X0003778Y0012061D01*
X0004017Y0011628D01*
X0004267Y0011200D01*
X0004527Y0010778D01*
X0004797Y0010363D01*
X0005077Y0009955D01*
X0005367Y0009554D01*
X0005667Y0009160D01*
X0005977Y0008773D01*
X0006296Y0008395D01*
X0006624Y0008024D01*
X0006961Y0007661D01*
X0007307Y0007307D01*
X0007661Y0006961D01*
X0008024Y0006624D01*
X0008395Y0006296D01*
X0008773Y0005977D01*
X0009160Y0005667D01*
X0009554Y0005367D01*
X0009955Y0005077D01*
X0010363Y0004797D01*
X0010778Y0004527D01*
X0011200Y0004267D01*
X0011628Y0004017D01*
X0012061Y0003778D01*
X0012501Y0003550D01*
X0012946Y0003332D01*
X0013396Y0003126D01*
X0013851Y0002930D01*
X0014310Y0002746D01*
X0014774Y0002573D01*
X0015242Y0002412D01*
X0015714Y0002262D01*
X0016190Y0002123D01*
X0016668Y0001997D01*
X0017150Y0001882D01*
X0017634Y0001779D01*
X0018121Y0001688D01*
X0018610Y0001608D01*
X0019100Y0001541D01*
X0019593Y0001486D01*
X0020086Y0001443D01*
X0020580Y0001412D01*
X0021075Y0001393D01*
X0021570Y0001386D01*
X0021570Y0001442D01*
X0021076Y0001449D01*
X0020583Y0001468D01*
X0020090Y0001499D01*
X0019598Y0001542D01*
X0019107Y0001597D01*
X0018618Y0001664D01*
X0018131Y0001743D01*
X0017645Y0001834D01*
X0017162Y0001937D01*
X0016682Y0002051D01*
X0016205Y0002177D01*
X0015731Y0002315D01*
X0015260Y0002465D01*
X0014793Y0002626D01*
X0014330Y0002798D01*
X0013872Y0002982D01*
X0013418Y0003177D01*
X0012969Y0003383D01*
X0012526Y0003600D01*
X0012088Y0003828D01*
X0011655Y0004066D01*
X0011229Y0004315D01*
X0010808Y0004574D01*
X0010395Y0004843D01*
X0009987Y0005123D01*
X0009587Y0005412D01*
X0009194Y0005711D01*
X0008809Y0006020D01*
X0008431Y0006338D01*
X0008061Y0006665D01*
X0007700Y0007001D01*
X0007346Y0007346D01*
X0007001Y0007700D01*
X0006665Y0008061D01*
X0006338Y0008431D01*
X0006020Y0008809D01*
X0005711Y0009194D01*
X0005412Y0009587D01*
X0005123Y0009987D01*
X0004843Y0010395D01*
X0004574Y0010808D01*
X0004315Y0011229D01*
X0004066Y0011655D01*
X0003828Y0012088D01*
X0003600Y0012526D01*
X0003383Y0012969D01*
X0003177Y0013418D01*
X0002982Y0013872D01*
X0002798Y0014330D01*
X0002626Y0014793D01*
X0002465Y0015260D01*
X0002315Y0015731D01*
X0002177Y0016205D01*
X0002051Y0016682D01*
X0001937Y0017162D01*
X0001834Y0017645D01*
X0001743Y0018131D01*
X0001664Y0018618D01*
X0001597Y0019107D01*
X0001542Y0019598D01*
X0001499Y0020090D01*
X0001468Y0020583D01*
X0001449Y0021076D01*
X0001442Y0021570D01*
X0001498Y0021570D01*
X0001505Y0021078D01*
X0001524Y0020586D01*
X0001554Y0020094D01*
X0001597Y0019604D01*
X0001652Y0019114D01*
X0001719Y0018626D01*
X0001798Y0018140D01*
X0001889Y0017656D01*
X0001991Y0017175D01*
X0002105Y0016696D01*
X0002231Y0016220D01*
X0002369Y0015747D01*
X0002518Y0015277D01*
X0002679Y0014812D01*
X0002851Y0014351D01*
X0003034Y0013893D01*
X0003228Y0013441D01*
X0003434Y0012993D01*
X0003650Y0012551D01*
X0003877Y0012114D01*
X0004115Y0011683D01*
X0004363Y0011257D01*
X0004621Y0010838D01*
X0004890Y0010426D01*
X0005169Y0010020D01*
X0005457Y0009621D01*
X0005756Y0009229D01*
X0006063Y0008845D01*
X0006380Y0008468D01*
X0006707Y0008099D01*
X0007042Y0007738D01*
X0007386Y0007386D01*
X0007738Y0007042D01*
X0008099Y0006707D01*
X0008468Y0006380D01*
X0008845Y0006063D01*
X0009229Y0005756D01*
X0009621Y0005457D01*
X0010020Y0005169D01*
X0010426Y0004890D01*
X0010838Y0004621D01*
X0011257Y0004363D01*
X0011683Y0004115D01*
X0012114Y0003877D01*
X0012551Y0003650D01*
X0012993Y0003434D01*
X0013441Y0003228D01*
X0013893Y0003034D01*
X0014351Y0002851D01*
X0014812Y0002679D01*
X0015277Y0002518D01*
X0015747Y0002369D01*
X0016220Y0002231D01*
X0016696Y0002105D01*
X0017175Y0001991D01*
X0017656Y0001889D01*
X0018140Y0001798D01*
X0018626Y0001719D01*
X0019114Y0001652D01*
X0019604Y0001597D01*
X0020094Y0001554D01*
X0020586Y0001524D01*
X0021078Y0001505D01*
X0021570Y0001498D01*
X0021570Y0001554D01*
X0021079Y0001561D01*
X0020588Y0001580D01*
X0020098Y0001610D01*
X0019609Y0001653D01*
X0019121Y0001708D01*
X0018635Y0001775D01*
X0018150Y0001853D01*
X0017667Y0001944D01*
X0017187Y0002046D01*
X0016709Y0002160D01*
X0016235Y0002285D01*
X0015763Y0002423D01*
X0015295Y0002571D01*
X0014831Y0002731D01*
X0014371Y0002903D01*
X0013915Y0003086D01*
X0013464Y0003279D01*
X0013017Y0003484D01*
X0012576Y0003700D01*
X0012140Y0003926D01*
X0011710Y0004163D01*
X0011286Y0004411D01*
X0010868Y0004669D01*
X0010457Y0004937D01*
X0010052Y0005214D01*
X0009654Y0005502D01*
X0009263Y0005800D01*
X0008880Y0006107D01*
X0008504Y0006423D01*
X0008137Y0006748D01*
X0007777Y0007082D01*
X0007425Y0007425D01*
X0007082Y0007777D01*
X0006748Y0008137D01*
X0006423Y0008504D01*
X0006107Y0008880D01*
X0005800Y0009263D01*
X0005502Y0009654D01*
X0005214Y0010052D01*
X0004937Y0010457D01*
X0004669Y0010868D01*
X0004411Y0011286D01*
X0004163Y0011710D01*
X0003926Y0012140D01*
X0003700Y0012576D01*
X0003484Y0013017D01*
X0003279Y0013464D01*
X0003086Y0013915D01*
X0002903Y0014371D01*
X0002731Y0014831D01*
X0002571Y0015295D01*
X0002423Y0015763D01*
X0002285Y0016235D01*
X0002160Y0016709D01*
X0002046Y0017187D01*
X0001944Y0017667D01*
X0001853Y0018150D01*
X0001775Y0018635D01*
X0001708Y0019121D01*
X0001653Y0019609D01*
X0001610Y0020098D01*
X0001580Y0020588D01*
X0001561Y0021079D01*
X0001554Y0021570D01*
X0001610Y0021570D01*
X0001617Y0021080D01*
X0001635Y0020591D01*
X0001666Y0020102D01*
X0001709Y0019615D01*
X0001763Y0019128D01*
X0001830Y0018643D01*
X0001908Y0018159D01*
X0001999Y0017678D01*
X0002100Y0017199D01*
X0002214Y0016723D01*
X0002339Y0016249D01*
X0002476Y0015779D01*
X0002625Y0015313D01*
X0002784Y0014850D01*
X0002955Y0014391D01*
X0003137Y0013936D01*
X0003331Y0013486D01*
X0003535Y0013041D01*
X0003750Y0012601D01*
X0003976Y0012167D01*
X0004212Y0011738D01*
X0004459Y0011315D01*
X0004716Y0010898D01*
X0004983Y0010488D01*
X0005260Y0010084D01*
X0005547Y0009687D01*
X0005844Y0009298D01*
X0006150Y0008916D01*
X0006465Y0008541D01*
X0006790Y0008174D01*
X0007123Y0007815D01*
X0007465Y0007465D01*
X0007815Y0007123D01*
X0008174Y0006790D01*
X0008541Y0006465D01*
X0008916Y0006150D01*
X0009298Y0005844D01*
X0009687Y0005547D01*
X0010084Y0005260D01*
X0010488Y0004983D01*
X0010898Y0004716D01*
X0011315Y0004459D01*
X0011738Y0004212D01*
X0012167Y0003976D01*
X0012601Y0003750D01*
X0013041Y0003535D01*
X0013486Y0003331D01*
X0013936Y0003137D01*
X0014391Y0002955D01*
X0014850Y0002784D01*
X0015313Y0002625D01*
X0015779Y0002476D01*
X0016249Y0002339D01*
X0016723Y0002214D01*
X0017199Y0002100D01*
X0017678Y0001999D01*
X0018159Y0001908D01*
X0018643Y0001830D01*
X0019128Y0001763D01*
X0019615Y0001709D01*
X0020102Y0001666D01*
X0020591Y0001635D01*
X0021080Y0001617D01*
X0021570Y0001610D01*
X0021570Y0001666D01*
X0021082Y0001673D01*
X0020594Y0001691D01*
X0020106Y0001722D01*
X0019620Y0001765D01*
X0019135Y0001819D01*
X0018651Y0001885D01*
X0018169Y0001963D01*
X0017689Y0002053D01*
X0017211Y0002155D01*
X0016736Y0002268D01*
X0016264Y0002393D01*
X0015796Y0002530D01*
X0015330Y0002678D01*
X0014869Y0002837D01*
X0014411Y0003007D01*
X0013958Y0003189D01*
X0013509Y0003382D01*
X0013065Y0003585D01*
X0012627Y0003800D01*
X0012193Y0004025D01*
X0011766Y0004261D01*
X0011344Y0004507D01*
X0010928Y0004763D01*
X0010519Y0005030D01*
X0010116Y0005306D01*
X0009721Y0005592D01*
X0009332Y0005888D01*
X0008951Y0006193D01*
X0008578Y0006508D01*
X0008212Y0006831D01*
X0007854Y0007164D01*
X0007505Y0007505D01*
X0007164Y0007854D01*
X0006831Y0008212D01*
X0006508Y0008578D01*
X0006193Y0008951D01*
X0005888Y0009332D01*
X0005592Y0009721D01*
X0005306Y0010116D01*
X0005030Y0010519D01*
X0004763Y0010928D01*
X0004507Y0011344D01*
X0004261Y0011766D01*
X0004025Y0012193D01*
X0003800Y0012627D01*
X0003585Y0013065D01*
X0003382Y0013509D01*
X0003189Y0013958D01*
X0003007Y0014411D01*
X0002837Y0014869D01*
X0002678Y0015330D01*
X0002530Y0015796D01*
X0002393Y0016264D01*
X0002268Y0016736D01*
X0002155Y0017211D01*
X0002053Y0017689D01*
X0001963Y0018169D01*
X0001885Y0018651D01*
X0001819Y0019135D01*
X0001765Y0019620D01*
X0001722Y0020106D01*
X0001691Y0020594D01*
X0001673Y0021082D01*
X0001666Y0021570D01*
X0001722Y0021570D01*
X0001729Y0021083D01*
X0001747Y0020597D01*
X0001778Y0020111D01*
X0001820Y0019625D01*
X0001875Y0019142D01*
X0001941Y0018659D01*
X0002019Y0018179D01*
X0002108Y0017700D01*
X0002210Y0017224D01*
X0002323Y0016750D01*
X0002447Y0016279D01*
X0002583Y0015812D01*
X0002731Y0015348D01*
X0002890Y0014887D01*
X0003060Y0014431D01*
X0003241Y0013979D01*
X0003433Y0013532D01*
X0003636Y0013089D01*
X0003850Y0012652D01*
X0004074Y0012220D01*
X0004309Y0011793D01*
X0004555Y0011373D01*
X0004811Y0010958D01*
X0005076Y0010550D01*
X0005352Y0010149D01*
X0005637Y0009754D01*
X0005932Y0009367D01*
X0006236Y0008987D01*
X0006550Y0008614D01*
X0006873Y0008249D01*
X0007204Y0007893D01*
X0007544Y0007544D01*
X0007893Y0007204D01*
X0008249Y0006873D01*
X0008614Y0006550D01*
X0008987Y0006236D01*
X0009367Y0005932D01*
X0009754Y0005637D01*
X0010149Y0005352D01*
X0010550Y0005076D01*
X0010958Y0004811D01*
X0011373Y0004555D01*
X0011793Y0004309D01*
X0012220Y0004074D01*
X0012652Y0003850D01*
X0013089Y0003636D01*
X0013532Y0003433D01*
X0013979Y0003241D01*
X0014431Y0003060D01*
X0014887Y0002890D01*
X0015348Y0002731D01*
X0015812Y0002583D01*
X0016279Y0002447D01*
X0016750Y0002323D01*
X0017224Y0002210D01*
X0017700Y0002108D01*
X0018179Y0002019D01*
X0018659Y0001941D01*
X0019142Y0001875D01*
X0019625Y0001820D01*
X0020111Y0001778D01*
X0020597Y0001747D01*
X0021083Y0001729D01*
X0021570Y0001722D01*
X0021570Y0001778D01*
X0021084Y0001785D01*
X0020599Y0001803D01*
X0020115Y0001834D01*
X0019631Y0001876D01*
X0019148Y0001930D01*
X0018667Y0001996D01*
X0018188Y0002074D01*
X0017711Y0002163D01*
X0017236Y0002264D01*
X0016764Y0002377D01*
X0016294Y0002501D01*
X0015828Y0002637D01*
X0015365Y0002784D01*
X0014906Y0002942D01*
X0014451Y0003112D01*
X0014001Y0003293D01*
X0013554Y0003484D01*
X0013113Y0003687D01*
X0012677Y0003900D01*
X0012246Y0004124D01*
X0011821Y0004358D01*
X0011401Y0004603D01*
X0010988Y0004858D01*
X0010581Y0005123D01*
X0010181Y0005398D01*
X0009788Y0005682D01*
X0009401Y0005976D01*
X0009022Y0006280D01*
X0008651Y0006592D01*
X0008287Y0006914D01*
X0007931Y0007245D01*
X0007584Y0007584D01*
X0007245Y0007931D01*
X0006914Y0008287D01*
X0006592Y0008651D01*
X0006280Y0009022D01*
X0005976Y0009401D01*
X0005682Y0009788D01*
X0005398Y0010181D01*
X0005123Y0010581D01*
X0004858Y0010988D01*
X0004603Y0011401D01*
X0004358Y0011821D01*
X0004124Y0012246D01*
X0003900Y0012677D01*
X0003687Y0013113D01*
X0003484Y0013554D01*
X0003293Y0014001D01*
X0003112Y0014451D01*
X0002942Y0014906D01*
X0002784Y0015365D01*
X0002637Y0015828D01*
X0002501Y0016294D01*
X0002377Y0016764D01*
X0002264Y0017236D01*
X0002163Y0017711D01*
X0002074Y0018188D01*
X0001996Y0018667D01*
X0001930Y0019148D01*
X0001876Y0019631D01*
X0001834Y0020115D01*
X0001803Y0020599D01*
X0001785Y0021084D01*
X0001778Y0021570D01*
X0001834Y0021570D01*
X0001841Y0021086D01*
X0001859Y0020602D01*
X0001890Y0020119D01*
X0001932Y0019636D01*
X0001986Y0019155D01*
X0002052Y0018676D01*
X0002129Y0018198D01*
X0002218Y0017722D01*
X0002319Y0017248D01*
X0002431Y0016777D01*
X0002555Y0016309D01*
X0002691Y0015844D01*
X0002837Y0015383D01*
X0002995Y0014925D01*
X0003164Y0014471D01*
X0003344Y0014022D01*
X0003535Y0013577D01*
X0003737Y0013137D01*
X0003950Y0012702D01*
X0004173Y0012272D01*
X0004407Y0011848D01*
X0004651Y0011430D01*
X0004905Y0011018D01*
X0005169Y0010612D01*
X0005443Y0010213D01*
X0005727Y0009821D01*
X0006020Y0009436D01*
X0006323Y0009058D01*
X0006635Y0008687D01*
X0006956Y0008325D01*
X0007285Y0007970D01*
X0007623Y0007623D01*
X0007970Y0007285D01*
X0008325Y0006956D01*
X0008687Y0006635D01*
X0009058Y0006323D01*
X0009436Y0006020D01*
X0009821Y0005727D01*
X0010213Y0005443D01*
X0010612Y0005169D01*
X0011018Y0004905D01*
X0011430Y0004651D01*
X0011848Y0004407D01*
X0012272Y0004173D01*
X0012702Y0003950D01*
X0013137Y0003737D01*
X0013577Y0003535D01*
X0014022Y0003344D01*
X0014471Y0003164D01*
X0014925Y0002995D01*
X0015383Y0002837D01*
X0015844Y0002691D01*
X0016309Y0002555D01*
X0016777Y0002431D01*
X0017248Y0002319D01*
X0017722Y0002218D01*
X0018198Y0002129D01*
X0018676Y0002052D01*
X0019155Y0001986D01*
X0019636Y0001932D01*
X0020119Y0001890D01*
X0020602Y0001859D01*
X0021086Y0001841D01*
X0021570Y0001834D01*
D89*
X0314100Y0300100D02*
X0319100Y0300100D01*
M02*
