M48
;GenerationSoftware,Autodesk,EAGLE,9.6.2*%
;CreationDate,2021-11-18T16:45:31Z*%
FMAT,2
ICI,OFF
METRIC,TZ,000.000
T2C1.016
T1C3.000
%
G90
M71
T1
X2540Y2540
X60960Y2540
X60960Y93980
X2540Y93980
T2
X7620Y16510
X10160Y16510
X12700Y16510
X15240Y16510
X17780Y16510
X20320Y16510
X22860Y16510
X25400Y16510
X27940Y16510
X30480Y16510
X33020Y16510
X35560Y16510
X38100Y16510
X40640Y16510
X43180Y16510
X45720Y16510
X48260Y16510
X50800Y16510
X53340Y16510
X55880Y16510
X7620Y92710
X10160Y92710
X12700Y92710
X15240Y92710
X17780Y92710
X20320Y92710
X22860Y92710
X25400Y92710
X27940Y92710
X30480Y92710
X33020Y92710
X35560Y92710
X38100Y92710
X40640Y92710
X43180Y92710
X45720Y92710
X48260Y92710
X50800Y92710
X53340Y92710
X55880Y92710
X20320Y6350
X20320Y8890
X22860Y6350
X22860Y8890
X25400Y6350
X25400Y8890
X27940Y6350
X27940Y8890
X30480Y6350
X30480Y8890
X33020Y6350
X33020Y8890
X35560Y6350
X35560Y8890
X38100Y6350
X38100Y8890
X40640Y6350
X40640Y8890
X43180Y6350
X43180Y8890
M30