G75*
%MOIN*%
%OFA0B0*%
%FSLAX25Y25*%
%IPPOS*%
%LPD*%
%AMOC8*
5,1,8,0,0,1.08239X$1,22.5*
%
%ADD10C,0.00000*%
%ADD11C,0.02000*%
%ADD12R,0.10600X0.00200*%
%ADD13R,0.11200X0.00200*%
%ADD14R,0.11400X0.00200*%
%ADD15R,0.10800X0.00200*%
%ADD16R,0.08200X0.00200*%
%ADD17R,0.07200X0.00200*%
%ADD18R,0.06200X0.00200*%
%ADD19R,0.05800X0.00200*%
%ADD20R,0.05400X0.00200*%
%ADD21R,0.05000X0.00200*%
%ADD22R,0.04800X0.00200*%
%ADD23R,0.04600X0.00200*%
%ADD24R,0.04400X0.00200*%
%ADD25R,0.04200X0.00200*%
%ADD26R,0.03400X0.00200*%
%ADD27R,0.03000X0.00200*%
%ADD28R,0.03600X0.00200*%
%ADD29R,0.05200X0.00200*%
%ADD30R,0.05600X0.00200*%
%ADD31R,0.13600X0.00200*%
%ADD32R,0.09000X0.00200*%
%ADD33R,0.09200X0.00200*%
%ADD34R,0.01200X0.00200*%
%ADD35R,0.06600X0.00200*%
%ADD36R,0.07000X0.00200*%
%ADD37R,0.11000X0.00200*%
%ADD38R,0.14000X0.00200*%
%ADD39R,0.09400X0.00200*%
%ADD40R,0.09600X0.00200*%
%ADD41R,0.02000X0.00200*%
%ADD42R,0.07800X0.00200*%
%ADD43R,0.14200X0.00200*%
%ADD44R,0.09800X0.00200*%
%ADD45R,0.02400X0.00200*%
%ADD46R,0.08000X0.00200*%
%ADD47R,0.12600X0.00200*%
%ADD48R,0.08800X0.00200*%
%ADD49R,0.10000X0.00200*%
%ADD50R,0.12800X0.00200*%
%ADD51R,0.13200X0.00200*%
%ADD52R,0.13800X0.00200*%
%ADD53R,0.13400X0.00200*%
%ADD54R,0.11800X0.00200*%
%ADD55R,0.12400X0.00200*%
%ADD56R,0.04000X0.00200*%
%ADD57R,0.06400X0.00200*%
%ADD58R,0.08600X0.00200*%
%ADD59R,0.06000X0.00200*%
%ADD60R,0.03200X0.00200*%
%ADD61R,0.14600X0.00200*%
%ADD62R,0.15000X0.00200*%
%ADD63R,0.03800X0.00200*%
%ADD64R,0.06800X0.00200*%
%ADD65R,0.02800X0.00200*%
%ADD66R,0.02600X0.00200*%
%ADD67R,0.02200X0.00200*%
%ADD68R,0.01600X0.00200*%
%ADD69R,0.01000X0.00200*%
%ADD70R,0.00600X0.00200*%
%ADD71R,0.01800X0.00200*%
%ADD72R,0.10200X0.00200*%
%ADD73R,0.10400X0.00200*%
%ADD74R,0.19000X0.00200*%
%ADD75R,0.19200X0.00200*%
%ADD76R,0.07400X0.00200*%
%ADD77R,0.18600X0.00200*%
%ADD78R,0.01400X0.00200*%
%ADD79R,0.08400X0.00200*%
%ADD80R,0.16800X0.00200*%
%ADD81R,0.16600X0.00200*%
%ADD82R,0.12000X0.00200*%
%ADD83R,0.11600X0.00200*%
%ADD84R,0.07600X0.00200*%
%ADD85C,0.02600*%
%ADD86C,0.01000*%
%ADD87C,0.00300*%
%ADD88C,0.01100*%
%ADD89C,0.00800*%
D10*
X0005394Y0011300D02*
X0005396Y0011453D01*
X0005402Y0011607D01*
X0005412Y0011760D01*
X0005426Y0011912D01*
X0005444Y0012065D01*
X0005466Y0012216D01*
X0005491Y0012367D01*
X0005521Y0012518D01*
X0005555Y0012668D01*
X0005592Y0012816D01*
X0005633Y0012964D01*
X0005678Y0013110D01*
X0005727Y0013256D01*
X0005780Y0013400D01*
X0005836Y0013542D01*
X0005896Y0013683D01*
X0005960Y0013823D01*
X0006027Y0013961D01*
X0006098Y0014097D01*
X0006173Y0014231D01*
X0006250Y0014363D01*
X0006332Y0014493D01*
X0006416Y0014621D01*
X0006504Y0014747D01*
X0006595Y0014870D01*
X0006689Y0014991D01*
X0006787Y0015109D01*
X0006887Y0015225D01*
X0006991Y0015338D01*
X0007097Y0015449D01*
X0007206Y0015557D01*
X0007318Y0015662D01*
X0007432Y0015763D01*
X0007550Y0015862D01*
X0007669Y0015958D01*
X0007791Y0016051D01*
X0007916Y0016140D01*
X0008043Y0016227D01*
X0008172Y0016309D01*
X0008303Y0016389D01*
X0008436Y0016465D01*
X0008571Y0016538D01*
X0008708Y0016607D01*
X0008847Y0016672D01*
X0008987Y0016734D01*
X0009129Y0016792D01*
X0009272Y0016847D01*
X0009417Y0016898D01*
X0009563Y0016945D01*
X0009710Y0016988D01*
X0009858Y0017027D01*
X0010007Y0017063D01*
X0010157Y0017094D01*
X0010308Y0017122D01*
X0010459Y0017146D01*
X0010612Y0017166D01*
X0010764Y0017182D01*
X0010917Y0017194D01*
X0011070Y0017202D01*
X0011223Y0017206D01*
X0011377Y0017206D01*
X0011530Y0017202D01*
X0011683Y0017194D01*
X0011836Y0017182D01*
X0011988Y0017166D01*
X0012141Y0017146D01*
X0012292Y0017122D01*
X0012443Y0017094D01*
X0012593Y0017063D01*
X0012742Y0017027D01*
X0012890Y0016988D01*
X0013037Y0016945D01*
X0013183Y0016898D01*
X0013328Y0016847D01*
X0013471Y0016792D01*
X0013613Y0016734D01*
X0013753Y0016672D01*
X0013892Y0016607D01*
X0014029Y0016538D01*
X0014164Y0016465D01*
X0014297Y0016389D01*
X0014428Y0016309D01*
X0014557Y0016227D01*
X0014684Y0016140D01*
X0014809Y0016051D01*
X0014931Y0015958D01*
X0015050Y0015862D01*
X0015168Y0015763D01*
X0015282Y0015662D01*
X0015394Y0015557D01*
X0015503Y0015449D01*
X0015609Y0015338D01*
X0015713Y0015225D01*
X0015813Y0015109D01*
X0015911Y0014991D01*
X0016005Y0014870D01*
X0016096Y0014747D01*
X0016184Y0014621D01*
X0016268Y0014493D01*
X0016350Y0014363D01*
X0016427Y0014231D01*
X0016502Y0014097D01*
X0016573Y0013961D01*
X0016640Y0013823D01*
X0016704Y0013683D01*
X0016764Y0013542D01*
X0016820Y0013400D01*
X0016873Y0013256D01*
X0016922Y0013110D01*
X0016967Y0012964D01*
X0017008Y0012816D01*
X0017045Y0012668D01*
X0017079Y0012518D01*
X0017109Y0012367D01*
X0017134Y0012216D01*
X0017156Y0012065D01*
X0017174Y0011912D01*
X0017188Y0011760D01*
X0017198Y0011607D01*
X0017204Y0011453D01*
X0017206Y0011300D01*
X0017204Y0011147D01*
X0017198Y0010993D01*
X0017188Y0010840D01*
X0017174Y0010688D01*
X0017156Y0010535D01*
X0017134Y0010384D01*
X0017109Y0010233D01*
X0017079Y0010082D01*
X0017045Y0009932D01*
X0017008Y0009784D01*
X0016967Y0009636D01*
X0016922Y0009490D01*
X0016873Y0009344D01*
X0016820Y0009200D01*
X0016764Y0009058D01*
X0016704Y0008917D01*
X0016640Y0008777D01*
X0016573Y0008639D01*
X0016502Y0008503D01*
X0016427Y0008369D01*
X0016350Y0008237D01*
X0016268Y0008107D01*
X0016184Y0007979D01*
X0016096Y0007853D01*
X0016005Y0007730D01*
X0015911Y0007609D01*
X0015813Y0007491D01*
X0015713Y0007375D01*
X0015609Y0007262D01*
X0015503Y0007151D01*
X0015394Y0007043D01*
X0015282Y0006938D01*
X0015168Y0006837D01*
X0015050Y0006738D01*
X0014931Y0006642D01*
X0014809Y0006549D01*
X0014684Y0006460D01*
X0014557Y0006373D01*
X0014428Y0006291D01*
X0014297Y0006211D01*
X0014164Y0006135D01*
X0014029Y0006062D01*
X0013892Y0005993D01*
X0013753Y0005928D01*
X0013613Y0005866D01*
X0013471Y0005808D01*
X0013328Y0005753D01*
X0013183Y0005702D01*
X0013037Y0005655D01*
X0012890Y0005612D01*
X0012742Y0005573D01*
X0012593Y0005537D01*
X0012443Y0005506D01*
X0012292Y0005478D01*
X0012141Y0005454D01*
X0011988Y0005434D01*
X0011836Y0005418D01*
X0011683Y0005406D01*
X0011530Y0005398D01*
X0011377Y0005394D01*
X0011223Y0005394D01*
X0011070Y0005398D01*
X0010917Y0005406D01*
X0010764Y0005418D01*
X0010612Y0005434D01*
X0010459Y0005454D01*
X0010308Y0005478D01*
X0010157Y0005506D01*
X0010007Y0005537D01*
X0009858Y0005573D01*
X0009710Y0005612D01*
X0009563Y0005655D01*
X0009417Y0005702D01*
X0009272Y0005753D01*
X0009129Y0005808D01*
X0008987Y0005866D01*
X0008847Y0005928D01*
X0008708Y0005993D01*
X0008571Y0006062D01*
X0008436Y0006135D01*
X0008303Y0006211D01*
X0008172Y0006291D01*
X0008043Y0006373D01*
X0007916Y0006460D01*
X0007791Y0006549D01*
X0007669Y0006642D01*
X0007550Y0006738D01*
X0007432Y0006837D01*
X0007318Y0006938D01*
X0007206Y0007043D01*
X0007097Y0007151D01*
X0006991Y0007262D01*
X0006887Y0007375D01*
X0006787Y0007491D01*
X0006689Y0007609D01*
X0006595Y0007730D01*
X0006504Y0007853D01*
X0006416Y0007979D01*
X0006332Y0008107D01*
X0006250Y0008237D01*
X0006173Y0008369D01*
X0006098Y0008503D01*
X0006027Y0008639D01*
X0005960Y0008777D01*
X0005896Y0008917D01*
X0005836Y0009058D01*
X0005780Y0009200D01*
X0005727Y0009344D01*
X0005678Y0009490D01*
X0005633Y0009636D01*
X0005592Y0009784D01*
X0005555Y0009932D01*
X0005521Y0010082D01*
X0005491Y0010233D01*
X0005466Y0010384D01*
X0005444Y0010535D01*
X0005426Y0010688D01*
X0005412Y0010840D01*
X0005402Y0010993D01*
X0005396Y0011147D01*
X0005394Y0011300D01*
X0235394Y0011300D02*
X0235396Y0011453D01*
X0235402Y0011607D01*
X0235412Y0011760D01*
X0235426Y0011912D01*
X0235444Y0012065D01*
X0235466Y0012216D01*
X0235491Y0012367D01*
X0235521Y0012518D01*
X0235555Y0012668D01*
X0235592Y0012816D01*
X0235633Y0012964D01*
X0235678Y0013110D01*
X0235727Y0013256D01*
X0235780Y0013400D01*
X0235836Y0013542D01*
X0235896Y0013683D01*
X0235960Y0013823D01*
X0236027Y0013961D01*
X0236098Y0014097D01*
X0236173Y0014231D01*
X0236250Y0014363D01*
X0236332Y0014493D01*
X0236416Y0014621D01*
X0236504Y0014747D01*
X0236595Y0014870D01*
X0236689Y0014991D01*
X0236787Y0015109D01*
X0236887Y0015225D01*
X0236991Y0015338D01*
X0237097Y0015449D01*
X0237206Y0015557D01*
X0237318Y0015662D01*
X0237432Y0015763D01*
X0237550Y0015862D01*
X0237669Y0015958D01*
X0237791Y0016051D01*
X0237916Y0016140D01*
X0238043Y0016227D01*
X0238172Y0016309D01*
X0238303Y0016389D01*
X0238436Y0016465D01*
X0238571Y0016538D01*
X0238708Y0016607D01*
X0238847Y0016672D01*
X0238987Y0016734D01*
X0239129Y0016792D01*
X0239272Y0016847D01*
X0239417Y0016898D01*
X0239563Y0016945D01*
X0239710Y0016988D01*
X0239858Y0017027D01*
X0240007Y0017063D01*
X0240157Y0017094D01*
X0240308Y0017122D01*
X0240459Y0017146D01*
X0240612Y0017166D01*
X0240764Y0017182D01*
X0240917Y0017194D01*
X0241070Y0017202D01*
X0241223Y0017206D01*
X0241377Y0017206D01*
X0241530Y0017202D01*
X0241683Y0017194D01*
X0241836Y0017182D01*
X0241988Y0017166D01*
X0242141Y0017146D01*
X0242292Y0017122D01*
X0242443Y0017094D01*
X0242593Y0017063D01*
X0242742Y0017027D01*
X0242890Y0016988D01*
X0243037Y0016945D01*
X0243183Y0016898D01*
X0243328Y0016847D01*
X0243471Y0016792D01*
X0243613Y0016734D01*
X0243753Y0016672D01*
X0243892Y0016607D01*
X0244029Y0016538D01*
X0244164Y0016465D01*
X0244297Y0016389D01*
X0244428Y0016309D01*
X0244557Y0016227D01*
X0244684Y0016140D01*
X0244809Y0016051D01*
X0244931Y0015958D01*
X0245050Y0015862D01*
X0245168Y0015763D01*
X0245282Y0015662D01*
X0245394Y0015557D01*
X0245503Y0015449D01*
X0245609Y0015338D01*
X0245713Y0015225D01*
X0245813Y0015109D01*
X0245911Y0014991D01*
X0246005Y0014870D01*
X0246096Y0014747D01*
X0246184Y0014621D01*
X0246268Y0014493D01*
X0246350Y0014363D01*
X0246427Y0014231D01*
X0246502Y0014097D01*
X0246573Y0013961D01*
X0246640Y0013823D01*
X0246704Y0013683D01*
X0246764Y0013542D01*
X0246820Y0013400D01*
X0246873Y0013256D01*
X0246922Y0013110D01*
X0246967Y0012964D01*
X0247008Y0012816D01*
X0247045Y0012668D01*
X0247079Y0012518D01*
X0247109Y0012367D01*
X0247134Y0012216D01*
X0247156Y0012065D01*
X0247174Y0011912D01*
X0247188Y0011760D01*
X0247198Y0011607D01*
X0247204Y0011453D01*
X0247206Y0011300D01*
X0247204Y0011147D01*
X0247198Y0010993D01*
X0247188Y0010840D01*
X0247174Y0010688D01*
X0247156Y0010535D01*
X0247134Y0010384D01*
X0247109Y0010233D01*
X0247079Y0010082D01*
X0247045Y0009932D01*
X0247008Y0009784D01*
X0246967Y0009636D01*
X0246922Y0009490D01*
X0246873Y0009344D01*
X0246820Y0009200D01*
X0246764Y0009058D01*
X0246704Y0008917D01*
X0246640Y0008777D01*
X0246573Y0008639D01*
X0246502Y0008503D01*
X0246427Y0008369D01*
X0246350Y0008237D01*
X0246268Y0008107D01*
X0246184Y0007979D01*
X0246096Y0007853D01*
X0246005Y0007730D01*
X0245911Y0007609D01*
X0245813Y0007491D01*
X0245713Y0007375D01*
X0245609Y0007262D01*
X0245503Y0007151D01*
X0245394Y0007043D01*
X0245282Y0006938D01*
X0245168Y0006837D01*
X0245050Y0006738D01*
X0244931Y0006642D01*
X0244809Y0006549D01*
X0244684Y0006460D01*
X0244557Y0006373D01*
X0244428Y0006291D01*
X0244297Y0006211D01*
X0244164Y0006135D01*
X0244029Y0006062D01*
X0243892Y0005993D01*
X0243753Y0005928D01*
X0243613Y0005866D01*
X0243471Y0005808D01*
X0243328Y0005753D01*
X0243183Y0005702D01*
X0243037Y0005655D01*
X0242890Y0005612D01*
X0242742Y0005573D01*
X0242593Y0005537D01*
X0242443Y0005506D01*
X0242292Y0005478D01*
X0242141Y0005454D01*
X0241988Y0005434D01*
X0241836Y0005418D01*
X0241683Y0005406D01*
X0241530Y0005398D01*
X0241377Y0005394D01*
X0241223Y0005394D01*
X0241070Y0005398D01*
X0240917Y0005406D01*
X0240764Y0005418D01*
X0240612Y0005434D01*
X0240459Y0005454D01*
X0240308Y0005478D01*
X0240157Y0005506D01*
X0240007Y0005537D01*
X0239858Y0005573D01*
X0239710Y0005612D01*
X0239563Y0005655D01*
X0239417Y0005702D01*
X0239272Y0005753D01*
X0239129Y0005808D01*
X0238987Y0005866D01*
X0238847Y0005928D01*
X0238708Y0005993D01*
X0238571Y0006062D01*
X0238436Y0006135D01*
X0238303Y0006211D01*
X0238172Y0006291D01*
X0238043Y0006373D01*
X0237916Y0006460D01*
X0237791Y0006549D01*
X0237669Y0006642D01*
X0237550Y0006738D01*
X0237432Y0006837D01*
X0237318Y0006938D01*
X0237206Y0007043D01*
X0237097Y0007151D01*
X0236991Y0007262D01*
X0236887Y0007375D01*
X0236787Y0007491D01*
X0236689Y0007609D01*
X0236595Y0007730D01*
X0236504Y0007853D01*
X0236416Y0007979D01*
X0236332Y0008107D01*
X0236250Y0008237D01*
X0236173Y0008369D01*
X0236098Y0008503D01*
X0236027Y0008639D01*
X0235960Y0008777D01*
X0235896Y0008917D01*
X0235836Y0009058D01*
X0235780Y0009200D01*
X0235727Y0009344D01*
X0235678Y0009490D01*
X0235633Y0009636D01*
X0235592Y0009784D01*
X0235555Y0009932D01*
X0235521Y0010082D01*
X0235491Y0010233D01*
X0235466Y0010384D01*
X0235444Y0010535D01*
X0235426Y0010688D01*
X0235412Y0010840D01*
X0235402Y0010993D01*
X0235396Y0011147D01*
X0235394Y0011300D01*
X0235394Y0371300D02*
X0235396Y0371453D01*
X0235402Y0371607D01*
X0235412Y0371760D01*
X0235426Y0371912D01*
X0235444Y0372065D01*
X0235466Y0372216D01*
X0235491Y0372367D01*
X0235521Y0372518D01*
X0235555Y0372668D01*
X0235592Y0372816D01*
X0235633Y0372964D01*
X0235678Y0373110D01*
X0235727Y0373256D01*
X0235780Y0373400D01*
X0235836Y0373542D01*
X0235896Y0373683D01*
X0235960Y0373823D01*
X0236027Y0373961D01*
X0236098Y0374097D01*
X0236173Y0374231D01*
X0236250Y0374363D01*
X0236332Y0374493D01*
X0236416Y0374621D01*
X0236504Y0374747D01*
X0236595Y0374870D01*
X0236689Y0374991D01*
X0236787Y0375109D01*
X0236887Y0375225D01*
X0236991Y0375338D01*
X0237097Y0375449D01*
X0237206Y0375557D01*
X0237318Y0375662D01*
X0237432Y0375763D01*
X0237550Y0375862D01*
X0237669Y0375958D01*
X0237791Y0376051D01*
X0237916Y0376140D01*
X0238043Y0376227D01*
X0238172Y0376309D01*
X0238303Y0376389D01*
X0238436Y0376465D01*
X0238571Y0376538D01*
X0238708Y0376607D01*
X0238847Y0376672D01*
X0238987Y0376734D01*
X0239129Y0376792D01*
X0239272Y0376847D01*
X0239417Y0376898D01*
X0239563Y0376945D01*
X0239710Y0376988D01*
X0239858Y0377027D01*
X0240007Y0377063D01*
X0240157Y0377094D01*
X0240308Y0377122D01*
X0240459Y0377146D01*
X0240612Y0377166D01*
X0240764Y0377182D01*
X0240917Y0377194D01*
X0241070Y0377202D01*
X0241223Y0377206D01*
X0241377Y0377206D01*
X0241530Y0377202D01*
X0241683Y0377194D01*
X0241836Y0377182D01*
X0241988Y0377166D01*
X0242141Y0377146D01*
X0242292Y0377122D01*
X0242443Y0377094D01*
X0242593Y0377063D01*
X0242742Y0377027D01*
X0242890Y0376988D01*
X0243037Y0376945D01*
X0243183Y0376898D01*
X0243328Y0376847D01*
X0243471Y0376792D01*
X0243613Y0376734D01*
X0243753Y0376672D01*
X0243892Y0376607D01*
X0244029Y0376538D01*
X0244164Y0376465D01*
X0244297Y0376389D01*
X0244428Y0376309D01*
X0244557Y0376227D01*
X0244684Y0376140D01*
X0244809Y0376051D01*
X0244931Y0375958D01*
X0245050Y0375862D01*
X0245168Y0375763D01*
X0245282Y0375662D01*
X0245394Y0375557D01*
X0245503Y0375449D01*
X0245609Y0375338D01*
X0245713Y0375225D01*
X0245813Y0375109D01*
X0245911Y0374991D01*
X0246005Y0374870D01*
X0246096Y0374747D01*
X0246184Y0374621D01*
X0246268Y0374493D01*
X0246350Y0374363D01*
X0246427Y0374231D01*
X0246502Y0374097D01*
X0246573Y0373961D01*
X0246640Y0373823D01*
X0246704Y0373683D01*
X0246764Y0373542D01*
X0246820Y0373400D01*
X0246873Y0373256D01*
X0246922Y0373110D01*
X0246967Y0372964D01*
X0247008Y0372816D01*
X0247045Y0372668D01*
X0247079Y0372518D01*
X0247109Y0372367D01*
X0247134Y0372216D01*
X0247156Y0372065D01*
X0247174Y0371912D01*
X0247188Y0371760D01*
X0247198Y0371607D01*
X0247204Y0371453D01*
X0247206Y0371300D01*
X0247204Y0371147D01*
X0247198Y0370993D01*
X0247188Y0370840D01*
X0247174Y0370688D01*
X0247156Y0370535D01*
X0247134Y0370384D01*
X0247109Y0370233D01*
X0247079Y0370082D01*
X0247045Y0369932D01*
X0247008Y0369784D01*
X0246967Y0369636D01*
X0246922Y0369490D01*
X0246873Y0369344D01*
X0246820Y0369200D01*
X0246764Y0369058D01*
X0246704Y0368917D01*
X0246640Y0368777D01*
X0246573Y0368639D01*
X0246502Y0368503D01*
X0246427Y0368369D01*
X0246350Y0368237D01*
X0246268Y0368107D01*
X0246184Y0367979D01*
X0246096Y0367853D01*
X0246005Y0367730D01*
X0245911Y0367609D01*
X0245813Y0367491D01*
X0245713Y0367375D01*
X0245609Y0367262D01*
X0245503Y0367151D01*
X0245394Y0367043D01*
X0245282Y0366938D01*
X0245168Y0366837D01*
X0245050Y0366738D01*
X0244931Y0366642D01*
X0244809Y0366549D01*
X0244684Y0366460D01*
X0244557Y0366373D01*
X0244428Y0366291D01*
X0244297Y0366211D01*
X0244164Y0366135D01*
X0244029Y0366062D01*
X0243892Y0365993D01*
X0243753Y0365928D01*
X0243613Y0365866D01*
X0243471Y0365808D01*
X0243328Y0365753D01*
X0243183Y0365702D01*
X0243037Y0365655D01*
X0242890Y0365612D01*
X0242742Y0365573D01*
X0242593Y0365537D01*
X0242443Y0365506D01*
X0242292Y0365478D01*
X0242141Y0365454D01*
X0241988Y0365434D01*
X0241836Y0365418D01*
X0241683Y0365406D01*
X0241530Y0365398D01*
X0241377Y0365394D01*
X0241223Y0365394D01*
X0241070Y0365398D01*
X0240917Y0365406D01*
X0240764Y0365418D01*
X0240612Y0365434D01*
X0240459Y0365454D01*
X0240308Y0365478D01*
X0240157Y0365506D01*
X0240007Y0365537D01*
X0239858Y0365573D01*
X0239710Y0365612D01*
X0239563Y0365655D01*
X0239417Y0365702D01*
X0239272Y0365753D01*
X0239129Y0365808D01*
X0238987Y0365866D01*
X0238847Y0365928D01*
X0238708Y0365993D01*
X0238571Y0366062D01*
X0238436Y0366135D01*
X0238303Y0366211D01*
X0238172Y0366291D01*
X0238043Y0366373D01*
X0237916Y0366460D01*
X0237791Y0366549D01*
X0237669Y0366642D01*
X0237550Y0366738D01*
X0237432Y0366837D01*
X0237318Y0366938D01*
X0237206Y0367043D01*
X0237097Y0367151D01*
X0236991Y0367262D01*
X0236887Y0367375D01*
X0236787Y0367491D01*
X0236689Y0367609D01*
X0236595Y0367730D01*
X0236504Y0367853D01*
X0236416Y0367979D01*
X0236332Y0368107D01*
X0236250Y0368237D01*
X0236173Y0368369D01*
X0236098Y0368503D01*
X0236027Y0368639D01*
X0235960Y0368777D01*
X0235896Y0368917D01*
X0235836Y0369058D01*
X0235780Y0369200D01*
X0235727Y0369344D01*
X0235678Y0369490D01*
X0235633Y0369636D01*
X0235592Y0369784D01*
X0235555Y0369932D01*
X0235521Y0370082D01*
X0235491Y0370233D01*
X0235466Y0370384D01*
X0235444Y0370535D01*
X0235426Y0370688D01*
X0235412Y0370840D01*
X0235402Y0370993D01*
X0235396Y0371147D01*
X0235394Y0371300D01*
X0005394Y0371300D02*
X0005396Y0371453D01*
X0005402Y0371607D01*
X0005412Y0371760D01*
X0005426Y0371912D01*
X0005444Y0372065D01*
X0005466Y0372216D01*
X0005491Y0372367D01*
X0005521Y0372518D01*
X0005555Y0372668D01*
X0005592Y0372816D01*
X0005633Y0372964D01*
X0005678Y0373110D01*
X0005727Y0373256D01*
X0005780Y0373400D01*
X0005836Y0373542D01*
X0005896Y0373683D01*
X0005960Y0373823D01*
X0006027Y0373961D01*
X0006098Y0374097D01*
X0006173Y0374231D01*
X0006250Y0374363D01*
X0006332Y0374493D01*
X0006416Y0374621D01*
X0006504Y0374747D01*
X0006595Y0374870D01*
X0006689Y0374991D01*
X0006787Y0375109D01*
X0006887Y0375225D01*
X0006991Y0375338D01*
X0007097Y0375449D01*
X0007206Y0375557D01*
X0007318Y0375662D01*
X0007432Y0375763D01*
X0007550Y0375862D01*
X0007669Y0375958D01*
X0007791Y0376051D01*
X0007916Y0376140D01*
X0008043Y0376227D01*
X0008172Y0376309D01*
X0008303Y0376389D01*
X0008436Y0376465D01*
X0008571Y0376538D01*
X0008708Y0376607D01*
X0008847Y0376672D01*
X0008987Y0376734D01*
X0009129Y0376792D01*
X0009272Y0376847D01*
X0009417Y0376898D01*
X0009563Y0376945D01*
X0009710Y0376988D01*
X0009858Y0377027D01*
X0010007Y0377063D01*
X0010157Y0377094D01*
X0010308Y0377122D01*
X0010459Y0377146D01*
X0010612Y0377166D01*
X0010764Y0377182D01*
X0010917Y0377194D01*
X0011070Y0377202D01*
X0011223Y0377206D01*
X0011377Y0377206D01*
X0011530Y0377202D01*
X0011683Y0377194D01*
X0011836Y0377182D01*
X0011988Y0377166D01*
X0012141Y0377146D01*
X0012292Y0377122D01*
X0012443Y0377094D01*
X0012593Y0377063D01*
X0012742Y0377027D01*
X0012890Y0376988D01*
X0013037Y0376945D01*
X0013183Y0376898D01*
X0013328Y0376847D01*
X0013471Y0376792D01*
X0013613Y0376734D01*
X0013753Y0376672D01*
X0013892Y0376607D01*
X0014029Y0376538D01*
X0014164Y0376465D01*
X0014297Y0376389D01*
X0014428Y0376309D01*
X0014557Y0376227D01*
X0014684Y0376140D01*
X0014809Y0376051D01*
X0014931Y0375958D01*
X0015050Y0375862D01*
X0015168Y0375763D01*
X0015282Y0375662D01*
X0015394Y0375557D01*
X0015503Y0375449D01*
X0015609Y0375338D01*
X0015713Y0375225D01*
X0015813Y0375109D01*
X0015911Y0374991D01*
X0016005Y0374870D01*
X0016096Y0374747D01*
X0016184Y0374621D01*
X0016268Y0374493D01*
X0016350Y0374363D01*
X0016427Y0374231D01*
X0016502Y0374097D01*
X0016573Y0373961D01*
X0016640Y0373823D01*
X0016704Y0373683D01*
X0016764Y0373542D01*
X0016820Y0373400D01*
X0016873Y0373256D01*
X0016922Y0373110D01*
X0016967Y0372964D01*
X0017008Y0372816D01*
X0017045Y0372668D01*
X0017079Y0372518D01*
X0017109Y0372367D01*
X0017134Y0372216D01*
X0017156Y0372065D01*
X0017174Y0371912D01*
X0017188Y0371760D01*
X0017198Y0371607D01*
X0017204Y0371453D01*
X0017206Y0371300D01*
X0017204Y0371147D01*
X0017198Y0370993D01*
X0017188Y0370840D01*
X0017174Y0370688D01*
X0017156Y0370535D01*
X0017134Y0370384D01*
X0017109Y0370233D01*
X0017079Y0370082D01*
X0017045Y0369932D01*
X0017008Y0369784D01*
X0016967Y0369636D01*
X0016922Y0369490D01*
X0016873Y0369344D01*
X0016820Y0369200D01*
X0016764Y0369058D01*
X0016704Y0368917D01*
X0016640Y0368777D01*
X0016573Y0368639D01*
X0016502Y0368503D01*
X0016427Y0368369D01*
X0016350Y0368237D01*
X0016268Y0368107D01*
X0016184Y0367979D01*
X0016096Y0367853D01*
X0016005Y0367730D01*
X0015911Y0367609D01*
X0015813Y0367491D01*
X0015713Y0367375D01*
X0015609Y0367262D01*
X0015503Y0367151D01*
X0015394Y0367043D01*
X0015282Y0366938D01*
X0015168Y0366837D01*
X0015050Y0366738D01*
X0014931Y0366642D01*
X0014809Y0366549D01*
X0014684Y0366460D01*
X0014557Y0366373D01*
X0014428Y0366291D01*
X0014297Y0366211D01*
X0014164Y0366135D01*
X0014029Y0366062D01*
X0013892Y0365993D01*
X0013753Y0365928D01*
X0013613Y0365866D01*
X0013471Y0365808D01*
X0013328Y0365753D01*
X0013183Y0365702D01*
X0013037Y0365655D01*
X0012890Y0365612D01*
X0012742Y0365573D01*
X0012593Y0365537D01*
X0012443Y0365506D01*
X0012292Y0365478D01*
X0012141Y0365454D01*
X0011988Y0365434D01*
X0011836Y0365418D01*
X0011683Y0365406D01*
X0011530Y0365398D01*
X0011377Y0365394D01*
X0011223Y0365394D01*
X0011070Y0365398D01*
X0010917Y0365406D01*
X0010764Y0365418D01*
X0010612Y0365434D01*
X0010459Y0365454D01*
X0010308Y0365478D01*
X0010157Y0365506D01*
X0010007Y0365537D01*
X0009858Y0365573D01*
X0009710Y0365612D01*
X0009563Y0365655D01*
X0009417Y0365702D01*
X0009272Y0365753D01*
X0009129Y0365808D01*
X0008987Y0365866D01*
X0008847Y0365928D01*
X0008708Y0365993D01*
X0008571Y0366062D01*
X0008436Y0366135D01*
X0008303Y0366211D01*
X0008172Y0366291D01*
X0008043Y0366373D01*
X0007916Y0366460D01*
X0007791Y0366549D01*
X0007669Y0366642D01*
X0007550Y0366738D01*
X0007432Y0366837D01*
X0007318Y0366938D01*
X0007206Y0367043D01*
X0007097Y0367151D01*
X0006991Y0367262D01*
X0006887Y0367375D01*
X0006787Y0367491D01*
X0006689Y0367609D01*
X0006595Y0367730D01*
X0006504Y0367853D01*
X0006416Y0367979D01*
X0006332Y0368107D01*
X0006250Y0368237D01*
X0006173Y0368369D01*
X0006098Y0368503D01*
X0006027Y0368639D01*
X0005960Y0368777D01*
X0005896Y0368917D01*
X0005836Y0369058D01*
X0005780Y0369200D01*
X0005727Y0369344D01*
X0005678Y0369490D01*
X0005633Y0369636D01*
X0005592Y0369784D01*
X0005555Y0369932D01*
X0005521Y0370082D01*
X0005491Y0370233D01*
X0005466Y0370384D01*
X0005444Y0370535D01*
X0005426Y0370688D01*
X0005412Y0370840D01*
X0005402Y0370993D01*
X0005396Y0371147D01*
X0005394Y0371300D01*
D11*
X0029219Y0093244D02*
X0029051Y0093186D01*
X0028881Y0093131D01*
X0028710Y0093081D01*
X0028538Y0093035D01*
X0028365Y0092993D01*
X0028190Y0092955D01*
X0028015Y0092921D01*
X0027840Y0092891D01*
X0027663Y0092865D01*
X0027486Y0092844D01*
X0027309Y0092826D01*
X0027131Y0092813D01*
X0026953Y0092804D01*
X0026775Y0092800D01*
X0026774Y0092800D02*
X0026708Y0092801D01*
X0026641Y0092806D01*
X0026575Y0092815D01*
X0026510Y0092827D01*
X0026445Y0092843D01*
X0026382Y0092863D01*
X0026320Y0092887D01*
X0026259Y0092914D01*
X0026200Y0092944D01*
X0026142Y0092978D01*
X0026087Y0093016D01*
X0026034Y0093056D01*
X0025983Y0093099D01*
X0025935Y0093145D01*
X0025890Y0093194D01*
X0025848Y0093246D01*
X0025809Y0093299D01*
X0025772Y0093355D01*
X0025740Y0093413D01*
X0025710Y0093473D01*
X0025684Y0093534D01*
X0025662Y0093597D01*
X0025643Y0093661D01*
X0025628Y0093726D01*
X0025617Y0093792D01*
X0025610Y0093858D01*
X0025606Y0093924D01*
X0025607Y0093991D01*
X0025611Y0094057D01*
X0025619Y0094124D01*
X0025631Y0094189D01*
X0025646Y0094254D01*
X0025666Y0094318D01*
X0025689Y0094380D01*
X0025715Y0094441D01*
X0025745Y0094501D01*
X0025778Y0094558D01*
X0025815Y0094614D01*
X0025855Y0094667D01*
X0025898Y0094718D01*
X0025944Y0094767D01*
X0025992Y0094812D01*
X0026043Y0094855D01*
X0026096Y0094895D01*
X0026152Y0094932D01*
X0026210Y0094965D01*
X0026269Y0094995D01*
X0026330Y0095022D01*
X0028552Y0095911D01*
X0028613Y0095938D01*
X0028672Y0095968D01*
X0028730Y0096001D01*
X0028786Y0096038D01*
X0028839Y0096078D01*
X0028890Y0096121D01*
X0028938Y0096166D01*
X0028984Y0096215D01*
X0029027Y0096266D01*
X0029067Y0096319D01*
X0029104Y0096375D01*
X0029137Y0096432D01*
X0029167Y0096492D01*
X0029193Y0096553D01*
X0029216Y0096615D01*
X0029236Y0096679D01*
X0029251Y0096744D01*
X0029263Y0096809D01*
X0029271Y0096876D01*
X0029275Y0096942D01*
X0029276Y0097009D01*
X0029272Y0097075D01*
X0029265Y0097141D01*
X0029254Y0097207D01*
X0029239Y0097272D01*
X0029220Y0097336D01*
X0029198Y0097399D01*
X0029172Y0097460D01*
X0029142Y0097520D01*
X0029110Y0097578D01*
X0029073Y0097634D01*
X0029034Y0097687D01*
X0028992Y0097739D01*
X0028947Y0097788D01*
X0028899Y0097834D01*
X0028848Y0097877D01*
X0028795Y0097917D01*
X0028740Y0097955D01*
X0028682Y0097989D01*
X0028623Y0098019D01*
X0028562Y0098046D01*
X0028500Y0098070D01*
X0028437Y0098090D01*
X0028372Y0098106D01*
X0028307Y0098118D01*
X0028241Y0098127D01*
X0028174Y0098132D01*
X0028108Y0098133D01*
X0032787Y0096356D02*
X0032787Y0095467D01*
X0036343Y0095467D01*
X0036343Y0096356D02*
X0036343Y0094133D01*
X0036341Y0094061D01*
X0036335Y0093989D01*
X0036325Y0093917D01*
X0036312Y0093846D01*
X0036294Y0093776D01*
X0036273Y0093707D01*
X0036248Y0093640D01*
X0036220Y0093573D01*
X0036188Y0093509D01*
X0036152Y0093446D01*
X0036113Y0093385D01*
X0036071Y0093326D01*
X0036026Y0093270D01*
X0035978Y0093216D01*
X0035927Y0093165D01*
X0035873Y0093117D01*
X0035817Y0093072D01*
X0035758Y0093030D01*
X0035697Y0092991D01*
X0035634Y0092955D01*
X0035570Y0092923D01*
X0035503Y0092895D01*
X0035436Y0092870D01*
X0035367Y0092849D01*
X0035297Y0092831D01*
X0035226Y0092818D01*
X0035154Y0092808D01*
X0035082Y0092802D01*
X0035010Y0092800D01*
X0032787Y0092800D01*
X0032787Y0096356D02*
X0032789Y0096439D01*
X0032795Y0096522D01*
X0032805Y0096605D01*
X0032818Y0096688D01*
X0032836Y0096769D01*
X0032857Y0096850D01*
X0032882Y0096929D01*
X0032911Y0097007D01*
X0032943Y0097084D01*
X0032979Y0097159D01*
X0033018Y0097233D01*
X0033061Y0097304D01*
X0033107Y0097374D01*
X0033157Y0097441D01*
X0033209Y0097506D01*
X0033264Y0097568D01*
X0033323Y0097628D01*
X0033384Y0097685D01*
X0033447Y0097739D01*
X0033513Y0097790D01*
X0033582Y0097837D01*
X0033652Y0097882D01*
X0033725Y0097923D01*
X0033799Y0097960D01*
X0033875Y0097995D01*
X0033953Y0098025D01*
X0034031Y0098052D01*
X0034112Y0098075D01*
X0034193Y0098095D01*
X0034275Y0098110D01*
X0034357Y0098122D01*
X0034440Y0098130D01*
X0034523Y0098134D01*
X0034607Y0098134D01*
X0034690Y0098130D01*
X0034773Y0098122D01*
X0034855Y0098110D01*
X0034937Y0098095D01*
X0035018Y0098075D01*
X0035099Y0098052D01*
X0035177Y0098025D01*
X0035255Y0097995D01*
X0035331Y0097960D01*
X0035405Y0097923D01*
X0035478Y0097882D01*
X0035548Y0097837D01*
X0035617Y0097790D01*
X0035683Y0097739D01*
X0035746Y0097685D01*
X0035807Y0097628D01*
X0035866Y0097568D01*
X0035921Y0097506D01*
X0035973Y0097441D01*
X0036023Y0097374D01*
X0036069Y0097304D01*
X0036112Y0097233D01*
X0036151Y0097159D01*
X0036187Y0097084D01*
X0036219Y0097007D01*
X0036248Y0096929D01*
X0036273Y0096850D01*
X0036294Y0096769D01*
X0036312Y0096688D01*
X0036325Y0096605D01*
X0036335Y0096522D01*
X0036341Y0096439D01*
X0036343Y0096356D01*
X0039086Y0097244D02*
X0039086Y0098133D01*
X0041752Y0098133D01*
X0041752Y0092800D01*
X0045665Y0094578D02*
X0045665Y0096356D01*
X0045667Y0096439D01*
X0045673Y0096522D01*
X0045683Y0096605D01*
X0045696Y0096688D01*
X0045714Y0096769D01*
X0045735Y0096850D01*
X0045760Y0096929D01*
X0045789Y0097007D01*
X0045821Y0097084D01*
X0045857Y0097159D01*
X0045896Y0097233D01*
X0045939Y0097304D01*
X0045985Y0097374D01*
X0046035Y0097441D01*
X0046087Y0097506D01*
X0046142Y0097568D01*
X0046201Y0097628D01*
X0046262Y0097685D01*
X0046325Y0097739D01*
X0046391Y0097790D01*
X0046460Y0097837D01*
X0046530Y0097882D01*
X0046603Y0097923D01*
X0046677Y0097960D01*
X0046753Y0097995D01*
X0046831Y0098025D01*
X0046909Y0098052D01*
X0046990Y0098075D01*
X0047071Y0098095D01*
X0047153Y0098110D01*
X0047235Y0098122D01*
X0047318Y0098130D01*
X0047401Y0098134D01*
X0047485Y0098134D01*
X0047568Y0098130D01*
X0047651Y0098122D01*
X0047733Y0098110D01*
X0047815Y0098095D01*
X0047896Y0098075D01*
X0047977Y0098052D01*
X0048055Y0098025D01*
X0048133Y0097995D01*
X0048209Y0097960D01*
X0048283Y0097923D01*
X0048356Y0097882D01*
X0048426Y0097837D01*
X0048495Y0097790D01*
X0048561Y0097739D01*
X0048624Y0097685D01*
X0048685Y0097628D01*
X0048744Y0097568D01*
X0048799Y0097506D01*
X0048851Y0097441D01*
X0048901Y0097374D01*
X0048947Y0097304D01*
X0048990Y0097233D01*
X0049029Y0097159D01*
X0049065Y0097084D01*
X0049097Y0097007D01*
X0049126Y0096929D01*
X0049151Y0096850D01*
X0049172Y0096769D01*
X0049190Y0096688D01*
X0049203Y0096605D01*
X0049213Y0096522D01*
X0049219Y0096439D01*
X0049221Y0096356D01*
X0049221Y0094578D01*
X0049219Y0094495D01*
X0049213Y0094412D01*
X0049203Y0094329D01*
X0049190Y0094246D01*
X0049172Y0094165D01*
X0049151Y0094084D01*
X0049126Y0094005D01*
X0049097Y0093927D01*
X0049065Y0093850D01*
X0049029Y0093775D01*
X0048990Y0093701D01*
X0048947Y0093630D01*
X0048901Y0093560D01*
X0048851Y0093493D01*
X0048799Y0093428D01*
X0048744Y0093366D01*
X0048685Y0093306D01*
X0048624Y0093249D01*
X0048561Y0093195D01*
X0048495Y0093144D01*
X0048426Y0093097D01*
X0048356Y0093052D01*
X0048283Y0093011D01*
X0048209Y0092974D01*
X0048133Y0092939D01*
X0048055Y0092909D01*
X0047977Y0092882D01*
X0047896Y0092859D01*
X0047815Y0092839D01*
X0047733Y0092824D01*
X0047651Y0092812D01*
X0047568Y0092804D01*
X0047485Y0092800D01*
X0047401Y0092800D01*
X0047318Y0092804D01*
X0047235Y0092812D01*
X0047153Y0092824D01*
X0047071Y0092839D01*
X0046990Y0092859D01*
X0046909Y0092882D01*
X0046831Y0092909D01*
X0046753Y0092939D01*
X0046677Y0092974D01*
X0046603Y0093011D01*
X0046530Y0093052D01*
X0046460Y0093097D01*
X0046391Y0093144D01*
X0046325Y0093195D01*
X0046262Y0093249D01*
X0046201Y0093306D01*
X0046142Y0093366D01*
X0046087Y0093428D01*
X0046035Y0093493D01*
X0045985Y0093560D01*
X0045939Y0093630D01*
X0045896Y0093701D01*
X0045857Y0093775D01*
X0045821Y0093850D01*
X0045789Y0093927D01*
X0045760Y0094005D01*
X0045735Y0094084D01*
X0045714Y0094165D01*
X0045696Y0094246D01*
X0045683Y0094329D01*
X0045673Y0094412D01*
X0045667Y0094495D01*
X0045665Y0094578D01*
X0041906Y0086689D02*
X0045461Y0076911D01*
X0048859Y0081356D02*
X0048859Y0083578D01*
X0048859Y0081356D02*
X0051526Y0081356D01*
X0048859Y0081356D02*
X0048861Y0081240D01*
X0048867Y0081123D01*
X0048876Y0081007D01*
X0048889Y0080892D01*
X0048906Y0080777D01*
X0048927Y0080662D01*
X0048952Y0080549D01*
X0048980Y0080436D01*
X0049012Y0080324D01*
X0049048Y0080213D01*
X0049087Y0080103D01*
X0049130Y0079995D01*
X0049176Y0079888D01*
X0049226Y0079783D01*
X0049279Y0079680D01*
X0049335Y0079578D01*
X0049395Y0079478D01*
X0049458Y0079380D01*
X0049525Y0079285D01*
X0049594Y0079191D01*
X0049666Y0079100D01*
X0049741Y0079011D01*
X0049820Y0078925D01*
X0049901Y0078842D01*
X0049984Y0078761D01*
X0050070Y0078682D01*
X0050159Y0078607D01*
X0050250Y0078535D01*
X0050344Y0078466D01*
X0050439Y0078399D01*
X0050537Y0078336D01*
X0050637Y0078276D01*
X0050739Y0078220D01*
X0050842Y0078167D01*
X0050947Y0078117D01*
X0051054Y0078071D01*
X0051162Y0078028D01*
X0051272Y0077989D01*
X0051383Y0077953D01*
X0051495Y0077921D01*
X0051608Y0077893D01*
X0051721Y0077868D01*
X0051836Y0077847D01*
X0051951Y0077830D01*
X0052066Y0077817D01*
X0052182Y0077808D01*
X0052299Y0077802D01*
X0052415Y0077800D01*
X0060857Y0078911D02*
X0060925Y0079053D01*
X0060988Y0079197D01*
X0061049Y0079342D01*
X0061106Y0079489D01*
X0061159Y0079637D01*
X0061209Y0079787D01*
X0061255Y0079937D01*
X0061298Y0080088D01*
X0061337Y0080241D01*
X0061372Y0080394D01*
X0061404Y0080548D01*
X0061432Y0080703D01*
X0061456Y0080859D01*
X0061477Y0081015D01*
X0061494Y0081171D01*
X0061507Y0081328D01*
X0061516Y0081485D01*
X0061522Y0081643D01*
X0061524Y0081800D01*
X0057079Y0081800D02*
X0057081Y0081957D01*
X0057087Y0082115D01*
X0057096Y0082272D01*
X0057109Y0082429D01*
X0057126Y0082585D01*
X0057147Y0082741D01*
X0057171Y0082897D01*
X0057199Y0083052D01*
X0057231Y0083206D01*
X0057266Y0083359D01*
X0057305Y0083512D01*
X0057348Y0083663D01*
X0057394Y0083814D01*
X0057444Y0083963D01*
X0057497Y0084111D01*
X0057554Y0084258D01*
X0057615Y0084403D01*
X0057678Y0084547D01*
X0057746Y0084689D01*
X0057524Y0084022D02*
X0061079Y0079578D01*
X0059302Y0077800D02*
X0059224Y0077802D01*
X0059145Y0077807D01*
X0059067Y0077817D01*
X0058990Y0077830D01*
X0058914Y0077847D01*
X0058838Y0077867D01*
X0058763Y0077891D01*
X0058690Y0077918D01*
X0058618Y0077949D01*
X0058547Y0077984D01*
X0058478Y0078021D01*
X0058411Y0078062D01*
X0058346Y0078106D01*
X0058284Y0078153D01*
X0058223Y0078203D01*
X0058165Y0078256D01*
X0058110Y0078312D01*
X0058057Y0078370D01*
X0058008Y0078430D01*
X0057961Y0078493D01*
X0057917Y0078558D01*
X0057876Y0078625D01*
X0057839Y0078694D01*
X0057805Y0078765D01*
X0057774Y0078837D01*
X0057747Y0078911D01*
X0059302Y0077800D02*
X0059380Y0077802D01*
X0059459Y0077807D01*
X0059537Y0077817D01*
X0059614Y0077830D01*
X0059690Y0077847D01*
X0059766Y0077867D01*
X0059841Y0077891D01*
X0059914Y0077918D01*
X0059986Y0077949D01*
X0060057Y0077984D01*
X0060126Y0078021D01*
X0060193Y0078062D01*
X0060258Y0078106D01*
X0060320Y0078153D01*
X0060381Y0078203D01*
X0060439Y0078256D01*
X0060494Y0078312D01*
X0060547Y0078370D01*
X0060596Y0078430D01*
X0060643Y0078493D01*
X0060687Y0078558D01*
X0060728Y0078625D01*
X0060765Y0078694D01*
X0060799Y0078765D01*
X0060830Y0078837D01*
X0060857Y0078911D01*
X0057746Y0078911D02*
X0057678Y0079053D01*
X0057615Y0079197D01*
X0057554Y0079342D01*
X0057497Y0079489D01*
X0057444Y0079637D01*
X0057394Y0079787D01*
X0057348Y0079937D01*
X0057305Y0080088D01*
X0057266Y0080241D01*
X0057231Y0080394D01*
X0057199Y0080548D01*
X0057171Y0080703D01*
X0057147Y0080859D01*
X0057126Y0081015D01*
X0057109Y0081171D01*
X0057096Y0081328D01*
X0057087Y0081485D01*
X0057081Y0081643D01*
X0057079Y0081800D01*
X0061524Y0081800D02*
X0061522Y0081957D01*
X0061516Y0082115D01*
X0061507Y0082272D01*
X0061494Y0082429D01*
X0061477Y0082585D01*
X0061456Y0082741D01*
X0061432Y0082897D01*
X0061404Y0083052D01*
X0061372Y0083206D01*
X0061337Y0083359D01*
X0061298Y0083512D01*
X0061255Y0083663D01*
X0061209Y0083813D01*
X0061159Y0083963D01*
X0061106Y0084111D01*
X0061049Y0084258D01*
X0060988Y0084403D01*
X0060925Y0084547D01*
X0060857Y0084689D01*
X0059302Y0085800D02*
X0059224Y0085798D01*
X0059145Y0085793D01*
X0059067Y0085783D01*
X0058990Y0085770D01*
X0058914Y0085753D01*
X0058838Y0085733D01*
X0058763Y0085709D01*
X0058690Y0085682D01*
X0058618Y0085651D01*
X0058547Y0085616D01*
X0058478Y0085579D01*
X0058411Y0085538D01*
X0058346Y0085494D01*
X0058284Y0085447D01*
X0058223Y0085397D01*
X0058165Y0085344D01*
X0058110Y0085288D01*
X0058057Y0085230D01*
X0058008Y0085170D01*
X0057961Y0085107D01*
X0057917Y0085042D01*
X0057876Y0084974D01*
X0057839Y0084906D01*
X0057805Y0084835D01*
X0057774Y0084763D01*
X0057747Y0084689D01*
X0059302Y0085800D02*
X0059380Y0085798D01*
X0059459Y0085793D01*
X0059537Y0085783D01*
X0059614Y0085770D01*
X0059690Y0085753D01*
X0059766Y0085733D01*
X0059841Y0085709D01*
X0059914Y0085682D01*
X0059986Y0085651D01*
X0060057Y0085616D01*
X0060126Y0085579D01*
X0060193Y0085538D01*
X0060258Y0085494D01*
X0060320Y0085447D01*
X0060381Y0085397D01*
X0060439Y0085344D01*
X0060494Y0085288D01*
X0060547Y0085230D01*
X0060596Y0085170D01*
X0060643Y0085107D01*
X0060687Y0085042D01*
X0060728Y0084974D01*
X0060765Y0084906D01*
X0060799Y0084835D01*
X0060830Y0084763D01*
X0060857Y0084689D01*
X0060518Y0092800D02*
X0060518Y0096800D01*
X0060518Y0095911D02*
X0062518Y0095911D01*
X0060518Y0096800D02*
X0060520Y0096872D01*
X0060526Y0096944D01*
X0060536Y0097016D01*
X0060549Y0097087D01*
X0060567Y0097157D01*
X0060588Y0097226D01*
X0060613Y0097293D01*
X0060641Y0097360D01*
X0060673Y0097424D01*
X0060709Y0097487D01*
X0060748Y0097548D01*
X0060790Y0097607D01*
X0060835Y0097663D01*
X0060883Y0097717D01*
X0060934Y0097768D01*
X0060988Y0097816D01*
X0061044Y0097861D01*
X0061103Y0097903D01*
X0061164Y0097942D01*
X0061227Y0097978D01*
X0061291Y0098010D01*
X0061358Y0098038D01*
X0061425Y0098063D01*
X0061494Y0098084D01*
X0061564Y0098102D01*
X0061635Y0098115D01*
X0061707Y0098125D01*
X0061779Y0098131D01*
X0061851Y0098133D01*
X0063629Y0098133D01*
X0067300Y0098133D02*
X0069967Y0098133D01*
X0069078Y0100800D02*
X0069078Y0094133D01*
X0069076Y0094061D01*
X0069070Y0093989D01*
X0069060Y0093917D01*
X0069047Y0093846D01*
X0069029Y0093776D01*
X0069008Y0093707D01*
X0068983Y0093640D01*
X0068955Y0093573D01*
X0068923Y0093509D01*
X0068887Y0093446D01*
X0068848Y0093385D01*
X0068806Y0093326D01*
X0068761Y0093270D01*
X0068713Y0093216D01*
X0068662Y0093165D01*
X0068608Y0093117D01*
X0068552Y0093072D01*
X0068493Y0093030D01*
X0068432Y0092991D01*
X0068369Y0092955D01*
X0068305Y0092923D01*
X0068238Y0092895D01*
X0068171Y0092870D01*
X0068102Y0092849D01*
X0068032Y0092831D01*
X0067961Y0092818D01*
X0067889Y0092808D01*
X0067817Y0092802D01*
X0067745Y0092800D01*
X0067300Y0092800D01*
X0062518Y0092800D02*
X0060518Y0092800D01*
X0062518Y0092800D02*
X0062596Y0092802D01*
X0062673Y0092808D01*
X0062750Y0092817D01*
X0062826Y0092831D01*
X0062902Y0092848D01*
X0062977Y0092869D01*
X0063050Y0092894D01*
X0063122Y0092922D01*
X0063193Y0092954D01*
X0063262Y0092989D01*
X0063329Y0093028D01*
X0063395Y0093070D01*
X0063458Y0093116D01*
X0063518Y0093164D01*
X0063576Y0093215D01*
X0063632Y0093270D01*
X0063685Y0093326D01*
X0063735Y0093386D01*
X0063781Y0093448D01*
X0063825Y0093512D01*
X0063866Y0093578D01*
X0063903Y0093646D01*
X0063936Y0093716D01*
X0063966Y0093788D01*
X0063993Y0093860D01*
X0064016Y0093935D01*
X0064035Y0094010D01*
X0064050Y0094086D01*
X0064062Y0094163D01*
X0064070Y0094240D01*
X0064074Y0094317D01*
X0064074Y0094395D01*
X0064070Y0094472D01*
X0064062Y0094549D01*
X0064050Y0094626D01*
X0064035Y0094702D01*
X0064016Y0094777D01*
X0063993Y0094852D01*
X0063966Y0094924D01*
X0063936Y0094996D01*
X0063903Y0095066D01*
X0063866Y0095134D01*
X0063825Y0095200D01*
X0063781Y0095264D01*
X0063735Y0095326D01*
X0063685Y0095386D01*
X0063632Y0095442D01*
X0063576Y0095497D01*
X0063518Y0095548D01*
X0063458Y0095596D01*
X0063395Y0095642D01*
X0063329Y0095684D01*
X0063262Y0095723D01*
X0063193Y0095758D01*
X0063122Y0095790D01*
X0063050Y0095818D01*
X0062977Y0095843D01*
X0062902Y0095864D01*
X0062826Y0095881D01*
X0062750Y0095895D01*
X0062673Y0095904D01*
X0062596Y0095910D01*
X0062518Y0095912D01*
X0056675Y0096800D02*
X0056675Y0094133D01*
X0056673Y0094061D01*
X0056667Y0093989D01*
X0056657Y0093917D01*
X0056644Y0093846D01*
X0056626Y0093776D01*
X0056605Y0093707D01*
X0056580Y0093640D01*
X0056552Y0093573D01*
X0056520Y0093509D01*
X0056484Y0093446D01*
X0056445Y0093385D01*
X0056403Y0093326D01*
X0056358Y0093270D01*
X0056310Y0093216D01*
X0056259Y0093165D01*
X0056205Y0093117D01*
X0056149Y0093072D01*
X0056090Y0093030D01*
X0056029Y0092991D01*
X0055966Y0092955D01*
X0055902Y0092923D01*
X0055835Y0092895D01*
X0055768Y0092870D01*
X0055699Y0092849D01*
X0055629Y0092831D01*
X0055558Y0092818D01*
X0055486Y0092808D01*
X0055414Y0092802D01*
X0055342Y0092800D01*
X0053120Y0092800D01*
X0053120Y0100800D01*
X0053120Y0098133D02*
X0055342Y0098133D01*
X0055414Y0098131D01*
X0055486Y0098125D01*
X0055558Y0098115D01*
X0055629Y0098102D01*
X0055699Y0098084D01*
X0055768Y0098063D01*
X0055835Y0098038D01*
X0055902Y0098010D01*
X0055966Y0097978D01*
X0056029Y0097942D01*
X0056090Y0097903D01*
X0056149Y0097861D01*
X0056205Y0097816D01*
X0056259Y0097768D01*
X0056310Y0097717D01*
X0056358Y0097663D01*
X0056403Y0097607D01*
X0056445Y0097548D01*
X0056484Y0097487D01*
X0056520Y0097424D01*
X0056552Y0097360D01*
X0056580Y0097293D01*
X0056605Y0097226D01*
X0056626Y0097157D01*
X0056644Y0097087D01*
X0056657Y0097016D01*
X0056667Y0096944D01*
X0056673Y0096872D01*
X0056675Y0096800D01*
X0053304Y0083578D02*
X0053304Y0083133D01*
X0053302Y0083051D01*
X0053296Y0082969D01*
X0053287Y0082887D01*
X0053274Y0082806D01*
X0053257Y0082726D01*
X0053236Y0082646D01*
X0053212Y0082568D01*
X0053184Y0082491D01*
X0053153Y0082415D01*
X0053118Y0082340D01*
X0053079Y0082268D01*
X0053038Y0082197D01*
X0052993Y0082128D01*
X0052945Y0082062D01*
X0052894Y0081997D01*
X0052840Y0081935D01*
X0052783Y0081876D01*
X0052724Y0081819D01*
X0052662Y0081765D01*
X0052597Y0081714D01*
X0052531Y0081666D01*
X0052462Y0081621D01*
X0052391Y0081580D01*
X0052319Y0081541D01*
X0052244Y0081506D01*
X0052168Y0081475D01*
X0052091Y0081447D01*
X0052013Y0081423D01*
X0051933Y0081402D01*
X0051853Y0081385D01*
X0051772Y0081372D01*
X0051690Y0081363D01*
X0051608Y0081357D01*
X0051526Y0081355D01*
X0053304Y0083578D02*
X0053302Y0083671D01*
X0053296Y0083764D01*
X0053286Y0083856D01*
X0053273Y0083949D01*
X0053255Y0084040D01*
X0053234Y0084131D01*
X0053209Y0084220D01*
X0053180Y0084309D01*
X0053148Y0084396D01*
X0053112Y0084482D01*
X0053072Y0084566D01*
X0053029Y0084648D01*
X0052983Y0084729D01*
X0052933Y0084808D01*
X0052880Y0084884D01*
X0052823Y0084958D01*
X0052764Y0085030D01*
X0052702Y0085099D01*
X0052637Y0085166D01*
X0052569Y0085229D01*
X0052498Y0085290D01*
X0052425Y0085348D01*
X0052350Y0085403D01*
X0052273Y0085454D01*
X0052193Y0085502D01*
X0052111Y0085547D01*
X0052028Y0085589D01*
X0051943Y0085626D01*
X0051857Y0085661D01*
X0051769Y0085691D01*
X0051680Y0085718D01*
X0051589Y0085741D01*
X0051498Y0085761D01*
X0051407Y0085776D01*
X0051314Y0085788D01*
X0051222Y0085796D01*
X0051129Y0085800D01*
X0051035Y0085800D01*
X0050942Y0085796D01*
X0050850Y0085788D01*
X0050757Y0085776D01*
X0050666Y0085761D01*
X0050575Y0085741D01*
X0050484Y0085718D01*
X0050395Y0085691D01*
X0050307Y0085661D01*
X0050221Y0085626D01*
X0050136Y0085589D01*
X0050053Y0085547D01*
X0049971Y0085502D01*
X0049891Y0085454D01*
X0049814Y0085403D01*
X0049739Y0085348D01*
X0049666Y0085290D01*
X0049595Y0085229D01*
X0049527Y0085166D01*
X0049462Y0085099D01*
X0049400Y0085030D01*
X0049341Y0084958D01*
X0049284Y0084884D01*
X0049231Y0084808D01*
X0049181Y0084729D01*
X0049135Y0084648D01*
X0049092Y0084566D01*
X0049052Y0084482D01*
X0049016Y0084396D01*
X0048984Y0084309D01*
X0048955Y0084220D01*
X0048930Y0084131D01*
X0048909Y0084040D01*
X0048891Y0083949D01*
X0048878Y0083856D01*
X0048868Y0083764D01*
X0048862Y0083671D01*
X0048860Y0083578D01*
X0038508Y0077800D02*
X0034064Y0077800D01*
X0038508Y0077800D02*
X0034730Y0082244D01*
X0036064Y0085800D02*
X0036162Y0085798D01*
X0036260Y0085793D01*
X0036357Y0085783D01*
X0036454Y0085770D01*
X0036551Y0085754D01*
X0036646Y0085733D01*
X0036741Y0085709D01*
X0036835Y0085682D01*
X0036928Y0085650D01*
X0037019Y0085616D01*
X0037110Y0085578D01*
X0037198Y0085536D01*
X0037285Y0085491D01*
X0037371Y0085443D01*
X0037454Y0085392D01*
X0037535Y0085337D01*
X0037614Y0085279D01*
X0037691Y0085219D01*
X0037766Y0085155D01*
X0037838Y0085089D01*
X0037907Y0085020D01*
X0037974Y0084949D01*
X0038038Y0084875D01*
X0038099Y0084798D01*
X0038158Y0084720D01*
X0038213Y0084639D01*
X0038265Y0084556D01*
X0038314Y0084471D01*
X0038359Y0084384D01*
X0038402Y0084296D01*
X0038441Y0084206D01*
X0038476Y0084115D01*
X0038508Y0084023D01*
X0034731Y0082245D02*
X0034666Y0082309D01*
X0034604Y0082376D01*
X0034544Y0082446D01*
X0034488Y0082518D01*
X0034435Y0082593D01*
X0034385Y0082670D01*
X0034339Y0082749D01*
X0034296Y0082829D01*
X0034256Y0082912D01*
X0034220Y0082996D01*
X0034188Y0083082D01*
X0034159Y0083169D01*
X0034134Y0083257D01*
X0034113Y0083346D01*
X0034095Y0083436D01*
X0034082Y0083526D01*
X0034072Y0083617D01*
X0034066Y0083708D01*
X0034064Y0083800D01*
X0034066Y0083887D01*
X0034072Y0083974D01*
X0034081Y0084061D01*
X0034094Y0084147D01*
X0034111Y0084233D01*
X0034132Y0084318D01*
X0034157Y0084401D01*
X0034185Y0084484D01*
X0034216Y0084565D01*
X0034251Y0084645D01*
X0034290Y0084723D01*
X0034332Y0084800D01*
X0034377Y0084875D01*
X0034426Y0084947D01*
X0034477Y0085018D01*
X0034532Y0085086D01*
X0034589Y0085151D01*
X0034650Y0085214D01*
X0034713Y0085275D01*
X0034778Y0085332D01*
X0034846Y0085387D01*
X0034917Y0085438D01*
X0034989Y0085487D01*
X0035064Y0085532D01*
X0035141Y0085574D01*
X0035219Y0085613D01*
X0035299Y0085648D01*
X0035380Y0085679D01*
X0035463Y0085707D01*
X0035546Y0085732D01*
X0035631Y0085753D01*
X0035717Y0085770D01*
X0035803Y0085783D01*
X0035890Y0085792D01*
X0035977Y0085798D01*
X0036064Y0085800D01*
X0030288Y0084022D02*
X0028066Y0085800D01*
X0028066Y0077800D01*
X0030288Y0077800D02*
X0025844Y0077800D01*
X0026108Y0097688D02*
X0026234Y0097743D01*
X0026362Y0097794D01*
X0026491Y0097842D01*
X0026621Y0097886D01*
X0026752Y0097927D01*
X0026885Y0097964D01*
X0027018Y0097997D01*
X0027152Y0098027D01*
X0027287Y0098053D01*
X0027423Y0098076D01*
X0027559Y0098095D01*
X0027696Y0098110D01*
X0027833Y0098121D01*
X0027970Y0098129D01*
X0028108Y0098132D01*
X0073065Y0098133D02*
X0073065Y0092800D01*
X0075288Y0092800D01*
X0075287Y0092800D02*
X0075359Y0092802D01*
X0075431Y0092808D01*
X0075503Y0092818D01*
X0075574Y0092831D01*
X0075644Y0092849D01*
X0075713Y0092870D01*
X0075780Y0092895D01*
X0075847Y0092923D01*
X0075911Y0092955D01*
X0075974Y0092991D01*
X0076035Y0093030D01*
X0076094Y0093072D01*
X0076150Y0093117D01*
X0076204Y0093165D01*
X0076255Y0093216D01*
X0076303Y0093270D01*
X0076348Y0093326D01*
X0076390Y0093385D01*
X0076429Y0093446D01*
X0076465Y0093509D01*
X0076497Y0093573D01*
X0076525Y0093640D01*
X0076550Y0093707D01*
X0076571Y0093776D01*
X0076589Y0093846D01*
X0076602Y0093917D01*
X0076612Y0093989D01*
X0076618Y0094061D01*
X0076620Y0094133D01*
X0076621Y0094133D02*
X0076621Y0098133D01*
X0080407Y0096800D02*
X0080407Y0094133D01*
X0080409Y0094061D01*
X0080415Y0093989D01*
X0080425Y0093917D01*
X0080438Y0093846D01*
X0080456Y0093776D01*
X0080477Y0093707D01*
X0080502Y0093640D01*
X0080530Y0093573D01*
X0080562Y0093509D01*
X0080598Y0093446D01*
X0080637Y0093385D01*
X0080679Y0093326D01*
X0080724Y0093270D01*
X0080772Y0093216D01*
X0080823Y0093165D01*
X0080877Y0093117D01*
X0080933Y0093072D01*
X0080992Y0093030D01*
X0081053Y0092991D01*
X0081116Y0092955D01*
X0081180Y0092923D01*
X0081247Y0092895D01*
X0081314Y0092870D01*
X0081383Y0092849D01*
X0081453Y0092831D01*
X0081524Y0092818D01*
X0081596Y0092808D01*
X0081668Y0092802D01*
X0081740Y0092800D01*
X0083962Y0092800D01*
X0083962Y0090133D02*
X0083962Y0098133D01*
X0081740Y0098133D01*
X0081668Y0098131D01*
X0081596Y0098125D01*
X0081524Y0098115D01*
X0081453Y0098102D01*
X0081383Y0098084D01*
X0081314Y0098063D01*
X0081247Y0098038D01*
X0081180Y0098010D01*
X0081116Y0097978D01*
X0081053Y0097942D01*
X0080992Y0097903D01*
X0080933Y0097861D01*
X0080877Y0097816D01*
X0080823Y0097768D01*
X0080772Y0097717D01*
X0080724Y0097663D01*
X0080679Y0097607D01*
X0080637Y0097548D01*
X0080598Y0097487D01*
X0080562Y0097424D01*
X0080530Y0097360D01*
X0080502Y0097293D01*
X0080477Y0097226D01*
X0080456Y0097157D01*
X0080438Y0097087D01*
X0080425Y0097016D01*
X0080415Y0096944D01*
X0080409Y0096872D01*
X0080407Y0096800D01*
X0088342Y0096800D02*
X0088342Y0092800D01*
X0088343Y0096800D02*
X0088345Y0096872D01*
X0088351Y0096944D01*
X0088361Y0097016D01*
X0088374Y0097087D01*
X0088392Y0097157D01*
X0088413Y0097226D01*
X0088438Y0097293D01*
X0088466Y0097360D01*
X0088498Y0097424D01*
X0088534Y0097487D01*
X0088573Y0097548D01*
X0088615Y0097607D01*
X0088660Y0097663D01*
X0088708Y0097717D01*
X0088759Y0097768D01*
X0088813Y0097816D01*
X0088869Y0097861D01*
X0088928Y0097903D01*
X0088989Y0097942D01*
X0089052Y0097978D01*
X0089116Y0098010D01*
X0089183Y0098038D01*
X0089250Y0098063D01*
X0089319Y0098084D01*
X0089389Y0098102D01*
X0089460Y0098115D01*
X0089532Y0098125D01*
X0089604Y0098131D01*
X0089676Y0098133D01*
X0093676Y0098133D01*
X0093676Y0092800D01*
X0091009Y0092800D02*
X0091009Y0098133D01*
X0097725Y0096356D02*
X0097725Y0094578D01*
X0097727Y0094495D01*
X0097733Y0094412D01*
X0097743Y0094329D01*
X0097756Y0094246D01*
X0097774Y0094165D01*
X0097795Y0094084D01*
X0097820Y0094005D01*
X0097849Y0093927D01*
X0097881Y0093850D01*
X0097917Y0093775D01*
X0097956Y0093701D01*
X0097999Y0093630D01*
X0098045Y0093560D01*
X0098095Y0093493D01*
X0098147Y0093428D01*
X0098202Y0093366D01*
X0098261Y0093306D01*
X0098322Y0093249D01*
X0098385Y0093195D01*
X0098451Y0093144D01*
X0098520Y0093097D01*
X0098590Y0093052D01*
X0098663Y0093011D01*
X0098737Y0092974D01*
X0098813Y0092939D01*
X0098891Y0092909D01*
X0098969Y0092882D01*
X0099050Y0092859D01*
X0099131Y0092839D01*
X0099213Y0092824D01*
X0099295Y0092812D01*
X0099378Y0092804D01*
X0099461Y0092800D01*
X0099545Y0092800D01*
X0099628Y0092804D01*
X0099711Y0092812D01*
X0099793Y0092824D01*
X0099875Y0092839D01*
X0099956Y0092859D01*
X0100037Y0092882D01*
X0100115Y0092909D01*
X0100193Y0092939D01*
X0100269Y0092974D01*
X0100343Y0093011D01*
X0100416Y0093052D01*
X0100486Y0093097D01*
X0100555Y0093144D01*
X0100621Y0093195D01*
X0100684Y0093249D01*
X0100745Y0093306D01*
X0100804Y0093366D01*
X0100859Y0093428D01*
X0100911Y0093493D01*
X0100961Y0093560D01*
X0101007Y0093630D01*
X0101050Y0093701D01*
X0101089Y0093775D01*
X0101125Y0093850D01*
X0101157Y0093927D01*
X0101186Y0094005D01*
X0101211Y0094084D01*
X0101232Y0094165D01*
X0101250Y0094246D01*
X0101263Y0094329D01*
X0101273Y0094412D01*
X0101279Y0094495D01*
X0101281Y0094578D01*
X0101281Y0096356D01*
X0101279Y0096439D01*
X0101273Y0096522D01*
X0101263Y0096605D01*
X0101250Y0096688D01*
X0101232Y0096769D01*
X0101211Y0096850D01*
X0101186Y0096929D01*
X0101157Y0097007D01*
X0101125Y0097084D01*
X0101089Y0097159D01*
X0101050Y0097233D01*
X0101007Y0097304D01*
X0100961Y0097374D01*
X0100911Y0097441D01*
X0100859Y0097506D01*
X0100804Y0097568D01*
X0100745Y0097628D01*
X0100684Y0097685D01*
X0100621Y0097739D01*
X0100555Y0097790D01*
X0100486Y0097837D01*
X0100416Y0097882D01*
X0100343Y0097923D01*
X0100269Y0097960D01*
X0100193Y0097995D01*
X0100115Y0098025D01*
X0100037Y0098052D01*
X0099956Y0098075D01*
X0099875Y0098095D01*
X0099793Y0098110D01*
X0099711Y0098122D01*
X0099628Y0098130D01*
X0099545Y0098134D01*
X0099461Y0098134D01*
X0099378Y0098130D01*
X0099295Y0098122D01*
X0099213Y0098110D01*
X0099131Y0098095D01*
X0099050Y0098075D01*
X0098969Y0098052D01*
X0098891Y0098025D01*
X0098813Y0097995D01*
X0098737Y0097960D01*
X0098663Y0097923D01*
X0098590Y0097882D01*
X0098520Y0097837D01*
X0098451Y0097790D01*
X0098385Y0097739D01*
X0098322Y0097685D01*
X0098261Y0097628D01*
X0098202Y0097568D01*
X0098147Y0097506D01*
X0098095Y0097441D01*
X0098045Y0097374D01*
X0097999Y0097304D01*
X0097956Y0097233D01*
X0097917Y0097159D01*
X0097881Y0097084D01*
X0097849Y0097007D01*
X0097820Y0096929D01*
X0097795Y0096850D01*
X0097774Y0096769D01*
X0097756Y0096688D01*
X0097743Y0096605D01*
X0097733Y0096522D01*
X0097727Y0096439D01*
X0097725Y0096356D01*
X0104498Y0092800D02*
X0106276Y0092800D01*
X0106358Y0092802D01*
X0106440Y0092808D01*
X0106522Y0092817D01*
X0106603Y0092830D01*
X0106683Y0092847D01*
X0106763Y0092868D01*
X0106841Y0092892D01*
X0106918Y0092920D01*
X0106994Y0092951D01*
X0107069Y0092986D01*
X0107141Y0093025D01*
X0107212Y0093066D01*
X0107281Y0093111D01*
X0107347Y0093159D01*
X0107412Y0093210D01*
X0107474Y0093264D01*
X0107533Y0093321D01*
X0107590Y0093380D01*
X0107644Y0093442D01*
X0107695Y0093507D01*
X0107743Y0093573D01*
X0107788Y0093642D01*
X0107829Y0093713D01*
X0107868Y0093785D01*
X0107903Y0093860D01*
X0107934Y0093936D01*
X0107962Y0094013D01*
X0107986Y0094091D01*
X0108007Y0094171D01*
X0108024Y0094251D01*
X0108037Y0094332D01*
X0108046Y0094414D01*
X0108052Y0094496D01*
X0108054Y0094578D01*
X0108053Y0094578D02*
X0108053Y0099022D01*
X0108054Y0099022D02*
X0108052Y0099104D01*
X0108046Y0099186D01*
X0108037Y0099268D01*
X0108024Y0099349D01*
X0108007Y0099429D01*
X0107986Y0099509D01*
X0107962Y0099587D01*
X0107934Y0099664D01*
X0107903Y0099740D01*
X0107868Y0099815D01*
X0107829Y0099887D01*
X0107788Y0099958D01*
X0107743Y0100027D01*
X0107695Y0100093D01*
X0107644Y0100158D01*
X0107590Y0100220D01*
X0107533Y0100279D01*
X0107474Y0100336D01*
X0107412Y0100390D01*
X0107347Y0100441D01*
X0107281Y0100489D01*
X0107212Y0100534D01*
X0107141Y0100575D01*
X0107069Y0100614D01*
X0106994Y0100648D01*
X0106918Y0100680D01*
X0106841Y0100708D01*
X0106763Y0100732D01*
X0106683Y0100753D01*
X0106603Y0100770D01*
X0106522Y0100783D01*
X0106440Y0100792D01*
X0106358Y0100798D01*
X0106276Y0100800D01*
X0104498Y0100800D01*
X0116083Y0096356D02*
X0116083Y0095467D01*
X0119639Y0095467D01*
X0119639Y0096356D02*
X0119639Y0094133D01*
X0119638Y0094133D02*
X0119636Y0094061D01*
X0119630Y0093989D01*
X0119620Y0093917D01*
X0119607Y0093846D01*
X0119589Y0093776D01*
X0119568Y0093707D01*
X0119543Y0093640D01*
X0119515Y0093573D01*
X0119483Y0093509D01*
X0119447Y0093446D01*
X0119408Y0093385D01*
X0119366Y0093326D01*
X0119321Y0093270D01*
X0119273Y0093216D01*
X0119222Y0093165D01*
X0119168Y0093117D01*
X0119112Y0093072D01*
X0119053Y0093030D01*
X0118992Y0092991D01*
X0118929Y0092955D01*
X0118865Y0092923D01*
X0118798Y0092895D01*
X0118731Y0092870D01*
X0118662Y0092849D01*
X0118592Y0092831D01*
X0118521Y0092818D01*
X0118449Y0092808D01*
X0118377Y0092802D01*
X0118305Y0092800D01*
X0116083Y0092800D01*
X0116083Y0096356D02*
X0116085Y0096439D01*
X0116091Y0096522D01*
X0116101Y0096605D01*
X0116114Y0096688D01*
X0116132Y0096769D01*
X0116153Y0096850D01*
X0116178Y0096929D01*
X0116207Y0097007D01*
X0116239Y0097084D01*
X0116275Y0097159D01*
X0116314Y0097233D01*
X0116357Y0097304D01*
X0116403Y0097374D01*
X0116453Y0097441D01*
X0116505Y0097506D01*
X0116560Y0097568D01*
X0116619Y0097628D01*
X0116680Y0097685D01*
X0116743Y0097739D01*
X0116809Y0097790D01*
X0116878Y0097837D01*
X0116948Y0097882D01*
X0117021Y0097923D01*
X0117095Y0097960D01*
X0117171Y0097995D01*
X0117249Y0098025D01*
X0117327Y0098052D01*
X0117408Y0098075D01*
X0117489Y0098095D01*
X0117571Y0098110D01*
X0117653Y0098122D01*
X0117736Y0098130D01*
X0117819Y0098134D01*
X0117903Y0098134D01*
X0117986Y0098130D01*
X0118069Y0098122D01*
X0118151Y0098110D01*
X0118233Y0098095D01*
X0118314Y0098075D01*
X0118395Y0098052D01*
X0118473Y0098025D01*
X0118551Y0097995D01*
X0118627Y0097960D01*
X0118701Y0097923D01*
X0118774Y0097882D01*
X0118844Y0097837D01*
X0118913Y0097790D01*
X0118979Y0097739D01*
X0119042Y0097685D01*
X0119103Y0097628D01*
X0119162Y0097568D01*
X0119217Y0097506D01*
X0119269Y0097441D01*
X0119319Y0097374D01*
X0119365Y0097304D01*
X0119408Y0097233D01*
X0119447Y0097159D01*
X0119483Y0097084D01*
X0119515Y0097007D01*
X0119544Y0096929D01*
X0119569Y0096850D01*
X0119590Y0096769D01*
X0119608Y0096688D01*
X0119621Y0096605D01*
X0119631Y0096522D01*
X0119637Y0096439D01*
X0119639Y0096356D01*
X0123538Y0098133D02*
X0125760Y0098133D01*
X0125832Y0098131D01*
X0125904Y0098125D01*
X0125976Y0098115D01*
X0126047Y0098102D01*
X0126117Y0098084D01*
X0126186Y0098063D01*
X0126253Y0098038D01*
X0126320Y0098010D01*
X0126384Y0097978D01*
X0126447Y0097942D01*
X0126508Y0097903D01*
X0126567Y0097861D01*
X0126623Y0097816D01*
X0126677Y0097768D01*
X0126728Y0097717D01*
X0126776Y0097663D01*
X0126821Y0097607D01*
X0126863Y0097548D01*
X0126902Y0097487D01*
X0126938Y0097424D01*
X0126970Y0097360D01*
X0126998Y0097293D01*
X0127023Y0097226D01*
X0127044Y0097157D01*
X0127062Y0097087D01*
X0127075Y0097016D01*
X0127085Y0096944D01*
X0127091Y0096872D01*
X0127093Y0096800D01*
X0127093Y0094133D01*
X0127091Y0094061D01*
X0127085Y0093989D01*
X0127075Y0093917D01*
X0127062Y0093846D01*
X0127044Y0093776D01*
X0127023Y0093707D01*
X0126998Y0093640D01*
X0126970Y0093573D01*
X0126938Y0093509D01*
X0126902Y0093446D01*
X0126863Y0093385D01*
X0126821Y0093326D01*
X0126776Y0093270D01*
X0126728Y0093216D01*
X0126677Y0093165D01*
X0126623Y0093117D01*
X0126567Y0093072D01*
X0126508Y0093030D01*
X0126447Y0092991D01*
X0126384Y0092955D01*
X0126320Y0092923D01*
X0126253Y0092895D01*
X0126186Y0092870D01*
X0126117Y0092849D01*
X0126047Y0092831D01*
X0125976Y0092818D01*
X0125904Y0092808D01*
X0125832Y0092802D01*
X0125760Y0092800D01*
X0123538Y0092800D01*
X0123538Y0100800D01*
X0135320Y0096800D02*
X0135320Y0092800D01*
X0137320Y0092800D01*
X0137398Y0092802D01*
X0137475Y0092808D01*
X0137552Y0092817D01*
X0137628Y0092831D01*
X0137704Y0092848D01*
X0137779Y0092869D01*
X0137852Y0092894D01*
X0137924Y0092922D01*
X0137995Y0092954D01*
X0138064Y0092989D01*
X0138131Y0093028D01*
X0138197Y0093070D01*
X0138260Y0093116D01*
X0138320Y0093164D01*
X0138378Y0093215D01*
X0138434Y0093270D01*
X0138487Y0093326D01*
X0138537Y0093386D01*
X0138583Y0093448D01*
X0138627Y0093512D01*
X0138668Y0093578D01*
X0138705Y0093646D01*
X0138738Y0093716D01*
X0138768Y0093788D01*
X0138795Y0093860D01*
X0138818Y0093935D01*
X0138837Y0094010D01*
X0138852Y0094086D01*
X0138864Y0094163D01*
X0138872Y0094240D01*
X0138876Y0094317D01*
X0138876Y0094395D01*
X0138872Y0094472D01*
X0138864Y0094549D01*
X0138852Y0094626D01*
X0138837Y0094702D01*
X0138818Y0094777D01*
X0138795Y0094852D01*
X0138768Y0094924D01*
X0138738Y0094996D01*
X0138705Y0095066D01*
X0138668Y0095134D01*
X0138627Y0095200D01*
X0138583Y0095264D01*
X0138537Y0095326D01*
X0138487Y0095386D01*
X0138434Y0095442D01*
X0138378Y0095497D01*
X0138320Y0095548D01*
X0138260Y0095596D01*
X0138197Y0095642D01*
X0138131Y0095684D01*
X0138064Y0095723D01*
X0137995Y0095758D01*
X0137924Y0095790D01*
X0137852Y0095818D01*
X0137779Y0095843D01*
X0137704Y0095864D01*
X0137628Y0095881D01*
X0137552Y0095895D01*
X0137475Y0095904D01*
X0137398Y0095910D01*
X0137320Y0095912D01*
X0137320Y0095911D02*
X0135320Y0095911D01*
X0135320Y0096800D02*
X0135322Y0096872D01*
X0135328Y0096944D01*
X0135338Y0097016D01*
X0135351Y0097087D01*
X0135369Y0097157D01*
X0135390Y0097226D01*
X0135415Y0097293D01*
X0135443Y0097360D01*
X0135475Y0097424D01*
X0135511Y0097487D01*
X0135550Y0097548D01*
X0135592Y0097607D01*
X0135637Y0097663D01*
X0135685Y0097717D01*
X0135736Y0097768D01*
X0135790Y0097816D01*
X0135846Y0097861D01*
X0135905Y0097903D01*
X0135966Y0097942D01*
X0136029Y0097978D01*
X0136093Y0098010D01*
X0136160Y0098038D01*
X0136227Y0098063D01*
X0136296Y0098084D01*
X0136366Y0098102D01*
X0136437Y0098115D01*
X0136509Y0098125D01*
X0136581Y0098131D01*
X0136653Y0098133D01*
X0138431Y0098133D01*
X0141561Y0098133D02*
X0141561Y0097244D01*
X0141561Y0098133D02*
X0144228Y0098133D01*
X0144228Y0092800D01*
X0148415Y0092800D02*
X0148415Y0098133D01*
X0151970Y0094133D02*
X0151968Y0094061D01*
X0151962Y0093989D01*
X0151952Y0093917D01*
X0151939Y0093846D01*
X0151921Y0093776D01*
X0151900Y0093707D01*
X0151875Y0093640D01*
X0151847Y0093573D01*
X0151815Y0093509D01*
X0151779Y0093446D01*
X0151740Y0093385D01*
X0151698Y0093326D01*
X0151653Y0093270D01*
X0151605Y0093216D01*
X0151554Y0093165D01*
X0151500Y0093117D01*
X0151444Y0093072D01*
X0151385Y0093030D01*
X0151324Y0092991D01*
X0151261Y0092955D01*
X0151197Y0092923D01*
X0151130Y0092895D01*
X0151063Y0092870D01*
X0150994Y0092849D01*
X0150924Y0092831D01*
X0150853Y0092818D01*
X0150781Y0092808D01*
X0150709Y0092802D01*
X0150637Y0092800D01*
X0148415Y0092800D01*
X0151971Y0094133D02*
X0151971Y0098133D01*
X0155528Y0098133D02*
X0158195Y0098133D01*
X0157306Y0100800D02*
X0157306Y0094133D01*
X0157304Y0094061D01*
X0157298Y0093989D01*
X0157288Y0093917D01*
X0157275Y0093846D01*
X0157257Y0093776D01*
X0157236Y0093707D01*
X0157211Y0093640D01*
X0157183Y0093573D01*
X0157151Y0093509D01*
X0157115Y0093446D01*
X0157076Y0093385D01*
X0157034Y0093326D01*
X0156989Y0093270D01*
X0156941Y0093216D01*
X0156890Y0093165D01*
X0156836Y0093117D01*
X0156780Y0093072D01*
X0156721Y0093030D01*
X0156660Y0092991D01*
X0156597Y0092955D01*
X0156533Y0092923D01*
X0156466Y0092895D01*
X0156399Y0092870D01*
X0156330Y0092849D01*
X0156260Y0092831D01*
X0156189Y0092818D01*
X0156117Y0092808D01*
X0156045Y0092802D01*
X0155973Y0092800D01*
X0155528Y0092800D01*
X0161019Y0092800D02*
X0163241Y0092800D01*
X0163313Y0092802D01*
X0163385Y0092808D01*
X0163457Y0092818D01*
X0163528Y0092831D01*
X0163598Y0092849D01*
X0163667Y0092870D01*
X0163734Y0092895D01*
X0163801Y0092923D01*
X0163865Y0092955D01*
X0163928Y0092991D01*
X0163989Y0093030D01*
X0164048Y0093072D01*
X0164104Y0093117D01*
X0164158Y0093165D01*
X0164209Y0093216D01*
X0164257Y0093270D01*
X0164302Y0093326D01*
X0164344Y0093385D01*
X0164383Y0093446D01*
X0164419Y0093509D01*
X0164451Y0093573D01*
X0164479Y0093640D01*
X0164504Y0093707D01*
X0164525Y0093776D01*
X0164543Y0093846D01*
X0164556Y0093917D01*
X0164566Y0093989D01*
X0164572Y0094061D01*
X0164574Y0094133D01*
X0164575Y0094133D02*
X0164575Y0096356D01*
X0164575Y0095467D02*
X0161019Y0095467D01*
X0161019Y0096356D01*
X0161021Y0096439D01*
X0161027Y0096522D01*
X0161037Y0096605D01*
X0161050Y0096688D01*
X0161068Y0096769D01*
X0161089Y0096850D01*
X0161114Y0096929D01*
X0161143Y0097007D01*
X0161175Y0097084D01*
X0161211Y0097159D01*
X0161250Y0097233D01*
X0161293Y0097304D01*
X0161339Y0097374D01*
X0161389Y0097441D01*
X0161441Y0097506D01*
X0161496Y0097568D01*
X0161555Y0097628D01*
X0161616Y0097685D01*
X0161679Y0097739D01*
X0161745Y0097790D01*
X0161814Y0097837D01*
X0161884Y0097882D01*
X0161957Y0097923D01*
X0162031Y0097960D01*
X0162107Y0097995D01*
X0162185Y0098025D01*
X0162263Y0098052D01*
X0162344Y0098075D01*
X0162425Y0098095D01*
X0162507Y0098110D01*
X0162589Y0098122D01*
X0162672Y0098130D01*
X0162755Y0098134D01*
X0162839Y0098134D01*
X0162922Y0098130D01*
X0163005Y0098122D01*
X0163087Y0098110D01*
X0163169Y0098095D01*
X0163250Y0098075D01*
X0163331Y0098052D01*
X0163409Y0098025D01*
X0163487Y0097995D01*
X0163563Y0097960D01*
X0163637Y0097923D01*
X0163710Y0097882D01*
X0163780Y0097837D01*
X0163849Y0097790D01*
X0163915Y0097739D01*
X0163978Y0097685D01*
X0164039Y0097628D01*
X0164098Y0097568D01*
X0164153Y0097506D01*
X0164205Y0097441D01*
X0164255Y0097374D01*
X0164301Y0097304D01*
X0164344Y0097233D01*
X0164383Y0097159D01*
X0164419Y0097084D01*
X0164451Y0097007D01*
X0164480Y0096929D01*
X0164505Y0096850D01*
X0164526Y0096769D01*
X0164544Y0096688D01*
X0164557Y0096605D01*
X0164567Y0096522D01*
X0164573Y0096439D01*
X0164575Y0096356D01*
X0167858Y0098133D02*
X0170525Y0098133D01*
X0173209Y0098133D02*
X0173209Y0092800D01*
X0169636Y0094133D02*
X0169636Y0100800D01*
X0172987Y0100800D02*
X0172987Y0100356D01*
X0173431Y0100356D01*
X0173431Y0100800D01*
X0172987Y0100800D01*
X0176911Y0098133D02*
X0176911Y0092800D01*
X0179133Y0092800D01*
X0179205Y0092802D01*
X0179277Y0092808D01*
X0179349Y0092818D01*
X0179420Y0092831D01*
X0179490Y0092849D01*
X0179559Y0092870D01*
X0179626Y0092895D01*
X0179693Y0092923D01*
X0179757Y0092955D01*
X0179820Y0092991D01*
X0179881Y0093030D01*
X0179940Y0093072D01*
X0179996Y0093117D01*
X0180050Y0093165D01*
X0180101Y0093216D01*
X0180149Y0093270D01*
X0180194Y0093326D01*
X0180236Y0093385D01*
X0180275Y0093446D01*
X0180311Y0093509D01*
X0180343Y0093573D01*
X0180371Y0093640D01*
X0180396Y0093707D01*
X0180417Y0093776D01*
X0180435Y0093846D01*
X0180448Y0093917D01*
X0180458Y0093989D01*
X0180464Y0094061D01*
X0180466Y0094133D01*
X0180467Y0094133D02*
X0180467Y0098133D01*
X0184639Y0098133D02*
X0184639Y0090133D01*
X0184639Y0092800D02*
X0186862Y0092800D01*
X0186934Y0092802D01*
X0187006Y0092808D01*
X0187078Y0092818D01*
X0187149Y0092831D01*
X0187219Y0092849D01*
X0187288Y0092870D01*
X0187355Y0092895D01*
X0187422Y0092923D01*
X0187486Y0092955D01*
X0187549Y0092991D01*
X0187610Y0093030D01*
X0187669Y0093072D01*
X0187725Y0093117D01*
X0187779Y0093165D01*
X0187830Y0093216D01*
X0187878Y0093270D01*
X0187923Y0093326D01*
X0187965Y0093385D01*
X0188004Y0093446D01*
X0188040Y0093509D01*
X0188072Y0093573D01*
X0188100Y0093640D01*
X0188125Y0093707D01*
X0188146Y0093776D01*
X0188164Y0093846D01*
X0188177Y0093917D01*
X0188187Y0093989D01*
X0188193Y0094061D01*
X0188195Y0094133D01*
X0188195Y0096800D01*
X0188193Y0096872D01*
X0188187Y0096944D01*
X0188177Y0097016D01*
X0188164Y0097087D01*
X0188146Y0097157D01*
X0188125Y0097226D01*
X0188100Y0097293D01*
X0188072Y0097360D01*
X0188040Y0097424D01*
X0188004Y0097487D01*
X0187965Y0097548D01*
X0187923Y0097607D01*
X0187878Y0097663D01*
X0187830Y0097717D01*
X0187779Y0097768D01*
X0187725Y0097816D01*
X0187669Y0097861D01*
X0187610Y0097903D01*
X0187549Y0097942D01*
X0187486Y0097978D01*
X0187422Y0098010D01*
X0187355Y0098038D01*
X0187288Y0098063D01*
X0187219Y0098084D01*
X0187149Y0098102D01*
X0187078Y0098115D01*
X0187006Y0098125D01*
X0186934Y0098131D01*
X0186862Y0098133D01*
X0184639Y0098133D01*
X0190881Y0098133D02*
X0190881Y0097244D01*
X0190881Y0098133D02*
X0193548Y0098133D01*
X0193548Y0092800D01*
X0197120Y0092800D02*
X0199787Y0100800D01*
X0202453Y0092800D01*
X0201787Y0094800D02*
X0197787Y0094800D01*
X0190474Y0085800D02*
X0187807Y0081356D01*
X0185141Y0085800D01*
X0185141Y0077800D01*
X0181091Y0079133D02*
X0181091Y0081356D01*
X0181091Y0080467D02*
X0177536Y0080467D01*
X0177536Y0081356D01*
X0177535Y0081356D02*
X0177537Y0081439D01*
X0177543Y0081522D01*
X0177553Y0081605D01*
X0177566Y0081688D01*
X0177584Y0081769D01*
X0177605Y0081850D01*
X0177630Y0081929D01*
X0177659Y0082007D01*
X0177691Y0082084D01*
X0177727Y0082159D01*
X0177766Y0082233D01*
X0177809Y0082304D01*
X0177855Y0082374D01*
X0177905Y0082441D01*
X0177957Y0082506D01*
X0178012Y0082568D01*
X0178071Y0082628D01*
X0178132Y0082685D01*
X0178195Y0082739D01*
X0178261Y0082790D01*
X0178330Y0082837D01*
X0178400Y0082882D01*
X0178473Y0082923D01*
X0178547Y0082960D01*
X0178623Y0082995D01*
X0178701Y0083025D01*
X0178779Y0083052D01*
X0178860Y0083075D01*
X0178941Y0083095D01*
X0179023Y0083110D01*
X0179105Y0083122D01*
X0179188Y0083130D01*
X0179271Y0083134D01*
X0179355Y0083134D01*
X0179438Y0083130D01*
X0179521Y0083122D01*
X0179603Y0083110D01*
X0179685Y0083095D01*
X0179766Y0083075D01*
X0179847Y0083052D01*
X0179925Y0083025D01*
X0180003Y0082995D01*
X0180079Y0082960D01*
X0180153Y0082923D01*
X0180226Y0082882D01*
X0180296Y0082837D01*
X0180365Y0082790D01*
X0180431Y0082739D01*
X0180494Y0082685D01*
X0180555Y0082628D01*
X0180614Y0082568D01*
X0180669Y0082506D01*
X0180721Y0082441D01*
X0180771Y0082374D01*
X0180817Y0082304D01*
X0180860Y0082233D01*
X0180899Y0082159D01*
X0180935Y0082084D01*
X0180967Y0082007D01*
X0180996Y0081929D01*
X0181021Y0081850D01*
X0181042Y0081769D01*
X0181060Y0081688D01*
X0181073Y0081605D01*
X0181083Y0081522D01*
X0181089Y0081439D01*
X0181091Y0081356D01*
X0181091Y0079133D02*
X0181089Y0079061D01*
X0181083Y0078989D01*
X0181073Y0078917D01*
X0181060Y0078846D01*
X0181042Y0078776D01*
X0181021Y0078707D01*
X0180996Y0078640D01*
X0180968Y0078573D01*
X0180936Y0078509D01*
X0180900Y0078446D01*
X0180861Y0078385D01*
X0180819Y0078326D01*
X0180774Y0078270D01*
X0180726Y0078216D01*
X0180675Y0078165D01*
X0180621Y0078117D01*
X0180565Y0078072D01*
X0180506Y0078030D01*
X0180445Y0077991D01*
X0180382Y0077955D01*
X0180318Y0077923D01*
X0180251Y0077895D01*
X0180184Y0077870D01*
X0180115Y0077849D01*
X0180045Y0077831D01*
X0179974Y0077818D01*
X0179902Y0077808D01*
X0179830Y0077802D01*
X0179758Y0077800D01*
X0177536Y0077800D01*
X0173903Y0079133D02*
X0173903Y0085800D01*
X0169519Y0085800D02*
X0169519Y0079133D01*
X0169517Y0079061D01*
X0169511Y0078989D01*
X0169501Y0078917D01*
X0169488Y0078846D01*
X0169470Y0078776D01*
X0169449Y0078707D01*
X0169424Y0078640D01*
X0169396Y0078573D01*
X0169364Y0078509D01*
X0169328Y0078446D01*
X0169289Y0078385D01*
X0169247Y0078326D01*
X0169202Y0078270D01*
X0169154Y0078216D01*
X0169103Y0078165D01*
X0169049Y0078117D01*
X0168993Y0078072D01*
X0168934Y0078030D01*
X0168873Y0077991D01*
X0168810Y0077955D01*
X0168746Y0077923D01*
X0168679Y0077895D01*
X0168612Y0077870D01*
X0168543Y0077849D01*
X0168473Y0077831D01*
X0168402Y0077818D01*
X0168330Y0077808D01*
X0168258Y0077802D01*
X0168186Y0077800D01*
X0165199Y0079578D02*
X0165199Y0081356D01*
X0165197Y0081439D01*
X0165191Y0081522D01*
X0165181Y0081605D01*
X0165168Y0081688D01*
X0165150Y0081769D01*
X0165129Y0081850D01*
X0165104Y0081929D01*
X0165075Y0082007D01*
X0165043Y0082084D01*
X0165007Y0082159D01*
X0164968Y0082233D01*
X0164925Y0082304D01*
X0164879Y0082374D01*
X0164829Y0082441D01*
X0164777Y0082506D01*
X0164722Y0082568D01*
X0164663Y0082628D01*
X0164602Y0082685D01*
X0164539Y0082739D01*
X0164473Y0082790D01*
X0164404Y0082837D01*
X0164334Y0082882D01*
X0164261Y0082923D01*
X0164187Y0082960D01*
X0164111Y0082995D01*
X0164033Y0083025D01*
X0163955Y0083052D01*
X0163874Y0083075D01*
X0163793Y0083095D01*
X0163711Y0083110D01*
X0163629Y0083122D01*
X0163546Y0083130D01*
X0163463Y0083134D01*
X0163379Y0083134D01*
X0163296Y0083130D01*
X0163213Y0083122D01*
X0163131Y0083110D01*
X0163049Y0083095D01*
X0162968Y0083075D01*
X0162887Y0083052D01*
X0162809Y0083025D01*
X0162731Y0082995D01*
X0162655Y0082960D01*
X0162581Y0082923D01*
X0162508Y0082882D01*
X0162438Y0082837D01*
X0162369Y0082790D01*
X0162303Y0082739D01*
X0162240Y0082685D01*
X0162179Y0082628D01*
X0162120Y0082568D01*
X0162065Y0082506D01*
X0162013Y0082441D01*
X0161963Y0082374D01*
X0161917Y0082304D01*
X0161874Y0082233D01*
X0161835Y0082159D01*
X0161799Y0082084D01*
X0161767Y0082007D01*
X0161738Y0081929D01*
X0161713Y0081850D01*
X0161692Y0081769D01*
X0161674Y0081688D01*
X0161661Y0081605D01*
X0161651Y0081522D01*
X0161645Y0081439D01*
X0161643Y0081356D01*
X0161644Y0081356D02*
X0161644Y0079578D01*
X0161643Y0079578D02*
X0161645Y0079495D01*
X0161651Y0079412D01*
X0161661Y0079329D01*
X0161674Y0079246D01*
X0161692Y0079165D01*
X0161713Y0079084D01*
X0161738Y0079005D01*
X0161767Y0078927D01*
X0161799Y0078850D01*
X0161835Y0078775D01*
X0161874Y0078701D01*
X0161917Y0078630D01*
X0161963Y0078560D01*
X0162013Y0078493D01*
X0162065Y0078428D01*
X0162120Y0078366D01*
X0162179Y0078306D01*
X0162240Y0078249D01*
X0162303Y0078195D01*
X0162369Y0078144D01*
X0162438Y0078097D01*
X0162508Y0078052D01*
X0162581Y0078011D01*
X0162655Y0077974D01*
X0162731Y0077939D01*
X0162809Y0077909D01*
X0162887Y0077882D01*
X0162968Y0077859D01*
X0163049Y0077839D01*
X0163131Y0077824D01*
X0163213Y0077812D01*
X0163296Y0077804D01*
X0163379Y0077800D01*
X0163463Y0077800D01*
X0163546Y0077804D01*
X0163629Y0077812D01*
X0163711Y0077824D01*
X0163793Y0077839D01*
X0163874Y0077859D01*
X0163955Y0077882D01*
X0164033Y0077909D01*
X0164111Y0077939D01*
X0164187Y0077974D01*
X0164261Y0078011D01*
X0164334Y0078052D01*
X0164404Y0078097D01*
X0164473Y0078144D01*
X0164539Y0078195D01*
X0164602Y0078249D01*
X0164663Y0078306D01*
X0164722Y0078366D01*
X0164777Y0078428D01*
X0164829Y0078493D01*
X0164879Y0078560D01*
X0164925Y0078630D01*
X0164968Y0078701D01*
X0165007Y0078775D01*
X0165043Y0078850D01*
X0165075Y0078927D01*
X0165104Y0079005D01*
X0165129Y0079084D01*
X0165150Y0079165D01*
X0165168Y0079246D01*
X0165181Y0079329D01*
X0165191Y0079412D01*
X0165197Y0079495D01*
X0165199Y0079578D01*
X0172570Y0077800D02*
X0172642Y0077802D01*
X0172714Y0077808D01*
X0172786Y0077818D01*
X0172857Y0077831D01*
X0172927Y0077849D01*
X0172996Y0077870D01*
X0173063Y0077895D01*
X0173130Y0077923D01*
X0173194Y0077955D01*
X0173257Y0077991D01*
X0173318Y0078030D01*
X0173377Y0078072D01*
X0173433Y0078117D01*
X0173487Y0078165D01*
X0173538Y0078216D01*
X0173586Y0078270D01*
X0173631Y0078326D01*
X0173673Y0078385D01*
X0173712Y0078446D01*
X0173748Y0078509D01*
X0173780Y0078573D01*
X0173808Y0078640D01*
X0173833Y0078707D01*
X0173854Y0078776D01*
X0173872Y0078846D01*
X0173885Y0078917D01*
X0173895Y0078989D01*
X0173901Y0079061D01*
X0173903Y0079133D01*
X0168303Y0092800D02*
X0167858Y0092800D01*
X0168303Y0092800D02*
X0168375Y0092802D01*
X0168447Y0092808D01*
X0168519Y0092818D01*
X0168590Y0092831D01*
X0168660Y0092849D01*
X0168729Y0092870D01*
X0168796Y0092895D01*
X0168863Y0092923D01*
X0168927Y0092955D01*
X0168990Y0092991D01*
X0169051Y0093030D01*
X0169110Y0093072D01*
X0169166Y0093117D01*
X0169220Y0093165D01*
X0169271Y0093216D01*
X0169319Y0093270D01*
X0169364Y0093326D01*
X0169406Y0093385D01*
X0169445Y0093446D01*
X0169481Y0093509D01*
X0169513Y0093573D01*
X0169541Y0093640D01*
X0169566Y0093707D01*
X0169587Y0093776D01*
X0169605Y0093846D01*
X0169618Y0093917D01*
X0169628Y0093989D01*
X0169634Y0094061D01*
X0169636Y0094133D01*
X0190474Y0085800D02*
X0190474Y0077800D01*
X0198908Y0079578D02*
X0198908Y0081356D01*
X0198907Y0081356D02*
X0198909Y0081439D01*
X0198915Y0081522D01*
X0198925Y0081605D01*
X0198938Y0081688D01*
X0198956Y0081769D01*
X0198977Y0081850D01*
X0199002Y0081929D01*
X0199031Y0082007D01*
X0199063Y0082084D01*
X0199099Y0082159D01*
X0199138Y0082233D01*
X0199181Y0082304D01*
X0199227Y0082374D01*
X0199277Y0082441D01*
X0199329Y0082506D01*
X0199384Y0082568D01*
X0199443Y0082628D01*
X0199504Y0082685D01*
X0199567Y0082739D01*
X0199633Y0082790D01*
X0199702Y0082837D01*
X0199772Y0082882D01*
X0199845Y0082923D01*
X0199919Y0082960D01*
X0199995Y0082995D01*
X0200073Y0083025D01*
X0200151Y0083052D01*
X0200232Y0083075D01*
X0200313Y0083095D01*
X0200395Y0083110D01*
X0200477Y0083122D01*
X0200560Y0083130D01*
X0200643Y0083134D01*
X0200727Y0083134D01*
X0200810Y0083130D01*
X0200893Y0083122D01*
X0200975Y0083110D01*
X0201057Y0083095D01*
X0201138Y0083075D01*
X0201219Y0083052D01*
X0201297Y0083025D01*
X0201375Y0082995D01*
X0201451Y0082960D01*
X0201525Y0082923D01*
X0201598Y0082882D01*
X0201668Y0082837D01*
X0201737Y0082790D01*
X0201803Y0082739D01*
X0201866Y0082685D01*
X0201927Y0082628D01*
X0201986Y0082568D01*
X0202041Y0082506D01*
X0202093Y0082441D01*
X0202143Y0082374D01*
X0202189Y0082304D01*
X0202232Y0082233D01*
X0202271Y0082159D01*
X0202307Y0082084D01*
X0202339Y0082007D01*
X0202368Y0081929D01*
X0202393Y0081850D01*
X0202414Y0081769D01*
X0202432Y0081688D01*
X0202445Y0081605D01*
X0202455Y0081522D01*
X0202461Y0081439D01*
X0202463Y0081356D01*
X0202463Y0079578D01*
X0202461Y0079495D01*
X0202455Y0079412D01*
X0202445Y0079329D01*
X0202432Y0079246D01*
X0202414Y0079165D01*
X0202393Y0079084D01*
X0202368Y0079005D01*
X0202339Y0078927D01*
X0202307Y0078850D01*
X0202271Y0078775D01*
X0202232Y0078701D01*
X0202189Y0078630D01*
X0202143Y0078560D01*
X0202093Y0078493D01*
X0202041Y0078428D01*
X0201986Y0078366D01*
X0201927Y0078306D01*
X0201866Y0078249D01*
X0201803Y0078195D01*
X0201737Y0078144D01*
X0201668Y0078097D01*
X0201598Y0078052D01*
X0201525Y0078011D01*
X0201451Y0077974D01*
X0201375Y0077939D01*
X0201297Y0077909D01*
X0201219Y0077882D01*
X0201138Y0077859D01*
X0201057Y0077839D01*
X0200975Y0077824D01*
X0200893Y0077812D01*
X0200810Y0077804D01*
X0200727Y0077800D01*
X0200643Y0077800D01*
X0200560Y0077804D01*
X0200477Y0077812D01*
X0200395Y0077824D01*
X0200313Y0077839D01*
X0200232Y0077859D01*
X0200151Y0077882D01*
X0200073Y0077909D01*
X0199995Y0077939D01*
X0199919Y0077974D01*
X0199845Y0078011D01*
X0199772Y0078052D01*
X0199702Y0078097D01*
X0199633Y0078144D01*
X0199567Y0078195D01*
X0199504Y0078249D01*
X0199443Y0078306D01*
X0199384Y0078366D01*
X0199329Y0078428D01*
X0199277Y0078493D01*
X0199227Y0078560D01*
X0199181Y0078630D01*
X0199138Y0078701D01*
X0199099Y0078775D01*
X0199063Y0078850D01*
X0199031Y0078927D01*
X0199002Y0079005D01*
X0198977Y0079084D01*
X0198956Y0079165D01*
X0198938Y0079246D01*
X0198925Y0079329D01*
X0198915Y0079412D01*
X0198909Y0079495D01*
X0198907Y0079578D01*
X0205638Y0077800D02*
X0207416Y0077800D01*
X0207488Y0077802D01*
X0207560Y0077808D01*
X0207632Y0077818D01*
X0207703Y0077831D01*
X0207773Y0077849D01*
X0207842Y0077870D01*
X0207909Y0077895D01*
X0207976Y0077923D01*
X0208040Y0077955D01*
X0208103Y0077991D01*
X0208164Y0078030D01*
X0208223Y0078072D01*
X0208279Y0078117D01*
X0208333Y0078165D01*
X0208384Y0078216D01*
X0208432Y0078270D01*
X0208477Y0078326D01*
X0208519Y0078385D01*
X0208558Y0078446D01*
X0208594Y0078509D01*
X0208626Y0078573D01*
X0208654Y0078640D01*
X0208679Y0078707D01*
X0208700Y0078776D01*
X0208718Y0078846D01*
X0208731Y0078917D01*
X0208741Y0078989D01*
X0208747Y0079061D01*
X0208749Y0079133D01*
X0208749Y0081800D01*
X0208747Y0081872D01*
X0208741Y0081944D01*
X0208731Y0082016D01*
X0208718Y0082087D01*
X0208700Y0082157D01*
X0208679Y0082226D01*
X0208654Y0082293D01*
X0208626Y0082360D01*
X0208594Y0082424D01*
X0208558Y0082487D01*
X0208519Y0082548D01*
X0208477Y0082607D01*
X0208432Y0082663D01*
X0208384Y0082717D01*
X0208333Y0082768D01*
X0208279Y0082816D01*
X0208223Y0082861D01*
X0208164Y0082903D01*
X0208103Y0082942D01*
X0208040Y0082978D01*
X0207976Y0083010D01*
X0207909Y0083038D01*
X0207842Y0083063D01*
X0207773Y0083084D01*
X0207703Y0083102D01*
X0207632Y0083115D01*
X0207560Y0083125D01*
X0207488Y0083131D01*
X0207416Y0083133D01*
X0205638Y0083133D01*
X0211508Y0083133D02*
X0211508Y0082244D01*
X0211508Y0083133D02*
X0214175Y0083133D01*
X0214175Y0077800D01*
X0218418Y0077800D02*
X0218418Y0081800D01*
X0218418Y0080911D02*
X0220418Y0080911D01*
X0218418Y0081800D02*
X0218420Y0081872D01*
X0218426Y0081944D01*
X0218436Y0082016D01*
X0218449Y0082087D01*
X0218467Y0082157D01*
X0218488Y0082226D01*
X0218513Y0082293D01*
X0218541Y0082360D01*
X0218573Y0082424D01*
X0218609Y0082487D01*
X0218648Y0082548D01*
X0218690Y0082607D01*
X0218735Y0082663D01*
X0218783Y0082717D01*
X0218834Y0082768D01*
X0218888Y0082816D01*
X0218944Y0082861D01*
X0219003Y0082903D01*
X0219064Y0082942D01*
X0219127Y0082978D01*
X0219191Y0083010D01*
X0219258Y0083038D01*
X0219325Y0083063D01*
X0219394Y0083084D01*
X0219464Y0083102D01*
X0219535Y0083115D01*
X0219607Y0083125D01*
X0219679Y0083131D01*
X0219751Y0083133D01*
X0221529Y0083133D01*
X0220418Y0080912D02*
X0220496Y0080910D01*
X0220573Y0080904D01*
X0220650Y0080895D01*
X0220726Y0080881D01*
X0220802Y0080864D01*
X0220877Y0080843D01*
X0220950Y0080818D01*
X0221022Y0080790D01*
X0221093Y0080758D01*
X0221162Y0080723D01*
X0221229Y0080684D01*
X0221295Y0080642D01*
X0221358Y0080596D01*
X0221418Y0080548D01*
X0221476Y0080497D01*
X0221532Y0080442D01*
X0221585Y0080386D01*
X0221635Y0080326D01*
X0221681Y0080264D01*
X0221725Y0080200D01*
X0221766Y0080134D01*
X0221803Y0080066D01*
X0221836Y0079996D01*
X0221866Y0079924D01*
X0221893Y0079852D01*
X0221916Y0079777D01*
X0221935Y0079702D01*
X0221950Y0079626D01*
X0221962Y0079549D01*
X0221970Y0079472D01*
X0221974Y0079395D01*
X0221974Y0079317D01*
X0221970Y0079240D01*
X0221962Y0079163D01*
X0221950Y0079086D01*
X0221935Y0079010D01*
X0221916Y0078935D01*
X0221893Y0078860D01*
X0221866Y0078788D01*
X0221836Y0078716D01*
X0221803Y0078646D01*
X0221766Y0078578D01*
X0221725Y0078512D01*
X0221681Y0078448D01*
X0221635Y0078386D01*
X0221585Y0078326D01*
X0221532Y0078270D01*
X0221476Y0078215D01*
X0221418Y0078164D01*
X0221358Y0078116D01*
X0221295Y0078070D01*
X0221229Y0078028D01*
X0221162Y0077989D01*
X0221093Y0077954D01*
X0221022Y0077922D01*
X0220950Y0077894D01*
X0220877Y0077869D01*
X0220802Y0077848D01*
X0220726Y0077831D01*
X0220650Y0077817D01*
X0220573Y0077808D01*
X0220496Y0077802D01*
X0220418Y0077800D01*
X0218418Y0077800D01*
X0225967Y0077800D02*
X0225967Y0085800D01*
X0228633Y0081356D01*
X0231300Y0085800D01*
X0231300Y0077800D01*
X0231300Y0092800D02*
X0227744Y0092800D01*
X0231300Y0092800D02*
X0231300Y0100800D01*
X0224192Y0098133D02*
X0222415Y0098133D01*
X0222343Y0098131D01*
X0222271Y0098125D01*
X0222199Y0098115D01*
X0222128Y0098102D01*
X0222058Y0098084D01*
X0221989Y0098063D01*
X0221922Y0098038D01*
X0221855Y0098010D01*
X0221791Y0097978D01*
X0221728Y0097942D01*
X0221667Y0097903D01*
X0221608Y0097861D01*
X0221552Y0097816D01*
X0221498Y0097768D01*
X0221447Y0097717D01*
X0221399Y0097663D01*
X0221354Y0097607D01*
X0221312Y0097548D01*
X0221273Y0097487D01*
X0221237Y0097424D01*
X0221205Y0097360D01*
X0221177Y0097293D01*
X0221152Y0097226D01*
X0221131Y0097157D01*
X0221113Y0097087D01*
X0221100Y0097016D01*
X0221090Y0096944D01*
X0221084Y0096872D01*
X0221082Y0096800D01*
X0221081Y0096800D02*
X0221081Y0092800D01*
X0223081Y0092800D01*
X0223159Y0092802D01*
X0223236Y0092808D01*
X0223313Y0092817D01*
X0223389Y0092831D01*
X0223465Y0092848D01*
X0223540Y0092869D01*
X0223613Y0092894D01*
X0223685Y0092922D01*
X0223756Y0092954D01*
X0223825Y0092989D01*
X0223892Y0093028D01*
X0223958Y0093070D01*
X0224021Y0093116D01*
X0224081Y0093164D01*
X0224139Y0093215D01*
X0224195Y0093270D01*
X0224248Y0093326D01*
X0224298Y0093386D01*
X0224344Y0093448D01*
X0224388Y0093512D01*
X0224429Y0093578D01*
X0224466Y0093646D01*
X0224499Y0093716D01*
X0224529Y0093788D01*
X0224556Y0093860D01*
X0224579Y0093935D01*
X0224598Y0094010D01*
X0224613Y0094086D01*
X0224625Y0094163D01*
X0224633Y0094240D01*
X0224637Y0094317D01*
X0224637Y0094395D01*
X0224633Y0094472D01*
X0224625Y0094549D01*
X0224613Y0094626D01*
X0224598Y0094702D01*
X0224579Y0094777D01*
X0224556Y0094852D01*
X0224529Y0094924D01*
X0224499Y0094996D01*
X0224466Y0095066D01*
X0224429Y0095134D01*
X0224388Y0095200D01*
X0224344Y0095264D01*
X0224298Y0095326D01*
X0224248Y0095386D01*
X0224195Y0095442D01*
X0224139Y0095497D01*
X0224081Y0095548D01*
X0224021Y0095596D01*
X0223958Y0095642D01*
X0223892Y0095684D01*
X0223825Y0095723D01*
X0223756Y0095758D01*
X0223685Y0095790D01*
X0223613Y0095818D01*
X0223540Y0095843D01*
X0223465Y0095864D01*
X0223389Y0095881D01*
X0223313Y0095895D01*
X0223236Y0095904D01*
X0223159Y0095910D01*
X0223081Y0095912D01*
X0223081Y0095911D02*
X0221081Y0095911D01*
X0216852Y0098133D02*
X0214630Y0098133D01*
X0214558Y0098131D01*
X0214486Y0098125D01*
X0214414Y0098115D01*
X0214343Y0098102D01*
X0214273Y0098084D01*
X0214204Y0098063D01*
X0214137Y0098038D01*
X0214070Y0098010D01*
X0214006Y0097978D01*
X0213943Y0097942D01*
X0213882Y0097903D01*
X0213823Y0097861D01*
X0213767Y0097816D01*
X0213713Y0097768D01*
X0213662Y0097717D01*
X0213614Y0097663D01*
X0213569Y0097607D01*
X0213527Y0097548D01*
X0213488Y0097487D01*
X0213452Y0097424D01*
X0213420Y0097360D01*
X0213392Y0097293D01*
X0213367Y0097226D01*
X0213346Y0097157D01*
X0213328Y0097087D01*
X0213315Y0097016D01*
X0213305Y0096944D01*
X0213299Y0096872D01*
X0213297Y0096800D01*
X0213297Y0094133D01*
X0213299Y0094061D01*
X0213305Y0093989D01*
X0213315Y0093917D01*
X0213328Y0093846D01*
X0213346Y0093776D01*
X0213367Y0093707D01*
X0213392Y0093640D01*
X0213420Y0093573D01*
X0213452Y0093509D01*
X0213488Y0093446D01*
X0213527Y0093385D01*
X0213569Y0093326D01*
X0213614Y0093270D01*
X0213662Y0093216D01*
X0213713Y0093165D01*
X0213767Y0093117D01*
X0213823Y0093072D01*
X0213882Y0093030D01*
X0213943Y0092991D01*
X0214006Y0092955D01*
X0214070Y0092923D01*
X0214137Y0092895D01*
X0214204Y0092870D01*
X0214273Y0092849D01*
X0214343Y0092831D01*
X0214414Y0092818D01*
X0214486Y0092808D01*
X0214558Y0092802D01*
X0214630Y0092800D01*
X0216852Y0092800D01*
X0216852Y0100800D01*
X0210147Y0093244D02*
X0209703Y0093244D01*
X0209703Y0092800D01*
X0210147Y0092800D01*
X0210147Y0093244D01*
D12*
X0156900Y0155000D03*
X0137700Y0156000D03*
X0137900Y0147400D03*
X0137700Y0147200D03*
X0137300Y0147000D03*
X0137100Y0146800D03*
X0123700Y0125600D03*
X0115500Y0155400D03*
X0095100Y0156000D03*
X0095300Y0137200D03*
D13*
X0095400Y0137400D03*
X0095200Y0155800D03*
X0123600Y0127200D03*
X0123600Y0125800D03*
X0137600Y0155800D03*
X0157000Y0154800D03*
D14*
X0157100Y0154600D03*
X0123700Y0127000D03*
X0123700Y0126800D03*
X0123700Y0126600D03*
X0123700Y0126400D03*
X0123700Y0126200D03*
X0123700Y0126000D03*
X0078300Y0136600D03*
X0078300Y0136800D03*
X0078300Y0137000D03*
X0078300Y0137200D03*
X0078300Y0137400D03*
X0078300Y0137600D03*
X0078300Y0137800D03*
X0078300Y0138000D03*
D15*
X0123600Y0127400D03*
X0180000Y0166400D03*
D16*
X0156700Y0156200D03*
X0137500Y0156800D03*
X0134700Y0145400D03*
X0126100Y0161800D03*
X0123900Y0127600D03*
X0098900Y0139200D03*
X0095300Y0136600D03*
X0095100Y0156600D03*
D17*
X0099400Y0139400D03*
X0115400Y0156600D03*
X0122600Y0137800D03*
X0117400Y0136600D03*
X0124000Y0127800D03*
X0134000Y0145000D03*
X0164600Y0153600D03*
X0180000Y0138800D03*
X0080600Y0155200D03*
X0080600Y0155400D03*
X0080600Y0155600D03*
X0080600Y0155800D03*
X0080600Y0156000D03*
X0080600Y0156200D03*
X0078600Y0138400D03*
D18*
X0078700Y0138600D03*
X0070500Y0156400D03*
X0095100Y0157000D03*
X0100500Y0140200D03*
X0100300Y0140000D03*
X0112100Y0153800D03*
X0112300Y0154000D03*
X0117500Y0136400D03*
X0124100Y0128000D03*
X0133300Y0144600D03*
X0141700Y0149600D03*
X0142300Y0138000D03*
D19*
X0142500Y0138200D03*
X0133100Y0144400D03*
X0123300Y0153400D03*
X0111900Y0153600D03*
X0111700Y0153400D03*
X0101100Y0140800D03*
X0100900Y0140600D03*
X0078700Y0138800D03*
X0124100Y0128200D03*
X0154100Y0154200D03*
X0164900Y0152800D03*
X0165500Y0138600D03*
D20*
X0165500Y0138800D03*
X0165100Y0152400D03*
X0142300Y0150000D03*
X0142700Y0138400D03*
X0133300Y0155000D03*
X0123500Y0153200D03*
X0111300Y0152800D03*
X0111100Y0152600D03*
X0101700Y0141800D03*
X0101500Y0141400D03*
X0123500Y0138600D03*
X0124100Y0128400D03*
X0078700Y0139000D03*
X0078100Y0151800D03*
X0078100Y0152000D03*
X0068700Y0154200D03*
D21*
X0068300Y0153600D03*
X0078300Y0151200D03*
X0078300Y0151000D03*
X0079500Y0154400D03*
X0078700Y0139200D03*
X0091500Y0155400D03*
X0102500Y0143800D03*
X0102300Y0143200D03*
X0102300Y0143000D03*
X0102100Y0142800D03*
X0102100Y0142600D03*
X0110500Y0151200D03*
X0110700Y0151600D03*
X0110700Y0151800D03*
X0110900Y0152200D03*
X0114300Y0137800D03*
X0117500Y0136200D03*
X0123700Y0139000D03*
X0124100Y0128600D03*
X0123700Y0152800D03*
X0132500Y0153800D03*
X0132500Y0154000D03*
X0132700Y0154200D03*
X0142500Y0150200D03*
X0142900Y0138600D03*
X0152900Y0139200D03*
X0153500Y0153600D03*
X0156700Y0157000D03*
X0165100Y0152200D03*
X0165500Y0139200D03*
X0179900Y0140200D03*
D22*
X0180000Y0140400D03*
X0180000Y0140600D03*
X0180000Y0140800D03*
X0180000Y0141000D03*
X0180000Y0141200D03*
X0180000Y0141400D03*
X0180000Y0141600D03*
X0180000Y0141800D03*
X0180000Y0142000D03*
X0180000Y0142200D03*
X0180000Y0142400D03*
X0180000Y0142600D03*
X0180000Y0142800D03*
X0180000Y0143000D03*
X0180000Y0143200D03*
X0180000Y0143400D03*
X0180000Y0143600D03*
X0180000Y0143800D03*
X0180000Y0144000D03*
X0180000Y0144200D03*
X0180000Y0144400D03*
X0180000Y0144600D03*
X0180000Y0144800D03*
X0180000Y0145000D03*
X0180000Y0145200D03*
X0180000Y0145400D03*
X0180000Y0145600D03*
X0180000Y0145800D03*
X0180000Y0146000D03*
X0180000Y0146200D03*
X0180000Y0146400D03*
X0180000Y0146600D03*
X0180000Y0146800D03*
X0180000Y0147000D03*
X0180000Y0147200D03*
X0180000Y0147400D03*
X0180000Y0147600D03*
X0180000Y0147800D03*
X0180000Y0148000D03*
X0180000Y0148200D03*
X0180000Y0148400D03*
X0180000Y0148600D03*
X0180000Y0148800D03*
X0180000Y0149000D03*
X0180000Y0149200D03*
X0180000Y0149400D03*
X0180000Y0149600D03*
X0180000Y0149800D03*
X0180000Y0150000D03*
X0180000Y0150200D03*
X0180000Y0150400D03*
X0180000Y0150600D03*
X0180000Y0150800D03*
X0180000Y0151000D03*
X0180000Y0151200D03*
X0180000Y0151400D03*
X0180000Y0151600D03*
X0180000Y0151800D03*
X0180000Y0152000D03*
X0180000Y0152200D03*
X0180000Y0152400D03*
X0180000Y0152600D03*
X0180000Y0152800D03*
X0180000Y0153000D03*
X0180000Y0153200D03*
X0180000Y0153400D03*
X0180000Y0153600D03*
X0180000Y0153800D03*
X0180000Y0154000D03*
X0180000Y0154200D03*
X0180000Y0154400D03*
X0180000Y0154600D03*
X0180000Y0154800D03*
X0180000Y0155000D03*
X0180000Y0155200D03*
X0180000Y0155400D03*
X0180000Y0155600D03*
X0180000Y0155800D03*
X0180000Y0156000D03*
X0180000Y0156200D03*
X0180000Y0156400D03*
X0180000Y0156600D03*
X0180000Y0156800D03*
X0180000Y0157000D03*
X0180000Y0157200D03*
X0180000Y0157400D03*
X0180000Y0157600D03*
X0180000Y0157800D03*
X0180000Y0158000D03*
X0180000Y0158200D03*
X0180000Y0158400D03*
X0180000Y0158600D03*
X0180000Y0158800D03*
X0180000Y0159000D03*
X0180000Y0159200D03*
X0180000Y0159400D03*
X0180000Y0159600D03*
X0180000Y0159800D03*
X0180000Y0160000D03*
X0180000Y0160200D03*
X0180000Y0160400D03*
X0180000Y0160600D03*
X0180000Y0160800D03*
X0180000Y0161000D03*
X0180000Y0161200D03*
X0180000Y0161400D03*
X0180000Y0161600D03*
X0180000Y0161800D03*
X0180000Y0162000D03*
X0180000Y0162200D03*
X0180000Y0162400D03*
X0180000Y0162600D03*
X0180000Y0162800D03*
X0180000Y0163000D03*
X0180000Y0163200D03*
X0180000Y0163400D03*
X0180000Y0163600D03*
X0180000Y0163800D03*
X0180000Y0164000D03*
X0180000Y0164200D03*
X0180000Y0164400D03*
X0165800Y0156600D03*
X0165200Y0152000D03*
X0165600Y0139400D03*
X0152800Y0139400D03*
X0153200Y0153000D03*
X0153200Y0153200D03*
X0153400Y0153400D03*
X0142800Y0150400D03*
X0143000Y0138800D03*
X0132400Y0143800D03*
X0132400Y0153400D03*
X0132400Y0153600D03*
X0123800Y0139400D03*
X0123800Y0139200D03*
X0124200Y0128800D03*
X0110200Y0150000D03*
X0110200Y0150200D03*
X0110200Y0150400D03*
X0110400Y0150800D03*
X0110400Y0151000D03*
X0110600Y0151400D03*
X0102800Y0145400D03*
X0102800Y0145200D03*
X0102800Y0145000D03*
X0102600Y0144400D03*
X0102600Y0144200D03*
X0102600Y0144000D03*
X0102400Y0143600D03*
X0102400Y0143400D03*
X0091200Y0155200D03*
X0078400Y0150800D03*
X0078400Y0150600D03*
X0078800Y0139400D03*
X0070400Y0156800D03*
X0068200Y0153400D03*
X0068200Y0153200D03*
X0068200Y0153000D03*
D23*
X0068100Y0152800D03*
X0068100Y0152600D03*
X0068100Y0152400D03*
X0078500Y0150400D03*
X0078500Y0150200D03*
X0078500Y0150000D03*
X0079300Y0154200D03*
X0088500Y0150400D03*
X0088500Y0150200D03*
X0088500Y0150000D03*
X0088500Y0149800D03*
X0090900Y0155000D03*
X0095100Y0157200D03*
X0102900Y0147400D03*
X0102900Y0147200D03*
X0102900Y0147000D03*
X0102900Y0146800D03*
X0102900Y0146600D03*
X0102900Y0146400D03*
X0102900Y0146200D03*
X0102900Y0146000D03*
X0102900Y0145800D03*
X0102900Y0145600D03*
X0102700Y0144800D03*
X0102700Y0144600D03*
X0109900Y0148000D03*
X0109900Y0148200D03*
X0109900Y0148400D03*
X0109900Y0148600D03*
X0109900Y0148800D03*
X0110100Y0149200D03*
X0110100Y0149400D03*
X0110100Y0149600D03*
X0110100Y0149800D03*
X0110300Y0150600D03*
X0113500Y0138200D03*
X0113900Y0138000D03*
X0123900Y0139600D03*
X0132100Y0143400D03*
X0132300Y0143600D03*
X0132300Y0153200D03*
X0123900Y0152600D03*
X0124300Y0161000D03*
X0124300Y0162800D03*
X0142900Y0150600D03*
X0153100Y0152600D03*
X0153100Y0152800D03*
X0152900Y0139600D03*
X0165500Y0139600D03*
X0165500Y0139800D03*
X0165300Y0151800D03*
X0124100Y0129200D03*
X0124100Y0129000D03*
X0078700Y0139600D03*
D24*
X0078800Y0139800D03*
X0078800Y0140000D03*
X0078800Y0140200D03*
X0078800Y0140400D03*
X0078800Y0140600D03*
X0078800Y0140800D03*
X0078600Y0149000D03*
X0078600Y0149200D03*
X0078600Y0149400D03*
X0078600Y0149600D03*
X0078600Y0149800D03*
X0079200Y0154000D03*
X0088600Y0151200D03*
X0088600Y0151000D03*
X0088600Y0150800D03*
X0088600Y0150600D03*
X0088800Y0151600D03*
X0088800Y0151800D03*
X0089200Y0152800D03*
X0089400Y0153200D03*
X0090200Y0154400D03*
X0090400Y0154600D03*
X0090600Y0154800D03*
X0099000Y0155400D03*
X0110000Y0149000D03*
X0109800Y0147800D03*
X0109800Y0147600D03*
X0109800Y0147400D03*
X0109800Y0147200D03*
X0109800Y0147000D03*
X0109800Y0146800D03*
X0109800Y0146600D03*
X0109800Y0146400D03*
X0109800Y0146200D03*
X0109800Y0146000D03*
X0113200Y0138400D03*
X0124000Y0139800D03*
X0124000Y0140000D03*
X0124000Y0140200D03*
X0124200Y0130000D03*
X0124200Y0129800D03*
X0124200Y0129600D03*
X0124200Y0129400D03*
X0134000Y0137800D03*
X0143200Y0139000D03*
X0143000Y0150800D03*
X0138200Y0157200D03*
X0132400Y0153000D03*
X0124000Y0152400D03*
X0124200Y0160600D03*
X0124200Y0160800D03*
X0153000Y0152400D03*
X0153000Y0152200D03*
X0153000Y0152000D03*
X0152800Y0140400D03*
X0152800Y0140200D03*
X0152800Y0140000D03*
X0152800Y0139800D03*
X0165600Y0140000D03*
X0165600Y0140200D03*
X0165400Y0151600D03*
X0068200Y0152000D03*
X0068200Y0152200D03*
D25*
X0068100Y0151800D03*
X0078700Y0148800D03*
X0078700Y0148600D03*
X0078700Y0148400D03*
X0078700Y0148200D03*
X0078700Y0148000D03*
X0078700Y0147800D03*
X0078700Y0147600D03*
X0078700Y0147400D03*
X0078700Y0147200D03*
X0078700Y0147000D03*
X0078700Y0146800D03*
X0078700Y0146600D03*
X0078700Y0146400D03*
X0078700Y0146200D03*
X0078700Y0146000D03*
X0078700Y0145800D03*
X0078700Y0145600D03*
X0078700Y0145400D03*
X0078700Y0145200D03*
X0078700Y0145000D03*
X0078700Y0144800D03*
X0078700Y0144600D03*
X0078700Y0144400D03*
X0078700Y0144200D03*
X0078700Y0144000D03*
X0078700Y0143800D03*
X0078700Y0143600D03*
X0078700Y0143400D03*
X0078700Y0143200D03*
X0078700Y0143000D03*
X0078700Y0142800D03*
X0078700Y0142600D03*
X0078700Y0142400D03*
X0078700Y0142200D03*
X0078700Y0142000D03*
X0078700Y0141800D03*
X0078700Y0141600D03*
X0078700Y0141400D03*
X0078700Y0141200D03*
X0078700Y0141000D03*
X0089700Y0139400D03*
X0088700Y0151400D03*
X0088900Y0152000D03*
X0088900Y0152200D03*
X0089100Y0152400D03*
X0089100Y0152600D03*
X0089300Y0153000D03*
X0089500Y0153400D03*
X0089700Y0153600D03*
X0089700Y0153800D03*
X0089900Y0154000D03*
X0090100Y0154200D03*
X0099500Y0155200D03*
X0102300Y0151200D03*
X0102500Y0150800D03*
X0102500Y0150600D03*
X0102500Y0150400D03*
X0102500Y0150200D03*
X0102700Y0150000D03*
X0102700Y0149800D03*
X0109900Y0145800D03*
X0109900Y0145600D03*
X0109900Y0145400D03*
X0109900Y0145200D03*
X0109900Y0145000D03*
X0109900Y0144800D03*
X0109900Y0144600D03*
X0110100Y0144400D03*
X0110100Y0144200D03*
X0110100Y0144000D03*
X0110100Y0143800D03*
X0110300Y0143000D03*
X0110500Y0142400D03*
X0112500Y0139000D03*
X0112700Y0138800D03*
X0112900Y0138600D03*
X0124100Y0137000D03*
X0124100Y0136800D03*
X0124100Y0136600D03*
X0124100Y0136400D03*
X0124100Y0136200D03*
X0124100Y0136000D03*
X0124100Y0135800D03*
X0124100Y0135600D03*
X0124100Y0135400D03*
X0124100Y0135200D03*
X0124100Y0135000D03*
X0124100Y0134800D03*
X0124100Y0134600D03*
X0124100Y0134400D03*
X0124100Y0134200D03*
X0124100Y0134000D03*
X0124100Y0133800D03*
X0124100Y0133600D03*
X0124100Y0133400D03*
X0124100Y0133200D03*
X0124100Y0133000D03*
X0124100Y0132800D03*
X0124100Y0132600D03*
X0124100Y0132400D03*
X0124100Y0132200D03*
X0124100Y0132000D03*
X0124100Y0131800D03*
X0124100Y0131600D03*
X0124100Y0131400D03*
X0124100Y0131200D03*
X0124100Y0131000D03*
X0124100Y0130800D03*
X0124100Y0130600D03*
X0124100Y0130400D03*
X0124100Y0130200D03*
X0124100Y0140400D03*
X0124100Y0140600D03*
X0124100Y0140800D03*
X0124100Y0141000D03*
X0124100Y0141200D03*
X0124100Y0141400D03*
X0124100Y0141600D03*
X0124100Y0141800D03*
X0124100Y0142000D03*
X0124100Y0142200D03*
X0124100Y0142400D03*
X0124100Y0142600D03*
X0124100Y0142800D03*
X0124100Y0143000D03*
X0124100Y0143200D03*
X0124100Y0143400D03*
X0124100Y0143600D03*
X0124100Y0143800D03*
X0124100Y0144000D03*
X0124100Y0144200D03*
X0124100Y0144400D03*
X0124100Y0144600D03*
X0124100Y0144800D03*
X0124100Y0145000D03*
X0124100Y0145200D03*
X0124100Y0145400D03*
X0124100Y0145600D03*
X0124100Y0145800D03*
X0124100Y0146000D03*
X0124100Y0146200D03*
X0124100Y0146400D03*
X0124100Y0146600D03*
X0124100Y0146800D03*
X0124100Y0147000D03*
X0124100Y0147200D03*
X0124100Y0147400D03*
X0124100Y0147600D03*
X0124100Y0147800D03*
X0124100Y0148000D03*
X0124100Y0148200D03*
X0124100Y0148400D03*
X0124100Y0148600D03*
X0124100Y0148800D03*
X0124100Y0149000D03*
X0124100Y0149200D03*
X0124100Y0149400D03*
X0124100Y0149600D03*
X0124100Y0149800D03*
X0124100Y0150000D03*
X0124100Y0150200D03*
X0124100Y0150400D03*
X0124100Y0150600D03*
X0124100Y0150800D03*
X0124100Y0151000D03*
X0124100Y0151200D03*
X0124100Y0151400D03*
X0124100Y0151600D03*
X0124100Y0151800D03*
X0124100Y0152000D03*
X0124100Y0152200D03*
X0124100Y0154800D03*
X0124100Y0155000D03*
X0124100Y0155200D03*
X0124100Y0155400D03*
X0124100Y0155600D03*
X0124100Y0155800D03*
X0124100Y0156000D03*
X0124100Y0156200D03*
X0124100Y0156400D03*
X0124100Y0156600D03*
X0124100Y0156800D03*
X0124100Y0157000D03*
X0124100Y0157200D03*
X0124100Y0157400D03*
X0124100Y0157600D03*
X0124100Y0157800D03*
X0124100Y0158000D03*
X0124100Y0158200D03*
X0124100Y0158400D03*
X0124100Y0158600D03*
X0124100Y0158800D03*
X0124100Y0159000D03*
X0124100Y0159200D03*
X0124100Y0159400D03*
X0124100Y0159600D03*
X0124100Y0159800D03*
X0124100Y0160000D03*
X0124100Y0160200D03*
X0124100Y0160400D03*
X0132300Y0152800D03*
X0132300Y0152600D03*
X0131900Y0143200D03*
X0131900Y0143000D03*
X0143300Y0139200D03*
X0143100Y0151000D03*
X0152900Y0151000D03*
X0152900Y0151200D03*
X0152900Y0151400D03*
X0152900Y0151600D03*
X0152900Y0151800D03*
X0152900Y0150800D03*
X0152900Y0150600D03*
X0152900Y0150400D03*
X0152900Y0150200D03*
X0152900Y0150000D03*
X0152900Y0149800D03*
X0152900Y0149600D03*
X0152900Y0149400D03*
X0152900Y0149200D03*
X0152900Y0149000D03*
X0152900Y0148800D03*
X0152900Y0148600D03*
X0152900Y0148400D03*
X0152900Y0148200D03*
X0152900Y0148000D03*
X0152900Y0147800D03*
X0152900Y0147600D03*
X0152900Y0147400D03*
X0152900Y0147200D03*
X0152900Y0147000D03*
X0152900Y0146800D03*
X0152900Y0146600D03*
X0152900Y0146400D03*
X0152900Y0146200D03*
X0152900Y0146000D03*
X0152900Y0145800D03*
X0152900Y0145600D03*
X0152900Y0145400D03*
X0152900Y0145200D03*
X0152900Y0145000D03*
X0152900Y0144800D03*
X0152900Y0144600D03*
X0152900Y0144400D03*
X0152900Y0144200D03*
X0152900Y0144000D03*
X0152900Y0143800D03*
X0152900Y0143600D03*
X0152900Y0143400D03*
X0152900Y0143200D03*
X0152900Y0143000D03*
X0152900Y0142800D03*
X0152900Y0142600D03*
X0152900Y0142400D03*
X0152900Y0142200D03*
X0152900Y0142000D03*
X0152900Y0141800D03*
X0152900Y0141600D03*
X0152900Y0141400D03*
X0152900Y0141200D03*
X0152900Y0141000D03*
X0152900Y0140800D03*
X0152900Y0140600D03*
X0165500Y0140600D03*
X0165500Y0140800D03*
X0165500Y0141000D03*
X0165500Y0141200D03*
X0165500Y0141400D03*
X0165500Y0141600D03*
X0165500Y0141800D03*
X0165500Y0142000D03*
X0165500Y0142200D03*
X0165500Y0142400D03*
X0165500Y0142600D03*
X0165500Y0142800D03*
X0165500Y0143000D03*
X0165500Y0143200D03*
X0165500Y0143400D03*
X0165500Y0143600D03*
X0165500Y0143800D03*
X0165500Y0144000D03*
X0165500Y0144200D03*
X0165500Y0144400D03*
X0165500Y0144600D03*
X0165500Y0144800D03*
X0165500Y0145000D03*
X0165500Y0145200D03*
X0165500Y0145400D03*
X0165500Y0145600D03*
X0165500Y0145800D03*
X0165500Y0146000D03*
X0165500Y0146200D03*
X0165500Y0146400D03*
X0165500Y0146600D03*
X0165500Y0146800D03*
X0165500Y0147000D03*
X0165500Y0147200D03*
X0165500Y0147400D03*
X0165500Y0147600D03*
X0165500Y0147800D03*
X0165500Y0148000D03*
X0165500Y0148200D03*
X0165500Y0148400D03*
X0165500Y0148600D03*
X0165500Y0148800D03*
X0165500Y0149000D03*
X0165500Y0149200D03*
X0165500Y0149400D03*
X0165500Y0149600D03*
X0165500Y0149800D03*
X0165500Y0150000D03*
X0165500Y0150200D03*
X0165500Y0150400D03*
X0165500Y0150600D03*
X0165500Y0150800D03*
X0165500Y0151000D03*
X0165500Y0151200D03*
X0165500Y0151400D03*
X0165500Y0140400D03*
X0079100Y0153600D03*
X0079100Y0153800D03*
D26*
X0088700Y0140000D03*
X0068100Y0151200D03*
X0132300Y0152200D03*
X0131700Y0141400D03*
X0131700Y0141200D03*
X0131700Y0141000D03*
X0131700Y0140800D03*
X0131700Y0140600D03*
X0132300Y0139200D03*
X0132700Y0138600D03*
X0137300Y0136000D03*
X0143700Y0140200D03*
X0143300Y0152400D03*
X0143300Y0152600D03*
X0143300Y0152800D03*
X0143300Y0153000D03*
X0143300Y0153200D03*
X0142500Y0154800D03*
D27*
X0132300Y0152000D03*
X0131300Y0160600D03*
X0143900Y0140800D03*
X0117500Y0136000D03*
X0088300Y0140400D03*
X0088100Y0140600D03*
X0070300Y0157200D03*
D28*
X0068200Y0151400D03*
X0078800Y0157000D03*
X0089000Y0139800D03*
X0095400Y0136000D03*
X0123800Y0163000D03*
X0131600Y0142200D03*
X0131600Y0142000D03*
X0131600Y0141800D03*
X0131600Y0141600D03*
X0133000Y0138400D03*
X0133200Y0138200D03*
X0143600Y0139800D03*
X0143600Y0140000D03*
X0143400Y0151800D03*
X0143400Y0152000D03*
X0143400Y0152200D03*
X0142200Y0155000D03*
X0142000Y0155200D03*
X0161400Y0154200D03*
X0165200Y0156800D03*
D29*
X0165600Y0139000D03*
X0152800Y0139000D03*
X0153600Y0153800D03*
X0137400Y0136200D03*
X0132600Y0144000D03*
X0132800Y0154400D03*
X0132800Y0154600D03*
X0133000Y0154800D03*
X0123600Y0153000D03*
X0115400Y0157000D03*
X0111000Y0152400D03*
X0110800Y0152000D03*
X0102000Y0142400D03*
X0102000Y0142200D03*
X0101800Y0142000D03*
X0101600Y0141600D03*
X0090200Y0139200D03*
X0079600Y0156800D03*
X0078200Y0151600D03*
X0078200Y0151400D03*
X0068600Y0154000D03*
X0068400Y0153800D03*
X0123600Y0138800D03*
X0180000Y0139800D03*
X0180000Y0140000D03*
X0180000Y0164600D03*
X0180000Y0164800D03*
X0180000Y0165000D03*
D30*
X0180000Y0165200D03*
X0166200Y0154200D03*
X0165000Y0152600D03*
X0153800Y0154000D03*
X0152800Y0138800D03*
X0132800Y0144200D03*
X0133600Y0155200D03*
X0124800Y0162600D03*
X0111600Y0153200D03*
X0111400Y0153000D03*
X0101400Y0141200D03*
X0101200Y0141000D03*
X0095400Y0136200D03*
X0079800Y0154600D03*
X0078000Y0152200D03*
X0070400Y0156600D03*
X0123400Y0138400D03*
X0180000Y0139400D03*
X0180000Y0139600D03*
D31*
X0180000Y0136400D03*
X0180000Y0166600D03*
X0180000Y0168200D03*
X0119400Y0137200D03*
D32*
X0139900Y0148600D03*
X0165500Y0136400D03*
X0095100Y0156400D03*
X0070700Y0154800D03*
D33*
X0070800Y0154600D03*
X0095400Y0136800D03*
X0115400Y0156000D03*
X0135400Y0145800D03*
X0137800Y0136800D03*
X0152800Y0136400D03*
X0156800Y0155800D03*
X0180000Y0138400D03*
D34*
X0144600Y0136400D03*
X0070200Y0157400D03*
D35*
X0070500Y0156200D03*
X0100100Y0139800D03*
X0137500Y0136400D03*
X0152900Y0138400D03*
X0165500Y0138400D03*
X0166700Y0154600D03*
D36*
X0166900Y0155000D03*
X0166900Y0155200D03*
X0166900Y0155400D03*
X0166900Y0155600D03*
X0166900Y0155800D03*
X0141900Y0137800D03*
X0125500Y0162200D03*
X0095300Y0136400D03*
X0080500Y0155000D03*
X0080500Y0156400D03*
X0070500Y0156000D03*
D37*
X0078300Y0136400D03*
X0115500Y0155200D03*
D38*
X0180000Y0166800D03*
X0180000Y0168000D03*
X0180000Y0138000D03*
X0180000Y0137800D03*
X0180000Y0136600D03*
D39*
X0165500Y0136600D03*
X0165500Y0138000D03*
X0152900Y0138000D03*
X0139500Y0148400D03*
X0137700Y0156400D03*
X0126700Y0161400D03*
X0070700Y0154400D03*
D40*
X0115400Y0155800D03*
X0135800Y0146000D03*
X0139200Y0148200D03*
X0152800Y0137800D03*
X0152800Y0137600D03*
X0152800Y0137400D03*
X0152800Y0137200D03*
X0152800Y0137000D03*
X0152800Y0136800D03*
X0152800Y0136600D03*
X0156800Y0155600D03*
D41*
X0144400Y0136600D03*
X0138200Y0157400D03*
X0134200Y0158200D03*
X0086800Y0142400D03*
X0075000Y0153600D03*
X0074800Y0153800D03*
D42*
X0134300Y0145200D03*
X0137500Y0136600D03*
X0164500Y0153800D03*
D43*
X0179900Y0167000D03*
X0179900Y0167200D03*
X0179900Y0167400D03*
X0179900Y0167600D03*
X0179900Y0167800D03*
X0179900Y0137600D03*
X0179900Y0137400D03*
X0179900Y0137200D03*
X0179900Y0137000D03*
X0179900Y0136800D03*
X0119100Y0137600D03*
X0095300Y0138600D03*
D44*
X0095100Y0156200D03*
X0126900Y0161200D03*
X0137700Y0156200D03*
X0136100Y0146200D03*
X0165500Y0137800D03*
X0165500Y0137600D03*
X0165500Y0137400D03*
X0165500Y0137200D03*
X0165500Y0137000D03*
X0165500Y0136800D03*
D45*
X0144200Y0136800D03*
X0144200Y0142000D03*
X0144200Y0142200D03*
X0144200Y0142400D03*
X0134600Y0157200D03*
X0134600Y0157400D03*
X0132600Y0159800D03*
X0132400Y0160000D03*
X0123200Y0163200D03*
X0087000Y0142000D03*
X0087000Y0141800D03*
X0087200Y0141600D03*
X0086800Y0142200D03*
X0074400Y0154200D03*
D46*
X0070600Y0155400D03*
X0115400Y0156400D03*
X0117400Y0136800D03*
X0140600Y0149000D03*
X0180000Y0138600D03*
D47*
X0139100Y0137000D03*
D48*
X0135000Y0145600D03*
X0137600Y0156600D03*
X0126400Y0161600D03*
X0117400Y0137000D03*
X0152800Y0138200D03*
X0180000Y0166200D03*
D49*
X0156800Y0155400D03*
X0095400Y0137000D03*
X0078400Y0138200D03*
D50*
X0095400Y0138000D03*
X0139000Y0137200D03*
D51*
X0138800Y0137400D03*
X0180000Y0138200D03*
D52*
X0119300Y0137400D03*
X0095300Y0138400D03*
D53*
X0095300Y0138200D03*
X0138700Y0137600D03*
D54*
X0157100Y0154400D03*
X0095100Y0155600D03*
X0095300Y0137600D03*
D55*
X0095400Y0137800D03*
D56*
X0102400Y0151000D03*
X0102200Y0151400D03*
X0102200Y0151600D03*
X0102200Y0151800D03*
X0102000Y0152000D03*
X0102000Y0152200D03*
X0101800Y0152400D03*
X0101400Y0153200D03*
X0100000Y0154800D03*
X0099800Y0155000D03*
X0110200Y0143600D03*
X0110200Y0143400D03*
X0110200Y0143200D03*
X0110400Y0142800D03*
X0110400Y0142600D03*
X0110600Y0142200D03*
X0110600Y0142000D03*
X0110800Y0141800D03*
X0110800Y0141600D03*
X0111000Y0141200D03*
X0111200Y0140800D03*
X0111400Y0140400D03*
X0111600Y0140200D03*
X0111800Y0139800D03*
X0112000Y0139600D03*
X0112200Y0139400D03*
X0112400Y0139200D03*
X0115400Y0157200D03*
X0131800Y0142800D03*
X0133600Y0138000D03*
X0143400Y0139400D03*
X0143200Y0151200D03*
X0079000Y0152400D03*
X0079000Y0152600D03*
X0079000Y0152800D03*
X0079000Y0153000D03*
X0079000Y0153200D03*
X0079000Y0153400D03*
X0070400Y0157000D03*
X0068200Y0151600D03*
D57*
X0080200Y0154800D03*
X0115400Y0156800D03*
X0123000Y0153800D03*
X0125200Y0162400D03*
X0123000Y0138000D03*
X0164800Y0153200D03*
X0180000Y0165600D03*
X0180000Y0139000D03*
D58*
X0165500Y0138200D03*
X0156700Y0156000D03*
X0140300Y0148800D03*
X0070700Y0155000D03*
D59*
X0100800Y0140400D03*
X0123200Y0138200D03*
X0123200Y0153600D03*
X0134000Y0155400D03*
X0142000Y0149800D03*
X0152800Y0138600D03*
X0156600Y0156800D03*
X0164800Y0153000D03*
X0166400Y0154400D03*
X0166400Y0156400D03*
X0180000Y0165400D03*
X0180000Y0139200D03*
D60*
X0143800Y0140400D03*
X0143800Y0140600D03*
X0132600Y0138800D03*
X0132400Y0139000D03*
X0132200Y0139400D03*
X0132000Y0139600D03*
X0132000Y0139800D03*
X0131800Y0140000D03*
X0131800Y0140200D03*
X0131800Y0140400D03*
X0143200Y0153400D03*
X0143200Y0153600D03*
X0143000Y0153800D03*
X0143000Y0154000D03*
X0142800Y0154200D03*
X0142800Y0154400D03*
X0142600Y0154600D03*
X0130800Y0160800D03*
X0088400Y0140200D03*
D61*
X0095300Y0138800D03*
D62*
X0095300Y0139000D03*
D63*
X0089300Y0139600D03*
X0100900Y0153800D03*
X0100900Y0154000D03*
X0100700Y0154200D03*
X0100500Y0154400D03*
X0100300Y0154600D03*
X0101100Y0153600D03*
X0101300Y0153400D03*
X0101500Y0153000D03*
X0101700Y0152800D03*
X0101700Y0152600D03*
X0110900Y0141400D03*
X0111100Y0141000D03*
X0111300Y0140600D03*
X0111700Y0140000D03*
X0130300Y0161000D03*
X0132300Y0152400D03*
X0131700Y0142600D03*
X0131700Y0142400D03*
X0143500Y0139600D03*
X0143300Y0151400D03*
X0143300Y0151600D03*
X0141700Y0155400D03*
X0156700Y0157200D03*
D64*
X0156600Y0156600D03*
X0164600Y0153400D03*
X0166800Y0154800D03*
X0166800Y0156000D03*
X0166800Y0156200D03*
X0180000Y0165800D03*
X0141400Y0149400D03*
X0133600Y0144800D03*
X0122800Y0154000D03*
X0112600Y0154200D03*
X0099800Y0139600D03*
X0080400Y0156600D03*
D65*
X0087800Y0140800D03*
X0068200Y0151000D03*
X0144000Y0141200D03*
X0144000Y0141000D03*
D66*
X0144100Y0141400D03*
X0144100Y0141600D03*
X0144100Y0141800D03*
X0132300Y0151800D03*
X0132100Y0160200D03*
X0131700Y0160400D03*
X0164700Y0157000D03*
X0087700Y0141000D03*
X0087500Y0141200D03*
X0087300Y0141400D03*
D67*
X0074700Y0154000D03*
X0068100Y0150800D03*
X0132900Y0159600D03*
X0133100Y0159400D03*
X0133300Y0159200D03*
X0133500Y0159000D03*
X0133700Y0158800D03*
X0133900Y0158600D03*
X0134100Y0158400D03*
X0134300Y0158000D03*
X0134500Y0157800D03*
X0134500Y0157600D03*
X0144300Y0143200D03*
X0144300Y0143000D03*
X0144300Y0142800D03*
X0144300Y0142600D03*
D68*
X0115400Y0157400D03*
X0086800Y0142600D03*
X0076000Y0152400D03*
X0075800Y0152600D03*
X0075600Y0152800D03*
D69*
X0086900Y0142800D03*
D70*
X0087100Y0143000D03*
X0122500Y0163400D03*
D71*
X0132300Y0151600D03*
X0144300Y0143400D03*
X0095100Y0157400D03*
X0078100Y0157200D03*
X0075300Y0153400D03*
X0075300Y0153200D03*
X0075500Y0153000D03*
D72*
X0115500Y0155600D03*
X0136500Y0146400D03*
X0138900Y0148000D03*
X0156900Y0155200D03*
D73*
X0138600Y0147800D03*
X0138200Y0147600D03*
X0136800Y0146600D03*
D74*
X0095700Y0147600D03*
X0095500Y0148400D03*
X0095500Y0148600D03*
X0095500Y0148800D03*
X0095500Y0149000D03*
X0095500Y0149200D03*
X0095500Y0149400D03*
D75*
X0095600Y0148200D03*
X0095600Y0148000D03*
X0095600Y0147800D03*
D76*
X0095100Y0156800D03*
X0070500Y0155800D03*
X0122500Y0154200D03*
X0141100Y0149200D03*
X0156700Y0156400D03*
D77*
X0095500Y0149600D03*
D78*
X0068100Y0150600D03*
X0156700Y0157400D03*
X0164100Y0157200D03*
D79*
X0164400Y0154000D03*
X0115400Y0156200D03*
X0070600Y0155200D03*
D80*
X0117800Y0154400D03*
D81*
X0117900Y0154600D03*
D82*
X0115600Y0154800D03*
X0137400Y0155600D03*
D83*
X0115600Y0155000D03*
D84*
X0125800Y0162000D03*
X0137200Y0157000D03*
X0180000Y0166000D03*
X0070600Y0155600D03*
D85*
X0115584Y0299883D02*
X0115584Y0314783D01*
X0111445Y0314783D01*
X0111348Y0314781D01*
X0111250Y0314775D01*
X0111153Y0314766D01*
X0111057Y0314752D01*
X0110961Y0314735D01*
X0110865Y0314714D01*
X0110771Y0314690D01*
X0110678Y0314661D01*
X0110586Y0314630D01*
X0110495Y0314594D01*
X0110405Y0314555D01*
X0110318Y0314512D01*
X0110232Y0314466D01*
X0110148Y0314417D01*
X0110066Y0314365D01*
X0109986Y0314309D01*
X0109908Y0314250D01*
X0109832Y0314188D01*
X0109760Y0314123D01*
X0109689Y0314056D01*
X0109622Y0313985D01*
X0109557Y0313913D01*
X0109495Y0313837D01*
X0109436Y0313759D01*
X0109380Y0313679D01*
X0109328Y0313597D01*
X0109279Y0313513D01*
X0109233Y0313427D01*
X0109190Y0313340D01*
X0109151Y0313250D01*
X0109115Y0313159D01*
X0109084Y0313067D01*
X0109055Y0312974D01*
X0109031Y0312880D01*
X0109010Y0312784D01*
X0108993Y0312688D01*
X0108979Y0312592D01*
X0108970Y0312495D01*
X0108964Y0312398D01*
X0108962Y0312300D01*
X0108962Y0307333D01*
X0108964Y0307236D01*
X0108970Y0307138D01*
X0108979Y0307041D01*
X0108993Y0306945D01*
X0109010Y0306849D01*
X0109031Y0306753D01*
X0109055Y0306659D01*
X0109084Y0306566D01*
X0109115Y0306474D01*
X0109151Y0306383D01*
X0109190Y0306293D01*
X0109233Y0306206D01*
X0109279Y0306120D01*
X0109328Y0306036D01*
X0109380Y0305954D01*
X0109436Y0305874D01*
X0109495Y0305796D01*
X0109557Y0305720D01*
X0109622Y0305648D01*
X0109689Y0305577D01*
X0109760Y0305510D01*
X0109832Y0305445D01*
X0109908Y0305383D01*
X0109986Y0305324D01*
X0110066Y0305268D01*
X0110148Y0305216D01*
X0110232Y0305167D01*
X0110318Y0305121D01*
X0110405Y0305078D01*
X0110495Y0305039D01*
X0110586Y0305003D01*
X0110678Y0304972D01*
X0110771Y0304943D01*
X0110865Y0304919D01*
X0110961Y0304898D01*
X0111057Y0304881D01*
X0111153Y0304867D01*
X0111250Y0304858D01*
X0111348Y0304852D01*
X0111445Y0304850D01*
X0115584Y0304850D01*
X0120021Y0304850D02*
X0129954Y0319750D01*
X0120021Y0319750D02*
X0129954Y0304850D01*
X0141021Y0310644D02*
X0150954Y0310644D01*
X0163286Y0308989D02*
X0163286Y0315611D01*
X0163288Y0315738D01*
X0163294Y0315866D01*
X0163304Y0315993D01*
X0163317Y0316120D01*
X0163335Y0316246D01*
X0163356Y0316372D01*
X0163382Y0316496D01*
X0163411Y0316621D01*
X0163444Y0316744D01*
X0163481Y0316866D01*
X0163521Y0316987D01*
X0163566Y0317106D01*
X0163613Y0317224D01*
X0163665Y0317341D01*
X0163720Y0317456D01*
X0163778Y0317569D01*
X0163841Y0317681D01*
X0163906Y0317790D01*
X0163975Y0317897D01*
X0164047Y0318002D01*
X0164122Y0318105D01*
X0164200Y0318206D01*
X0164282Y0318304D01*
X0164366Y0318399D01*
X0164454Y0318492D01*
X0164544Y0318582D01*
X0164637Y0318670D01*
X0164732Y0318754D01*
X0164830Y0318836D01*
X0164931Y0318914D01*
X0165034Y0318989D01*
X0165139Y0319061D01*
X0165246Y0319130D01*
X0165356Y0319195D01*
X0165467Y0319258D01*
X0165580Y0319316D01*
X0165695Y0319371D01*
X0165812Y0319423D01*
X0165930Y0319471D01*
X0166049Y0319515D01*
X0166170Y0319555D01*
X0166292Y0319592D01*
X0166415Y0319625D01*
X0166540Y0319654D01*
X0166664Y0319680D01*
X0166790Y0319701D01*
X0166916Y0319719D01*
X0167043Y0319732D01*
X0167170Y0319742D01*
X0167298Y0319748D01*
X0167425Y0319750D01*
X0171564Y0319750D01*
X0171564Y0304850D01*
X0167425Y0304850D01*
X0167298Y0304852D01*
X0167170Y0304858D01*
X0167043Y0304868D01*
X0166916Y0304881D01*
X0166790Y0304899D01*
X0166664Y0304920D01*
X0166540Y0304946D01*
X0166415Y0304975D01*
X0166292Y0305008D01*
X0166170Y0305045D01*
X0166049Y0305085D01*
X0165930Y0305129D01*
X0165812Y0305177D01*
X0165695Y0305229D01*
X0165580Y0305284D01*
X0165467Y0305342D01*
X0165356Y0305405D01*
X0165246Y0305470D01*
X0165139Y0305539D01*
X0165034Y0305611D01*
X0164931Y0305686D01*
X0164830Y0305764D01*
X0164732Y0305846D01*
X0164637Y0305930D01*
X0164544Y0306018D01*
X0164454Y0306108D01*
X0164366Y0306201D01*
X0164282Y0306296D01*
X0164200Y0306394D01*
X0164122Y0306495D01*
X0164047Y0306598D01*
X0163975Y0306703D01*
X0163906Y0306810D01*
X0163841Y0306919D01*
X0163778Y0307031D01*
X0163720Y0307144D01*
X0163665Y0307259D01*
X0163613Y0307376D01*
X0163565Y0307494D01*
X0163521Y0307613D01*
X0163481Y0307734D01*
X0163444Y0307856D01*
X0163411Y0307979D01*
X0163382Y0308104D01*
X0163356Y0308228D01*
X0163335Y0308354D01*
X0163317Y0308480D01*
X0163304Y0308607D01*
X0163294Y0308734D01*
X0163288Y0308862D01*
X0163286Y0308989D01*
X0176326Y0304850D02*
X0179637Y0304850D01*
X0179750Y0304852D01*
X0179863Y0304858D01*
X0179976Y0304867D01*
X0180088Y0304881D01*
X0180200Y0304898D01*
X0180311Y0304919D01*
X0180421Y0304944D01*
X0180530Y0304973D01*
X0180639Y0305005D01*
X0180746Y0305041D01*
X0180852Y0305081D01*
X0180956Y0305124D01*
X0181059Y0305171D01*
X0181160Y0305221D01*
X0181260Y0305275D01*
X0181357Y0305332D01*
X0181453Y0305392D01*
X0181546Y0305456D01*
X0181638Y0305523D01*
X0181727Y0305593D01*
X0181813Y0305665D01*
X0181897Y0305741D01*
X0181978Y0305820D01*
X0182057Y0305901D01*
X0182133Y0305985D01*
X0182205Y0306071D01*
X0182275Y0306160D01*
X0182342Y0306252D01*
X0182406Y0306345D01*
X0182466Y0306441D01*
X0182523Y0306538D01*
X0182577Y0306638D01*
X0182627Y0306739D01*
X0182674Y0306842D01*
X0182717Y0306946D01*
X0182757Y0307052D01*
X0182793Y0307159D01*
X0182825Y0307268D01*
X0182854Y0307377D01*
X0182879Y0307487D01*
X0182900Y0307598D01*
X0182917Y0307710D01*
X0182931Y0307822D01*
X0182940Y0307935D01*
X0182946Y0308048D01*
X0182948Y0308161D01*
X0182948Y0316439D01*
X0182946Y0316552D01*
X0182940Y0316665D01*
X0182931Y0316778D01*
X0182917Y0316890D01*
X0182900Y0317002D01*
X0182879Y0317113D01*
X0182854Y0317223D01*
X0182825Y0317332D01*
X0182793Y0317441D01*
X0182757Y0317548D01*
X0182717Y0317654D01*
X0182674Y0317758D01*
X0182627Y0317861D01*
X0182577Y0317962D01*
X0182523Y0318062D01*
X0182466Y0318159D01*
X0182406Y0318255D01*
X0182342Y0318348D01*
X0182275Y0318440D01*
X0182205Y0318529D01*
X0182133Y0318615D01*
X0182057Y0318699D01*
X0181978Y0318780D01*
X0181897Y0318859D01*
X0181813Y0318935D01*
X0181727Y0319007D01*
X0181638Y0319077D01*
X0181546Y0319144D01*
X0181453Y0319208D01*
X0181357Y0319268D01*
X0181260Y0319325D01*
X0181160Y0319379D01*
X0181059Y0319429D01*
X0180956Y0319476D01*
X0180852Y0319519D01*
X0180746Y0319559D01*
X0180639Y0319595D01*
X0180530Y0319627D01*
X0180421Y0319656D01*
X0180311Y0319681D01*
X0180200Y0319702D01*
X0180088Y0319719D01*
X0179976Y0319733D01*
X0179863Y0319742D01*
X0179750Y0319748D01*
X0179637Y0319750D01*
X0176326Y0319750D01*
X0187238Y0304850D02*
X0193861Y0304850D01*
X0193861Y0319750D01*
X0205286Y0319750D02*
X0213564Y0319750D01*
X0216988Y0319750D02*
X0223611Y0319750D01*
X0223611Y0304850D01*
X0223611Y0313128D02*
X0216988Y0313128D01*
X0209425Y0319750D02*
X0209425Y0304850D01*
X0228036Y0319750D02*
X0236314Y0319750D01*
X0232175Y0319750D02*
X0232175Y0304850D01*
X0103893Y0307333D02*
X0103893Y0319750D01*
X0096435Y0314783D02*
X0093124Y0314783D01*
X0093027Y0314781D01*
X0092929Y0314775D01*
X0092832Y0314766D01*
X0092736Y0314752D01*
X0092640Y0314735D01*
X0092544Y0314714D01*
X0092450Y0314690D01*
X0092357Y0314661D01*
X0092265Y0314630D01*
X0092174Y0314594D01*
X0092084Y0314555D01*
X0091997Y0314512D01*
X0091911Y0314466D01*
X0091827Y0314417D01*
X0091745Y0314365D01*
X0091665Y0314309D01*
X0091587Y0314250D01*
X0091511Y0314188D01*
X0091439Y0314123D01*
X0091368Y0314056D01*
X0091301Y0313985D01*
X0091236Y0313913D01*
X0091174Y0313837D01*
X0091115Y0313759D01*
X0091059Y0313679D01*
X0091007Y0313597D01*
X0090958Y0313513D01*
X0090912Y0313427D01*
X0090869Y0313340D01*
X0090830Y0313250D01*
X0090794Y0313159D01*
X0090763Y0313067D01*
X0090734Y0312974D01*
X0090710Y0312880D01*
X0090689Y0312784D01*
X0090672Y0312688D01*
X0090658Y0312592D01*
X0090649Y0312495D01*
X0090643Y0312397D01*
X0090641Y0312300D01*
X0090641Y0304850D01*
X0094366Y0304850D01*
X0094472Y0304852D01*
X0094577Y0304858D01*
X0094683Y0304867D01*
X0094788Y0304881D01*
X0094892Y0304898D01*
X0094996Y0304919D01*
X0095099Y0304944D01*
X0095201Y0304973D01*
X0095301Y0305005D01*
X0095401Y0305041D01*
X0095499Y0305081D01*
X0095596Y0305124D01*
X0095691Y0305171D01*
X0095784Y0305221D01*
X0095875Y0305274D01*
X0095964Y0305331D01*
X0096052Y0305391D01*
X0096137Y0305454D01*
X0096219Y0305520D01*
X0096299Y0305589D01*
X0096377Y0305661D01*
X0096452Y0305736D01*
X0096524Y0305814D01*
X0096593Y0305894D01*
X0096659Y0305976D01*
X0096722Y0306061D01*
X0096782Y0306149D01*
X0096839Y0306238D01*
X0096892Y0306329D01*
X0096942Y0306422D01*
X0096989Y0306517D01*
X0097032Y0306614D01*
X0097072Y0306712D01*
X0097108Y0306812D01*
X0097140Y0306912D01*
X0097169Y0307014D01*
X0097194Y0307117D01*
X0097215Y0307221D01*
X0097232Y0307325D01*
X0097246Y0307430D01*
X0097255Y0307536D01*
X0097261Y0307641D01*
X0097263Y0307747D01*
X0097261Y0307853D01*
X0097255Y0307958D01*
X0097246Y0308064D01*
X0097232Y0308169D01*
X0097215Y0308273D01*
X0097194Y0308377D01*
X0097169Y0308480D01*
X0097140Y0308582D01*
X0097108Y0308682D01*
X0097072Y0308782D01*
X0097032Y0308880D01*
X0096989Y0308977D01*
X0096942Y0309072D01*
X0096892Y0309165D01*
X0096839Y0309256D01*
X0096782Y0309345D01*
X0096722Y0309433D01*
X0096659Y0309518D01*
X0096593Y0309600D01*
X0096524Y0309680D01*
X0096452Y0309758D01*
X0096377Y0309833D01*
X0096299Y0309905D01*
X0096219Y0309974D01*
X0096137Y0310040D01*
X0096052Y0310103D01*
X0095964Y0310163D01*
X0095875Y0310220D01*
X0095784Y0310273D01*
X0095691Y0310323D01*
X0095596Y0310370D01*
X0095499Y0310413D01*
X0095401Y0310453D01*
X0095301Y0310489D01*
X0095201Y0310521D01*
X0095099Y0310550D01*
X0094996Y0310575D01*
X0094892Y0310596D01*
X0094788Y0310613D01*
X0094683Y0310627D01*
X0094577Y0310636D01*
X0094472Y0310642D01*
X0094366Y0310644D01*
X0090641Y0310644D01*
X0085175Y0314783D02*
X0085175Y0304850D01*
X0079736Y0304850D02*
X0079736Y0314783D01*
X0075597Y0314783D01*
X0075500Y0314781D01*
X0075402Y0314775D01*
X0075305Y0314766D01*
X0075209Y0314752D01*
X0075113Y0314735D01*
X0075017Y0314714D01*
X0074923Y0314690D01*
X0074830Y0314661D01*
X0074738Y0314630D01*
X0074647Y0314594D01*
X0074557Y0314555D01*
X0074470Y0314512D01*
X0074384Y0314466D01*
X0074300Y0314417D01*
X0074218Y0314365D01*
X0074138Y0314309D01*
X0074060Y0314250D01*
X0073984Y0314188D01*
X0073912Y0314123D01*
X0073841Y0314056D01*
X0073774Y0313985D01*
X0073709Y0313913D01*
X0073647Y0313837D01*
X0073588Y0313759D01*
X0073532Y0313679D01*
X0073480Y0313597D01*
X0073431Y0313513D01*
X0073385Y0313427D01*
X0073342Y0313340D01*
X0073303Y0313250D01*
X0073267Y0313159D01*
X0073236Y0313067D01*
X0073207Y0312974D01*
X0073183Y0312880D01*
X0073162Y0312784D01*
X0073145Y0312688D01*
X0073131Y0312592D01*
X0073122Y0312495D01*
X0073116Y0312398D01*
X0073114Y0312300D01*
X0073114Y0304850D01*
X0067924Y0307333D02*
X0067924Y0311472D01*
X0067924Y0309817D02*
X0061301Y0309817D01*
X0061301Y0311472D01*
X0061302Y0311472D02*
X0061304Y0311586D01*
X0061310Y0311700D01*
X0061320Y0311814D01*
X0061334Y0311928D01*
X0061351Y0312041D01*
X0061373Y0312153D01*
X0061398Y0312264D01*
X0061427Y0312375D01*
X0061461Y0312484D01*
X0061497Y0312592D01*
X0061538Y0312699D01*
X0061582Y0312805D01*
X0061630Y0312909D01*
X0061681Y0313011D01*
X0061736Y0313111D01*
X0061794Y0313209D01*
X0061856Y0313306D01*
X0061921Y0313400D01*
X0061989Y0313491D01*
X0062060Y0313581D01*
X0062135Y0313668D01*
X0062212Y0313752D01*
X0062292Y0313833D01*
X0062375Y0313912D01*
X0062461Y0313988D01*
X0062549Y0314061D01*
X0062639Y0314130D01*
X0062732Y0314197D01*
X0062827Y0314260D01*
X0062925Y0314320D01*
X0063024Y0314377D01*
X0063125Y0314430D01*
X0063228Y0314479D01*
X0063333Y0314525D01*
X0063439Y0314568D01*
X0063546Y0314607D01*
X0063655Y0314641D01*
X0063765Y0314673D01*
X0063876Y0314700D01*
X0063988Y0314723D01*
X0064101Y0314743D01*
X0064214Y0314759D01*
X0064328Y0314771D01*
X0064442Y0314779D01*
X0064556Y0314783D01*
X0064670Y0314783D01*
X0064784Y0314779D01*
X0064898Y0314771D01*
X0065012Y0314759D01*
X0065125Y0314743D01*
X0065238Y0314723D01*
X0065350Y0314700D01*
X0065461Y0314673D01*
X0065571Y0314641D01*
X0065680Y0314607D01*
X0065787Y0314568D01*
X0065893Y0314525D01*
X0065998Y0314479D01*
X0066101Y0314430D01*
X0066202Y0314377D01*
X0066301Y0314320D01*
X0066399Y0314260D01*
X0066494Y0314197D01*
X0066587Y0314130D01*
X0066677Y0314061D01*
X0066765Y0313988D01*
X0066851Y0313912D01*
X0066934Y0313833D01*
X0067014Y0313752D01*
X0067091Y0313668D01*
X0067166Y0313581D01*
X0067237Y0313491D01*
X0067305Y0313400D01*
X0067370Y0313306D01*
X0067432Y0313209D01*
X0067490Y0313111D01*
X0067545Y0313011D01*
X0067596Y0312909D01*
X0067644Y0312805D01*
X0067688Y0312699D01*
X0067729Y0312592D01*
X0067765Y0312484D01*
X0067799Y0312375D01*
X0067828Y0312264D01*
X0067853Y0312153D01*
X0067875Y0312041D01*
X0067892Y0311928D01*
X0067906Y0311814D01*
X0067916Y0311700D01*
X0067922Y0311586D01*
X0067924Y0311472D01*
X0067923Y0307333D02*
X0067921Y0307236D01*
X0067915Y0307138D01*
X0067906Y0307041D01*
X0067892Y0306945D01*
X0067875Y0306849D01*
X0067854Y0306753D01*
X0067830Y0306659D01*
X0067801Y0306566D01*
X0067770Y0306474D01*
X0067734Y0306383D01*
X0067695Y0306293D01*
X0067652Y0306206D01*
X0067606Y0306120D01*
X0067557Y0306036D01*
X0067505Y0305954D01*
X0067449Y0305874D01*
X0067390Y0305796D01*
X0067328Y0305720D01*
X0067263Y0305648D01*
X0067196Y0305577D01*
X0067125Y0305510D01*
X0067053Y0305445D01*
X0066977Y0305383D01*
X0066899Y0305324D01*
X0066819Y0305268D01*
X0066737Y0305216D01*
X0066653Y0305167D01*
X0066567Y0305121D01*
X0066480Y0305078D01*
X0066390Y0305039D01*
X0066299Y0305003D01*
X0066207Y0304972D01*
X0066114Y0304943D01*
X0066020Y0304919D01*
X0065924Y0304898D01*
X0065828Y0304881D01*
X0065732Y0304867D01*
X0065635Y0304858D01*
X0065537Y0304852D01*
X0065440Y0304850D01*
X0061301Y0304850D01*
X0056576Y0307333D02*
X0056576Y0312300D01*
X0056575Y0312300D02*
X0056573Y0312397D01*
X0056567Y0312495D01*
X0056558Y0312592D01*
X0056544Y0312688D01*
X0056527Y0312784D01*
X0056506Y0312880D01*
X0056482Y0312974D01*
X0056453Y0313067D01*
X0056422Y0313159D01*
X0056386Y0313250D01*
X0056347Y0313340D01*
X0056304Y0313427D01*
X0056258Y0313513D01*
X0056209Y0313597D01*
X0056157Y0313679D01*
X0056101Y0313759D01*
X0056042Y0313837D01*
X0055980Y0313913D01*
X0055915Y0313985D01*
X0055848Y0314056D01*
X0055777Y0314123D01*
X0055705Y0314188D01*
X0055629Y0314250D01*
X0055551Y0314309D01*
X0055471Y0314365D01*
X0055389Y0314417D01*
X0055305Y0314466D01*
X0055219Y0314512D01*
X0055132Y0314555D01*
X0055042Y0314594D01*
X0054951Y0314630D01*
X0054859Y0314661D01*
X0054766Y0314690D01*
X0054672Y0314714D01*
X0054576Y0314735D01*
X0054480Y0314752D01*
X0054384Y0314766D01*
X0054287Y0314775D01*
X0054189Y0314781D01*
X0054092Y0314783D01*
X0049953Y0314783D01*
X0049953Y0319750D02*
X0049953Y0304850D01*
X0054092Y0304850D01*
X0054189Y0304852D01*
X0054287Y0304858D01*
X0054384Y0304867D01*
X0054480Y0304881D01*
X0054576Y0304898D01*
X0054672Y0304919D01*
X0054766Y0304943D01*
X0054859Y0304972D01*
X0054951Y0305003D01*
X0055042Y0305039D01*
X0055132Y0305078D01*
X0055219Y0305121D01*
X0055305Y0305167D01*
X0055389Y0305216D01*
X0055471Y0305268D01*
X0055551Y0305324D01*
X0055629Y0305383D01*
X0055705Y0305445D01*
X0055777Y0305510D01*
X0055848Y0305577D01*
X0055915Y0305648D01*
X0055980Y0305720D01*
X0056042Y0305796D01*
X0056101Y0305874D01*
X0056157Y0305954D01*
X0056209Y0306036D01*
X0056258Y0306120D01*
X0056304Y0306206D01*
X0056347Y0306293D01*
X0056386Y0306383D01*
X0056422Y0306474D01*
X0056453Y0306566D01*
X0056482Y0306659D01*
X0056506Y0306753D01*
X0056527Y0306849D01*
X0056544Y0306945D01*
X0056558Y0307041D01*
X0056567Y0307138D01*
X0056573Y0307236D01*
X0056575Y0307333D01*
X0038517Y0319750D02*
X0033550Y0304850D01*
X0028583Y0319750D01*
X0016286Y0312300D02*
X0016289Y0312007D01*
X0016300Y0311714D01*
X0016317Y0311421D01*
X0016342Y0311129D01*
X0016373Y0310838D01*
X0016412Y0310547D01*
X0016457Y0310258D01*
X0016509Y0309969D01*
X0016568Y0309682D01*
X0016634Y0309396D01*
X0016707Y0309112D01*
X0016786Y0308830D01*
X0016873Y0308550D01*
X0016965Y0308272D01*
X0017065Y0307996D01*
X0017171Y0307723D01*
X0017283Y0307452D01*
X0017402Y0307184D01*
X0017528Y0306919D01*
X0020425Y0304850D02*
X0020534Y0304852D01*
X0020642Y0304858D01*
X0020750Y0304867D01*
X0020858Y0304881D01*
X0020965Y0304898D01*
X0021071Y0304919D01*
X0021177Y0304944D01*
X0021282Y0304972D01*
X0021386Y0305005D01*
X0021488Y0305040D01*
X0021589Y0305080D01*
X0021689Y0305123D01*
X0021787Y0305169D01*
X0021883Y0305219D01*
X0021978Y0305273D01*
X0022070Y0305329D01*
X0022161Y0305389D01*
X0022249Y0305452D01*
X0022335Y0305519D01*
X0022419Y0305588D01*
X0022500Y0305660D01*
X0022579Y0305735D01*
X0022654Y0305813D01*
X0022727Y0305893D01*
X0022798Y0305976D01*
X0022865Y0306061D01*
X0022929Y0306149D01*
X0022990Y0306239D01*
X0023047Y0306330D01*
X0023102Y0306424D01*
X0023153Y0306520D01*
X0023201Y0306618D01*
X0023245Y0306717D01*
X0023285Y0306818D01*
X0023322Y0306920D01*
X0023736Y0308161D02*
X0017114Y0316439D01*
X0017528Y0317680D02*
X0017565Y0317782D01*
X0017605Y0317883D01*
X0017649Y0317982D01*
X0017697Y0318080D01*
X0017748Y0318176D01*
X0017803Y0318270D01*
X0017860Y0318362D01*
X0017921Y0318451D01*
X0017985Y0318539D01*
X0018052Y0318624D01*
X0018123Y0318707D01*
X0018196Y0318787D01*
X0018271Y0318865D01*
X0018350Y0318940D01*
X0018431Y0319012D01*
X0018515Y0319081D01*
X0018601Y0319148D01*
X0018689Y0319211D01*
X0018780Y0319271D01*
X0018872Y0319327D01*
X0018967Y0319381D01*
X0019063Y0319431D01*
X0019161Y0319477D01*
X0019261Y0319520D01*
X0019362Y0319560D01*
X0019464Y0319595D01*
X0019568Y0319628D01*
X0019673Y0319656D01*
X0019779Y0319681D01*
X0019885Y0319702D01*
X0019992Y0319719D01*
X0020100Y0319733D01*
X0020208Y0319742D01*
X0020316Y0319748D01*
X0020425Y0319750D01*
X0020534Y0319748D01*
X0020642Y0319742D01*
X0020750Y0319733D01*
X0020858Y0319719D01*
X0020965Y0319702D01*
X0021071Y0319681D01*
X0021177Y0319656D01*
X0021282Y0319628D01*
X0021386Y0319595D01*
X0021488Y0319560D01*
X0021589Y0319520D01*
X0021689Y0319477D01*
X0021787Y0319431D01*
X0021883Y0319381D01*
X0021978Y0319327D01*
X0022070Y0319271D01*
X0022161Y0319211D01*
X0022249Y0319148D01*
X0022335Y0319081D01*
X0022419Y0319012D01*
X0022500Y0318940D01*
X0022579Y0318865D01*
X0022654Y0318787D01*
X0022727Y0318707D01*
X0022798Y0318624D01*
X0022865Y0318539D01*
X0022929Y0318451D01*
X0022990Y0318361D01*
X0023047Y0318270D01*
X0023102Y0318176D01*
X0023153Y0318080D01*
X0023201Y0317982D01*
X0023245Y0317883D01*
X0023285Y0317782D01*
X0023322Y0317680D01*
X0017528Y0317681D02*
X0017402Y0317416D01*
X0017283Y0317148D01*
X0017171Y0316877D01*
X0017065Y0316604D01*
X0016965Y0316328D01*
X0016873Y0316050D01*
X0016786Y0315770D01*
X0016707Y0315488D01*
X0016634Y0315204D01*
X0016568Y0314918D01*
X0016509Y0314631D01*
X0016457Y0314342D01*
X0016412Y0314053D01*
X0016373Y0313762D01*
X0016342Y0313471D01*
X0016317Y0313179D01*
X0016300Y0312886D01*
X0016289Y0312593D01*
X0016286Y0312300D01*
X0024564Y0312300D02*
X0024561Y0312593D01*
X0024550Y0312886D01*
X0024533Y0313179D01*
X0024508Y0313471D01*
X0024477Y0313762D01*
X0024438Y0314053D01*
X0024393Y0314342D01*
X0024341Y0314631D01*
X0024282Y0314918D01*
X0024216Y0315204D01*
X0024143Y0315488D01*
X0024064Y0315770D01*
X0023977Y0316050D01*
X0023885Y0316328D01*
X0023785Y0316604D01*
X0023679Y0316877D01*
X0023567Y0317148D01*
X0023448Y0317416D01*
X0023322Y0317681D01*
X0017528Y0306920D02*
X0017565Y0306818D01*
X0017605Y0306717D01*
X0017649Y0306618D01*
X0017697Y0306520D01*
X0017748Y0306424D01*
X0017803Y0306330D01*
X0017860Y0306238D01*
X0017921Y0306149D01*
X0017985Y0306061D01*
X0018052Y0305976D01*
X0018123Y0305893D01*
X0018196Y0305813D01*
X0018271Y0305735D01*
X0018350Y0305660D01*
X0018431Y0305588D01*
X0018515Y0305519D01*
X0018601Y0305452D01*
X0018689Y0305389D01*
X0018780Y0305329D01*
X0018872Y0305273D01*
X0018967Y0305219D01*
X0019063Y0305169D01*
X0019161Y0305123D01*
X0019261Y0305080D01*
X0019362Y0305040D01*
X0019464Y0305005D01*
X0019568Y0304972D01*
X0019673Y0304944D01*
X0019779Y0304919D01*
X0019885Y0304898D01*
X0019992Y0304881D01*
X0020100Y0304867D01*
X0020208Y0304858D01*
X0020316Y0304852D01*
X0020425Y0304850D01*
X0023322Y0306919D02*
X0023448Y0307184D01*
X0023567Y0307452D01*
X0023679Y0307723D01*
X0023785Y0307996D01*
X0023885Y0308272D01*
X0023977Y0308550D01*
X0024064Y0308830D01*
X0024143Y0309112D01*
X0024216Y0309396D01*
X0024282Y0309682D01*
X0024341Y0309969D01*
X0024393Y0310258D01*
X0024438Y0310547D01*
X0024477Y0310838D01*
X0024508Y0311129D01*
X0024533Y0311421D01*
X0024550Y0311714D01*
X0024561Y0312007D01*
X0024564Y0312300D01*
X0084761Y0318922D02*
X0085589Y0318922D01*
X0085589Y0319750D01*
X0084761Y0319750D01*
X0084761Y0318922D01*
X0101410Y0304850D02*
X0101507Y0304852D01*
X0101605Y0304858D01*
X0101702Y0304867D01*
X0101798Y0304881D01*
X0101894Y0304898D01*
X0101990Y0304919D01*
X0102084Y0304943D01*
X0102177Y0304972D01*
X0102269Y0305003D01*
X0102360Y0305039D01*
X0102450Y0305078D01*
X0102537Y0305121D01*
X0102623Y0305167D01*
X0102707Y0305216D01*
X0102789Y0305268D01*
X0102869Y0305324D01*
X0102947Y0305383D01*
X0103023Y0305445D01*
X0103095Y0305510D01*
X0103166Y0305577D01*
X0103233Y0305648D01*
X0103298Y0305720D01*
X0103360Y0305796D01*
X0103419Y0305874D01*
X0103475Y0305954D01*
X0103527Y0306036D01*
X0103576Y0306120D01*
X0103622Y0306206D01*
X0103665Y0306293D01*
X0103704Y0306383D01*
X0103740Y0306474D01*
X0103771Y0306566D01*
X0103800Y0306659D01*
X0103824Y0306753D01*
X0103845Y0306849D01*
X0103862Y0306945D01*
X0103876Y0307041D01*
X0103885Y0307138D01*
X0103891Y0307236D01*
X0103893Y0307333D01*
D86*
X0220213Y0372356D02*
X0220258Y0372452D01*
X0220300Y0372551D01*
X0220339Y0372650D01*
X0220375Y0372751D01*
X0220407Y0372852D01*
X0220436Y0372955D01*
X0220462Y0373059D01*
X0220484Y0373163D01*
X0220503Y0373268D01*
X0220518Y0373374D01*
X0220530Y0373480D01*
X0220539Y0373587D01*
X0220544Y0373693D01*
X0220546Y0373800D01*
X0218325Y0373800D02*
X0218327Y0373907D01*
X0218332Y0374013D01*
X0218341Y0374120D01*
X0218353Y0374226D01*
X0218368Y0374332D01*
X0218387Y0374437D01*
X0218409Y0374541D01*
X0218435Y0374645D01*
X0218464Y0374748D01*
X0218497Y0374849D01*
X0218532Y0374950D01*
X0218571Y0375049D01*
X0218613Y0375148D01*
X0218658Y0375244D01*
X0218547Y0374911D02*
X0220324Y0372689D01*
X0219435Y0371800D02*
X0219378Y0371802D01*
X0219322Y0371808D01*
X0219266Y0371818D01*
X0219211Y0371831D01*
X0219157Y0371848D01*
X0219105Y0371869D01*
X0219054Y0371894D01*
X0219004Y0371922D01*
X0218957Y0371953D01*
X0218912Y0371988D01*
X0218870Y0372025D01*
X0218830Y0372065D01*
X0218793Y0372108D01*
X0218759Y0372154D01*
X0218729Y0372201D01*
X0218701Y0372251D01*
X0218678Y0372302D01*
X0218657Y0372355D01*
X0219435Y0371800D02*
X0219492Y0371802D01*
X0219548Y0371808D01*
X0219604Y0371818D01*
X0219659Y0371831D01*
X0219713Y0371848D01*
X0219765Y0371869D01*
X0219816Y0371894D01*
X0219866Y0371922D01*
X0219913Y0371953D01*
X0219958Y0371988D01*
X0220000Y0372025D01*
X0220040Y0372065D01*
X0220077Y0372108D01*
X0220111Y0372154D01*
X0220141Y0372201D01*
X0220169Y0372251D01*
X0220192Y0372302D01*
X0220213Y0372355D01*
X0218658Y0372356D02*
X0218613Y0372452D01*
X0218571Y0372551D01*
X0218532Y0372650D01*
X0218496Y0372751D01*
X0218464Y0372852D01*
X0218435Y0372955D01*
X0218409Y0373059D01*
X0218387Y0373163D01*
X0218368Y0373268D01*
X0218353Y0373374D01*
X0218341Y0373480D01*
X0218332Y0373587D01*
X0218327Y0373693D01*
X0218325Y0373800D01*
X0220546Y0373800D02*
X0220544Y0373907D01*
X0220539Y0374013D01*
X0220530Y0374120D01*
X0220518Y0374226D01*
X0220503Y0374332D01*
X0220484Y0374437D01*
X0220462Y0374541D01*
X0220436Y0374645D01*
X0220407Y0374748D01*
X0220375Y0374849D01*
X0220339Y0374950D01*
X0220300Y0375049D01*
X0220258Y0375148D01*
X0220213Y0375244D01*
X0219435Y0375800D02*
X0219378Y0375798D01*
X0219322Y0375792D01*
X0219266Y0375782D01*
X0219211Y0375769D01*
X0219157Y0375752D01*
X0219105Y0375731D01*
X0219054Y0375706D01*
X0219004Y0375678D01*
X0218957Y0375647D01*
X0218912Y0375612D01*
X0218870Y0375575D01*
X0218830Y0375535D01*
X0218793Y0375492D01*
X0218759Y0375446D01*
X0218729Y0375399D01*
X0218701Y0375349D01*
X0218678Y0375298D01*
X0218657Y0375245D01*
X0219435Y0375800D02*
X0219492Y0375798D01*
X0219548Y0375792D01*
X0219604Y0375782D01*
X0219659Y0375769D01*
X0219713Y0375752D01*
X0219765Y0375731D01*
X0219816Y0375706D01*
X0219866Y0375678D01*
X0219913Y0375647D01*
X0219958Y0375612D01*
X0220000Y0375575D01*
X0220040Y0375535D01*
X0220077Y0375492D01*
X0220111Y0375446D01*
X0220141Y0375399D01*
X0220169Y0375349D01*
X0220192Y0375297D01*
X0220213Y0375245D01*
X0222942Y0375800D02*
X0222942Y0372689D01*
X0222944Y0372631D01*
X0222950Y0372573D01*
X0222959Y0372516D01*
X0222972Y0372459D01*
X0222989Y0372403D01*
X0223010Y0372349D01*
X0223034Y0372296D01*
X0223061Y0372244D01*
X0223092Y0372195D01*
X0223126Y0372148D01*
X0223163Y0372103D01*
X0223202Y0372060D01*
X0223245Y0372021D01*
X0223290Y0371984D01*
X0223337Y0371950D01*
X0223387Y0371919D01*
X0223438Y0371892D01*
X0223491Y0371868D01*
X0223545Y0371847D01*
X0223601Y0371830D01*
X0223658Y0371817D01*
X0223715Y0371808D01*
X0223773Y0371802D01*
X0223831Y0371800D01*
X0224276Y0371800D01*
X0222942Y0060800D02*
X0222942Y0057689D01*
X0222944Y0057631D01*
X0222950Y0057573D01*
X0222959Y0057516D01*
X0222972Y0057459D01*
X0222989Y0057403D01*
X0223010Y0057349D01*
X0223034Y0057296D01*
X0223061Y0057244D01*
X0223092Y0057195D01*
X0223126Y0057148D01*
X0223163Y0057103D01*
X0223202Y0057060D01*
X0223245Y0057021D01*
X0223290Y0056984D01*
X0223337Y0056950D01*
X0223387Y0056919D01*
X0223438Y0056892D01*
X0223491Y0056868D01*
X0223545Y0056847D01*
X0223601Y0056830D01*
X0223658Y0056817D01*
X0223715Y0056808D01*
X0223773Y0056802D01*
X0223831Y0056800D01*
X0224276Y0056800D01*
X0220547Y0056800D02*
X0218324Y0056800D01*
X0219435Y0056800D02*
X0219435Y0060800D01*
X0220547Y0059911D01*
X0086457Y0019300D02*
X0086457Y0015300D01*
X0084679Y0015300D01*
X0082944Y0015300D02*
X0080278Y0019300D01*
X0078522Y0019300D02*
X0076300Y0019300D01*
X0077411Y0019300D02*
X0077411Y0015300D01*
X0080278Y0015300D02*
X0082944Y0019300D01*
X0084679Y0019300D02*
X0086457Y0019300D01*
X0086457Y0017522D02*
X0085123Y0017522D01*
D87*
X0001300Y0011300D02*
X0001300Y0371300D01*
X0001303Y0371542D01*
X0001312Y0371783D01*
X0001326Y0372024D01*
X0001347Y0372265D01*
X0001373Y0372505D01*
X0001405Y0372745D01*
X0001443Y0372984D01*
X0001486Y0373221D01*
X0001536Y0373458D01*
X0001591Y0373693D01*
X0001651Y0373927D01*
X0001718Y0374159D01*
X0001789Y0374390D01*
X0001867Y0374619D01*
X0001950Y0374846D01*
X0002038Y0375071D01*
X0002132Y0375294D01*
X0002231Y0375514D01*
X0002336Y0375732D01*
X0002445Y0375947D01*
X0002560Y0376160D01*
X0002680Y0376370D01*
X0002805Y0376576D01*
X0002935Y0376780D01*
X0003070Y0376981D01*
X0003210Y0377178D01*
X0003354Y0377372D01*
X0003503Y0377562D01*
X0003657Y0377748D01*
X0003815Y0377931D01*
X0003977Y0378110D01*
X0004144Y0378285D01*
X0004315Y0378456D01*
X0004490Y0378623D01*
X0004669Y0378785D01*
X0004852Y0378943D01*
X0005038Y0379097D01*
X0005228Y0379246D01*
X0005422Y0379390D01*
X0005619Y0379530D01*
X0005820Y0379665D01*
X0006024Y0379795D01*
X0006230Y0379920D01*
X0006440Y0380040D01*
X0006653Y0380155D01*
X0006868Y0380264D01*
X0007086Y0380369D01*
X0007306Y0380468D01*
X0007529Y0380562D01*
X0007754Y0380650D01*
X0007981Y0380733D01*
X0008210Y0380811D01*
X0008441Y0380882D01*
X0008673Y0380949D01*
X0008907Y0381009D01*
X0009142Y0381064D01*
X0009379Y0381114D01*
X0009616Y0381157D01*
X0009855Y0381195D01*
X0010095Y0381227D01*
X0010335Y0381253D01*
X0010576Y0381274D01*
X0010817Y0381288D01*
X0011058Y0381297D01*
X0011300Y0381300D01*
X0241300Y0381300D01*
X0241542Y0381297D01*
X0241783Y0381288D01*
X0242024Y0381274D01*
X0242265Y0381253D01*
X0242505Y0381227D01*
X0242745Y0381195D01*
X0242984Y0381157D01*
X0243221Y0381114D01*
X0243458Y0381064D01*
X0243693Y0381009D01*
X0243927Y0380949D01*
X0244159Y0380882D01*
X0244390Y0380811D01*
X0244619Y0380733D01*
X0244846Y0380650D01*
X0245071Y0380562D01*
X0245294Y0380468D01*
X0245514Y0380369D01*
X0245732Y0380264D01*
X0245947Y0380155D01*
X0246160Y0380040D01*
X0246370Y0379920D01*
X0246576Y0379795D01*
X0246780Y0379665D01*
X0246981Y0379530D01*
X0247178Y0379390D01*
X0247372Y0379246D01*
X0247562Y0379097D01*
X0247748Y0378943D01*
X0247931Y0378785D01*
X0248110Y0378623D01*
X0248285Y0378456D01*
X0248456Y0378285D01*
X0248623Y0378110D01*
X0248785Y0377931D01*
X0248943Y0377748D01*
X0249097Y0377562D01*
X0249246Y0377372D01*
X0249390Y0377178D01*
X0249530Y0376981D01*
X0249665Y0376780D01*
X0249795Y0376576D01*
X0249920Y0376370D01*
X0250040Y0376160D01*
X0250155Y0375947D01*
X0250264Y0375732D01*
X0250369Y0375514D01*
X0250468Y0375294D01*
X0250562Y0375071D01*
X0250650Y0374846D01*
X0250733Y0374619D01*
X0250811Y0374390D01*
X0250882Y0374159D01*
X0250949Y0373927D01*
X0251009Y0373693D01*
X0251064Y0373458D01*
X0251114Y0373221D01*
X0251157Y0372984D01*
X0251195Y0372745D01*
X0251227Y0372505D01*
X0251253Y0372265D01*
X0251274Y0372024D01*
X0251288Y0371783D01*
X0251297Y0371542D01*
X0251300Y0371300D01*
X0251300Y0011300D01*
X0251297Y0011058D01*
X0251288Y0010817D01*
X0251274Y0010576D01*
X0251253Y0010335D01*
X0251227Y0010095D01*
X0251195Y0009855D01*
X0251157Y0009616D01*
X0251114Y0009379D01*
X0251064Y0009142D01*
X0251009Y0008907D01*
X0250949Y0008673D01*
X0250882Y0008441D01*
X0250811Y0008210D01*
X0250733Y0007981D01*
X0250650Y0007754D01*
X0250562Y0007529D01*
X0250468Y0007306D01*
X0250369Y0007086D01*
X0250264Y0006868D01*
X0250155Y0006653D01*
X0250040Y0006440D01*
X0249920Y0006230D01*
X0249795Y0006024D01*
X0249665Y0005820D01*
X0249530Y0005619D01*
X0249390Y0005422D01*
X0249246Y0005228D01*
X0249097Y0005038D01*
X0248943Y0004852D01*
X0248785Y0004669D01*
X0248623Y0004490D01*
X0248456Y0004315D01*
X0248285Y0004144D01*
X0248110Y0003977D01*
X0247931Y0003815D01*
X0247748Y0003657D01*
X0247562Y0003503D01*
X0247372Y0003354D01*
X0247178Y0003210D01*
X0246981Y0003070D01*
X0246780Y0002935D01*
X0246576Y0002805D01*
X0246370Y0002680D01*
X0246160Y0002560D01*
X0245947Y0002445D01*
X0245732Y0002336D01*
X0245514Y0002231D01*
X0245294Y0002132D01*
X0245071Y0002038D01*
X0244846Y0001950D01*
X0244619Y0001867D01*
X0244390Y0001789D01*
X0244159Y0001718D01*
X0243927Y0001651D01*
X0243693Y0001591D01*
X0243458Y0001536D01*
X0243221Y0001486D01*
X0242984Y0001443D01*
X0242745Y0001405D01*
X0242505Y0001373D01*
X0242265Y0001347D01*
X0242024Y0001326D01*
X0241783Y0001312D01*
X0241542Y0001303D01*
X0241300Y0001300D01*
X0011300Y0001300D01*
X0011058Y0001303D01*
X0010817Y0001312D01*
X0010576Y0001326D01*
X0010335Y0001347D01*
X0010095Y0001373D01*
X0009855Y0001405D01*
X0009616Y0001443D01*
X0009379Y0001486D01*
X0009142Y0001536D01*
X0008907Y0001591D01*
X0008673Y0001651D01*
X0008441Y0001718D01*
X0008210Y0001789D01*
X0007981Y0001867D01*
X0007754Y0001950D01*
X0007529Y0002038D01*
X0007306Y0002132D01*
X0007086Y0002231D01*
X0006868Y0002336D01*
X0006653Y0002445D01*
X0006440Y0002560D01*
X0006230Y0002680D01*
X0006024Y0002805D01*
X0005820Y0002935D01*
X0005619Y0003070D01*
X0005422Y0003210D01*
X0005228Y0003354D01*
X0005038Y0003503D01*
X0004852Y0003657D01*
X0004669Y0003815D01*
X0004490Y0003977D01*
X0004315Y0004144D01*
X0004144Y0004315D01*
X0003977Y0004490D01*
X0003815Y0004669D01*
X0003657Y0004852D01*
X0003503Y0005038D01*
X0003354Y0005228D01*
X0003210Y0005422D01*
X0003070Y0005619D01*
X0002935Y0005820D01*
X0002805Y0006024D01*
X0002680Y0006230D01*
X0002560Y0006440D01*
X0002445Y0006653D01*
X0002336Y0006868D01*
X0002231Y0007086D01*
X0002132Y0007306D01*
X0002038Y0007529D01*
X0001950Y0007754D01*
X0001867Y0007981D01*
X0001789Y0008210D01*
X0001718Y0008441D01*
X0001651Y0008673D01*
X0001591Y0008907D01*
X0001536Y0009142D01*
X0001486Y0009379D01*
X0001443Y0009616D01*
X0001405Y0009855D01*
X0001373Y0010095D01*
X0001347Y0010335D01*
X0001326Y0010576D01*
X0001312Y0010817D01*
X0001303Y0011058D01*
X0001300Y0011300D01*
D88*
X0030298Y0273475D02*
X0032076Y0273475D01*
X0032140Y0273477D01*
X0032205Y0273483D01*
X0032268Y0273492D01*
X0032331Y0273506D01*
X0032393Y0273523D01*
X0032454Y0273544D01*
X0032514Y0273569D01*
X0032572Y0273597D01*
X0032628Y0273629D01*
X0032682Y0273664D01*
X0032734Y0273702D01*
X0032784Y0273743D01*
X0032830Y0273788D01*
X0032875Y0273834D01*
X0032916Y0273884D01*
X0032954Y0273936D01*
X0032989Y0273990D01*
X0033021Y0274046D01*
X0033049Y0274104D01*
X0033074Y0274164D01*
X0033095Y0274225D01*
X0033112Y0274287D01*
X0033126Y0274350D01*
X0033135Y0274413D01*
X0033141Y0274478D01*
X0033143Y0274542D01*
X0033142Y0274542D02*
X0033142Y0276675D01*
X0033143Y0276675D02*
X0033141Y0276739D01*
X0033135Y0276804D01*
X0033126Y0276867D01*
X0033112Y0276930D01*
X0033095Y0276992D01*
X0033074Y0277053D01*
X0033049Y0277113D01*
X0033021Y0277171D01*
X0032989Y0277227D01*
X0032954Y0277281D01*
X0032916Y0277333D01*
X0032875Y0277383D01*
X0032830Y0277429D01*
X0032784Y0277474D01*
X0032734Y0277515D01*
X0032682Y0277553D01*
X0032628Y0277588D01*
X0032572Y0277620D01*
X0032514Y0277648D01*
X0032454Y0277673D01*
X0032393Y0277694D01*
X0032331Y0277711D01*
X0032268Y0277725D01*
X0032205Y0277734D01*
X0032140Y0277740D01*
X0032076Y0277742D01*
X0030298Y0277742D01*
X0030298Y0279875D02*
X0030298Y0273475D01*
X0035266Y0277031D02*
X0035266Y0277742D01*
X0037399Y0277742D01*
X0037399Y0273475D01*
X0040733Y0273475D02*
X0040733Y0276675D01*
X0040733Y0275964D02*
X0042333Y0275964D01*
X0040733Y0276675D02*
X0040735Y0276739D01*
X0040741Y0276804D01*
X0040750Y0276867D01*
X0040764Y0276930D01*
X0040781Y0276992D01*
X0040802Y0277053D01*
X0040827Y0277113D01*
X0040855Y0277171D01*
X0040887Y0277227D01*
X0040922Y0277281D01*
X0040960Y0277333D01*
X0041001Y0277383D01*
X0041046Y0277429D01*
X0041092Y0277474D01*
X0041142Y0277515D01*
X0041194Y0277553D01*
X0041248Y0277588D01*
X0041304Y0277620D01*
X0041362Y0277648D01*
X0041422Y0277673D01*
X0041483Y0277694D01*
X0041545Y0277711D01*
X0041608Y0277725D01*
X0041671Y0277734D01*
X0041736Y0277740D01*
X0041800Y0277742D01*
X0043222Y0277742D01*
X0042333Y0275963D02*
X0042403Y0275961D01*
X0042472Y0275955D01*
X0042541Y0275945D01*
X0042610Y0275932D01*
X0042677Y0275914D01*
X0042744Y0275893D01*
X0042809Y0275868D01*
X0042873Y0275840D01*
X0042935Y0275808D01*
X0042995Y0275772D01*
X0043053Y0275734D01*
X0043109Y0275692D01*
X0043162Y0275647D01*
X0043213Y0275599D01*
X0043261Y0275548D01*
X0043306Y0275495D01*
X0043348Y0275439D01*
X0043386Y0275381D01*
X0043422Y0275321D01*
X0043454Y0275259D01*
X0043482Y0275195D01*
X0043507Y0275130D01*
X0043528Y0275063D01*
X0043546Y0274996D01*
X0043559Y0274927D01*
X0043569Y0274858D01*
X0043575Y0274789D01*
X0043577Y0274719D01*
X0043575Y0274649D01*
X0043569Y0274580D01*
X0043559Y0274511D01*
X0043546Y0274442D01*
X0043528Y0274375D01*
X0043507Y0274308D01*
X0043482Y0274243D01*
X0043454Y0274179D01*
X0043422Y0274117D01*
X0043386Y0274057D01*
X0043348Y0273999D01*
X0043306Y0273943D01*
X0043261Y0273890D01*
X0043213Y0273839D01*
X0043162Y0273791D01*
X0043109Y0273746D01*
X0043053Y0273704D01*
X0042995Y0273666D01*
X0042935Y0273630D01*
X0042873Y0273598D01*
X0042809Y0273570D01*
X0042744Y0273545D01*
X0042677Y0273524D01*
X0042610Y0273506D01*
X0042541Y0273493D01*
X0042472Y0273483D01*
X0042403Y0273477D01*
X0042333Y0273475D01*
X0040733Y0273475D01*
X0046344Y0274897D02*
X0046344Y0276319D01*
X0046346Y0276393D01*
X0046352Y0276468D01*
X0046362Y0276541D01*
X0046375Y0276615D01*
X0046392Y0276687D01*
X0046414Y0276758D01*
X0046438Y0276829D01*
X0046467Y0276897D01*
X0046499Y0276965D01*
X0046535Y0277030D01*
X0046573Y0277093D01*
X0046616Y0277155D01*
X0046661Y0277214D01*
X0046709Y0277271D01*
X0046760Y0277325D01*
X0046814Y0277376D01*
X0046871Y0277424D01*
X0046930Y0277469D01*
X0046992Y0277512D01*
X0047055Y0277550D01*
X0047120Y0277586D01*
X0047188Y0277618D01*
X0047256Y0277647D01*
X0047327Y0277671D01*
X0047398Y0277693D01*
X0047470Y0277710D01*
X0047544Y0277723D01*
X0047617Y0277733D01*
X0047692Y0277739D01*
X0047766Y0277741D01*
X0047840Y0277739D01*
X0047915Y0277733D01*
X0047988Y0277723D01*
X0048062Y0277710D01*
X0048134Y0277693D01*
X0048205Y0277671D01*
X0048276Y0277647D01*
X0048344Y0277618D01*
X0048412Y0277586D01*
X0048477Y0277550D01*
X0048540Y0277512D01*
X0048602Y0277469D01*
X0048661Y0277424D01*
X0048718Y0277376D01*
X0048772Y0277325D01*
X0048823Y0277271D01*
X0048871Y0277214D01*
X0048916Y0277155D01*
X0048959Y0277093D01*
X0048997Y0277030D01*
X0049033Y0276965D01*
X0049065Y0276897D01*
X0049094Y0276829D01*
X0049118Y0276758D01*
X0049140Y0276687D01*
X0049157Y0276615D01*
X0049170Y0276541D01*
X0049180Y0276468D01*
X0049186Y0276393D01*
X0049188Y0276319D01*
X0049188Y0274897D01*
X0049186Y0274823D01*
X0049180Y0274748D01*
X0049170Y0274675D01*
X0049157Y0274601D01*
X0049140Y0274529D01*
X0049118Y0274458D01*
X0049094Y0274387D01*
X0049065Y0274319D01*
X0049033Y0274251D01*
X0048997Y0274186D01*
X0048959Y0274123D01*
X0048916Y0274061D01*
X0048871Y0274002D01*
X0048823Y0273945D01*
X0048772Y0273891D01*
X0048718Y0273840D01*
X0048661Y0273792D01*
X0048602Y0273747D01*
X0048540Y0273704D01*
X0048477Y0273666D01*
X0048412Y0273630D01*
X0048344Y0273598D01*
X0048276Y0273569D01*
X0048205Y0273545D01*
X0048134Y0273523D01*
X0048062Y0273506D01*
X0047988Y0273493D01*
X0047915Y0273483D01*
X0047840Y0273477D01*
X0047766Y0273475D01*
X0047692Y0273477D01*
X0047617Y0273483D01*
X0047544Y0273493D01*
X0047470Y0273506D01*
X0047398Y0273523D01*
X0047327Y0273545D01*
X0047256Y0273569D01*
X0047188Y0273598D01*
X0047120Y0273630D01*
X0047055Y0273666D01*
X0046992Y0273704D01*
X0046930Y0273747D01*
X0046871Y0273792D01*
X0046814Y0273840D01*
X0046760Y0273891D01*
X0046709Y0273945D01*
X0046661Y0274002D01*
X0046616Y0274061D01*
X0046573Y0274123D01*
X0046535Y0274186D01*
X0046499Y0274251D01*
X0046467Y0274319D01*
X0046438Y0274387D01*
X0046414Y0274458D01*
X0046392Y0274529D01*
X0046375Y0274601D01*
X0046362Y0274675D01*
X0046352Y0274748D01*
X0046346Y0274823D01*
X0046344Y0274897D01*
X0053515Y0273475D02*
X0053432Y0273477D01*
X0053349Y0273483D01*
X0053266Y0273493D01*
X0053183Y0273506D01*
X0053102Y0273524D01*
X0053021Y0273545D01*
X0052942Y0273570D01*
X0052864Y0273599D01*
X0052787Y0273631D01*
X0052712Y0273667D01*
X0052638Y0273706D01*
X0052567Y0273749D01*
X0052497Y0273795D01*
X0052430Y0273845D01*
X0052365Y0273897D01*
X0052303Y0273952D01*
X0052243Y0274011D01*
X0052186Y0274072D01*
X0052132Y0274135D01*
X0052081Y0274201D01*
X0052034Y0274270D01*
X0051989Y0274340D01*
X0051948Y0274413D01*
X0051911Y0274487D01*
X0051876Y0274563D01*
X0051846Y0274641D01*
X0051819Y0274719D01*
X0051796Y0274800D01*
X0051776Y0274881D01*
X0051761Y0274963D01*
X0051749Y0275045D01*
X0051741Y0275128D01*
X0051737Y0275211D01*
X0051737Y0275295D01*
X0051741Y0275378D01*
X0051749Y0275461D01*
X0051761Y0275543D01*
X0051776Y0275625D01*
X0051796Y0275706D01*
X0051819Y0275787D01*
X0051846Y0275865D01*
X0051876Y0275943D01*
X0051911Y0276019D01*
X0051948Y0276093D01*
X0051989Y0276166D01*
X0052034Y0276236D01*
X0052081Y0276305D01*
X0052132Y0276371D01*
X0052186Y0276434D01*
X0052243Y0276495D01*
X0052303Y0276554D01*
X0052365Y0276609D01*
X0052430Y0276661D01*
X0052497Y0276711D01*
X0052567Y0276757D01*
X0052638Y0276800D01*
X0052712Y0276839D01*
X0052787Y0276875D01*
X0052864Y0276907D01*
X0052942Y0276936D01*
X0053021Y0276961D01*
X0053102Y0276982D01*
X0053183Y0277000D01*
X0053266Y0277013D01*
X0053349Y0277023D01*
X0053432Y0277029D01*
X0053515Y0277031D01*
X0055293Y0277031D01*
X0053515Y0277031D02*
X0053441Y0277033D01*
X0053366Y0277039D01*
X0053293Y0277049D01*
X0053219Y0277062D01*
X0053147Y0277079D01*
X0053076Y0277101D01*
X0053005Y0277125D01*
X0052937Y0277154D01*
X0052869Y0277186D01*
X0052804Y0277222D01*
X0052741Y0277260D01*
X0052679Y0277303D01*
X0052620Y0277348D01*
X0052563Y0277396D01*
X0052509Y0277447D01*
X0052458Y0277501D01*
X0052410Y0277558D01*
X0052365Y0277617D01*
X0052322Y0277679D01*
X0052284Y0277742D01*
X0052248Y0277807D01*
X0052216Y0277875D01*
X0052187Y0277943D01*
X0052163Y0278014D01*
X0052141Y0278085D01*
X0052124Y0278157D01*
X0052111Y0278231D01*
X0052101Y0278304D01*
X0052095Y0278379D01*
X0052093Y0278453D01*
X0052095Y0278527D01*
X0052101Y0278602D01*
X0052111Y0278675D01*
X0052124Y0278749D01*
X0052141Y0278821D01*
X0052163Y0278892D01*
X0052187Y0278963D01*
X0052216Y0279031D01*
X0052248Y0279099D01*
X0052284Y0279164D01*
X0052322Y0279227D01*
X0052365Y0279289D01*
X0052410Y0279348D01*
X0052458Y0279405D01*
X0052509Y0279459D01*
X0052563Y0279510D01*
X0052620Y0279558D01*
X0052679Y0279603D01*
X0052741Y0279646D01*
X0052804Y0279684D01*
X0052869Y0279720D01*
X0052937Y0279752D01*
X0053005Y0279781D01*
X0053076Y0279805D01*
X0053147Y0279827D01*
X0053219Y0279844D01*
X0053293Y0279857D01*
X0053366Y0279867D01*
X0053441Y0279873D01*
X0053515Y0279875D01*
X0055293Y0279875D01*
X0055293Y0273475D01*
X0053515Y0273475D01*
X0061767Y0273475D02*
X0062123Y0273475D01*
X0062187Y0273477D01*
X0062252Y0273483D01*
X0062315Y0273492D01*
X0062378Y0273506D01*
X0062440Y0273523D01*
X0062501Y0273544D01*
X0062561Y0273569D01*
X0062619Y0273597D01*
X0062675Y0273629D01*
X0062729Y0273664D01*
X0062781Y0273702D01*
X0062831Y0273743D01*
X0062877Y0273788D01*
X0062922Y0273834D01*
X0062963Y0273884D01*
X0063001Y0273936D01*
X0063036Y0273990D01*
X0063068Y0274046D01*
X0063096Y0274104D01*
X0063121Y0274164D01*
X0063142Y0274225D01*
X0063159Y0274287D01*
X0063173Y0274350D01*
X0063182Y0274413D01*
X0063188Y0274478D01*
X0063190Y0274542D01*
X0063190Y0279875D01*
X0063901Y0277742D02*
X0061767Y0277742D01*
X0066345Y0277742D02*
X0066345Y0273475D01*
X0068123Y0273475D01*
X0068187Y0273477D01*
X0068252Y0273483D01*
X0068315Y0273492D01*
X0068378Y0273506D01*
X0068440Y0273523D01*
X0068501Y0273544D01*
X0068561Y0273569D01*
X0068619Y0273597D01*
X0068675Y0273629D01*
X0068729Y0273664D01*
X0068781Y0273702D01*
X0068831Y0273743D01*
X0068877Y0273788D01*
X0068922Y0273834D01*
X0068963Y0273884D01*
X0069001Y0273936D01*
X0069036Y0273990D01*
X0069068Y0274046D01*
X0069096Y0274104D01*
X0069121Y0274164D01*
X0069142Y0274225D01*
X0069159Y0274287D01*
X0069173Y0274350D01*
X0069182Y0274413D01*
X0069188Y0274478D01*
X0069190Y0274542D01*
X0069190Y0277742D01*
X0072215Y0276319D02*
X0072215Y0274897D01*
X0072217Y0274823D01*
X0072223Y0274748D01*
X0072233Y0274675D01*
X0072246Y0274601D01*
X0072263Y0274529D01*
X0072285Y0274458D01*
X0072309Y0274387D01*
X0072338Y0274319D01*
X0072370Y0274251D01*
X0072406Y0274186D01*
X0072444Y0274123D01*
X0072487Y0274061D01*
X0072532Y0274002D01*
X0072580Y0273945D01*
X0072631Y0273891D01*
X0072685Y0273840D01*
X0072742Y0273792D01*
X0072801Y0273747D01*
X0072863Y0273704D01*
X0072926Y0273666D01*
X0072991Y0273630D01*
X0073059Y0273598D01*
X0073127Y0273569D01*
X0073198Y0273545D01*
X0073269Y0273523D01*
X0073341Y0273506D01*
X0073415Y0273493D01*
X0073488Y0273483D01*
X0073563Y0273477D01*
X0073637Y0273475D01*
X0073711Y0273477D01*
X0073786Y0273483D01*
X0073859Y0273493D01*
X0073933Y0273506D01*
X0074005Y0273523D01*
X0074076Y0273545D01*
X0074147Y0273569D01*
X0074215Y0273598D01*
X0074283Y0273630D01*
X0074348Y0273666D01*
X0074411Y0273704D01*
X0074473Y0273747D01*
X0074532Y0273792D01*
X0074589Y0273840D01*
X0074643Y0273891D01*
X0074694Y0273945D01*
X0074742Y0274002D01*
X0074787Y0274061D01*
X0074830Y0274123D01*
X0074868Y0274186D01*
X0074904Y0274251D01*
X0074936Y0274319D01*
X0074965Y0274387D01*
X0074989Y0274458D01*
X0075011Y0274529D01*
X0075028Y0274601D01*
X0075041Y0274675D01*
X0075051Y0274748D01*
X0075057Y0274823D01*
X0075059Y0274897D01*
X0075060Y0274897D02*
X0075060Y0276319D01*
X0075059Y0276319D02*
X0075057Y0276393D01*
X0075051Y0276468D01*
X0075041Y0276541D01*
X0075028Y0276615D01*
X0075011Y0276687D01*
X0074989Y0276758D01*
X0074965Y0276829D01*
X0074936Y0276897D01*
X0074904Y0276965D01*
X0074868Y0277030D01*
X0074830Y0277093D01*
X0074787Y0277155D01*
X0074742Y0277214D01*
X0074694Y0277271D01*
X0074643Y0277325D01*
X0074589Y0277376D01*
X0074532Y0277424D01*
X0074473Y0277469D01*
X0074411Y0277512D01*
X0074348Y0277550D01*
X0074283Y0277586D01*
X0074215Y0277618D01*
X0074147Y0277647D01*
X0074076Y0277671D01*
X0074005Y0277693D01*
X0073933Y0277710D01*
X0073859Y0277723D01*
X0073786Y0277733D01*
X0073711Y0277739D01*
X0073637Y0277741D01*
X0073563Y0277739D01*
X0073488Y0277733D01*
X0073415Y0277723D01*
X0073341Y0277710D01*
X0073269Y0277693D01*
X0073198Y0277671D01*
X0073127Y0277647D01*
X0073059Y0277618D01*
X0072991Y0277586D01*
X0072926Y0277550D01*
X0072863Y0277512D01*
X0072801Y0277469D01*
X0072742Y0277424D01*
X0072685Y0277376D01*
X0072631Y0277325D01*
X0072580Y0277271D01*
X0072532Y0277214D01*
X0072487Y0277155D01*
X0072444Y0277093D01*
X0072406Y0277030D01*
X0072370Y0276965D01*
X0072338Y0276897D01*
X0072309Y0276829D01*
X0072285Y0276758D01*
X0072263Y0276687D01*
X0072246Y0276615D01*
X0072233Y0276541D01*
X0072223Y0276468D01*
X0072217Y0276393D01*
X0072215Y0276319D01*
X0077554Y0277742D02*
X0080398Y0275608D01*
X0079154Y0276497D02*
X0077554Y0273475D01*
X0080398Y0273475D02*
X0080398Y0279875D01*
X0083780Y0276675D02*
X0083780Y0273475D01*
X0085380Y0273475D01*
X0085450Y0273477D01*
X0085519Y0273483D01*
X0085588Y0273493D01*
X0085657Y0273506D01*
X0085724Y0273524D01*
X0085791Y0273545D01*
X0085856Y0273570D01*
X0085920Y0273598D01*
X0085982Y0273630D01*
X0086042Y0273666D01*
X0086100Y0273704D01*
X0086156Y0273746D01*
X0086209Y0273791D01*
X0086260Y0273839D01*
X0086308Y0273890D01*
X0086353Y0273943D01*
X0086395Y0273999D01*
X0086433Y0274057D01*
X0086469Y0274117D01*
X0086501Y0274179D01*
X0086529Y0274243D01*
X0086554Y0274308D01*
X0086575Y0274375D01*
X0086593Y0274442D01*
X0086606Y0274511D01*
X0086616Y0274580D01*
X0086622Y0274649D01*
X0086624Y0274719D01*
X0086622Y0274789D01*
X0086616Y0274858D01*
X0086606Y0274927D01*
X0086593Y0274996D01*
X0086575Y0275063D01*
X0086554Y0275130D01*
X0086529Y0275195D01*
X0086501Y0275259D01*
X0086469Y0275321D01*
X0086433Y0275381D01*
X0086395Y0275439D01*
X0086353Y0275495D01*
X0086308Y0275548D01*
X0086260Y0275599D01*
X0086209Y0275647D01*
X0086156Y0275692D01*
X0086100Y0275734D01*
X0086042Y0275772D01*
X0085982Y0275808D01*
X0085920Y0275840D01*
X0085856Y0275868D01*
X0085791Y0275893D01*
X0085724Y0275914D01*
X0085657Y0275932D01*
X0085588Y0275945D01*
X0085519Y0275955D01*
X0085450Y0275961D01*
X0085380Y0275963D01*
X0085380Y0275964D02*
X0083780Y0275964D01*
X0083779Y0276675D02*
X0083781Y0276739D01*
X0083787Y0276804D01*
X0083796Y0276867D01*
X0083810Y0276930D01*
X0083827Y0276992D01*
X0083848Y0277053D01*
X0083873Y0277113D01*
X0083901Y0277171D01*
X0083933Y0277227D01*
X0083968Y0277281D01*
X0084006Y0277333D01*
X0084047Y0277383D01*
X0084092Y0277429D01*
X0084138Y0277474D01*
X0084188Y0277515D01*
X0084240Y0277553D01*
X0084294Y0277588D01*
X0084350Y0277620D01*
X0084408Y0277648D01*
X0084468Y0277673D01*
X0084529Y0277694D01*
X0084591Y0277711D01*
X0084654Y0277725D01*
X0084717Y0277734D01*
X0084782Y0277740D01*
X0084846Y0277742D01*
X0086269Y0277742D01*
X0089390Y0276319D02*
X0089390Y0275608D01*
X0092235Y0275608D01*
X0092235Y0276319D02*
X0092235Y0274542D01*
X0092233Y0274478D01*
X0092227Y0274413D01*
X0092218Y0274350D01*
X0092204Y0274287D01*
X0092187Y0274225D01*
X0092166Y0274164D01*
X0092141Y0274104D01*
X0092113Y0274046D01*
X0092081Y0273990D01*
X0092046Y0273936D01*
X0092008Y0273884D01*
X0091967Y0273834D01*
X0091922Y0273788D01*
X0091876Y0273743D01*
X0091826Y0273702D01*
X0091774Y0273664D01*
X0091720Y0273629D01*
X0091664Y0273597D01*
X0091606Y0273569D01*
X0091546Y0273544D01*
X0091485Y0273523D01*
X0091423Y0273506D01*
X0091360Y0273492D01*
X0091297Y0273483D01*
X0091232Y0273477D01*
X0091168Y0273475D01*
X0089390Y0273475D01*
X0089390Y0276319D02*
X0089392Y0276393D01*
X0089398Y0276468D01*
X0089408Y0276541D01*
X0089421Y0276615D01*
X0089438Y0276687D01*
X0089460Y0276758D01*
X0089484Y0276829D01*
X0089513Y0276897D01*
X0089545Y0276965D01*
X0089581Y0277030D01*
X0089619Y0277093D01*
X0089662Y0277155D01*
X0089707Y0277214D01*
X0089755Y0277271D01*
X0089806Y0277325D01*
X0089860Y0277376D01*
X0089917Y0277424D01*
X0089976Y0277469D01*
X0090038Y0277512D01*
X0090101Y0277550D01*
X0090166Y0277586D01*
X0090234Y0277618D01*
X0090302Y0277647D01*
X0090373Y0277671D01*
X0090444Y0277693D01*
X0090516Y0277710D01*
X0090590Y0277723D01*
X0090663Y0277733D01*
X0090738Y0277739D01*
X0090812Y0277741D01*
X0090886Y0277739D01*
X0090961Y0277733D01*
X0091034Y0277723D01*
X0091108Y0277710D01*
X0091180Y0277693D01*
X0091251Y0277671D01*
X0091322Y0277647D01*
X0091390Y0277618D01*
X0091458Y0277586D01*
X0091523Y0277550D01*
X0091586Y0277512D01*
X0091648Y0277469D01*
X0091707Y0277424D01*
X0091764Y0277376D01*
X0091818Y0277325D01*
X0091869Y0277271D01*
X0091917Y0277214D01*
X0091962Y0277155D01*
X0092005Y0277093D01*
X0092043Y0277030D01*
X0092079Y0276965D01*
X0092111Y0276897D01*
X0092140Y0276829D01*
X0092164Y0276758D01*
X0092186Y0276687D01*
X0092203Y0276615D01*
X0092216Y0276541D01*
X0092226Y0276468D01*
X0092232Y0276393D01*
X0092234Y0276319D01*
X0094400Y0277031D02*
X0094400Y0277742D01*
X0096534Y0277742D01*
X0096534Y0273475D01*
X0101127Y0273475D02*
X0102905Y0273475D01*
X0102905Y0279875D01*
X0101127Y0279875D01*
X0101053Y0279873D01*
X0100978Y0279867D01*
X0100905Y0279857D01*
X0100831Y0279844D01*
X0100759Y0279827D01*
X0100688Y0279805D01*
X0100617Y0279781D01*
X0100549Y0279752D01*
X0100481Y0279720D01*
X0100416Y0279684D01*
X0100353Y0279646D01*
X0100291Y0279603D01*
X0100232Y0279558D01*
X0100175Y0279510D01*
X0100121Y0279459D01*
X0100070Y0279405D01*
X0100022Y0279348D01*
X0099977Y0279289D01*
X0099934Y0279227D01*
X0099896Y0279164D01*
X0099860Y0279099D01*
X0099828Y0279031D01*
X0099799Y0278963D01*
X0099775Y0278892D01*
X0099753Y0278821D01*
X0099736Y0278749D01*
X0099723Y0278675D01*
X0099713Y0278602D01*
X0099707Y0278527D01*
X0099705Y0278453D01*
X0099707Y0278379D01*
X0099713Y0278304D01*
X0099723Y0278231D01*
X0099736Y0278157D01*
X0099753Y0278085D01*
X0099775Y0278014D01*
X0099799Y0277943D01*
X0099828Y0277875D01*
X0099860Y0277807D01*
X0099896Y0277742D01*
X0099934Y0277679D01*
X0099977Y0277617D01*
X0100022Y0277558D01*
X0100070Y0277501D01*
X0100121Y0277447D01*
X0100175Y0277396D01*
X0100232Y0277348D01*
X0100291Y0277303D01*
X0100353Y0277260D01*
X0100416Y0277222D01*
X0100481Y0277186D01*
X0100549Y0277154D01*
X0100617Y0277125D01*
X0100688Y0277101D01*
X0100759Y0277079D01*
X0100831Y0277062D01*
X0100905Y0277049D01*
X0100978Y0277039D01*
X0101053Y0277033D01*
X0101127Y0277031D01*
X0102905Y0277031D01*
X0101127Y0277031D02*
X0101044Y0277029D01*
X0100961Y0277023D01*
X0100878Y0277013D01*
X0100795Y0277000D01*
X0100714Y0276982D01*
X0100633Y0276961D01*
X0100554Y0276936D01*
X0100476Y0276907D01*
X0100399Y0276875D01*
X0100324Y0276839D01*
X0100250Y0276800D01*
X0100179Y0276757D01*
X0100109Y0276711D01*
X0100042Y0276661D01*
X0099977Y0276609D01*
X0099915Y0276554D01*
X0099855Y0276495D01*
X0099798Y0276434D01*
X0099744Y0276371D01*
X0099693Y0276305D01*
X0099646Y0276236D01*
X0099601Y0276166D01*
X0099560Y0276093D01*
X0099523Y0276019D01*
X0099488Y0275943D01*
X0099458Y0275865D01*
X0099431Y0275787D01*
X0099408Y0275706D01*
X0099388Y0275625D01*
X0099373Y0275543D01*
X0099361Y0275461D01*
X0099353Y0275378D01*
X0099349Y0275295D01*
X0099349Y0275211D01*
X0099353Y0275128D01*
X0099361Y0275045D01*
X0099373Y0274963D01*
X0099388Y0274881D01*
X0099408Y0274800D01*
X0099431Y0274719D01*
X0099458Y0274641D01*
X0099488Y0274563D01*
X0099523Y0274487D01*
X0099560Y0274413D01*
X0099601Y0274340D01*
X0099646Y0274270D01*
X0099693Y0274201D01*
X0099744Y0274135D01*
X0099798Y0274072D01*
X0099855Y0274011D01*
X0099915Y0273952D01*
X0099977Y0273897D01*
X0100042Y0273845D01*
X0100109Y0273795D01*
X0100179Y0273749D01*
X0100250Y0273706D01*
X0100324Y0273667D01*
X0100399Y0273631D01*
X0100476Y0273599D01*
X0100554Y0273570D01*
X0100633Y0273545D01*
X0100714Y0273524D01*
X0100795Y0273506D01*
X0100878Y0273493D01*
X0100961Y0273483D01*
X0101044Y0273477D01*
X0101127Y0273475D01*
X0109906Y0275253D02*
X0109906Y0278097D01*
X0109905Y0278097D02*
X0109907Y0278179D01*
X0109913Y0278261D01*
X0109922Y0278343D01*
X0109935Y0278424D01*
X0109952Y0278504D01*
X0109973Y0278584D01*
X0109997Y0278662D01*
X0110025Y0278739D01*
X0110056Y0278815D01*
X0110091Y0278890D01*
X0110130Y0278962D01*
X0110171Y0279033D01*
X0110216Y0279102D01*
X0110264Y0279168D01*
X0110315Y0279233D01*
X0110369Y0279295D01*
X0110426Y0279354D01*
X0110485Y0279411D01*
X0110547Y0279465D01*
X0110612Y0279516D01*
X0110678Y0279564D01*
X0110747Y0279609D01*
X0110818Y0279650D01*
X0110890Y0279689D01*
X0110965Y0279724D01*
X0111041Y0279755D01*
X0111118Y0279783D01*
X0111196Y0279807D01*
X0111276Y0279828D01*
X0111356Y0279845D01*
X0111437Y0279858D01*
X0111519Y0279867D01*
X0111601Y0279873D01*
X0111683Y0279875D01*
X0113461Y0279875D01*
X0113461Y0273475D01*
X0111683Y0273475D01*
X0111601Y0273477D01*
X0111519Y0273483D01*
X0111437Y0273492D01*
X0111356Y0273505D01*
X0111276Y0273522D01*
X0111196Y0273543D01*
X0111118Y0273567D01*
X0111041Y0273595D01*
X0110965Y0273626D01*
X0110890Y0273661D01*
X0110818Y0273700D01*
X0110747Y0273741D01*
X0110678Y0273786D01*
X0110612Y0273834D01*
X0110547Y0273885D01*
X0110485Y0273939D01*
X0110426Y0273996D01*
X0110369Y0274055D01*
X0110315Y0274117D01*
X0110264Y0274182D01*
X0110216Y0274248D01*
X0110171Y0274317D01*
X0110130Y0274388D01*
X0110091Y0274460D01*
X0110056Y0274535D01*
X0110025Y0274611D01*
X0109997Y0274688D01*
X0109973Y0274766D01*
X0109952Y0274846D01*
X0109935Y0274926D01*
X0109922Y0275007D01*
X0109913Y0275089D01*
X0109907Y0275171D01*
X0109905Y0275253D01*
X0116291Y0273475D02*
X0117714Y0273475D01*
X0117788Y0273477D01*
X0117863Y0273483D01*
X0117936Y0273493D01*
X0118010Y0273506D01*
X0118082Y0273523D01*
X0118153Y0273545D01*
X0118224Y0273569D01*
X0118292Y0273598D01*
X0118360Y0273630D01*
X0118425Y0273666D01*
X0118488Y0273704D01*
X0118550Y0273747D01*
X0118609Y0273792D01*
X0118666Y0273840D01*
X0118720Y0273891D01*
X0118771Y0273945D01*
X0118819Y0274002D01*
X0118864Y0274061D01*
X0118907Y0274123D01*
X0118945Y0274186D01*
X0118981Y0274251D01*
X0119013Y0274319D01*
X0119042Y0274387D01*
X0119066Y0274458D01*
X0119088Y0274529D01*
X0119105Y0274601D01*
X0119118Y0274675D01*
X0119128Y0274748D01*
X0119134Y0274823D01*
X0119136Y0274897D01*
X0119136Y0278453D01*
X0119134Y0278527D01*
X0119128Y0278602D01*
X0119118Y0278675D01*
X0119105Y0278749D01*
X0119088Y0278821D01*
X0119066Y0278892D01*
X0119042Y0278963D01*
X0119013Y0279031D01*
X0118981Y0279099D01*
X0118945Y0279164D01*
X0118907Y0279227D01*
X0118864Y0279289D01*
X0118819Y0279348D01*
X0118771Y0279405D01*
X0118720Y0279459D01*
X0118666Y0279510D01*
X0118609Y0279558D01*
X0118550Y0279603D01*
X0118488Y0279646D01*
X0118425Y0279684D01*
X0118360Y0279720D01*
X0118292Y0279752D01*
X0118224Y0279781D01*
X0118153Y0279805D01*
X0118082Y0279827D01*
X0118010Y0279844D01*
X0117936Y0279857D01*
X0117863Y0279867D01*
X0117788Y0279873D01*
X0117714Y0279875D01*
X0116291Y0279875D01*
X0116131Y0284725D02*
X0117909Y0284725D01*
X0117973Y0284727D01*
X0118038Y0284733D01*
X0118101Y0284742D01*
X0118164Y0284756D01*
X0118226Y0284773D01*
X0118287Y0284794D01*
X0118347Y0284819D01*
X0118405Y0284847D01*
X0118461Y0284879D01*
X0118515Y0284914D01*
X0118567Y0284952D01*
X0118617Y0284993D01*
X0118663Y0285038D01*
X0118708Y0285084D01*
X0118749Y0285134D01*
X0118787Y0285186D01*
X0118822Y0285240D01*
X0118854Y0285296D01*
X0118882Y0285354D01*
X0118907Y0285414D01*
X0118928Y0285475D01*
X0118945Y0285537D01*
X0118959Y0285600D01*
X0118968Y0285663D01*
X0118974Y0285728D01*
X0118976Y0285792D01*
X0118975Y0285792D02*
X0118975Y0287569D01*
X0118975Y0286858D02*
X0116131Y0286858D01*
X0116131Y0287569D01*
X0116133Y0287643D01*
X0116139Y0287718D01*
X0116149Y0287791D01*
X0116162Y0287865D01*
X0116179Y0287937D01*
X0116201Y0288008D01*
X0116225Y0288079D01*
X0116254Y0288147D01*
X0116286Y0288215D01*
X0116322Y0288280D01*
X0116360Y0288343D01*
X0116403Y0288405D01*
X0116448Y0288464D01*
X0116496Y0288521D01*
X0116547Y0288575D01*
X0116601Y0288626D01*
X0116658Y0288674D01*
X0116717Y0288719D01*
X0116779Y0288762D01*
X0116842Y0288800D01*
X0116907Y0288836D01*
X0116975Y0288868D01*
X0117043Y0288897D01*
X0117114Y0288921D01*
X0117185Y0288943D01*
X0117257Y0288960D01*
X0117331Y0288973D01*
X0117404Y0288983D01*
X0117479Y0288989D01*
X0117553Y0288991D01*
X0117627Y0288989D01*
X0117702Y0288983D01*
X0117775Y0288973D01*
X0117849Y0288960D01*
X0117921Y0288943D01*
X0117992Y0288921D01*
X0118063Y0288897D01*
X0118131Y0288868D01*
X0118199Y0288836D01*
X0118264Y0288800D01*
X0118327Y0288762D01*
X0118389Y0288719D01*
X0118448Y0288674D01*
X0118505Y0288626D01*
X0118559Y0288575D01*
X0118610Y0288521D01*
X0118658Y0288464D01*
X0118703Y0288405D01*
X0118746Y0288343D01*
X0118784Y0288280D01*
X0118820Y0288215D01*
X0118852Y0288147D01*
X0118881Y0288079D01*
X0118905Y0288008D01*
X0118927Y0287937D01*
X0118944Y0287865D01*
X0118957Y0287791D01*
X0118967Y0287718D01*
X0118973Y0287643D01*
X0118975Y0287569D01*
X0121566Y0288992D02*
X0122988Y0284725D01*
X0124410Y0288992D01*
X0126827Y0288992D02*
X0126827Y0284725D01*
X0129380Y0284725D02*
X0129736Y0284725D01*
X0129800Y0284727D01*
X0129865Y0284733D01*
X0129928Y0284742D01*
X0129991Y0284756D01*
X0130053Y0284773D01*
X0130114Y0284794D01*
X0130174Y0284819D01*
X0130232Y0284847D01*
X0130288Y0284879D01*
X0130342Y0284914D01*
X0130394Y0284952D01*
X0130444Y0284993D01*
X0130490Y0285038D01*
X0130535Y0285084D01*
X0130576Y0285134D01*
X0130614Y0285186D01*
X0130649Y0285240D01*
X0130681Y0285296D01*
X0130709Y0285354D01*
X0130734Y0285414D01*
X0130755Y0285475D01*
X0130772Y0285537D01*
X0130786Y0285600D01*
X0130795Y0285663D01*
X0130801Y0285728D01*
X0130803Y0285792D01*
X0130803Y0291125D01*
X0131514Y0288992D02*
X0129380Y0288992D01*
X0127005Y0290592D02*
X0126294Y0292014D01*
X0124531Y0279875D02*
X0124531Y0273475D01*
X0121687Y0273475D01*
X0130777Y0279875D02*
X0134332Y0279875D01*
X0132554Y0279875D02*
X0132554Y0273475D01*
X0136470Y0277031D02*
X0139315Y0277031D01*
X0139315Y0279875D02*
X0136470Y0279875D01*
X0139315Y0279875D02*
X0139315Y0273475D01*
X0143859Y0273475D02*
X0143859Y0279875D01*
X0142082Y0279875D02*
X0145637Y0279875D01*
X0142413Y0282592D02*
X0142413Y0288992D01*
X0140635Y0288992D01*
X0140571Y0288990D01*
X0140506Y0288984D01*
X0140443Y0288975D01*
X0140380Y0288961D01*
X0140318Y0288944D01*
X0140257Y0288923D01*
X0140197Y0288898D01*
X0140139Y0288870D01*
X0140083Y0288838D01*
X0140029Y0288803D01*
X0139977Y0288765D01*
X0139927Y0288724D01*
X0139881Y0288679D01*
X0139836Y0288633D01*
X0139795Y0288583D01*
X0139757Y0288531D01*
X0139722Y0288477D01*
X0139690Y0288421D01*
X0139662Y0288363D01*
X0139637Y0288303D01*
X0139616Y0288242D01*
X0139599Y0288180D01*
X0139585Y0288117D01*
X0139576Y0288054D01*
X0139570Y0287989D01*
X0139568Y0287925D01*
X0139569Y0287925D02*
X0139569Y0285792D01*
X0139568Y0285792D02*
X0139570Y0285728D01*
X0139576Y0285663D01*
X0139585Y0285600D01*
X0139599Y0285537D01*
X0139616Y0285475D01*
X0139637Y0285414D01*
X0139662Y0285354D01*
X0139690Y0285296D01*
X0139722Y0285240D01*
X0139757Y0285186D01*
X0139795Y0285134D01*
X0139836Y0285084D01*
X0139881Y0285038D01*
X0139927Y0284993D01*
X0139977Y0284952D01*
X0140029Y0284914D01*
X0140083Y0284879D01*
X0140139Y0284847D01*
X0140197Y0284819D01*
X0140257Y0284794D01*
X0140318Y0284773D01*
X0140380Y0284756D01*
X0140443Y0284742D01*
X0140506Y0284733D01*
X0140571Y0284727D01*
X0140635Y0284725D01*
X0142413Y0284725D01*
X0145857Y0284725D02*
X0145857Y0287925D01*
X0145856Y0287925D02*
X0145858Y0287989D01*
X0145864Y0288054D01*
X0145873Y0288117D01*
X0145887Y0288180D01*
X0145904Y0288242D01*
X0145925Y0288303D01*
X0145950Y0288363D01*
X0145978Y0288421D01*
X0146010Y0288477D01*
X0146045Y0288531D01*
X0146083Y0288583D01*
X0146124Y0288633D01*
X0146169Y0288679D01*
X0146215Y0288724D01*
X0146265Y0288765D01*
X0146317Y0288803D01*
X0146371Y0288838D01*
X0146427Y0288870D01*
X0146485Y0288898D01*
X0146545Y0288923D01*
X0146606Y0288944D01*
X0146668Y0288961D01*
X0146731Y0288975D01*
X0146794Y0288984D01*
X0146859Y0288990D01*
X0146923Y0288992D01*
X0150123Y0288992D01*
X0150123Y0284725D01*
X0147990Y0284725D02*
X0147990Y0288992D01*
X0153307Y0287569D02*
X0153307Y0286147D01*
X0153309Y0286073D01*
X0153315Y0285998D01*
X0153325Y0285925D01*
X0153338Y0285851D01*
X0153355Y0285779D01*
X0153377Y0285708D01*
X0153401Y0285637D01*
X0153430Y0285569D01*
X0153462Y0285501D01*
X0153498Y0285436D01*
X0153536Y0285373D01*
X0153579Y0285311D01*
X0153624Y0285252D01*
X0153672Y0285195D01*
X0153723Y0285141D01*
X0153777Y0285090D01*
X0153834Y0285042D01*
X0153893Y0284997D01*
X0153955Y0284954D01*
X0154018Y0284916D01*
X0154083Y0284880D01*
X0154151Y0284848D01*
X0154219Y0284819D01*
X0154290Y0284795D01*
X0154361Y0284773D01*
X0154433Y0284756D01*
X0154507Y0284743D01*
X0154580Y0284733D01*
X0154655Y0284727D01*
X0154729Y0284725D01*
X0154803Y0284727D01*
X0154878Y0284733D01*
X0154951Y0284743D01*
X0155025Y0284756D01*
X0155097Y0284773D01*
X0155168Y0284795D01*
X0155239Y0284819D01*
X0155307Y0284848D01*
X0155375Y0284880D01*
X0155440Y0284916D01*
X0155503Y0284954D01*
X0155565Y0284997D01*
X0155624Y0285042D01*
X0155681Y0285090D01*
X0155735Y0285141D01*
X0155786Y0285195D01*
X0155834Y0285252D01*
X0155879Y0285311D01*
X0155922Y0285373D01*
X0155960Y0285436D01*
X0155996Y0285501D01*
X0156028Y0285569D01*
X0156057Y0285637D01*
X0156081Y0285708D01*
X0156103Y0285779D01*
X0156120Y0285851D01*
X0156133Y0285925D01*
X0156143Y0285998D01*
X0156149Y0286073D01*
X0156151Y0286147D01*
X0156152Y0286147D02*
X0156152Y0287569D01*
X0156151Y0287569D02*
X0156149Y0287643D01*
X0156143Y0287718D01*
X0156133Y0287791D01*
X0156120Y0287865D01*
X0156103Y0287937D01*
X0156081Y0288008D01*
X0156057Y0288079D01*
X0156028Y0288147D01*
X0155996Y0288215D01*
X0155960Y0288280D01*
X0155922Y0288343D01*
X0155879Y0288405D01*
X0155834Y0288464D01*
X0155786Y0288521D01*
X0155735Y0288575D01*
X0155681Y0288626D01*
X0155624Y0288674D01*
X0155565Y0288719D01*
X0155503Y0288762D01*
X0155440Y0288800D01*
X0155375Y0288836D01*
X0155307Y0288868D01*
X0155239Y0288897D01*
X0155168Y0288921D01*
X0155097Y0288943D01*
X0155025Y0288960D01*
X0154951Y0288973D01*
X0154878Y0288983D01*
X0154803Y0288989D01*
X0154729Y0288991D01*
X0154655Y0288989D01*
X0154580Y0288983D01*
X0154507Y0288973D01*
X0154433Y0288960D01*
X0154361Y0288943D01*
X0154290Y0288921D01*
X0154219Y0288897D01*
X0154151Y0288868D01*
X0154083Y0288836D01*
X0154018Y0288800D01*
X0153955Y0288762D01*
X0153893Y0288719D01*
X0153834Y0288674D01*
X0153777Y0288626D01*
X0153723Y0288575D01*
X0153672Y0288521D01*
X0153624Y0288464D01*
X0153579Y0288405D01*
X0153536Y0288343D01*
X0153498Y0288280D01*
X0153462Y0288215D01*
X0153430Y0288147D01*
X0153401Y0288079D01*
X0153377Y0288008D01*
X0153355Y0287937D01*
X0153338Y0287865D01*
X0153325Y0287791D01*
X0153315Y0287718D01*
X0153309Y0287643D01*
X0153307Y0287569D01*
X0158685Y0284725D02*
X0160107Y0284725D01*
X0160181Y0284727D01*
X0160256Y0284733D01*
X0160329Y0284743D01*
X0160403Y0284756D01*
X0160475Y0284773D01*
X0160546Y0284795D01*
X0160617Y0284819D01*
X0160685Y0284848D01*
X0160753Y0284880D01*
X0160818Y0284916D01*
X0160881Y0284954D01*
X0160943Y0284997D01*
X0161002Y0285042D01*
X0161059Y0285090D01*
X0161113Y0285141D01*
X0161164Y0285195D01*
X0161212Y0285252D01*
X0161257Y0285311D01*
X0161300Y0285373D01*
X0161338Y0285436D01*
X0161374Y0285501D01*
X0161406Y0285569D01*
X0161435Y0285637D01*
X0161459Y0285708D01*
X0161481Y0285779D01*
X0161498Y0285851D01*
X0161511Y0285925D01*
X0161521Y0285998D01*
X0161527Y0286073D01*
X0161529Y0286147D01*
X0161530Y0286147D02*
X0161530Y0289703D01*
X0161529Y0289703D02*
X0161527Y0289777D01*
X0161521Y0289852D01*
X0161511Y0289925D01*
X0161498Y0289999D01*
X0161481Y0290071D01*
X0161459Y0290142D01*
X0161435Y0290213D01*
X0161406Y0290281D01*
X0161374Y0290349D01*
X0161338Y0290414D01*
X0161300Y0290477D01*
X0161257Y0290539D01*
X0161212Y0290598D01*
X0161164Y0290655D01*
X0161113Y0290709D01*
X0161059Y0290760D01*
X0161002Y0290808D01*
X0160943Y0290853D01*
X0160881Y0290896D01*
X0160818Y0290934D01*
X0160753Y0290970D01*
X0160685Y0291002D01*
X0160617Y0291031D01*
X0160546Y0291055D01*
X0160475Y0291077D01*
X0160403Y0291094D01*
X0160329Y0291107D01*
X0160256Y0291117D01*
X0160181Y0291123D01*
X0160107Y0291125D01*
X0158685Y0291125D01*
X0153010Y0281297D02*
X0153010Y0279875D01*
X0151232Y0279875D02*
X0151232Y0281297D01*
X0155917Y0278453D02*
X0155919Y0278379D01*
X0155925Y0278304D01*
X0155935Y0278231D01*
X0155948Y0278157D01*
X0155965Y0278085D01*
X0155987Y0278014D01*
X0156011Y0277943D01*
X0156040Y0277875D01*
X0156072Y0277807D01*
X0156108Y0277742D01*
X0156146Y0277679D01*
X0156189Y0277617D01*
X0156234Y0277558D01*
X0156282Y0277501D01*
X0156333Y0277447D01*
X0156387Y0277396D01*
X0156444Y0277348D01*
X0156503Y0277303D01*
X0156565Y0277260D01*
X0156628Y0277222D01*
X0156693Y0277186D01*
X0156761Y0277154D01*
X0156829Y0277125D01*
X0156900Y0277101D01*
X0156971Y0277079D01*
X0157043Y0277062D01*
X0157117Y0277049D01*
X0157190Y0277039D01*
X0157265Y0277033D01*
X0157339Y0277031D01*
X0157413Y0277033D01*
X0157488Y0277039D01*
X0157561Y0277049D01*
X0157635Y0277062D01*
X0157707Y0277079D01*
X0157778Y0277101D01*
X0157849Y0277125D01*
X0157917Y0277154D01*
X0157985Y0277186D01*
X0158050Y0277222D01*
X0158113Y0277260D01*
X0158175Y0277303D01*
X0158234Y0277348D01*
X0158291Y0277396D01*
X0158345Y0277447D01*
X0158396Y0277501D01*
X0158444Y0277558D01*
X0158489Y0277617D01*
X0158532Y0277679D01*
X0158570Y0277742D01*
X0158606Y0277807D01*
X0158638Y0277875D01*
X0158667Y0277943D01*
X0158691Y0278014D01*
X0158713Y0278085D01*
X0158730Y0278157D01*
X0158743Y0278231D01*
X0158753Y0278304D01*
X0158759Y0278379D01*
X0158761Y0278453D01*
X0158759Y0278527D01*
X0158753Y0278602D01*
X0158743Y0278675D01*
X0158730Y0278749D01*
X0158713Y0278821D01*
X0158691Y0278892D01*
X0158667Y0278963D01*
X0158638Y0279031D01*
X0158606Y0279099D01*
X0158570Y0279164D01*
X0158532Y0279227D01*
X0158489Y0279289D01*
X0158444Y0279348D01*
X0158396Y0279405D01*
X0158345Y0279459D01*
X0158291Y0279510D01*
X0158234Y0279558D01*
X0158175Y0279603D01*
X0158113Y0279646D01*
X0158050Y0279684D01*
X0157985Y0279720D01*
X0157917Y0279752D01*
X0157849Y0279781D01*
X0157778Y0279805D01*
X0157707Y0279827D01*
X0157635Y0279844D01*
X0157561Y0279857D01*
X0157488Y0279867D01*
X0157413Y0279873D01*
X0157339Y0279875D01*
X0157265Y0279873D01*
X0157190Y0279867D01*
X0157117Y0279857D01*
X0157043Y0279844D01*
X0156971Y0279827D01*
X0156900Y0279805D01*
X0156829Y0279781D01*
X0156761Y0279752D01*
X0156693Y0279720D01*
X0156628Y0279684D01*
X0156565Y0279646D01*
X0156503Y0279603D01*
X0156444Y0279558D01*
X0156387Y0279510D01*
X0156333Y0279459D01*
X0156282Y0279405D01*
X0156234Y0279348D01*
X0156189Y0279289D01*
X0156146Y0279227D01*
X0156108Y0279164D01*
X0156072Y0279099D01*
X0156040Y0279031D01*
X0156011Y0278963D01*
X0155987Y0278892D01*
X0155965Y0278821D01*
X0155948Y0278749D01*
X0155935Y0278675D01*
X0155925Y0278602D01*
X0155919Y0278527D01*
X0155917Y0278453D01*
X0155561Y0275253D02*
X0155563Y0275170D01*
X0155569Y0275087D01*
X0155579Y0275004D01*
X0155592Y0274921D01*
X0155610Y0274840D01*
X0155631Y0274759D01*
X0155656Y0274680D01*
X0155685Y0274602D01*
X0155717Y0274525D01*
X0155753Y0274450D01*
X0155792Y0274376D01*
X0155835Y0274305D01*
X0155881Y0274235D01*
X0155931Y0274168D01*
X0155983Y0274103D01*
X0156038Y0274041D01*
X0156097Y0273981D01*
X0156158Y0273924D01*
X0156221Y0273870D01*
X0156287Y0273819D01*
X0156356Y0273772D01*
X0156426Y0273727D01*
X0156499Y0273686D01*
X0156573Y0273649D01*
X0156649Y0273614D01*
X0156727Y0273584D01*
X0156805Y0273557D01*
X0156886Y0273534D01*
X0156967Y0273514D01*
X0157049Y0273499D01*
X0157131Y0273487D01*
X0157214Y0273479D01*
X0157297Y0273475D01*
X0157381Y0273475D01*
X0157464Y0273479D01*
X0157547Y0273487D01*
X0157629Y0273499D01*
X0157711Y0273514D01*
X0157792Y0273534D01*
X0157873Y0273557D01*
X0157951Y0273584D01*
X0158029Y0273614D01*
X0158105Y0273649D01*
X0158179Y0273686D01*
X0158252Y0273727D01*
X0158322Y0273772D01*
X0158391Y0273819D01*
X0158457Y0273870D01*
X0158520Y0273924D01*
X0158581Y0273981D01*
X0158640Y0274041D01*
X0158695Y0274103D01*
X0158747Y0274168D01*
X0158797Y0274235D01*
X0158843Y0274305D01*
X0158886Y0274376D01*
X0158925Y0274450D01*
X0158961Y0274525D01*
X0158993Y0274602D01*
X0159022Y0274680D01*
X0159047Y0274759D01*
X0159068Y0274840D01*
X0159086Y0274921D01*
X0159099Y0275004D01*
X0159109Y0275087D01*
X0159115Y0275170D01*
X0159117Y0275253D01*
X0159115Y0275336D01*
X0159109Y0275419D01*
X0159099Y0275502D01*
X0159086Y0275585D01*
X0159068Y0275666D01*
X0159047Y0275747D01*
X0159022Y0275826D01*
X0158993Y0275904D01*
X0158961Y0275981D01*
X0158925Y0276056D01*
X0158886Y0276130D01*
X0158843Y0276201D01*
X0158797Y0276271D01*
X0158747Y0276338D01*
X0158695Y0276403D01*
X0158640Y0276465D01*
X0158581Y0276525D01*
X0158520Y0276582D01*
X0158457Y0276636D01*
X0158391Y0276687D01*
X0158322Y0276734D01*
X0158252Y0276779D01*
X0158179Y0276820D01*
X0158105Y0276857D01*
X0158029Y0276892D01*
X0157951Y0276922D01*
X0157873Y0276949D01*
X0157792Y0276972D01*
X0157711Y0276992D01*
X0157629Y0277007D01*
X0157547Y0277019D01*
X0157464Y0277027D01*
X0157381Y0277031D01*
X0157297Y0277031D01*
X0157214Y0277027D01*
X0157131Y0277019D01*
X0157049Y0277007D01*
X0156967Y0276992D01*
X0156886Y0276972D01*
X0156805Y0276949D01*
X0156727Y0276922D01*
X0156649Y0276892D01*
X0156573Y0276857D01*
X0156499Y0276820D01*
X0156426Y0276779D01*
X0156356Y0276734D01*
X0156287Y0276687D01*
X0156221Y0276636D01*
X0156158Y0276582D01*
X0156097Y0276525D01*
X0156038Y0276465D01*
X0155983Y0276403D01*
X0155931Y0276338D01*
X0155881Y0276271D01*
X0155835Y0276201D01*
X0155792Y0276130D01*
X0155753Y0276056D01*
X0155717Y0275981D01*
X0155685Y0275904D01*
X0155656Y0275826D01*
X0155631Y0275747D01*
X0155610Y0275666D01*
X0155592Y0275585D01*
X0155579Y0275502D01*
X0155569Y0275419D01*
X0155563Y0275336D01*
X0155561Y0275253D01*
X0161726Y0273831D02*
X0161726Y0273475D01*
X0162082Y0273475D01*
X0162082Y0273831D01*
X0161726Y0273831D01*
X0164692Y0273475D02*
X0168247Y0273475D01*
X0165225Y0277031D01*
X0166292Y0279875D02*
X0166381Y0279873D01*
X0166470Y0279867D01*
X0166559Y0279858D01*
X0166647Y0279844D01*
X0166734Y0279827D01*
X0166821Y0279806D01*
X0166907Y0279781D01*
X0166991Y0279753D01*
X0167074Y0279720D01*
X0167156Y0279685D01*
X0167236Y0279645D01*
X0167314Y0279603D01*
X0167391Y0279557D01*
X0167465Y0279508D01*
X0167537Y0279455D01*
X0167607Y0279400D01*
X0167674Y0279341D01*
X0167739Y0279280D01*
X0167801Y0279216D01*
X0167860Y0279149D01*
X0167916Y0279080D01*
X0167969Y0279008D01*
X0168019Y0278934D01*
X0168066Y0278858D01*
X0168109Y0278781D01*
X0168149Y0278701D01*
X0168186Y0278619D01*
X0168219Y0278537D01*
X0168248Y0278452D01*
X0165224Y0277030D02*
X0165167Y0277088D01*
X0165111Y0277149D01*
X0165059Y0277212D01*
X0165010Y0277277D01*
X0164964Y0277345D01*
X0164922Y0277415D01*
X0164882Y0277487D01*
X0164847Y0277560D01*
X0164814Y0277636D01*
X0164786Y0277712D01*
X0164761Y0277790D01*
X0164740Y0277869D01*
X0164722Y0277949D01*
X0164709Y0278030D01*
X0164699Y0278111D01*
X0164693Y0278193D01*
X0164691Y0278275D01*
X0164692Y0278275D02*
X0164694Y0278354D01*
X0164700Y0278432D01*
X0164709Y0278510D01*
X0164723Y0278587D01*
X0164740Y0278664D01*
X0164761Y0278739D01*
X0164786Y0278814D01*
X0164814Y0278887D01*
X0164846Y0278959D01*
X0164881Y0279029D01*
X0164920Y0279098D01*
X0164962Y0279164D01*
X0165007Y0279228D01*
X0165055Y0279290D01*
X0165106Y0279349D01*
X0165161Y0279406D01*
X0165218Y0279461D01*
X0165277Y0279512D01*
X0165339Y0279560D01*
X0165403Y0279605D01*
X0165469Y0279647D01*
X0165538Y0279686D01*
X0165608Y0279721D01*
X0165680Y0279753D01*
X0165753Y0279781D01*
X0165828Y0279806D01*
X0165903Y0279827D01*
X0165980Y0279844D01*
X0166057Y0279858D01*
X0166135Y0279867D01*
X0166213Y0279873D01*
X0166292Y0279875D01*
X0174772Y0275964D02*
X0179038Y0275964D01*
X0185254Y0277742D02*
X0187387Y0277742D01*
X0189515Y0277742D02*
X0189515Y0273475D01*
X0192440Y0273475D02*
X0192440Y0277742D01*
X0195285Y0277742D02*
X0195285Y0274542D01*
X0195283Y0274478D01*
X0195277Y0274413D01*
X0195268Y0274350D01*
X0195254Y0274287D01*
X0195237Y0274225D01*
X0195216Y0274164D01*
X0195191Y0274104D01*
X0195163Y0274046D01*
X0195131Y0273990D01*
X0195096Y0273936D01*
X0195058Y0273884D01*
X0195017Y0273834D01*
X0194972Y0273788D01*
X0194926Y0273743D01*
X0194876Y0273702D01*
X0194824Y0273664D01*
X0194770Y0273629D01*
X0194714Y0273597D01*
X0194656Y0273569D01*
X0194596Y0273544D01*
X0194535Y0273523D01*
X0194473Y0273506D01*
X0194410Y0273492D01*
X0194347Y0273483D01*
X0194282Y0273477D01*
X0194218Y0273475D01*
X0192440Y0273475D01*
X0197668Y0277031D02*
X0197668Y0277742D01*
X0199801Y0277742D01*
X0199801Y0273475D01*
X0203413Y0273475D02*
X0203413Y0278808D01*
X0203414Y0278808D02*
X0203412Y0278872D01*
X0203406Y0278937D01*
X0203397Y0279000D01*
X0203383Y0279063D01*
X0203366Y0279125D01*
X0203345Y0279186D01*
X0203320Y0279246D01*
X0203292Y0279304D01*
X0203260Y0279360D01*
X0203225Y0279414D01*
X0203187Y0279466D01*
X0203146Y0279516D01*
X0203101Y0279562D01*
X0203055Y0279607D01*
X0203005Y0279648D01*
X0202953Y0279686D01*
X0202899Y0279721D01*
X0202843Y0279753D01*
X0202785Y0279781D01*
X0202725Y0279806D01*
X0202664Y0279827D01*
X0202602Y0279844D01*
X0202539Y0279858D01*
X0202476Y0279867D01*
X0202411Y0279873D01*
X0202347Y0279875D01*
X0201991Y0279875D01*
X0201991Y0277742D02*
X0204124Y0277742D01*
X0206831Y0276675D02*
X0206831Y0273475D01*
X0208431Y0273475D01*
X0208501Y0273477D01*
X0208570Y0273483D01*
X0208639Y0273493D01*
X0208708Y0273506D01*
X0208775Y0273524D01*
X0208842Y0273545D01*
X0208907Y0273570D01*
X0208971Y0273598D01*
X0209033Y0273630D01*
X0209093Y0273666D01*
X0209151Y0273704D01*
X0209207Y0273746D01*
X0209260Y0273791D01*
X0209311Y0273839D01*
X0209359Y0273890D01*
X0209404Y0273943D01*
X0209446Y0273999D01*
X0209484Y0274057D01*
X0209520Y0274117D01*
X0209552Y0274179D01*
X0209580Y0274243D01*
X0209605Y0274308D01*
X0209626Y0274375D01*
X0209644Y0274442D01*
X0209657Y0274511D01*
X0209667Y0274580D01*
X0209673Y0274649D01*
X0209675Y0274719D01*
X0209673Y0274789D01*
X0209667Y0274858D01*
X0209657Y0274927D01*
X0209644Y0274996D01*
X0209626Y0275063D01*
X0209605Y0275130D01*
X0209580Y0275195D01*
X0209552Y0275259D01*
X0209520Y0275321D01*
X0209484Y0275381D01*
X0209446Y0275439D01*
X0209404Y0275495D01*
X0209359Y0275548D01*
X0209311Y0275599D01*
X0209260Y0275647D01*
X0209207Y0275692D01*
X0209151Y0275734D01*
X0209093Y0275772D01*
X0209033Y0275808D01*
X0208971Y0275840D01*
X0208907Y0275868D01*
X0208842Y0275893D01*
X0208775Y0275914D01*
X0208708Y0275932D01*
X0208639Y0275945D01*
X0208570Y0275955D01*
X0208501Y0275961D01*
X0208431Y0275963D01*
X0208431Y0275964D02*
X0206831Y0275964D01*
X0206831Y0276675D02*
X0206833Y0276739D01*
X0206839Y0276804D01*
X0206848Y0276867D01*
X0206862Y0276930D01*
X0206879Y0276992D01*
X0206900Y0277053D01*
X0206925Y0277113D01*
X0206953Y0277171D01*
X0206985Y0277227D01*
X0207020Y0277281D01*
X0207058Y0277333D01*
X0207099Y0277383D01*
X0207144Y0277429D01*
X0207190Y0277474D01*
X0207240Y0277515D01*
X0207292Y0277553D01*
X0207346Y0277588D01*
X0207402Y0277620D01*
X0207460Y0277648D01*
X0207520Y0277673D01*
X0207581Y0277694D01*
X0207643Y0277711D01*
X0207706Y0277725D01*
X0207769Y0277734D01*
X0207834Y0277740D01*
X0207898Y0277742D01*
X0209320Y0277742D01*
X0212701Y0277742D02*
X0214479Y0277742D01*
X0214543Y0277740D01*
X0214608Y0277734D01*
X0214671Y0277725D01*
X0214734Y0277711D01*
X0214796Y0277694D01*
X0214857Y0277673D01*
X0214917Y0277648D01*
X0214975Y0277620D01*
X0215031Y0277588D01*
X0215085Y0277553D01*
X0215137Y0277515D01*
X0215187Y0277474D01*
X0215233Y0277429D01*
X0215278Y0277383D01*
X0215319Y0277333D01*
X0215357Y0277281D01*
X0215392Y0277227D01*
X0215424Y0277171D01*
X0215452Y0277113D01*
X0215477Y0277053D01*
X0215498Y0276992D01*
X0215515Y0276930D01*
X0215529Y0276867D01*
X0215538Y0276804D01*
X0215544Y0276739D01*
X0215546Y0276675D01*
X0215546Y0274542D01*
X0215544Y0274478D01*
X0215538Y0274413D01*
X0215529Y0274350D01*
X0215515Y0274287D01*
X0215498Y0274225D01*
X0215477Y0274164D01*
X0215452Y0274104D01*
X0215424Y0274046D01*
X0215392Y0273990D01*
X0215357Y0273936D01*
X0215319Y0273884D01*
X0215278Y0273834D01*
X0215233Y0273788D01*
X0215187Y0273743D01*
X0215137Y0273702D01*
X0215085Y0273664D01*
X0215031Y0273629D01*
X0214975Y0273597D01*
X0214917Y0273569D01*
X0214857Y0273544D01*
X0214796Y0273523D01*
X0214734Y0273506D01*
X0214671Y0273492D01*
X0214608Y0273483D01*
X0214543Y0273477D01*
X0214479Y0273475D01*
X0212701Y0273475D01*
X0212701Y0279875D01*
X0220169Y0279875D02*
X0218035Y0273475D01*
X0218569Y0275075D02*
X0221769Y0275075D01*
X0222302Y0273475D02*
X0220169Y0279875D01*
X0189692Y0279875D02*
X0189337Y0279875D01*
X0189337Y0279519D01*
X0189692Y0279519D01*
X0189692Y0279875D01*
X0186676Y0279875D02*
X0186676Y0274542D01*
X0186674Y0274478D01*
X0186668Y0274413D01*
X0186659Y0274350D01*
X0186645Y0274287D01*
X0186628Y0274225D01*
X0186607Y0274164D01*
X0186582Y0274104D01*
X0186554Y0274046D01*
X0186522Y0273990D01*
X0186487Y0273936D01*
X0186449Y0273884D01*
X0186408Y0273834D01*
X0186363Y0273788D01*
X0186317Y0273743D01*
X0186267Y0273702D01*
X0186215Y0273664D01*
X0186161Y0273629D01*
X0186105Y0273597D01*
X0186047Y0273569D01*
X0185987Y0273544D01*
X0185926Y0273523D01*
X0185864Y0273506D01*
X0185801Y0273492D01*
X0185738Y0273483D01*
X0185673Y0273477D01*
X0185609Y0273475D01*
X0185254Y0273475D01*
X0136489Y0288992D02*
X0135067Y0288992D01*
X0135003Y0288990D01*
X0134938Y0288984D01*
X0134875Y0288975D01*
X0134812Y0288961D01*
X0134750Y0288944D01*
X0134689Y0288923D01*
X0134629Y0288898D01*
X0134571Y0288870D01*
X0134515Y0288838D01*
X0134461Y0288803D01*
X0134409Y0288765D01*
X0134359Y0288724D01*
X0134313Y0288679D01*
X0134268Y0288633D01*
X0134227Y0288583D01*
X0134189Y0288531D01*
X0134154Y0288477D01*
X0134122Y0288421D01*
X0134094Y0288363D01*
X0134069Y0288303D01*
X0134048Y0288242D01*
X0134031Y0288180D01*
X0134017Y0288117D01*
X0134008Y0288054D01*
X0134002Y0287989D01*
X0134000Y0287925D01*
X0134000Y0284725D01*
X0135600Y0284725D01*
X0135670Y0284727D01*
X0135739Y0284733D01*
X0135808Y0284743D01*
X0135877Y0284756D01*
X0135944Y0284774D01*
X0136011Y0284795D01*
X0136076Y0284820D01*
X0136140Y0284848D01*
X0136202Y0284880D01*
X0136262Y0284916D01*
X0136320Y0284954D01*
X0136376Y0284996D01*
X0136429Y0285041D01*
X0136480Y0285089D01*
X0136528Y0285140D01*
X0136573Y0285193D01*
X0136615Y0285249D01*
X0136653Y0285307D01*
X0136689Y0285367D01*
X0136721Y0285429D01*
X0136749Y0285493D01*
X0136774Y0285558D01*
X0136795Y0285625D01*
X0136813Y0285692D01*
X0136826Y0285761D01*
X0136836Y0285830D01*
X0136842Y0285899D01*
X0136844Y0285969D01*
X0136842Y0286039D01*
X0136836Y0286108D01*
X0136826Y0286177D01*
X0136813Y0286246D01*
X0136795Y0286313D01*
X0136774Y0286380D01*
X0136749Y0286445D01*
X0136721Y0286509D01*
X0136689Y0286571D01*
X0136653Y0286631D01*
X0136615Y0286689D01*
X0136573Y0286745D01*
X0136528Y0286798D01*
X0136480Y0286849D01*
X0136429Y0286897D01*
X0136376Y0286942D01*
X0136320Y0286984D01*
X0136262Y0287022D01*
X0136202Y0287058D01*
X0136140Y0287090D01*
X0136076Y0287118D01*
X0136011Y0287143D01*
X0135944Y0287164D01*
X0135877Y0287182D01*
X0135808Y0287195D01*
X0135739Y0287205D01*
X0135670Y0287211D01*
X0135600Y0287213D01*
X0135600Y0287214D02*
X0134000Y0287214D01*
X0113267Y0285792D02*
X0113267Y0291125D01*
X0113268Y0285792D02*
X0113266Y0285728D01*
X0113260Y0285663D01*
X0113251Y0285600D01*
X0113237Y0285537D01*
X0113220Y0285475D01*
X0113199Y0285414D01*
X0113174Y0285354D01*
X0113146Y0285296D01*
X0113114Y0285240D01*
X0113079Y0285186D01*
X0113041Y0285134D01*
X0113000Y0285084D01*
X0112955Y0285038D01*
X0112909Y0284993D01*
X0112859Y0284952D01*
X0112807Y0284914D01*
X0112753Y0284879D01*
X0112697Y0284847D01*
X0112639Y0284819D01*
X0112579Y0284794D01*
X0112518Y0284773D01*
X0112456Y0284756D01*
X0112393Y0284742D01*
X0112330Y0284733D01*
X0112265Y0284727D01*
X0112201Y0284725D01*
X0106355Y0285792D02*
X0106355Y0287925D01*
X0106356Y0287925D02*
X0106354Y0287989D01*
X0106348Y0288054D01*
X0106339Y0288117D01*
X0106325Y0288180D01*
X0106308Y0288242D01*
X0106287Y0288303D01*
X0106262Y0288363D01*
X0106234Y0288421D01*
X0106202Y0288477D01*
X0106167Y0288531D01*
X0106129Y0288583D01*
X0106088Y0288633D01*
X0106043Y0288679D01*
X0105997Y0288724D01*
X0105947Y0288765D01*
X0105895Y0288803D01*
X0105841Y0288838D01*
X0105785Y0288870D01*
X0105727Y0288898D01*
X0105667Y0288923D01*
X0105606Y0288944D01*
X0105544Y0288961D01*
X0105481Y0288975D01*
X0105418Y0288984D01*
X0105353Y0288990D01*
X0105289Y0288992D01*
X0103867Y0288992D01*
X0101365Y0287569D02*
X0101365Y0286147D01*
X0101363Y0286073D01*
X0101357Y0285998D01*
X0101347Y0285925D01*
X0101334Y0285851D01*
X0101317Y0285779D01*
X0101295Y0285708D01*
X0101271Y0285637D01*
X0101242Y0285569D01*
X0101210Y0285501D01*
X0101174Y0285436D01*
X0101136Y0285373D01*
X0101093Y0285311D01*
X0101048Y0285252D01*
X0101000Y0285195D01*
X0100949Y0285141D01*
X0100895Y0285090D01*
X0100838Y0285042D01*
X0100779Y0284997D01*
X0100717Y0284954D01*
X0100654Y0284916D01*
X0100589Y0284880D01*
X0100521Y0284848D01*
X0100453Y0284819D01*
X0100382Y0284795D01*
X0100311Y0284773D01*
X0100239Y0284756D01*
X0100165Y0284743D01*
X0100092Y0284733D01*
X0100017Y0284727D01*
X0099943Y0284725D01*
X0099869Y0284727D01*
X0099794Y0284733D01*
X0099721Y0284743D01*
X0099647Y0284756D01*
X0099575Y0284773D01*
X0099504Y0284795D01*
X0099433Y0284819D01*
X0099365Y0284848D01*
X0099297Y0284880D01*
X0099232Y0284916D01*
X0099169Y0284954D01*
X0099107Y0284997D01*
X0099048Y0285042D01*
X0098991Y0285090D01*
X0098937Y0285141D01*
X0098886Y0285195D01*
X0098838Y0285252D01*
X0098793Y0285311D01*
X0098750Y0285373D01*
X0098712Y0285436D01*
X0098676Y0285501D01*
X0098644Y0285569D01*
X0098615Y0285637D01*
X0098591Y0285708D01*
X0098569Y0285779D01*
X0098552Y0285851D01*
X0098539Y0285925D01*
X0098529Y0285998D01*
X0098523Y0286073D01*
X0098521Y0286147D01*
X0098521Y0287569D01*
X0098523Y0287643D01*
X0098529Y0287718D01*
X0098539Y0287791D01*
X0098552Y0287865D01*
X0098569Y0287937D01*
X0098591Y0288008D01*
X0098615Y0288079D01*
X0098644Y0288147D01*
X0098676Y0288215D01*
X0098712Y0288280D01*
X0098750Y0288343D01*
X0098793Y0288405D01*
X0098838Y0288464D01*
X0098886Y0288521D01*
X0098937Y0288575D01*
X0098991Y0288626D01*
X0099048Y0288674D01*
X0099107Y0288719D01*
X0099169Y0288762D01*
X0099232Y0288800D01*
X0099297Y0288836D01*
X0099365Y0288868D01*
X0099433Y0288897D01*
X0099504Y0288921D01*
X0099575Y0288943D01*
X0099647Y0288960D01*
X0099721Y0288973D01*
X0099794Y0288983D01*
X0099869Y0288989D01*
X0099943Y0288991D01*
X0100017Y0288989D01*
X0100092Y0288983D01*
X0100165Y0288973D01*
X0100239Y0288960D01*
X0100311Y0288943D01*
X0100382Y0288921D01*
X0100453Y0288897D01*
X0100521Y0288868D01*
X0100589Y0288836D01*
X0100654Y0288800D01*
X0100717Y0288762D01*
X0100779Y0288719D01*
X0100838Y0288674D01*
X0100895Y0288626D01*
X0100949Y0288575D01*
X0101000Y0288521D01*
X0101048Y0288464D01*
X0101093Y0288405D01*
X0101136Y0288343D01*
X0101174Y0288280D01*
X0101210Y0288215D01*
X0101242Y0288147D01*
X0101271Y0288079D01*
X0101295Y0288008D01*
X0101317Y0287937D01*
X0101334Y0287865D01*
X0101347Y0287791D01*
X0101357Y0287718D01*
X0101363Y0287643D01*
X0101365Y0287569D01*
X0103867Y0284725D02*
X0105289Y0284725D01*
X0105353Y0284727D01*
X0105418Y0284733D01*
X0105481Y0284742D01*
X0105544Y0284756D01*
X0105606Y0284773D01*
X0105667Y0284794D01*
X0105727Y0284819D01*
X0105785Y0284847D01*
X0105841Y0284879D01*
X0105895Y0284914D01*
X0105947Y0284952D01*
X0105997Y0284993D01*
X0106043Y0285038D01*
X0106088Y0285084D01*
X0106129Y0285134D01*
X0106167Y0285186D01*
X0106202Y0285240D01*
X0106234Y0285296D01*
X0106262Y0285354D01*
X0106287Y0285414D01*
X0106308Y0285475D01*
X0106325Y0285537D01*
X0106339Y0285600D01*
X0106348Y0285663D01*
X0106354Y0285728D01*
X0106356Y0285792D01*
X0095337Y0284725D02*
X0095337Y0288992D01*
X0092137Y0288992D01*
X0093204Y0288992D02*
X0093204Y0284725D01*
X0091070Y0284725D02*
X0091070Y0287925D01*
X0091072Y0287989D01*
X0091078Y0288054D01*
X0091087Y0288117D01*
X0091101Y0288180D01*
X0091118Y0288242D01*
X0091139Y0288303D01*
X0091164Y0288363D01*
X0091192Y0288421D01*
X0091224Y0288477D01*
X0091259Y0288531D01*
X0091297Y0288583D01*
X0091338Y0288633D01*
X0091383Y0288679D01*
X0091429Y0288724D01*
X0091479Y0288765D01*
X0091531Y0288803D01*
X0091585Y0288838D01*
X0091641Y0288870D01*
X0091699Y0288898D01*
X0091759Y0288923D01*
X0091820Y0288944D01*
X0091882Y0288961D01*
X0091945Y0288975D01*
X0092008Y0288984D01*
X0092073Y0288990D01*
X0092137Y0288992D01*
D89*
X0083800Y0019800D02*
X0078800Y0019800D01*
M02*
