G75*
%MOIN*%
%OFA0B0*%
%FSLAX25Y25*%
%IPPOS*%
%LPD*%
%AMOC8*
5,1,8,0,0,1.08239X$1,22.5*
%
%ADD10C,0.07400*%
%ADD11C,0.02400*%
D10*
X0031300Y0066300D03*
X0041300Y0066300D03*
X0051300Y0066300D03*
X0061300Y0066300D03*
X0071300Y0066300D03*
X0081300Y0066300D03*
X0091300Y0066300D03*
X0101300Y0066300D03*
X0111300Y0066300D03*
X0121300Y0066300D03*
X0131300Y0066300D03*
X0141300Y0066300D03*
X0151300Y0066300D03*
X0161300Y0066300D03*
X0171300Y0066300D03*
X0181300Y0066300D03*
X0191300Y0066300D03*
X0201300Y0066300D03*
X0211300Y0066300D03*
X0221300Y0066300D03*
X0171300Y0036300D03*
X0171300Y0026300D03*
X0161300Y0026300D03*
X0161300Y0036300D03*
X0151300Y0036300D03*
X0151300Y0026300D03*
X0141300Y0026300D03*
X0141300Y0036300D03*
X0131300Y0036300D03*
X0131300Y0026300D03*
X0121300Y0026300D03*
X0121300Y0036300D03*
X0111300Y0036300D03*
X0111300Y0026300D03*
X0101300Y0026300D03*
X0101300Y0036300D03*
X0091300Y0036300D03*
X0091300Y0026300D03*
X0081300Y0026300D03*
X0081300Y0036300D03*
X0081300Y0366300D03*
X0071300Y0366300D03*
X0061300Y0366300D03*
X0051300Y0366300D03*
X0041300Y0366300D03*
X0031300Y0366300D03*
X0091300Y0366300D03*
X0101300Y0366300D03*
X0111300Y0366300D03*
X0121300Y0366300D03*
X0131300Y0366300D03*
X0141300Y0366300D03*
X0151300Y0366300D03*
X0161300Y0366300D03*
X0171300Y0366300D03*
X0181300Y0366300D03*
X0191300Y0366300D03*
X0201300Y0366300D03*
X0211300Y0366300D03*
X0221300Y0366300D03*
D11*
X0013300Y0040100D02*
X0041800Y0011600D01*
X0111300Y0011600D01*
X0111300Y0026300D01*
X0111300Y0011600D02*
X0175400Y0011600D01*
X0186500Y0022700D01*
X0186500Y0043400D01*
X0169800Y0060100D01*
X0147500Y0060100D01*
X0141300Y0066300D01*
X0143100Y0059100D02*
X0078500Y0059100D01*
X0071300Y0066300D01*
X0076100Y0072700D02*
X0081300Y0067500D01*
X0081300Y0066300D01*
X0076100Y0072700D02*
X0028500Y0072700D01*
X0025100Y0069300D01*
X0025100Y0062500D01*
X0043800Y0043800D01*
X0144100Y0043800D01*
X0151300Y0036600D01*
X0151300Y0036300D01*
X0151300Y0044300D02*
X0156300Y0044300D01*
X0161300Y0039300D01*
X0161300Y0036300D01*
X0151300Y0044300D02*
X0144900Y0050700D01*
X0068900Y0050700D01*
X0061300Y0058300D01*
X0061300Y0066300D01*
X0087500Y0080100D02*
X0026800Y0080100D01*
X0018700Y0072000D01*
X0018700Y0052800D01*
X0053500Y0018000D01*
X0098000Y0018000D01*
X0101300Y0021300D01*
X0101300Y0026300D01*
X0101300Y0066300D02*
X0087500Y0080100D01*
X0111300Y0066300D02*
X0111300Y0346300D01*
X0110100Y0347500D01*
X0108800Y0348800D01*
X0091300Y0366300D01*
X0104000Y0373600D02*
X0030200Y0373600D01*
X0013300Y0356700D01*
X0013300Y0040100D01*
X0131300Y0066300D02*
X0131300Y0356300D01*
X0121300Y0366300D01*
X0131300Y0366300D02*
X0132200Y0366800D01*
X0140000Y0374600D01*
X0224000Y0374600D01*
X0230400Y0368200D01*
X0230400Y0355400D01*
X0161300Y0286300D01*
X0161300Y0066300D01*
X0151300Y0066300D02*
X0151300Y0356300D01*
X0150900Y0356700D01*
X0141300Y0366300D01*
X0150900Y0356700D02*
X0150900Y0355300D01*
X0111300Y0366300D02*
X0104000Y0373600D01*
X0143100Y0059100D02*
X0152400Y0049800D01*
X0167000Y0049800D01*
X0178100Y0038700D01*
X0178100Y0023400D01*
X0174700Y0020000D01*
X0167900Y0020000D01*
M02*
