G75*
%MOIN*%
%OFA0B0*%
%FSLAX25Y25*%
%IPPOS*%
%LPD*%
%AMOC8*
5,1,8,0,0,1.08239X$1,22.5*
%
%ADD10C,0.00000*%
%ADD11C,0.01000*%
%ADD12C,0.00300*%
%ADD13C,0.00800*%
D10*
X0005394Y0011300D02*
X0005396Y0011453D01*
X0005402Y0011607D01*
X0005412Y0011760D01*
X0005426Y0011912D01*
X0005444Y0012065D01*
X0005466Y0012216D01*
X0005491Y0012367D01*
X0005521Y0012518D01*
X0005555Y0012668D01*
X0005592Y0012816D01*
X0005633Y0012964D01*
X0005678Y0013110D01*
X0005727Y0013256D01*
X0005780Y0013400D01*
X0005836Y0013542D01*
X0005896Y0013683D01*
X0005960Y0013823D01*
X0006027Y0013961D01*
X0006098Y0014097D01*
X0006173Y0014231D01*
X0006250Y0014363D01*
X0006332Y0014493D01*
X0006416Y0014621D01*
X0006504Y0014747D01*
X0006595Y0014870D01*
X0006689Y0014991D01*
X0006787Y0015109D01*
X0006887Y0015225D01*
X0006991Y0015338D01*
X0007097Y0015449D01*
X0007206Y0015557D01*
X0007318Y0015662D01*
X0007432Y0015763D01*
X0007550Y0015862D01*
X0007669Y0015958D01*
X0007791Y0016051D01*
X0007916Y0016140D01*
X0008043Y0016227D01*
X0008172Y0016309D01*
X0008303Y0016389D01*
X0008436Y0016465D01*
X0008571Y0016538D01*
X0008708Y0016607D01*
X0008847Y0016672D01*
X0008987Y0016734D01*
X0009129Y0016792D01*
X0009272Y0016847D01*
X0009417Y0016898D01*
X0009563Y0016945D01*
X0009710Y0016988D01*
X0009858Y0017027D01*
X0010007Y0017063D01*
X0010157Y0017094D01*
X0010308Y0017122D01*
X0010459Y0017146D01*
X0010612Y0017166D01*
X0010764Y0017182D01*
X0010917Y0017194D01*
X0011070Y0017202D01*
X0011223Y0017206D01*
X0011377Y0017206D01*
X0011530Y0017202D01*
X0011683Y0017194D01*
X0011836Y0017182D01*
X0011988Y0017166D01*
X0012141Y0017146D01*
X0012292Y0017122D01*
X0012443Y0017094D01*
X0012593Y0017063D01*
X0012742Y0017027D01*
X0012890Y0016988D01*
X0013037Y0016945D01*
X0013183Y0016898D01*
X0013328Y0016847D01*
X0013471Y0016792D01*
X0013613Y0016734D01*
X0013753Y0016672D01*
X0013892Y0016607D01*
X0014029Y0016538D01*
X0014164Y0016465D01*
X0014297Y0016389D01*
X0014428Y0016309D01*
X0014557Y0016227D01*
X0014684Y0016140D01*
X0014809Y0016051D01*
X0014931Y0015958D01*
X0015050Y0015862D01*
X0015168Y0015763D01*
X0015282Y0015662D01*
X0015394Y0015557D01*
X0015503Y0015449D01*
X0015609Y0015338D01*
X0015713Y0015225D01*
X0015813Y0015109D01*
X0015911Y0014991D01*
X0016005Y0014870D01*
X0016096Y0014747D01*
X0016184Y0014621D01*
X0016268Y0014493D01*
X0016350Y0014363D01*
X0016427Y0014231D01*
X0016502Y0014097D01*
X0016573Y0013961D01*
X0016640Y0013823D01*
X0016704Y0013683D01*
X0016764Y0013542D01*
X0016820Y0013400D01*
X0016873Y0013256D01*
X0016922Y0013110D01*
X0016967Y0012964D01*
X0017008Y0012816D01*
X0017045Y0012668D01*
X0017079Y0012518D01*
X0017109Y0012367D01*
X0017134Y0012216D01*
X0017156Y0012065D01*
X0017174Y0011912D01*
X0017188Y0011760D01*
X0017198Y0011607D01*
X0017204Y0011453D01*
X0017206Y0011300D01*
X0017204Y0011147D01*
X0017198Y0010993D01*
X0017188Y0010840D01*
X0017174Y0010688D01*
X0017156Y0010535D01*
X0017134Y0010384D01*
X0017109Y0010233D01*
X0017079Y0010082D01*
X0017045Y0009932D01*
X0017008Y0009784D01*
X0016967Y0009636D01*
X0016922Y0009490D01*
X0016873Y0009344D01*
X0016820Y0009200D01*
X0016764Y0009058D01*
X0016704Y0008917D01*
X0016640Y0008777D01*
X0016573Y0008639D01*
X0016502Y0008503D01*
X0016427Y0008369D01*
X0016350Y0008237D01*
X0016268Y0008107D01*
X0016184Y0007979D01*
X0016096Y0007853D01*
X0016005Y0007730D01*
X0015911Y0007609D01*
X0015813Y0007491D01*
X0015713Y0007375D01*
X0015609Y0007262D01*
X0015503Y0007151D01*
X0015394Y0007043D01*
X0015282Y0006938D01*
X0015168Y0006837D01*
X0015050Y0006738D01*
X0014931Y0006642D01*
X0014809Y0006549D01*
X0014684Y0006460D01*
X0014557Y0006373D01*
X0014428Y0006291D01*
X0014297Y0006211D01*
X0014164Y0006135D01*
X0014029Y0006062D01*
X0013892Y0005993D01*
X0013753Y0005928D01*
X0013613Y0005866D01*
X0013471Y0005808D01*
X0013328Y0005753D01*
X0013183Y0005702D01*
X0013037Y0005655D01*
X0012890Y0005612D01*
X0012742Y0005573D01*
X0012593Y0005537D01*
X0012443Y0005506D01*
X0012292Y0005478D01*
X0012141Y0005454D01*
X0011988Y0005434D01*
X0011836Y0005418D01*
X0011683Y0005406D01*
X0011530Y0005398D01*
X0011377Y0005394D01*
X0011223Y0005394D01*
X0011070Y0005398D01*
X0010917Y0005406D01*
X0010764Y0005418D01*
X0010612Y0005434D01*
X0010459Y0005454D01*
X0010308Y0005478D01*
X0010157Y0005506D01*
X0010007Y0005537D01*
X0009858Y0005573D01*
X0009710Y0005612D01*
X0009563Y0005655D01*
X0009417Y0005702D01*
X0009272Y0005753D01*
X0009129Y0005808D01*
X0008987Y0005866D01*
X0008847Y0005928D01*
X0008708Y0005993D01*
X0008571Y0006062D01*
X0008436Y0006135D01*
X0008303Y0006211D01*
X0008172Y0006291D01*
X0008043Y0006373D01*
X0007916Y0006460D01*
X0007791Y0006549D01*
X0007669Y0006642D01*
X0007550Y0006738D01*
X0007432Y0006837D01*
X0007318Y0006938D01*
X0007206Y0007043D01*
X0007097Y0007151D01*
X0006991Y0007262D01*
X0006887Y0007375D01*
X0006787Y0007491D01*
X0006689Y0007609D01*
X0006595Y0007730D01*
X0006504Y0007853D01*
X0006416Y0007979D01*
X0006332Y0008107D01*
X0006250Y0008237D01*
X0006173Y0008369D01*
X0006098Y0008503D01*
X0006027Y0008639D01*
X0005960Y0008777D01*
X0005896Y0008917D01*
X0005836Y0009058D01*
X0005780Y0009200D01*
X0005727Y0009344D01*
X0005678Y0009490D01*
X0005633Y0009636D01*
X0005592Y0009784D01*
X0005555Y0009932D01*
X0005521Y0010082D01*
X0005491Y0010233D01*
X0005466Y0010384D01*
X0005444Y0010535D01*
X0005426Y0010688D01*
X0005412Y0010840D01*
X0005402Y0010993D01*
X0005396Y0011147D01*
X0005394Y0011300D01*
X0235394Y0011300D02*
X0235396Y0011453D01*
X0235402Y0011607D01*
X0235412Y0011760D01*
X0235426Y0011912D01*
X0235444Y0012065D01*
X0235466Y0012216D01*
X0235491Y0012367D01*
X0235521Y0012518D01*
X0235555Y0012668D01*
X0235592Y0012816D01*
X0235633Y0012964D01*
X0235678Y0013110D01*
X0235727Y0013256D01*
X0235780Y0013400D01*
X0235836Y0013542D01*
X0235896Y0013683D01*
X0235960Y0013823D01*
X0236027Y0013961D01*
X0236098Y0014097D01*
X0236173Y0014231D01*
X0236250Y0014363D01*
X0236332Y0014493D01*
X0236416Y0014621D01*
X0236504Y0014747D01*
X0236595Y0014870D01*
X0236689Y0014991D01*
X0236787Y0015109D01*
X0236887Y0015225D01*
X0236991Y0015338D01*
X0237097Y0015449D01*
X0237206Y0015557D01*
X0237318Y0015662D01*
X0237432Y0015763D01*
X0237550Y0015862D01*
X0237669Y0015958D01*
X0237791Y0016051D01*
X0237916Y0016140D01*
X0238043Y0016227D01*
X0238172Y0016309D01*
X0238303Y0016389D01*
X0238436Y0016465D01*
X0238571Y0016538D01*
X0238708Y0016607D01*
X0238847Y0016672D01*
X0238987Y0016734D01*
X0239129Y0016792D01*
X0239272Y0016847D01*
X0239417Y0016898D01*
X0239563Y0016945D01*
X0239710Y0016988D01*
X0239858Y0017027D01*
X0240007Y0017063D01*
X0240157Y0017094D01*
X0240308Y0017122D01*
X0240459Y0017146D01*
X0240612Y0017166D01*
X0240764Y0017182D01*
X0240917Y0017194D01*
X0241070Y0017202D01*
X0241223Y0017206D01*
X0241377Y0017206D01*
X0241530Y0017202D01*
X0241683Y0017194D01*
X0241836Y0017182D01*
X0241988Y0017166D01*
X0242141Y0017146D01*
X0242292Y0017122D01*
X0242443Y0017094D01*
X0242593Y0017063D01*
X0242742Y0017027D01*
X0242890Y0016988D01*
X0243037Y0016945D01*
X0243183Y0016898D01*
X0243328Y0016847D01*
X0243471Y0016792D01*
X0243613Y0016734D01*
X0243753Y0016672D01*
X0243892Y0016607D01*
X0244029Y0016538D01*
X0244164Y0016465D01*
X0244297Y0016389D01*
X0244428Y0016309D01*
X0244557Y0016227D01*
X0244684Y0016140D01*
X0244809Y0016051D01*
X0244931Y0015958D01*
X0245050Y0015862D01*
X0245168Y0015763D01*
X0245282Y0015662D01*
X0245394Y0015557D01*
X0245503Y0015449D01*
X0245609Y0015338D01*
X0245713Y0015225D01*
X0245813Y0015109D01*
X0245911Y0014991D01*
X0246005Y0014870D01*
X0246096Y0014747D01*
X0246184Y0014621D01*
X0246268Y0014493D01*
X0246350Y0014363D01*
X0246427Y0014231D01*
X0246502Y0014097D01*
X0246573Y0013961D01*
X0246640Y0013823D01*
X0246704Y0013683D01*
X0246764Y0013542D01*
X0246820Y0013400D01*
X0246873Y0013256D01*
X0246922Y0013110D01*
X0246967Y0012964D01*
X0247008Y0012816D01*
X0247045Y0012668D01*
X0247079Y0012518D01*
X0247109Y0012367D01*
X0247134Y0012216D01*
X0247156Y0012065D01*
X0247174Y0011912D01*
X0247188Y0011760D01*
X0247198Y0011607D01*
X0247204Y0011453D01*
X0247206Y0011300D01*
X0247204Y0011147D01*
X0247198Y0010993D01*
X0247188Y0010840D01*
X0247174Y0010688D01*
X0247156Y0010535D01*
X0247134Y0010384D01*
X0247109Y0010233D01*
X0247079Y0010082D01*
X0247045Y0009932D01*
X0247008Y0009784D01*
X0246967Y0009636D01*
X0246922Y0009490D01*
X0246873Y0009344D01*
X0246820Y0009200D01*
X0246764Y0009058D01*
X0246704Y0008917D01*
X0246640Y0008777D01*
X0246573Y0008639D01*
X0246502Y0008503D01*
X0246427Y0008369D01*
X0246350Y0008237D01*
X0246268Y0008107D01*
X0246184Y0007979D01*
X0246096Y0007853D01*
X0246005Y0007730D01*
X0245911Y0007609D01*
X0245813Y0007491D01*
X0245713Y0007375D01*
X0245609Y0007262D01*
X0245503Y0007151D01*
X0245394Y0007043D01*
X0245282Y0006938D01*
X0245168Y0006837D01*
X0245050Y0006738D01*
X0244931Y0006642D01*
X0244809Y0006549D01*
X0244684Y0006460D01*
X0244557Y0006373D01*
X0244428Y0006291D01*
X0244297Y0006211D01*
X0244164Y0006135D01*
X0244029Y0006062D01*
X0243892Y0005993D01*
X0243753Y0005928D01*
X0243613Y0005866D01*
X0243471Y0005808D01*
X0243328Y0005753D01*
X0243183Y0005702D01*
X0243037Y0005655D01*
X0242890Y0005612D01*
X0242742Y0005573D01*
X0242593Y0005537D01*
X0242443Y0005506D01*
X0242292Y0005478D01*
X0242141Y0005454D01*
X0241988Y0005434D01*
X0241836Y0005418D01*
X0241683Y0005406D01*
X0241530Y0005398D01*
X0241377Y0005394D01*
X0241223Y0005394D01*
X0241070Y0005398D01*
X0240917Y0005406D01*
X0240764Y0005418D01*
X0240612Y0005434D01*
X0240459Y0005454D01*
X0240308Y0005478D01*
X0240157Y0005506D01*
X0240007Y0005537D01*
X0239858Y0005573D01*
X0239710Y0005612D01*
X0239563Y0005655D01*
X0239417Y0005702D01*
X0239272Y0005753D01*
X0239129Y0005808D01*
X0238987Y0005866D01*
X0238847Y0005928D01*
X0238708Y0005993D01*
X0238571Y0006062D01*
X0238436Y0006135D01*
X0238303Y0006211D01*
X0238172Y0006291D01*
X0238043Y0006373D01*
X0237916Y0006460D01*
X0237791Y0006549D01*
X0237669Y0006642D01*
X0237550Y0006738D01*
X0237432Y0006837D01*
X0237318Y0006938D01*
X0237206Y0007043D01*
X0237097Y0007151D01*
X0236991Y0007262D01*
X0236887Y0007375D01*
X0236787Y0007491D01*
X0236689Y0007609D01*
X0236595Y0007730D01*
X0236504Y0007853D01*
X0236416Y0007979D01*
X0236332Y0008107D01*
X0236250Y0008237D01*
X0236173Y0008369D01*
X0236098Y0008503D01*
X0236027Y0008639D01*
X0235960Y0008777D01*
X0235896Y0008917D01*
X0235836Y0009058D01*
X0235780Y0009200D01*
X0235727Y0009344D01*
X0235678Y0009490D01*
X0235633Y0009636D01*
X0235592Y0009784D01*
X0235555Y0009932D01*
X0235521Y0010082D01*
X0235491Y0010233D01*
X0235466Y0010384D01*
X0235444Y0010535D01*
X0235426Y0010688D01*
X0235412Y0010840D01*
X0235402Y0010993D01*
X0235396Y0011147D01*
X0235394Y0011300D01*
X0235394Y0371300D02*
X0235396Y0371453D01*
X0235402Y0371607D01*
X0235412Y0371760D01*
X0235426Y0371912D01*
X0235444Y0372065D01*
X0235466Y0372216D01*
X0235491Y0372367D01*
X0235521Y0372518D01*
X0235555Y0372668D01*
X0235592Y0372816D01*
X0235633Y0372964D01*
X0235678Y0373110D01*
X0235727Y0373256D01*
X0235780Y0373400D01*
X0235836Y0373542D01*
X0235896Y0373683D01*
X0235960Y0373823D01*
X0236027Y0373961D01*
X0236098Y0374097D01*
X0236173Y0374231D01*
X0236250Y0374363D01*
X0236332Y0374493D01*
X0236416Y0374621D01*
X0236504Y0374747D01*
X0236595Y0374870D01*
X0236689Y0374991D01*
X0236787Y0375109D01*
X0236887Y0375225D01*
X0236991Y0375338D01*
X0237097Y0375449D01*
X0237206Y0375557D01*
X0237318Y0375662D01*
X0237432Y0375763D01*
X0237550Y0375862D01*
X0237669Y0375958D01*
X0237791Y0376051D01*
X0237916Y0376140D01*
X0238043Y0376227D01*
X0238172Y0376309D01*
X0238303Y0376389D01*
X0238436Y0376465D01*
X0238571Y0376538D01*
X0238708Y0376607D01*
X0238847Y0376672D01*
X0238987Y0376734D01*
X0239129Y0376792D01*
X0239272Y0376847D01*
X0239417Y0376898D01*
X0239563Y0376945D01*
X0239710Y0376988D01*
X0239858Y0377027D01*
X0240007Y0377063D01*
X0240157Y0377094D01*
X0240308Y0377122D01*
X0240459Y0377146D01*
X0240612Y0377166D01*
X0240764Y0377182D01*
X0240917Y0377194D01*
X0241070Y0377202D01*
X0241223Y0377206D01*
X0241377Y0377206D01*
X0241530Y0377202D01*
X0241683Y0377194D01*
X0241836Y0377182D01*
X0241988Y0377166D01*
X0242141Y0377146D01*
X0242292Y0377122D01*
X0242443Y0377094D01*
X0242593Y0377063D01*
X0242742Y0377027D01*
X0242890Y0376988D01*
X0243037Y0376945D01*
X0243183Y0376898D01*
X0243328Y0376847D01*
X0243471Y0376792D01*
X0243613Y0376734D01*
X0243753Y0376672D01*
X0243892Y0376607D01*
X0244029Y0376538D01*
X0244164Y0376465D01*
X0244297Y0376389D01*
X0244428Y0376309D01*
X0244557Y0376227D01*
X0244684Y0376140D01*
X0244809Y0376051D01*
X0244931Y0375958D01*
X0245050Y0375862D01*
X0245168Y0375763D01*
X0245282Y0375662D01*
X0245394Y0375557D01*
X0245503Y0375449D01*
X0245609Y0375338D01*
X0245713Y0375225D01*
X0245813Y0375109D01*
X0245911Y0374991D01*
X0246005Y0374870D01*
X0246096Y0374747D01*
X0246184Y0374621D01*
X0246268Y0374493D01*
X0246350Y0374363D01*
X0246427Y0374231D01*
X0246502Y0374097D01*
X0246573Y0373961D01*
X0246640Y0373823D01*
X0246704Y0373683D01*
X0246764Y0373542D01*
X0246820Y0373400D01*
X0246873Y0373256D01*
X0246922Y0373110D01*
X0246967Y0372964D01*
X0247008Y0372816D01*
X0247045Y0372668D01*
X0247079Y0372518D01*
X0247109Y0372367D01*
X0247134Y0372216D01*
X0247156Y0372065D01*
X0247174Y0371912D01*
X0247188Y0371760D01*
X0247198Y0371607D01*
X0247204Y0371453D01*
X0247206Y0371300D01*
X0247204Y0371147D01*
X0247198Y0370993D01*
X0247188Y0370840D01*
X0247174Y0370688D01*
X0247156Y0370535D01*
X0247134Y0370384D01*
X0247109Y0370233D01*
X0247079Y0370082D01*
X0247045Y0369932D01*
X0247008Y0369784D01*
X0246967Y0369636D01*
X0246922Y0369490D01*
X0246873Y0369344D01*
X0246820Y0369200D01*
X0246764Y0369058D01*
X0246704Y0368917D01*
X0246640Y0368777D01*
X0246573Y0368639D01*
X0246502Y0368503D01*
X0246427Y0368369D01*
X0246350Y0368237D01*
X0246268Y0368107D01*
X0246184Y0367979D01*
X0246096Y0367853D01*
X0246005Y0367730D01*
X0245911Y0367609D01*
X0245813Y0367491D01*
X0245713Y0367375D01*
X0245609Y0367262D01*
X0245503Y0367151D01*
X0245394Y0367043D01*
X0245282Y0366938D01*
X0245168Y0366837D01*
X0245050Y0366738D01*
X0244931Y0366642D01*
X0244809Y0366549D01*
X0244684Y0366460D01*
X0244557Y0366373D01*
X0244428Y0366291D01*
X0244297Y0366211D01*
X0244164Y0366135D01*
X0244029Y0366062D01*
X0243892Y0365993D01*
X0243753Y0365928D01*
X0243613Y0365866D01*
X0243471Y0365808D01*
X0243328Y0365753D01*
X0243183Y0365702D01*
X0243037Y0365655D01*
X0242890Y0365612D01*
X0242742Y0365573D01*
X0242593Y0365537D01*
X0242443Y0365506D01*
X0242292Y0365478D01*
X0242141Y0365454D01*
X0241988Y0365434D01*
X0241836Y0365418D01*
X0241683Y0365406D01*
X0241530Y0365398D01*
X0241377Y0365394D01*
X0241223Y0365394D01*
X0241070Y0365398D01*
X0240917Y0365406D01*
X0240764Y0365418D01*
X0240612Y0365434D01*
X0240459Y0365454D01*
X0240308Y0365478D01*
X0240157Y0365506D01*
X0240007Y0365537D01*
X0239858Y0365573D01*
X0239710Y0365612D01*
X0239563Y0365655D01*
X0239417Y0365702D01*
X0239272Y0365753D01*
X0239129Y0365808D01*
X0238987Y0365866D01*
X0238847Y0365928D01*
X0238708Y0365993D01*
X0238571Y0366062D01*
X0238436Y0366135D01*
X0238303Y0366211D01*
X0238172Y0366291D01*
X0238043Y0366373D01*
X0237916Y0366460D01*
X0237791Y0366549D01*
X0237669Y0366642D01*
X0237550Y0366738D01*
X0237432Y0366837D01*
X0237318Y0366938D01*
X0237206Y0367043D01*
X0237097Y0367151D01*
X0236991Y0367262D01*
X0236887Y0367375D01*
X0236787Y0367491D01*
X0236689Y0367609D01*
X0236595Y0367730D01*
X0236504Y0367853D01*
X0236416Y0367979D01*
X0236332Y0368107D01*
X0236250Y0368237D01*
X0236173Y0368369D01*
X0236098Y0368503D01*
X0236027Y0368639D01*
X0235960Y0368777D01*
X0235896Y0368917D01*
X0235836Y0369058D01*
X0235780Y0369200D01*
X0235727Y0369344D01*
X0235678Y0369490D01*
X0235633Y0369636D01*
X0235592Y0369784D01*
X0235555Y0369932D01*
X0235521Y0370082D01*
X0235491Y0370233D01*
X0235466Y0370384D01*
X0235444Y0370535D01*
X0235426Y0370688D01*
X0235412Y0370840D01*
X0235402Y0370993D01*
X0235396Y0371147D01*
X0235394Y0371300D01*
X0005394Y0371300D02*
X0005396Y0371453D01*
X0005402Y0371607D01*
X0005412Y0371760D01*
X0005426Y0371912D01*
X0005444Y0372065D01*
X0005466Y0372216D01*
X0005491Y0372367D01*
X0005521Y0372518D01*
X0005555Y0372668D01*
X0005592Y0372816D01*
X0005633Y0372964D01*
X0005678Y0373110D01*
X0005727Y0373256D01*
X0005780Y0373400D01*
X0005836Y0373542D01*
X0005896Y0373683D01*
X0005960Y0373823D01*
X0006027Y0373961D01*
X0006098Y0374097D01*
X0006173Y0374231D01*
X0006250Y0374363D01*
X0006332Y0374493D01*
X0006416Y0374621D01*
X0006504Y0374747D01*
X0006595Y0374870D01*
X0006689Y0374991D01*
X0006787Y0375109D01*
X0006887Y0375225D01*
X0006991Y0375338D01*
X0007097Y0375449D01*
X0007206Y0375557D01*
X0007318Y0375662D01*
X0007432Y0375763D01*
X0007550Y0375862D01*
X0007669Y0375958D01*
X0007791Y0376051D01*
X0007916Y0376140D01*
X0008043Y0376227D01*
X0008172Y0376309D01*
X0008303Y0376389D01*
X0008436Y0376465D01*
X0008571Y0376538D01*
X0008708Y0376607D01*
X0008847Y0376672D01*
X0008987Y0376734D01*
X0009129Y0376792D01*
X0009272Y0376847D01*
X0009417Y0376898D01*
X0009563Y0376945D01*
X0009710Y0376988D01*
X0009858Y0377027D01*
X0010007Y0377063D01*
X0010157Y0377094D01*
X0010308Y0377122D01*
X0010459Y0377146D01*
X0010612Y0377166D01*
X0010764Y0377182D01*
X0010917Y0377194D01*
X0011070Y0377202D01*
X0011223Y0377206D01*
X0011377Y0377206D01*
X0011530Y0377202D01*
X0011683Y0377194D01*
X0011836Y0377182D01*
X0011988Y0377166D01*
X0012141Y0377146D01*
X0012292Y0377122D01*
X0012443Y0377094D01*
X0012593Y0377063D01*
X0012742Y0377027D01*
X0012890Y0376988D01*
X0013037Y0376945D01*
X0013183Y0376898D01*
X0013328Y0376847D01*
X0013471Y0376792D01*
X0013613Y0376734D01*
X0013753Y0376672D01*
X0013892Y0376607D01*
X0014029Y0376538D01*
X0014164Y0376465D01*
X0014297Y0376389D01*
X0014428Y0376309D01*
X0014557Y0376227D01*
X0014684Y0376140D01*
X0014809Y0376051D01*
X0014931Y0375958D01*
X0015050Y0375862D01*
X0015168Y0375763D01*
X0015282Y0375662D01*
X0015394Y0375557D01*
X0015503Y0375449D01*
X0015609Y0375338D01*
X0015713Y0375225D01*
X0015813Y0375109D01*
X0015911Y0374991D01*
X0016005Y0374870D01*
X0016096Y0374747D01*
X0016184Y0374621D01*
X0016268Y0374493D01*
X0016350Y0374363D01*
X0016427Y0374231D01*
X0016502Y0374097D01*
X0016573Y0373961D01*
X0016640Y0373823D01*
X0016704Y0373683D01*
X0016764Y0373542D01*
X0016820Y0373400D01*
X0016873Y0373256D01*
X0016922Y0373110D01*
X0016967Y0372964D01*
X0017008Y0372816D01*
X0017045Y0372668D01*
X0017079Y0372518D01*
X0017109Y0372367D01*
X0017134Y0372216D01*
X0017156Y0372065D01*
X0017174Y0371912D01*
X0017188Y0371760D01*
X0017198Y0371607D01*
X0017204Y0371453D01*
X0017206Y0371300D01*
X0017204Y0371147D01*
X0017198Y0370993D01*
X0017188Y0370840D01*
X0017174Y0370688D01*
X0017156Y0370535D01*
X0017134Y0370384D01*
X0017109Y0370233D01*
X0017079Y0370082D01*
X0017045Y0369932D01*
X0017008Y0369784D01*
X0016967Y0369636D01*
X0016922Y0369490D01*
X0016873Y0369344D01*
X0016820Y0369200D01*
X0016764Y0369058D01*
X0016704Y0368917D01*
X0016640Y0368777D01*
X0016573Y0368639D01*
X0016502Y0368503D01*
X0016427Y0368369D01*
X0016350Y0368237D01*
X0016268Y0368107D01*
X0016184Y0367979D01*
X0016096Y0367853D01*
X0016005Y0367730D01*
X0015911Y0367609D01*
X0015813Y0367491D01*
X0015713Y0367375D01*
X0015609Y0367262D01*
X0015503Y0367151D01*
X0015394Y0367043D01*
X0015282Y0366938D01*
X0015168Y0366837D01*
X0015050Y0366738D01*
X0014931Y0366642D01*
X0014809Y0366549D01*
X0014684Y0366460D01*
X0014557Y0366373D01*
X0014428Y0366291D01*
X0014297Y0366211D01*
X0014164Y0366135D01*
X0014029Y0366062D01*
X0013892Y0365993D01*
X0013753Y0365928D01*
X0013613Y0365866D01*
X0013471Y0365808D01*
X0013328Y0365753D01*
X0013183Y0365702D01*
X0013037Y0365655D01*
X0012890Y0365612D01*
X0012742Y0365573D01*
X0012593Y0365537D01*
X0012443Y0365506D01*
X0012292Y0365478D01*
X0012141Y0365454D01*
X0011988Y0365434D01*
X0011836Y0365418D01*
X0011683Y0365406D01*
X0011530Y0365398D01*
X0011377Y0365394D01*
X0011223Y0365394D01*
X0011070Y0365398D01*
X0010917Y0365406D01*
X0010764Y0365418D01*
X0010612Y0365434D01*
X0010459Y0365454D01*
X0010308Y0365478D01*
X0010157Y0365506D01*
X0010007Y0365537D01*
X0009858Y0365573D01*
X0009710Y0365612D01*
X0009563Y0365655D01*
X0009417Y0365702D01*
X0009272Y0365753D01*
X0009129Y0365808D01*
X0008987Y0365866D01*
X0008847Y0365928D01*
X0008708Y0365993D01*
X0008571Y0366062D01*
X0008436Y0366135D01*
X0008303Y0366211D01*
X0008172Y0366291D01*
X0008043Y0366373D01*
X0007916Y0366460D01*
X0007791Y0366549D01*
X0007669Y0366642D01*
X0007550Y0366738D01*
X0007432Y0366837D01*
X0007318Y0366938D01*
X0007206Y0367043D01*
X0007097Y0367151D01*
X0006991Y0367262D01*
X0006887Y0367375D01*
X0006787Y0367491D01*
X0006689Y0367609D01*
X0006595Y0367730D01*
X0006504Y0367853D01*
X0006416Y0367979D01*
X0006332Y0368107D01*
X0006250Y0368237D01*
X0006173Y0368369D01*
X0006098Y0368503D01*
X0006027Y0368639D01*
X0005960Y0368777D01*
X0005896Y0368917D01*
X0005836Y0369058D01*
X0005780Y0369200D01*
X0005727Y0369344D01*
X0005678Y0369490D01*
X0005633Y0369636D01*
X0005592Y0369784D01*
X0005555Y0369932D01*
X0005521Y0370082D01*
X0005491Y0370233D01*
X0005466Y0370384D01*
X0005444Y0370535D01*
X0005426Y0370688D01*
X0005412Y0370840D01*
X0005402Y0370993D01*
X0005396Y0371147D01*
X0005394Y0371300D01*
D11*
X0028324Y0371800D02*
X0028769Y0371800D01*
X0028827Y0371802D01*
X0028885Y0371808D01*
X0028942Y0371817D01*
X0028999Y0371830D01*
X0029055Y0371847D01*
X0029109Y0371868D01*
X0029162Y0371892D01*
X0029214Y0371919D01*
X0029263Y0371950D01*
X0029310Y0371984D01*
X0029355Y0372021D01*
X0029398Y0372060D01*
X0029437Y0372103D01*
X0029474Y0372148D01*
X0029508Y0372195D01*
X0029539Y0372245D01*
X0029566Y0372296D01*
X0029590Y0372349D01*
X0029611Y0372403D01*
X0029628Y0372459D01*
X0029641Y0372516D01*
X0029650Y0372573D01*
X0029656Y0372631D01*
X0029658Y0372689D01*
X0029658Y0375800D01*
X0034275Y0373800D02*
X0034273Y0373693D01*
X0034268Y0373587D01*
X0034259Y0373480D01*
X0034247Y0373374D01*
X0034232Y0373268D01*
X0034213Y0373163D01*
X0034191Y0373059D01*
X0034165Y0372955D01*
X0034136Y0372852D01*
X0034104Y0372751D01*
X0034068Y0372650D01*
X0034029Y0372551D01*
X0033987Y0372452D01*
X0033942Y0372356D01*
X0033943Y0372355D02*
X0033922Y0372303D01*
X0033899Y0372251D01*
X0033871Y0372201D01*
X0033841Y0372154D01*
X0033807Y0372108D01*
X0033770Y0372065D01*
X0033730Y0372025D01*
X0033688Y0371988D01*
X0033643Y0371953D01*
X0033596Y0371922D01*
X0033546Y0371894D01*
X0033495Y0371869D01*
X0033443Y0371848D01*
X0033389Y0371831D01*
X0033334Y0371818D01*
X0033278Y0371808D01*
X0033222Y0371802D01*
X0033165Y0371800D01*
X0033108Y0371802D01*
X0033052Y0371808D01*
X0032996Y0371818D01*
X0032941Y0371831D01*
X0032887Y0371848D01*
X0032835Y0371869D01*
X0032784Y0371894D01*
X0032734Y0371922D01*
X0032687Y0371953D01*
X0032642Y0371988D01*
X0032600Y0372025D01*
X0032560Y0372065D01*
X0032523Y0372108D01*
X0032489Y0372154D01*
X0032459Y0372201D01*
X0032431Y0372251D01*
X0032408Y0372302D01*
X0032387Y0372355D01*
X0032276Y0372689D02*
X0034053Y0374911D01*
X0033943Y0375245D02*
X0033922Y0375297D01*
X0033899Y0375349D01*
X0033871Y0375399D01*
X0033841Y0375446D01*
X0033807Y0375492D01*
X0033770Y0375535D01*
X0033730Y0375575D01*
X0033688Y0375612D01*
X0033643Y0375647D01*
X0033596Y0375678D01*
X0033546Y0375706D01*
X0033495Y0375731D01*
X0033443Y0375752D01*
X0033389Y0375769D01*
X0033334Y0375782D01*
X0033278Y0375792D01*
X0033222Y0375798D01*
X0033165Y0375800D01*
X0033108Y0375798D01*
X0033052Y0375792D01*
X0032996Y0375782D01*
X0032941Y0375769D01*
X0032887Y0375752D01*
X0032835Y0375731D01*
X0032784Y0375706D01*
X0032734Y0375678D01*
X0032687Y0375647D01*
X0032642Y0375612D01*
X0032600Y0375575D01*
X0032560Y0375535D01*
X0032523Y0375492D01*
X0032489Y0375446D01*
X0032459Y0375399D01*
X0032431Y0375349D01*
X0032408Y0375297D01*
X0032387Y0375245D01*
X0033942Y0375244D02*
X0033987Y0375148D01*
X0034029Y0375049D01*
X0034068Y0374950D01*
X0034103Y0374849D01*
X0034136Y0374748D01*
X0034165Y0374645D01*
X0034191Y0374541D01*
X0034213Y0374437D01*
X0034232Y0374332D01*
X0034247Y0374226D01*
X0034259Y0374120D01*
X0034268Y0374013D01*
X0034273Y0373907D01*
X0034275Y0373800D01*
X0032054Y0373800D02*
X0032056Y0373907D01*
X0032061Y0374013D01*
X0032070Y0374120D01*
X0032082Y0374226D01*
X0032097Y0374332D01*
X0032116Y0374437D01*
X0032138Y0374541D01*
X0032164Y0374645D01*
X0032193Y0374748D01*
X0032225Y0374849D01*
X0032261Y0374950D01*
X0032300Y0375049D01*
X0032342Y0375148D01*
X0032387Y0375244D01*
X0032054Y0373800D02*
X0032056Y0373693D01*
X0032061Y0373587D01*
X0032070Y0373480D01*
X0032082Y0373374D01*
X0032097Y0373268D01*
X0032116Y0373163D01*
X0032138Y0373059D01*
X0032164Y0372955D01*
X0032193Y0372852D01*
X0032225Y0372751D01*
X0032261Y0372650D01*
X0032300Y0372551D01*
X0032342Y0372452D01*
X0032387Y0372356D01*
X0032189Y0360300D02*
X0030411Y0360300D01*
X0030346Y0360298D01*
X0030282Y0360292D01*
X0030218Y0360283D01*
X0030155Y0360270D01*
X0030092Y0360253D01*
X0030031Y0360233D01*
X0029971Y0360209D01*
X0029912Y0360182D01*
X0029856Y0360151D01*
X0029801Y0360117D01*
X0029748Y0360080D01*
X0029697Y0360040D01*
X0029649Y0359997D01*
X0029603Y0359951D01*
X0029560Y0359903D01*
X0029520Y0359852D01*
X0029483Y0359800D01*
X0029449Y0359745D01*
X0029418Y0359688D01*
X0029391Y0359629D01*
X0029367Y0359569D01*
X0029347Y0359508D01*
X0029330Y0359445D01*
X0029317Y0359382D01*
X0029308Y0359318D01*
X0029302Y0359254D01*
X0029300Y0359189D01*
X0029300Y0358078D01*
X0033300Y0358078D01*
X0033300Y0359189D01*
X0033298Y0359254D01*
X0033292Y0359318D01*
X0033283Y0359382D01*
X0033270Y0359445D01*
X0033253Y0359508D01*
X0033233Y0359569D01*
X0033209Y0359629D01*
X0033182Y0359688D01*
X0033151Y0359745D01*
X0033117Y0359800D01*
X0033080Y0359852D01*
X0033040Y0359903D01*
X0032997Y0359951D01*
X0032951Y0359997D01*
X0032903Y0360040D01*
X0032852Y0360080D01*
X0032800Y0360117D01*
X0032745Y0360151D01*
X0032688Y0360182D01*
X0032629Y0360209D01*
X0032569Y0360233D01*
X0032508Y0360253D01*
X0032445Y0360270D01*
X0032382Y0360283D01*
X0032318Y0360292D01*
X0032254Y0360298D01*
X0032189Y0360300D01*
X0033300Y0355500D02*
X0029300Y0355500D01*
X0029300Y0353278D02*
X0033300Y0355500D01*
X0033300Y0353278D02*
X0029300Y0353278D01*
X0029300Y0350700D02*
X0029300Y0349367D01*
X0029302Y0349309D01*
X0029308Y0349251D01*
X0029317Y0349194D01*
X0029330Y0349137D01*
X0029347Y0349081D01*
X0029368Y0349027D01*
X0029392Y0348974D01*
X0029419Y0348922D01*
X0029450Y0348873D01*
X0029484Y0348826D01*
X0029521Y0348781D01*
X0029560Y0348738D01*
X0029603Y0348699D01*
X0029648Y0348662D01*
X0029695Y0348628D01*
X0029745Y0348597D01*
X0029796Y0348570D01*
X0029849Y0348546D01*
X0029903Y0348525D01*
X0029959Y0348508D01*
X0030016Y0348495D01*
X0030073Y0348486D01*
X0030131Y0348480D01*
X0030189Y0348478D01*
X0032411Y0348478D01*
X0032469Y0348480D01*
X0032527Y0348486D01*
X0032584Y0348495D01*
X0032641Y0348508D01*
X0032697Y0348525D01*
X0032751Y0348546D01*
X0032804Y0348570D01*
X0032856Y0348597D01*
X0032905Y0348628D01*
X0032952Y0348662D01*
X0032997Y0348699D01*
X0033040Y0348738D01*
X0033079Y0348781D01*
X0033116Y0348826D01*
X0033150Y0348873D01*
X0033181Y0348923D01*
X0033208Y0348974D01*
X0033232Y0349027D01*
X0033253Y0349081D01*
X0033270Y0349137D01*
X0033283Y0349194D01*
X0033292Y0349251D01*
X0033298Y0349309D01*
X0033300Y0349367D01*
X0033300Y0350700D01*
X0031078Y0350700D01*
X0031078Y0350033D01*
X0039300Y0353356D02*
X0039300Y0355578D01*
X0041078Y0354689D02*
X0041078Y0353356D01*
X0039300Y0353356D01*
X0041078Y0354689D02*
X0041080Y0354747D01*
X0041086Y0354805D01*
X0041095Y0354862D01*
X0041108Y0354919D01*
X0041125Y0354975D01*
X0041146Y0355029D01*
X0041170Y0355082D01*
X0041197Y0355134D01*
X0041228Y0355183D01*
X0041262Y0355230D01*
X0041299Y0355275D01*
X0041338Y0355318D01*
X0041381Y0355357D01*
X0041426Y0355394D01*
X0041473Y0355428D01*
X0041523Y0355459D01*
X0041574Y0355486D01*
X0041627Y0355510D01*
X0041681Y0355531D01*
X0041737Y0355548D01*
X0041794Y0355561D01*
X0041851Y0355570D01*
X0041909Y0355576D01*
X0041967Y0355578D01*
X0042411Y0355578D01*
X0042469Y0355576D01*
X0042527Y0355570D01*
X0042584Y0355561D01*
X0042641Y0355548D01*
X0042697Y0355531D01*
X0042751Y0355510D01*
X0042804Y0355486D01*
X0042856Y0355459D01*
X0042905Y0355428D01*
X0042952Y0355394D01*
X0042997Y0355357D01*
X0043040Y0355318D01*
X0043079Y0355275D01*
X0043116Y0355230D01*
X0043150Y0355183D01*
X0043181Y0355134D01*
X0043208Y0355082D01*
X0043232Y0355029D01*
X0043253Y0354975D01*
X0043270Y0354919D01*
X0043283Y0354862D01*
X0043292Y0354805D01*
X0043298Y0354747D01*
X0043300Y0354689D01*
X0043300Y0353356D01*
X0041744Y0351000D02*
X0041744Y0348333D01*
X0041078Y0345089D02*
X0041078Y0344200D01*
X0041078Y0345089D02*
X0041076Y0345147D01*
X0041070Y0345205D01*
X0041061Y0345262D01*
X0041048Y0345319D01*
X0041031Y0345375D01*
X0041010Y0345429D01*
X0040986Y0345482D01*
X0040959Y0345534D01*
X0040928Y0345583D01*
X0040894Y0345630D01*
X0040857Y0345675D01*
X0040818Y0345718D01*
X0040775Y0345757D01*
X0040730Y0345794D01*
X0040683Y0345828D01*
X0040634Y0345859D01*
X0040582Y0345886D01*
X0040529Y0345910D01*
X0040475Y0345931D01*
X0040419Y0345948D01*
X0040362Y0345961D01*
X0040305Y0345970D01*
X0040247Y0345976D01*
X0040189Y0345978D01*
X0040131Y0345976D01*
X0040073Y0345970D01*
X0040016Y0345961D01*
X0039959Y0345948D01*
X0039903Y0345931D01*
X0039849Y0345910D01*
X0039796Y0345886D01*
X0039745Y0345859D01*
X0039695Y0345828D01*
X0039648Y0345794D01*
X0039603Y0345757D01*
X0039560Y0345718D01*
X0039521Y0345675D01*
X0039484Y0345630D01*
X0039450Y0345583D01*
X0039419Y0345534D01*
X0039392Y0345482D01*
X0039368Y0345429D01*
X0039347Y0345375D01*
X0039330Y0345319D01*
X0039317Y0345262D01*
X0039308Y0345205D01*
X0039302Y0345147D01*
X0039300Y0345089D01*
X0039300Y0343756D01*
X0041078Y0344867D02*
X0041080Y0344933D01*
X0041086Y0344998D01*
X0041096Y0345064D01*
X0041109Y0345128D01*
X0041126Y0345191D01*
X0041148Y0345254D01*
X0041172Y0345315D01*
X0041201Y0345374D01*
X0041232Y0345432D01*
X0041268Y0345488D01*
X0041306Y0345541D01*
X0041347Y0345592D01*
X0041392Y0345641D01*
X0041439Y0345687D01*
X0041489Y0345730D01*
X0041541Y0345770D01*
X0041596Y0345806D01*
X0041653Y0345840D01*
X0041711Y0345870D01*
X0041771Y0345897D01*
X0041833Y0345919D01*
X0041896Y0345939D01*
X0041960Y0345954D01*
X0042025Y0345966D01*
X0042090Y0345974D01*
X0042156Y0345978D01*
X0042222Y0345978D01*
X0042288Y0345974D01*
X0042353Y0345966D01*
X0042418Y0345954D01*
X0042482Y0345939D01*
X0042545Y0345919D01*
X0042607Y0345897D01*
X0042667Y0345870D01*
X0042725Y0345840D01*
X0042782Y0345806D01*
X0042837Y0345770D01*
X0042889Y0345730D01*
X0042939Y0345687D01*
X0042986Y0345641D01*
X0043031Y0345592D01*
X0043072Y0345541D01*
X0043110Y0345488D01*
X0043146Y0345432D01*
X0043177Y0345374D01*
X0043206Y0345315D01*
X0043230Y0345254D01*
X0043252Y0345191D01*
X0043269Y0345128D01*
X0043282Y0345064D01*
X0043292Y0344998D01*
X0043298Y0344933D01*
X0043300Y0344867D01*
X0043300Y0343756D01*
X0050189Y0354455D02*
X0052411Y0354455D01*
X0052469Y0354457D01*
X0052527Y0354463D01*
X0052584Y0354472D01*
X0052641Y0354485D01*
X0052697Y0354502D01*
X0052751Y0354523D01*
X0052804Y0354547D01*
X0052856Y0354574D01*
X0052905Y0354605D01*
X0052952Y0354639D01*
X0052997Y0354676D01*
X0053040Y0354715D01*
X0053079Y0354758D01*
X0053116Y0354803D01*
X0053150Y0354850D01*
X0053181Y0354900D01*
X0053208Y0354951D01*
X0053232Y0355004D01*
X0053253Y0355058D01*
X0053270Y0355114D01*
X0053283Y0355171D01*
X0053292Y0355228D01*
X0053298Y0355286D01*
X0053300Y0355344D01*
X0053300Y0356233D01*
X0051633Y0359855D02*
X0051664Y0359905D01*
X0051699Y0359952D01*
X0051736Y0359997D01*
X0051777Y0360040D01*
X0051820Y0360080D01*
X0051865Y0360116D01*
X0051913Y0360150D01*
X0051963Y0360181D01*
X0052015Y0360208D01*
X0052068Y0360232D01*
X0052123Y0360253D01*
X0052179Y0360270D01*
X0052236Y0360283D01*
X0052294Y0360292D01*
X0052352Y0360298D01*
X0052411Y0360300D01*
X0052469Y0360298D01*
X0052527Y0360292D01*
X0052584Y0360283D01*
X0052641Y0360270D01*
X0052697Y0360253D01*
X0052751Y0360232D01*
X0052804Y0360208D01*
X0052856Y0360181D01*
X0052905Y0360150D01*
X0052952Y0360116D01*
X0052997Y0360079D01*
X0053040Y0360040D01*
X0053079Y0359997D01*
X0053116Y0359952D01*
X0053150Y0359905D01*
X0053181Y0359856D01*
X0053208Y0359804D01*
X0053232Y0359751D01*
X0053253Y0359697D01*
X0053270Y0359641D01*
X0053283Y0359584D01*
X0053292Y0359527D01*
X0053298Y0359469D01*
X0053300Y0359411D01*
X0051633Y0359856D02*
X0050967Y0358633D01*
X0049300Y0359078D02*
X0049302Y0359155D01*
X0049307Y0359231D01*
X0049316Y0359307D01*
X0049328Y0359383D01*
X0049344Y0359458D01*
X0049363Y0359532D01*
X0049386Y0359605D01*
X0049411Y0359677D01*
X0049441Y0359748D01*
X0049473Y0359818D01*
X0049509Y0359885D01*
X0049547Y0359952D01*
X0049589Y0360016D01*
X0049633Y0360078D01*
X0050967Y0358634D02*
X0050936Y0358584D01*
X0050901Y0358537D01*
X0050864Y0358492D01*
X0050823Y0358449D01*
X0050780Y0358409D01*
X0050735Y0358373D01*
X0050687Y0358339D01*
X0050637Y0358308D01*
X0050585Y0358281D01*
X0050532Y0358257D01*
X0050477Y0358236D01*
X0050421Y0358219D01*
X0050364Y0358206D01*
X0050306Y0358197D01*
X0050248Y0358191D01*
X0050189Y0358189D01*
X0050131Y0358191D01*
X0050073Y0358197D01*
X0050016Y0358206D01*
X0049959Y0358219D01*
X0049903Y0358236D01*
X0049849Y0358257D01*
X0049796Y0358281D01*
X0049745Y0358308D01*
X0049695Y0358339D01*
X0049648Y0358373D01*
X0049603Y0358410D01*
X0049560Y0358449D01*
X0049521Y0358492D01*
X0049484Y0358537D01*
X0049450Y0358584D01*
X0049419Y0358634D01*
X0049392Y0358685D01*
X0049368Y0358738D01*
X0049347Y0358792D01*
X0049330Y0358848D01*
X0049317Y0358905D01*
X0049308Y0358962D01*
X0049302Y0359020D01*
X0049300Y0359078D01*
X0052744Y0358078D02*
X0052802Y0358137D01*
X0052856Y0358199D01*
X0052908Y0358263D01*
X0052957Y0358329D01*
X0053003Y0358397D01*
X0053046Y0358467D01*
X0053086Y0358540D01*
X0053122Y0358613D01*
X0053156Y0358689D01*
X0053186Y0358765D01*
X0053212Y0358843D01*
X0053235Y0358922D01*
X0053255Y0359002D01*
X0053271Y0359083D01*
X0053284Y0359165D01*
X0053293Y0359246D01*
X0053298Y0359329D01*
X0053300Y0359411D01*
X0049300Y0356233D02*
X0049300Y0355344D01*
X0049302Y0355286D01*
X0049308Y0355228D01*
X0049317Y0355171D01*
X0049330Y0355114D01*
X0049347Y0355058D01*
X0049368Y0355004D01*
X0049392Y0354951D01*
X0049419Y0354899D01*
X0049450Y0354850D01*
X0049484Y0354803D01*
X0049521Y0354758D01*
X0049560Y0354715D01*
X0049603Y0354676D01*
X0049648Y0354639D01*
X0049695Y0354605D01*
X0049745Y0354574D01*
X0049796Y0354547D01*
X0049849Y0354523D01*
X0049903Y0354502D01*
X0049959Y0354485D01*
X0050016Y0354472D01*
X0050073Y0354463D01*
X0050131Y0354457D01*
X0050189Y0354455D01*
X0043300Y0358967D02*
X0039300Y0360300D01*
X0039300Y0357633D02*
X0043300Y0358967D01*
X0058856Y0355878D02*
X0063744Y0354100D01*
X0063300Y0352333D02*
X0063300Y0351444D01*
X0063298Y0351386D01*
X0063292Y0351328D01*
X0063283Y0351271D01*
X0063270Y0351214D01*
X0063253Y0351158D01*
X0063232Y0351104D01*
X0063208Y0351051D01*
X0063181Y0351000D01*
X0063150Y0350950D01*
X0063116Y0350903D01*
X0063079Y0350858D01*
X0063040Y0350815D01*
X0062997Y0350776D01*
X0062952Y0350739D01*
X0062905Y0350705D01*
X0062856Y0350674D01*
X0062804Y0350647D01*
X0062751Y0350623D01*
X0062697Y0350602D01*
X0062641Y0350585D01*
X0062584Y0350572D01*
X0062527Y0350563D01*
X0062469Y0350557D01*
X0062411Y0350555D01*
X0060189Y0350555D01*
X0060131Y0350557D01*
X0060073Y0350563D01*
X0060016Y0350572D01*
X0059959Y0350585D01*
X0059903Y0350602D01*
X0059849Y0350623D01*
X0059796Y0350647D01*
X0059745Y0350674D01*
X0059695Y0350705D01*
X0059648Y0350739D01*
X0059603Y0350776D01*
X0059560Y0350815D01*
X0059521Y0350858D01*
X0059484Y0350903D01*
X0059450Y0350950D01*
X0059419Y0350999D01*
X0059392Y0351051D01*
X0059368Y0351104D01*
X0059347Y0351158D01*
X0059330Y0351214D01*
X0059317Y0351271D01*
X0059308Y0351328D01*
X0059302Y0351386D01*
X0059300Y0351444D01*
X0059300Y0352333D01*
X0059300Y0358078D02*
X0059300Y0359189D01*
X0059302Y0359254D01*
X0059308Y0359318D01*
X0059317Y0359382D01*
X0059330Y0359445D01*
X0059347Y0359508D01*
X0059367Y0359569D01*
X0059391Y0359629D01*
X0059418Y0359688D01*
X0059449Y0359745D01*
X0059483Y0359800D01*
X0059520Y0359852D01*
X0059560Y0359903D01*
X0059603Y0359951D01*
X0059649Y0359997D01*
X0059697Y0360040D01*
X0059748Y0360080D01*
X0059801Y0360117D01*
X0059856Y0360151D01*
X0059912Y0360182D01*
X0059971Y0360209D01*
X0060031Y0360233D01*
X0060092Y0360253D01*
X0060155Y0360270D01*
X0060218Y0360283D01*
X0060282Y0360292D01*
X0060346Y0360298D01*
X0060411Y0360300D01*
X0062189Y0360300D01*
X0062254Y0360298D01*
X0062318Y0360292D01*
X0062382Y0360283D01*
X0062445Y0360270D01*
X0062508Y0360253D01*
X0062569Y0360233D01*
X0062629Y0360209D01*
X0062688Y0360182D01*
X0062745Y0360151D01*
X0062800Y0360117D01*
X0062852Y0360080D01*
X0062903Y0360040D01*
X0062951Y0359997D01*
X0062997Y0359951D01*
X0063040Y0359903D01*
X0063080Y0359852D01*
X0063117Y0359800D01*
X0063151Y0359745D01*
X0063182Y0359688D01*
X0063209Y0359629D01*
X0063233Y0359569D01*
X0063253Y0359508D01*
X0063270Y0359445D01*
X0063283Y0359382D01*
X0063292Y0359318D01*
X0063298Y0359254D01*
X0063300Y0359189D01*
X0063300Y0358078D01*
X0059300Y0358078D01*
X0069300Y0358078D02*
X0069300Y0359189D01*
X0069302Y0359255D01*
X0069308Y0359320D01*
X0069318Y0359386D01*
X0069331Y0359450D01*
X0069348Y0359513D01*
X0069370Y0359576D01*
X0069394Y0359637D01*
X0069423Y0359696D01*
X0069454Y0359754D01*
X0069490Y0359810D01*
X0069528Y0359863D01*
X0069569Y0359914D01*
X0069614Y0359963D01*
X0069661Y0360009D01*
X0069711Y0360052D01*
X0069763Y0360092D01*
X0069818Y0360128D01*
X0069875Y0360162D01*
X0069933Y0360192D01*
X0069993Y0360219D01*
X0070055Y0360241D01*
X0070118Y0360261D01*
X0070182Y0360276D01*
X0070247Y0360288D01*
X0070312Y0360296D01*
X0070378Y0360300D01*
X0070444Y0360300D01*
X0070510Y0360296D01*
X0070575Y0360288D01*
X0070640Y0360276D01*
X0070704Y0360261D01*
X0070767Y0360241D01*
X0070829Y0360219D01*
X0070889Y0360192D01*
X0070947Y0360162D01*
X0071004Y0360128D01*
X0071059Y0360092D01*
X0071111Y0360052D01*
X0071161Y0360009D01*
X0071208Y0359963D01*
X0071253Y0359914D01*
X0071294Y0359863D01*
X0071332Y0359810D01*
X0071368Y0359754D01*
X0071399Y0359696D01*
X0071428Y0359637D01*
X0071452Y0359576D01*
X0071474Y0359513D01*
X0071491Y0359450D01*
X0071504Y0359386D01*
X0071514Y0359320D01*
X0071520Y0359255D01*
X0071522Y0359189D01*
X0071522Y0358078D01*
X0071522Y0359411D02*
X0073300Y0360300D01*
X0073300Y0358078D02*
X0069300Y0358078D01*
X0069300Y0355666D02*
X0073300Y0354777D01*
X0070633Y0353888D01*
X0073300Y0352999D01*
X0069300Y0352110D01*
X0079300Y0353479D02*
X0079300Y0354590D01*
X0079302Y0354656D01*
X0079308Y0354721D01*
X0079318Y0354787D01*
X0079331Y0354851D01*
X0079348Y0354914D01*
X0079370Y0354977D01*
X0079394Y0355038D01*
X0079423Y0355097D01*
X0079454Y0355155D01*
X0079490Y0355211D01*
X0079528Y0355264D01*
X0079569Y0355315D01*
X0079614Y0355364D01*
X0079661Y0355410D01*
X0079711Y0355453D01*
X0079763Y0355493D01*
X0079818Y0355529D01*
X0079875Y0355563D01*
X0079933Y0355593D01*
X0079993Y0355620D01*
X0080055Y0355642D01*
X0080118Y0355662D01*
X0080182Y0355677D01*
X0080247Y0355689D01*
X0080312Y0355697D01*
X0080378Y0355701D01*
X0080444Y0355701D01*
X0080510Y0355697D01*
X0080575Y0355689D01*
X0080640Y0355677D01*
X0080704Y0355662D01*
X0080767Y0355642D01*
X0080829Y0355620D01*
X0080889Y0355593D01*
X0080947Y0355563D01*
X0081004Y0355529D01*
X0081059Y0355493D01*
X0081111Y0355453D01*
X0081161Y0355410D01*
X0081208Y0355364D01*
X0081253Y0355315D01*
X0081294Y0355264D01*
X0081332Y0355211D01*
X0081368Y0355155D01*
X0081399Y0355097D01*
X0081428Y0355038D01*
X0081452Y0354977D01*
X0081474Y0354914D01*
X0081491Y0354851D01*
X0081504Y0354787D01*
X0081514Y0354721D01*
X0081520Y0354656D01*
X0081522Y0354590D01*
X0081522Y0353479D01*
X0081522Y0354812D02*
X0083300Y0355701D01*
X0083300Y0353479D02*
X0079300Y0353479D01*
X0079300Y0358078D02*
X0079300Y0359189D01*
X0079302Y0359254D01*
X0079308Y0359318D01*
X0079317Y0359382D01*
X0079330Y0359445D01*
X0079347Y0359508D01*
X0079367Y0359569D01*
X0079391Y0359629D01*
X0079418Y0359688D01*
X0079449Y0359745D01*
X0079483Y0359800D01*
X0079520Y0359852D01*
X0079560Y0359903D01*
X0079603Y0359951D01*
X0079649Y0359997D01*
X0079697Y0360040D01*
X0079748Y0360080D01*
X0079801Y0360117D01*
X0079856Y0360151D01*
X0079912Y0360182D01*
X0079971Y0360209D01*
X0080031Y0360233D01*
X0080092Y0360253D01*
X0080155Y0360270D01*
X0080218Y0360283D01*
X0080282Y0360292D01*
X0080346Y0360298D01*
X0080411Y0360300D01*
X0082189Y0360300D01*
X0082254Y0360298D01*
X0082318Y0360292D01*
X0082382Y0360283D01*
X0082445Y0360270D01*
X0082508Y0360253D01*
X0082569Y0360233D01*
X0082629Y0360209D01*
X0082688Y0360182D01*
X0082745Y0360151D01*
X0082800Y0360117D01*
X0082852Y0360080D01*
X0082903Y0360040D01*
X0082951Y0359997D01*
X0082997Y0359951D01*
X0083040Y0359903D01*
X0083080Y0359852D01*
X0083117Y0359800D01*
X0083151Y0359745D01*
X0083182Y0359688D01*
X0083209Y0359629D01*
X0083233Y0359569D01*
X0083253Y0359508D01*
X0083270Y0359445D01*
X0083283Y0359382D01*
X0083292Y0359318D01*
X0083298Y0359254D01*
X0083300Y0359189D01*
X0083300Y0358078D01*
X0079300Y0358078D01*
X0089300Y0358078D02*
X0089300Y0360300D01*
X0089300Y0359189D02*
X0093300Y0359189D01*
X0091633Y0355806D02*
X0090967Y0354583D01*
X0089300Y0355028D02*
X0089302Y0355105D01*
X0089307Y0355181D01*
X0089316Y0355257D01*
X0089328Y0355333D01*
X0089344Y0355408D01*
X0089363Y0355482D01*
X0089386Y0355555D01*
X0089411Y0355627D01*
X0089441Y0355698D01*
X0089473Y0355768D01*
X0089509Y0355835D01*
X0089547Y0355902D01*
X0089589Y0355966D01*
X0089633Y0356028D01*
X0090967Y0354584D02*
X0090936Y0354534D01*
X0090901Y0354487D01*
X0090864Y0354442D01*
X0090823Y0354399D01*
X0090780Y0354359D01*
X0090735Y0354323D01*
X0090687Y0354289D01*
X0090637Y0354258D01*
X0090585Y0354231D01*
X0090532Y0354207D01*
X0090477Y0354186D01*
X0090421Y0354169D01*
X0090364Y0354156D01*
X0090306Y0354147D01*
X0090248Y0354141D01*
X0090189Y0354139D01*
X0090131Y0354141D01*
X0090073Y0354147D01*
X0090016Y0354156D01*
X0089959Y0354169D01*
X0089903Y0354186D01*
X0089849Y0354207D01*
X0089796Y0354231D01*
X0089745Y0354258D01*
X0089695Y0354289D01*
X0089648Y0354323D01*
X0089603Y0354360D01*
X0089560Y0354399D01*
X0089521Y0354442D01*
X0089484Y0354487D01*
X0089450Y0354534D01*
X0089419Y0354584D01*
X0089392Y0354635D01*
X0089368Y0354688D01*
X0089347Y0354742D01*
X0089330Y0354798D01*
X0089317Y0354855D01*
X0089308Y0354912D01*
X0089302Y0354970D01*
X0089300Y0355028D01*
X0092744Y0354028D02*
X0092802Y0354087D01*
X0092856Y0354149D01*
X0092908Y0354213D01*
X0092957Y0354279D01*
X0093003Y0354347D01*
X0093046Y0354417D01*
X0093086Y0354490D01*
X0093122Y0354563D01*
X0093156Y0354639D01*
X0093186Y0354715D01*
X0093212Y0354793D01*
X0093235Y0354872D01*
X0093255Y0354952D01*
X0093271Y0355033D01*
X0093284Y0355115D01*
X0093293Y0355196D01*
X0093298Y0355279D01*
X0093300Y0355361D01*
X0093298Y0355419D01*
X0093292Y0355477D01*
X0093283Y0355534D01*
X0093270Y0355591D01*
X0093253Y0355647D01*
X0093232Y0355701D01*
X0093208Y0355754D01*
X0093181Y0355806D01*
X0093150Y0355855D01*
X0093116Y0355902D01*
X0093079Y0355947D01*
X0093040Y0355990D01*
X0092997Y0356029D01*
X0092952Y0356066D01*
X0092905Y0356100D01*
X0092856Y0356131D01*
X0092804Y0356158D01*
X0092751Y0356182D01*
X0092697Y0356203D01*
X0092641Y0356220D01*
X0092584Y0356233D01*
X0092527Y0356242D01*
X0092469Y0356248D01*
X0092411Y0356250D01*
X0092352Y0356248D01*
X0092294Y0356242D01*
X0092236Y0356233D01*
X0092179Y0356220D01*
X0092123Y0356203D01*
X0092068Y0356182D01*
X0092015Y0356158D01*
X0091963Y0356131D01*
X0091913Y0356100D01*
X0091865Y0356066D01*
X0091820Y0356030D01*
X0091777Y0355990D01*
X0091736Y0355947D01*
X0091699Y0355902D01*
X0091664Y0355855D01*
X0091633Y0355805D01*
X0093300Y0351951D02*
X0091522Y0351062D01*
X0091522Y0350840D02*
X0091522Y0349729D01*
X0091522Y0350840D02*
X0091520Y0350906D01*
X0091514Y0350971D01*
X0091504Y0351037D01*
X0091491Y0351101D01*
X0091474Y0351164D01*
X0091452Y0351227D01*
X0091428Y0351288D01*
X0091399Y0351347D01*
X0091368Y0351405D01*
X0091332Y0351461D01*
X0091294Y0351514D01*
X0091253Y0351565D01*
X0091208Y0351614D01*
X0091161Y0351660D01*
X0091111Y0351703D01*
X0091059Y0351743D01*
X0091004Y0351779D01*
X0090947Y0351813D01*
X0090889Y0351843D01*
X0090829Y0351870D01*
X0090767Y0351892D01*
X0090704Y0351912D01*
X0090640Y0351927D01*
X0090575Y0351939D01*
X0090510Y0351947D01*
X0090444Y0351951D01*
X0090378Y0351951D01*
X0090312Y0351947D01*
X0090247Y0351939D01*
X0090182Y0351927D01*
X0090118Y0351912D01*
X0090055Y0351892D01*
X0089993Y0351870D01*
X0089933Y0351843D01*
X0089875Y0351813D01*
X0089818Y0351779D01*
X0089763Y0351743D01*
X0089711Y0351703D01*
X0089661Y0351660D01*
X0089614Y0351614D01*
X0089569Y0351565D01*
X0089528Y0351514D01*
X0089490Y0351461D01*
X0089454Y0351405D01*
X0089423Y0351347D01*
X0089394Y0351288D01*
X0089370Y0351227D01*
X0089348Y0351164D01*
X0089331Y0351101D01*
X0089318Y0351037D01*
X0089308Y0350971D01*
X0089302Y0350906D01*
X0089300Y0350840D01*
X0089300Y0349729D01*
X0093300Y0349729D01*
X0099300Y0351463D02*
X0102633Y0351463D01*
X0102633Y0351462D02*
X0102683Y0351464D01*
X0102732Y0351469D01*
X0102781Y0351479D01*
X0102830Y0351492D01*
X0102877Y0351508D01*
X0102922Y0351528D01*
X0102967Y0351551D01*
X0103009Y0351578D01*
X0103049Y0351608D01*
X0103087Y0351640D01*
X0103122Y0351675D01*
X0103154Y0351713D01*
X0103184Y0351753D01*
X0103211Y0351796D01*
X0103234Y0351840D01*
X0103254Y0351885D01*
X0103270Y0351932D01*
X0103283Y0351981D01*
X0103293Y0352030D01*
X0103298Y0352079D01*
X0103300Y0352129D01*
X0103300Y0353711D02*
X0100633Y0353711D01*
X0099522Y0353822D02*
X0099522Y0353600D01*
X0099300Y0353600D01*
X0099300Y0353822D01*
X0099522Y0353822D01*
X0100633Y0355231D02*
X0100633Y0356564D01*
X0099300Y0355675D02*
X0102633Y0355675D01*
X0102683Y0355677D01*
X0102732Y0355682D01*
X0102781Y0355692D01*
X0102830Y0355705D01*
X0102877Y0355721D01*
X0102922Y0355741D01*
X0102967Y0355764D01*
X0103009Y0355791D01*
X0103049Y0355821D01*
X0103087Y0355853D01*
X0103122Y0355888D01*
X0103154Y0355926D01*
X0103184Y0355966D01*
X0103211Y0356009D01*
X0103234Y0356053D01*
X0103254Y0356098D01*
X0103270Y0356145D01*
X0103283Y0356194D01*
X0103293Y0356243D01*
X0103298Y0356292D01*
X0103300Y0356342D01*
X0103300Y0356564D01*
X0102633Y0358522D02*
X0101522Y0358522D01*
X0101967Y0358522D02*
X0101967Y0360300D01*
X0101522Y0360300D01*
X0101464Y0360298D01*
X0101406Y0360292D01*
X0101349Y0360283D01*
X0101292Y0360270D01*
X0101236Y0360253D01*
X0101182Y0360232D01*
X0101129Y0360208D01*
X0101078Y0360181D01*
X0101028Y0360150D01*
X0100981Y0360116D01*
X0100936Y0360079D01*
X0100893Y0360040D01*
X0100854Y0359997D01*
X0100817Y0359952D01*
X0100783Y0359905D01*
X0100752Y0359856D01*
X0100725Y0359804D01*
X0100701Y0359751D01*
X0100680Y0359697D01*
X0100663Y0359641D01*
X0100650Y0359584D01*
X0100641Y0359527D01*
X0100635Y0359469D01*
X0100633Y0359411D01*
X0100635Y0359353D01*
X0100641Y0359295D01*
X0100650Y0359238D01*
X0100663Y0359181D01*
X0100680Y0359125D01*
X0100701Y0359071D01*
X0100725Y0359018D01*
X0100752Y0358967D01*
X0100783Y0358917D01*
X0100817Y0358870D01*
X0100854Y0358825D01*
X0100893Y0358782D01*
X0100936Y0358743D01*
X0100981Y0358706D01*
X0101028Y0358672D01*
X0101078Y0358641D01*
X0101129Y0358614D01*
X0101182Y0358590D01*
X0101236Y0358569D01*
X0101292Y0358552D01*
X0101349Y0358539D01*
X0101406Y0358530D01*
X0101464Y0358524D01*
X0101522Y0358522D01*
X0102633Y0358522D02*
X0102683Y0358524D01*
X0102732Y0358529D01*
X0102781Y0358539D01*
X0102830Y0358552D01*
X0102877Y0358568D01*
X0102922Y0358588D01*
X0102967Y0358611D01*
X0103009Y0358638D01*
X0103049Y0358668D01*
X0103087Y0358700D01*
X0103122Y0358735D01*
X0103154Y0358773D01*
X0103184Y0358813D01*
X0103211Y0358856D01*
X0103234Y0358900D01*
X0103254Y0358945D01*
X0103270Y0358992D01*
X0103283Y0359041D01*
X0103293Y0359090D01*
X0103298Y0359139D01*
X0103300Y0359189D01*
X0103300Y0360300D01*
X0110411Y0358967D02*
X0113078Y0358967D01*
X0111744Y0360300D02*
X0111744Y0357633D01*
X0113300Y0355500D02*
X0109300Y0352833D01*
X0109300Y0355500D02*
X0113300Y0352833D01*
X0119300Y0352833D02*
X0121189Y0354167D01*
X0123300Y0354167D01*
X0121189Y0354167D02*
X0119300Y0355500D01*
X0121744Y0357633D02*
X0121744Y0360300D01*
X0123078Y0358967D02*
X0120411Y0358967D01*
X0129300Y0355500D02*
X0133300Y0352833D01*
X0133300Y0355500D02*
X0129300Y0352833D01*
X0131744Y0357633D02*
X0131744Y0360300D01*
X0139300Y0355500D02*
X0141189Y0354167D01*
X0143300Y0354167D01*
X0141189Y0354167D02*
X0139300Y0352833D01*
X0141744Y0357633D02*
X0141744Y0360300D01*
X0150189Y0360078D02*
X0152411Y0358300D01*
X0153300Y0359189D02*
X0153298Y0359246D01*
X0153292Y0359302D01*
X0153282Y0359358D01*
X0153269Y0359413D01*
X0153252Y0359467D01*
X0153231Y0359519D01*
X0153206Y0359570D01*
X0153178Y0359620D01*
X0153147Y0359667D01*
X0153112Y0359712D01*
X0153075Y0359754D01*
X0153035Y0359794D01*
X0152992Y0359831D01*
X0152946Y0359865D01*
X0152899Y0359895D01*
X0152849Y0359923D01*
X0152798Y0359946D01*
X0152745Y0359967D01*
X0153300Y0359189D02*
X0153298Y0359132D01*
X0153292Y0359076D01*
X0153282Y0359020D01*
X0153269Y0358965D01*
X0153252Y0358911D01*
X0153231Y0358859D01*
X0153206Y0358808D01*
X0153178Y0358758D01*
X0153147Y0358711D01*
X0153112Y0358666D01*
X0153075Y0358624D01*
X0153035Y0358584D01*
X0152992Y0358547D01*
X0152946Y0358513D01*
X0152899Y0358483D01*
X0152849Y0358455D01*
X0152798Y0358432D01*
X0152745Y0358411D01*
X0151300Y0360300D02*
X0151193Y0360298D01*
X0151087Y0360293D01*
X0150980Y0360284D01*
X0150874Y0360272D01*
X0150768Y0360257D01*
X0150663Y0360238D01*
X0150559Y0360216D01*
X0150455Y0360190D01*
X0150352Y0360161D01*
X0150251Y0360128D01*
X0150150Y0360093D01*
X0150051Y0360054D01*
X0149952Y0360012D01*
X0149856Y0359967D01*
X0149855Y0359967D02*
X0149803Y0359946D01*
X0149751Y0359923D01*
X0149701Y0359895D01*
X0149654Y0359865D01*
X0149608Y0359831D01*
X0149565Y0359794D01*
X0149525Y0359754D01*
X0149488Y0359712D01*
X0149453Y0359667D01*
X0149422Y0359620D01*
X0149394Y0359570D01*
X0149369Y0359519D01*
X0149348Y0359467D01*
X0149331Y0359413D01*
X0149318Y0359358D01*
X0149308Y0359302D01*
X0149302Y0359246D01*
X0149300Y0359189D01*
X0149302Y0359132D01*
X0149308Y0359076D01*
X0149318Y0359020D01*
X0149331Y0358965D01*
X0149348Y0358911D01*
X0149369Y0358859D01*
X0149394Y0358808D01*
X0149422Y0358758D01*
X0149453Y0358711D01*
X0149488Y0358666D01*
X0149525Y0358624D01*
X0149565Y0358584D01*
X0149608Y0358547D01*
X0149654Y0358513D01*
X0149701Y0358483D01*
X0149751Y0358455D01*
X0149803Y0358432D01*
X0149855Y0358411D01*
X0151300Y0360300D02*
X0151407Y0360298D01*
X0151513Y0360293D01*
X0151620Y0360284D01*
X0151726Y0360272D01*
X0151832Y0360257D01*
X0151937Y0360238D01*
X0152041Y0360216D01*
X0152145Y0360190D01*
X0152248Y0360161D01*
X0152349Y0360128D01*
X0152450Y0360093D01*
X0152549Y0360054D01*
X0152648Y0360012D01*
X0152744Y0359967D01*
X0151300Y0358078D02*
X0151193Y0358080D01*
X0151087Y0358085D01*
X0150980Y0358094D01*
X0150874Y0358106D01*
X0150768Y0358121D01*
X0150663Y0358140D01*
X0150559Y0358162D01*
X0150455Y0358188D01*
X0150352Y0358217D01*
X0150251Y0358249D01*
X0150150Y0358285D01*
X0150051Y0358324D01*
X0149952Y0358366D01*
X0149856Y0358411D01*
X0150411Y0355650D02*
X0152189Y0355650D01*
X0152254Y0355648D01*
X0152318Y0355642D01*
X0152382Y0355633D01*
X0152445Y0355620D01*
X0152508Y0355603D01*
X0152569Y0355583D01*
X0152629Y0355559D01*
X0152688Y0355532D01*
X0152745Y0355501D01*
X0152800Y0355467D01*
X0152852Y0355430D01*
X0152903Y0355390D01*
X0152951Y0355347D01*
X0152997Y0355301D01*
X0153040Y0355253D01*
X0153080Y0355202D01*
X0153117Y0355150D01*
X0153151Y0355095D01*
X0153182Y0355038D01*
X0153209Y0354979D01*
X0153233Y0354919D01*
X0153253Y0354858D01*
X0153270Y0354795D01*
X0153283Y0354732D01*
X0153292Y0354668D01*
X0153298Y0354604D01*
X0153300Y0354539D01*
X0153300Y0353428D01*
X0149300Y0353428D01*
X0149300Y0354539D01*
X0149302Y0354604D01*
X0149308Y0354668D01*
X0149317Y0354732D01*
X0149330Y0354795D01*
X0149347Y0354858D01*
X0149367Y0354919D01*
X0149391Y0354979D01*
X0149418Y0355038D01*
X0149449Y0355095D01*
X0149483Y0355150D01*
X0149520Y0355202D01*
X0149560Y0355253D01*
X0149603Y0355301D01*
X0149649Y0355347D01*
X0149697Y0355390D01*
X0149748Y0355430D01*
X0149801Y0355467D01*
X0149856Y0355501D01*
X0149912Y0355532D01*
X0149971Y0355559D01*
X0150031Y0355583D01*
X0150092Y0355603D01*
X0150155Y0355620D01*
X0150218Y0355633D01*
X0150282Y0355642D01*
X0150346Y0355648D01*
X0150411Y0355650D01*
X0151300Y0358078D02*
X0151407Y0358080D01*
X0151513Y0358085D01*
X0151620Y0358094D01*
X0151726Y0358106D01*
X0151832Y0358121D01*
X0151937Y0358140D01*
X0152041Y0358162D01*
X0152145Y0358188D01*
X0152248Y0358217D01*
X0152349Y0358249D01*
X0152450Y0358285D01*
X0152549Y0358324D01*
X0152648Y0358366D01*
X0152744Y0358411D01*
X0159300Y0359189D02*
X0163300Y0359189D01*
X0163300Y0358078D02*
X0163300Y0360300D01*
X0160189Y0358078D02*
X0159300Y0359189D01*
X0160411Y0355650D02*
X0162189Y0355650D01*
X0162254Y0355648D01*
X0162318Y0355642D01*
X0162382Y0355633D01*
X0162445Y0355620D01*
X0162508Y0355603D01*
X0162569Y0355583D01*
X0162629Y0355559D01*
X0162688Y0355532D01*
X0162745Y0355501D01*
X0162800Y0355467D01*
X0162852Y0355430D01*
X0162903Y0355390D01*
X0162951Y0355347D01*
X0162997Y0355301D01*
X0163040Y0355253D01*
X0163080Y0355202D01*
X0163117Y0355150D01*
X0163151Y0355095D01*
X0163182Y0355038D01*
X0163209Y0354979D01*
X0163233Y0354919D01*
X0163253Y0354858D01*
X0163270Y0354795D01*
X0163283Y0354732D01*
X0163292Y0354668D01*
X0163298Y0354604D01*
X0163300Y0354539D01*
X0163300Y0353428D01*
X0159300Y0353428D01*
X0159300Y0354539D01*
X0159302Y0354604D01*
X0159308Y0354668D01*
X0159317Y0354732D01*
X0159330Y0354795D01*
X0159347Y0354858D01*
X0159367Y0354919D01*
X0159391Y0354979D01*
X0159418Y0355038D01*
X0159449Y0355095D01*
X0159483Y0355150D01*
X0159520Y0355202D01*
X0159560Y0355253D01*
X0159603Y0355301D01*
X0159649Y0355347D01*
X0159697Y0355390D01*
X0159748Y0355430D01*
X0159801Y0355467D01*
X0159856Y0355501D01*
X0159912Y0355532D01*
X0159971Y0355559D01*
X0160031Y0355583D01*
X0160092Y0355603D01*
X0160155Y0355620D01*
X0160218Y0355633D01*
X0160282Y0355642D01*
X0160346Y0355648D01*
X0160411Y0355650D01*
X0169300Y0354539D02*
X0169300Y0353428D01*
X0173300Y0353428D01*
X0173300Y0354539D01*
X0173298Y0354604D01*
X0173292Y0354668D01*
X0173283Y0354732D01*
X0173270Y0354795D01*
X0173253Y0354858D01*
X0173233Y0354919D01*
X0173209Y0354979D01*
X0173182Y0355038D01*
X0173151Y0355095D01*
X0173117Y0355150D01*
X0173080Y0355202D01*
X0173040Y0355253D01*
X0172997Y0355301D01*
X0172951Y0355347D01*
X0172903Y0355390D01*
X0172852Y0355430D01*
X0172800Y0355467D01*
X0172745Y0355501D01*
X0172688Y0355532D01*
X0172629Y0355559D01*
X0172569Y0355583D01*
X0172508Y0355603D01*
X0172445Y0355620D01*
X0172382Y0355633D01*
X0172318Y0355642D01*
X0172254Y0355648D01*
X0172189Y0355650D01*
X0170411Y0355650D01*
X0170346Y0355648D01*
X0170282Y0355642D01*
X0170218Y0355633D01*
X0170155Y0355620D01*
X0170092Y0355603D01*
X0170031Y0355583D01*
X0169971Y0355559D01*
X0169912Y0355532D01*
X0169856Y0355501D01*
X0169801Y0355467D01*
X0169748Y0355430D01*
X0169697Y0355390D01*
X0169649Y0355347D01*
X0169603Y0355301D01*
X0169560Y0355253D01*
X0169520Y0355202D01*
X0169483Y0355150D01*
X0169449Y0355095D01*
X0169418Y0355038D01*
X0169391Y0354979D01*
X0169367Y0354919D01*
X0169347Y0354858D01*
X0169330Y0354795D01*
X0169317Y0354732D01*
X0169308Y0354668D01*
X0169302Y0354604D01*
X0169300Y0354539D01*
X0171078Y0359967D02*
X0171034Y0360010D01*
X0170987Y0360052D01*
X0170938Y0360090D01*
X0170887Y0360125D01*
X0170834Y0360158D01*
X0170779Y0360187D01*
X0170723Y0360213D01*
X0170665Y0360236D01*
X0170606Y0360255D01*
X0170546Y0360271D01*
X0170485Y0360284D01*
X0170424Y0360293D01*
X0170362Y0360298D01*
X0170300Y0360300D01*
X0171078Y0359967D02*
X0173300Y0358078D01*
X0173300Y0360300D01*
X0170189Y0358078D02*
X0170123Y0358101D01*
X0170058Y0358128D01*
X0169995Y0358159D01*
X0169933Y0358193D01*
X0169874Y0358230D01*
X0169816Y0358270D01*
X0169761Y0358314D01*
X0169709Y0358360D01*
X0169658Y0358410D01*
X0169611Y0358462D01*
X0169567Y0358516D01*
X0169526Y0358573D01*
X0169487Y0358632D01*
X0169452Y0358693D01*
X0169421Y0358756D01*
X0169393Y0358820D01*
X0169369Y0358886D01*
X0169348Y0358953D01*
X0169331Y0359021D01*
X0169317Y0359090D01*
X0169308Y0359160D01*
X0169302Y0359230D01*
X0169300Y0359300D01*
X0169302Y0359360D01*
X0169307Y0359421D01*
X0169316Y0359480D01*
X0169329Y0359539D01*
X0169345Y0359598D01*
X0169365Y0359655D01*
X0169388Y0359710D01*
X0169415Y0359765D01*
X0169444Y0359817D01*
X0169477Y0359868D01*
X0169513Y0359917D01*
X0169551Y0359963D01*
X0169593Y0360007D01*
X0169637Y0360049D01*
X0169683Y0360087D01*
X0169732Y0360123D01*
X0169783Y0360156D01*
X0169835Y0360185D01*
X0169890Y0360212D01*
X0169945Y0360235D01*
X0170002Y0360255D01*
X0170061Y0360271D01*
X0170120Y0360284D01*
X0170179Y0360293D01*
X0170240Y0360298D01*
X0170300Y0360300D01*
X0179300Y0359411D02*
X0179300Y0358078D01*
X0179300Y0359411D02*
X0179302Y0359469D01*
X0179308Y0359527D01*
X0179317Y0359584D01*
X0179330Y0359641D01*
X0179347Y0359697D01*
X0179368Y0359751D01*
X0179392Y0359804D01*
X0179419Y0359856D01*
X0179450Y0359905D01*
X0179484Y0359952D01*
X0179521Y0359997D01*
X0179560Y0360040D01*
X0179603Y0360079D01*
X0179648Y0360116D01*
X0179695Y0360150D01*
X0179745Y0360181D01*
X0179796Y0360208D01*
X0179849Y0360232D01*
X0179903Y0360253D01*
X0179959Y0360270D01*
X0180016Y0360283D01*
X0180073Y0360292D01*
X0180131Y0360298D01*
X0180189Y0360300D01*
X0180247Y0360298D01*
X0180305Y0360292D01*
X0180362Y0360283D01*
X0180419Y0360270D01*
X0180475Y0360253D01*
X0180529Y0360232D01*
X0180582Y0360208D01*
X0180634Y0360181D01*
X0180683Y0360150D01*
X0180730Y0360116D01*
X0180775Y0360079D01*
X0180818Y0360040D01*
X0180857Y0359997D01*
X0180894Y0359952D01*
X0180928Y0359905D01*
X0180959Y0359856D01*
X0180986Y0359804D01*
X0181010Y0359751D01*
X0181031Y0359697D01*
X0181048Y0359641D01*
X0181061Y0359584D01*
X0181070Y0359527D01*
X0181076Y0359469D01*
X0181078Y0359411D01*
X0181078Y0358522D01*
X0181078Y0359189D02*
X0181080Y0359255D01*
X0181086Y0359320D01*
X0181096Y0359386D01*
X0181109Y0359450D01*
X0181126Y0359513D01*
X0181148Y0359576D01*
X0181172Y0359637D01*
X0181201Y0359696D01*
X0181232Y0359754D01*
X0181268Y0359810D01*
X0181306Y0359863D01*
X0181347Y0359914D01*
X0181392Y0359963D01*
X0181439Y0360009D01*
X0181489Y0360052D01*
X0181541Y0360092D01*
X0181596Y0360128D01*
X0181653Y0360162D01*
X0181711Y0360192D01*
X0181771Y0360219D01*
X0181833Y0360241D01*
X0181896Y0360261D01*
X0181960Y0360276D01*
X0182025Y0360288D01*
X0182090Y0360296D01*
X0182156Y0360300D01*
X0182222Y0360300D01*
X0182288Y0360296D01*
X0182353Y0360288D01*
X0182418Y0360276D01*
X0182482Y0360261D01*
X0182545Y0360241D01*
X0182607Y0360219D01*
X0182667Y0360192D01*
X0182725Y0360162D01*
X0182782Y0360128D01*
X0182837Y0360092D01*
X0182889Y0360052D01*
X0182939Y0360009D01*
X0182986Y0359963D01*
X0183031Y0359914D01*
X0183072Y0359863D01*
X0183110Y0359810D01*
X0183146Y0359754D01*
X0183177Y0359696D01*
X0183206Y0359637D01*
X0183230Y0359576D01*
X0183252Y0359513D01*
X0183269Y0359450D01*
X0183282Y0359386D01*
X0183292Y0359320D01*
X0183298Y0359255D01*
X0183300Y0359189D01*
X0183300Y0358078D01*
X0182189Y0355650D02*
X0180411Y0355650D01*
X0180346Y0355648D01*
X0180282Y0355642D01*
X0180218Y0355633D01*
X0180155Y0355620D01*
X0180092Y0355603D01*
X0180031Y0355583D01*
X0179971Y0355559D01*
X0179912Y0355532D01*
X0179856Y0355501D01*
X0179801Y0355467D01*
X0179748Y0355430D01*
X0179697Y0355390D01*
X0179649Y0355347D01*
X0179603Y0355301D01*
X0179560Y0355253D01*
X0179520Y0355202D01*
X0179483Y0355150D01*
X0179449Y0355095D01*
X0179418Y0355038D01*
X0179391Y0354979D01*
X0179367Y0354919D01*
X0179347Y0354858D01*
X0179330Y0354795D01*
X0179317Y0354732D01*
X0179308Y0354668D01*
X0179302Y0354604D01*
X0179300Y0354539D01*
X0179300Y0353428D01*
X0183300Y0353428D01*
X0183300Y0354539D01*
X0183298Y0354604D01*
X0183292Y0354668D01*
X0183283Y0354732D01*
X0183270Y0354795D01*
X0183253Y0354858D01*
X0183233Y0354919D01*
X0183209Y0354979D01*
X0183182Y0355038D01*
X0183151Y0355095D01*
X0183117Y0355150D01*
X0183080Y0355202D01*
X0183040Y0355253D01*
X0182997Y0355301D01*
X0182951Y0355347D01*
X0182903Y0355390D01*
X0182852Y0355430D01*
X0182800Y0355467D01*
X0182745Y0355501D01*
X0182688Y0355532D01*
X0182629Y0355559D01*
X0182569Y0355583D01*
X0182508Y0355603D01*
X0182445Y0355620D01*
X0182382Y0355633D01*
X0182318Y0355642D01*
X0182254Y0355648D01*
X0182189Y0355650D01*
X0189300Y0354539D02*
X0189300Y0353428D01*
X0193300Y0353428D01*
X0193300Y0354539D01*
X0193298Y0354604D01*
X0193292Y0354668D01*
X0193283Y0354732D01*
X0193270Y0354795D01*
X0193253Y0354858D01*
X0193233Y0354919D01*
X0193209Y0354979D01*
X0193182Y0355038D01*
X0193151Y0355095D01*
X0193117Y0355150D01*
X0193080Y0355202D01*
X0193040Y0355253D01*
X0192997Y0355301D01*
X0192951Y0355347D01*
X0192903Y0355390D01*
X0192852Y0355430D01*
X0192800Y0355467D01*
X0192745Y0355501D01*
X0192688Y0355532D01*
X0192629Y0355559D01*
X0192569Y0355583D01*
X0192508Y0355603D01*
X0192445Y0355620D01*
X0192382Y0355633D01*
X0192318Y0355642D01*
X0192254Y0355648D01*
X0192189Y0355650D01*
X0190411Y0355650D01*
X0190346Y0355648D01*
X0190282Y0355642D01*
X0190218Y0355633D01*
X0190155Y0355620D01*
X0190092Y0355603D01*
X0190031Y0355583D01*
X0189971Y0355559D01*
X0189912Y0355532D01*
X0189856Y0355501D01*
X0189801Y0355467D01*
X0189748Y0355430D01*
X0189697Y0355390D01*
X0189649Y0355347D01*
X0189603Y0355301D01*
X0189560Y0355253D01*
X0189520Y0355202D01*
X0189483Y0355150D01*
X0189449Y0355095D01*
X0189418Y0355038D01*
X0189391Y0354979D01*
X0189367Y0354919D01*
X0189347Y0354858D01*
X0189330Y0354795D01*
X0189317Y0354732D01*
X0189308Y0354668D01*
X0189302Y0354604D01*
X0189300Y0354539D01*
X0189300Y0358967D02*
X0192411Y0358078D01*
X0192411Y0360300D01*
X0191522Y0359633D02*
X0193300Y0359633D01*
X0199300Y0360300D02*
X0199300Y0358078D01*
X0201078Y0358078D01*
X0201078Y0359411D01*
X0201080Y0359469D01*
X0201086Y0359527D01*
X0201095Y0359584D01*
X0201108Y0359641D01*
X0201125Y0359697D01*
X0201146Y0359751D01*
X0201170Y0359804D01*
X0201197Y0359856D01*
X0201228Y0359905D01*
X0201262Y0359952D01*
X0201299Y0359997D01*
X0201338Y0360040D01*
X0201381Y0360079D01*
X0201426Y0360116D01*
X0201473Y0360150D01*
X0201523Y0360181D01*
X0201574Y0360208D01*
X0201627Y0360232D01*
X0201681Y0360253D01*
X0201737Y0360270D01*
X0201794Y0360283D01*
X0201851Y0360292D01*
X0201909Y0360298D01*
X0201967Y0360300D01*
X0202411Y0360300D01*
X0202469Y0360298D01*
X0202527Y0360292D01*
X0202584Y0360283D01*
X0202641Y0360270D01*
X0202697Y0360253D01*
X0202751Y0360232D01*
X0202804Y0360208D01*
X0202856Y0360181D01*
X0202905Y0360150D01*
X0202952Y0360116D01*
X0202997Y0360079D01*
X0203040Y0360040D01*
X0203079Y0359997D01*
X0203116Y0359952D01*
X0203150Y0359905D01*
X0203181Y0359856D01*
X0203208Y0359804D01*
X0203232Y0359751D01*
X0203253Y0359697D01*
X0203270Y0359641D01*
X0203283Y0359584D01*
X0203292Y0359527D01*
X0203298Y0359469D01*
X0203300Y0359411D01*
X0203300Y0358078D01*
X0202189Y0355650D02*
X0200411Y0355650D01*
X0200346Y0355648D01*
X0200282Y0355642D01*
X0200218Y0355633D01*
X0200155Y0355620D01*
X0200092Y0355603D01*
X0200031Y0355583D01*
X0199971Y0355559D01*
X0199912Y0355532D01*
X0199856Y0355501D01*
X0199801Y0355467D01*
X0199748Y0355430D01*
X0199697Y0355390D01*
X0199649Y0355347D01*
X0199603Y0355301D01*
X0199560Y0355253D01*
X0199520Y0355202D01*
X0199483Y0355150D01*
X0199449Y0355095D01*
X0199418Y0355038D01*
X0199391Y0354979D01*
X0199367Y0354919D01*
X0199347Y0354858D01*
X0199330Y0354795D01*
X0199317Y0354732D01*
X0199308Y0354668D01*
X0199302Y0354604D01*
X0199300Y0354539D01*
X0199300Y0353428D01*
X0203300Y0353428D01*
X0203300Y0354539D01*
X0203298Y0354604D01*
X0203292Y0354668D01*
X0203283Y0354732D01*
X0203270Y0354795D01*
X0203253Y0354858D01*
X0203233Y0354919D01*
X0203209Y0354979D01*
X0203182Y0355038D01*
X0203151Y0355095D01*
X0203117Y0355150D01*
X0203080Y0355202D01*
X0203040Y0355253D01*
X0202997Y0355301D01*
X0202951Y0355347D01*
X0202903Y0355390D01*
X0202852Y0355430D01*
X0202800Y0355467D01*
X0202745Y0355501D01*
X0202688Y0355532D01*
X0202629Y0355559D01*
X0202569Y0355583D01*
X0202508Y0355603D01*
X0202445Y0355620D01*
X0202382Y0355633D01*
X0202318Y0355642D01*
X0202254Y0355648D01*
X0202189Y0355650D01*
X0209300Y0354539D02*
X0209300Y0353428D01*
X0213300Y0353428D01*
X0213300Y0354539D01*
X0213298Y0354604D01*
X0213292Y0354668D01*
X0213283Y0354732D01*
X0213270Y0354795D01*
X0213253Y0354858D01*
X0213233Y0354919D01*
X0213209Y0354979D01*
X0213182Y0355038D01*
X0213151Y0355095D01*
X0213117Y0355150D01*
X0213080Y0355202D01*
X0213040Y0355253D01*
X0212997Y0355301D01*
X0212951Y0355347D01*
X0212903Y0355390D01*
X0212852Y0355430D01*
X0212800Y0355467D01*
X0212745Y0355501D01*
X0212688Y0355532D01*
X0212629Y0355559D01*
X0212569Y0355583D01*
X0212508Y0355603D01*
X0212445Y0355620D01*
X0212382Y0355633D01*
X0212318Y0355642D01*
X0212254Y0355648D01*
X0212189Y0355650D01*
X0210411Y0355650D01*
X0210346Y0355648D01*
X0210282Y0355642D01*
X0210218Y0355633D01*
X0210155Y0355620D01*
X0210092Y0355603D01*
X0210031Y0355583D01*
X0209971Y0355559D01*
X0209912Y0355532D01*
X0209856Y0355501D01*
X0209801Y0355467D01*
X0209748Y0355430D01*
X0209697Y0355390D01*
X0209649Y0355347D01*
X0209603Y0355301D01*
X0209560Y0355253D01*
X0209520Y0355202D01*
X0209483Y0355150D01*
X0209449Y0355095D01*
X0209418Y0355038D01*
X0209391Y0354979D01*
X0209367Y0354919D01*
X0209347Y0354858D01*
X0209330Y0354795D01*
X0209317Y0354732D01*
X0209308Y0354668D01*
X0209302Y0354604D01*
X0209300Y0354539D01*
X0211078Y0358078D02*
X0212189Y0358078D01*
X0212255Y0358080D01*
X0212320Y0358086D01*
X0212386Y0358096D01*
X0212450Y0358109D01*
X0212513Y0358126D01*
X0212576Y0358148D01*
X0212637Y0358172D01*
X0212696Y0358201D01*
X0212754Y0358232D01*
X0212810Y0358268D01*
X0212863Y0358306D01*
X0212914Y0358347D01*
X0212963Y0358392D01*
X0213009Y0358439D01*
X0213052Y0358489D01*
X0213092Y0358541D01*
X0213128Y0358596D01*
X0213162Y0358653D01*
X0213192Y0358711D01*
X0213219Y0358771D01*
X0213241Y0358833D01*
X0213261Y0358896D01*
X0213276Y0358960D01*
X0213288Y0359025D01*
X0213296Y0359090D01*
X0213300Y0359156D01*
X0213300Y0359222D01*
X0213296Y0359288D01*
X0213288Y0359353D01*
X0213276Y0359418D01*
X0213261Y0359482D01*
X0213241Y0359545D01*
X0213219Y0359607D01*
X0213192Y0359667D01*
X0213162Y0359725D01*
X0213128Y0359782D01*
X0213092Y0359837D01*
X0213052Y0359889D01*
X0213009Y0359939D01*
X0212963Y0359986D01*
X0212914Y0360031D01*
X0212863Y0360072D01*
X0212810Y0360110D01*
X0212754Y0360146D01*
X0212696Y0360177D01*
X0212637Y0360206D01*
X0212576Y0360230D01*
X0212513Y0360252D01*
X0212450Y0360269D01*
X0212386Y0360282D01*
X0212320Y0360292D01*
X0212255Y0360298D01*
X0212189Y0360300D01*
X0211967Y0360300D01*
X0211909Y0360298D01*
X0211851Y0360292D01*
X0211794Y0360283D01*
X0211737Y0360270D01*
X0211681Y0360253D01*
X0211627Y0360232D01*
X0211574Y0360208D01*
X0211523Y0360181D01*
X0211473Y0360150D01*
X0211426Y0360116D01*
X0211381Y0360079D01*
X0211338Y0360040D01*
X0211299Y0359997D01*
X0211262Y0359952D01*
X0211228Y0359905D01*
X0211197Y0359856D01*
X0211170Y0359804D01*
X0211146Y0359751D01*
X0211125Y0359697D01*
X0211108Y0359641D01*
X0211095Y0359584D01*
X0211086Y0359527D01*
X0211080Y0359469D01*
X0211078Y0359411D01*
X0211078Y0358078D01*
X0210996Y0358080D01*
X0210914Y0358086D01*
X0210832Y0358095D01*
X0210751Y0358108D01*
X0210671Y0358125D01*
X0210591Y0358146D01*
X0210513Y0358170D01*
X0210436Y0358198D01*
X0210360Y0358229D01*
X0210285Y0358264D01*
X0210213Y0358303D01*
X0210142Y0358344D01*
X0210073Y0358389D01*
X0210007Y0358437D01*
X0209942Y0358488D01*
X0209880Y0358542D01*
X0209821Y0358599D01*
X0209764Y0358658D01*
X0209710Y0358720D01*
X0209659Y0358785D01*
X0209611Y0358851D01*
X0209566Y0358920D01*
X0209525Y0358991D01*
X0209486Y0359063D01*
X0209452Y0359138D01*
X0209420Y0359214D01*
X0209392Y0359291D01*
X0209368Y0359369D01*
X0209347Y0359449D01*
X0209330Y0359529D01*
X0209317Y0359610D01*
X0209308Y0359692D01*
X0209302Y0359774D01*
X0209300Y0359856D01*
X0219300Y0360300D02*
X0219300Y0358078D01*
X0219744Y0358078D01*
X0219300Y0360300D02*
X0223300Y0359189D01*
X0222189Y0355650D02*
X0220411Y0355650D01*
X0220346Y0355648D01*
X0220282Y0355642D01*
X0220218Y0355633D01*
X0220155Y0355620D01*
X0220092Y0355603D01*
X0220031Y0355583D01*
X0219971Y0355559D01*
X0219912Y0355532D01*
X0219856Y0355501D01*
X0219801Y0355467D01*
X0219748Y0355430D01*
X0219697Y0355390D01*
X0219649Y0355347D01*
X0219603Y0355301D01*
X0219560Y0355253D01*
X0219520Y0355202D01*
X0219483Y0355150D01*
X0219449Y0355095D01*
X0219418Y0355038D01*
X0219391Y0354979D01*
X0219367Y0354919D01*
X0219347Y0354858D01*
X0219330Y0354795D01*
X0219317Y0354732D01*
X0219308Y0354668D01*
X0219302Y0354604D01*
X0219300Y0354539D01*
X0219300Y0353428D01*
X0223300Y0353428D01*
X0223300Y0354539D01*
X0223298Y0354604D01*
X0223292Y0354668D01*
X0223283Y0354732D01*
X0223270Y0354795D01*
X0223253Y0354858D01*
X0223233Y0354919D01*
X0223209Y0354979D01*
X0223182Y0355038D01*
X0223151Y0355095D01*
X0223117Y0355150D01*
X0223080Y0355202D01*
X0223040Y0355253D01*
X0222997Y0355301D01*
X0222951Y0355347D01*
X0222903Y0355390D01*
X0222852Y0355430D01*
X0222800Y0355467D01*
X0222745Y0355501D01*
X0222688Y0355532D01*
X0222629Y0355559D01*
X0222569Y0355583D01*
X0222508Y0355603D01*
X0222445Y0355620D01*
X0222382Y0355633D01*
X0222318Y0355642D01*
X0222254Y0355648D01*
X0222189Y0355650D01*
X0103300Y0349593D02*
X0101411Y0348593D01*
X0101967Y0347816D02*
X0100633Y0349593D01*
X0099300Y0347816D02*
X0103300Y0347816D01*
X0103300Y0345687D02*
X0103300Y0344798D01*
X0103298Y0344748D01*
X0103293Y0344699D01*
X0103283Y0344650D01*
X0103270Y0344601D01*
X0103254Y0344554D01*
X0103234Y0344509D01*
X0103211Y0344465D01*
X0103184Y0344422D01*
X0103154Y0344382D01*
X0103122Y0344344D01*
X0103087Y0344309D01*
X0103049Y0344277D01*
X0103009Y0344247D01*
X0102967Y0344220D01*
X0102922Y0344197D01*
X0102877Y0344177D01*
X0102830Y0344161D01*
X0102781Y0344148D01*
X0102732Y0344138D01*
X0102683Y0344133D01*
X0102633Y0344131D01*
X0101300Y0344131D01*
X0101250Y0344133D01*
X0101201Y0344138D01*
X0101152Y0344148D01*
X0101103Y0344161D01*
X0101056Y0344177D01*
X0101011Y0344197D01*
X0100967Y0344220D01*
X0100924Y0344247D01*
X0100884Y0344277D01*
X0100846Y0344309D01*
X0100811Y0344344D01*
X0100779Y0344382D01*
X0100749Y0344422D01*
X0100722Y0344465D01*
X0100699Y0344509D01*
X0100679Y0344554D01*
X0100663Y0344601D01*
X0100650Y0344650D01*
X0100640Y0344699D01*
X0100635Y0344748D01*
X0100633Y0344798D01*
X0100633Y0345687D01*
X0101300Y0341809D02*
X0103300Y0341809D01*
X0103300Y0340809D01*
X0103298Y0340753D01*
X0103292Y0340698D01*
X0103282Y0340644D01*
X0103268Y0340590D01*
X0103251Y0340537D01*
X0103230Y0340486D01*
X0103205Y0340436D01*
X0103176Y0340388D01*
X0103145Y0340343D01*
X0103110Y0340300D01*
X0103072Y0340259D01*
X0103031Y0340221D01*
X0102988Y0340186D01*
X0102943Y0340155D01*
X0102895Y0340126D01*
X0102845Y0340101D01*
X0102794Y0340080D01*
X0102741Y0340063D01*
X0102687Y0340049D01*
X0102633Y0340039D01*
X0102578Y0340033D01*
X0102522Y0340031D01*
X0102466Y0340033D01*
X0102411Y0340039D01*
X0102357Y0340049D01*
X0102303Y0340063D01*
X0102250Y0340080D01*
X0102199Y0340101D01*
X0102149Y0340126D01*
X0102101Y0340155D01*
X0102056Y0340186D01*
X0102013Y0340221D01*
X0101972Y0340259D01*
X0101934Y0340300D01*
X0101899Y0340343D01*
X0101868Y0340388D01*
X0101839Y0340436D01*
X0101814Y0340486D01*
X0101793Y0340537D01*
X0101776Y0340590D01*
X0101762Y0340644D01*
X0101752Y0340698D01*
X0101746Y0340753D01*
X0101744Y0340809D01*
X0101744Y0341809D01*
X0101300Y0341810D02*
X0101250Y0341808D01*
X0101201Y0341803D01*
X0101152Y0341793D01*
X0101103Y0341780D01*
X0101056Y0341764D01*
X0101011Y0341744D01*
X0100967Y0341721D01*
X0100924Y0341694D01*
X0100884Y0341664D01*
X0100846Y0341632D01*
X0100811Y0341597D01*
X0100779Y0341559D01*
X0100749Y0341519D01*
X0100722Y0341477D01*
X0100699Y0341432D01*
X0100679Y0341387D01*
X0100663Y0341340D01*
X0100650Y0341291D01*
X0100640Y0341242D01*
X0100635Y0341193D01*
X0100633Y0341143D01*
X0100633Y0340254D01*
X0101078Y0337028D02*
X0101076Y0337086D01*
X0101070Y0337144D01*
X0101061Y0337201D01*
X0101048Y0337258D01*
X0101031Y0337314D01*
X0101010Y0337368D01*
X0100986Y0337421D01*
X0100959Y0337473D01*
X0100928Y0337522D01*
X0100894Y0337569D01*
X0100857Y0337614D01*
X0100818Y0337657D01*
X0100775Y0337696D01*
X0100730Y0337733D01*
X0100683Y0337767D01*
X0100634Y0337798D01*
X0100582Y0337825D01*
X0100529Y0337849D01*
X0100475Y0337870D01*
X0100419Y0337887D01*
X0100362Y0337900D01*
X0100305Y0337909D01*
X0100247Y0337915D01*
X0100189Y0337917D01*
X0100131Y0337915D01*
X0100073Y0337909D01*
X0100016Y0337900D01*
X0099959Y0337887D01*
X0099903Y0337870D01*
X0099849Y0337849D01*
X0099796Y0337825D01*
X0099745Y0337798D01*
X0099695Y0337767D01*
X0099648Y0337733D01*
X0099603Y0337696D01*
X0099560Y0337657D01*
X0099521Y0337614D01*
X0099484Y0337569D01*
X0099450Y0337522D01*
X0099419Y0337473D01*
X0099392Y0337421D01*
X0099368Y0337368D01*
X0099347Y0337314D01*
X0099330Y0337258D01*
X0099317Y0337201D01*
X0099308Y0337144D01*
X0099302Y0337086D01*
X0099300Y0337028D01*
X0099300Y0335917D01*
X0103300Y0335917D01*
X0103300Y0337028D01*
X0103298Y0337094D01*
X0103292Y0337159D01*
X0103282Y0337225D01*
X0103269Y0337289D01*
X0103252Y0337352D01*
X0103230Y0337415D01*
X0103206Y0337476D01*
X0103177Y0337535D01*
X0103146Y0337593D01*
X0103110Y0337649D01*
X0103072Y0337702D01*
X0103031Y0337753D01*
X0102986Y0337802D01*
X0102939Y0337848D01*
X0102889Y0337891D01*
X0102837Y0337931D01*
X0102782Y0337967D01*
X0102725Y0338001D01*
X0102667Y0338031D01*
X0102607Y0338058D01*
X0102545Y0338080D01*
X0102482Y0338100D01*
X0102418Y0338115D01*
X0102353Y0338127D01*
X0102288Y0338135D01*
X0102222Y0338139D01*
X0102156Y0338139D01*
X0102090Y0338135D01*
X0102025Y0338127D01*
X0101960Y0338115D01*
X0101896Y0338100D01*
X0101833Y0338080D01*
X0101771Y0338058D01*
X0101711Y0338031D01*
X0101653Y0338001D01*
X0101596Y0337967D01*
X0101541Y0337931D01*
X0101489Y0337891D01*
X0101439Y0337848D01*
X0101392Y0337802D01*
X0101347Y0337753D01*
X0101306Y0337702D01*
X0101268Y0337649D01*
X0101232Y0337593D01*
X0101201Y0337535D01*
X0101172Y0337476D01*
X0101148Y0337415D01*
X0101126Y0337352D01*
X0101109Y0337289D01*
X0101096Y0337225D01*
X0101086Y0337159D01*
X0101080Y0337094D01*
X0101078Y0337028D01*
X0101078Y0335917D01*
X0220633Y0109437D02*
X0220633Y0108104D01*
X0219300Y0108548D02*
X0222633Y0108548D01*
X0222683Y0108550D01*
X0222732Y0108555D01*
X0222781Y0108565D01*
X0222830Y0108578D01*
X0222877Y0108594D01*
X0222922Y0108614D01*
X0222967Y0108637D01*
X0223009Y0108664D01*
X0223049Y0108694D01*
X0223087Y0108726D01*
X0223122Y0108761D01*
X0223154Y0108799D01*
X0223184Y0108839D01*
X0223211Y0108882D01*
X0223234Y0108926D01*
X0223254Y0108971D01*
X0223270Y0109018D01*
X0223283Y0109067D01*
X0223293Y0109116D01*
X0223298Y0109165D01*
X0223300Y0109215D01*
X0223300Y0109437D01*
X0223300Y0106660D02*
X0223300Y0105771D01*
X0223298Y0105721D01*
X0223293Y0105672D01*
X0223283Y0105623D01*
X0223270Y0105574D01*
X0223254Y0105527D01*
X0223234Y0105482D01*
X0223211Y0105438D01*
X0223184Y0105395D01*
X0223154Y0105355D01*
X0223122Y0105317D01*
X0223087Y0105282D01*
X0223049Y0105250D01*
X0223009Y0105220D01*
X0222967Y0105193D01*
X0222922Y0105170D01*
X0222877Y0105150D01*
X0222830Y0105134D01*
X0222781Y0105121D01*
X0222732Y0105111D01*
X0222683Y0105106D01*
X0222633Y0105104D01*
X0221300Y0105104D01*
X0221250Y0105106D01*
X0221201Y0105111D01*
X0221152Y0105121D01*
X0221103Y0105134D01*
X0221056Y0105150D01*
X0221011Y0105170D01*
X0220967Y0105193D01*
X0220924Y0105220D01*
X0220884Y0105250D01*
X0220846Y0105282D01*
X0220811Y0105317D01*
X0220779Y0105355D01*
X0220749Y0105395D01*
X0220722Y0105438D01*
X0220699Y0105482D01*
X0220679Y0105527D01*
X0220663Y0105574D01*
X0220650Y0105623D01*
X0220640Y0105672D01*
X0220635Y0105721D01*
X0220633Y0105771D01*
X0220633Y0106660D01*
X0221522Y0102973D02*
X0221967Y0102973D01*
X0221967Y0101195D01*
X0221522Y0101195D02*
X0222633Y0101195D01*
X0222683Y0101197D01*
X0222732Y0101202D01*
X0222781Y0101212D01*
X0222830Y0101225D01*
X0222877Y0101241D01*
X0222922Y0101261D01*
X0222967Y0101284D01*
X0223009Y0101311D01*
X0223049Y0101341D01*
X0223087Y0101373D01*
X0223122Y0101408D01*
X0223154Y0101446D01*
X0223184Y0101486D01*
X0223211Y0101529D01*
X0223234Y0101573D01*
X0223254Y0101618D01*
X0223270Y0101665D01*
X0223283Y0101714D01*
X0223293Y0101763D01*
X0223298Y0101812D01*
X0223300Y0101862D01*
X0223300Y0102973D01*
X0221522Y0102973D02*
X0221464Y0102971D01*
X0221406Y0102965D01*
X0221349Y0102956D01*
X0221292Y0102943D01*
X0221236Y0102926D01*
X0221182Y0102905D01*
X0221129Y0102881D01*
X0221078Y0102854D01*
X0221028Y0102823D01*
X0220981Y0102789D01*
X0220936Y0102752D01*
X0220893Y0102713D01*
X0220854Y0102670D01*
X0220817Y0102625D01*
X0220783Y0102578D01*
X0220752Y0102529D01*
X0220725Y0102477D01*
X0220701Y0102424D01*
X0220680Y0102370D01*
X0220663Y0102314D01*
X0220650Y0102257D01*
X0220641Y0102200D01*
X0220635Y0102142D01*
X0220633Y0102084D01*
X0220635Y0102026D01*
X0220641Y0101968D01*
X0220650Y0101911D01*
X0220663Y0101854D01*
X0220680Y0101798D01*
X0220701Y0101744D01*
X0220725Y0101691D01*
X0220752Y0101640D01*
X0220783Y0101590D01*
X0220817Y0101543D01*
X0220854Y0101498D01*
X0220893Y0101455D01*
X0220936Y0101416D01*
X0220981Y0101379D01*
X0221028Y0101345D01*
X0221078Y0101314D01*
X0221129Y0101287D01*
X0221182Y0101263D01*
X0221236Y0101242D01*
X0221292Y0101225D01*
X0221349Y0101212D01*
X0221406Y0101203D01*
X0221464Y0101197D01*
X0221522Y0101195D01*
X0220633Y0099237D02*
X0220633Y0097904D01*
X0219300Y0098348D02*
X0222633Y0098348D01*
X0222683Y0098350D01*
X0222732Y0098355D01*
X0222781Y0098365D01*
X0222830Y0098378D01*
X0222877Y0098394D01*
X0222922Y0098414D01*
X0222967Y0098437D01*
X0223009Y0098464D01*
X0223049Y0098494D01*
X0223087Y0098526D01*
X0223122Y0098561D01*
X0223154Y0098599D01*
X0223184Y0098639D01*
X0223211Y0098682D01*
X0223234Y0098726D01*
X0223254Y0098771D01*
X0223270Y0098818D01*
X0223283Y0098867D01*
X0223293Y0098916D01*
X0223298Y0098965D01*
X0223300Y0099015D01*
X0223300Y0099237D01*
X0223300Y0096223D02*
X0223300Y0095112D01*
X0223298Y0095062D01*
X0223293Y0095013D01*
X0223283Y0094964D01*
X0223270Y0094915D01*
X0223254Y0094868D01*
X0223234Y0094823D01*
X0223211Y0094779D01*
X0223184Y0094736D01*
X0223154Y0094696D01*
X0223122Y0094658D01*
X0223087Y0094623D01*
X0223049Y0094591D01*
X0223009Y0094561D01*
X0222967Y0094534D01*
X0222922Y0094511D01*
X0222877Y0094491D01*
X0222830Y0094475D01*
X0222781Y0094462D01*
X0222732Y0094452D01*
X0222683Y0094447D01*
X0222633Y0094445D01*
X0221522Y0094445D01*
X0221967Y0094445D02*
X0221967Y0096223D01*
X0221522Y0096223D01*
X0221464Y0096221D01*
X0221406Y0096215D01*
X0221349Y0096206D01*
X0221292Y0096193D01*
X0221236Y0096176D01*
X0221182Y0096155D01*
X0221129Y0096131D01*
X0221078Y0096104D01*
X0221028Y0096073D01*
X0220981Y0096039D01*
X0220936Y0096002D01*
X0220893Y0095963D01*
X0220854Y0095920D01*
X0220817Y0095875D01*
X0220783Y0095828D01*
X0220752Y0095779D01*
X0220725Y0095727D01*
X0220701Y0095674D01*
X0220680Y0095620D01*
X0220663Y0095564D01*
X0220650Y0095507D01*
X0220641Y0095450D01*
X0220635Y0095392D01*
X0220633Y0095334D01*
X0220635Y0095276D01*
X0220641Y0095218D01*
X0220650Y0095161D01*
X0220663Y0095104D01*
X0220680Y0095048D01*
X0220701Y0094994D01*
X0220725Y0094941D01*
X0220752Y0094890D01*
X0220783Y0094840D01*
X0220817Y0094793D01*
X0220854Y0094748D01*
X0220893Y0094705D01*
X0220936Y0094666D01*
X0220981Y0094629D01*
X0221028Y0094595D01*
X0221078Y0094564D01*
X0221129Y0094537D01*
X0221182Y0094513D01*
X0221236Y0094492D01*
X0221292Y0094475D01*
X0221349Y0094462D01*
X0221406Y0094453D01*
X0221464Y0094447D01*
X0221522Y0094445D01*
X0222189Y0092095D02*
X0220411Y0092095D01*
X0220346Y0092093D01*
X0220282Y0092087D01*
X0220218Y0092078D01*
X0220155Y0092065D01*
X0220092Y0092048D01*
X0220031Y0092028D01*
X0219971Y0092004D01*
X0219912Y0091977D01*
X0219856Y0091946D01*
X0219801Y0091912D01*
X0219748Y0091875D01*
X0219697Y0091835D01*
X0219649Y0091792D01*
X0219603Y0091746D01*
X0219560Y0091698D01*
X0219520Y0091647D01*
X0219483Y0091595D01*
X0219449Y0091540D01*
X0219418Y0091483D01*
X0219391Y0091424D01*
X0219367Y0091364D01*
X0219347Y0091303D01*
X0219330Y0091240D01*
X0219317Y0091177D01*
X0219308Y0091113D01*
X0219302Y0091049D01*
X0219300Y0090984D01*
X0219300Y0089873D01*
X0223300Y0089873D01*
X0223300Y0090984D01*
X0223298Y0091049D01*
X0223292Y0091113D01*
X0223283Y0091177D01*
X0223270Y0091240D01*
X0223253Y0091303D01*
X0223233Y0091364D01*
X0223209Y0091424D01*
X0223182Y0091483D01*
X0223151Y0091540D01*
X0223117Y0091595D01*
X0223080Y0091647D01*
X0223040Y0091698D01*
X0222997Y0091746D01*
X0222951Y0091792D01*
X0222903Y0091835D01*
X0222852Y0091875D01*
X0222800Y0091912D01*
X0222745Y0091946D01*
X0222688Y0091977D01*
X0222629Y0092004D01*
X0222569Y0092028D01*
X0222508Y0092048D01*
X0222445Y0092065D01*
X0222382Y0092078D01*
X0222318Y0092087D01*
X0222254Y0092093D01*
X0222189Y0092095D01*
X0223300Y0084932D02*
X0219300Y0084932D01*
X0220633Y0084932D02*
X0220633Y0083821D01*
X0220635Y0083771D01*
X0220640Y0083722D01*
X0220650Y0083673D01*
X0220663Y0083624D01*
X0220679Y0083577D01*
X0220699Y0083532D01*
X0220722Y0083488D01*
X0220749Y0083445D01*
X0220779Y0083405D01*
X0220811Y0083367D01*
X0220846Y0083332D01*
X0220884Y0083300D01*
X0220924Y0083270D01*
X0220967Y0083243D01*
X0221011Y0083220D01*
X0221056Y0083200D01*
X0221103Y0083184D01*
X0221152Y0083171D01*
X0221201Y0083161D01*
X0221250Y0083156D01*
X0221300Y0083154D01*
X0222633Y0083154D01*
X0222683Y0083156D01*
X0222732Y0083161D01*
X0222781Y0083171D01*
X0222830Y0083184D01*
X0222877Y0083200D01*
X0222922Y0083220D01*
X0222967Y0083243D01*
X0223009Y0083270D01*
X0223049Y0083300D01*
X0223087Y0083332D01*
X0223122Y0083367D01*
X0223154Y0083405D01*
X0223184Y0083445D01*
X0223211Y0083488D01*
X0223234Y0083532D01*
X0223254Y0083577D01*
X0223270Y0083624D01*
X0223283Y0083673D01*
X0223293Y0083722D01*
X0223298Y0083771D01*
X0223300Y0083821D01*
X0223300Y0084932D01*
X0221078Y0081574D02*
X0220633Y0081574D01*
X0220633Y0080241D01*
X0223300Y0080241D01*
X0223300Y0077732D02*
X0221300Y0077732D01*
X0221744Y0077732D02*
X0221744Y0076732D01*
X0221300Y0077733D02*
X0221250Y0077731D01*
X0221201Y0077726D01*
X0221152Y0077716D01*
X0221103Y0077703D01*
X0221056Y0077687D01*
X0221011Y0077667D01*
X0220967Y0077644D01*
X0220924Y0077617D01*
X0220884Y0077587D01*
X0220846Y0077555D01*
X0220811Y0077520D01*
X0220779Y0077482D01*
X0220749Y0077442D01*
X0220722Y0077400D01*
X0220699Y0077355D01*
X0220679Y0077310D01*
X0220663Y0077263D01*
X0220650Y0077214D01*
X0220640Y0077165D01*
X0220635Y0077116D01*
X0220633Y0077066D01*
X0220633Y0076177D01*
X0221744Y0076732D02*
X0221746Y0076676D01*
X0221752Y0076621D01*
X0221762Y0076567D01*
X0221776Y0076513D01*
X0221793Y0076460D01*
X0221814Y0076409D01*
X0221839Y0076359D01*
X0221868Y0076311D01*
X0221899Y0076266D01*
X0221934Y0076223D01*
X0221972Y0076182D01*
X0222013Y0076144D01*
X0222056Y0076109D01*
X0222101Y0076078D01*
X0222149Y0076049D01*
X0222199Y0076024D01*
X0222250Y0076003D01*
X0222303Y0075986D01*
X0222357Y0075972D01*
X0222411Y0075962D01*
X0222466Y0075956D01*
X0222522Y0075954D01*
X0222578Y0075956D01*
X0222633Y0075962D01*
X0222687Y0075972D01*
X0222741Y0075986D01*
X0222794Y0076003D01*
X0222845Y0076024D01*
X0222895Y0076049D01*
X0222943Y0076078D01*
X0222988Y0076109D01*
X0223031Y0076144D01*
X0223072Y0076182D01*
X0223110Y0076223D01*
X0223145Y0076266D01*
X0223176Y0076311D01*
X0223205Y0076359D01*
X0223230Y0076409D01*
X0223251Y0076460D01*
X0223268Y0076513D01*
X0223282Y0076567D01*
X0223292Y0076621D01*
X0223298Y0076676D01*
X0223300Y0076732D01*
X0223300Y0077732D01*
X0223300Y0074078D02*
X0223300Y0073189D01*
X0223298Y0073131D01*
X0223292Y0073073D01*
X0223283Y0073016D01*
X0223270Y0072959D01*
X0223253Y0072903D01*
X0223232Y0072849D01*
X0223208Y0072796D01*
X0223181Y0072745D01*
X0223150Y0072695D01*
X0223116Y0072648D01*
X0223079Y0072603D01*
X0223040Y0072560D01*
X0222997Y0072521D01*
X0222952Y0072484D01*
X0222905Y0072450D01*
X0222856Y0072419D01*
X0222804Y0072392D01*
X0222751Y0072368D01*
X0222697Y0072347D01*
X0222641Y0072330D01*
X0222584Y0072317D01*
X0222527Y0072308D01*
X0222469Y0072302D01*
X0222411Y0072300D01*
X0220189Y0072300D01*
X0220131Y0072302D01*
X0220073Y0072308D01*
X0220016Y0072317D01*
X0219959Y0072330D01*
X0219903Y0072347D01*
X0219849Y0072368D01*
X0219796Y0072392D01*
X0219745Y0072419D01*
X0219695Y0072450D01*
X0219648Y0072484D01*
X0219603Y0072521D01*
X0219560Y0072560D01*
X0219521Y0072603D01*
X0219484Y0072648D01*
X0219450Y0072695D01*
X0219419Y0072744D01*
X0219392Y0072796D01*
X0219368Y0072849D01*
X0219347Y0072903D01*
X0219330Y0072959D01*
X0219317Y0073016D01*
X0219308Y0073073D01*
X0219302Y0073131D01*
X0219300Y0073189D01*
X0219300Y0074078D01*
X0213300Y0074078D02*
X0213300Y0073189D01*
X0213298Y0073131D01*
X0213292Y0073073D01*
X0213283Y0073016D01*
X0213270Y0072959D01*
X0213253Y0072903D01*
X0213232Y0072849D01*
X0213208Y0072796D01*
X0213181Y0072745D01*
X0213150Y0072695D01*
X0213116Y0072648D01*
X0213079Y0072603D01*
X0213040Y0072560D01*
X0212997Y0072521D01*
X0212952Y0072484D01*
X0212905Y0072450D01*
X0212856Y0072419D01*
X0212804Y0072392D01*
X0212751Y0072368D01*
X0212697Y0072347D01*
X0212641Y0072330D01*
X0212584Y0072317D01*
X0212527Y0072308D01*
X0212469Y0072302D01*
X0212411Y0072300D01*
X0210189Y0072300D01*
X0210131Y0072302D01*
X0210073Y0072308D01*
X0210016Y0072317D01*
X0209959Y0072330D01*
X0209903Y0072347D01*
X0209849Y0072368D01*
X0209796Y0072392D01*
X0209745Y0072419D01*
X0209695Y0072450D01*
X0209648Y0072484D01*
X0209603Y0072521D01*
X0209560Y0072560D01*
X0209521Y0072603D01*
X0209484Y0072648D01*
X0209450Y0072695D01*
X0209419Y0072744D01*
X0209392Y0072796D01*
X0209368Y0072849D01*
X0209347Y0072903D01*
X0209330Y0072959D01*
X0209317Y0073016D01*
X0209308Y0073073D01*
X0209302Y0073131D01*
X0209300Y0073189D01*
X0209300Y0074078D01*
X0210633Y0076177D02*
X0210633Y0077066D01*
X0210635Y0077116D01*
X0210640Y0077165D01*
X0210650Y0077214D01*
X0210663Y0077263D01*
X0210679Y0077310D01*
X0210699Y0077355D01*
X0210722Y0077400D01*
X0210749Y0077442D01*
X0210779Y0077482D01*
X0210811Y0077520D01*
X0210846Y0077555D01*
X0210884Y0077587D01*
X0210924Y0077617D01*
X0210967Y0077644D01*
X0211011Y0077667D01*
X0211056Y0077687D01*
X0211103Y0077703D01*
X0211152Y0077716D01*
X0211201Y0077726D01*
X0211250Y0077731D01*
X0211300Y0077733D01*
X0211300Y0077732D02*
X0213300Y0077732D01*
X0213300Y0076732D01*
X0213298Y0076676D01*
X0213292Y0076621D01*
X0213282Y0076567D01*
X0213268Y0076513D01*
X0213251Y0076460D01*
X0213230Y0076409D01*
X0213205Y0076359D01*
X0213176Y0076311D01*
X0213145Y0076266D01*
X0213110Y0076223D01*
X0213072Y0076182D01*
X0213031Y0076144D01*
X0212988Y0076109D01*
X0212943Y0076078D01*
X0212895Y0076049D01*
X0212845Y0076024D01*
X0212794Y0076003D01*
X0212741Y0075986D01*
X0212687Y0075972D01*
X0212633Y0075962D01*
X0212578Y0075956D01*
X0212522Y0075954D01*
X0212466Y0075956D01*
X0212411Y0075962D01*
X0212357Y0075972D01*
X0212303Y0075986D01*
X0212250Y0076003D01*
X0212199Y0076024D01*
X0212149Y0076049D01*
X0212101Y0076078D01*
X0212056Y0076109D01*
X0212013Y0076144D01*
X0211972Y0076182D01*
X0211934Y0076223D01*
X0211899Y0076266D01*
X0211868Y0076311D01*
X0211839Y0076359D01*
X0211814Y0076409D01*
X0211793Y0076460D01*
X0211776Y0076513D01*
X0211762Y0076567D01*
X0211752Y0076621D01*
X0211746Y0076676D01*
X0211744Y0076732D01*
X0211744Y0077732D01*
X0210633Y0080241D02*
X0210633Y0081574D01*
X0211078Y0081574D01*
X0210633Y0080241D02*
X0213300Y0080241D01*
X0212633Y0083154D02*
X0211300Y0083154D01*
X0211250Y0083156D01*
X0211201Y0083161D01*
X0211152Y0083171D01*
X0211103Y0083184D01*
X0211056Y0083200D01*
X0211011Y0083220D01*
X0210967Y0083243D01*
X0210924Y0083270D01*
X0210884Y0083300D01*
X0210846Y0083332D01*
X0210811Y0083367D01*
X0210779Y0083405D01*
X0210749Y0083445D01*
X0210722Y0083488D01*
X0210699Y0083532D01*
X0210679Y0083577D01*
X0210663Y0083624D01*
X0210650Y0083673D01*
X0210640Y0083722D01*
X0210635Y0083771D01*
X0210633Y0083821D01*
X0210633Y0084932D01*
X0209300Y0084932D02*
X0213300Y0084932D01*
X0213300Y0083821D01*
X0213298Y0083771D01*
X0213293Y0083722D01*
X0213283Y0083673D01*
X0213270Y0083624D01*
X0213254Y0083577D01*
X0213234Y0083532D01*
X0213211Y0083488D01*
X0213184Y0083445D01*
X0213154Y0083405D01*
X0213122Y0083367D01*
X0213087Y0083332D01*
X0213049Y0083300D01*
X0213009Y0083270D01*
X0212967Y0083243D01*
X0212922Y0083220D01*
X0212877Y0083200D01*
X0212830Y0083184D01*
X0212781Y0083171D01*
X0212732Y0083161D01*
X0212683Y0083156D01*
X0212633Y0083154D01*
X0212411Y0089700D02*
X0210189Y0089700D01*
X0210131Y0089702D01*
X0210073Y0089708D01*
X0210016Y0089717D01*
X0209959Y0089730D01*
X0209903Y0089747D01*
X0209849Y0089768D01*
X0209796Y0089792D01*
X0209745Y0089819D01*
X0209695Y0089850D01*
X0209648Y0089884D01*
X0209603Y0089921D01*
X0209560Y0089960D01*
X0209521Y0090003D01*
X0209484Y0090048D01*
X0209450Y0090095D01*
X0209419Y0090144D01*
X0209392Y0090196D01*
X0209368Y0090249D01*
X0209347Y0090303D01*
X0209330Y0090359D01*
X0209317Y0090416D01*
X0209308Y0090473D01*
X0209302Y0090531D01*
X0209300Y0090589D01*
X0209300Y0091478D01*
X0210967Y0093878D02*
X0211633Y0095101D01*
X0213300Y0094656D02*
X0213298Y0094574D01*
X0213293Y0094491D01*
X0213284Y0094410D01*
X0213271Y0094328D01*
X0213255Y0094247D01*
X0213235Y0094167D01*
X0213212Y0094088D01*
X0213186Y0094010D01*
X0213156Y0093934D01*
X0213122Y0093858D01*
X0213086Y0093785D01*
X0213046Y0093712D01*
X0213003Y0093642D01*
X0212957Y0093574D01*
X0212908Y0093508D01*
X0212856Y0093444D01*
X0212802Y0093382D01*
X0212744Y0093323D01*
X0211633Y0095100D02*
X0211664Y0095150D01*
X0211699Y0095197D01*
X0211736Y0095242D01*
X0211777Y0095285D01*
X0211820Y0095325D01*
X0211865Y0095361D01*
X0211913Y0095395D01*
X0211963Y0095426D01*
X0212015Y0095453D01*
X0212068Y0095477D01*
X0212123Y0095498D01*
X0212179Y0095515D01*
X0212236Y0095528D01*
X0212294Y0095537D01*
X0212352Y0095543D01*
X0212411Y0095545D01*
X0212469Y0095543D01*
X0212527Y0095537D01*
X0212584Y0095528D01*
X0212641Y0095515D01*
X0212697Y0095498D01*
X0212751Y0095477D01*
X0212804Y0095453D01*
X0212856Y0095426D01*
X0212905Y0095395D01*
X0212952Y0095361D01*
X0212997Y0095324D01*
X0213040Y0095285D01*
X0213079Y0095242D01*
X0213116Y0095197D01*
X0213150Y0095150D01*
X0213181Y0095101D01*
X0213208Y0095049D01*
X0213232Y0094996D01*
X0213253Y0094942D01*
X0213270Y0094886D01*
X0213283Y0094829D01*
X0213292Y0094772D01*
X0213298Y0094714D01*
X0213300Y0094656D01*
X0209633Y0095323D02*
X0209589Y0095261D01*
X0209547Y0095197D01*
X0209509Y0095130D01*
X0209473Y0095063D01*
X0209441Y0094993D01*
X0209411Y0094922D01*
X0209386Y0094850D01*
X0209363Y0094777D01*
X0209344Y0094703D01*
X0209328Y0094628D01*
X0209316Y0094552D01*
X0209307Y0094476D01*
X0209302Y0094400D01*
X0209300Y0094323D01*
X0209302Y0094265D01*
X0209308Y0094207D01*
X0209317Y0094150D01*
X0209330Y0094093D01*
X0209347Y0094037D01*
X0209368Y0093983D01*
X0209392Y0093930D01*
X0209419Y0093879D01*
X0209450Y0093829D01*
X0209484Y0093782D01*
X0209521Y0093737D01*
X0209560Y0093694D01*
X0209603Y0093655D01*
X0209648Y0093618D01*
X0209695Y0093584D01*
X0209745Y0093553D01*
X0209796Y0093526D01*
X0209849Y0093502D01*
X0209903Y0093481D01*
X0209959Y0093464D01*
X0210016Y0093451D01*
X0210073Y0093442D01*
X0210131Y0093436D01*
X0210189Y0093434D01*
X0210248Y0093436D01*
X0210306Y0093442D01*
X0210364Y0093451D01*
X0210421Y0093464D01*
X0210477Y0093481D01*
X0210532Y0093502D01*
X0210585Y0093526D01*
X0210637Y0093553D01*
X0210687Y0093584D01*
X0210735Y0093618D01*
X0210780Y0093654D01*
X0210823Y0093694D01*
X0210864Y0093737D01*
X0210901Y0093782D01*
X0210936Y0093829D01*
X0210967Y0093879D01*
X0213300Y0091478D02*
X0213300Y0090589D01*
X0213298Y0090531D01*
X0213292Y0090473D01*
X0213283Y0090416D01*
X0213270Y0090359D01*
X0213253Y0090303D01*
X0213232Y0090249D01*
X0213208Y0090196D01*
X0213181Y0090145D01*
X0213150Y0090095D01*
X0213116Y0090048D01*
X0213079Y0090003D01*
X0213040Y0089960D01*
X0212997Y0089921D01*
X0212952Y0089884D01*
X0212905Y0089850D01*
X0212856Y0089819D01*
X0212804Y0089792D01*
X0212751Y0089768D01*
X0212697Y0089747D01*
X0212641Y0089730D01*
X0212584Y0089717D01*
X0212527Y0089708D01*
X0212469Y0089702D01*
X0212411Y0089700D01*
X0202745Y0082522D02*
X0202798Y0082501D01*
X0202849Y0082478D01*
X0202899Y0082450D01*
X0202946Y0082420D01*
X0202992Y0082386D01*
X0203035Y0082349D01*
X0203075Y0082309D01*
X0203112Y0082267D01*
X0203147Y0082222D01*
X0203178Y0082175D01*
X0203206Y0082125D01*
X0203231Y0082074D01*
X0203252Y0082022D01*
X0203269Y0081968D01*
X0203282Y0081913D01*
X0203292Y0081857D01*
X0203298Y0081801D01*
X0203300Y0081744D01*
X0203298Y0081687D01*
X0203292Y0081631D01*
X0203282Y0081575D01*
X0203269Y0081520D01*
X0203252Y0081466D01*
X0203231Y0081414D01*
X0203206Y0081363D01*
X0203178Y0081313D01*
X0203147Y0081266D01*
X0203112Y0081221D01*
X0203075Y0081179D01*
X0203035Y0081139D01*
X0202992Y0081102D01*
X0202946Y0081068D01*
X0202899Y0081038D01*
X0202849Y0081010D01*
X0202798Y0080987D01*
X0202745Y0080966D01*
X0202411Y0080856D02*
X0200189Y0082633D01*
X0199855Y0082522D02*
X0199803Y0082501D01*
X0199751Y0082478D01*
X0199701Y0082450D01*
X0199654Y0082420D01*
X0199608Y0082386D01*
X0199565Y0082349D01*
X0199525Y0082309D01*
X0199488Y0082267D01*
X0199453Y0082222D01*
X0199422Y0082175D01*
X0199394Y0082125D01*
X0199369Y0082074D01*
X0199348Y0082022D01*
X0199331Y0081968D01*
X0199318Y0081913D01*
X0199308Y0081857D01*
X0199302Y0081801D01*
X0199300Y0081744D01*
X0199302Y0081687D01*
X0199308Y0081631D01*
X0199318Y0081575D01*
X0199331Y0081520D01*
X0199348Y0081466D01*
X0199369Y0081414D01*
X0199394Y0081363D01*
X0199422Y0081313D01*
X0199453Y0081266D01*
X0199488Y0081221D01*
X0199525Y0081179D01*
X0199565Y0081139D01*
X0199608Y0081102D01*
X0199654Y0081068D01*
X0199701Y0081038D01*
X0199751Y0081010D01*
X0199803Y0080987D01*
X0199855Y0080966D01*
X0199856Y0082522D02*
X0199952Y0082567D01*
X0200051Y0082609D01*
X0200150Y0082648D01*
X0200251Y0082683D01*
X0200352Y0082716D01*
X0200455Y0082745D01*
X0200559Y0082771D01*
X0200663Y0082793D01*
X0200768Y0082812D01*
X0200874Y0082827D01*
X0200980Y0082839D01*
X0201087Y0082848D01*
X0201193Y0082853D01*
X0201300Y0082855D01*
X0201300Y0080634D02*
X0201193Y0080636D01*
X0201087Y0080641D01*
X0200980Y0080650D01*
X0200874Y0080662D01*
X0200768Y0080677D01*
X0200663Y0080696D01*
X0200559Y0080718D01*
X0200455Y0080744D01*
X0200352Y0080773D01*
X0200251Y0080805D01*
X0200150Y0080841D01*
X0200051Y0080880D01*
X0199952Y0080922D01*
X0199856Y0080967D01*
X0201300Y0082855D02*
X0201407Y0082853D01*
X0201513Y0082848D01*
X0201620Y0082839D01*
X0201726Y0082827D01*
X0201832Y0082812D01*
X0201937Y0082793D01*
X0202041Y0082771D01*
X0202145Y0082745D01*
X0202248Y0082716D01*
X0202349Y0082683D01*
X0202450Y0082648D01*
X0202549Y0082609D01*
X0202648Y0082567D01*
X0202744Y0082522D01*
X0202744Y0080967D02*
X0202648Y0080922D01*
X0202549Y0080880D01*
X0202450Y0080841D01*
X0202349Y0080805D01*
X0202248Y0080773D01*
X0202145Y0080744D01*
X0202041Y0080718D01*
X0201937Y0080696D01*
X0201832Y0080677D01*
X0201726Y0080662D01*
X0201620Y0080650D01*
X0201513Y0080641D01*
X0201407Y0080636D01*
X0201300Y0080634D01*
X0199300Y0078128D02*
X0203300Y0078128D01*
X0201522Y0076794D02*
X0199300Y0078128D01*
X0201522Y0076794D02*
X0199300Y0075461D01*
X0203300Y0075461D01*
X0203300Y0073189D02*
X0203300Y0072300D01*
X0203300Y0072744D02*
X0199300Y0072744D01*
X0199300Y0072300D02*
X0199300Y0073189D01*
X0193300Y0073189D02*
X0193300Y0072300D01*
X0193300Y0072744D02*
X0189300Y0072744D01*
X0189300Y0072300D02*
X0189300Y0073189D01*
X0189300Y0075461D02*
X0191522Y0076794D01*
X0189300Y0078128D01*
X0193300Y0078128D01*
X0193300Y0080633D02*
X0193300Y0082856D01*
X0193300Y0081744D02*
X0189300Y0081744D01*
X0190189Y0080633D01*
X0189300Y0075461D02*
X0193300Y0075461D01*
X0183300Y0075383D02*
X0179300Y0075383D01*
X0183300Y0077606D01*
X0179300Y0077606D01*
X0181078Y0081922D02*
X0181034Y0081965D01*
X0180987Y0082007D01*
X0180938Y0082045D01*
X0180887Y0082080D01*
X0180834Y0082113D01*
X0180779Y0082142D01*
X0180723Y0082168D01*
X0180665Y0082191D01*
X0180606Y0082210D01*
X0180546Y0082226D01*
X0180485Y0082239D01*
X0180424Y0082248D01*
X0180362Y0082253D01*
X0180300Y0082255D01*
X0181078Y0081922D02*
X0183300Y0080033D01*
X0183300Y0082256D01*
X0180189Y0080034D02*
X0180123Y0080057D01*
X0180058Y0080084D01*
X0179995Y0080115D01*
X0179933Y0080149D01*
X0179874Y0080186D01*
X0179816Y0080226D01*
X0179761Y0080270D01*
X0179709Y0080316D01*
X0179658Y0080366D01*
X0179611Y0080418D01*
X0179567Y0080472D01*
X0179526Y0080529D01*
X0179487Y0080588D01*
X0179452Y0080649D01*
X0179421Y0080712D01*
X0179393Y0080776D01*
X0179369Y0080842D01*
X0179348Y0080909D01*
X0179331Y0080977D01*
X0179317Y0081046D01*
X0179308Y0081116D01*
X0179302Y0081186D01*
X0179300Y0081256D01*
X0179302Y0081316D01*
X0179307Y0081377D01*
X0179316Y0081436D01*
X0179329Y0081495D01*
X0179345Y0081554D01*
X0179365Y0081611D01*
X0179388Y0081666D01*
X0179415Y0081721D01*
X0179444Y0081773D01*
X0179477Y0081824D01*
X0179513Y0081873D01*
X0179551Y0081919D01*
X0179593Y0081963D01*
X0179637Y0082005D01*
X0179683Y0082043D01*
X0179732Y0082079D01*
X0179783Y0082112D01*
X0179835Y0082141D01*
X0179890Y0082168D01*
X0179945Y0082191D01*
X0180002Y0082211D01*
X0180061Y0082227D01*
X0180120Y0082240D01*
X0180179Y0082249D01*
X0180240Y0082254D01*
X0180300Y0082256D01*
X0179300Y0073189D02*
X0179300Y0072300D01*
X0179300Y0072744D02*
X0183300Y0072744D01*
X0183300Y0072300D02*
X0183300Y0073189D01*
X0173300Y0073189D02*
X0173300Y0072300D01*
X0173300Y0072744D02*
X0169300Y0072744D01*
X0169300Y0072300D02*
X0169300Y0073189D01*
X0169300Y0075461D02*
X0171522Y0076794D01*
X0169300Y0078128D01*
X0173300Y0078128D01*
X0173300Y0080633D02*
X0173300Y0081744D01*
X0173298Y0081810D01*
X0173292Y0081875D01*
X0173282Y0081941D01*
X0173269Y0082005D01*
X0173252Y0082068D01*
X0173230Y0082131D01*
X0173206Y0082192D01*
X0173177Y0082251D01*
X0173146Y0082309D01*
X0173110Y0082365D01*
X0173072Y0082418D01*
X0173031Y0082469D01*
X0172986Y0082518D01*
X0172939Y0082564D01*
X0172889Y0082607D01*
X0172837Y0082647D01*
X0172782Y0082683D01*
X0172725Y0082717D01*
X0172667Y0082747D01*
X0172607Y0082774D01*
X0172545Y0082796D01*
X0172482Y0082816D01*
X0172418Y0082831D01*
X0172353Y0082843D01*
X0172288Y0082851D01*
X0172222Y0082855D01*
X0172156Y0082855D01*
X0172090Y0082851D01*
X0172025Y0082843D01*
X0171960Y0082831D01*
X0171896Y0082816D01*
X0171833Y0082796D01*
X0171771Y0082774D01*
X0171711Y0082747D01*
X0171653Y0082717D01*
X0171596Y0082683D01*
X0171541Y0082647D01*
X0171489Y0082607D01*
X0171439Y0082564D01*
X0171392Y0082518D01*
X0171347Y0082469D01*
X0171306Y0082418D01*
X0171268Y0082365D01*
X0171232Y0082309D01*
X0171201Y0082251D01*
X0171172Y0082192D01*
X0171148Y0082131D01*
X0171126Y0082068D01*
X0171109Y0082005D01*
X0171096Y0081941D01*
X0171086Y0081875D01*
X0171080Y0081810D01*
X0171078Y0081744D01*
X0171078Y0081967D02*
X0171078Y0081078D01*
X0171078Y0081967D02*
X0171076Y0082025D01*
X0171070Y0082083D01*
X0171061Y0082140D01*
X0171048Y0082197D01*
X0171031Y0082253D01*
X0171010Y0082307D01*
X0170986Y0082360D01*
X0170959Y0082412D01*
X0170928Y0082461D01*
X0170894Y0082508D01*
X0170857Y0082553D01*
X0170818Y0082596D01*
X0170775Y0082635D01*
X0170730Y0082672D01*
X0170683Y0082706D01*
X0170634Y0082737D01*
X0170582Y0082764D01*
X0170529Y0082788D01*
X0170475Y0082809D01*
X0170419Y0082826D01*
X0170362Y0082839D01*
X0170305Y0082848D01*
X0170247Y0082854D01*
X0170189Y0082856D01*
X0170131Y0082854D01*
X0170073Y0082848D01*
X0170016Y0082839D01*
X0169959Y0082826D01*
X0169903Y0082809D01*
X0169849Y0082788D01*
X0169796Y0082764D01*
X0169745Y0082737D01*
X0169695Y0082706D01*
X0169648Y0082672D01*
X0169603Y0082635D01*
X0169560Y0082596D01*
X0169521Y0082553D01*
X0169484Y0082508D01*
X0169450Y0082461D01*
X0169419Y0082412D01*
X0169392Y0082360D01*
X0169368Y0082307D01*
X0169347Y0082253D01*
X0169330Y0082197D01*
X0169317Y0082140D01*
X0169308Y0082083D01*
X0169302Y0082025D01*
X0169300Y0081967D01*
X0169300Y0080633D01*
X0169300Y0075461D02*
X0173300Y0075461D01*
X0163300Y0074967D02*
X0159300Y0072300D01*
X0159300Y0074967D02*
X0163300Y0072300D01*
X0161744Y0077100D02*
X0161744Y0079767D01*
X0151744Y0079767D02*
X0151744Y0077100D01*
X0149300Y0074967D02*
X0151189Y0073633D01*
X0153300Y0073633D01*
X0151189Y0073633D02*
X0149300Y0072300D01*
X0143300Y0072300D02*
X0139300Y0074967D01*
X0139300Y0072300D02*
X0143300Y0074967D01*
X0141744Y0077100D02*
X0141744Y0079767D01*
X0140411Y0078433D02*
X0143078Y0078433D01*
X0133078Y0078433D02*
X0130411Y0078433D01*
X0131744Y0077100D02*
X0131744Y0079767D01*
X0129300Y0074967D02*
X0131189Y0073633D01*
X0133300Y0073633D01*
X0131189Y0073633D02*
X0129300Y0072300D01*
X0123300Y0072300D02*
X0123300Y0074078D01*
X0123300Y0075796D02*
X0120633Y0075796D01*
X0119522Y0075907D02*
X0119522Y0075684D01*
X0119300Y0075684D01*
X0119300Y0075907D01*
X0119522Y0075907D01*
X0120633Y0077315D02*
X0120633Y0078649D01*
X0119300Y0077760D02*
X0122633Y0077760D01*
X0122633Y0077759D02*
X0122683Y0077761D01*
X0122732Y0077766D01*
X0122781Y0077776D01*
X0122830Y0077789D01*
X0122877Y0077805D01*
X0122922Y0077825D01*
X0122967Y0077848D01*
X0123009Y0077875D01*
X0123049Y0077905D01*
X0123087Y0077937D01*
X0123122Y0077972D01*
X0123154Y0078010D01*
X0123184Y0078050D01*
X0123211Y0078093D01*
X0123234Y0078137D01*
X0123254Y0078182D01*
X0123270Y0078229D01*
X0123283Y0078278D01*
X0123293Y0078327D01*
X0123298Y0078376D01*
X0123300Y0078426D01*
X0123300Y0078649D01*
X0122633Y0080607D02*
X0121522Y0080607D01*
X0121967Y0080607D02*
X0121967Y0082384D01*
X0121522Y0082384D01*
X0121522Y0082385D02*
X0121464Y0082383D01*
X0121406Y0082377D01*
X0121349Y0082368D01*
X0121292Y0082355D01*
X0121236Y0082338D01*
X0121182Y0082317D01*
X0121129Y0082293D01*
X0121078Y0082266D01*
X0121028Y0082235D01*
X0120981Y0082201D01*
X0120936Y0082164D01*
X0120893Y0082125D01*
X0120854Y0082082D01*
X0120817Y0082037D01*
X0120783Y0081990D01*
X0120752Y0081941D01*
X0120725Y0081889D01*
X0120701Y0081836D01*
X0120680Y0081782D01*
X0120663Y0081726D01*
X0120650Y0081669D01*
X0120641Y0081612D01*
X0120635Y0081554D01*
X0120633Y0081496D01*
X0120635Y0081438D01*
X0120641Y0081380D01*
X0120650Y0081323D01*
X0120663Y0081266D01*
X0120680Y0081210D01*
X0120701Y0081156D01*
X0120725Y0081103D01*
X0120752Y0081052D01*
X0120783Y0081002D01*
X0120817Y0080955D01*
X0120854Y0080910D01*
X0120893Y0080867D01*
X0120936Y0080828D01*
X0120981Y0080791D01*
X0121028Y0080757D01*
X0121078Y0080726D01*
X0121129Y0080699D01*
X0121182Y0080675D01*
X0121236Y0080654D01*
X0121292Y0080637D01*
X0121349Y0080624D01*
X0121406Y0080615D01*
X0121464Y0080609D01*
X0121522Y0080607D01*
X0122633Y0080606D02*
X0122683Y0080608D01*
X0122732Y0080613D01*
X0122781Y0080623D01*
X0122830Y0080636D01*
X0122877Y0080652D01*
X0122922Y0080672D01*
X0122967Y0080695D01*
X0123009Y0080722D01*
X0123049Y0080752D01*
X0123087Y0080784D01*
X0123122Y0080819D01*
X0123154Y0080857D01*
X0123184Y0080897D01*
X0123211Y0080940D01*
X0123234Y0080984D01*
X0123254Y0081029D01*
X0123270Y0081076D01*
X0123283Y0081125D01*
X0123293Y0081174D01*
X0123298Y0081223D01*
X0123300Y0081273D01*
X0123300Y0082384D01*
X0123300Y0072300D02*
X0119300Y0072300D01*
X0113300Y0072300D02*
X0109300Y0072300D01*
X0109300Y0073411D01*
X0109302Y0073477D01*
X0109308Y0073542D01*
X0109318Y0073608D01*
X0109331Y0073672D01*
X0109348Y0073735D01*
X0109370Y0073798D01*
X0109394Y0073859D01*
X0109423Y0073918D01*
X0109454Y0073976D01*
X0109490Y0074032D01*
X0109528Y0074085D01*
X0109569Y0074136D01*
X0109614Y0074185D01*
X0109661Y0074231D01*
X0109711Y0074274D01*
X0109763Y0074314D01*
X0109818Y0074350D01*
X0109875Y0074384D01*
X0109933Y0074414D01*
X0109993Y0074441D01*
X0110055Y0074463D01*
X0110118Y0074483D01*
X0110182Y0074498D01*
X0110247Y0074510D01*
X0110312Y0074518D01*
X0110378Y0074522D01*
X0110444Y0074522D01*
X0110510Y0074518D01*
X0110575Y0074510D01*
X0110640Y0074498D01*
X0110704Y0074483D01*
X0110767Y0074463D01*
X0110829Y0074441D01*
X0110889Y0074414D01*
X0110947Y0074384D01*
X0111004Y0074350D01*
X0111059Y0074314D01*
X0111111Y0074274D01*
X0111161Y0074231D01*
X0111208Y0074185D01*
X0111253Y0074136D01*
X0111294Y0074085D01*
X0111332Y0074032D01*
X0111368Y0073976D01*
X0111399Y0073918D01*
X0111428Y0073859D01*
X0111452Y0073798D01*
X0111474Y0073735D01*
X0111491Y0073672D01*
X0111504Y0073608D01*
X0111514Y0073542D01*
X0111520Y0073477D01*
X0111522Y0073411D01*
X0111522Y0072300D01*
X0111522Y0073633D02*
X0113300Y0074522D01*
X0111633Y0078377D02*
X0111664Y0078427D01*
X0111699Y0078474D01*
X0111736Y0078519D01*
X0111777Y0078562D01*
X0111820Y0078602D01*
X0111865Y0078638D01*
X0111913Y0078672D01*
X0111963Y0078703D01*
X0112015Y0078730D01*
X0112068Y0078754D01*
X0112123Y0078775D01*
X0112179Y0078792D01*
X0112236Y0078805D01*
X0112294Y0078814D01*
X0112352Y0078820D01*
X0112411Y0078822D01*
X0112469Y0078820D01*
X0112527Y0078814D01*
X0112584Y0078805D01*
X0112641Y0078792D01*
X0112697Y0078775D01*
X0112751Y0078754D01*
X0112804Y0078730D01*
X0112856Y0078703D01*
X0112905Y0078672D01*
X0112952Y0078638D01*
X0112997Y0078601D01*
X0113040Y0078562D01*
X0113079Y0078519D01*
X0113116Y0078474D01*
X0113150Y0078427D01*
X0113181Y0078378D01*
X0113208Y0078326D01*
X0113232Y0078273D01*
X0113253Y0078219D01*
X0113270Y0078163D01*
X0113283Y0078106D01*
X0113292Y0078049D01*
X0113298Y0077991D01*
X0113300Y0077933D01*
X0111633Y0078377D02*
X0110967Y0077155D01*
X0109300Y0077599D02*
X0109302Y0077676D01*
X0109307Y0077752D01*
X0109316Y0077828D01*
X0109328Y0077904D01*
X0109344Y0077979D01*
X0109363Y0078053D01*
X0109386Y0078126D01*
X0109411Y0078198D01*
X0109441Y0078269D01*
X0109473Y0078339D01*
X0109509Y0078406D01*
X0109547Y0078473D01*
X0109589Y0078537D01*
X0109633Y0078599D01*
X0110967Y0077155D02*
X0110936Y0077105D01*
X0110901Y0077058D01*
X0110864Y0077013D01*
X0110823Y0076970D01*
X0110780Y0076930D01*
X0110735Y0076894D01*
X0110687Y0076860D01*
X0110637Y0076829D01*
X0110585Y0076802D01*
X0110532Y0076778D01*
X0110477Y0076757D01*
X0110421Y0076740D01*
X0110364Y0076727D01*
X0110306Y0076718D01*
X0110248Y0076712D01*
X0110189Y0076710D01*
X0110131Y0076712D01*
X0110073Y0076718D01*
X0110016Y0076727D01*
X0109959Y0076740D01*
X0109903Y0076757D01*
X0109849Y0076778D01*
X0109796Y0076802D01*
X0109745Y0076829D01*
X0109695Y0076860D01*
X0109648Y0076894D01*
X0109603Y0076931D01*
X0109560Y0076970D01*
X0109521Y0077013D01*
X0109484Y0077058D01*
X0109450Y0077105D01*
X0109419Y0077155D01*
X0109392Y0077206D01*
X0109368Y0077259D01*
X0109347Y0077313D01*
X0109330Y0077369D01*
X0109317Y0077426D01*
X0109308Y0077483D01*
X0109302Y0077541D01*
X0109300Y0077599D01*
X0112744Y0076600D02*
X0112802Y0076659D01*
X0112856Y0076721D01*
X0112908Y0076785D01*
X0112957Y0076851D01*
X0113003Y0076919D01*
X0113046Y0076989D01*
X0113086Y0077062D01*
X0113122Y0077135D01*
X0113156Y0077211D01*
X0113186Y0077287D01*
X0113212Y0077365D01*
X0113235Y0077444D01*
X0113255Y0077524D01*
X0113271Y0077605D01*
X0113284Y0077687D01*
X0113293Y0077768D01*
X0113298Y0077851D01*
X0113300Y0077933D01*
X0113300Y0081760D02*
X0109300Y0081760D01*
X0109300Y0080649D02*
X0109300Y0082871D01*
X0103744Y0076722D02*
X0098856Y0078500D01*
X0100189Y0080527D02*
X0102411Y0080527D01*
X0102469Y0080529D01*
X0102527Y0080535D01*
X0102584Y0080544D01*
X0102641Y0080557D01*
X0102697Y0080574D01*
X0102751Y0080595D01*
X0102804Y0080619D01*
X0102856Y0080646D01*
X0102905Y0080677D01*
X0102952Y0080711D01*
X0102997Y0080748D01*
X0103040Y0080787D01*
X0103079Y0080830D01*
X0103116Y0080875D01*
X0103150Y0080922D01*
X0103181Y0080972D01*
X0103208Y0081023D01*
X0103232Y0081076D01*
X0103253Y0081130D01*
X0103270Y0081186D01*
X0103283Y0081243D01*
X0103292Y0081300D01*
X0103298Y0081358D01*
X0103300Y0081416D01*
X0103300Y0082305D01*
X0100189Y0080527D02*
X0100131Y0080529D01*
X0100073Y0080535D01*
X0100016Y0080544D01*
X0099959Y0080557D01*
X0099903Y0080574D01*
X0099849Y0080595D01*
X0099796Y0080619D01*
X0099745Y0080646D01*
X0099695Y0080677D01*
X0099648Y0080711D01*
X0099603Y0080748D01*
X0099560Y0080787D01*
X0099521Y0080830D01*
X0099484Y0080875D01*
X0099450Y0080922D01*
X0099419Y0080971D01*
X0099392Y0081023D01*
X0099368Y0081076D01*
X0099347Y0081130D01*
X0099330Y0081186D01*
X0099317Y0081243D01*
X0099308Y0081300D01*
X0099302Y0081358D01*
X0099300Y0081416D01*
X0099300Y0082305D01*
X0100411Y0074522D02*
X0102189Y0074522D01*
X0102254Y0074520D01*
X0102318Y0074514D01*
X0102382Y0074505D01*
X0102445Y0074492D01*
X0102508Y0074475D01*
X0102569Y0074455D01*
X0102629Y0074431D01*
X0102688Y0074404D01*
X0102745Y0074373D01*
X0102800Y0074339D01*
X0102852Y0074302D01*
X0102903Y0074262D01*
X0102951Y0074219D01*
X0102997Y0074173D01*
X0103040Y0074125D01*
X0103080Y0074074D01*
X0103117Y0074022D01*
X0103151Y0073967D01*
X0103182Y0073910D01*
X0103209Y0073851D01*
X0103233Y0073791D01*
X0103253Y0073730D01*
X0103270Y0073667D01*
X0103283Y0073604D01*
X0103292Y0073540D01*
X0103298Y0073476D01*
X0103300Y0073411D01*
X0103300Y0072300D01*
X0099300Y0072300D01*
X0099300Y0073411D01*
X0099302Y0073476D01*
X0099308Y0073540D01*
X0099317Y0073604D01*
X0099330Y0073667D01*
X0099347Y0073730D01*
X0099367Y0073791D01*
X0099391Y0073851D01*
X0099418Y0073910D01*
X0099449Y0073967D01*
X0099483Y0074022D01*
X0099520Y0074074D01*
X0099560Y0074125D01*
X0099603Y0074173D01*
X0099649Y0074219D01*
X0099697Y0074262D01*
X0099748Y0074302D01*
X0099801Y0074339D01*
X0099856Y0074373D01*
X0099912Y0074404D01*
X0099971Y0074431D01*
X0100031Y0074455D01*
X0100092Y0074475D01*
X0100155Y0074492D01*
X0100218Y0074505D01*
X0100282Y0074514D01*
X0100346Y0074520D01*
X0100411Y0074522D01*
X0093300Y0074078D02*
X0093300Y0073189D01*
X0093298Y0073131D01*
X0093292Y0073073D01*
X0093283Y0073016D01*
X0093270Y0072959D01*
X0093253Y0072903D01*
X0093232Y0072849D01*
X0093208Y0072796D01*
X0093181Y0072745D01*
X0093150Y0072695D01*
X0093116Y0072648D01*
X0093079Y0072603D01*
X0093040Y0072560D01*
X0092997Y0072521D01*
X0092952Y0072484D01*
X0092905Y0072450D01*
X0092856Y0072419D01*
X0092804Y0072392D01*
X0092751Y0072368D01*
X0092697Y0072347D01*
X0092641Y0072330D01*
X0092584Y0072317D01*
X0092527Y0072308D01*
X0092469Y0072302D01*
X0092411Y0072300D01*
X0090189Y0072300D01*
X0090131Y0072302D01*
X0090073Y0072308D01*
X0090016Y0072317D01*
X0089959Y0072330D01*
X0089903Y0072347D01*
X0089849Y0072368D01*
X0089796Y0072392D01*
X0089745Y0072419D01*
X0089695Y0072450D01*
X0089648Y0072484D01*
X0089603Y0072521D01*
X0089560Y0072560D01*
X0089521Y0072603D01*
X0089484Y0072648D01*
X0089450Y0072695D01*
X0089419Y0072744D01*
X0089392Y0072796D01*
X0089368Y0072849D01*
X0089347Y0072903D01*
X0089330Y0072959D01*
X0089317Y0073016D01*
X0089308Y0073073D01*
X0089302Y0073131D01*
X0089300Y0073189D01*
X0089300Y0074078D01*
X0090967Y0076478D02*
X0091633Y0077701D01*
X0093300Y0077256D02*
X0093298Y0077174D01*
X0093293Y0077091D01*
X0093284Y0077010D01*
X0093271Y0076928D01*
X0093255Y0076847D01*
X0093235Y0076767D01*
X0093212Y0076688D01*
X0093186Y0076610D01*
X0093156Y0076534D01*
X0093122Y0076458D01*
X0093086Y0076385D01*
X0093046Y0076312D01*
X0093003Y0076242D01*
X0092957Y0076174D01*
X0092908Y0076108D01*
X0092856Y0076044D01*
X0092802Y0075982D01*
X0092744Y0075923D01*
X0091633Y0077700D02*
X0091664Y0077750D01*
X0091699Y0077797D01*
X0091736Y0077842D01*
X0091777Y0077885D01*
X0091820Y0077925D01*
X0091865Y0077961D01*
X0091913Y0077995D01*
X0091963Y0078026D01*
X0092015Y0078053D01*
X0092068Y0078077D01*
X0092123Y0078098D01*
X0092179Y0078115D01*
X0092236Y0078128D01*
X0092294Y0078137D01*
X0092352Y0078143D01*
X0092411Y0078145D01*
X0092469Y0078143D01*
X0092527Y0078137D01*
X0092584Y0078128D01*
X0092641Y0078115D01*
X0092697Y0078098D01*
X0092751Y0078077D01*
X0092804Y0078053D01*
X0092856Y0078026D01*
X0092905Y0077995D01*
X0092952Y0077961D01*
X0092997Y0077924D01*
X0093040Y0077885D01*
X0093079Y0077842D01*
X0093116Y0077797D01*
X0093150Y0077750D01*
X0093181Y0077701D01*
X0093208Y0077649D01*
X0093232Y0077596D01*
X0093253Y0077542D01*
X0093270Y0077486D01*
X0093283Y0077429D01*
X0093292Y0077372D01*
X0093298Y0077314D01*
X0093300Y0077256D01*
X0089633Y0077923D02*
X0089589Y0077861D01*
X0089547Y0077797D01*
X0089509Y0077730D01*
X0089473Y0077663D01*
X0089441Y0077593D01*
X0089411Y0077522D01*
X0089386Y0077450D01*
X0089363Y0077377D01*
X0089344Y0077303D01*
X0089328Y0077228D01*
X0089316Y0077152D01*
X0089307Y0077076D01*
X0089302Y0077000D01*
X0089300Y0076923D01*
X0089302Y0076865D01*
X0089308Y0076807D01*
X0089317Y0076750D01*
X0089330Y0076693D01*
X0089347Y0076637D01*
X0089368Y0076583D01*
X0089392Y0076530D01*
X0089419Y0076479D01*
X0089450Y0076429D01*
X0089484Y0076382D01*
X0089521Y0076337D01*
X0089560Y0076294D01*
X0089603Y0076255D01*
X0089648Y0076218D01*
X0089695Y0076184D01*
X0089745Y0076153D01*
X0089796Y0076126D01*
X0089849Y0076102D01*
X0089903Y0076081D01*
X0089959Y0076064D01*
X0090016Y0076051D01*
X0090073Y0076042D01*
X0090131Y0076036D01*
X0090189Y0076034D01*
X0090248Y0076036D01*
X0090306Y0076042D01*
X0090364Y0076051D01*
X0090421Y0076064D01*
X0090477Y0076081D01*
X0090532Y0076102D01*
X0090585Y0076126D01*
X0090637Y0076153D01*
X0090687Y0076184D01*
X0090735Y0076218D01*
X0090780Y0076254D01*
X0090823Y0076294D01*
X0090864Y0076337D01*
X0090901Y0076382D01*
X0090936Y0076429D01*
X0090967Y0076479D01*
X0083300Y0074967D02*
X0079300Y0074967D01*
X0081522Y0073633D01*
X0079300Y0072300D01*
X0083300Y0072300D01*
X0082189Y0077472D02*
X0080411Y0077472D01*
X0080345Y0077474D01*
X0080280Y0077480D01*
X0080214Y0077490D01*
X0080150Y0077503D01*
X0080087Y0077520D01*
X0080024Y0077542D01*
X0079963Y0077566D01*
X0079904Y0077595D01*
X0079846Y0077626D01*
X0079790Y0077662D01*
X0079737Y0077700D01*
X0079686Y0077741D01*
X0079637Y0077786D01*
X0079591Y0077833D01*
X0079548Y0077883D01*
X0079508Y0077935D01*
X0079472Y0077990D01*
X0079438Y0078047D01*
X0079408Y0078105D01*
X0079381Y0078165D01*
X0079359Y0078227D01*
X0079339Y0078290D01*
X0079324Y0078354D01*
X0079312Y0078419D01*
X0079304Y0078484D01*
X0079300Y0078550D01*
X0079300Y0078616D01*
X0079304Y0078682D01*
X0079312Y0078747D01*
X0079324Y0078812D01*
X0079339Y0078876D01*
X0079359Y0078939D01*
X0079381Y0079001D01*
X0079408Y0079061D01*
X0079438Y0079119D01*
X0079472Y0079176D01*
X0079508Y0079231D01*
X0079548Y0079283D01*
X0079591Y0079333D01*
X0079637Y0079380D01*
X0079686Y0079425D01*
X0079737Y0079466D01*
X0079790Y0079504D01*
X0079846Y0079540D01*
X0079904Y0079571D01*
X0079963Y0079600D01*
X0080024Y0079624D01*
X0080087Y0079646D01*
X0080150Y0079663D01*
X0080214Y0079676D01*
X0080280Y0079686D01*
X0080345Y0079692D01*
X0080411Y0079694D01*
X0082189Y0079694D01*
X0082255Y0079692D01*
X0082320Y0079686D01*
X0082386Y0079676D01*
X0082450Y0079663D01*
X0082513Y0079646D01*
X0082576Y0079624D01*
X0082637Y0079600D01*
X0082696Y0079571D01*
X0082754Y0079540D01*
X0082810Y0079504D01*
X0082863Y0079466D01*
X0082914Y0079425D01*
X0082963Y0079380D01*
X0083009Y0079333D01*
X0083052Y0079283D01*
X0083092Y0079231D01*
X0083128Y0079176D01*
X0083162Y0079119D01*
X0083192Y0079061D01*
X0083219Y0079001D01*
X0083241Y0078939D01*
X0083261Y0078876D01*
X0083276Y0078812D01*
X0083288Y0078747D01*
X0083296Y0078682D01*
X0083300Y0078616D01*
X0083300Y0078550D01*
X0083296Y0078484D01*
X0083288Y0078419D01*
X0083276Y0078354D01*
X0083261Y0078290D01*
X0083241Y0078227D01*
X0083219Y0078165D01*
X0083192Y0078105D01*
X0083162Y0078047D01*
X0083128Y0077990D01*
X0083092Y0077935D01*
X0083052Y0077883D01*
X0083009Y0077833D01*
X0082963Y0077786D01*
X0082914Y0077741D01*
X0082863Y0077700D01*
X0082810Y0077662D01*
X0082754Y0077626D01*
X0082696Y0077595D01*
X0082637Y0077566D01*
X0082576Y0077542D01*
X0082513Y0077520D01*
X0082450Y0077503D01*
X0082386Y0077490D01*
X0082320Y0077480D01*
X0082255Y0077474D01*
X0082189Y0077472D01*
X0080967Y0082378D02*
X0081633Y0083600D01*
X0083300Y0083156D02*
X0083298Y0083074D01*
X0083293Y0082991D01*
X0083284Y0082910D01*
X0083271Y0082828D01*
X0083255Y0082747D01*
X0083235Y0082667D01*
X0083212Y0082588D01*
X0083186Y0082510D01*
X0083156Y0082434D01*
X0083122Y0082358D01*
X0083086Y0082285D01*
X0083046Y0082212D01*
X0083003Y0082142D01*
X0082957Y0082074D01*
X0082908Y0082008D01*
X0082856Y0081944D01*
X0082802Y0081882D01*
X0082744Y0081823D01*
X0081633Y0083600D02*
X0081664Y0083650D01*
X0081699Y0083697D01*
X0081736Y0083742D01*
X0081777Y0083785D01*
X0081820Y0083825D01*
X0081865Y0083861D01*
X0081913Y0083895D01*
X0081963Y0083926D01*
X0082015Y0083953D01*
X0082068Y0083977D01*
X0082123Y0083998D01*
X0082179Y0084015D01*
X0082236Y0084028D01*
X0082294Y0084037D01*
X0082352Y0084043D01*
X0082411Y0084045D01*
X0082469Y0084043D01*
X0082527Y0084037D01*
X0082584Y0084028D01*
X0082641Y0084015D01*
X0082697Y0083998D01*
X0082751Y0083977D01*
X0082804Y0083953D01*
X0082856Y0083926D01*
X0082905Y0083895D01*
X0082952Y0083861D01*
X0082997Y0083824D01*
X0083040Y0083785D01*
X0083079Y0083742D01*
X0083116Y0083697D01*
X0083150Y0083650D01*
X0083181Y0083601D01*
X0083208Y0083549D01*
X0083232Y0083496D01*
X0083253Y0083442D01*
X0083270Y0083386D01*
X0083283Y0083329D01*
X0083292Y0083272D01*
X0083298Y0083214D01*
X0083300Y0083156D01*
X0079633Y0083822D02*
X0079589Y0083760D01*
X0079547Y0083696D01*
X0079509Y0083629D01*
X0079473Y0083562D01*
X0079441Y0083492D01*
X0079411Y0083421D01*
X0079386Y0083349D01*
X0079363Y0083276D01*
X0079344Y0083202D01*
X0079328Y0083127D01*
X0079316Y0083051D01*
X0079307Y0082975D01*
X0079302Y0082899D01*
X0079300Y0082822D01*
X0079302Y0082764D01*
X0079308Y0082706D01*
X0079317Y0082649D01*
X0079330Y0082592D01*
X0079347Y0082536D01*
X0079368Y0082482D01*
X0079392Y0082429D01*
X0079419Y0082378D01*
X0079450Y0082328D01*
X0079484Y0082281D01*
X0079521Y0082236D01*
X0079560Y0082193D01*
X0079603Y0082154D01*
X0079648Y0082117D01*
X0079695Y0082083D01*
X0079745Y0082052D01*
X0079796Y0082025D01*
X0079849Y0082001D01*
X0079903Y0081980D01*
X0079959Y0081963D01*
X0080016Y0081950D01*
X0080073Y0081941D01*
X0080131Y0081935D01*
X0080189Y0081933D01*
X0080248Y0081935D01*
X0080306Y0081941D01*
X0080364Y0081950D01*
X0080421Y0081963D01*
X0080477Y0081980D01*
X0080532Y0082001D01*
X0080585Y0082025D01*
X0080637Y0082052D01*
X0080687Y0082083D01*
X0080735Y0082117D01*
X0080780Y0082153D01*
X0080823Y0082193D01*
X0080864Y0082236D01*
X0080901Y0082281D01*
X0080936Y0082328D01*
X0080967Y0082378D01*
X0079300Y0085939D02*
X0079300Y0086828D01*
X0079300Y0086383D02*
X0083300Y0086383D01*
X0083300Y0085939D02*
X0083300Y0086828D01*
X0073300Y0078128D02*
X0073300Y0077239D01*
X0073300Y0077683D02*
X0069300Y0077683D01*
X0069300Y0077239D02*
X0069300Y0078128D01*
X0070967Y0080578D02*
X0071633Y0081800D01*
X0073300Y0081356D02*
X0073298Y0081274D01*
X0073293Y0081191D01*
X0073284Y0081110D01*
X0073271Y0081028D01*
X0073255Y0080947D01*
X0073235Y0080867D01*
X0073212Y0080788D01*
X0073186Y0080710D01*
X0073156Y0080634D01*
X0073122Y0080558D01*
X0073086Y0080485D01*
X0073046Y0080412D01*
X0073003Y0080342D01*
X0072957Y0080274D01*
X0072908Y0080208D01*
X0072856Y0080144D01*
X0072802Y0080082D01*
X0072744Y0080023D01*
X0071633Y0081800D02*
X0071664Y0081850D01*
X0071699Y0081897D01*
X0071736Y0081942D01*
X0071777Y0081985D01*
X0071820Y0082025D01*
X0071865Y0082061D01*
X0071913Y0082095D01*
X0071963Y0082126D01*
X0072015Y0082153D01*
X0072068Y0082177D01*
X0072123Y0082198D01*
X0072179Y0082215D01*
X0072236Y0082228D01*
X0072294Y0082237D01*
X0072352Y0082243D01*
X0072411Y0082245D01*
X0072469Y0082243D01*
X0072527Y0082237D01*
X0072584Y0082228D01*
X0072641Y0082215D01*
X0072697Y0082198D01*
X0072751Y0082177D01*
X0072804Y0082153D01*
X0072856Y0082126D01*
X0072905Y0082095D01*
X0072952Y0082061D01*
X0072997Y0082024D01*
X0073040Y0081985D01*
X0073079Y0081942D01*
X0073116Y0081897D01*
X0073150Y0081850D01*
X0073181Y0081801D01*
X0073208Y0081749D01*
X0073232Y0081696D01*
X0073253Y0081642D01*
X0073270Y0081586D01*
X0073283Y0081529D01*
X0073292Y0081472D01*
X0073298Y0081414D01*
X0073300Y0081356D01*
X0069633Y0082022D02*
X0069589Y0081960D01*
X0069547Y0081896D01*
X0069509Y0081829D01*
X0069473Y0081762D01*
X0069441Y0081692D01*
X0069411Y0081621D01*
X0069386Y0081549D01*
X0069363Y0081476D01*
X0069344Y0081402D01*
X0069328Y0081327D01*
X0069316Y0081251D01*
X0069307Y0081175D01*
X0069302Y0081099D01*
X0069300Y0081022D01*
X0069302Y0080964D01*
X0069308Y0080906D01*
X0069317Y0080849D01*
X0069330Y0080792D01*
X0069347Y0080736D01*
X0069368Y0080682D01*
X0069392Y0080629D01*
X0069419Y0080578D01*
X0069450Y0080528D01*
X0069484Y0080481D01*
X0069521Y0080436D01*
X0069560Y0080393D01*
X0069603Y0080354D01*
X0069648Y0080317D01*
X0069695Y0080283D01*
X0069745Y0080252D01*
X0069796Y0080225D01*
X0069849Y0080201D01*
X0069903Y0080180D01*
X0069959Y0080163D01*
X0070016Y0080150D01*
X0070073Y0080141D01*
X0070131Y0080135D01*
X0070189Y0080133D01*
X0070248Y0080135D01*
X0070306Y0080141D01*
X0070364Y0080150D01*
X0070421Y0080163D01*
X0070477Y0080180D01*
X0070532Y0080201D01*
X0070585Y0080225D01*
X0070637Y0080252D01*
X0070687Y0080283D01*
X0070735Y0080317D01*
X0070780Y0080353D01*
X0070823Y0080393D01*
X0070864Y0080436D01*
X0070901Y0080481D01*
X0070936Y0080528D01*
X0070967Y0080578D01*
X0070411Y0084372D02*
X0072189Y0084372D01*
X0072255Y0084374D01*
X0072320Y0084380D01*
X0072386Y0084390D01*
X0072450Y0084403D01*
X0072513Y0084420D01*
X0072576Y0084442D01*
X0072637Y0084466D01*
X0072696Y0084495D01*
X0072754Y0084526D01*
X0072810Y0084562D01*
X0072863Y0084600D01*
X0072914Y0084641D01*
X0072963Y0084686D01*
X0073009Y0084733D01*
X0073052Y0084783D01*
X0073092Y0084835D01*
X0073128Y0084890D01*
X0073162Y0084947D01*
X0073192Y0085005D01*
X0073219Y0085065D01*
X0073241Y0085127D01*
X0073261Y0085190D01*
X0073276Y0085254D01*
X0073288Y0085319D01*
X0073296Y0085384D01*
X0073300Y0085450D01*
X0073300Y0085516D01*
X0073296Y0085582D01*
X0073288Y0085647D01*
X0073276Y0085712D01*
X0073261Y0085776D01*
X0073241Y0085839D01*
X0073219Y0085901D01*
X0073192Y0085961D01*
X0073162Y0086019D01*
X0073128Y0086076D01*
X0073092Y0086131D01*
X0073052Y0086183D01*
X0073009Y0086233D01*
X0072963Y0086280D01*
X0072914Y0086325D01*
X0072863Y0086366D01*
X0072810Y0086404D01*
X0072754Y0086440D01*
X0072696Y0086471D01*
X0072637Y0086500D01*
X0072576Y0086524D01*
X0072513Y0086546D01*
X0072450Y0086563D01*
X0072386Y0086576D01*
X0072320Y0086586D01*
X0072255Y0086592D01*
X0072189Y0086594D01*
X0070411Y0086594D01*
X0070345Y0086592D01*
X0070280Y0086586D01*
X0070214Y0086576D01*
X0070150Y0086563D01*
X0070087Y0086546D01*
X0070024Y0086524D01*
X0069963Y0086500D01*
X0069904Y0086471D01*
X0069846Y0086440D01*
X0069790Y0086404D01*
X0069737Y0086366D01*
X0069686Y0086325D01*
X0069637Y0086280D01*
X0069591Y0086233D01*
X0069548Y0086183D01*
X0069508Y0086131D01*
X0069472Y0086076D01*
X0069438Y0086019D01*
X0069408Y0085961D01*
X0069381Y0085901D01*
X0069359Y0085839D01*
X0069339Y0085776D01*
X0069324Y0085712D01*
X0069312Y0085647D01*
X0069304Y0085582D01*
X0069300Y0085516D01*
X0069300Y0085450D01*
X0069304Y0085384D01*
X0069312Y0085319D01*
X0069324Y0085254D01*
X0069339Y0085190D01*
X0069359Y0085127D01*
X0069381Y0085065D01*
X0069408Y0085005D01*
X0069438Y0084947D01*
X0069472Y0084890D01*
X0069508Y0084835D01*
X0069548Y0084783D01*
X0069591Y0084733D01*
X0069637Y0084686D01*
X0069686Y0084641D01*
X0069737Y0084600D01*
X0069790Y0084562D01*
X0069846Y0084526D01*
X0069904Y0084495D01*
X0069963Y0084466D01*
X0070024Y0084442D01*
X0070087Y0084420D01*
X0070150Y0084403D01*
X0070214Y0084390D01*
X0070280Y0084380D01*
X0070345Y0084374D01*
X0070411Y0084372D01*
X0063300Y0082462D02*
X0060856Y0081128D01*
X0061744Y0080240D02*
X0059300Y0082462D01*
X0059300Y0080240D02*
X0063300Y0080240D01*
X0063300Y0078016D02*
X0063300Y0076238D01*
X0059300Y0076238D01*
X0059300Y0074078D02*
X0059300Y0073189D01*
X0059302Y0073131D01*
X0059308Y0073073D01*
X0059317Y0073016D01*
X0059330Y0072959D01*
X0059347Y0072903D01*
X0059368Y0072849D01*
X0059392Y0072796D01*
X0059419Y0072744D01*
X0059450Y0072695D01*
X0059484Y0072648D01*
X0059521Y0072603D01*
X0059560Y0072560D01*
X0059603Y0072521D01*
X0059648Y0072484D01*
X0059695Y0072450D01*
X0059745Y0072419D01*
X0059796Y0072392D01*
X0059849Y0072368D01*
X0059903Y0072347D01*
X0059959Y0072330D01*
X0060016Y0072317D01*
X0060073Y0072308D01*
X0060131Y0072302D01*
X0060189Y0072300D01*
X0062411Y0072300D01*
X0062469Y0072302D01*
X0062527Y0072308D01*
X0062584Y0072317D01*
X0062641Y0072330D01*
X0062697Y0072347D01*
X0062751Y0072368D01*
X0062804Y0072392D01*
X0062856Y0072419D01*
X0062905Y0072450D01*
X0062952Y0072484D01*
X0062997Y0072521D01*
X0063040Y0072560D01*
X0063079Y0072603D01*
X0063116Y0072648D01*
X0063150Y0072695D01*
X0063181Y0072745D01*
X0063208Y0072796D01*
X0063232Y0072849D01*
X0063253Y0072903D01*
X0063270Y0072959D01*
X0063283Y0073016D01*
X0063292Y0073073D01*
X0063298Y0073131D01*
X0063300Y0073189D01*
X0063300Y0074078D01*
X0069300Y0074967D02*
X0073300Y0074967D01*
X0071522Y0073633D02*
X0069300Y0074967D01*
X0071522Y0073633D02*
X0069300Y0072300D01*
X0073300Y0072300D01*
X0053300Y0072300D02*
X0053300Y0073411D01*
X0053298Y0073477D01*
X0053292Y0073542D01*
X0053282Y0073608D01*
X0053269Y0073672D01*
X0053252Y0073735D01*
X0053230Y0073798D01*
X0053206Y0073859D01*
X0053177Y0073918D01*
X0053146Y0073976D01*
X0053110Y0074032D01*
X0053072Y0074085D01*
X0053031Y0074136D01*
X0052986Y0074185D01*
X0052939Y0074231D01*
X0052889Y0074274D01*
X0052837Y0074314D01*
X0052782Y0074350D01*
X0052725Y0074384D01*
X0052667Y0074414D01*
X0052607Y0074441D01*
X0052545Y0074463D01*
X0052482Y0074483D01*
X0052418Y0074498D01*
X0052353Y0074510D01*
X0052288Y0074518D01*
X0052222Y0074522D01*
X0052156Y0074522D01*
X0052090Y0074518D01*
X0052025Y0074510D01*
X0051960Y0074498D01*
X0051896Y0074483D01*
X0051833Y0074463D01*
X0051771Y0074441D01*
X0051711Y0074414D01*
X0051653Y0074384D01*
X0051596Y0074350D01*
X0051541Y0074314D01*
X0051489Y0074274D01*
X0051439Y0074231D01*
X0051392Y0074185D01*
X0051347Y0074136D01*
X0051306Y0074085D01*
X0051268Y0074032D01*
X0051232Y0073976D01*
X0051201Y0073918D01*
X0051172Y0073859D01*
X0051148Y0073798D01*
X0051126Y0073735D01*
X0051109Y0073672D01*
X0051096Y0073608D01*
X0051086Y0073542D01*
X0051080Y0073477D01*
X0051078Y0073411D01*
X0051078Y0073633D02*
X0051078Y0072744D01*
X0051078Y0073633D02*
X0051076Y0073691D01*
X0051070Y0073749D01*
X0051061Y0073806D01*
X0051048Y0073863D01*
X0051031Y0073919D01*
X0051010Y0073973D01*
X0050986Y0074026D01*
X0050959Y0074078D01*
X0050928Y0074127D01*
X0050894Y0074174D01*
X0050857Y0074219D01*
X0050818Y0074262D01*
X0050775Y0074301D01*
X0050730Y0074338D01*
X0050683Y0074372D01*
X0050634Y0074403D01*
X0050582Y0074430D01*
X0050529Y0074454D01*
X0050475Y0074475D01*
X0050419Y0074492D01*
X0050362Y0074505D01*
X0050305Y0074514D01*
X0050247Y0074520D01*
X0050189Y0074522D01*
X0050131Y0074520D01*
X0050073Y0074514D01*
X0050016Y0074505D01*
X0049959Y0074492D01*
X0049903Y0074475D01*
X0049849Y0074454D01*
X0049796Y0074430D01*
X0049745Y0074403D01*
X0049695Y0074372D01*
X0049648Y0074338D01*
X0049603Y0074301D01*
X0049560Y0074262D01*
X0049521Y0074219D01*
X0049484Y0074174D01*
X0049450Y0074127D01*
X0049419Y0074078D01*
X0049392Y0074026D01*
X0049368Y0073973D01*
X0049347Y0073919D01*
X0049330Y0073863D01*
X0049317Y0073806D01*
X0049308Y0073749D01*
X0049302Y0073691D01*
X0049300Y0073633D01*
X0049300Y0072300D01*
X0053078Y0076450D02*
X0053078Y0076672D01*
X0053300Y0076672D01*
X0053300Y0076450D01*
X0053078Y0076450D01*
X0053300Y0078600D02*
X0053300Y0079711D01*
X0053298Y0079777D01*
X0053292Y0079842D01*
X0053282Y0079908D01*
X0053269Y0079972D01*
X0053252Y0080035D01*
X0053230Y0080098D01*
X0053206Y0080159D01*
X0053177Y0080218D01*
X0053146Y0080276D01*
X0053110Y0080332D01*
X0053072Y0080385D01*
X0053031Y0080436D01*
X0052986Y0080485D01*
X0052939Y0080531D01*
X0052889Y0080574D01*
X0052837Y0080614D01*
X0052782Y0080650D01*
X0052725Y0080684D01*
X0052667Y0080714D01*
X0052607Y0080741D01*
X0052545Y0080763D01*
X0052482Y0080783D01*
X0052418Y0080798D01*
X0052353Y0080810D01*
X0052288Y0080818D01*
X0052222Y0080822D01*
X0052156Y0080822D01*
X0052090Y0080818D01*
X0052025Y0080810D01*
X0051960Y0080798D01*
X0051896Y0080783D01*
X0051833Y0080763D01*
X0051771Y0080741D01*
X0051711Y0080714D01*
X0051653Y0080684D01*
X0051596Y0080650D01*
X0051541Y0080614D01*
X0051489Y0080574D01*
X0051439Y0080531D01*
X0051392Y0080485D01*
X0051347Y0080436D01*
X0051306Y0080385D01*
X0051268Y0080332D01*
X0051232Y0080276D01*
X0051201Y0080218D01*
X0051172Y0080159D01*
X0051148Y0080098D01*
X0051126Y0080035D01*
X0051109Y0079972D01*
X0051096Y0079908D01*
X0051086Y0079842D01*
X0051080Y0079777D01*
X0051078Y0079711D01*
X0051078Y0079933D02*
X0051078Y0079044D01*
X0051078Y0079933D02*
X0051076Y0079991D01*
X0051070Y0080049D01*
X0051061Y0080106D01*
X0051048Y0080163D01*
X0051031Y0080219D01*
X0051010Y0080273D01*
X0050986Y0080326D01*
X0050959Y0080378D01*
X0050928Y0080427D01*
X0050894Y0080474D01*
X0050857Y0080519D01*
X0050818Y0080562D01*
X0050775Y0080601D01*
X0050730Y0080638D01*
X0050683Y0080672D01*
X0050634Y0080703D01*
X0050582Y0080730D01*
X0050529Y0080754D01*
X0050475Y0080775D01*
X0050419Y0080792D01*
X0050362Y0080805D01*
X0050305Y0080814D01*
X0050247Y0080820D01*
X0050189Y0080822D01*
X0050131Y0080820D01*
X0050073Y0080814D01*
X0050016Y0080805D01*
X0049959Y0080792D01*
X0049903Y0080775D01*
X0049849Y0080754D01*
X0049796Y0080730D01*
X0049745Y0080703D01*
X0049695Y0080672D01*
X0049648Y0080638D01*
X0049603Y0080601D01*
X0049560Y0080562D01*
X0049521Y0080519D01*
X0049484Y0080474D01*
X0049450Y0080427D01*
X0049419Y0080378D01*
X0049392Y0080326D01*
X0049368Y0080273D01*
X0049347Y0080219D01*
X0049330Y0080163D01*
X0049317Y0080106D01*
X0049308Y0080049D01*
X0049302Y0079991D01*
X0049300Y0079933D01*
X0049300Y0078600D01*
X0049300Y0082878D02*
X0053300Y0084211D01*
X0049300Y0085544D01*
X0051522Y0089922D02*
X0052411Y0089922D01*
X0052469Y0089924D01*
X0052527Y0089930D01*
X0052584Y0089939D01*
X0052641Y0089952D01*
X0052697Y0089969D01*
X0052751Y0089990D01*
X0052804Y0090014D01*
X0052856Y0090041D01*
X0052905Y0090072D01*
X0052952Y0090106D01*
X0052997Y0090143D01*
X0053040Y0090182D01*
X0053079Y0090225D01*
X0053116Y0090270D01*
X0053150Y0090317D01*
X0053181Y0090367D01*
X0053208Y0090418D01*
X0053232Y0090471D01*
X0053253Y0090525D01*
X0053270Y0090581D01*
X0053283Y0090638D01*
X0053292Y0090695D01*
X0053298Y0090753D01*
X0053300Y0090811D01*
X0053298Y0090869D01*
X0053292Y0090927D01*
X0053283Y0090984D01*
X0053270Y0091041D01*
X0053253Y0091097D01*
X0053232Y0091151D01*
X0053208Y0091204D01*
X0053181Y0091256D01*
X0053150Y0091305D01*
X0053116Y0091352D01*
X0053079Y0091397D01*
X0053040Y0091440D01*
X0052997Y0091479D01*
X0052952Y0091516D01*
X0052905Y0091550D01*
X0052855Y0091581D01*
X0052804Y0091608D01*
X0052751Y0091632D01*
X0052697Y0091653D01*
X0052641Y0091670D01*
X0052584Y0091683D01*
X0052527Y0091692D01*
X0052469Y0091698D01*
X0052411Y0091700D01*
X0051522Y0091700D01*
X0051464Y0091698D01*
X0051406Y0091692D01*
X0051349Y0091683D01*
X0051292Y0091670D01*
X0051236Y0091653D01*
X0051182Y0091632D01*
X0051129Y0091608D01*
X0051078Y0091581D01*
X0051028Y0091550D01*
X0050981Y0091516D01*
X0050936Y0091479D01*
X0050893Y0091440D01*
X0050854Y0091397D01*
X0050817Y0091352D01*
X0050783Y0091305D01*
X0050752Y0091256D01*
X0050725Y0091204D01*
X0050701Y0091151D01*
X0050680Y0091097D01*
X0050663Y0091041D01*
X0050650Y0090984D01*
X0050641Y0090927D01*
X0050635Y0090869D01*
X0050633Y0090811D01*
X0050635Y0090753D01*
X0050641Y0090695D01*
X0050650Y0090638D01*
X0050663Y0090581D01*
X0050680Y0090525D01*
X0050701Y0090471D01*
X0050725Y0090418D01*
X0050752Y0090367D01*
X0050783Y0090317D01*
X0050817Y0090270D01*
X0050854Y0090225D01*
X0050893Y0090182D01*
X0050936Y0090143D01*
X0050981Y0090106D01*
X0051028Y0090072D01*
X0051078Y0090041D01*
X0051129Y0090014D01*
X0051182Y0089990D01*
X0051236Y0089969D01*
X0051292Y0089952D01*
X0051349Y0089939D01*
X0051406Y0089930D01*
X0051464Y0089924D01*
X0051522Y0089922D01*
X0050633Y0093972D02*
X0052633Y0093972D01*
X0052683Y0093974D01*
X0052732Y0093979D01*
X0052781Y0093989D01*
X0052830Y0094002D01*
X0052877Y0094018D01*
X0052922Y0094038D01*
X0052967Y0094061D01*
X0053009Y0094088D01*
X0053049Y0094118D01*
X0053087Y0094150D01*
X0053122Y0094185D01*
X0053154Y0094223D01*
X0053184Y0094263D01*
X0053211Y0094306D01*
X0053234Y0094350D01*
X0053254Y0094395D01*
X0053270Y0094442D01*
X0053283Y0094491D01*
X0053293Y0094540D01*
X0053298Y0094589D01*
X0053300Y0094639D01*
X0053300Y0095750D01*
X0050633Y0095750D01*
X0050633Y0097581D02*
X0050633Y0098914D01*
X0049300Y0098025D02*
X0052633Y0098025D01*
X0052683Y0098027D01*
X0052732Y0098032D01*
X0052781Y0098042D01*
X0052830Y0098055D01*
X0052877Y0098071D01*
X0052922Y0098091D01*
X0052967Y0098114D01*
X0053009Y0098141D01*
X0053049Y0098171D01*
X0053087Y0098203D01*
X0053122Y0098238D01*
X0053154Y0098276D01*
X0053184Y0098316D01*
X0053211Y0098359D01*
X0053234Y0098403D01*
X0053254Y0098448D01*
X0053270Y0098495D01*
X0053283Y0098544D01*
X0053293Y0098593D01*
X0053298Y0098642D01*
X0053300Y0098692D01*
X0053300Y0098914D01*
X0043300Y0087511D02*
X0039300Y0088844D01*
X0039300Y0086178D02*
X0043300Y0087511D01*
X0042411Y0084122D02*
X0041967Y0084122D01*
X0041909Y0084120D01*
X0041851Y0084114D01*
X0041794Y0084105D01*
X0041737Y0084092D01*
X0041681Y0084075D01*
X0041627Y0084054D01*
X0041574Y0084030D01*
X0041523Y0084003D01*
X0041473Y0083972D01*
X0041426Y0083938D01*
X0041381Y0083901D01*
X0041338Y0083862D01*
X0041299Y0083819D01*
X0041262Y0083774D01*
X0041228Y0083727D01*
X0041197Y0083678D01*
X0041170Y0083626D01*
X0041146Y0083573D01*
X0041125Y0083519D01*
X0041108Y0083463D01*
X0041095Y0083406D01*
X0041086Y0083349D01*
X0041080Y0083291D01*
X0041078Y0083233D01*
X0041078Y0081900D01*
X0039300Y0081900D01*
X0039300Y0084122D01*
X0042411Y0084122D02*
X0042469Y0084120D01*
X0042527Y0084114D01*
X0042584Y0084105D01*
X0042641Y0084092D01*
X0042697Y0084075D01*
X0042751Y0084054D01*
X0042804Y0084030D01*
X0042856Y0084003D01*
X0042905Y0083972D01*
X0042952Y0083938D01*
X0042997Y0083901D01*
X0043040Y0083862D01*
X0043079Y0083819D01*
X0043116Y0083774D01*
X0043150Y0083727D01*
X0043181Y0083678D01*
X0043208Y0083626D01*
X0043232Y0083573D01*
X0043253Y0083519D01*
X0043270Y0083463D01*
X0043283Y0083406D01*
X0043292Y0083349D01*
X0043298Y0083291D01*
X0043300Y0083233D01*
X0043300Y0081900D01*
X0041744Y0079544D02*
X0041744Y0076878D01*
X0041078Y0073633D02*
X0041078Y0072744D01*
X0041078Y0073633D02*
X0041076Y0073691D01*
X0041070Y0073749D01*
X0041061Y0073806D01*
X0041048Y0073863D01*
X0041031Y0073919D01*
X0041010Y0073973D01*
X0040986Y0074026D01*
X0040959Y0074078D01*
X0040928Y0074127D01*
X0040894Y0074174D01*
X0040857Y0074219D01*
X0040818Y0074262D01*
X0040775Y0074301D01*
X0040730Y0074338D01*
X0040683Y0074372D01*
X0040634Y0074403D01*
X0040582Y0074430D01*
X0040529Y0074454D01*
X0040475Y0074475D01*
X0040419Y0074492D01*
X0040362Y0074505D01*
X0040305Y0074514D01*
X0040247Y0074520D01*
X0040189Y0074522D01*
X0040131Y0074520D01*
X0040073Y0074514D01*
X0040016Y0074505D01*
X0039959Y0074492D01*
X0039903Y0074475D01*
X0039849Y0074454D01*
X0039796Y0074430D01*
X0039745Y0074403D01*
X0039695Y0074372D01*
X0039648Y0074338D01*
X0039603Y0074301D01*
X0039560Y0074262D01*
X0039521Y0074219D01*
X0039484Y0074174D01*
X0039450Y0074127D01*
X0039419Y0074078D01*
X0039392Y0074026D01*
X0039368Y0073973D01*
X0039347Y0073919D01*
X0039330Y0073863D01*
X0039317Y0073806D01*
X0039308Y0073749D01*
X0039302Y0073691D01*
X0039300Y0073633D01*
X0039300Y0072300D01*
X0041078Y0073411D02*
X0041080Y0073477D01*
X0041086Y0073542D01*
X0041096Y0073608D01*
X0041109Y0073672D01*
X0041126Y0073735D01*
X0041148Y0073798D01*
X0041172Y0073859D01*
X0041201Y0073918D01*
X0041232Y0073976D01*
X0041268Y0074032D01*
X0041306Y0074085D01*
X0041347Y0074136D01*
X0041392Y0074185D01*
X0041439Y0074231D01*
X0041489Y0074274D01*
X0041541Y0074314D01*
X0041596Y0074350D01*
X0041653Y0074384D01*
X0041711Y0074414D01*
X0041771Y0074441D01*
X0041833Y0074463D01*
X0041896Y0074483D01*
X0041960Y0074498D01*
X0042025Y0074510D01*
X0042090Y0074518D01*
X0042156Y0074522D01*
X0042222Y0074522D01*
X0042288Y0074518D01*
X0042353Y0074510D01*
X0042418Y0074498D01*
X0042482Y0074483D01*
X0042545Y0074463D01*
X0042607Y0074441D01*
X0042667Y0074414D01*
X0042725Y0074384D01*
X0042782Y0074350D01*
X0042837Y0074314D01*
X0042889Y0074274D01*
X0042939Y0074231D01*
X0042986Y0074185D01*
X0043031Y0074136D01*
X0043072Y0074085D01*
X0043110Y0074032D01*
X0043146Y0073976D01*
X0043177Y0073918D01*
X0043206Y0073859D01*
X0043230Y0073798D01*
X0043252Y0073735D01*
X0043269Y0073672D01*
X0043282Y0073608D01*
X0043292Y0073542D01*
X0043298Y0073477D01*
X0043300Y0073411D01*
X0043300Y0072300D01*
X0033300Y0073189D02*
X0033300Y0074522D01*
X0031078Y0074522D01*
X0031078Y0073856D01*
X0030189Y0072300D02*
X0030131Y0072302D01*
X0030073Y0072308D01*
X0030016Y0072317D01*
X0029959Y0072330D01*
X0029903Y0072347D01*
X0029849Y0072368D01*
X0029796Y0072392D01*
X0029745Y0072419D01*
X0029695Y0072450D01*
X0029648Y0072484D01*
X0029603Y0072521D01*
X0029560Y0072560D01*
X0029521Y0072603D01*
X0029484Y0072648D01*
X0029450Y0072695D01*
X0029419Y0072744D01*
X0029392Y0072796D01*
X0029368Y0072849D01*
X0029347Y0072903D01*
X0029330Y0072959D01*
X0029317Y0073016D01*
X0029308Y0073073D01*
X0029302Y0073131D01*
X0029300Y0073189D01*
X0029300Y0074522D01*
X0030189Y0072300D02*
X0032411Y0072300D01*
X0032469Y0072302D01*
X0032527Y0072308D01*
X0032584Y0072317D01*
X0032641Y0072330D01*
X0032697Y0072347D01*
X0032751Y0072368D01*
X0032804Y0072392D01*
X0032856Y0072419D01*
X0032905Y0072450D01*
X0032952Y0072484D01*
X0032997Y0072521D01*
X0033040Y0072560D01*
X0033079Y0072603D01*
X0033116Y0072648D01*
X0033150Y0072695D01*
X0033181Y0072745D01*
X0033208Y0072796D01*
X0033232Y0072849D01*
X0033253Y0072903D01*
X0033270Y0072959D01*
X0033283Y0073016D01*
X0033292Y0073073D01*
X0033298Y0073131D01*
X0033300Y0073189D01*
X0033300Y0077100D02*
X0029300Y0077100D01*
X0033300Y0079322D01*
X0029300Y0079322D01*
X0029300Y0081900D02*
X0029300Y0083011D01*
X0029300Y0081900D02*
X0033300Y0081900D01*
X0033300Y0083011D01*
X0033298Y0083076D01*
X0033292Y0083140D01*
X0033283Y0083204D01*
X0033270Y0083267D01*
X0033253Y0083330D01*
X0033233Y0083391D01*
X0033209Y0083451D01*
X0033182Y0083510D01*
X0033151Y0083567D01*
X0033117Y0083622D01*
X0033080Y0083674D01*
X0033040Y0083725D01*
X0032997Y0083773D01*
X0032951Y0083819D01*
X0032903Y0083862D01*
X0032852Y0083902D01*
X0032800Y0083939D01*
X0032745Y0083973D01*
X0032688Y0084004D01*
X0032629Y0084031D01*
X0032569Y0084055D01*
X0032508Y0084075D01*
X0032445Y0084092D01*
X0032382Y0084105D01*
X0032318Y0084114D01*
X0032254Y0084120D01*
X0032189Y0084122D01*
X0030411Y0084122D01*
X0030346Y0084120D01*
X0030282Y0084114D01*
X0030218Y0084105D01*
X0030155Y0084092D01*
X0030092Y0084075D01*
X0030031Y0084055D01*
X0029971Y0084031D01*
X0029912Y0084004D01*
X0029856Y0083973D01*
X0029801Y0083939D01*
X0029748Y0083902D01*
X0029697Y0083862D01*
X0029649Y0083819D01*
X0029603Y0083773D01*
X0029560Y0083725D01*
X0029520Y0083674D01*
X0029483Y0083622D01*
X0029449Y0083567D01*
X0029418Y0083510D01*
X0029391Y0083451D01*
X0029367Y0083391D01*
X0029347Y0083330D01*
X0029330Y0083267D01*
X0029317Y0083204D01*
X0029308Y0083140D01*
X0029302Y0083076D01*
X0029300Y0083011D01*
X0029658Y0060800D02*
X0029658Y0057689D01*
X0029656Y0057631D01*
X0029650Y0057573D01*
X0029641Y0057516D01*
X0029628Y0057459D01*
X0029611Y0057403D01*
X0029590Y0057349D01*
X0029566Y0057296D01*
X0029539Y0057245D01*
X0029508Y0057195D01*
X0029474Y0057148D01*
X0029437Y0057103D01*
X0029398Y0057060D01*
X0029355Y0057021D01*
X0029310Y0056984D01*
X0029263Y0056950D01*
X0029214Y0056919D01*
X0029162Y0056892D01*
X0029109Y0056868D01*
X0029055Y0056847D01*
X0028999Y0056830D01*
X0028942Y0056817D01*
X0028885Y0056808D01*
X0028827Y0056802D01*
X0028769Y0056800D01*
X0028324Y0056800D01*
X0032053Y0056800D02*
X0034276Y0056800D01*
X0033165Y0056800D02*
X0033165Y0060800D01*
X0032053Y0059911D01*
X0165143Y0019300D02*
X0165143Y0015300D01*
X0166921Y0015300D01*
X0168656Y0015300D02*
X0171322Y0019300D01*
X0173078Y0019300D02*
X0175300Y0019300D01*
X0174189Y0019300D02*
X0174189Y0015300D01*
X0171322Y0015300D02*
X0168656Y0019300D01*
X0166921Y0019300D02*
X0165143Y0019300D01*
X0165143Y0017522D02*
X0166477Y0017522D01*
D12*
X0001300Y0011300D02*
X0001300Y0371300D01*
X0001303Y0371542D01*
X0001312Y0371783D01*
X0001326Y0372024D01*
X0001347Y0372265D01*
X0001373Y0372505D01*
X0001405Y0372745D01*
X0001443Y0372984D01*
X0001486Y0373221D01*
X0001536Y0373458D01*
X0001591Y0373693D01*
X0001651Y0373927D01*
X0001718Y0374159D01*
X0001789Y0374390D01*
X0001867Y0374619D01*
X0001950Y0374846D01*
X0002038Y0375071D01*
X0002132Y0375294D01*
X0002231Y0375514D01*
X0002336Y0375732D01*
X0002445Y0375947D01*
X0002560Y0376160D01*
X0002680Y0376370D01*
X0002805Y0376576D01*
X0002935Y0376780D01*
X0003070Y0376981D01*
X0003210Y0377178D01*
X0003354Y0377372D01*
X0003503Y0377562D01*
X0003657Y0377748D01*
X0003815Y0377931D01*
X0003977Y0378110D01*
X0004144Y0378285D01*
X0004315Y0378456D01*
X0004490Y0378623D01*
X0004669Y0378785D01*
X0004852Y0378943D01*
X0005038Y0379097D01*
X0005228Y0379246D01*
X0005422Y0379390D01*
X0005619Y0379530D01*
X0005820Y0379665D01*
X0006024Y0379795D01*
X0006230Y0379920D01*
X0006440Y0380040D01*
X0006653Y0380155D01*
X0006868Y0380264D01*
X0007086Y0380369D01*
X0007306Y0380468D01*
X0007529Y0380562D01*
X0007754Y0380650D01*
X0007981Y0380733D01*
X0008210Y0380811D01*
X0008441Y0380882D01*
X0008673Y0380949D01*
X0008907Y0381009D01*
X0009142Y0381064D01*
X0009379Y0381114D01*
X0009616Y0381157D01*
X0009855Y0381195D01*
X0010095Y0381227D01*
X0010335Y0381253D01*
X0010576Y0381274D01*
X0010817Y0381288D01*
X0011058Y0381297D01*
X0011300Y0381300D01*
X0241300Y0381300D01*
X0241542Y0381297D01*
X0241783Y0381288D01*
X0242024Y0381274D01*
X0242265Y0381253D01*
X0242505Y0381227D01*
X0242745Y0381195D01*
X0242984Y0381157D01*
X0243221Y0381114D01*
X0243458Y0381064D01*
X0243693Y0381009D01*
X0243927Y0380949D01*
X0244159Y0380882D01*
X0244390Y0380811D01*
X0244619Y0380733D01*
X0244846Y0380650D01*
X0245071Y0380562D01*
X0245294Y0380468D01*
X0245514Y0380369D01*
X0245732Y0380264D01*
X0245947Y0380155D01*
X0246160Y0380040D01*
X0246370Y0379920D01*
X0246576Y0379795D01*
X0246780Y0379665D01*
X0246981Y0379530D01*
X0247178Y0379390D01*
X0247372Y0379246D01*
X0247562Y0379097D01*
X0247748Y0378943D01*
X0247931Y0378785D01*
X0248110Y0378623D01*
X0248285Y0378456D01*
X0248456Y0378285D01*
X0248623Y0378110D01*
X0248785Y0377931D01*
X0248943Y0377748D01*
X0249097Y0377562D01*
X0249246Y0377372D01*
X0249390Y0377178D01*
X0249530Y0376981D01*
X0249665Y0376780D01*
X0249795Y0376576D01*
X0249920Y0376370D01*
X0250040Y0376160D01*
X0250155Y0375947D01*
X0250264Y0375732D01*
X0250369Y0375514D01*
X0250468Y0375294D01*
X0250562Y0375071D01*
X0250650Y0374846D01*
X0250733Y0374619D01*
X0250811Y0374390D01*
X0250882Y0374159D01*
X0250949Y0373927D01*
X0251009Y0373693D01*
X0251064Y0373458D01*
X0251114Y0373221D01*
X0251157Y0372984D01*
X0251195Y0372745D01*
X0251227Y0372505D01*
X0251253Y0372265D01*
X0251274Y0372024D01*
X0251288Y0371783D01*
X0251297Y0371542D01*
X0251300Y0371300D01*
X0251300Y0011300D01*
X0251297Y0011058D01*
X0251288Y0010817D01*
X0251274Y0010576D01*
X0251253Y0010335D01*
X0251227Y0010095D01*
X0251195Y0009855D01*
X0251157Y0009616D01*
X0251114Y0009379D01*
X0251064Y0009142D01*
X0251009Y0008907D01*
X0250949Y0008673D01*
X0250882Y0008441D01*
X0250811Y0008210D01*
X0250733Y0007981D01*
X0250650Y0007754D01*
X0250562Y0007529D01*
X0250468Y0007306D01*
X0250369Y0007086D01*
X0250264Y0006868D01*
X0250155Y0006653D01*
X0250040Y0006440D01*
X0249920Y0006230D01*
X0249795Y0006024D01*
X0249665Y0005820D01*
X0249530Y0005619D01*
X0249390Y0005422D01*
X0249246Y0005228D01*
X0249097Y0005038D01*
X0248943Y0004852D01*
X0248785Y0004669D01*
X0248623Y0004490D01*
X0248456Y0004315D01*
X0248285Y0004144D01*
X0248110Y0003977D01*
X0247931Y0003815D01*
X0247748Y0003657D01*
X0247562Y0003503D01*
X0247372Y0003354D01*
X0247178Y0003210D01*
X0246981Y0003070D01*
X0246780Y0002935D01*
X0246576Y0002805D01*
X0246370Y0002680D01*
X0246160Y0002560D01*
X0245947Y0002445D01*
X0245732Y0002336D01*
X0245514Y0002231D01*
X0245294Y0002132D01*
X0245071Y0002038D01*
X0244846Y0001950D01*
X0244619Y0001867D01*
X0244390Y0001789D01*
X0244159Y0001718D01*
X0243927Y0001651D01*
X0243693Y0001591D01*
X0243458Y0001536D01*
X0243221Y0001486D01*
X0242984Y0001443D01*
X0242745Y0001405D01*
X0242505Y0001373D01*
X0242265Y0001347D01*
X0242024Y0001326D01*
X0241783Y0001312D01*
X0241542Y0001303D01*
X0241300Y0001300D01*
X0011300Y0001300D01*
X0011058Y0001303D01*
X0010817Y0001312D01*
X0010576Y0001326D01*
X0010335Y0001347D01*
X0010095Y0001373D01*
X0009855Y0001405D01*
X0009616Y0001443D01*
X0009379Y0001486D01*
X0009142Y0001536D01*
X0008907Y0001591D01*
X0008673Y0001651D01*
X0008441Y0001718D01*
X0008210Y0001789D01*
X0007981Y0001867D01*
X0007754Y0001950D01*
X0007529Y0002038D01*
X0007306Y0002132D01*
X0007086Y0002231D01*
X0006868Y0002336D01*
X0006653Y0002445D01*
X0006440Y0002560D01*
X0006230Y0002680D01*
X0006024Y0002805D01*
X0005820Y0002935D01*
X0005619Y0003070D01*
X0005422Y0003210D01*
X0005228Y0003354D01*
X0005038Y0003503D01*
X0004852Y0003657D01*
X0004669Y0003815D01*
X0004490Y0003977D01*
X0004315Y0004144D01*
X0004144Y0004315D01*
X0003977Y0004490D01*
X0003815Y0004669D01*
X0003657Y0004852D01*
X0003503Y0005038D01*
X0003354Y0005228D01*
X0003210Y0005422D01*
X0003070Y0005619D01*
X0002935Y0005820D01*
X0002805Y0006024D01*
X0002680Y0006230D01*
X0002560Y0006440D01*
X0002445Y0006653D01*
X0002336Y0006868D01*
X0002231Y0007086D01*
X0002132Y0007306D01*
X0002038Y0007529D01*
X0001950Y0007754D01*
X0001867Y0007981D01*
X0001789Y0008210D01*
X0001718Y0008441D01*
X0001651Y0008673D01*
X0001591Y0008907D01*
X0001536Y0009142D01*
X0001486Y0009379D01*
X0001443Y0009616D01*
X0001405Y0009855D01*
X0001373Y0010095D01*
X0001347Y0010335D01*
X0001326Y0010576D01*
X0001312Y0010817D01*
X0001303Y0011058D01*
X0001300Y0011300D01*
D13*
X0076300Y0023800D02*
X0076300Y0038800D01*
X0078800Y0041300D01*
X0083800Y0041300D01*
X0086300Y0038800D01*
X0086300Y0023800D01*
X0088800Y0021300D01*
X0093800Y0021300D01*
X0096300Y0023800D01*
X0096300Y0038800D01*
X0098800Y0041300D01*
X0103800Y0041300D01*
X0106300Y0038800D01*
X0106300Y0023800D01*
X0108800Y0021300D01*
X0113800Y0021300D01*
X0116300Y0023800D01*
X0116300Y0038800D01*
X0118800Y0041300D01*
X0123800Y0041300D01*
X0126300Y0038800D01*
X0126300Y0023800D01*
X0128800Y0021300D01*
X0133800Y0021300D01*
X0136300Y0023800D01*
X0136300Y0038800D01*
X0138800Y0041300D01*
X0143800Y0041300D01*
X0146300Y0038800D01*
X0146300Y0023800D01*
X0143800Y0021300D01*
X0138800Y0021300D01*
X0136300Y0023800D01*
X0126300Y0023800D02*
X0123800Y0021300D01*
X0118800Y0021300D01*
X0116300Y0023800D01*
X0106300Y0023800D02*
X0103800Y0021300D01*
X0098800Y0021300D01*
X0096300Y0023800D01*
X0086300Y0023800D02*
X0083800Y0021300D01*
X0078800Y0021300D01*
X0076300Y0023800D01*
X0078800Y0019800D02*
X0083800Y0019800D01*
X0086300Y0038800D02*
X0088800Y0041300D01*
X0093800Y0041300D01*
X0096300Y0038800D01*
X0106300Y0038800D02*
X0108800Y0041300D01*
X0113800Y0041300D01*
X0116300Y0038800D01*
X0126300Y0038800D02*
X0128800Y0041300D01*
X0133800Y0041300D01*
X0136300Y0038800D01*
X0146300Y0038800D02*
X0148800Y0041300D01*
X0153800Y0041300D01*
X0156300Y0038800D01*
X0156300Y0023800D01*
X0153800Y0021300D01*
X0148800Y0021300D01*
X0146300Y0023800D01*
X0156300Y0023800D02*
X0158800Y0021300D01*
X0163800Y0021300D01*
X0166300Y0023800D01*
X0168800Y0021300D01*
X0173800Y0021300D01*
X0176300Y0023800D01*
X0176300Y0038800D01*
X0173800Y0041300D01*
X0168800Y0041300D01*
X0166300Y0038800D01*
X0166300Y0023800D01*
X0166300Y0038800D02*
X0163800Y0041300D01*
X0158800Y0041300D01*
X0156300Y0038800D01*
M02*
