G75*
%MOIN*%
%OFA0B0*%
%FSLAX25Y25*%
%IPPOS*%
%LPD*%
%AMOC8*
5,1,8,0,0,1.08239X$1,22.5*
%
%ADD10C,0.12611*%
%ADD11C,0.08200*%
D10*
X0011300Y0011300D03*
X0241300Y0011300D03*
X0241300Y0371300D03*
X0011300Y0371300D03*
D11*
X0031300Y0366300D03*
X0041300Y0366300D03*
X0051300Y0366300D03*
X0061300Y0366300D03*
X0071300Y0366300D03*
X0081300Y0366300D03*
X0091300Y0366300D03*
X0101300Y0366300D03*
X0111300Y0366300D03*
X0121300Y0366300D03*
X0131300Y0366300D03*
X0141300Y0366300D03*
X0151300Y0366300D03*
X0161300Y0366300D03*
X0171300Y0366300D03*
X0181300Y0366300D03*
X0191300Y0366300D03*
X0201300Y0366300D03*
X0211300Y0366300D03*
X0221300Y0366300D03*
X0221300Y0066300D03*
X0211300Y0066300D03*
X0201300Y0066300D03*
X0191300Y0066300D03*
X0181300Y0066300D03*
X0171300Y0066300D03*
X0161300Y0066300D03*
X0151300Y0066300D03*
X0141300Y0066300D03*
X0131300Y0066300D03*
X0121300Y0066300D03*
X0111300Y0066300D03*
X0101300Y0066300D03*
X0091300Y0066300D03*
X0081300Y0066300D03*
X0071300Y0066300D03*
X0061300Y0066300D03*
X0051300Y0066300D03*
X0041300Y0066300D03*
X0031300Y0066300D03*
X0081300Y0036300D03*
X0081300Y0026300D03*
X0091300Y0026300D03*
X0091300Y0036300D03*
X0101300Y0036300D03*
X0101300Y0026300D03*
X0111300Y0026300D03*
X0111300Y0036300D03*
X0121300Y0036300D03*
X0121300Y0026300D03*
X0131300Y0026300D03*
X0131300Y0036300D03*
X0141300Y0036300D03*
X0141300Y0026300D03*
X0151300Y0026300D03*
X0151300Y0036300D03*
X0161300Y0036300D03*
X0161300Y0026300D03*
X0171300Y0026300D03*
X0171300Y0036300D03*
M02*
