G75*
%MOIN*%
%OFA0B0*%
%FSLAX25Y25*%
%IPPOS*%
%LPD*%
%AMOC8*
5,1,8,0,0,1.08239X$1,22.5*
%
%ADD10C,0.07400*%
%ADD11C,0.15811*%
%ADD12C,0.00600*%
%ADD13C,0.07000*%
%ADD14C,0.02000*%
D10*
X0053800Y0016300D03*
X0063800Y0016300D03*
X0073800Y0016300D03*
X0083800Y0016300D03*
X0093800Y0016300D03*
X0103800Y0016300D03*
X0113800Y0016300D03*
X0123800Y0016300D03*
X0133800Y0016300D03*
X0143800Y0016300D03*
X0153800Y0016300D03*
X0163800Y0016300D03*
X0173800Y0016300D03*
X0183800Y0016300D03*
X0193800Y0016300D03*
X0203800Y0016300D03*
X0213800Y0016300D03*
X0223800Y0016300D03*
X0233800Y0016300D03*
X0243800Y0016300D03*
X0031300Y0121300D03*
X0031300Y0131300D03*
X0031300Y0141300D03*
X0031300Y0151300D03*
X0031300Y0161300D03*
X0031300Y0171300D03*
X0031300Y0181300D03*
X0031300Y0191300D03*
X0031300Y0201300D03*
X0031300Y0211300D03*
X0021300Y0211300D03*
X0021300Y0201300D03*
X0021300Y0191300D03*
X0021300Y0181300D03*
X0021300Y0171300D03*
X0021300Y0161300D03*
X0021300Y0151300D03*
X0021300Y0141300D03*
X0021300Y0131300D03*
X0021300Y0121300D03*
X0053800Y0316300D03*
X0063800Y0316300D03*
X0073800Y0316300D03*
X0083800Y0316300D03*
X0093800Y0316300D03*
X0103800Y0316300D03*
X0113800Y0316300D03*
X0123800Y0316300D03*
X0133800Y0316300D03*
X0143800Y0316300D03*
X0153800Y0316300D03*
X0163800Y0316300D03*
X0173800Y0316300D03*
X0183800Y0316300D03*
X0193800Y0316300D03*
X0203800Y0316300D03*
X0213800Y0316300D03*
X0223800Y0316300D03*
X0233800Y0316300D03*
X0243800Y0316300D03*
D11*
X0261300Y0316300D03*
X0036300Y0316300D03*
X0036300Y0016300D03*
X0261300Y0016300D03*
D12*
X0007595Y0007792D02*
X0006533Y0009236D01*
X0005880Y0010907D01*
X0005750Y0011638D01*
X0005750Y0320951D01*
X0005925Y0321867D01*
X0006811Y0323825D01*
X0008259Y0325414D01*
X0010126Y0326477D01*
X0012231Y0326912D01*
X0012810Y0326893D01*
X0012915Y0326850D01*
X0013554Y0326850D01*
X0014188Y0326779D01*
X0014432Y0326850D01*
X0263800Y0326850D01*
X0264524Y0326803D01*
X0265924Y0326428D01*
X0267179Y0325703D01*
X0268203Y0324679D01*
X0268928Y0323424D01*
X0269303Y0322024D01*
X0269350Y0321300D01*
X0269350Y0320137D01*
X0268850Y0321345D01*
X0266345Y0323850D01*
X0263071Y0325205D01*
X0259529Y0325205D01*
X0256255Y0323850D01*
X0253750Y0321345D01*
X0252394Y0318071D01*
X0252394Y0314529D01*
X0253750Y0311255D01*
X0256255Y0308750D01*
X0259529Y0307394D01*
X0263071Y0307394D01*
X0266345Y0308750D01*
X0268850Y0311255D01*
X0269350Y0312463D01*
X0269350Y0020137D01*
X0268850Y0021345D01*
X0266345Y0023850D01*
X0263071Y0025205D01*
X0259529Y0025205D01*
X0256255Y0023850D01*
X0253750Y0021345D01*
X0252394Y0018071D01*
X0252394Y0014529D01*
X0253750Y0011255D01*
X0256255Y0008750D01*
X0259529Y0007394D01*
X0263071Y0007394D01*
X0266345Y0008750D01*
X0268850Y0011255D01*
X0269350Y0012463D01*
X0269350Y0011300D01*
X0269303Y0010576D01*
X0268928Y0009176D01*
X0268203Y0007921D01*
X0267179Y0006897D01*
X0265924Y0006172D01*
X0264524Y0005797D01*
X0263800Y0005750D01*
X0014432Y0005750D01*
X0014188Y0005821D01*
X0013554Y0005750D01*
X0012915Y0005750D01*
X0012793Y0005699D01*
X0012411Y0005682D01*
X0010638Y0005952D01*
X0008996Y0006672D01*
X0007595Y0007792D01*
X0007528Y0007884D02*
X0033348Y0007884D01*
X0034529Y0007394D02*
X0038071Y0007394D01*
X0041345Y0008750D01*
X0043850Y0011255D01*
X0045205Y0014529D01*
X0045205Y0018071D01*
X0043850Y0021345D01*
X0041345Y0023850D01*
X0038071Y0025205D01*
X0034529Y0025205D01*
X0031255Y0023850D01*
X0028750Y0021345D01*
X0027394Y0018071D01*
X0027394Y0014529D01*
X0028750Y0011255D01*
X0031255Y0008750D01*
X0034529Y0007394D01*
X0031903Y0008482D02*
X0007088Y0008482D01*
X0006647Y0009081D02*
X0030925Y0009081D01*
X0030327Y0009679D02*
X0006360Y0009679D01*
X0006126Y0010278D02*
X0029728Y0010278D01*
X0029130Y0010876D02*
X0005892Y0010876D01*
X0005779Y0011475D02*
X0028659Y0011475D01*
X0028412Y0012073D02*
X0005750Y0012073D01*
X0005750Y0012672D02*
X0028164Y0012672D01*
X0027916Y0013270D02*
X0005750Y0013270D01*
X0005750Y0013869D02*
X0027668Y0013869D01*
X0027420Y0014467D02*
X0005750Y0014467D01*
X0005750Y0015066D02*
X0027394Y0015066D01*
X0027394Y0015664D02*
X0005750Y0015664D01*
X0005750Y0016263D02*
X0027394Y0016263D01*
X0027394Y0016861D02*
X0005750Y0016861D01*
X0005750Y0017460D02*
X0027394Y0017460D01*
X0027394Y0018058D02*
X0005750Y0018058D01*
X0005750Y0018657D02*
X0027637Y0018657D01*
X0027885Y0019255D02*
X0005750Y0019255D01*
X0005750Y0019854D02*
X0028133Y0019854D01*
X0028381Y0020452D02*
X0005750Y0020452D01*
X0005750Y0021051D02*
X0028629Y0021051D01*
X0029055Y0021649D02*
X0005750Y0021649D01*
X0005750Y0022248D02*
X0029654Y0022248D01*
X0030252Y0022846D02*
X0005750Y0022846D01*
X0005750Y0023445D02*
X0030851Y0023445D01*
X0031723Y0024043D02*
X0005750Y0024043D01*
X0005750Y0024642D02*
X0033168Y0024642D01*
X0039432Y0024642D02*
X0258168Y0024642D01*
X0256723Y0024043D02*
X0040877Y0024043D01*
X0041749Y0023445D02*
X0255851Y0023445D01*
X0255252Y0022846D02*
X0042348Y0022846D01*
X0042946Y0022248D02*
X0254654Y0022248D01*
X0254055Y0021649D02*
X0043545Y0021649D01*
X0043971Y0021051D02*
X0253629Y0021051D01*
X0253381Y0020452D02*
X0246057Y0020452D01*
X0246462Y0020284D02*
X0244735Y0021000D01*
X0242865Y0021000D01*
X0241138Y0020284D01*
X0239816Y0018962D01*
X0239100Y0017235D01*
X0239100Y0015365D01*
X0239816Y0013638D01*
X0241138Y0012316D01*
X0242865Y0011600D01*
X0244735Y0011600D01*
X0246462Y0012316D01*
X0247784Y0013638D01*
X0248500Y0015365D01*
X0248500Y0017235D01*
X0247784Y0018962D01*
X0246462Y0020284D01*
X0246893Y0019854D02*
X0253133Y0019854D01*
X0252885Y0019255D02*
X0247491Y0019255D01*
X0247911Y0018657D02*
X0252637Y0018657D01*
X0252394Y0018058D02*
X0248159Y0018058D01*
X0248407Y0017460D02*
X0252394Y0017460D01*
X0252394Y0016861D02*
X0248500Y0016861D01*
X0248500Y0016263D02*
X0252394Y0016263D01*
X0252394Y0015664D02*
X0248500Y0015664D01*
X0248376Y0015066D02*
X0252394Y0015066D01*
X0252420Y0014467D02*
X0248128Y0014467D01*
X0247880Y0013869D02*
X0252668Y0013869D01*
X0252916Y0013270D02*
X0247417Y0013270D01*
X0246819Y0012672D02*
X0253164Y0012672D01*
X0253412Y0012073D02*
X0245877Y0012073D01*
X0241723Y0012073D02*
X0235877Y0012073D01*
X0236462Y0012316D02*
X0237784Y0013638D01*
X0238500Y0015365D01*
X0238500Y0017235D01*
X0237784Y0018962D01*
X0236462Y0020284D01*
X0234735Y0021000D01*
X0232865Y0021000D01*
X0231138Y0020284D01*
X0229816Y0018962D01*
X0229100Y0017235D01*
X0229100Y0015365D01*
X0229816Y0013638D01*
X0231138Y0012316D01*
X0232865Y0011600D01*
X0234735Y0011600D01*
X0236462Y0012316D01*
X0236819Y0012672D02*
X0240781Y0012672D01*
X0240183Y0013270D02*
X0237417Y0013270D01*
X0237880Y0013869D02*
X0239720Y0013869D01*
X0239472Y0014467D02*
X0238128Y0014467D01*
X0238376Y0015066D02*
X0239224Y0015066D01*
X0239100Y0015664D02*
X0238500Y0015664D01*
X0238500Y0016263D02*
X0239100Y0016263D01*
X0239100Y0016861D02*
X0238500Y0016861D01*
X0238407Y0017460D02*
X0239193Y0017460D01*
X0239441Y0018058D02*
X0238159Y0018058D01*
X0237911Y0018657D02*
X0239689Y0018657D01*
X0240109Y0019255D02*
X0237491Y0019255D01*
X0236893Y0019854D02*
X0240707Y0019854D01*
X0241543Y0020452D02*
X0236057Y0020452D01*
X0231543Y0020452D02*
X0226057Y0020452D01*
X0226462Y0020284D02*
X0224735Y0021000D01*
X0222865Y0021000D01*
X0221138Y0020284D01*
X0219816Y0018962D01*
X0219100Y0017235D01*
X0219100Y0015365D01*
X0219816Y0013638D01*
X0221138Y0012316D01*
X0222865Y0011600D01*
X0224735Y0011600D01*
X0226462Y0012316D01*
X0227784Y0013638D01*
X0228500Y0015365D01*
X0228500Y0017235D01*
X0227784Y0018962D01*
X0226462Y0020284D01*
X0226893Y0019854D02*
X0230707Y0019854D01*
X0230109Y0019255D02*
X0227491Y0019255D01*
X0227911Y0018657D02*
X0229689Y0018657D01*
X0229441Y0018058D02*
X0228159Y0018058D01*
X0228407Y0017460D02*
X0229193Y0017460D01*
X0229100Y0016861D02*
X0228500Y0016861D01*
X0228500Y0016263D02*
X0229100Y0016263D01*
X0229100Y0015664D02*
X0228500Y0015664D01*
X0228376Y0015066D02*
X0229224Y0015066D01*
X0229472Y0014467D02*
X0228128Y0014467D01*
X0227880Y0013869D02*
X0229720Y0013869D01*
X0230183Y0013270D02*
X0227417Y0013270D01*
X0226819Y0012672D02*
X0230781Y0012672D01*
X0231723Y0012073D02*
X0225877Y0012073D01*
X0221723Y0012073D02*
X0215877Y0012073D01*
X0216462Y0012316D02*
X0217784Y0013638D01*
X0218500Y0015365D01*
X0218500Y0017235D01*
X0217784Y0018962D01*
X0216462Y0020284D01*
X0214735Y0021000D01*
X0212865Y0021000D01*
X0211138Y0020284D01*
X0209816Y0018962D01*
X0209100Y0017235D01*
X0209100Y0015365D01*
X0209816Y0013638D01*
X0211138Y0012316D01*
X0212865Y0011600D01*
X0214735Y0011600D01*
X0216462Y0012316D01*
X0216819Y0012672D02*
X0220781Y0012672D01*
X0220183Y0013270D02*
X0217417Y0013270D01*
X0217880Y0013869D02*
X0219720Y0013869D01*
X0219472Y0014467D02*
X0218128Y0014467D01*
X0218376Y0015066D02*
X0219224Y0015066D01*
X0219100Y0015664D02*
X0218500Y0015664D01*
X0218500Y0016263D02*
X0219100Y0016263D01*
X0219100Y0016861D02*
X0218500Y0016861D01*
X0218407Y0017460D02*
X0219193Y0017460D01*
X0219441Y0018058D02*
X0218159Y0018058D01*
X0217911Y0018657D02*
X0219689Y0018657D01*
X0220109Y0019255D02*
X0217491Y0019255D01*
X0216893Y0019854D02*
X0220707Y0019854D01*
X0221543Y0020452D02*
X0216057Y0020452D01*
X0211543Y0020452D02*
X0206057Y0020452D01*
X0206462Y0020284D02*
X0204735Y0021000D01*
X0202865Y0021000D01*
X0201138Y0020284D01*
X0199816Y0018962D01*
X0199100Y0017235D01*
X0199100Y0015365D01*
X0199816Y0013638D01*
X0201138Y0012316D01*
X0202865Y0011600D01*
X0204735Y0011600D01*
X0206462Y0012316D01*
X0207784Y0013638D01*
X0208500Y0015365D01*
X0208500Y0017235D01*
X0207784Y0018962D01*
X0206462Y0020284D01*
X0206893Y0019854D02*
X0210707Y0019854D01*
X0210109Y0019255D02*
X0207491Y0019255D01*
X0207911Y0018657D02*
X0209689Y0018657D01*
X0209441Y0018058D02*
X0208159Y0018058D01*
X0208407Y0017460D02*
X0209193Y0017460D01*
X0209100Y0016861D02*
X0208500Y0016861D01*
X0208500Y0016263D02*
X0209100Y0016263D01*
X0209100Y0015664D02*
X0208500Y0015664D01*
X0208376Y0015066D02*
X0209224Y0015066D01*
X0209472Y0014467D02*
X0208128Y0014467D01*
X0207880Y0013869D02*
X0209720Y0013869D01*
X0210183Y0013270D02*
X0207417Y0013270D01*
X0206819Y0012672D02*
X0210781Y0012672D01*
X0211723Y0012073D02*
X0205877Y0012073D01*
X0201723Y0012073D02*
X0195877Y0012073D01*
X0196462Y0012316D02*
X0197784Y0013638D01*
X0198500Y0015365D01*
X0198500Y0017235D01*
X0197784Y0018962D01*
X0196462Y0020284D01*
X0194735Y0021000D01*
X0192865Y0021000D01*
X0191138Y0020284D01*
X0189816Y0018962D01*
X0189100Y0017235D01*
X0189100Y0015365D01*
X0189816Y0013638D01*
X0191138Y0012316D01*
X0192865Y0011600D01*
X0194735Y0011600D01*
X0196462Y0012316D01*
X0196819Y0012672D02*
X0200781Y0012672D01*
X0200183Y0013270D02*
X0197417Y0013270D01*
X0197880Y0013869D02*
X0199720Y0013869D01*
X0199472Y0014467D02*
X0198128Y0014467D01*
X0198376Y0015066D02*
X0199224Y0015066D01*
X0199100Y0015664D02*
X0198500Y0015664D01*
X0198500Y0016263D02*
X0199100Y0016263D01*
X0199100Y0016861D02*
X0198500Y0016861D01*
X0198407Y0017460D02*
X0199193Y0017460D01*
X0199441Y0018058D02*
X0198159Y0018058D01*
X0197911Y0018657D02*
X0199689Y0018657D01*
X0200109Y0019255D02*
X0197491Y0019255D01*
X0196893Y0019854D02*
X0200707Y0019854D01*
X0201543Y0020452D02*
X0196057Y0020452D01*
X0191543Y0020452D02*
X0186057Y0020452D01*
X0186462Y0020284D02*
X0184735Y0021000D01*
X0182865Y0021000D01*
X0181138Y0020284D01*
X0179816Y0018962D01*
X0179100Y0017235D01*
X0179100Y0015365D01*
X0179816Y0013638D01*
X0181138Y0012316D01*
X0182865Y0011600D01*
X0184735Y0011600D01*
X0186462Y0012316D01*
X0187784Y0013638D01*
X0188500Y0015365D01*
X0188500Y0017235D01*
X0187784Y0018962D01*
X0186462Y0020284D01*
X0186893Y0019854D02*
X0190707Y0019854D01*
X0190109Y0019255D02*
X0187491Y0019255D01*
X0187911Y0018657D02*
X0189689Y0018657D01*
X0189441Y0018058D02*
X0188159Y0018058D01*
X0188407Y0017460D02*
X0189193Y0017460D01*
X0189100Y0016861D02*
X0188500Y0016861D01*
X0188500Y0016263D02*
X0189100Y0016263D01*
X0189100Y0015664D02*
X0188500Y0015664D01*
X0188376Y0015066D02*
X0189224Y0015066D01*
X0189472Y0014467D02*
X0188128Y0014467D01*
X0187880Y0013869D02*
X0189720Y0013869D01*
X0190183Y0013270D02*
X0187417Y0013270D01*
X0186819Y0012672D02*
X0190781Y0012672D01*
X0191723Y0012073D02*
X0185877Y0012073D01*
X0181723Y0012073D02*
X0175877Y0012073D01*
X0176462Y0012316D02*
X0174735Y0011600D01*
X0172865Y0011600D01*
X0171138Y0012316D01*
X0169816Y0013638D01*
X0169100Y0015365D01*
X0169100Y0017235D01*
X0169816Y0018962D01*
X0171138Y0020284D01*
X0172865Y0021000D01*
X0174735Y0021000D01*
X0176462Y0020284D01*
X0177784Y0018962D01*
X0178500Y0017235D01*
X0178500Y0015365D01*
X0177784Y0013638D01*
X0176462Y0012316D01*
X0176819Y0012672D02*
X0180781Y0012672D01*
X0180183Y0013270D02*
X0177417Y0013270D01*
X0177880Y0013869D02*
X0179720Y0013869D01*
X0179472Y0014467D02*
X0178128Y0014467D01*
X0178376Y0015066D02*
X0179224Y0015066D01*
X0179100Y0015664D02*
X0178500Y0015664D01*
X0178500Y0016263D02*
X0179100Y0016263D01*
X0179100Y0016861D02*
X0178500Y0016861D01*
X0178407Y0017460D02*
X0179193Y0017460D01*
X0179441Y0018058D02*
X0178159Y0018058D01*
X0177911Y0018657D02*
X0179689Y0018657D01*
X0180109Y0019255D02*
X0177491Y0019255D01*
X0176893Y0019854D02*
X0180707Y0019854D01*
X0181543Y0020452D02*
X0176057Y0020452D01*
X0171543Y0020452D02*
X0166057Y0020452D01*
X0166462Y0020284D02*
X0164735Y0021000D01*
X0162865Y0021000D01*
X0161138Y0020284D01*
X0159816Y0018962D01*
X0159100Y0017235D01*
X0159100Y0015365D01*
X0159816Y0013638D01*
X0161138Y0012316D01*
X0162865Y0011600D01*
X0164735Y0011600D01*
X0166462Y0012316D01*
X0167784Y0013638D01*
X0168500Y0015365D01*
X0168500Y0017235D01*
X0167784Y0018962D01*
X0166462Y0020284D01*
X0166893Y0019854D02*
X0170707Y0019854D01*
X0170109Y0019255D02*
X0167491Y0019255D01*
X0167911Y0018657D02*
X0169689Y0018657D01*
X0169441Y0018058D02*
X0168159Y0018058D01*
X0168407Y0017460D02*
X0169193Y0017460D01*
X0169100Y0016861D02*
X0168500Y0016861D01*
X0168500Y0016263D02*
X0169100Y0016263D01*
X0169100Y0015664D02*
X0168500Y0015664D01*
X0168376Y0015066D02*
X0169224Y0015066D01*
X0169472Y0014467D02*
X0168128Y0014467D01*
X0167880Y0013869D02*
X0169720Y0013869D01*
X0170183Y0013270D02*
X0167417Y0013270D01*
X0166819Y0012672D02*
X0170781Y0012672D01*
X0171723Y0012073D02*
X0165877Y0012073D01*
X0161723Y0012073D02*
X0155877Y0012073D01*
X0156462Y0012316D02*
X0157784Y0013638D01*
X0158500Y0015365D01*
X0158500Y0017235D01*
X0157784Y0018962D01*
X0156462Y0020284D01*
X0154735Y0021000D01*
X0152865Y0021000D01*
X0151138Y0020284D01*
X0149816Y0018962D01*
X0149100Y0017235D01*
X0149100Y0015365D01*
X0149816Y0013638D01*
X0151138Y0012316D01*
X0152865Y0011600D01*
X0154735Y0011600D01*
X0156462Y0012316D01*
X0156819Y0012672D02*
X0160781Y0012672D01*
X0160183Y0013270D02*
X0157417Y0013270D01*
X0157880Y0013869D02*
X0159720Y0013869D01*
X0159472Y0014467D02*
X0158128Y0014467D01*
X0158376Y0015066D02*
X0159224Y0015066D01*
X0159100Y0015664D02*
X0158500Y0015664D01*
X0158500Y0016263D02*
X0159100Y0016263D01*
X0159100Y0016861D02*
X0158500Y0016861D01*
X0158407Y0017460D02*
X0159193Y0017460D01*
X0159441Y0018058D02*
X0158159Y0018058D01*
X0157911Y0018657D02*
X0159689Y0018657D01*
X0160109Y0019255D02*
X0157491Y0019255D01*
X0156893Y0019854D02*
X0160707Y0019854D01*
X0161543Y0020452D02*
X0156057Y0020452D01*
X0151543Y0020452D02*
X0146057Y0020452D01*
X0146462Y0020284D02*
X0144735Y0021000D01*
X0142865Y0021000D01*
X0141138Y0020284D01*
X0139816Y0018962D01*
X0139100Y0017235D01*
X0139100Y0015365D01*
X0139816Y0013638D01*
X0141138Y0012316D01*
X0142865Y0011600D01*
X0144735Y0011600D01*
X0146462Y0012316D01*
X0147784Y0013638D01*
X0148500Y0015365D01*
X0148500Y0017235D01*
X0147784Y0018962D01*
X0146462Y0020284D01*
X0146893Y0019854D02*
X0150707Y0019854D01*
X0150109Y0019255D02*
X0147491Y0019255D01*
X0147911Y0018657D02*
X0149689Y0018657D01*
X0149441Y0018058D02*
X0148159Y0018058D01*
X0148407Y0017460D02*
X0149193Y0017460D01*
X0149100Y0016861D02*
X0148500Y0016861D01*
X0148500Y0016263D02*
X0149100Y0016263D01*
X0149100Y0015664D02*
X0148500Y0015664D01*
X0148376Y0015066D02*
X0149224Y0015066D01*
X0149472Y0014467D02*
X0148128Y0014467D01*
X0147880Y0013869D02*
X0149720Y0013869D01*
X0150183Y0013270D02*
X0147417Y0013270D01*
X0146819Y0012672D02*
X0150781Y0012672D01*
X0151723Y0012073D02*
X0145877Y0012073D01*
X0141723Y0012073D02*
X0135877Y0012073D01*
X0136462Y0012316D02*
X0137784Y0013638D01*
X0138500Y0015365D01*
X0138500Y0017235D01*
X0137784Y0018962D01*
X0136462Y0020284D01*
X0134735Y0021000D01*
X0132865Y0021000D01*
X0131138Y0020284D01*
X0129816Y0018962D01*
X0129100Y0017235D01*
X0129100Y0015365D01*
X0129816Y0013638D01*
X0131138Y0012316D01*
X0132865Y0011600D01*
X0134735Y0011600D01*
X0136462Y0012316D01*
X0136819Y0012672D02*
X0140781Y0012672D01*
X0140183Y0013270D02*
X0137417Y0013270D01*
X0137880Y0013869D02*
X0139720Y0013869D01*
X0139472Y0014467D02*
X0138128Y0014467D01*
X0138376Y0015066D02*
X0139224Y0015066D01*
X0139100Y0015664D02*
X0138500Y0015664D01*
X0138500Y0016263D02*
X0139100Y0016263D01*
X0139100Y0016861D02*
X0138500Y0016861D01*
X0138407Y0017460D02*
X0139193Y0017460D01*
X0139441Y0018058D02*
X0138159Y0018058D01*
X0137911Y0018657D02*
X0139689Y0018657D01*
X0140109Y0019255D02*
X0137491Y0019255D01*
X0136893Y0019854D02*
X0140707Y0019854D01*
X0141543Y0020452D02*
X0136057Y0020452D01*
X0131543Y0020452D02*
X0126057Y0020452D01*
X0126462Y0020284D02*
X0124735Y0021000D01*
X0122865Y0021000D01*
X0121138Y0020284D01*
X0119816Y0018962D01*
X0119100Y0017235D01*
X0119100Y0015365D01*
X0119816Y0013638D01*
X0121138Y0012316D01*
X0122865Y0011600D01*
X0124735Y0011600D01*
X0126462Y0012316D01*
X0127784Y0013638D01*
X0128500Y0015365D01*
X0128500Y0017235D01*
X0127784Y0018962D01*
X0126462Y0020284D01*
X0126893Y0019854D02*
X0130707Y0019854D01*
X0130109Y0019255D02*
X0127491Y0019255D01*
X0127911Y0018657D02*
X0129689Y0018657D01*
X0129441Y0018058D02*
X0128159Y0018058D01*
X0128407Y0017460D02*
X0129193Y0017460D01*
X0129100Y0016861D02*
X0128500Y0016861D01*
X0128500Y0016263D02*
X0129100Y0016263D01*
X0129100Y0015664D02*
X0128500Y0015664D01*
X0128376Y0015066D02*
X0129224Y0015066D01*
X0129472Y0014467D02*
X0128128Y0014467D01*
X0127880Y0013869D02*
X0129720Y0013869D01*
X0130183Y0013270D02*
X0127417Y0013270D01*
X0126819Y0012672D02*
X0130781Y0012672D01*
X0131723Y0012073D02*
X0125877Y0012073D01*
X0121723Y0012073D02*
X0115877Y0012073D01*
X0116462Y0012316D02*
X0117784Y0013638D01*
X0118500Y0015365D01*
X0118500Y0017235D01*
X0117784Y0018962D01*
X0116462Y0020284D01*
X0114735Y0021000D01*
X0112865Y0021000D01*
X0111138Y0020284D01*
X0109816Y0018962D01*
X0109100Y0017235D01*
X0109100Y0015365D01*
X0109816Y0013638D01*
X0111138Y0012316D01*
X0112865Y0011600D01*
X0114735Y0011600D01*
X0116462Y0012316D01*
X0116819Y0012672D02*
X0120781Y0012672D01*
X0120183Y0013270D02*
X0117417Y0013270D01*
X0117880Y0013869D02*
X0119720Y0013869D01*
X0119472Y0014467D02*
X0118128Y0014467D01*
X0118376Y0015066D02*
X0119224Y0015066D01*
X0119100Y0015664D02*
X0118500Y0015664D01*
X0118500Y0016263D02*
X0119100Y0016263D01*
X0119100Y0016861D02*
X0118500Y0016861D01*
X0118407Y0017460D02*
X0119193Y0017460D01*
X0119441Y0018058D02*
X0118159Y0018058D01*
X0117911Y0018657D02*
X0119689Y0018657D01*
X0120109Y0019255D02*
X0117491Y0019255D01*
X0116893Y0019854D02*
X0120707Y0019854D01*
X0121543Y0020452D02*
X0116057Y0020452D01*
X0111543Y0020452D02*
X0106057Y0020452D01*
X0106462Y0020284D02*
X0104735Y0021000D01*
X0102865Y0021000D01*
X0101138Y0020284D01*
X0099816Y0018962D01*
X0099100Y0017235D01*
X0099100Y0015365D01*
X0099816Y0013638D01*
X0101138Y0012316D01*
X0102865Y0011600D01*
X0104735Y0011600D01*
X0106462Y0012316D01*
X0107784Y0013638D01*
X0108500Y0015365D01*
X0108500Y0017235D01*
X0107784Y0018962D01*
X0106462Y0020284D01*
X0106893Y0019854D02*
X0110707Y0019854D01*
X0110109Y0019255D02*
X0107491Y0019255D01*
X0107911Y0018657D02*
X0109689Y0018657D01*
X0109441Y0018058D02*
X0108159Y0018058D01*
X0108407Y0017460D02*
X0109193Y0017460D01*
X0109100Y0016861D02*
X0108500Y0016861D01*
X0108500Y0016263D02*
X0109100Y0016263D01*
X0109100Y0015664D02*
X0108500Y0015664D01*
X0108376Y0015066D02*
X0109224Y0015066D01*
X0109472Y0014467D02*
X0108128Y0014467D01*
X0107880Y0013869D02*
X0109720Y0013869D01*
X0110183Y0013270D02*
X0107417Y0013270D01*
X0106819Y0012672D02*
X0110781Y0012672D01*
X0111723Y0012073D02*
X0105877Y0012073D01*
X0101723Y0012073D02*
X0095877Y0012073D01*
X0096462Y0012316D02*
X0094735Y0011600D01*
X0092865Y0011600D01*
X0091138Y0012316D01*
X0089816Y0013638D01*
X0089100Y0015365D01*
X0089100Y0017235D01*
X0089816Y0018962D01*
X0091138Y0020284D01*
X0092865Y0021000D01*
X0094735Y0021000D01*
X0096462Y0020284D01*
X0097784Y0018962D01*
X0098500Y0017235D01*
X0098500Y0015365D01*
X0097784Y0013638D01*
X0096462Y0012316D01*
X0096819Y0012672D02*
X0100781Y0012672D01*
X0100183Y0013270D02*
X0097417Y0013270D01*
X0097880Y0013869D02*
X0099720Y0013869D01*
X0099472Y0014467D02*
X0098128Y0014467D01*
X0098376Y0015066D02*
X0099224Y0015066D01*
X0099100Y0015664D02*
X0098500Y0015664D01*
X0098500Y0016263D02*
X0099100Y0016263D01*
X0099100Y0016861D02*
X0098500Y0016861D01*
X0098407Y0017460D02*
X0099193Y0017460D01*
X0099441Y0018058D02*
X0098159Y0018058D01*
X0097911Y0018657D02*
X0099689Y0018657D01*
X0100109Y0019255D02*
X0097491Y0019255D01*
X0096893Y0019854D02*
X0100707Y0019854D01*
X0101543Y0020452D02*
X0096057Y0020452D01*
X0091543Y0020452D02*
X0086057Y0020452D01*
X0086462Y0020284D02*
X0084735Y0021000D01*
X0082865Y0021000D01*
X0081138Y0020284D01*
X0079816Y0018962D01*
X0079100Y0017235D01*
X0079100Y0015365D01*
X0079816Y0013638D01*
X0081138Y0012316D01*
X0082865Y0011600D01*
X0084735Y0011600D01*
X0086462Y0012316D01*
X0087784Y0013638D01*
X0088500Y0015365D01*
X0088500Y0017235D01*
X0087784Y0018962D01*
X0086462Y0020284D01*
X0086893Y0019854D02*
X0090707Y0019854D01*
X0090109Y0019255D02*
X0087491Y0019255D01*
X0087911Y0018657D02*
X0089689Y0018657D01*
X0089441Y0018058D02*
X0088159Y0018058D01*
X0088407Y0017460D02*
X0089193Y0017460D01*
X0089100Y0016861D02*
X0088500Y0016861D01*
X0088500Y0016263D02*
X0089100Y0016263D01*
X0089100Y0015664D02*
X0088500Y0015664D01*
X0088376Y0015066D02*
X0089224Y0015066D01*
X0089472Y0014467D02*
X0088128Y0014467D01*
X0087880Y0013869D02*
X0089720Y0013869D01*
X0090183Y0013270D02*
X0087417Y0013270D01*
X0086819Y0012672D02*
X0090781Y0012672D01*
X0091723Y0012073D02*
X0085877Y0012073D01*
X0081723Y0012073D02*
X0075877Y0012073D01*
X0076462Y0012316D02*
X0077784Y0013638D01*
X0078500Y0015365D01*
X0078500Y0017235D01*
X0077784Y0018962D01*
X0076462Y0020284D01*
X0074735Y0021000D01*
X0072865Y0021000D01*
X0071138Y0020284D01*
X0069816Y0018962D01*
X0069100Y0017235D01*
X0069100Y0015365D01*
X0069816Y0013638D01*
X0071138Y0012316D01*
X0072865Y0011600D01*
X0074735Y0011600D01*
X0076462Y0012316D01*
X0076819Y0012672D02*
X0080781Y0012672D01*
X0080183Y0013270D02*
X0077417Y0013270D01*
X0077880Y0013869D02*
X0079720Y0013869D01*
X0079472Y0014467D02*
X0078128Y0014467D01*
X0078376Y0015066D02*
X0079224Y0015066D01*
X0079100Y0015664D02*
X0078500Y0015664D01*
X0078500Y0016263D02*
X0079100Y0016263D01*
X0079100Y0016861D02*
X0078500Y0016861D01*
X0078407Y0017460D02*
X0079193Y0017460D01*
X0079441Y0018058D02*
X0078159Y0018058D01*
X0077911Y0018657D02*
X0079689Y0018657D01*
X0080109Y0019255D02*
X0077491Y0019255D01*
X0076893Y0019854D02*
X0080707Y0019854D01*
X0081543Y0020452D02*
X0076057Y0020452D01*
X0071543Y0020452D02*
X0066057Y0020452D01*
X0066462Y0020284D02*
X0064735Y0021000D01*
X0062865Y0021000D01*
X0061138Y0020284D01*
X0059816Y0018962D01*
X0059100Y0017235D01*
X0059100Y0015365D01*
X0059816Y0013638D01*
X0061138Y0012316D01*
X0062865Y0011600D01*
X0064735Y0011600D01*
X0066462Y0012316D01*
X0067784Y0013638D01*
X0068500Y0015365D01*
X0068500Y0017235D01*
X0067784Y0018962D01*
X0066462Y0020284D01*
X0066893Y0019854D02*
X0070707Y0019854D01*
X0070109Y0019255D02*
X0067491Y0019255D01*
X0067911Y0018657D02*
X0069689Y0018657D01*
X0069441Y0018058D02*
X0068159Y0018058D01*
X0068407Y0017460D02*
X0069193Y0017460D01*
X0069100Y0016861D02*
X0068500Y0016861D01*
X0068500Y0016263D02*
X0069100Y0016263D01*
X0069100Y0015664D02*
X0068500Y0015664D01*
X0068376Y0015066D02*
X0069224Y0015066D01*
X0069472Y0014467D02*
X0068128Y0014467D01*
X0067880Y0013869D02*
X0069720Y0013869D01*
X0070183Y0013270D02*
X0067417Y0013270D01*
X0066819Y0012672D02*
X0070781Y0012672D01*
X0071723Y0012073D02*
X0065877Y0012073D01*
X0061723Y0012073D02*
X0044188Y0012073D01*
X0043941Y0011475D02*
X0253659Y0011475D01*
X0254130Y0010876D02*
X0043470Y0010876D01*
X0042872Y0010278D02*
X0254728Y0010278D01*
X0255327Y0009679D02*
X0042273Y0009679D01*
X0041675Y0009081D02*
X0255925Y0009081D01*
X0256903Y0008482D02*
X0040697Y0008482D01*
X0039252Y0007884D02*
X0258348Y0007884D01*
X0264252Y0007884D02*
X0268165Y0007884D01*
X0268527Y0008482D02*
X0265697Y0008482D01*
X0266675Y0009081D02*
X0268872Y0009081D01*
X0269062Y0009679D02*
X0267273Y0009679D01*
X0267872Y0010278D02*
X0269223Y0010278D01*
X0269322Y0010876D02*
X0268470Y0010876D01*
X0268941Y0011475D02*
X0269350Y0011475D01*
X0269350Y0012073D02*
X0269188Y0012073D01*
X0267567Y0007285D02*
X0008229Y0007285D01*
X0008977Y0006687D02*
X0266814Y0006687D01*
X0265609Y0006088D02*
X0010328Y0006088D01*
X0005750Y0025240D02*
X0269350Y0025240D01*
X0269350Y0024642D02*
X0264432Y0024642D01*
X0265877Y0024043D02*
X0269350Y0024043D01*
X0269350Y0023445D02*
X0266749Y0023445D01*
X0267348Y0022846D02*
X0269350Y0022846D01*
X0269350Y0022248D02*
X0267946Y0022248D01*
X0268545Y0021649D02*
X0269350Y0021649D01*
X0269350Y0021051D02*
X0268971Y0021051D01*
X0269219Y0020452D02*
X0269350Y0020452D01*
X0269350Y0025839D02*
X0005750Y0025839D01*
X0005750Y0026437D02*
X0269350Y0026437D01*
X0269350Y0027036D02*
X0005750Y0027036D01*
X0005750Y0027634D02*
X0269350Y0027634D01*
X0269350Y0028233D02*
X0005750Y0028233D01*
X0005750Y0028832D02*
X0269350Y0028832D01*
X0269350Y0029430D02*
X0005750Y0029430D01*
X0005750Y0030029D02*
X0269350Y0030029D01*
X0269350Y0030627D02*
X0005750Y0030627D01*
X0005750Y0031226D02*
X0269350Y0031226D01*
X0269350Y0031824D02*
X0005750Y0031824D01*
X0005750Y0032423D02*
X0269350Y0032423D01*
X0269350Y0033021D02*
X0157729Y0033021D01*
X0157195Y0032800D02*
X0158849Y0033485D01*
X0160115Y0034751D01*
X0160800Y0036405D01*
X0160800Y0038195D01*
X0160115Y0039849D01*
X0158849Y0041115D01*
X0157195Y0041800D01*
X0155405Y0041800D01*
X0153751Y0041115D01*
X0152485Y0039849D01*
X0152258Y0039300D01*
X0127842Y0039300D01*
X0127615Y0039849D01*
X0126349Y0041115D01*
X0124695Y0041800D01*
X0122905Y0041800D01*
X0121251Y0041115D01*
X0119985Y0039849D01*
X0119300Y0038195D01*
X0119300Y0036405D01*
X0119985Y0034751D01*
X0121251Y0033485D01*
X0122905Y0032800D01*
X0124695Y0032800D01*
X0126349Y0033485D01*
X0127615Y0034751D01*
X0127842Y0035300D01*
X0152258Y0035300D01*
X0152485Y0034751D01*
X0153751Y0033485D01*
X0155405Y0032800D01*
X0157195Y0032800D01*
X0158984Y0033620D02*
X0269350Y0033620D01*
X0269350Y0034218D02*
X0159582Y0034218D01*
X0160142Y0034817D02*
X0269350Y0034817D01*
X0269350Y0035415D02*
X0160390Y0035415D01*
X0160638Y0036014D02*
X0269350Y0036014D01*
X0269350Y0036612D02*
X0160800Y0036612D01*
X0160800Y0037211D02*
X0269350Y0037211D01*
X0269350Y0037809D02*
X0160800Y0037809D01*
X0160712Y0038408D02*
X0269350Y0038408D01*
X0269350Y0039006D02*
X0160464Y0039006D01*
X0160216Y0039605D02*
X0269350Y0039605D01*
X0269350Y0040203D02*
X0159761Y0040203D01*
X0159162Y0040802D02*
X0269350Y0040802D01*
X0269350Y0041400D02*
X0158160Y0041400D01*
X0154440Y0041400D02*
X0125660Y0041400D01*
X0126662Y0040802D02*
X0153438Y0040802D01*
X0152839Y0040203D02*
X0127261Y0040203D01*
X0127716Y0039605D02*
X0152384Y0039605D01*
X0152458Y0034817D02*
X0127642Y0034817D01*
X0127082Y0034218D02*
X0153018Y0034218D01*
X0153616Y0033620D02*
X0126484Y0033620D01*
X0125229Y0033021D02*
X0154871Y0033021D01*
X0122371Y0033021D02*
X0005750Y0033021D01*
X0005750Y0033620D02*
X0121116Y0033620D01*
X0120518Y0034218D02*
X0005750Y0034218D01*
X0005750Y0034817D02*
X0119958Y0034817D01*
X0119710Y0035415D02*
X0005750Y0035415D01*
X0005750Y0036014D02*
X0119462Y0036014D01*
X0119300Y0036612D02*
X0005750Y0036612D01*
X0005750Y0037211D02*
X0119300Y0037211D01*
X0119300Y0037809D02*
X0005750Y0037809D01*
X0005750Y0038408D02*
X0119388Y0038408D01*
X0119636Y0039006D02*
X0005750Y0039006D01*
X0005750Y0039605D02*
X0119884Y0039605D01*
X0120339Y0040203D02*
X0005750Y0040203D01*
X0005750Y0040802D02*
X0120938Y0040802D01*
X0121940Y0041400D02*
X0005750Y0041400D01*
X0005750Y0041999D02*
X0269350Y0041999D01*
X0269350Y0042597D02*
X0005750Y0042597D01*
X0005750Y0043196D02*
X0269350Y0043196D01*
X0269350Y0043794D02*
X0005750Y0043794D01*
X0005750Y0044393D02*
X0269350Y0044393D01*
X0269350Y0044991D02*
X0005750Y0044991D01*
X0005750Y0045590D02*
X0269350Y0045590D01*
X0269350Y0046188D02*
X0005750Y0046188D01*
X0005750Y0046787D02*
X0269350Y0046787D01*
X0269350Y0047385D02*
X0005750Y0047385D01*
X0005750Y0047984D02*
X0269350Y0047984D01*
X0269350Y0048582D02*
X0005750Y0048582D01*
X0005750Y0049181D02*
X0269350Y0049181D01*
X0269350Y0049779D02*
X0005750Y0049779D01*
X0005750Y0050378D02*
X0269350Y0050378D01*
X0269350Y0050976D02*
X0005750Y0050976D01*
X0005750Y0051575D02*
X0269350Y0051575D01*
X0269350Y0052173D02*
X0005750Y0052173D01*
X0005750Y0052772D02*
X0269350Y0052772D01*
X0269350Y0053370D02*
X0005750Y0053370D01*
X0005750Y0053969D02*
X0269350Y0053969D01*
X0269350Y0054568D02*
X0005750Y0054568D01*
X0005750Y0055166D02*
X0269350Y0055166D01*
X0269350Y0055765D02*
X0005750Y0055765D01*
X0005750Y0056363D02*
X0269350Y0056363D01*
X0269350Y0056962D02*
X0005750Y0056962D01*
X0005750Y0057560D02*
X0269350Y0057560D01*
X0269350Y0058159D02*
X0005750Y0058159D01*
X0005750Y0058757D02*
X0269350Y0058757D01*
X0269350Y0059356D02*
X0005750Y0059356D01*
X0005750Y0059954D02*
X0269350Y0059954D01*
X0269350Y0060553D02*
X0005750Y0060553D01*
X0005750Y0061151D02*
X0269350Y0061151D01*
X0269350Y0061750D02*
X0005750Y0061750D01*
X0005750Y0062348D02*
X0269350Y0062348D01*
X0269350Y0062947D02*
X0005750Y0062947D01*
X0005750Y0063545D02*
X0269350Y0063545D01*
X0269350Y0064144D02*
X0005750Y0064144D01*
X0005750Y0064742D02*
X0269350Y0064742D01*
X0269350Y0065341D02*
X0005750Y0065341D01*
X0005750Y0065939D02*
X0269350Y0065939D01*
X0269350Y0066538D02*
X0005750Y0066538D01*
X0005750Y0067136D02*
X0269350Y0067136D01*
X0269350Y0067735D02*
X0005750Y0067735D01*
X0005750Y0068333D02*
X0269350Y0068333D01*
X0269350Y0068932D02*
X0005750Y0068932D01*
X0005750Y0069530D02*
X0269350Y0069530D01*
X0269350Y0070129D02*
X0005750Y0070129D01*
X0005750Y0070727D02*
X0269350Y0070727D01*
X0269350Y0071326D02*
X0005750Y0071326D01*
X0005750Y0071924D02*
X0269350Y0071924D01*
X0269350Y0072523D02*
X0005750Y0072523D01*
X0005750Y0073121D02*
X0269350Y0073121D01*
X0269350Y0073720D02*
X0005750Y0073720D01*
X0005750Y0074318D02*
X0269350Y0074318D01*
X0269350Y0074917D02*
X0005750Y0074917D01*
X0005750Y0075515D02*
X0269350Y0075515D01*
X0269350Y0076114D02*
X0005750Y0076114D01*
X0005750Y0076712D02*
X0269350Y0076712D01*
X0269350Y0077311D02*
X0005750Y0077311D01*
X0005750Y0077909D02*
X0269350Y0077909D01*
X0269350Y0078508D02*
X0005750Y0078508D01*
X0005750Y0079106D02*
X0269350Y0079106D01*
X0269350Y0079705D02*
X0005750Y0079705D01*
X0005750Y0080303D02*
X0269350Y0080303D01*
X0269350Y0080902D02*
X0005750Y0080902D01*
X0005750Y0081501D02*
X0269350Y0081501D01*
X0269350Y0082099D02*
X0005750Y0082099D01*
X0005750Y0082698D02*
X0269350Y0082698D01*
X0269350Y0083296D02*
X0005750Y0083296D01*
X0005750Y0083895D02*
X0269350Y0083895D01*
X0269350Y0084493D02*
X0005750Y0084493D01*
X0005750Y0085092D02*
X0269350Y0085092D01*
X0269350Y0085690D02*
X0005750Y0085690D01*
X0005750Y0086289D02*
X0269350Y0086289D01*
X0269350Y0086887D02*
X0005750Y0086887D01*
X0005750Y0087486D02*
X0269350Y0087486D01*
X0269350Y0088084D02*
X0005750Y0088084D01*
X0005750Y0088683D02*
X0269350Y0088683D01*
X0269350Y0089281D02*
X0005750Y0089281D01*
X0005750Y0089880D02*
X0269350Y0089880D01*
X0269350Y0090478D02*
X0005750Y0090478D01*
X0005750Y0091077D02*
X0269350Y0091077D01*
X0269350Y0091675D02*
X0005750Y0091675D01*
X0005750Y0092274D02*
X0269350Y0092274D01*
X0269350Y0092872D02*
X0005750Y0092872D01*
X0005750Y0093471D02*
X0269350Y0093471D01*
X0269350Y0094069D02*
X0005750Y0094069D01*
X0005750Y0094668D02*
X0269350Y0094668D01*
X0269350Y0095266D02*
X0005750Y0095266D01*
X0005750Y0095865D02*
X0269350Y0095865D01*
X0269350Y0096463D02*
X0005750Y0096463D01*
X0005750Y0097062D02*
X0269350Y0097062D01*
X0269350Y0097660D02*
X0005750Y0097660D01*
X0005750Y0098259D02*
X0269350Y0098259D01*
X0269350Y0098857D02*
X0005750Y0098857D01*
X0005750Y0099456D02*
X0269350Y0099456D01*
X0269350Y0100054D02*
X0005750Y0100054D01*
X0005750Y0100653D02*
X0269350Y0100653D01*
X0269350Y0101251D02*
X0005750Y0101251D01*
X0005750Y0101850D02*
X0269350Y0101850D01*
X0269350Y0102448D02*
X0005750Y0102448D01*
X0005750Y0103047D02*
X0269350Y0103047D01*
X0269350Y0103645D02*
X0005750Y0103645D01*
X0005750Y0104244D02*
X0269350Y0104244D01*
X0269350Y0104842D02*
X0005750Y0104842D01*
X0005750Y0105441D02*
X0269350Y0105441D01*
X0269350Y0106039D02*
X0005750Y0106039D01*
X0005750Y0106638D02*
X0269350Y0106638D01*
X0269350Y0107237D02*
X0005750Y0107237D01*
X0005750Y0107835D02*
X0269350Y0107835D01*
X0269350Y0108434D02*
X0005750Y0108434D01*
X0005750Y0109032D02*
X0269350Y0109032D01*
X0269350Y0109631D02*
X0005750Y0109631D01*
X0005750Y0110229D02*
X0269350Y0110229D01*
X0269350Y0110828D02*
X0005750Y0110828D01*
X0005750Y0111426D02*
X0269350Y0111426D01*
X0269350Y0112025D02*
X0005750Y0112025D01*
X0005750Y0112623D02*
X0269350Y0112623D01*
X0269350Y0113222D02*
X0005750Y0113222D01*
X0005750Y0113820D02*
X0269350Y0113820D01*
X0269350Y0114419D02*
X0005750Y0114419D01*
X0005750Y0115017D02*
X0269350Y0115017D01*
X0269350Y0115616D02*
X0005750Y0115616D01*
X0005750Y0116214D02*
X0269350Y0116214D01*
X0269350Y0116813D02*
X0032748Y0116813D01*
X0032235Y0116600D02*
X0033962Y0117316D01*
X0035284Y0118638D01*
X0036000Y0120365D01*
X0036000Y0122235D01*
X0035284Y0123962D01*
X0033962Y0125284D01*
X0032235Y0126000D01*
X0030365Y0126000D01*
X0028638Y0125284D01*
X0027316Y0123962D01*
X0026600Y0122235D01*
X0026600Y0120365D01*
X0027316Y0118638D01*
X0028638Y0117316D01*
X0030365Y0116600D01*
X0032235Y0116600D01*
X0034058Y0117411D02*
X0269350Y0117411D01*
X0269350Y0118010D02*
X0034657Y0118010D01*
X0035255Y0118608D02*
X0269350Y0118608D01*
X0269350Y0119207D02*
X0035520Y0119207D01*
X0035768Y0119805D02*
X0269350Y0119805D01*
X0269350Y0120404D02*
X0036000Y0120404D01*
X0036000Y0121002D02*
X0269350Y0121002D01*
X0269350Y0121601D02*
X0036000Y0121601D01*
X0036000Y0122199D02*
X0269350Y0122199D01*
X0269350Y0122798D02*
X0035767Y0122798D01*
X0035519Y0123396D02*
X0269350Y0123396D01*
X0269350Y0123995D02*
X0035252Y0123995D01*
X0034653Y0124593D02*
X0269350Y0124593D01*
X0269350Y0125192D02*
X0034055Y0125192D01*
X0032741Y0125790D02*
X0269350Y0125790D01*
X0269350Y0126389D02*
X0005750Y0126389D01*
X0005750Y0126987D02*
X0019430Y0126987D01*
X0018638Y0127316D02*
X0020365Y0126600D01*
X0022235Y0126600D01*
X0023962Y0127316D01*
X0025284Y0128638D01*
X0026000Y0130365D01*
X0026000Y0132235D01*
X0025284Y0133962D01*
X0023962Y0135284D01*
X0022235Y0136000D01*
X0020365Y0136000D01*
X0018638Y0135284D01*
X0017316Y0133962D01*
X0016600Y0132235D01*
X0016600Y0130365D01*
X0017316Y0128638D01*
X0018638Y0127316D01*
X0018367Y0127586D02*
X0005750Y0127586D01*
X0005750Y0128184D02*
X0017769Y0128184D01*
X0017255Y0128783D02*
X0005750Y0128783D01*
X0005750Y0129381D02*
X0017007Y0129381D01*
X0016760Y0129980D02*
X0005750Y0129980D01*
X0005750Y0130578D02*
X0016600Y0130578D01*
X0016600Y0131177D02*
X0005750Y0131177D01*
X0005750Y0131775D02*
X0016600Y0131775D01*
X0016658Y0132374D02*
X0005750Y0132374D01*
X0005750Y0132972D02*
X0016906Y0132972D01*
X0017153Y0133571D02*
X0005750Y0133571D01*
X0005750Y0134170D02*
X0017523Y0134170D01*
X0018121Y0134768D02*
X0005750Y0134768D01*
X0005750Y0135367D02*
X0018836Y0135367D01*
X0020281Y0135965D02*
X0005750Y0135965D01*
X0005750Y0136564D02*
X0133300Y0136564D01*
X0133300Y0137162D02*
X0033592Y0137162D01*
X0033962Y0137316D02*
X0035284Y0138638D01*
X0036000Y0140365D01*
X0036000Y0142235D01*
X0035284Y0143962D01*
X0033962Y0145284D01*
X0032235Y0146000D01*
X0030365Y0146000D01*
X0028638Y0145284D01*
X0027316Y0143962D01*
X0026600Y0142235D01*
X0026600Y0140365D01*
X0027316Y0138638D01*
X0028638Y0137316D01*
X0030365Y0136600D01*
X0032235Y0136600D01*
X0033962Y0137316D01*
X0034407Y0137761D02*
X0133534Y0137761D01*
X0133300Y0137195D02*
X0133300Y0135405D01*
X0133985Y0133751D01*
X0135251Y0132485D01*
X0136905Y0131800D01*
X0138695Y0131800D01*
X0140349Y0132485D01*
X0141615Y0133751D01*
X0141842Y0134300D01*
X0197758Y0134300D01*
X0197985Y0133751D01*
X0199251Y0132485D01*
X0200905Y0131800D01*
X0202695Y0131800D01*
X0204349Y0132485D01*
X0205615Y0133751D01*
X0206300Y0135405D01*
X0206300Y0137195D01*
X0205615Y0138849D01*
X0204349Y0140115D01*
X0202695Y0140800D01*
X0200905Y0140800D01*
X0199251Y0140115D01*
X0197985Y0138849D01*
X0197758Y0138300D01*
X0141842Y0138300D01*
X0141615Y0138849D01*
X0140349Y0140115D01*
X0138695Y0140800D01*
X0136905Y0140800D01*
X0135251Y0140115D01*
X0133985Y0138849D01*
X0133300Y0137195D01*
X0133300Y0135965D02*
X0032319Y0135965D01*
X0032235Y0136000D02*
X0030365Y0136000D01*
X0028638Y0135284D01*
X0027316Y0133962D01*
X0026600Y0132235D01*
X0026600Y0130365D01*
X0027316Y0128638D01*
X0028638Y0127316D01*
X0030365Y0126600D01*
X0032235Y0126600D01*
X0033962Y0127316D01*
X0035284Y0128638D01*
X0036000Y0130365D01*
X0036000Y0132235D01*
X0035284Y0133962D01*
X0033962Y0135284D01*
X0032235Y0136000D01*
X0033764Y0135367D02*
X0133316Y0135367D01*
X0133564Y0134768D02*
X0034479Y0134768D01*
X0035077Y0134170D02*
X0133812Y0134170D01*
X0134165Y0133571D02*
X0035447Y0133571D01*
X0035694Y0132972D02*
X0134764Y0132972D01*
X0135519Y0132374D02*
X0035942Y0132374D01*
X0036000Y0131775D02*
X0269350Y0131775D01*
X0269350Y0131177D02*
X0036000Y0131177D01*
X0036000Y0130578D02*
X0269350Y0130578D01*
X0269350Y0129980D02*
X0035840Y0129980D01*
X0035593Y0129381D02*
X0269350Y0129381D01*
X0269350Y0128783D02*
X0035345Y0128783D01*
X0034831Y0128184D02*
X0269350Y0128184D01*
X0269350Y0127586D02*
X0034233Y0127586D01*
X0033170Y0126987D02*
X0269350Y0126987D01*
X0269350Y0132374D02*
X0204081Y0132374D01*
X0204836Y0132972D02*
X0269350Y0132972D01*
X0269350Y0133571D02*
X0205435Y0133571D01*
X0205788Y0134170D02*
X0269350Y0134170D01*
X0269350Y0134768D02*
X0206036Y0134768D01*
X0206284Y0135367D02*
X0269350Y0135367D01*
X0269350Y0135965D02*
X0206300Y0135965D01*
X0206300Y0136564D02*
X0269350Y0136564D01*
X0269350Y0137162D02*
X0206300Y0137162D01*
X0206066Y0137761D02*
X0269350Y0137761D01*
X0269350Y0138359D02*
X0205818Y0138359D01*
X0205506Y0138958D02*
X0269350Y0138958D01*
X0269350Y0139556D02*
X0204908Y0139556D01*
X0204253Y0140155D02*
X0269350Y0140155D01*
X0269350Y0140753D02*
X0202808Y0140753D01*
X0200792Y0140753D02*
X0138808Y0140753D01*
X0140253Y0140155D02*
X0199347Y0140155D01*
X0198692Y0139556D02*
X0140908Y0139556D01*
X0141506Y0138958D02*
X0198094Y0138958D01*
X0197782Y0138359D02*
X0141818Y0138359D01*
X0141788Y0134170D02*
X0197812Y0134170D01*
X0198165Y0133571D02*
X0141435Y0133571D01*
X0140836Y0132972D02*
X0198764Y0132972D01*
X0199519Y0132374D02*
X0140081Y0132374D01*
X0133782Y0138359D02*
X0035006Y0138359D01*
X0035417Y0138958D02*
X0134094Y0138958D01*
X0134692Y0139556D02*
X0035665Y0139556D01*
X0035913Y0140155D02*
X0135347Y0140155D01*
X0136792Y0140753D02*
X0036000Y0140753D01*
X0036000Y0141352D02*
X0269350Y0141352D01*
X0269350Y0141950D02*
X0036000Y0141950D01*
X0035870Y0142549D02*
X0269350Y0142549D01*
X0269350Y0143147D02*
X0035622Y0143147D01*
X0035374Y0143746D02*
X0269350Y0143746D01*
X0269350Y0144344D02*
X0034903Y0144344D01*
X0034304Y0144943D02*
X0269350Y0144943D01*
X0269350Y0145541D02*
X0033342Y0145541D01*
X0032569Y0146738D02*
X0269350Y0146738D01*
X0269350Y0146140D02*
X0005750Y0146140D01*
X0005750Y0146738D02*
X0020031Y0146738D01*
X0020365Y0146600D02*
X0022235Y0146600D01*
X0023962Y0147316D01*
X0025284Y0148638D01*
X0026000Y0150365D01*
X0026000Y0152235D01*
X0025284Y0153962D01*
X0023962Y0155284D01*
X0022235Y0156000D01*
X0020365Y0156000D01*
X0018638Y0155284D01*
X0017316Y0153962D01*
X0016600Y0152235D01*
X0016600Y0150365D01*
X0017316Y0148638D01*
X0018638Y0147316D01*
X0020365Y0146600D01*
X0020365Y0146000D02*
X0018638Y0145284D01*
X0017316Y0143962D01*
X0016600Y0142235D01*
X0016600Y0140365D01*
X0017316Y0138638D01*
X0018638Y0137316D01*
X0020365Y0136600D01*
X0022235Y0136600D01*
X0023962Y0137316D01*
X0025284Y0138638D01*
X0026000Y0140365D01*
X0026000Y0142235D01*
X0025284Y0143962D01*
X0023962Y0145284D01*
X0022235Y0146000D01*
X0020365Y0146000D01*
X0019258Y0145541D02*
X0005750Y0145541D01*
X0005750Y0144943D02*
X0018296Y0144943D01*
X0017697Y0144344D02*
X0005750Y0144344D01*
X0005750Y0143746D02*
X0017226Y0143746D01*
X0016978Y0143147D02*
X0005750Y0143147D01*
X0005750Y0142549D02*
X0016730Y0142549D01*
X0016600Y0141950D02*
X0005750Y0141950D01*
X0005750Y0141352D02*
X0016600Y0141352D01*
X0016600Y0140753D02*
X0005750Y0140753D01*
X0005750Y0140155D02*
X0016687Y0140155D01*
X0016935Y0139556D02*
X0005750Y0139556D01*
X0005750Y0138958D02*
X0017183Y0138958D01*
X0017594Y0138359D02*
X0005750Y0138359D01*
X0005750Y0137761D02*
X0018193Y0137761D01*
X0019008Y0137162D02*
X0005750Y0137162D01*
X0005750Y0147337D02*
X0018616Y0147337D01*
X0018018Y0147935D02*
X0005750Y0147935D01*
X0005750Y0148534D02*
X0017419Y0148534D01*
X0017111Y0149132D02*
X0005750Y0149132D01*
X0005750Y0149731D02*
X0016863Y0149731D01*
X0016615Y0150329D02*
X0005750Y0150329D01*
X0005750Y0150928D02*
X0016600Y0150928D01*
X0016600Y0151526D02*
X0005750Y0151526D01*
X0005750Y0152125D02*
X0016600Y0152125D01*
X0016802Y0152723D02*
X0005750Y0152723D01*
X0005750Y0153322D02*
X0017050Y0153322D01*
X0017298Y0153920D02*
X0005750Y0153920D01*
X0005750Y0154519D02*
X0017872Y0154519D01*
X0018471Y0155117D02*
X0005750Y0155117D01*
X0005750Y0155716D02*
X0019679Y0155716D01*
X0020365Y0156600D02*
X0018638Y0157316D01*
X0017316Y0158638D01*
X0016600Y0160365D01*
X0016600Y0162235D01*
X0017316Y0163962D01*
X0018638Y0165284D01*
X0020365Y0166000D01*
X0022235Y0166000D01*
X0023962Y0165284D01*
X0025284Y0163962D01*
X0026000Y0162235D01*
X0026000Y0160365D01*
X0025284Y0158638D01*
X0023962Y0157316D01*
X0022235Y0156600D01*
X0020365Y0156600D01*
X0019610Y0156913D02*
X0005750Y0156913D01*
X0005750Y0157511D02*
X0018442Y0157511D01*
X0017843Y0158110D02*
X0005750Y0158110D01*
X0005750Y0158708D02*
X0017286Y0158708D01*
X0017038Y0159307D02*
X0005750Y0159307D01*
X0005750Y0159905D02*
X0016790Y0159905D01*
X0016600Y0160504D02*
X0005750Y0160504D01*
X0005750Y0161103D02*
X0016600Y0161103D01*
X0016600Y0161701D02*
X0005750Y0161701D01*
X0005750Y0162300D02*
X0016627Y0162300D01*
X0016875Y0162898D02*
X0005750Y0162898D01*
X0005750Y0163497D02*
X0017123Y0163497D01*
X0017448Y0164095D02*
X0005750Y0164095D01*
X0005750Y0164694D02*
X0018047Y0164694D01*
X0018656Y0165292D02*
X0005750Y0165292D01*
X0005750Y0165891D02*
X0020101Y0165891D01*
X0020365Y0166600D02*
X0018638Y0167316D01*
X0017316Y0168638D01*
X0016600Y0170365D01*
X0016600Y0172235D01*
X0017316Y0173962D01*
X0018638Y0175284D01*
X0020365Y0176000D01*
X0022235Y0176000D01*
X0023962Y0175284D01*
X0025284Y0173962D01*
X0026000Y0172235D01*
X0026000Y0170365D01*
X0025284Y0168638D01*
X0023962Y0167316D01*
X0022235Y0166600D01*
X0020365Y0166600D01*
X0019188Y0167088D02*
X0005750Y0167088D01*
X0005750Y0167686D02*
X0018267Y0167686D01*
X0017669Y0168285D02*
X0005750Y0168285D01*
X0005750Y0168883D02*
X0017214Y0168883D01*
X0016966Y0169482D02*
X0005750Y0169482D01*
X0005750Y0170080D02*
X0016718Y0170080D01*
X0016600Y0170679D02*
X0005750Y0170679D01*
X0005750Y0171277D02*
X0016600Y0171277D01*
X0016600Y0171876D02*
X0013203Y0171876D01*
X0013020Y0171800D02*
X0014674Y0172485D01*
X0015940Y0173751D01*
X0016625Y0175405D01*
X0016625Y0177195D01*
X0015940Y0178849D01*
X0014674Y0180115D01*
X0014125Y0180342D01*
X0014125Y0226685D01*
X0014849Y0226985D01*
X0016115Y0228251D01*
X0016800Y0229905D01*
X0016800Y0231695D01*
X0016115Y0233349D01*
X0014849Y0234615D01*
X0013195Y0235300D01*
X0011405Y0235300D01*
X0009751Y0234615D01*
X0008485Y0233349D01*
X0007800Y0231695D01*
X0007800Y0229905D01*
X0008485Y0228251D01*
X0009751Y0226985D01*
X0010125Y0226830D01*
X0010125Y0180342D01*
X0009576Y0180115D01*
X0008310Y0178849D01*
X0007625Y0177195D01*
X0007625Y0175405D01*
X0008310Y0173751D01*
X0009576Y0172485D01*
X0011230Y0171800D01*
X0013020Y0171800D01*
X0014648Y0172474D02*
X0016699Y0172474D01*
X0016947Y0173073D02*
X0015262Y0173073D01*
X0015860Y0173671D02*
X0017195Y0173671D01*
X0017623Y0174270D02*
X0016155Y0174270D01*
X0016403Y0174868D02*
X0018221Y0174868D01*
X0019078Y0175467D02*
X0016625Y0175467D01*
X0016625Y0176065D02*
X0133300Y0176065D01*
X0133300Y0175467D02*
X0033522Y0175467D01*
X0033962Y0175284D02*
X0032235Y0176000D01*
X0030365Y0176000D01*
X0028638Y0175284D01*
X0027316Y0173962D01*
X0026600Y0172235D01*
X0026600Y0170365D01*
X0027316Y0168638D01*
X0028638Y0167316D01*
X0030365Y0166600D01*
X0032235Y0166600D01*
X0033962Y0167316D01*
X0035284Y0168638D01*
X0036000Y0170365D01*
X0036000Y0172235D01*
X0035284Y0173962D01*
X0033962Y0175284D01*
X0034379Y0174868D02*
X0133522Y0174868D01*
X0133300Y0175405D02*
X0133985Y0173751D01*
X0135251Y0172485D01*
X0136905Y0171800D01*
X0138695Y0171800D01*
X0140349Y0172485D01*
X0141615Y0173751D01*
X0141842Y0174300D01*
X0186258Y0174300D01*
X0186485Y0173751D01*
X0187751Y0172485D01*
X0189405Y0171800D01*
X0191195Y0171800D01*
X0192849Y0172485D01*
X0194115Y0173751D01*
X0194800Y0175405D01*
X0194800Y0177195D01*
X0194115Y0178849D01*
X0192849Y0180115D01*
X0191195Y0180800D01*
X0189405Y0180800D01*
X0187751Y0180115D01*
X0186485Y0178849D01*
X0186258Y0178300D01*
X0141842Y0178300D01*
X0141615Y0178849D01*
X0140349Y0180115D01*
X0138695Y0180800D01*
X0136905Y0180800D01*
X0135251Y0180115D01*
X0133985Y0178849D01*
X0133300Y0177195D01*
X0133300Y0175405D01*
X0133770Y0174270D02*
X0034977Y0174270D01*
X0035405Y0173671D02*
X0134065Y0173671D01*
X0134663Y0173073D02*
X0035653Y0173073D01*
X0035901Y0172474D02*
X0135277Y0172474D01*
X0136722Y0171876D02*
X0036000Y0171876D01*
X0036000Y0171277D02*
X0269350Y0171277D01*
X0269350Y0170679D02*
X0176488Y0170679D01*
X0176195Y0170800D02*
X0174405Y0170800D01*
X0172751Y0170115D01*
X0171485Y0168849D01*
X0171258Y0168300D01*
X0141842Y0168300D01*
X0141615Y0168849D01*
X0140349Y0170115D01*
X0138695Y0170800D01*
X0136905Y0170800D01*
X0135251Y0170115D01*
X0133985Y0168849D01*
X0133300Y0167195D01*
X0133300Y0165405D01*
X0133985Y0163751D01*
X0135251Y0162485D01*
X0136905Y0161800D01*
X0138695Y0161800D01*
X0140349Y0162485D01*
X0141615Y0163751D01*
X0141842Y0164300D01*
X0171258Y0164300D01*
X0171485Y0163751D01*
X0172751Y0162485D01*
X0174405Y0161800D01*
X0176195Y0161800D01*
X0177849Y0162485D01*
X0179115Y0163751D01*
X0179800Y0165405D01*
X0179800Y0167195D01*
X0179115Y0168849D01*
X0177849Y0170115D01*
X0176195Y0170800D01*
X0177884Y0170080D02*
X0269350Y0170080D01*
X0269350Y0169482D02*
X0178482Y0169482D01*
X0179081Y0168883D02*
X0269350Y0168883D01*
X0269350Y0168285D02*
X0179349Y0168285D01*
X0179597Y0167686D02*
X0269350Y0167686D01*
X0269350Y0167088D02*
X0179800Y0167088D01*
X0179800Y0166489D02*
X0269350Y0166489D01*
X0269350Y0165891D02*
X0179800Y0165891D01*
X0179753Y0165292D02*
X0269350Y0165292D01*
X0269350Y0164694D02*
X0179505Y0164694D01*
X0179257Y0164095D02*
X0269350Y0164095D01*
X0269350Y0163497D02*
X0178861Y0163497D01*
X0178262Y0162898D02*
X0269350Y0162898D01*
X0269350Y0162300D02*
X0177401Y0162300D01*
X0173199Y0162300D02*
X0139901Y0162300D01*
X0140762Y0162898D02*
X0172338Y0162898D01*
X0171739Y0163497D02*
X0141361Y0163497D01*
X0141757Y0164095D02*
X0171343Y0164095D01*
X0171519Y0168883D02*
X0141581Y0168883D01*
X0140982Y0169482D02*
X0172118Y0169482D01*
X0172716Y0170080D02*
X0140384Y0170080D01*
X0138988Y0170679D02*
X0174112Y0170679D01*
X0186270Y0174270D02*
X0141830Y0174270D01*
X0141535Y0173671D02*
X0186565Y0173671D01*
X0187163Y0173073D02*
X0140937Y0173073D01*
X0140323Y0172474D02*
X0187777Y0172474D01*
X0189222Y0171876D02*
X0138878Y0171876D01*
X0136612Y0170679D02*
X0036000Y0170679D01*
X0035882Y0170080D02*
X0135216Y0170080D01*
X0134618Y0169482D02*
X0035634Y0169482D01*
X0035386Y0168883D02*
X0134019Y0168883D01*
X0133751Y0168285D02*
X0034931Y0168285D01*
X0034333Y0167686D02*
X0133503Y0167686D01*
X0133300Y0167088D02*
X0033412Y0167088D01*
X0032499Y0165891D02*
X0133300Y0165891D01*
X0133300Y0166489D02*
X0005750Y0166489D01*
X0005750Y0171876D02*
X0011047Y0171876D01*
X0009602Y0172474D02*
X0005750Y0172474D01*
X0005750Y0173073D02*
X0008988Y0173073D01*
X0008390Y0173671D02*
X0005750Y0173671D01*
X0005750Y0174270D02*
X0008095Y0174270D01*
X0007847Y0174868D02*
X0005750Y0174868D01*
X0005750Y0175467D02*
X0007625Y0175467D01*
X0007625Y0176065D02*
X0005750Y0176065D01*
X0005750Y0176664D02*
X0007625Y0176664D01*
X0007653Y0177262D02*
X0005750Y0177262D01*
X0005750Y0177861D02*
X0007901Y0177861D01*
X0008149Y0178459D02*
X0005750Y0178459D01*
X0005750Y0179058D02*
X0008519Y0179058D01*
X0009117Y0179656D02*
X0005750Y0179656D01*
X0005750Y0180255D02*
X0009914Y0180255D01*
X0010125Y0180853D02*
X0005750Y0180853D01*
X0005750Y0181452D02*
X0010125Y0181452D01*
X0010125Y0182050D02*
X0005750Y0182050D01*
X0005750Y0182649D02*
X0010125Y0182649D01*
X0010125Y0183247D02*
X0005750Y0183247D01*
X0005750Y0183846D02*
X0010125Y0183846D01*
X0010125Y0184444D02*
X0005750Y0184444D01*
X0005750Y0185043D02*
X0010125Y0185043D01*
X0010125Y0185641D02*
X0005750Y0185641D01*
X0005750Y0186240D02*
X0010125Y0186240D01*
X0010125Y0186839D02*
X0005750Y0186839D01*
X0005750Y0187437D02*
X0010125Y0187437D01*
X0010125Y0188036D02*
X0005750Y0188036D01*
X0005750Y0188634D02*
X0010125Y0188634D01*
X0010125Y0189233D02*
X0005750Y0189233D01*
X0005750Y0189831D02*
X0010125Y0189831D01*
X0010125Y0190430D02*
X0005750Y0190430D01*
X0005750Y0191028D02*
X0010125Y0191028D01*
X0010125Y0191627D02*
X0005750Y0191627D01*
X0005750Y0192225D02*
X0010125Y0192225D01*
X0010125Y0192824D02*
X0005750Y0192824D01*
X0005750Y0193422D02*
X0010125Y0193422D01*
X0010125Y0194021D02*
X0005750Y0194021D01*
X0005750Y0194619D02*
X0010125Y0194619D01*
X0010125Y0195218D02*
X0005750Y0195218D01*
X0005750Y0195816D02*
X0010125Y0195816D01*
X0010125Y0196415D02*
X0005750Y0196415D01*
X0005750Y0197013D02*
X0010125Y0197013D01*
X0010125Y0197612D02*
X0005750Y0197612D01*
X0005750Y0198210D02*
X0010125Y0198210D01*
X0010125Y0198809D02*
X0005750Y0198809D01*
X0005750Y0199407D02*
X0010125Y0199407D01*
X0010125Y0200006D02*
X0005750Y0200006D01*
X0005750Y0200604D02*
X0010125Y0200604D01*
X0010125Y0201203D02*
X0005750Y0201203D01*
X0005750Y0201801D02*
X0010125Y0201801D01*
X0010125Y0202400D02*
X0005750Y0202400D01*
X0005750Y0202998D02*
X0010125Y0202998D01*
X0010125Y0203597D02*
X0005750Y0203597D01*
X0005750Y0204195D02*
X0010125Y0204195D01*
X0010125Y0204794D02*
X0005750Y0204794D01*
X0005750Y0205392D02*
X0010125Y0205392D01*
X0010125Y0205991D02*
X0005750Y0205991D01*
X0005750Y0206589D02*
X0010125Y0206589D01*
X0010125Y0207188D02*
X0005750Y0207188D01*
X0005750Y0207786D02*
X0010125Y0207786D01*
X0010125Y0208385D02*
X0005750Y0208385D01*
X0005750Y0208983D02*
X0010125Y0208983D01*
X0010125Y0209582D02*
X0005750Y0209582D01*
X0005750Y0210180D02*
X0010125Y0210180D01*
X0010125Y0210779D02*
X0005750Y0210779D01*
X0005750Y0211377D02*
X0010125Y0211377D01*
X0010125Y0211976D02*
X0005750Y0211976D01*
X0005750Y0212574D02*
X0010125Y0212574D01*
X0010125Y0213173D02*
X0005750Y0213173D01*
X0005750Y0213772D02*
X0010125Y0213772D01*
X0010125Y0214370D02*
X0005750Y0214370D01*
X0005750Y0214969D02*
X0010125Y0214969D01*
X0010125Y0215567D02*
X0005750Y0215567D01*
X0005750Y0216166D02*
X0010125Y0216166D01*
X0010125Y0216764D02*
X0005750Y0216764D01*
X0005750Y0217363D02*
X0010125Y0217363D01*
X0010125Y0217961D02*
X0005750Y0217961D01*
X0005750Y0218560D02*
X0010125Y0218560D01*
X0010125Y0219158D02*
X0005750Y0219158D01*
X0005750Y0219757D02*
X0010125Y0219757D01*
X0010125Y0220355D02*
X0005750Y0220355D01*
X0005750Y0220954D02*
X0010125Y0220954D01*
X0010125Y0221552D02*
X0005750Y0221552D01*
X0005750Y0222151D02*
X0010125Y0222151D01*
X0010125Y0222749D02*
X0005750Y0222749D01*
X0005750Y0223348D02*
X0010125Y0223348D01*
X0010125Y0223946D02*
X0005750Y0223946D01*
X0005750Y0224545D02*
X0010125Y0224545D01*
X0010125Y0225143D02*
X0005750Y0225143D01*
X0005750Y0225742D02*
X0010125Y0225742D01*
X0010125Y0226340D02*
X0005750Y0226340D01*
X0005750Y0226939D02*
X0009863Y0226939D01*
X0009199Y0227537D02*
X0005750Y0227537D01*
X0005750Y0228136D02*
X0008600Y0228136D01*
X0008285Y0228734D02*
X0005750Y0228734D01*
X0005750Y0229333D02*
X0008037Y0229333D01*
X0007800Y0229931D02*
X0005750Y0229931D01*
X0005750Y0230530D02*
X0007800Y0230530D01*
X0007800Y0231128D02*
X0005750Y0231128D01*
X0005750Y0231727D02*
X0007813Y0231727D01*
X0008061Y0232325D02*
X0005750Y0232325D01*
X0005750Y0232924D02*
X0008309Y0232924D01*
X0008658Y0233522D02*
X0005750Y0233522D01*
X0005750Y0234121D02*
X0009257Y0234121D01*
X0010003Y0234719D02*
X0005750Y0234719D01*
X0005750Y0235318D02*
X0269350Y0235318D01*
X0269350Y0235916D02*
X0005750Y0235916D01*
X0005750Y0236515D02*
X0269350Y0236515D01*
X0269350Y0237113D02*
X0005750Y0237113D01*
X0005750Y0237712D02*
X0269350Y0237712D01*
X0269350Y0238310D02*
X0005750Y0238310D01*
X0005750Y0238909D02*
X0269350Y0238909D01*
X0269350Y0239508D02*
X0005750Y0239508D01*
X0005750Y0240106D02*
X0269350Y0240106D01*
X0269350Y0240705D02*
X0005750Y0240705D01*
X0005750Y0241303D02*
X0269350Y0241303D01*
X0269350Y0241902D02*
X0005750Y0241902D01*
X0005750Y0242500D02*
X0269350Y0242500D01*
X0269350Y0243099D02*
X0005750Y0243099D01*
X0005750Y0243697D02*
X0269350Y0243697D01*
X0269350Y0244296D02*
X0005750Y0244296D01*
X0005750Y0244894D02*
X0269350Y0244894D01*
X0269350Y0245493D02*
X0005750Y0245493D01*
X0005750Y0246091D02*
X0269350Y0246091D01*
X0269350Y0246690D02*
X0005750Y0246690D01*
X0005750Y0247288D02*
X0269350Y0247288D01*
X0269350Y0247887D02*
X0005750Y0247887D01*
X0005750Y0248485D02*
X0269350Y0248485D01*
X0269350Y0249084D02*
X0005750Y0249084D01*
X0005750Y0249682D02*
X0269350Y0249682D01*
X0269350Y0250281D02*
X0005750Y0250281D01*
X0005750Y0250879D02*
X0269350Y0250879D01*
X0269350Y0251478D02*
X0005750Y0251478D01*
X0005750Y0252076D02*
X0269350Y0252076D01*
X0269350Y0252675D02*
X0005750Y0252675D01*
X0005750Y0253273D02*
X0269350Y0253273D01*
X0269350Y0253872D02*
X0005750Y0253872D01*
X0005750Y0254470D02*
X0269350Y0254470D01*
X0269350Y0255069D02*
X0005750Y0255069D01*
X0005750Y0255667D02*
X0269350Y0255667D01*
X0269350Y0256266D02*
X0005750Y0256266D01*
X0005750Y0256864D02*
X0269350Y0256864D01*
X0269350Y0257463D02*
X0005750Y0257463D01*
X0005750Y0258061D02*
X0269350Y0258061D01*
X0269350Y0258660D02*
X0005750Y0258660D01*
X0005750Y0259258D02*
X0269350Y0259258D01*
X0269350Y0259857D02*
X0005750Y0259857D01*
X0005750Y0260455D02*
X0269350Y0260455D01*
X0269350Y0261054D02*
X0005750Y0261054D01*
X0005750Y0261652D02*
X0269350Y0261652D01*
X0269350Y0262251D02*
X0005750Y0262251D01*
X0005750Y0262849D02*
X0269350Y0262849D01*
X0269350Y0263448D02*
X0005750Y0263448D01*
X0005750Y0264046D02*
X0269350Y0264046D01*
X0269350Y0264645D02*
X0005750Y0264645D01*
X0005750Y0265243D02*
X0269350Y0265243D01*
X0269350Y0265842D02*
X0005750Y0265842D01*
X0005750Y0266441D02*
X0269350Y0266441D01*
X0269350Y0267039D02*
X0005750Y0267039D01*
X0005750Y0267638D02*
X0269350Y0267638D01*
X0269350Y0268236D02*
X0005750Y0268236D01*
X0005750Y0268835D02*
X0269350Y0268835D01*
X0269350Y0269433D02*
X0005750Y0269433D01*
X0005750Y0270032D02*
X0269350Y0270032D01*
X0269350Y0270630D02*
X0005750Y0270630D01*
X0005750Y0271229D02*
X0269350Y0271229D01*
X0269350Y0271827D02*
X0005750Y0271827D01*
X0005750Y0272426D02*
X0269350Y0272426D01*
X0269350Y0273024D02*
X0005750Y0273024D01*
X0005750Y0273623D02*
X0269350Y0273623D01*
X0269350Y0274221D02*
X0005750Y0274221D01*
X0005750Y0274820D02*
X0269350Y0274820D01*
X0269350Y0275418D02*
X0005750Y0275418D01*
X0005750Y0276017D02*
X0269350Y0276017D01*
X0269350Y0276615D02*
X0005750Y0276615D01*
X0005750Y0277214D02*
X0269350Y0277214D01*
X0269350Y0277812D02*
X0005750Y0277812D01*
X0005750Y0278411D02*
X0269350Y0278411D01*
X0269350Y0279009D02*
X0005750Y0279009D01*
X0005750Y0279608D02*
X0269350Y0279608D01*
X0269350Y0280206D02*
X0005750Y0280206D01*
X0005750Y0280805D02*
X0269350Y0280805D01*
X0269350Y0281403D02*
X0005750Y0281403D01*
X0005750Y0282002D02*
X0269350Y0282002D01*
X0269350Y0282600D02*
X0005750Y0282600D01*
X0005750Y0283199D02*
X0269350Y0283199D01*
X0269350Y0283797D02*
X0005750Y0283797D01*
X0005750Y0284396D02*
X0269350Y0284396D01*
X0269350Y0284994D02*
X0005750Y0284994D01*
X0005750Y0285593D02*
X0269350Y0285593D01*
X0269350Y0286191D02*
X0005750Y0286191D01*
X0005750Y0286790D02*
X0269350Y0286790D01*
X0269350Y0287388D02*
X0005750Y0287388D01*
X0005750Y0287987D02*
X0269350Y0287987D01*
X0269350Y0288585D02*
X0005750Y0288585D01*
X0005750Y0289184D02*
X0269350Y0289184D01*
X0269350Y0289782D02*
X0005750Y0289782D01*
X0005750Y0290381D02*
X0269350Y0290381D01*
X0269350Y0290979D02*
X0005750Y0290979D01*
X0005750Y0291578D02*
X0269350Y0291578D01*
X0269350Y0292177D02*
X0005750Y0292177D01*
X0005750Y0292775D02*
X0269350Y0292775D01*
X0269350Y0293374D02*
X0005750Y0293374D01*
X0005750Y0293972D02*
X0269350Y0293972D01*
X0269350Y0294571D02*
X0005750Y0294571D01*
X0005750Y0295169D02*
X0269350Y0295169D01*
X0269350Y0295768D02*
X0005750Y0295768D01*
X0005750Y0296366D02*
X0269350Y0296366D01*
X0269350Y0296965D02*
X0005750Y0296965D01*
X0005750Y0297563D02*
X0269350Y0297563D01*
X0269350Y0298162D02*
X0005750Y0298162D01*
X0005750Y0298760D02*
X0269350Y0298760D01*
X0269350Y0299359D02*
X0005750Y0299359D01*
X0005750Y0299957D02*
X0269350Y0299957D01*
X0269350Y0300556D02*
X0005750Y0300556D01*
X0005750Y0301154D02*
X0269350Y0301154D01*
X0269350Y0301753D02*
X0005750Y0301753D01*
X0005750Y0302351D02*
X0269350Y0302351D01*
X0269350Y0302950D02*
X0005750Y0302950D01*
X0005750Y0303548D02*
X0269350Y0303548D01*
X0269350Y0304147D02*
X0005750Y0304147D01*
X0005750Y0304745D02*
X0269350Y0304745D01*
X0269350Y0305344D02*
X0005750Y0305344D01*
X0005750Y0305942D02*
X0269350Y0305942D01*
X0269350Y0306541D02*
X0005750Y0306541D01*
X0005750Y0307139D02*
X0269350Y0307139D01*
X0269350Y0307738D02*
X0263900Y0307738D01*
X0265345Y0308336D02*
X0269350Y0308336D01*
X0269350Y0308935D02*
X0266529Y0308935D01*
X0267128Y0309533D02*
X0269350Y0309533D01*
X0269350Y0310132D02*
X0267726Y0310132D01*
X0268325Y0310730D02*
X0269350Y0310730D01*
X0269350Y0311329D02*
X0268880Y0311329D01*
X0269128Y0311927D02*
X0269350Y0311927D01*
X0269280Y0320307D02*
X0269350Y0320307D01*
X0269350Y0320905D02*
X0269032Y0320905D01*
X0269337Y0321504D02*
X0268691Y0321504D01*
X0269282Y0322102D02*
X0268092Y0322102D01*
X0267494Y0322701D02*
X0269121Y0322701D01*
X0268961Y0323299D02*
X0266895Y0323299D01*
X0266229Y0323898D02*
X0268654Y0323898D01*
X0268308Y0324496D02*
X0264784Y0324496D01*
X0263339Y0325095D02*
X0267787Y0325095D01*
X0267189Y0325693D02*
X0008749Y0325693D01*
X0007968Y0325095D02*
X0034261Y0325095D01*
X0034529Y0325205D02*
X0031255Y0323850D01*
X0028750Y0321345D01*
X0027394Y0318071D01*
X0027394Y0314529D01*
X0028750Y0311255D01*
X0031255Y0308750D01*
X0034529Y0307394D01*
X0038071Y0307394D01*
X0041345Y0308750D01*
X0043850Y0311255D01*
X0045205Y0314529D01*
X0045205Y0318071D01*
X0043850Y0321345D01*
X0041345Y0323850D01*
X0038071Y0325205D01*
X0034529Y0325205D01*
X0032816Y0324496D02*
X0007422Y0324496D01*
X0006877Y0323898D02*
X0031371Y0323898D01*
X0030705Y0323299D02*
X0006573Y0323299D01*
X0006302Y0322701D02*
X0030106Y0322701D01*
X0029508Y0322102D02*
X0006032Y0322102D01*
X0005856Y0321504D02*
X0028909Y0321504D01*
X0028568Y0320905D02*
X0005750Y0320905D01*
X0005750Y0320307D02*
X0028320Y0320307D01*
X0028072Y0319708D02*
X0005750Y0319708D01*
X0005750Y0319110D02*
X0027824Y0319110D01*
X0027577Y0318511D02*
X0005750Y0318511D01*
X0005750Y0317912D02*
X0027394Y0317912D01*
X0027394Y0317314D02*
X0005750Y0317314D01*
X0005750Y0316715D02*
X0027394Y0316715D01*
X0027394Y0316117D02*
X0005750Y0316117D01*
X0005750Y0315518D02*
X0027394Y0315518D01*
X0027394Y0314920D02*
X0005750Y0314920D01*
X0005750Y0314321D02*
X0027480Y0314321D01*
X0027728Y0313723D02*
X0005750Y0313723D01*
X0005750Y0313124D02*
X0027976Y0313124D01*
X0028224Y0312526D02*
X0005750Y0312526D01*
X0005750Y0311927D02*
X0028472Y0311927D01*
X0028720Y0311329D02*
X0005750Y0311329D01*
X0005750Y0310730D02*
X0029275Y0310730D01*
X0029874Y0310132D02*
X0005750Y0310132D01*
X0005750Y0309533D02*
X0030472Y0309533D01*
X0031071Y0308935D02*
X0005750Y0308935D01*
X0005750Y0308336D02*
X0032255Y0308336D01*
X0033700Y0307738D02*
X0005750Y0307738D01*
X0009800Y0326292D02*
X0266159Y0326292D01*
X0259261Y0325095D02*
X0038339Y0325095D01*
X0039784Y0324496D02*
X0257816Y0324496D01*
X0256371Y0323898D02*
X0041229Y0323898D01*
X0041895Y0323299D02*
X0255705Y0323299D01*
X0255106Y0322701D02*
X0042494Y0322701D01*
X0043092Y0322102D02*
X0254508Y0322102D01*
X0253909Y0321504D02*
X0043691Y0321504D01*
X0044032Y0320905D02*
X0052636Y0320905D01*
X0052865Y0321000D02*
X0051138Y0320284D01*
X0049816Y0318962D01*
X0049100Y0317235D01*
X0049100Y0315365D01*
X0049816Y0313638D01*
X0051138Y0312316D01*
X0052865Y0311600D01*
X0054735Y0311600D01*
X0056462Y0312316D01*
X0057784Y0313638D01*
X0058500Y0315365D01*
X0058500Y0317235D01*
X0057784Y0318962D01*
X0056462Y0320284D01*
X0054735Y0321000D01*
X0052865Y0321000D01*
X0051191Y0320307D02*
X0044280Y0320307D01*
X0044528Y0319708D02*
X0050561Y0319708D01*
X0049963Y0319110D02*
X0044776Y0319110D01*
X0045023Y0318511D02*
X0049629Y0318511D01*
X0049381Y0317912D02*
X0045205Y0317912D01*
X0045205Y0317314D02*
X0049133Y0317314D01*
X0049100Y0316715D02*
X0045205Y0316715D01*
X0045205Y0316117D02*
X0049100Y0316117D01*
X0049100Y0315518D02*
X0045205Y0315518D01*
X0045205Y0314920D02*
X0049284Y0314920D01*
X0049532Y0314321D02*
X0045120Y0314321D01*
X0044872Y0313723D02*
X0049780Y0313723D01*
X0050329Y0313124D02*
X0044624Y0313124D01*
X0044376Y0312526D02*
X0050927Y0312526D01*
X0052075Y0311927D02*
X0044128Y0311927D01*
X0043880Y0311329D02*
X0253720Y0311329D01*
X0253472Y0311927D02*
X0245525Y0311927D01*
X0244735Y0311600D02*
X0246462Y0312316D01*
X0247784Y0313638D01*
X0248500Y0315365D01*
X0248500Y0317235D01*
X0247784Y0318962D01*
X0246462Y0320284D01*
X0244735Y0321000D01*
X0242865Y0321000D01*
X0241138Y0320284D01*
X0239816Y0318962D01*
X0239100Y0317235D01*
X0239100Y0315365D01*
X0239816Y0313638D01*
X0241138Y0312316D01*
X0242865Y0311600D01*
X0244735Y0311600D01*
X0246673Y0312526D02*
X0253224Y0312526D01*
X0252976Y0313124D02*
X0247271Y0313124D01*
X0247820Y0313723D02*
X0252728Y0313723D01*
X0252480Y0314321D02*
X0248068Y0314321D01*
X0248316Y0314920D02*
X0252394Y0314920D01*
X0252394Y0315518D02*
X0248500Y0315518D01*
X0248500Y0316117D02*
X0252394Y0316117D01*
X0252394Y0316715D02*
X0248500Y0316715D01*
X0248467Y0317314D02*
X0252394Y0317314D01*
X0252394Y0317912D02*
X0248219Y0317912D01*
X0247971Y0318511D02*
X0252577Y0318511D01*
X0252824Y0319110D02*
X0247637Y0319110D01*
X0247039Y0319708D02*
X0253072Y0319708D01*
X0253320Y0320307D02*
X0246409Y0320307D01*
X0244964Y0320905D02*
X0253568Y0320905D01*
X0254275Y0310730D02*
X0043325Y0310730D01*
X0042726Y0310132D02*
X0254874Y0310132D01*
X0255472Y0309533D02*
X0042128Y0309533D01*
X0041529Y0308935D02*
X0256071Y0308935D01*
X0257255Y0308336D02*
X0040345Y0308336D01*
X0038900Y0307738D02*
X0258700Y0307738D01*
X0242636Y0320905D02*
X0234964Y0320905D01*
X0234735Y0321000D02*
X0232865Y0321000D01*
X0231138Y0320284D01*
X0229816Y0318962D01*
X0229100Y0317235D01*
X0229100Y0315365D01*
X0229816Y0313638D01*
X0231138Y0312316D01*
X0232865Y0311600D01*
X0234735Y0311600D01*
X0236462Y0312316D01*
X0237784Y0313638D01*
X0238500Y0315365D01*
X0238500Y0317235D01*
X0237784Y0318962D01*
X0236462Y0320284D01*
X0234735Y0321000D01*
X0236409Y0320307D02*
X0241191Y0320307D01*
X0240561Y0319708D02*
X0237039Y0319708D01*
X0237637Y0319110D02*
X0239963Y0319110D01*
X0239629Y0318511D02*
X0237971Y0318511D01*
X0238219Y0317912D02*
X0239381Y0317912D01*
X0239133Y0317314D02*
X0238467Y0317314D01*
X0238500Y0316715D02*
X0239100Y0316715D01*
X0239100Y0316117D02*
X0238500Y0316117D01*
X0238500Y0315518D02*
X0239100Y0315518D01*
X0239284Y0314920D02*
X0238316Y0314920D01*
X0238068Y0314321D02*
X0239532Y0314321D01*
X0239780Y0313723D02*
X0237820Y0313723D01*
X0237271Y0313124D02*
X0240329Y0313124D01*
X0240927Y0312526D02*
X0236673Y0312526D01*
X0235525Y0311927D02*
X0242075Y0311927D01*
X0232075Y0311927D02*
X0225525Y0311927D01*
X0224735Y0311600D02*
X0226462Y0312316D01*
X0227784Y0313638D01*
X0228500Y0315365D01*
X0228500Y0317235D01*
X0227784Y0318962D01*
X0226462Y0320284D01*
X0224735Y0321000D01*
X0222865Y0321000D01*
X0221138Y0320284D01*
X0219816Y0318962D01*
X0219100Y0317235D01*
X0219100Y0315365D01*
X0219816Y0313638D01*
X0221138Y0312316D01*
X0222865Y0311600D01*
X0224735Y0311600D01*
X0226673Y0312526D02*
X0230927Y0312526D01*
X0230329Y0313124D02*
X0227271Y0313124D01*
X0227820Y0313723D02*
X0229780Y0313723D01*
X0229532Y0314321D02*
X0228068Y0314321D01*
X0228316Y0314920D02*
X0229284Y0314920D01*
X0229100Y0315518D02*
X0228500Y0315518D01*
X0228500Y0316117D02*
X0229100Y0316117D01*
X0229100Y0316715D02*
X0228500Y0316715D01*
X0228467Y0317314D02*
X0229133Y0317314D01*
X0229381Y0317912D02*
X0228219Y0317912D01*
X0227971Y0318511D02*
X0229629Y0318511D01*
X0229963Y0319110D02*
X0227637Y0319110D01*
X0227039Y0319708D02*
X0230561Y0319708D01*
X0231191Y0320307D02*
X0226409Y0320307D01*
X0224964Y0320905D02*
X0232636Y0320905D01*
X0222636Y0320905D02*
X0214964Y0320905D01*
X0214735Y0321000D02*
X0212865Y0321000D01*
X0211138Y0320284D01*
X0209816Y0318962D01*
X0209100Y0317235D01*
X0209100Y0315365D01*
X0209816Y0313638D01*
X0211138Y0312316D01*
X0212865Y0311600D01*
X0214735Y0311600D01*
X0216462Y0312316D01*
X0217784Y0313638D01*
X0218500Y0315365D01*
X0218500Y0317235D01*
X0217784Y0318962D01*
X0216462Y0320284D01*
X0214735Y0321000D01*
X0216409Y0320307D02*
X0221191Y0320307D01*
X0220561Y0319708D02*
X0217039Y0319708D01*
X0217637Y0319110D02*
X0219963Y0319110D01*
X0219629Y0318511D02*
X0217971Y0318511D01*
X0218219Y0317912D02*
X0219381Y0317912D01*
X0219133Y0317314D02*
X0218467Y0317314D01*
X0218500Y0316715D02*
X0219100Y0316715D01*
X0219100Y0316117D02*
X0218500Y0316117D01*
X0218500Y0315518D02*
X0219100Y0315518D01*
X0219284Y0314920D02*
X0218316Y0314920D01*
X0218068Y0314321D02*
X0219532Y0314321D01*
X0219780Y0313723D02*
X0217820Y0313723D01*
X0217271Y0313124D02*
X0220329Y0313124D01*
X0220927Y0312526D02*
X0216673Y0312526D01*
X0215525Y0311927D02*
X0222075Y0311927D01*
X0212075Y0311927D02*
X0205525Y0311927D01*
X0204735Y0311600D02*
X0206462Y0312316D01*
X0207784Y0313638D01*
X0208500Y0315365D01*
X0208500Y0317235D01*
X0207784Y0318962D01*
X0206462Y0320284D01*
X0204735Y0321000D01*
X0202865Y0321000D01*
X0201138Y0320284D01*
X0199816Y0318962D01*
X0199100Y0317235D01*
X0199100Y0315365D01*
X0199816Y0313638D01*
X0201138Y0312316D01*
X0202865Y0311600D01*
X0204735Y0311600D01*
X0206673Y0312526D02*
X0210927Y0312526D01*
X0210329Y0313124D02*
X0207271Y0313124D01*
X0207820Y0313723D02*
X0209780Y0313723D01*
X0209532Y0314321D02*
X0208068Y0314321D01*
X0208316Y0314920D02*
X0209284Y0314920D01*
X0209100Y0315518D02*
X0208500Y0315518D01*
X0208500Y0316117D02*
X0209100Y0316117D01*
X0209100Y0316715D02*
X0208500Y0316715D01*
X0208467Y0317314D02*
X0209133Y0317314D01*
X0209381Y0317912D02*
X0208219Y0317912D01*
X0207971Y0318511D02*
X0209629Y0318511D01*
X0209963Y0319110D02*
X0207637Y0319110D01*
X0207039Y0319708D02*
X0210561Y0319708D01*
X0211191Y0320307D02*
X0206409Y0320307D01*
X0204964Y0320905D02*
X0212636Y0320905D01*
X0202636Y0320905D02*
X0194964Y0320905D01*
X0194735Y0321000D02*
X0192865Y0321000D01*
X0191138Y0320284D01*
X0189816Y0318962D01*
X0189100Y0317235D01*
X0189100Y0315365D01*
X0189816Y0313638D01*
X0191138Y0312316D01*
X0192865Y0311600D01*
X0194735Y0311600D01*
X0196462Y0312316D01*
X0197784Y0313638D01*
X0198500Y0315365D01*
X0198500Y0317235D01*
X0197784Y0318962D01*
X0196462Y0320284D01*
X0194735Y0321000D01*
X0196409Y0320307D02*
X0201191Y0320307D01*
X0200561Y0319708D02*
X0197039Y0319708D01*
X0197637Y0319110D02*
X0199963Y0319110D01*
X0199629Y0318511D02*
X0197971Y0318511D01*
X0198219Y0317912D02*
X0199381Y0317912D01*
X0199133Y0317314D02*
X0198467Y0317314D01*
X0198500Y0316715D02*
X0199100Y0316715D01*
X0199100Y0316117D02*
X0198500Y0316117D01*
X0198500Y0315518D02*
X0199100Y0315518D01*
X0199284Y0314920D02*
X0198316Y0314920D01*
X0198068Y0314321D02*
X0199532Y0314321D01*
X0199780Y0313723D02*
X0197820Y0313723D01*
X0197271Y0313124D02*
X0200329Y0313124D01*
X0200927Y0312526D02*
X0196673Y0312526D01*
X0195525Y0311927D02*
X0202075Y0311927D01*
X0192636Y0320905D02*
X0184964Y0320905D01*
X0184735Y0321000D02*
X0182865Y0321000D01*
X0181138Y0320284D01*
X0179816Y0318962D01*
X0179100Y0317235D01*
X0179100Y0315365D01*
X0179816Y0313638D01*
X0181138Y0312316D01*
X0182865Y0311600D01*
X0184735Y0311600D01*
X0186462Y0312316D01*
X0187784Y0313638D01*
X0188500Y0315365D01*
X0188500Y0317235D01*
X0187784Y0318962D01*
X0186462Y0320284D01*
X0184735Y0321000D01*
X0186409Y0320307D02*
X0191191Y0320307D01*
X0190561Y0319708D02*
X0187039Y0319708D01*
X0187637Y0319110D02*
X0189963Y0319110D01*
X0189629Y0318511D02*
X0187971Y0318511D01*
X0188219Y0317912D02*
X0189381Y0317912D01*
X0189133Y0317314D02*
X0188467Y0317314D01*
X0188500Y0316715D02*
X0189100Y0316715D01*
X0189100Y0316117D02*
X0188500Y0316117D01*
X0188500Y0315518D02*
X0189100Y0315518D01*
X0189284Y0314920D02*
X0188316Y0314920D01*
X0188068Y0314321D02*
X0189532Y0314321D01*
X0189780Y0313723D02*
X0187820Y0313723D01*
X0187271Y0313124D02*
X0190329Y0313124D01*
X0190927Y0312526D02*
X0186673Y0312526D01*
X0185525Y0311927D02*
X0192075Y0311927D01*
X0182075Y0311927D02*
X0175525Y0311927D01*
X0174735Y0311600D02*
X0176462Y0312316D01*
X0177784Y0313638D01*
X0178500Y0315365D01*
X0178500Y0317235D01*
X0177784Y0318962D01*
X0176462Y0320284D01*
X0174735Y0321000D01*
X0172865Y0321000D01*
X0171138Y0320284D01*
X0169816Y0318962D01*
X0169100Y0317235D01*
X0169100Y0315365D01*
X0169816Y0313638D01*
X0171138Y0312316D01*
X0172865Y0311600D01*
X0174735Y0311600D01*
X0176673Y0312526D02*
X0180927Y0312526D01*
X0180329Y0313124D02*
X0177271Y0313124D01*
X0177820Y0313723D02*
X0179780Y0313723D01*
X0179532Y0314321D02*
X0178068Y0314321D01*
X0178316Y0314920D02*
X0179284Y0314920D01*
X0179100Y0315518D02*
X0178500Y0315518D01*
X0178500Y0316117D02*
X0179100Y0316117D01*
X0179100Y0316715D02*
X0178500Y0316715D01*
X0178467Y0317314D02*
X0179133Y0317314D01*
X0179381Y0317912D02*
X0178219Y0317912D01*
X0177971Y0318511D02*
X0179629Y0318511D01*
X0179963Y0319110D02*
X0177637Y0319110D01*
X0177039Y0319708D02*
X0180561Y0319708D01*
X0181191Y0320307D02*
X0176409Y0320307D01*
X0174964Y0320905D02*
X0182636Y0320905D01*
X0172636Y0320905D02*
X0164964Y0320905D01*
X0164735Y0321000D02*
X0162865Y0321000D01*
X0161138Y0320284D01*
X0159816Y0318962D01*
X0159100Y0317235D01*
X0159100Y0315365D01*
X0159816Y0313638D01*
X0161138Y0312316D01*
X0162865Y0311600D01*
X0164735Y0311600D01*
X0166462Y0312316D01*
X0167784Y0313638D01*
X0168500Y0315365D01*
X0168500Y0317235D01*
X0167784Y0318962D01*
X0166462Y0320284D01*
X0164735Y0321000D01*
X0166409Y0320307D02*
X0171191Y0320307D01*
X0170561Y0319708D02*
X0167039Y0319708D01*
X0167637Y0319110D02*
X0169963Y0319110D01*
X0169629Y0318511D02*
X0167971Y0318511D01*
X0168219Y0317912D02*
X0169381Y0317912D01*
X0169133Y0317314D02*
X0168467Y0317314D01*
X0168500Y0316715D02*
X0169100Y0316715D01*
X0169100Y0316117D02*
X0168500Y0316117D01*
X0168500Y0315518D02*
X0169100Y0315518D01*
X0169284Y0314920D02*
X0168316Y0314920D01*
X0168068Y0314321D02*
X0169532Y0314321D01*
X0169780Y0313723D02*
X0167820Y0313723D01*
X0167271Y0313124D02*
X0170329Y0313124D01*
X0170927Y0312526D02*
X0166673Y0312526D01*
X0165525Y0311927D02*
X0172075Y0311927D01*
X0162636Y0320905D02*
X0154964Y0320905D01*
X0154735Y0321000D02*
X0152865Y0321000D01*
X0151138Y0320284D01*
X0149816Y0318962D01*
X0149100Y0317235D01*
X0149100Y0315365D01*
X0149816Y0313638D01*
X0151138Y0312316D01*
X0152865Y0311600D01*
X0154735Y0311600D01*
X0156462Y0312316D01*
X0157784Y0313638D01*
X0158500Y0315365D01*
X0158500Y0317235D01*
X0157784Y0318962D01*
X0156462Y0320284D01*
X0154735Y0321000D01*
X0156409Y0320307D02*
X0161191Y0320307D01*
X0160561Y0319708D02*
X0157039Y0319708D01*
X0157637Y0319110D02*
X0159963Y0319110D01*
X0159629Y0318511D02*
X0157971Y0318511D01*
X0158219Y0317912D02*
X0159381Y0317912D01*
X0159133Y0317314D02*
X0158467Y0317314D01*
X0158500Y0316715D02*
X0159100Y0316715D01*
X0159100Y0316117D02*
X0158500Y0316117D01*
X0158500Y0315518D02*
X0159100Y0315518D01*
X0159284Y0314920D02*
X0158316Y0314920D01*
X0158068Y0314321D02*
X0159532Y0314321D01*
X0159780Y0313723D02*
X0157820Y0313723D01*
X0157271Y0313124D02*
X0160329Y0313124D01*
X0160927Y0312526D02*
X0156673Y0312526D01*
X0155525Y0311927D02*
X0162075Y0311927D01*
X0152075Y0311927D02*
X0145525Y0311927D01*
X0144735Y0311600D02*
X0146462Y0312316D01*
X0147784Y0313638D01*
X0148500Y0315365D01*
X0148500Y0317235D01*
X0147784Y0318962D01*
X0146462Y0320284D01*
X0144735Y0321000D01*
X0142865Y0321000D01*
X0141138Y0320284D01*
X0139816Y0318962D01*
X0139100Y0317235D01*
X0139100Y0315365D01*
X0139816Y0313638D01*
X0141138Y0312316D01*
X0142865Y0311600D01*
X0144735Y0311600D01*
X0146673Y0312526D02*
X0150927Y0312526D01*
X0150329Y0313124D02*
X0147271Y0313124D01*
X0147820Y0313723D02*
X0149780Y0313723D01*
X0149532Y0314321D02*
X0148068Y0314321D01*
X0148316Y0314920D02*
X0149284Y0314920D01*
X0149100Y0315518D02*
X0148500Y0315518D01*
X0148500Y0316117D02*
X0149100Y0316117D01*
X0149100Y0316715D02*
X0148500Y0316715D01*
X0148467Y0317314D02*
X0149133Y0317314D01*
X0149381Y0317912D02*
X0148219Y0317912D01*
X0147971Y0318511D02*
X0149629Y0318511D01*
X0149963Y0319110D02*
X0147637Y0319110D01*
X0147039Y0319708D02*
X0150561Y0319708D01*
X0151191Y0320307D02*
X0146409Y0320307D01*
X0144964Y0320905D02*
X0152636Y0320905D01*
X0142636Y0320905D02*
X0134964Y0320905D01*
X0134735Y0321000D02*
X0136462Y0320284D01*
X0137784Y0318962D01*
X0138500Y0317235D01*
X0138500Y0315365D01*
X0137784Y0313638D01*
X0136462Y0312316D01*
X0134735Y0311600D01*
X0132865Y0311600D01*
X0131138Y0312316D01*
X0129816Y0313638D01*
X0129100Y0315365D01*
X0129100Y0317235D01*
X0129816Y0318962D01*
X0131138Y0320284D01*
X0132865Y0321000D01*
X0134735Y0321000D01*
X0136409Y0320307D02*
X0141191Y0320307D01*
X0140561Y0319708D02*
X0137039Y0319708D01*
X0137637Y0319110D02*
X0139963Y0319110D01*
X0139629Y0318511D02*
X0137971Y0318511D01*
X0138219Y0317912D02*
X0139381Y0317912D01*
X0139133Y0317314D02*
X0138467Y0317314D01*
X0138500Y0316715D02*
X0139100Y0316715D01*
X0139100Y0316117D02*
X0138500Y0316117D01*
X0138500Y0315518D02*
X0139100Y0315518D01*
X0139284Y0314920D02*
X0138316Y0314920D01*
X0138068Y0314321D02*
X0139532Y0314321D01*
X0139780Y0313723D02*
X0137820Y0313723D01*
X0137271Y0313124D02*
X0140329Y0313124D01*
X0140927Y0312526D02*
X0136673Y0312526D01*
X0135525Y0311927D02*
X0142075Y0311927D01*
X0132075Y0311927D02*
X0125525Y0311927D01*
X0124735Y0311600D02*
X0126462Y0312316D01*
X0127784Y0313638D01*
X0128500Y0315365D01*
X0128500Y0317235D01*
X0127784Y0318962D01*
X0126462Y0320284D01*
X0124735Y0321000D01*
X0122865Y0321000D01*
X0121138Y0320284D01*
X0119816Y0318962D01*
X0119100Y0317235D01*
X0119100Y0315365D01*
X0119816Y0313638D01*
X0121138Y0312316D01*
X0122865Y0311600D01*
X0124735Y0311600D01*
X0126673Y0312526D02*
X0130927Y0312526D01*
X0130329Y0313124D02*
X0127271Y0313124D01*
X0127820Y0313723D02*
X0129780Y0313723D01*
X0129532Y0314321D02*
X0128068Y0314321D01*
X0128316Y0314920D02*
X0129284Y0314920D01*
X0129100Y0315518D02*
X0128500Y0315518D01*
X0128500Y0316117D02*
X0129100Y0316117D01*
X0129100Y0316715D02*
X0128500Y0316715D01*
X0128467Y0317314D02*
X0129133Y0317314D01*
X0129381Y0317912D02*
X0128219Y0317912D01*
X0127971Y0318511D02*
X0129629Y0318511D01*
X0129963Y0319110D02*
X0127637Y0319110D01*
X0127039Y0319708D02*
X0130561Y0319708D01*
X0131191Y0320307D02*
X0126409Y0320307D01*
X0124964Y0320905D02*
X0132636Y0320905D01*
X0122636Y0320905D02*
X0114964Y0320905D01*
X0114735Y0321000D02*
X0112865Y0321000D01*
X0111138Y0320284D01*
X0109816Y0318962D01*
X0109100Y0317235D01*
X0109100Y0315365D01*
X0109816Y0313638D01*
X0111138Y0312316D01*
X0112865Y0311600D01*
X0114735Y0311600D01*
X0116462Y0312316D01*
X0117784Y0313638D01*
X0118500Y0315365D01*
X0118500Y0317235D01*
X0117784Y0318962D01*
X0116462Y0320284D01*
X0114735Y0321000D01*
X0116409Y0320307D02*
X0121191Y0320307D01*
X0120561Y0319708D02*
X0117039Y0319708D01*
X0117637Y0319110D02*
X0119963Y0319110D01*
X0119629Y0318511D02*
X0117971Y0318511D01*
X0118219Y0317912D02*
X0119381Y0317912D01*
X0119133Y0317314D02*
X0118467Y0317314D01*
X0118500Y0316715D02*
X0119100Y0316715D01*
X0119100Y0316117D02*
X0118500Y0316117D01*
X0118500Y0315518D02*
X0119100Y0315518D01*
X0119284Y0314920D02*
X0118316Y0314920D01*
X0118068Y0314321D02*
X0119532Y0314321D01*
X0119780Y0313723D02*
X0117820Y0313723D01*
X0117271Y0313124D02*
X0120329Y0313124D01*
X0120927Y0312526D02*
X0116673Y0312526D01*
X0115525Y0311927D02*
X0122075Y0311927D01*
X0112075Y0311927D02*
X0105525Y0311927D01*
X0104735Y0311600D02*
X0106462Y0312316D01*
X0107784Y0313638D01*
X0108500Y0315365D01*
X0108500Y0317235D01*
X0107784Y0318962D01*
X0106462Y0320284D01*
X0104735Y0321000D01*
X0102865Y0321000D01*
X0101138Y0320284D01*
X0099816Y0318962D01*
X0099100Y0317235D01*
X0099100Y0315365D01*
X0099816Y0313638D01*
X0101138Y0312316D01*
X0102865Y0311600D01*
X0104735Y0311600D01*
X0106673Y0312526D02*
X0110927Y0312526D01*
X0110329Y0313124D02*
X0107271Y0313124D01*
X0107820Y0313723D02*
X0109780Y0313723D01*
X0109532Y0314321D02*
X0108068Y0314321D01*
X0108316Y0314920D02*
X0109284Y0314920D01*
X0109100Y0315518D02*
X0108500Y0315518D01*
X0108500Y0316117D02*
X0109100Y0316117D01*
X0109100Y0316715D02*
X0108500Y0316715D01*
X0108467Y0317314D02*
X0109133Y0317314D01*
X0109381Y0317912D02*
X0108219Y0317912D01*
X0107971Y0318511D02*
X0109629Y0318511D01*
X0109963Y0319110D02*
X0107637Y0319110D01*
X0107039Y0319708D02*
X0110561Y0319708D01*
X0111191Y0320307D02*
X0106409Y0320307D01*
X0104964Y0320905D02*
X0112636Y0320905D01*
X0102636Y0320905D02*
X0094964Y0320905D01*
X0094735Y0321000D02*
X0092865Y0321000D01*
X0091138Y0320284D01*
X0089816Y0318962D01*
X0089100Y0317235D01*
X0089100Y0315365D01*
X0089816Y0313638D01*
X0091138Y0312316D01*
X0092865Y0311600D01*
X0094735Y0311600D01*
X0096462Y0312316D01*
X0097784Y0313638D01*
X0098500Y0315365D01*
X0098500Y0317235D01*
X0097784Y0318962D01*
X0096462Y0320284D01*
X0094735Y0321000D01*
X0096409Y0320307D02*
X0101191Y0320307D01*
X0100561Y0319708D02*
X0097039Y0319708D01*
X0097637Y0319110D02*
X0099963Y0319110D01*
X0099629Y0318511D02*
X0097971Y0318511D01*
X0098219Y0317912D02*
X0099381Y0317912D01*
X0099133Y0317314D02*
X0098467Y0317314D01*
X0098500Y0316715D02*
X0099100Y0316715D01*
X0099100Y0316117D02*
X0098500Y0316117D01*
X0098500Y0315518D02*
X0099100Y0315518D01*
X0099284Y0314920D02*
X0098316Y0314920D01*
X0098068Y0314321D02*
X0099532Y0314321D01*
X0099780Y0313723D02*
X0097820Y0313723D01*
X0097271Y0313124D02*
X0100329Y0313124D01*
X0100927Y0312526D02*
X0096673Y0312526D01*
X0095525Y0311927D02*
X0102075Y0311927D01*
X0092075Y0311927D02*
X0085525Y0311927D01*
X0084735Y0311600D02*
X0086462Y0312316D01*
X0087784Y0313638D01*
X0088500Y0315365D01*
X0088500Y0317235D01*
X0087784Y0318962D01*
X0086462Y0320284D01*
X0084735Y0321000D01*
X0082865Y0321000D01*
X0081138Y0320284D01*
X0079816Y0318962D01*
X0079100Y0317235D01*
X0079100Y0315365D01*
X0079816Y0313638D01*
X0081138Y0312316D01*
X0082865Y0311600D01*
X0084735Y0311600D01*
X0086673Y0312526D02*
X0090927Y0312526D01*
X0090329Y0313124D02*
X0087271Y0313124D01*
X0087820Y0313723D02*
X0089780Y0313723D01*
X0089532Y0314321D02*
X0088068Y0314321D01*
X0088316Y0314920D02*
X0089284Y0314920D01*
X0089100Y0315518D02*
X0088500Y0315518D01*
X0088500Y0316117D02*
X0089100Y0316117D01*
X0089100Y0316715D02*
X0088500Y0316715D01*
X0088467Y0317314D02*
X0089133Y0317314D01*
X0089381Y0317912D02*
X0088219Y0317912D01*
X0087971Y0318511D02*
X0089629Y0318511D01*
X0089963Y0319110D02*
X0087637Y0319110D01*
X0087039Y0319708D02*
X0090561Y0319708D01*
X0091191Y0320307D02*
X0086409Y0320307D01*
X0084964Y0320905D02*
X0092636Y0320905D01*
X0082636Y0320905D02*
X0074964Y0320905D01*
X0074735Y0321000D02*
X0072865Y0321000D01*
X0071138Y0320284D01*
X0069816Y0318962D01*
X0069100Y0317235D01*
X0069100Y0315365D01*
X0069816Y0313638D01*
X0071138Y0312316D01*
X0072865Y0311600D01*
X0074735Y0311600D01*
X0076462Y0312316D01*
X0077784Y0313638D01*
X0078500Y0315365D01*
X0078500Y0317235D01*
X0077784Y0318962D01*
X0076462Y0320284D01*
X0074735Y0321000D01*
X0076409Y0320307D02*
X0081191Y0320307D01*
X0080561Y0319708D02*
X0077039Y0319708D01*
X0077637Y0319110D02*
X0079963Y0319110D01*
X0079629Y0318511D02*
X0077971Y0318511D01*
X0078219Y0317912D02*
X0079381Y0317912D01*
X0079133Y0317314D02*
X0078467Y0317314D01*
X0078500Y0316715D02*
X0079100Y0316715D01*
X0079100Y0316117D02*
X0078500Y0316117D01*
X0078500Y0315518D02*
X0079100Y0315518D01*
X0079284Y0314920D02*
X0078316Y0314920D01*
X0078068Y0314321D02*
X0079532Y0314321D01*
X0079780Y0313723D02*
X0077820Y0313723D01*
X0077271Y0313124D02*
X0080329Y0313124D01*
X0080927Y0312526D02*
X0076673Y0312526D01*
X0075525Y0311927D02*
X0082075Y0311927D01*
X0072075Y0311927D02*
X0065525Y0311927D01*
X0064735Y0311600D02*
X0066462Y0312316D01*
X0067784Y0313638D01*
X0068500Y0315365D01*
X0068500Y0317235D01*
X0067784Y0318962D01*
X0066462Y0320284D01*
X0064735Y0321000D01*
X0062865Y0321000D01*
X0061138Y0320284D01*
X0059816Y0318962D01*
X0059100Y0317235D01*
X0059100Y0315365D01*
X0059816Y0313638D01*
X0061138Y0312316D01*
X0062865Y0311600D01*
X0064735Y0311600D01*
X0066673Y0312526D02*
X0070927Y0312526D01*
X0070329Y0313124D02*
X0067271Y0313124D01*
X0067820Y0313723D02*
X0069780Y0313723D01*
X0069532Y0314321D02*
X0068068Y0314321D01*
X0068316Y0314920D02*
X0069284Y0314920D01*
X0069100Y0315518D02*
X0068500Y0315518D01*
X0068500Y0316117D02*
X0069100Y0316117D01*
X0069100Y0316715D02*
X0068500Y0316715D01*
X0068467Y0317314D02*
X0069133Y0317314D01*
X0069381Y0317912D02*
X0068219Y0317912D01*
X0067971Y0318511D02*
X0069629Y0318511D01*
X0069963Y0319110D02*
X0067637Y0319110D01*
X0067039Y0319708D02*
X0070561Y0319708D01*
X0071191Y0320307D02*
X0066409Y0320307D01*
X0064964Y0320905D02*
X0072636Y0320905D01*
X0062636Y0320905D02*
X0054964Y0320905D01*
X0056409Y0320307D02*
X0061191Y0320307D01*
X0060561Y0319708D02*
X0057039Y0319708D01*
X0057637Y0319110D02*
X0059963Y0319110D01*
X0059629Y0318511D02*
X0057971Y0318511D01*
X0058219Y0317912D02*
X0059381Y0317912D01*
X0059133Y0317314D02*
X0058467Y0317314D01*
X0058500Y0316715D02*
X0059100Y0316715D01*
X0059100Y0316117D02*
X0058500Y0316117D01*
X0058500Y0315518D02*
X0059100Y0315518D01*
X0059284Y0314920D02*
X0058316Y0314920D01*
X0058068Y0314321D02*
X0059532Y0314321D01*
X0059780Y0313723D02*
X0057820Y0313723D01*
X0057271Y0313124D02*
X0060329Y0313124D01*
X0060927Y0312526D02*
X0056673Y0312526D01*
X0055525Y0311927D02*
X0062075Y0311927D01*
X0012818Y0326890D02*
X0012126Y0326890D01*
X0014597Y0234719D02*
X0269350Y0234719D01*
X0269350Y0234121D02*
X0015343Y0234121D01*
X0015942Y0233522D02*
X0269350Y0233522D01*
X0269350Y0232924D02*
X0016291Y0232924D01*
X0016539Y0232325D02*
X0269350Y0232325D01*
X0269350Y0231727D02*
X0016787Y0231727D01*
X0016800Y0231128D02*
X0269350Y0231128D01*
X0269350Y0230530D02*
X0016800Y0230530D01*
X0016800Y0229931D02*
X0269350Y0229931D01*
X0269350Y0229333D02*
X0016563Y0229333D01*
X0016315Y0228734D02*
X0269350Y0228734D01*
X0269350Y0228136D02*
X0016000Y0228136D01*
X0015401Y0227537D02*
X0269350Y0227537D01*
X0269350Y0226939D02*
X0014737Y0226939D01*
X0014125Y0226340D02*
X0269350Y0226340D01*
X0269350Y0225742D02*
X0014125Y0225742D01*
X0014125Y0225143D02*
X0269350Y0225143D01*
X0269350Y0224545D02*
X0014125Y0224545D01*
X0014125Y0223946D02*
X0269350Y0223946D01*
X0269350Y0223348D02*
X0014125Y0223348D01*
X0014125Y0222749D02*
X0269350Y0222749D01*
X0269350Y0222151D02*
X0014125Y0222151D01*
X0014125Y0221552D02*
X0269350Y0221552D01*
X0269350Y0220954D02*
X0014125Y0220954D01*
X0014125Y0220355D02*
X0269350Y0220355D01*
X0269350Y0219757D02*
X0014125Y0219757D01*
X0014125Y0219158D02*
X0269350Y0219158D01*
X0269350Y0218560D02*
X0014125Y0218560D01*
X0014125Y0217961D02*
X0269350Y0217961D01*
X0269350Y0217363D02*
X0014125Y0217363D01*
X0014125Y0216764D02*
X0269350Y0216764D01*
X0269350Y0216166D02*
X0014125Y0216166D01*
X0014125Y0215567D02*
X0019320Y0215567D01*
X0018638Y0215284D02*
X0020365Y0216000D01*
X0022235Y0216000D01*
X0023962Y0215284D01*
X0025284Y0213962D01*
X0026000Y0212235D01*
X0026000Y0210365D01*
X0025284Y0208638D01*
X0023962Y0207316D01*
X0022235Y0206600D01*
X0020365Y0206600D01*
X0018638Y0207316D01*
X0017316Y0208638D01*
X0016600Y0210365D01*
X0016600Y0212235D01*
X0017316Y0213962D01*
X0018638Y0215284D01*
X0018322Y0214969D02*
X0014125Y0214969D01*
X0014125Y0214370D02*
X0017723Y0214370D01*
X0017236Y0213772D02*
X0014125Y0213772D01*
X0014125Y0213173D02*
X0016989Y0213173D01*
X0016741Y0212574D02*
X0014125Y0212574D01*
X0014125Y0211976D02*
X0016600Y0211976D01*
X0016600Y0211377D02*
X0014125Y0211377D01*
X0014125Y0210779D02*
X0016600Y0210779D01*
X0016676Y0210180D02*
X0014125Y0210180D01*
X0014125Y0209582D02*
X0016924Y0209582D01*
X0017172Y0208983D02*
X0014125Y0208983D01*
X0014125Y0208385D02*
X0017568Y0208385D01*
X0018167Y0207786D02*
X0014125Y0207786D01*
X0014125Y0207188D02*
X0018946Y0207188D01*
X0018898Y0205392D02*
X0014125Y0205392D01*
X0014125Y0204794D02*
X0018147Y0204794D01*
X0018638Y0205284D02*
X0017316Y0203962D01*
X0016600Y0202235D01*
X0016600Y0200365D01*
X0017316Y0198638D01*
X0018638Y0197316D01*
X0020365Y0196600D01*
X0022235Y0196600D01*
X0023962Y0197316D01*
X0025284Y0198638D01*
X0026000Y0200365D01*
X0026000Y0202235D01*
X0025284Y0203962D01*
X0023962Y0205284D01*
X0022235Y0206000D01*
X0020365Y0206000D01*
X0018638Y0205284D01*
X0017549Y0204195D02*
X0014125Y0204195D01*
X0014125Y0203597D02*
X0017164Y0203597D01*
X0016916Y0202998D02*
X0014125Y0202998D01*
X0014125Y0202400D02*
X0016668Y0202400D01*
X0016600Y0201801D02*
X0014125Y0201801D01*
X0014125Y0201203D02*
X0016600Y0201203D01*
X0016600Y0200604D02*
X0014125Y0200604D01*
X0014125Y0200006D02*
X0016749Y0200006D01*
X0016997Y0199407D02*
X0014125Y0199407D01*
X0014125Y0198809D02*
X0017245Y0198809D01*
X0017743Y0198210D02*
X0014125Y0198210D01*
X0014125Y0197612D02*
X0018341Y0197612D01*
X0019368Y0197013D02*
X0014125Y0197013D01*
X0014125Y0196415D02*
X0269350Y0196415D01*
X0269350Y0197013D02*
X0033232Y0197013D01*
X0033962Y0197316D02*
X0035284Y0198638D01*
X0036000Y0200365D01*
X0036000Y0202235D01*
X0035284Y0203962D01*
X0033962Y0205284D01*
X0032235Y0206000D01*
X0030365Y0206000D01*
X0028638Y0205284D01*
X0027316Y0203962D01*
X0026600Y0202235D01*
X0026600Y0200365D01*
X0027316Y0198638D01*
X0028638Y0197316D01*
X0030365Y0196600D01*
X0032235Y0196600D01*
X0033962Y0197316D01*
X0034259Y0197612D02*
X0269350Y0197612D01*
X0269350Y0198210D02*
X0034857Y0198210D01*
X0035355Y0198809D02*
X0269350Y0198809D01*
X0269350Y0199407D02*
X0035603Y0199407D01*
X0035851Y0200006D02*
X0269350Y0200006D01*
X0269350Y0200604D02*
X0036000Y0200604D01*
X0036000Y0201203D02*
X0269350Y0201203D01*
X0269350Y0201801D02*
X0036000Y0201801D01*
X0035932Y0202400D02*
X0269350Y0202400D01*
X0269350Y0202998D02*
X0035684Y0202998D01*
X0035436Y0203597D02*
X0269350Y0203597D01*
X0269350Y0204195D02*
X0035051Y0204195D01*
X0034453Y0204794D02*
X0269350Y0204794D01*
X0269350Y0205392D02*
X0033702Y0205392D01*
X0032257Y0205991D02*
X0269350Y0205991D01*
X0269350Y0206589D02*
X0014125Y0206589D01*
X0014125Y0205991D02*
X0020343Y0205991D01*
X0022257Y0205991D02*
X0030343Y0205991D01*
X0030365Y0206600D02*
X0028638Y0207316D01*
X0027316Y0208638D01*
X0026600Y0210365D01*
X0026600Y0212235D01*
X0027316Y0213962D01*
X0028638Y0215284D01*
X0030365Y0216000D01*
X0032235Y0216000D01*
X0033962Y0215284D01*
X0035284Y0213962D01*
X0036000Y0212235D01*
X0036000Y0210365D01*
X0035284Y0208638D01*
X0033962Y0207316D01*
X0032235Y0206600D01*
X0030365Y0206600D01*
X0028946Y0207188D02*
X0023654Y0207188D01*
X0024433Y0207786D02*
X0028167Y0207786D01*
X0027568Y0208385D02*
X0025032Y0208385D01*
X0025428Y0208983D02*
X0027172Y0208983D01*
X0026924Y0209582D02*
X0025676Y0209582D01*
X0025923Y0210180D02*
X0026676Y0210180D01*
X0026600Y0210779D02*
X0026000Y0210779D01*
X0026000Y0211377D02*
X0026600Y0211377D01*
X0026600Y0211976D02*
X0026000Y0211976D01*
X0025859Y0212574D02*
X0026741Y0212574D01*
X0026989Y0213173D02*
X0025611Y0213173D01*
X0025364Y0213772D02*
X0027236Y0213772D01*
X0027723Y0214370D02*
X0024877Y0214370D01*
X0024278Y0214969D02*
X0028322Y0214969D01*
X0029320Y0215567D02*
X0023280Y0215567D01*
X0023702Y0205392D02*
X0028898Y0205392D01*
X0028147Y0204794D02*
X0024453Y0204794D01*
X0025051Y0204195D02*
X0027549Y0204195D01*
X0027164Y0203597D02*
X0025436Y0203597D01*
X0025684Y0202998D02*
X0026916Y0202998D01*
X0026668Y0202400D02*
X0025932Y0202400D01*
X0026000Y0201801D02*
X0026600Y0201801D01*
X0026600Y0201203D02*
X0026000Y0201203D01*
X0026000Y0200604D02*
X0026600Y0200604D01*
X0026749Y0200006D02*
X0025851Y0200006D01*
X0025603Y0199407D02*
X0026997Y0199407D01*
X0027245Y0198809D02*
X0025355Y0198809D01*
X0024857Y0198210D02*
X0027743Y0198210D01*
X0028341Y0197612D02*
X0024259Y0197612D01*
X0023232Y0197013D02*
X0029368Y0197013D01*
X0029921Y0195816D02*
X0022679Y0195816D01*
X0022235Y0196000D02*
X0020365Y0196000D01*
X0018638Y0195284D01*
X0017316Y0193962D01*
X0016600Y0192235D01*
X0016600Y0190365D01*
X0017316Y0188638D01*
X0018638Y0187316D01*
X0020365Y0186600D01*
X0022235Y0186600D01*
X0023962Y0187316D01*
X0025284Y0188638D01*
X0026000Y0190365D01*
X0026000Y0192235D01*
X0025284Y0193962D01*
X0023962Y0195284D01*
X0022235Y0196000D01*
X0024029Y0195218D02*
X0028571Y0195218D01*
X0028638Y0195284D02*
X0027316Y0193962D01*
X0026600Y0192235D01*
X0026600Y0190365D01*
X0027316Y0188638D01*
X0028638Y0187316D01*
X0030365Y0186600D01*
X0032235Y0186600D01*
X0033962Y0187316D01*
X0035284Y0188638D01*
X0036000Y0190365D01*
X0036000Y0192235D01*
X0035284Y0193962D01*
X0033962Y0195284D01*
X0032235Y0196000D01*
X0030365Y0196000D01*
X0028638Y0195284D01*
X0027972Y0194619D02*
X0024628Y0194619D01*
X0025226Y0194021D02*
X0027374Y0194021D01*
X0027092Y0193422D02*
X0025508Y0193422D01*
X0025756Y0192824D02*
X0026844Y0192824D01*
X0026600Y0192225D02*
X0026000Y0192225D01*
X0026000Y0191627D02*
X0026600Y0191627D01*
X0026600Y0191028D02*
X0026000Y0191028D01*
X0026000Y0190430D02*
X0026600Y0190430D01*
X0026821Y0189831D02*
X0025779Y0189831D01*
X0025531Y0189233D02*
X0027069Y0189233D01*
X0027319Y0188634D02*
X0025281Y0188634D01*
X0024682Y0188036D02*
X0027918Y0188036D01*
X0028516Y0187437D02*
X0024084Y0187437D01*
X0022811Y0186839D02*
X0029789Y0186839D01*
X0030365Y0186000D02*
X0028638Y0185284D01*
X0027316Y0183962D01*
X0026600Y0182235D01*
X0026600Y0180365D01*
X0027316Y0178638D01*
X0028638Y0177316D01*
X0030365Y0176600D01*
X0032235Y0176600D01*
X0033962Y0177316D01*
X0035284Y0178638D01*
X0036000Y0180365D01*
X0036000Y0182235D01*
X0035284Y0183962D01*
X0033962Y0185284D01*
X0032235Y0186000D01*
X0030365Y0186000D01*
X0029500Y0185641D02*
X0023100Y0185641D01*
X0023962Y0185284D02*
X0022235Y0186000D01*
X0020365Y0186000D01*
X0018638Y0185284D01*
X0017316Y0183962D01*
X0016600Y0182235D01*
X0016600Y0180365D01*
X0017316Y0178638D01*
X0018638Y0177316D01*
X0020365Y0176600D01*
X0022235Y0176600D01*
X0023962Y0177316D01*
X0025284Y0178638D01*
X0026000Y0180365D01*
X0026000Y0182235D01*
X0025284Y0183962D01*
X0023962Y0185284D01*
X0024204Y0185043D02*
X0028396Y0185043D01*
X0027798Y0184444D02*
X0024802Y0184444D01*
X0025333Y0183846D02*
X0027267Y0183846D01*
X0027019Y0183247D02*
X0025581Y0183247D01*
X0025828Y0182649D02*
X0026772Y0182649D01*
X0026600Y0182050D02*
X0026000Y0182050D01*
X0026000Y0181452D02*
X0026600Y0181452D01*
X0026600Y0180853D02*
X0026000Y0180853D01*
X0025954Y0180255D02*
X0026646Y0180255D01*
X0026894Y0179656D02*
X0025706Y0179656D01*
X0025459Y0179058D02*
X0027141Y0179058D01*
X0027494Y0178459D02*
X0025106Y0178459D01*
X0024508Y0177861D02*
X0028092Y0177861D01*
X0028766Y0177262D02*
X0023834Y0177262D01*
X0022389Y0176664D02*
X0030211Y0176664D01*
X0029078Y0175467D02*
X0023522Y0175467D01*
X0024379Y0174868D02*
X0028221Y0174868D01*
X0027623Y0174270D02*
X0024977Y0174270D01*
X0025405Y0173671D02*
X0027195Y0173671D01*
X0026947Y0173073D02*
X0025653Y0173073D01*
X0025901Y0172474D02*
X0026699Y0172474D01*
X0026600Y0171876D02*
X0026000Y0171876D01*
X0026000Y0171277D02*
X0026600Y0171277D01*
X0026600Y0170679D02*
X0026000Y0170679D01*
X0025882Y0170080D02*
X0026718Y0170080D01*
X0026966Y0169482D02*
X0025634Y0169482D01*
X0025386Y0168883D02*
X0027214Y0168883D01*
X0027669Y0168285D02*
X0024931Y0168285D01*
X0024333Y0167686D02*
X0028267Y0167686D01*
X0029188Y0167088D02*
X0023412Y0167088D01*
X0022499Y0165891D02*
X0030101Y0165891D01*
X0030365Y0166000D02*
X0028638Y0165284D01*
X0027316Y0163962D01*
X0026600Y0162235D01*
X0026600Y0160365D01*
X0027316Y0158638D01*
X0028638Y0157316D01*
X0030365Y0156600D01*
X0032235Y0156600D01*
X0033962Y0157316D01*
X0035284Y0158638D01*
X0036000Y0160365D01*
X0036000Y0162235D01*
X0035284Y0163962D01*
X0033962Y0165284D01*
X0032235Y0166000D01*
X0030365Y0166000D01*
X0028656Y0165292D02*
X0023944Y0165292D01*
X0024553Y0164694D02*
X0028047Y0164694D01*
X0027448Y0164095D02*
X0025152Y0164095D01*
X0025477Y0163497D02*
X0027123Y0163497D01*
X0026875Y0162898D02*
X0025725Y0162898D01*
X0025973Y0162300D02*
X0026627Y0162300D01*
X0026600Y0161701D02*
X0026000Y0161701D01*
X0026000Y0161103D02*
X0026600Y0161103D01*
X0026600Y0160504D02*
X0026000Y0160504D01*
X0025810Y0159905D02*
X0026790Y0159905D01*
X0027038Y0159307D02*
X0025562Y0159307D01*
X0025314Y0158708D02*
X0027286Y0158708D01*
X0027843Y0158110D02*
X0024757Y0158110D01*
X0024158Y0157511D02*
X0028442Y0157511D01*
X0029610Y0156913D02*
X0022990Y0156913D01*
X0022921Y0155716D02*
X0029679Y0155716D01*
X0030365Y0156000D02*
X0028638Y0155284D01*
X0027316Y0153962D01*
X0026600Y0152235D01*
X0026600Y0150365D01*
X0027316Y0148638D01*
X0028638Y0147316D01*
X0030365Y0146600D01*
X0032235Y0146600D01*
X0033962Y0147316D01*
X0035284Y0148638D01*
X0036000Y0150365D01*
X0036000Y0152235D01*
X0035284Y0153962D01*
X0033962Y0155284D01*
X0032235Y0156000D01*
X0030365Y0156000D01*
X0028471Y0155117D02*
X0024129Y0155117D01*
X0024728Y0154519D02*
X0027872Y0154519D01*
X0027298Y0153920D02*
X0025302Y0153920D01*
X0025550Y0153322D02*
X0027050Y0153322D01*
X0026802Y0152723D02*
X0025798Y0152723D01*
X0026000Y0152125D02*
X0026600Y0152125D01*
X0026600Y0151526D02*
X0026000Y0151526D01*
X0026000Y0150928D02*
X0026600Y0150928D01*
X0026615Y0150329D02*
X0025985Y0150329D01*
X0025737Y0149731D02*
X0026863Y0149731D01*
X0027111Y0149132D02*
X0025489Y0149132D01*
X0025181Y0148534D02*
X0027419Y0148534D01*
X0028018Y0147935D02*
X0024582Y0147935D01*
X0023984Y0147337D02*
X0028616Y0147337D01*
X0030031Y0146738D02*
X0022569Y0146738D01*
X0023342Y0145541D02*
X0029258Y0145541D01*
X0028296Y0144943D02*
X0024304Y0144943D01*
X0024903Y0144344D02*
X0027697Y0144344D01*
X0027226Y0143746D02*
X0025374Y0143746D01*
X0025622Y0143147D02*
X0026978Y0143147D01*
X0026730Y0142549D02*
X0025870Y0142549D01*
X0026000Y0141950D02*
X0026600Y0141950D01*
X0026600Y0141352D02*
X0026000Y0141352D01*
X0026000Y0140753D02*
X0026600Y0140753D01*
X0026687Y0140155D02*
X0025913Y0140155D01*
X0025665Y0139556D02*
X0026935Y0139556D01*
X0027183Y0138958D02*
X0025417Y0138958D01*
X0025006Y0138359D02*
X0027594Y0138359D01*
X0028193Y0137761D02*
X0024407Y0137761D01*
X0023592Y0137162D02*
X0029008Y0137162D01*
X0030281Y0135965D02*
X0022319Y0135965D01*
X0023764Y0135367D02*
X0028836Y0135367D01*
X0028121Y0134768D02*
X0024479Y0134768D01*
X0025077Y0134170D02*
X0027523Y0134170D01*
X0027153Y0133571D02*
X0025447Y0133571D01*
X0025694Y0132972D02*
X0026906Y0132972D01*
X0026658Y0132374D02*
X0025942Y0132374D01*
X0026000Y0131775D02*
X0026600Y0131775D01*
X0026600Y0131177D02*
X0026000Y0131177D01*
X0026000Y0130578D02*
X0026600Y0130578D01*
X0026760Y0129980D02*
X0025840Y0129980D01*
X0025593Y0129381D02*
X0027007Y0129381D01*
X0027255Y0128783D02*
X0025345Y0128783D01*
X0024831Y0128184D02*
X0027769Y0128184D01*
X0028367Y0127586D02*
X0024233Y0127586D01*
X0023170Y0126987D02*
X0029430Y0126987D01*
X0029859Y0125790D02*
X0005750Y0125790D01*
X0005750Y0125192D02*
X0028545Y0125192D01*
X0027947Y0124593D02*
X0005750Y0124593D01*
X0005750Y0123995D02*
X0027348Y0123995D01*
X0027081Y0123396D02*
X0005750Y0123396D01*
X0005750Y0122798D02*
X0026833Y0122798D01*
X0026600Y0122199D02*
X0005750Y0122199D01*
X0005750Y0121601D02*
X0026600Y0121601D01*
X0026600Y0121002D02*
X0005750Y0121002D01*
X0005750Y0120404D02*
X0026600Y0120404D01*
X0026832Y0119805D02*
X0005750Y0119805D01*
X0005750Y0119207D02*
X0027080Y0119207D01*
X0027345Y0118608D02*
X0005750Y0118608D01*
X0005750Y0118010D02*
X0027943Y0118010D01*
X0028542Y0117411D02*
X0005750Y0117411D01*
X0005750Y0116813D02*
X0029852Y0116813D01*
X0033984Y0147337D02*
X0269350Y0147337D01*
X0269350Y0147935D02*
X0034582Y0147935D01*
X0035181Y0148534D02*
X0269350Y0148534D01*
X0269350Y0149132D02*
X0035489Y0149132D01*
X0035737Y0149731D02*
X0269350Y0149731D01*
X0269350Y0150329D02*
X0035985Y0150329D01*
X0036000Y0150928D02*
X0269350Y0150928D01*
X0269350Y0151526D02*
X0036000Y0151526D01*
X0036000Y0152125D02*
X0269350Y0152125D01*
X0269350Y0152723D02*
X0035798Y0152723D01*
X0035550Y0153322D02*
X0269350Y0153322D01*
X0269350Y0153920D02*
X0035302Y0153920D01*
X0034728Y0154519D02*
X0269350Y0154519D01*
X0269350Y0155117D02*
X0034129Y0155117D01*
X0032921Y0155716D02*
X0269350Y0155716D01*
X0269350Y0156314D02*
X0005750Y0156314D01*
X0016625Y0176664D02*
X0020211Y0176664D01*
X0018766Y0177262D02*
X0016597Y0177262D01*
X0016349Y0177861D02*
X0018092Y0177861D01*
X0017494Y0178459D02*
X0016101Y0178459D01*
X0015731Y0179058D02*
X0017141Y0179058D01*
X0016894Y0179656D02*
X0015133Y0179656D01*
X0014336Y0180255D02*
X0016646Y0180255D01*
X0016600Y0180853D02*
X0014125Y0180853D01*
X0014125Y0181452D02*
X0016600Y0181452D01*
X0016600Y0182050D02*
X0014125Y0182050D01*
X0014125Y0182649D02*
X0016772Y0182649D01*
X0017019Y0183247D02*
X0014125Y0183247D01*
X0014125Y0183846D02*
X0017267Y0183846D01*
X0017798Y0184444D02*
X0014125Y0184444D01*
X0014125Y0185043D02*
X0018396Y0185043D01*
X0019500Y0185641D02*
X0014125Y0185641D01*
X0014125Y0186240D02*
X0269350Y0186240D01*
X0269350Y0185641D02*
X0033100Y0185641D01*
X0032811Y0186839D02*
X0269350Y0186839D01*
X0269350Y0187437D02*
X0034084Y0187437D01*
X0034682Y0188036D02*
X0269350Y0188036D01*
X0269350Y0188634D02*
X0035281Y0188634D01*
X0035531Y0189233D02*
X0269350Y0189233D01*
X0269350Y0189831D02*
X0035779Y0189831D01*
X0036000Y0190430D02*
X0269350Y0190430D01*
X0269350Y0191028D02*
X0036000Y0191028D01*
X0036000Y0191627D02*
X0269350Y0191627D01*
X0269350Y0192225D02*
X0036000Y0192225D01*
X0035756Y0192824D02*
X0269350Y0192824D01*
X0269350Y0193422D02*
X0035508Y0193422D01*
X0035226Y0194021D02*
X0269350Y0194021D01*
X0269350Y0194619D02*
X0034628Y0194619D01*
X0034029Y0195218D02*
X0269350Y0195218D01*
X0269350Y0195816D02*
X0032679Y0195816D01*
X0034204Y0185043D02*
X0269350Y0185043D01*
X0269350Y0184444D02*
X0034802Y0184444D01*
X0035333Y0183846D02*
X0269350Y0183846D01*
X0269350Y0183247D02*
X0035581Y0183247D01*
X0035828Y0182649D02*
X0269350Y0182649D01*
X0269350Y0182050D02*
X0036000Y0182050D01*
X0036000Y0181452D02*
X0269350Y0181452D01*
X0269350Y0180853D02*
X0036000Y0180853D01*
X0035954Y0180255D02*
X0135589Y0180255D01*
X0134792Y0179656D02*
X0035706Y0179656D01*
X0035459Y0179058D02*
X0134194Y0179058D01*
X0133824Y0178459D02*
X0035106Y0178459D01*
X0034508Y0177861D02*
X0133576Y0177861D01*
X0133328Y0177262D02*
X0033834Y0177262D01*
X0032389Y0176664D02*
X0133300Y0176664D01*
X0140011Y0180255D02*
X0188089Y0180255D01*
X0187292Y0179656D02*
X0140808Y0179656D01*
X0141406Y0179058D02*
X0186694Y0179058D01*
X0186324Y0178459D02*
X0141776Y0178459D01*
X0133347Y0165292D02*
X0033944Y0165292D01*
X0034553Y0164694D02*
X0133595Y0164694D01*
X0133843Y0164095D02*
X0035152Y0164095D01*
X0035477Y0163497D02*
X0134239Y0163497D01*
X0134838Y0162898D02*
X0035725Y0162898D01*
X0035973Y0162300D02*
X0135699Y0162300D01*
X0191378Y0171876D02*
X0269350Y0171876D01*
X0269350Y0172474D02*
X0192823Y0172474D01*
X0193437Y0173073D02*
X0269350Y0173073D01*
X0269350Y0173671D02*
X0194035Y0173671D01*
X0194330Y0174270D02*
X0269350Y0174270D01*
X0269350Y0174868D02*
X0194578Y0174868D01*
X0194800Y0175467D02*
X0269350Y0175467D01*
X0269350Y0176065D02*
X0194800Y0176065D01*
X0194800Y0176664D02*
X0269350Y0176664D01*
X0269350Y0177262D02*
X0194772Y0177262D01*
X0194524Y0177861D02*
X0269350Y0177861D01*
X0269350Y0178459D02*
X0194276Y0178459D01*
X0193906Y0179058D02*
X0269350Y0179058D01*
X0269350Y0179656D02*
X0193308Y0179656D01*
X0192511Y0180255D02*
X0269350Y0180255D01*
X0269350Y0161701D02*
X0036000Y0161701D01*
X0036000Y0161103D02*
X0269350Y0161103D01*
X0269350Y0160504D02*
X0036000Y0160504D01*
X0035810Y0159905D02*
X0269350Y0159905D01*
X0269350Y0159307D02*
X0035562Y0159307D01*
X0035314Y0158708D02*
X0269350Y0158708D01*
X0269350Y0158110D02*
X0034757Y0158110D01*
X0034158Y0157511D02*
X0269350Y0157511D01*
X0269350Y0156913D02*
X0032990Y0156913D01*
X0019789Y0186839D02*
X0014125Y0186839D01*
X0014125Y0187437D02*
X0018516Y0187437D01*
X0017918Y0188036D02*
X0014125Y0188036D01*
X0014125Y0188634D02*
X0017319Y0188634D01*
X0017069Y0189233D02*
X0014125Y0189233D01*
X0014125Y0189831D02*
X0016821Y0189831D01*
X0016600Y0190430D02*
X0014125Y0190430D01*
X0014125Y0191028D02*
X0016600Y0191028D01*
X0016600Y0191627D02*
X0014125Y0191627D01*
X0014125Y0192225D02*
X0016600Y0192225D01*
X0016844Y0192824D02*
X0014125Y0192824D01*
X0014125Y0193422D02*
X0017092Y0193422D01*
X0017374Y0194021D02*
X0014125Y0194021D01*
X0014125Y0194619D02*
X0017972Y0194619D01*
X0018571Y0195218D02*
X0014125Y0195218D01*
X0014125Y0195816D02*
X0019921Y0195816D01*
X0033654Y0207188D02*
X0269350Y0207188D01*
X0269350Y0207786D02*
X0034433Y0207786D01*
X0035032Y0208385D02*
X0269350Y0208385D01*
X0269350Y0208983D02*
X0035428Y0208983D01*
X0035676Y0209582D02*
X0269350Y0209582D01*
X0269350Y0210180D02*
X0035923Y0210180D01*
X0036000Y0210779D02*
X0269350Y0210779D01*
X0269350Y0211377D02*
X0036000Y0211377D01*
X0036000Y0211976D02*
X0269350Y0211976D01*
X0269350Y0212574D02*
X0035859Y0212574D01*
X0035611Y0213173D02*
X0269350Y0213173D01*
X0269350Y0213772D02*
X0035364Y0213772D01*
X0034877Y0214370D02*
X0269350Y0214370D01*
X0269350Y0214969D02*
X0034278Y0214969D01*
X0033280Y0215567D02*
X0269350Y0215567D01*
X0061543Y0020452D02*
X0044219Y0020452D01*
X0044467Y0019854D02*
X0060707Y0019854D01*
X0060109Y0019255D02*
X0044715Y0019255D01*
X0044963Y0018657D02*
X0059689Y0018657D01*
X0059441Y0018058D02*
X0045205Y0018058D01*
X0045205Y0017460D02*
X0059193Y0017460D01*
X0059100Y0016861D02*
X0045205Y0016861D01*
X0045205Y0016263D02*
X0059100Y0016263D01*
X0059100Y0015664D02*
X0045205Y0015664D01*
X0045205Y0015066D02*
X0059224Y0015066D01*
X0059472Y0014467D02*
X0045180Y0014467D01*
X0044932Y0013869D02*
X0059720Y0013869D01*
X0060183Y0013270D02*
X0044684Y0013270D01*
X0044436Y0012672D02*
X0060781Y0012672D01*
D13*
X0123800Y0037300D03*
X0156300Y0037300D03*
X0137800Y0136300D03*
X0137800Y0166300D03*
X0137800Y0176300D03*
X0175300Y0166300D03*
X0190300Y0176300D03*
X0201800Y0136300D03*
X0012125Y0176300D03*
X0012300Y0230800D03*
D14*
X0012125Y0230625D01*
X0012125Y0176300D01*
X0123800Y0037300D02*
X0156300Y0037300D01*
X0137800Y0136300D02*
X0201800Y0136300D01*
X0175300Y0166300D02*
X0137800Y0166300D01*
X0137800Y0176300D02*
X0190300Y0176300D01*
M02*
