%
M48
M72
T01C0.02756
T02C0.04000
T03C0.11811
%
T01
X123800Y37300
X156300Y37300
X137800Y136300
X137800Y166300
X137800Y176300
X175300Y166300
X190300Y176300
X201800Y136300
X12125Y176300
X12300Y230800
T02
X21300Y211300
X21300Y201300
X21300Y191300
X21300Y181300
X21300Y171300
X21300Y161300
X21300Y151300
X21300Y141300
X21300Y131300
X21300Y121300
X31300Y121300
X31300Y131300
X31300Y141300
X31300Y151300
X31300Y161300
X31300Y171300
X31300Y181300
X31300Y191300
X31300Y201300
X31300Y211300
X53800Y316300
X63800Y316300
X73800Y316300
X83800Y316300
X93800Y316300
X103800Y316300
X113800Y316300
X123800Y316300
X133800Y316300
X143800Y316300
X153800Y316300
X163800Y316300
X173800Y316300
X183800Y316300
X193800Y316300
X203800Y316300
X213800Y316300
X223800Y316300
X233800Y316300
X243800Y316300
X243800Y16300
X233800Y16300
X223800Y16300
X213800Y16300
X203800Y16300
X193800Y16300
X183800Y16300
X173800Y16300
X163800Y16300
X153800Y16300
X143800Y16300
X133800Y16300
X123800Y16300
X113800Y16300
X103800Y16300
X93800Y16300
X83800Y16300
X73800Y16300
X63800Y16300
X53800Y16300
T03
X36300Y16300
X261300Y16300
X261300Y316300
X36300Y316300
M30
