G75*
%MOIN*%
%OFA0B0*%
%FSLAX25Y25*%
%IPPOS*%
%LPD*%
%AMOC8*
5,1,8,0,0,1.08239X$1,22.5*
%
%ADD10C,0.02000*%
%ADD11R,0.11200X0.00200*%
%ADD12R,0.10800X0.00200*%
%ADD13R,0.08200X0.00200*%
%ADD14R,0.07200X0.00200*%
%ADD15R,0.06200X0.00200*%
%ADD16R,0.05800X0.00200*%
%ADD17R,0.05400X0.00200*%
%ADD18R,0.05000X0.00200*%
%ADD19R,0.04800X0.00200*%
%ADD20R,0.04600X0.00200*%
%ADD21R,0.04400X0.00200*%
%ADD22R,0.04200X0.00200*%
%ADD23R,0.03400X0.00200*%
%ADD24R,0.03000X0.00200*%
%ADD25R,0.03600X0.00200*%
%ADD26R,0.05200X0.00200*%
%ADD27R,0.05600X0.00200*%
%ADD28R,0.13600X0.00200*%
%ADD29R,0.09000X0.00200*%
%ADD30R,0.09200X0.00200*%
%ADD31R,0.01200X0.00200*%
%ADD32R,0.06600X0.00200*%
%ADD33R,0.07000X0.00200*%
%ADD34R,0.11000X0.00200*%
%ADD35R,0.14000X0.00200*%
%ADD36R,0.09400X0.00200*%
%ADD37R,0.09600X0.00200*%
%ADD38R,0.02000X0.00200*%
%ADD39R,0.07800X0.00200*%
%ADD40R,0.11400X0.00200*%
%ADD41R,0.14200X0.00200*%
%ADD42R,0.09800X0.00200*%
%ADD43R,0.02400X0.00200*%
%ADD44R,0.08000X0.00200*%
%ADD45R,0.12600X0.00200*%
%ADD46R,0.08800X0.00200*%
%ADD47R,0.10000X0.00200*%
%ADD48R,0.12800X0.00200*%
%ADD49R,0.10600X0.00200*%
%ADD50R,0.13200X0.00200*%
%ADD51R,0.13800X0.00200*%
%ADD52R,0.13400X0.00200*%
%ADD53R,0.11800X0.00200*%
%ADD54R,0.12400X0.00200*%
%ADD55R,0.04000X0.00200*%
%ADD56R,0.06400X0.00200*%
%ADD57R,0.08600X0.00200*%
%ADD58R,0.06000X0.00200*%
%ADD59R,0.03200X0.00200*%
%ADD60R,0.14600X0.00200*%
%ADD61R,0.15000X0.00200*%
%ADD62R,0.03800X0.00200*%
%ADD63R,0.06800X0.00200*%
%ADD64R,0.02800X0.00200*%
%ADD65R,0.02600X0.00200*%
%ADD66R,0.02200X0.00200*%
%ADD67R,0.01600X0.00200*%
%ADD68R,0.01000X0.00200*%
%ADD69R,0.00600X0.00200*%
%ADD70R,0.01800X0.00200*%
%ADD71R,0.10200X0.00200*%
%ADD72R,0.10400X0.00200*%
%ADD73R,0.19000X0.00200*%
%ADD74R,0.19200X0.00200*%
%ADD75R,0.07400X0.00200*%
%ADD76R,0.18600X0.00200*%
%ADD77R,0.01400X0.00200*%
%ADD78R,0.08400X0.00200*%
%ADD79R,0.16800X0.00200*%
%ADD80R,0.16600X0.00200*%
%ADD81R,0.12000X0.00200*%
%ADD82R,0.11600X0.00200*%
%ADD83R,0.07600X0.00200*%
%ADD84C,0.02600*%
%ADD85C,0.01000*%
%ADD86C,0.00300*%
%ADD87C,0.01100*%
%ADD88C,0.00800*%
%ADD89C,0.00500*%
D10*
X0049274Y0042800D02*
X0049208Y0042801D01*
X0049141Y0042806D01*
X0049075Y0042815D01*
X0049010Y0042827D01*
X0048945Y0042843D01*
X0048882Y0042863D01*
X0048820Y0042887D01*
X0048759Y0042914D01*
X0048700Y0042944D01*
X0048642Y0042978D01*
X0048587Y0043016D01*
X0048534Y0043056D01*
X0048483Y0043099D01*
X0048435Y0043145D01*
X0048390Y0043194D01*
X0048348Y0043246D01*
X0048309Y0043299D01*
X0048272Y0043355D01*
X0048240Y0043413D01*
X0048210Y0043473D01*
X0048184Y0043534D01*
X0048162Y0043597D01*
X0048143Y0043661D01*
X0048128Y0043726D01*
X0048117Y0043792D01*
X0048110Y0043858D01*
X0048106Y0043924D01*
X0048107Y0043991D01*
X0048111Y0044057D01*
X0048119Y0044124D01*
X0048131Y0044189D01*
X0048146Y0044254D01*
X0048166Y0044318D01*
X0048189Y0044380D01*
X0048215Y0044441D01*
X0048245Y0044501D01*
X0048278Y0044558D01*
X0048315Y0044614D01*
X0048355Y0044667D01*
X0048398Y0044718D01*
X0048444Y0044767D01*
X0048492Y0044812D01*
X0048543Y0044855D01*
X0048596Y0044895D01*
X0048652Y0044932D01*
X0048710Y0044965D01*
X0048769Y0044995D01*
X0048830Y0045022D01*
X0051052Y0045911D01*
X0051113Y0045938D01*
X0051172Y0045968D01*
X0051230Y0046001D01*
X0051286Y0046038D01*
X0051339Y0046078D01*
X0051390Y0046121D01*
X0051438Y0046166D01*
X0051484Y0046215D01*
X0051527Y0046266D01*
X0051567Y0046319D01*
X0051604Y0046375D01*
X0051637Y0046432D01*
X0051667Y0046492D01*
X0051693Y0046553D01*
X0051716Y0046615D01*
X0051736Y0046679D01*
X0051751Y0046744D01*
X0051763Y0046809D01*
X0051771Y0046876D01*
X0051775Y0046942D01*
X0051776Y0047009D01*
X0051772Y0047075D01*
X0051765Y0047141D01*
X0051754Y0047207D01*
X0051739Y0047272D01*
X0051720Y0047336D01*
X0051698Y0047399D01*
X0051672Y0047460D01*
X0051642Y0047520D01*
X0051610Y0047578D01*
X0051573Y0047634D01*
X0051534Y0047687D01*
X0051492Y0047739D01*
X0051447Y0047788D01*
X0051399Y0047834D01*
X0051348Y0047877D01*
X0051295Y0047917D01*
X0051240Y0047955D01*
X0051182Y0047989D01*
X0051123Y0048019D01*
X0051062Y0048046D01*
X0051000Y0048070D01*
X0050937Y0048090D01*
X0050872Y0048106D01*
X0050807Y0048118D01*
X0050741Y0048127D01*
X0050674Y0048132D01*
X0050608Y0048133D01*
X0051719Y0043244D02*
X0051551Y0043186D01*
X0051381Y0043131D01*
X0051210Y0043081D01*
X0051038Y0043035D01*
X0050865Y0042993D01*
X0050690Y0042955D01*
X0050515Y0042921D01*
X0050340Y0042891D01*
X0050163Y0042865D01*
X0049986Y0042844D01*
X0049809Y0042826D01*
X0049631Y0042813D01*
X0049453Y0042804D01*
X0049275Y0042800D01*
X0048608Y0047688D02*
X0048734Y0047743D01*
X0048862Y0047794D01*
X0048991Y0047842D01*
X0049121Y0047886D01*
X0049252Y0047927D01*
X0049385Y0047964D01*
X0049518Y0047997D01*
X0049652Y0048027D01*
X0049787Y0048053D01*
X0049923Y0048076D01*
X0050059Y0048095D01*
X0050196Y0048110D01*
X0050333Y0048121D01*
X0050470Y0048129D01*
X0050608Y0048132D01*
X0055287Y0046356D02*
X0055287Y0045467D01*
X0058843Y0045467D01*
X0058843Y0046356D02*
X0058843Y0044133D01*
X0058841Y0044061D01*
X0058835Y0043989D01*
X0058825Y0043917D01*
X0058812Y0043846D01*
X0058794Y0043776D01*
X0058773Y0043707D01*
X0058748Y0043640D01*
X0058720Y0043573D01*
X0058688Y0043509D01*
X0058652Y0043446D01*
X0058613Y0043385D01*
X0058571Y0043326D01*
X0058526Y0043270D01*
X0058478Y0043216D01*
X0058427Y0043165D01*
X0058373Y0043117D01*
X0058317Y0043072D01*
X0058258Y0043030D01*
X0058197Y0042991D01*
X0058134Y0042955D01*
X0058070Y0042923D01*
X0058003Y0042895D01*
X0057936Y0042870D01*
X0057867Y0042849D01*
X0057797Y0042831D01*
X0057726Y0042818D01*
X0057654Y0042808D01*
X0057582Y0042802D01*
X0057510Y0042800D01*
X0055287Y0042800D01*
X0055287Y0046356D02*
X0055289Y0046439D01*
X0055295Y0046522D01*
X0055305Y0046605D01*
X0055318Y0046688D01*
X0055336Y0046769D01*
X0055357Y0046850D01*
X0055382Y0046929D01*
X0055411Y0047007D01*
X0055443Y0047084D01*
X0055479Y0047159D01*
X0055518Y0047233D01*
X0055561Y0047304D01*
X0055607Y0047374D01*
X0055657Y0047441D01*
X0055709Y0047506D01*
X0055764Y0047568D01*
X0055823Y0047628D01*
X0055884Y0047685D01*
X0055947Y0047739D01*
X0056013Y0047790D01*
X0056082Y0047837D01*
X0056152Y0047882D01*
X0056225Y0047923D01*
X0056299Y0047960D01*
X0056375Y0047995D01*
X0056453Y0048025D01*
X0056531Y0048052D01*
X0056612Y0048075D01*
X0056693Y0048095D01*
X0056775Y0048110D01*
X0056857Y0048122D01*
X0056940Y0048130D01*
X0057023Y0048134D01*
X0057107Y0048134D01*
X0057190Y0048130D01*
X0057273Y0048122D01*
X0057355Y0048110D01*
X0057437Y0048095D01*
X0057518Y0048075D01*
X0057599Y0048052D01*
X0057677Y0048025D01*
X0057755Y0047995D01*
X0057831Y0047960D01*
X0057905Y0047923D01*
X0057978Y0047882D01*
X0058048Y0047837D01*
X0058117Y0047790D01*
X0058183Y0047739D01*
X0058246Y0047685D01*
X0058307Y0047628D01*
X0058366Y0047568D01*
X0058421Y0047506D01*
X0058473Y0047441D01*
X0058523Y0047374D01*
X0058569Y0047304D01*
X0058612Y0047233D01*
X0058651Y0047159D01*
X0058687Y0047084D01*
X0058719Y0047007D01*
X0058748Y0046929D01*
X0058773Y0046850D01*
X0058794Y0046769D01*
X0058812Y0046688D01*
X0058825Y0046605D01*
X0058835Y0046522D01*
X0058841Y0046439D01*
X0058843Y0046356D01*
X0061586Y0047244D02*
X0061586Y0048133D01*
X0064252Y0048133D01*
X0064252Y0042800D01*
X0068165Y0044578D02*
X0068165Y0046356D01*
X0068167Y0046439D01*
X0068173Y0046522D01*
X0068183Y0046605D01*
X0068196Y0046688D01*
X0068214Y0046769D01*
X0068235Y0046850D01*
X0068260Y0046929D01*
X0068289Y0047007D01*
X0068321Y0047084D01*
X0068357Y0047159D01*
X0068396Y0047233D01*
X0068439Y0047304D01*
X0068485Y0047374D01*
X0068535Y0047441D01*
X0068587Y0047506D01*
X0068642Y0047568D01*
X0068701Y0047628D01*
X0068762Y0047685D01*
X0068825Y0047739D01*
X0068891Y0047790D01*
X0068960Y0047837D01*
X0069030Y0047882D01*
X0069103Y0047923D01*
X0069177Y0047960D01*
X0069253Y0047995D01*
X0069331Y0048025D01*
X0069409Y0048052D01*
X0069490Y0048075D01*
X0069571Y0048095D01*
X0069653Y0048110D01*
X0069735Y0048122D01*
X0069818Y0048130D01*
X0069901Y0048134D01*
X0069985Y0048134D01*
X0070068Y0048130D01*
X0070151Y0048122D01*
X0070233Y0048110D01*
X0070315Y0048095D01*
X0070396Y0048075D01*
X0070477Y0048052D01*
X0070555Y0048025D01*
X0070633Y0047995D01*
X0070709Y0047960D01*
X0070783Y0047923D01*
X0070856Y0047882D01*
X0070926Y0047837D01*
X0070995Y0047790D01*
X0071061Y0047739D01*
X0071124Y0047685D01*
X0071185Y0047628D01*
X0071244Y0047568D01*
X0071299Y0047506D01*
X0071351Y0047441D01*
X0071401Y0047374D01*
X0071447Y0047304D01*
X0071490Y0047233D01*
X0071529Y0047159D01*
X0071565Y0047084D01*
X0071597Y0047007D01*
X0071626Y0046929D01*
X0071651Y0046850D01*
X0071672Y0046769D01*
X0071690Y0046688D01*
X0071703Y0046605D01*
X0071713Y0046522D01*
X0071719Y0046439D01*
X0071721Y0046356D01*
X0071721Y0044578D01*
X0071719Y0044495D01*
X0071713Y0044412D01*
X0071703Y0044329D01*
X0071690Y0044246D01*
X0071672Y0044165D01*
X0071651Y0044084D01*
X0071626Y0044005D01*
X0071597Y0043927D01*
X0071565Y0043850D01*
X0071529Y0043775D01*
X0071490Y0043701D01*
X0071447Y0043630D01*
X0071401Y0043560D01*
X0071351Y0043493D01*
X0071299Y0043428D01*
X0071244Y0043366D01*
X0071185Y0043306D01*
X0071124Y0043249D01*
X0071061Y0043195D01*
X0070995Y0043144D01*
X0070926Y0043097D01*
X0070856Y0043052D01*
X0070783Y0043011D01*
X0070709Y0042974D01*
X0070633Y0042939D01*
X0070555Y0042909D01*
X0070477Y0042882D01*
X0070396Y0042859D01*
X0070315Y0042839D01*
X0070233Y0042824D01*
X0070151Y0042812D01*
X0070068Y0042804D01*
X0069985Y0042800D01*
X0069901Y0042800D01*
X0069818Y0042804D01*
X0069735Y0042812D01*
X0069653Y0042824D01*
X0069571Y0042839D01*
X0069490Y0042859D01*
X0069409Y0042882D01*
X0069331Y0042909D01*
X0069253Y0042939D01*
X0069177Y0042974D01*
X0069103Y0043011D01*
X0069030Y0043052D01*
X0068960Y0043097D01*
X0068891Y0043144D01*
X0068825Y0043195D01*
X0068762Y0043249D01*
X0068701Y0043306D01*
X0068642Y0043366D01*
X0068587Y0043428D01*
X0068535Y0043493D01*
X0068485Y0043560D01*
X0068439Y0043630D01*
X0068396Y0043701D01*
X0068357Y0043775D01*
X0068321Y0043850D01*
X0068289Y0043927D01*
X0068260Y0044005D01*
X0068235Y0044084D01*
X0068214Y0044165D01*
X0068196Y0044246D01*
X0068183Y0044329D01*
X0068173Y0044412D01*
X0068167Y0044495D01*
X0068165Y0044578D01*
X0064406Y0036689D02*
X0067961Y0026911D01*
X0071359Y0027800D02*
X0075804Y0027800D01*
X0073582Y0027800D02*
X0073582Y0035800D01*
X0075804Y0034022D01*
X0084024Y0031800D02*
X0084022Y0031643D01*
X0084016Y0031485D01*
X0084007Y0031328D01*
X0083994Y0031171D01*
X0083977Y0031015D01*
X0083956Y0030859D01*
X0083932Y0030703D01*
X0083904Y0030548D01*
X0083872Y0030394D01*
X0083837Y0030241D01*
X0083798Y0030088D01*
X0083755Y0029937D01*
X0083709Y0029787D01*
X0083659Y0029637D01*
X0083606Y0029489D01*
X0083549Y0029342D01*
X0083488Y0029197D01*
X0083425Y0029053D01*
X0083357Y0028911D01*
X0083579Y0029578D02*
X0080024Y0034022D01*
X0080247Y0034689D02*
X0080274Y0034763D01*
X0080305Y0034835D01*
X0080339Y0034906D01*
X0080376Y0034974D01*
X0080417Y0035042D01*
X0080461Y0035107D01*
X0080508Y0035170D01*
X0080557Y0035230D01*
X0080610Y0035288D01*
X0080665Y0035344D01*
X0080723Y0035397D01*
X0080784Y0035447D01*
X0080846Y0035494D01*
X0080911Y0035538D01*
X0080978Y0035579D01*
X0081047Y0035616D01*
X0081118Y0035651D01*
X0081190Y0035682D01*
X0081263Y0035709D01*
X0081338Y0035733D01*
X0081414Y0035753D01*
X0081490Y0035770D01*
X0081567Y0035783D01*
X0081645Y0035793D01*
X0081724Y0035798D01*
X0081802Y0035800D01*
X0081880Y0035798D01*
X0081959Y0035793D01*
X0082037Y0035783D01*
X0082114Y0035770D01*
X0082190Y0035753D01*
X0082266Y0035733D01*
X0082341Y0035709D01*
X0082414Y0035682D01*
X0082486Y0035651D01*
X0082557Y0035616D01*
X0082626Y0035579D01*
X0082693Y0035538D01*
X0082758Y0035494D01*
X0082820Y0035447D01*
X0082881Y0035397D01*
X0082939Y0035344D01*
X0082994Y0035288D01*
X0083047Y0035230D01*
X0083096Y0035170D01*
X0083143Y0035107D01*
X0083187Y0035042D01*
X0083228Y0034974D01*
X0083265Y0034906D01*
X0083299Y0034835D01*
X0083330Y0034763D01*
X0083357Y0034689D01*
X0080246Y0034689D02*
X0080178Y0034547D01*
X0080115Y0034403D01*
X0080054Y0034258D01*
X0079997Y0034111D01*
X0079944Y0033963D01*
X0079894Y0033814D01*
X0079848Y0033663D01*
X0079805Y0033512D01*
X0079766Y0033359D01*
X0079731Y0033206D01*
X0079699Y0033052D01*
X0079671Y0032897D01*
X0079647Y0032741D01*
X0079626Y0032585D01*
X0079609Y0032429D01*
X0079596Y0032272D01*
X0079587Y0032115D01*
X0079581Y0031957D01*
X0079579Y0031800D01*
X0084024Y0031800D02*
X0084022Y0031957D01*
X0084016Y0032115D01*
X0084007Y0032272D01*
X0083994Y0032429D01*
X0083977Y0032585D01*
X0083956Y0032741D01*
X0083932Y0032897D01*
X0083904Y0033052D01*
X0083872Y0033206D01*
X0083837Y0033359D01*
X0083798Y0033512D01*
X0083755Y0033663D01*
X0083709Y0033813D01*
X0083659Y0033963D01*
X0083606Y0034111D01*
X0083549Y0034258D01*
X0083488Y0034403D01*
X0083425Y0034547D01*
X0083357Y0034689D01*
X0079579Y0031800D02*
X0079581Y0031643D01*
X0079587Y0031485D01*
X0079596Y0031328D01*
X0079609Y0031171D01*
X0079626Y0031015D01*
X0079647Y0030859D01*
X0079671Y0030703D01*
X0079699Y0030548D01*
X0079731Y0030394D01*
X0079766Y0030241D01*
X0079805Y0030088D01*
X0079848Y0029937D01*
X0079894Y0029787D01*
X0079944Y0029637D01*
X0079997Y0029489D01*
X0080054Y0029342D01*
X0080115Y0029197D01*
X0080178Y0029053D01*
X0080246Y0028911D01*
X0080247Y0028911D02*
X0080274Y0028837D01*
X0080305Y0028765D01*
X0080339Y0028694D01*
X0080376Y0028625D01*
X0080417Y0028558D01*
X0080461Y0028493D01*
X0080508Y0028430D01*
X0080557Y0028370D01*
X0080610Y0028312D01*
X0080665Y0028256D01*
X0080723Y0028203D01*
X0080784Y0028153D01*
X0080846Y0028106D01*
X0080911Y0028062D01*
X0080978Y0028021D01*
X0081047Y0027984D01*
X0081118Y0027949D01*
X0081190Y0027918D01*
X0081263Y0027891D01*
X0081338Y0027867D01*
X0081414Y0027847D01*
X0081490Y0027830D01*
X0081567Y0027817D01*
X0081645Y0027807D01*
X0081724Y0027802D01*
X0081802Y0027800D01*
X0081880Y0027802D01*
X0081959Y0027807D01*
X0082037Y0027817D01*
X0082114Y0027830D01*
X0082190Y0027847D01*
X0082266Y0027867D01*
X0082341Y0027891D01*
X0082414Y0027918D01*
X0082486Y0027949D01*
X0082557Y0027984D01*
X0082626Y0028021D01*
X0082693Y0028062D01*
X0082758Y0028106D01*
X0082820Y0028153D01*
X0082881Y0028203D01*
X0082939Y0028256D01*
X0082994Y0028312D01*
X0083047Y0028370D01*
X0083096Y0028430D01*
X0083143Y0028493D01*
X0083187Y0028558D01*
X0083228Y0028625D01*
X0083265Y0028694D01*
X0083299Y0028765D01*
X0083330Y0028837D01*
X0083357Y0028911D01*
X0083018Y0042800D02*
X0083018Y0046800D01*
X0083018Y0045911D02*
X0085018Y0045911D01*
X0083018Y0046800D02*
X0083020Y0046872D01*
X0083026Y0046944D01*
X0083036Y0047016D01*
X0083049Y0047087D01*
X0083067Y0047157D01*
X0083088Y0047226D01*
X0083113Y0047293D01*
X0083141Y0047360D01*
X0083173Y0047424D01*
X0083209Y0047487D01*
X0083248Y0047548D01*
X0083290Y0047607D01*
X0083335Y0047663D01*
X0083383Y0047717D01*
X0083434Y0047768D01*
X0083488Y0047816D01*
X0083544Y0047861D01*
X0083603Y0047903D01*
X0083664Y0047942D01*
X0083727Y0047978D01*
X0083791Y0048010D01*
X0083858Y0048038D01*
X0083925Y0048063D01*
X0083994Y0048084D01*
X0084064Y0048102D01*
X0084135Y0048115D01*
X0084207Y0048125D01*
X0084279Y0048131D01*
X0084351Y0048133D01*
X0086129Y0048133D01*
X0089800Y0048133D02*
X0092467Y0048133D01*
X0091578Y0050800D02*
X0091578Y0044133D01*
X0091576Y0044061D01*
X0091570Y0043989D01*
X0091560Y0043917D01*
X0091547Y0043846D01*
X0091529Y0043776D01*
X0091508Y0043707D01*
X0091483Y0043640D01*
X0091455Y0043573D01*
X0091423Y0043509D01*
X0091387Y0043446D01*
X0091348Y0043385D01*
X0091306Y0043326D01*
X0091261Y0043270D01*
X0091213Y0043216D01*
X0091162Y0043165D01*
X0091108Y0043117D01*
X0091052Y0043072D01*
X0090993Y0043030D01*
X0090932Y0042991D01*
X0090869Y0042955D01*
X0090805Y0042923D01*
X0090738Y0042895D01*
X0090671Y0042870D01*
X0090602Y0042849D01*
X0090532Y0042831D01*
X0090461Y0042818D01*
X0090389Y0042808D01*
X0090317Y0042802D01*
X0090245Y0042800D01*
X0089800Y0042800D01*
X0085018Y0042800D02*
X0083018Y0042800D01*
X0085018Y0042800D02*
X0085096Y0042802D01*
X0085173Y0042808D01*
X0085250Y0042817D01*
X0085326Y0042831D01*
X0085402Y0042848D01*
X0085477Y0042869D01*
X0085550Y0042894D01*
X0085622Y0042922D01*
X0085693Y0042954D01*
X0085762Y0042989D01*
X0085829Y0043028D01*
X0085895Y0043070D01*
X0085958Y0043116D01*
X0086018Y0043164D01*
X0086076Y0043215D01*
X0086132Y0043270D01*
X0086185Y0043326D01*
X0086235Y0043386D01*
X0086281Y0043448D01*
X0086325Y0043512D01*
X0086366Y0043578D01*
X0086403Y0043646D01*
X0086436Y0043716D01*
X0086466Y0043788D01*
X0086493Y0043860D01*
X0086516Y0043935D01*
X0086535Y0044010D01*
X0086550Y0044086D01*
X0086562Y0044163D01*
X0086570Y0044240D01*
X0086574Y0044317D01*
X0086574Y0044395D01*
X0086570Y0044472D01*
X0086562Y0044549D01*
X0086550Y0044626D01*
X0086535Y0044702D01*
X0086516Y0044777D01*
X0086493Y0044852D01*
X0086466Y0044924D01*
X0086436Y0044996D01*
X0086403Y0045066D01*
X0086366Y0045134D01*
X0086325Y0045200D01*
X0086281Y0045264D01*
X0086235Y0045326D01*
X0086185Y0045386D01*
X0086132Y0045442D01*
X0086076Y0045497D01*
X0086018Y0045548D01*
X0085958Y0045596D01*
X0085895Y0045642D01*
X0085829Y0045684D01*
X0085762Y0045723D01*
X0085693Y0045758D01*
X0085622Y0045790D01*
X0085550Y0045818D01*
X0085477Y0045843D01*
X0085402Y0045864D01*
X0085326Y0045881D01*
X0085250Y0045895D01*
X0085173Y0045904D01*
X0085096Y0045910D01*
X0085018Y0045912D01*
X0079175Y0046800D02*
X0079175Y0044133D01*
X0079173Y0044061D01*
X0079167Y0043989D01*
X0079157Y0043917D01*
X0079144Y0043846D01*
X0079126Y0043776D01*
X0079105Y0043707D01*
X0079080Y0043640D01*
X0079052Y0043573D01*
X0079020Y0043509D01*
X0078984Y0043446D01*
X0078945Y0043385D01*
X0078903Y0043326D01*
X0078858Y0043270D01*
X0078810Y0043216D01*
X0078759Y0043165D01*
X0078705Y0043117D01*
X0078649Y0043072D01*
X0078590Y0043030D01*
X0078529Y0042991D01*
X0078466Y0042955D01*
X0078402Y0042923D01*
X0078335Y0042895D01*
X0078268Y0042870D01*
X0078199Y0042849D01*
X0078129Y0042831D01*
X0078058Y0042818D01*
X0077986Y0042808D01*
X0077914Y0042802D01*
X0077842Y0042800D01*
X0075620Y0042800D01*
X0075620Y0050800D01*
X0075620Y0048133D02*
X0077842Y0048133D01*
X0077914Y0048131D01*
X0077986Y0048125D01*
X0078058Y0048115D01*
X0078129Y0048102D01*
X0078199Y0048084D01*
X0078268Y0048063D01*
X0078335Y0048038D01*
X0078402Y0048010D01*
X0078466Y0047978D01*
X0078529Y0047942D01*
X0078590Y0047903D01*
X0078649Y0047861D01*
X0078705Y0047816D01*
X0078759Y0047768D01*
X0078810Y0047717D01*
X0078858Y0047663D01*
X0078903Y0047607D01*
X0078945Y0047548D01*
X0078984Y0047487D01*
X0079020Y0047424D01*
X0079052Y0047360D01*
X0079080Y0047293D01*
X0079105Y0047226D01*
X0079126Y0047157D01*
X0079144Y0047087D01*
X0079157Y0047016D01*
X0079167Y0046944D01*
X0079173Y0046872D01*
X0079175Y0046800D01*
X0095565Y0048133D02*
X0095565Y0042800D01*
X0097787Y0042800D01*
X0097859Y0042802D01*
X0097931Y0042808D01*
X0098003Y0042818D01*
X0098074Y0042831D01*
X0098144Y0042849D01*
X0098213Y0042870D01*
X0098280Y0042895D01*
X0098347Y0042923D01*
X0098411Y0042955D01*
X0098474Y0042991D01*
X0098535Y0043030D01*
X0098594Y0043072D01*
X0098650Y0043117D01*
X0098704Y0043165D01*
X0098755Y0043216D01*
X0098803Y0043270D01*
X0098848Y0043326D01*
X0098890Y0043385D01*
X0098929Y0043446D01*
X0098965Y0043509D01*
X0098997Y0043573D01*
X0099025Y0043640D01*
X0099050Y0043707D01*
X0099071Y0043776D01*
X0099089Y0043846D01*
X0099102Y0043917D01*
X0099112Y0043989D01*
X0099118Y0044061D01*
X0099120Y0044133D01*
X0099121Y0044133D02*
X0099121Y0048133D01*
X0102907Y0046800D02*
X0102907Y0044133D01*
X0102909Y0044061D01*
X0102915Y0043989D01*
X0102925Y0043917D01*
X0102938Y0043846D01*
X0102956Y0043776D01*
X0102977Y0043707D01*
X0103002Y0043640D01*
X0103030Y0043573D01*
X0103062Y0043509D01*
X0103098Y0043446D01*
X0103137Y0043385D01*
X0103179Y0043326D01*
X0103224Y0043270D01*
X0103272Y0043216D01*
X0103323Y0043165D01*
X0103377Y0043117D01*
X0103433Y0043072D01*
X0103492Y0043030D01*
X0103553Y0042991D01*
X0103616Y0042955D01*
X0103680Y0042923D01*
X0103747Y0042895D01*
X0103814Y0042870D01*
X0103883Y0042849D01*
X0103953Y0042831D01*
X0104024Y0042818D01*
X0104096Y0042808D01*
X0104168Y0042802D01*
X0104240Y0042800D01*
X0106462Y0042800D01*
X0106462Y0040133D02*
X0106462Y0048133D01*
X0104240Y0048133D01*
X0104168Y0048131D01*
X0104096Y0048125D01*
X0104024Y0048115D01*
X0103953Y0048102D01*
X0103883Y0048084D01*
X0103814Y0048063D01*
X0103747Y0048038D01*
X0103680Y0048010D01*
X0103616Y0047978D01*
X0103553Y0047942D01*
X0103492Y0047903D01*
X0103433Y0047861D01*
X0103377Y0047816D01*
X0103323Y0047768D01*
X0103272Y0047717D01*
X0103224Y0047663D01*
X0103179Y0047607D01*
X0103137Y0047548D01*
X0103098Y0047487D01*
X0103062Y0047424D01*
X0103030Y0047360D01*
X0103002Y0047293D01*
X0102977Y0047226D01*
X0102956Y0047157D01*
X0102938Y0047087D01*
X0102925Y0047016D01*
X0102915Y0046944D01*
X0102909Y0046872D01*
X0102907Y0046800D01*
X0110842Y0046800D02*
X0110842Y0042800D01*
X0113509Y0042800D02*
X0113509Y0048133D01*
X0112176Y0048133D02*
X0116176Y0048133D01*
X0116176Y0042800D01*
X0120225Y0044578D02*
X0120225Y0046356D01*
X0120227Y0046439D01*
X0120233Y0046522D01*
X0120243Y0046605D01*
X0120256Y0046688D01*
X0120274Y0046769D01*
X0120295Y0046850D01*
X0120320Y0046929D01*
X0120349Y0047007D01*
X0120381Y0047084D01*
X0120417Y0047159D01*
X0120456Y0047233D01*
X0120499Y0047304D01*
X0120545Y0047374D01*
X0120595Y0047441D01*
X0120647Y0047506D01*
X0120702Y0047568D01*
X0120761Y0047628D01*
X0120822Y0047685D01*
X0120885Y0047739D01*
X0120951Y0047790D01*
X0121020Y0047837D01*
X0121090Y0047882D01*
X0121163Y0047923D01*
X0121237Y0047960D01*
X0121313Y0047995D01*
X0121391Y0048025D01*
X0121469Y0048052D01*
X0121550Y0048075D01*
X0121631Y0048095D01*
X0121713Y0048110D01*
X0121795Y0048122D01*
X0121878Y0048130D01*
X0121961Y0048134D01*
X0122045Y0048134D01*
X0122128Y0048130D01*
X0122211Y0048122D01*
X0122293Y0048110D01*
X0122375Y0048095D01*
X0122456Y0048075D01*
X0122537Y0048052D01*
X0122615Y0048025D01*
X0122693Y0047995D01*
X0122769Y0047960D01*
X0122843Y0047923D01*
X0122916Y0047882D01*
X0122986Y0047837D01*
X0123055Y0047790D01*
X0123121Y0047739D01*
X0123184Y0047685D01*
X0123245Y0047628D01*
X0123304Y0047568D01*
X0123359Y0047506D01*
X0123411Y0047441D01*
X0123461Y0047374D01*
X0123507Y0047304D01*
X0123550Y0047233D01*
X0123589Y0047159D01*
X0123625Y0047084D01*
X0123657Y0047007D01*
X0123686Y0046929D01*
X0123711Y0046850D01*
X0123732Y0046769D01*
X0123750Y0046688D01*
X0123763Y0046605D01*
X0123773Y0046522D01*
X0123779Y0046439D01*
X0123781Y0046356D01*
X0123781Y0044578D01*
X0123779Y0044495D01*
X0123773Y0044412D01*
X0123763Y0044329D01*
X0123750Y0044246D01*
X0123732Y0044165D01*
X0123711Y0044084D01*
X0123686Y0044005D01*
X0123657Y0043927D01*
X0123625Y0043850D01*
X0123589Y0043775D01*
X0123550Y0043701D01*
X0123507Y0043630D01*
X0123461Y0043560D01*
X0123411Y0043493D01*
X0123359Y0043428D01*
X0123304Y0043366D01*
X0123245Y0043306D01*
X0123184Y0043249D01*
X0123121Y0043195D01*
X0123055Y0043144D01*
X0122986Y0043097D01*
X0122916Y0043052D01*
X0122843Y0043011D01*
X0122769Y0042974D01*
X0122693Y0042939D01*
X0122615Y0042909D01*
X0122537Y0042882D01*
X0122456Y0042859D01*
X0122375Y0042839D01*
X0122293Y0042824D01*
X0122211Y0042812D01*
X0122128Y0042804D01*
X0122045Y0042800D01*
X0121961Y0042800D01*
X0121878Y0042804D01*
X0121795Y0042812D01*
X0121713Y0042824D01*
X0121631Y0042839D01*
X0121550Y0042859D01*
X0121469Y0042882D01*
X0121391Y0042909D01*
X0121313Y0042939D01*
X0121237Y0042974D01*
X0121163Y0043011D01*
X0121090Y0043052D01*
X0121020Y0043097D01*
X0120951Y0043144D01*
X0120885Y0043195D01*
X0120822Y0043249D01*
X0120761Y0043306D01*
X0120702Y0043366D01*
X0120647Y0043428D01*
X0120595Y0043493D01*
X0120545Y0043560D01*
X0120499Y0043630D01*
X0120456Y0043701D01*
X0120417Y0043775D01*
X0120381Y0043850D01*
X0120349Y0043927D01*
X0120320Y0044005D01*
X0120295Y0044084D01*
X0120274Y0044165D01*
X0120256Y0044246D01*
X0120243Y0044329D01*
X0120233Y0044412D01*
X0120227Y0044495D01*
X0120225Y0044578D01*
X0126998Y0042800D02*
X0128776Y0042800D01*
X0128858Y0042802D01*
X0128940Y0042808D01*
X0129022Y0042817D01*
X0129103Y0042830D01*
X0129183Y0042847D01*
X0129263Y0042868D01*
X0129341Y0042892D01*
X0129418Y0042920D01*
X0129494Y0042951D01*
X0129569Y0042986D01*
X0129641Y0043025D01*
X0129712Y0043066D01*
X0129781Y0043111D01*
X0129847Y0043159D01*
X0129912Y0043210D01*
X0129974Y0043264D01*
X0130033Y0043321D01*
X0130090Y0043380D01*
X0130144Y0043442D01*
X0130195Y0043507D01*
X0130243Y0043573D01*
X0130288Y0043642D01*
X0130329Y0043713D01*
X0130368Y0043785D01*
X0130403Y0043860D01*
X0130434Y0043936D01*
X0130462Y0044013D01*
X0130486Y0044091D01*
X0130507Y0044171D01*
X0130524Y0044251D01*
X0130537Y0044332D01*
X0130546Y0044414D01*
X0130552Y0044496D01*
X0130554Y0044578D01*
X0130553Y0044578D02*
X0130553Y0049022D01*
X0130554Y0049022D02*
X0130552Y0049104D01*
X0130546Y0049186D01*
X0130537Y0049268D01*
X0130524Y0049349D01*
X0130507Y0049429D01*
X0130486Y0049509D01*
X0130462Y0049587D01*
X0130434Y0049664D01*
X0130403Y0049740D01*
X0130368Y0049815D01*
X0130329Y0049887D01*
X0130288Y0049958D01*
X0130243Y0050027D01*
X0130195Y0050093D01*
X0130144Y0050158D01*
X0130090Y0050220D01*
X0130033Y0050279D01*
X0129974Y0050336D01*
X0129912Y0050390D01*
X0129847Y0050441D01*
X0129781Y0050489D01*
X0129712Y0050534D01*
X0129641Y0050575D01*
X0129569Y0050614D01*
X0129494Y0050648D01*
X0129418Y0050680D01*
X0129341Y0050708D01*
X0129263Y0050732D01*
X0129183Y0050753D01*
X0129103Y0050770D01*
X0129022Y0050783D01*
X0128940Y0050792D01*
X0128858Y0050798D01*
X0128776Y0050800D01*
X0126998Y0050800D01*
X0138583Y0046356D02*
X0138583Y0045467D01*
X0142139Y0045467D01*
X0142139Y0046356D02*
X0142139Y0044133D01*
X0142138Y0044133D02*
X0142136Y0044061D01*
X0142130Y0043989D01*
X0142120Y0043917D01*
X0142107Y0043846D01*
X0142089Y0043776D01*
X0142068Y0043707D01*
X0142043Y0043640D01*
X0142015Y0043573D01*
X0141983Y0043509D01*
X0141947Y0043446D01*
X0141908Y0043385D01*
X0141866Y0043326D01*
X0141821Y0043270D01*
X0141773Y0043216D01*
X0141722Y0043165D01*
X0141668Y0043117D01*
X0141612Y0043072D01*
X0141553Y0043030D01*
X0141492Y0042991D01*
X0141429Y0042955D01*
X0141365Y0042923D01*
X0141298Y0042895D01*
X0141231Y0042870D01*
X0141162Y0042849D01*
X0141092Y0042831D01*
X0141021Y0042818D01*
X0140949Y0042808D01*
X0140877Y0042802D01*
X0140805Y0042800D01*
X0138583Y0042800D01*
X0138583Y0046356D02*
X0138585Y0046439D01*
X0138591Y0046522D01*
X0138601Y0046605D01*
X0138614Y0046688D01*
X0138632Y0046769D01*
X0138653Y0046850D01*
X0138678Y0046929D01*
X0138707Y0047007D01*
X0138739Y0047084D01*
X0138775Y0047159D01*
X0138814Y0047233D01*
X0138857Y0047304D01*
X0138903Y0047374D01*
X0138953Y0047441D01*
X0139005Y0047506D01*
X0139060Y0047568D01*
X0139119Y0047628D01*
X0139180Y0047685D01*
X0139243Y0047739D01*
X0139309Y0047790D01*
X0139378Y0047837D01*
X0139448Y0047882D01*
X0139521Y0047923D01*
X0139595Y0047960D01*
X0139671Y0047995D01*
X0139749Y0048025D01*
X0139827Y0048052D01*
X0139908Y0048075D01*
X0139989Y0048095D01*
X0140071Y0048110D01*
X0140153Y0048122D01*
X0140236Y0048130D01*
X0140319Y0048134D01*
X0140403Y0048134D01*
X0140486Y0048130D01*
X0140569Y0048122D01*
X0140651Y0048110D01*
X0140733Y0048095D01*
X0140814Y0048075D01*
X0140895Y0048052D01*
X0140973Y0048025D01*
X0141051Y0047995D01*
X0141127Y0047960D01*
X0141201Y0047923D01*
X0141274Y0047882D01*
X0141344Y0047837D01*
X0141413Y0047790D01*
X0141479Y0047739D01*
X0141542Y0047685D01*
X0141603Y0047628D01*
X0141662Y0047568D01*
X0141717Y0047506D01*
X0141769Y0047441D01*
X0141819Y0047374D01*
X0141865Y0047304D01*
X0141908Y0047233D01*
X0141947Y0047159D01*
X0141983Y0047084D01*
X0142015Y0047007D01*
X0142044Y0046929D01*
X0142069Y0046850D01*
X0142090Y0046769D01*
X0142108Y0046688D01*
X0142121Y0046605D01*
X0142131Y0046522D01*
X0142137Y0046439D01*
X0142139Y0046356D01*
X0146038Y0048133D02*
X0148260Y0048133D01*
X0148332Y0048131D01*
X0148404Y0048125D01*
X0148476Y0048115D01*
X0148547Y0048102D01*
X0148617Y0048084D01*
X0148686Y0048063D01*
X0148753Y0048038D01*
X0148820Y0048010D01*
X0148884Y0047978D01*
X0148947Y0047942D01*
X0149008Y0047903D01*
X0149067Y0047861D01*
X0149123Y0047816D01*
X0149177Y0047768D01*
X0149228Y0047717D01*
X0149276Y0047663D01*
X0149321Y0047607D01*
X0149363Y0047548D01*
X0149402Y0047487D01*
X0149438Y0047424D01*
X0149470Y0047360D01*
X0149498Y0047293D01*
X0149523Y0047226D01*
X0149544Y0047157D01*
X0149562Y0047087D01*
X0149575Y0047016D01*
X0149585Y0046944D01*
X0149591Y0046872D01*
X0149593Y0046800D01*
X0149593Y0044133D01*
X0149591Y0044061D01*
X0149585Y0043989D01*
X0149575Y0043917D01*
X0149562Y0043846D01*
X0149544Y0043776D01*
X0149523Y0043707D01*
X0149498Y0043640D01*
X0149470Y0043573D01*
X0149438Y0043509D01*
X0149402Y0043446D01*
X0149363Y0043385D01*
X0149321Y0043326D01*
X0149276Y0043270D01*
X0149228Y0043216D01*
X0149177Y0043165D01*
X0149123Y0043117D01*
X0149067Y0043072D01*
X0149008Y0043030D01*
X0148947Y0042991D01*
X0148884Y0042955D01*
X0148820Y0042923D01*
X0148753Y0042895D01*
X0148686Y0042870D01*
X0148617Y0042849D01*
X0148547Y0042831D01*
X0148476Y0042818D01*
X0148404Y0042808D01*
X0148332Y0042802D01*
X0148260Y0042800D01*
X0146038Y0042800D01*
X0146038Y0050800D01*
X0157820Y0046800D02*
X0157820Y0042800D01*
X0159820Y0042800D01*
X0159898Y0042802D01*
X0159975Y0042808D01*
X0160052Y0042817D01*
X0160128Y0042831D01*
X0160204Y0042848D01*
X0160279Y0042869D01*
X0160352Y0042894D01*
X0160424Y0042922D01*
X0160495Y0042954D01*
X0160564Y0042989D01*
X0160631Y0043028D01*
X0160697Y0043070D01*
X0160760Y0043116D01*
X0160820Y0043164D01*
X0160878Y0043215D01*
X0160934Y0043270D01*
X0160987Y0043326D01*
X0161037Y0043386D01*
X0161083Y0043448D01*
X0161127Y0043512D01*
X0161168Y0043578D01*
X0161205Y0043646D01*
X0161238Y0043716D01*
X0161268Y0043788D01*
X0161295Y0043860D01*
X0161318Y0043935D01*
X0161337Y0044010D01*
X0161352Y0044086D01*
X0161364Y0044163D01*
X0161372Y0044240D01*
X0161376Y0044317D01*
X0161376Y0044395D01*
X0161372Y0044472D01*
X0161364Y0044549D01*
X0161352Y0044626D01*
X0161337Y0044702D01*
X0161318Y0044777D01*
X0161295Y0044852D01*
X0161268Y0044924D01*
X0161238Y0044996D01*
X0161205Y0045066D01*
X0161168Y0045134D01*
X0161127Y0045200D01*
X0161083Y0045264D01*
X0161037Y0045326D01*
X0160987Y0045386D01*
X0160934Y0045442D01*
X0160878Y0045497D01*
X0160820Y0045548D01*
X0160760Y0045596D01*
X0160697Y0045642D01*
X0160631Y0045684D01*
X0160564Y0045723D01*
X0160495Y0045758D01*
X0160424Y0045790D01*
X0160352Y0045818D01*
X0160279Y0045843D01*
X0160204Y0045864D01*
X0160128Y0045881D01*
X0160052Y0045895D01*
X0159975Y0045904D01*
X0159898Y0045910D01*
X0159820Y0045912D01*
X0159820Y0045911D02*
X0157820Y0045911D01*
X0157820Y0046800D02*
X0157822Y0046872D01*
X0157828Y0046944D01*
X0157838Y0047016D01*
X0157851Y0047087D01*
X0157869Y0047157D01*
X0157890Y0047226D01*
X0157915Y0047293D01*
X0157943Y0047360D01*
X0157975Y0047424D01*
X0158011Y0047487D01*
X0158050Y0047548D01*
X0158092Y0047607D01*
X0158137Y0047663D01*
X0158185Y0047717D01*
X0158236Y0047768D01*
X0158290Y0047816D01*
X0158346Y0047861D01*
X0158405Y0047903D01*
X0158466Y0047942D01*
X0158529Y0047978D01*
X0158593Y0048010D01*
X0158660Y0048038D01*
X0158727Y0048063D01*
X0158796Y0048084D01*
X0158866Y0048102D01*
X0158937Y0048115D01*
X0159009Y0048125D01*
X0159081Y0048131D01*
X0159153Y0048133D01*
X0160931Y0048133D01*
X0164061Y0048133D02*
X0164061Y0047244D01*
X0164061Y0048133D02*
X0166728Y0048133D01*
X0166728Y0042800D01*
X0170915Y0042800D02*
X0170915Y0048133D01*
X0174471Y0048133D02*
X0174471Y0044133D01*
X0174470Y0044133D02*
X0174468Y0044061D01*
X0174462Y0043989D01*
X0174452Y0043917D01*
X0174439Y0043846D01*
X0174421Y0043776D01*
X0174400Y0043707D01*
X0174375Y0043640D01*
X0174347Y0043573D01*
X0174315Y0043509D01*
X0174279Y0043446D01*
X0174240Y0043385D01*
X0174198Y0043326D01*
X0174153Y0043270D01*
X0174105Y0043216D01*
X0174054Y0043165D01*
X0174000Y0043117D01*
X0173944Y0043072D01*
X0173885Y0043030D01*
X0173824Y0042991D01*
X0173761Y0042955D01*
X0173697Y0042923D01*
X0173630Y0042895D01*
X0173563Y0042870D01*
X0173494Y0042849D01*
X0173424Y0042831D01*
X0173353Y0042818D01*
X0173281Y0042808D01*
X0173209Y0042802D01*
X0173137Y0042800D01*
X0170915Y0042800D01*
X0178028Y0042800D02*
X0178473Y0042800D01*
X0178545Y0042802D01*
X0178617Y0042808D01*
X0178689Y0042818D01*
X0178760Y0042831D01*
X0178830Y0042849D01*
X0178899Y0042870D01*
X0178966Y0042895D01*
X0179033Y0042923D01*
X0179097Y0042955D01*
X0179160Y0042991D01*
X0179221Y0043030D01*
X0179280Y0043072D01*
X0179336Y0043117D01*
X0179390Y0043165D01*
X0179441Y0043216D01*
X0179489Y0043270D01*
X0179534Y0043326D01*
X0179576Y0043385D01*
X0179615Y0043446D01*
X0179651Y0043509D01*
X0179683Y0043573D01*
X0179711Y0043640D01*
X0179736Y0043707D01*
X0179757Y0043776D01*
X0179775Y0043846D01*
X0179788Y0043917D01*
X0179798Y0043989D01*
X0179804Y0044061D01*
X0179806Y0044133D01*
X0179806Y0050800D01*
X0180695Y0048133D02*
X0178028Y0048133D01*
X0183519Y0046356D02*
X0183519Y0045467D01*
X0187075Y0045467D01*
X0187075Y0046356D02*
X0187075Y0044133D01*
X0187074Y0044133D02*
X0187072Y0044061D01*
X0187066Y0043989D01*
X0187056Y0043917D01*
X0187043Y0043846D01*
X0187025Y0043776D01*
X0187004Y0043707D01*
X0186979Y0043640D01*
X0186951Y0043573D01*
X0186919Y0043509D01*
X0186883Y0043446D01*
X0186844Y0043385D01*
X0186802Y0043326D01*
X0186757Y0043270D01*
X0186709Y0043216D01*
X0186658Y0043165D01*
X0186604Y0043117D01*
X0186548Y0043072D01*
X0186489Y0043030D01*
X0186428Y0042991D01*
X0186365Y0042955D01*
X0186301Y0042923D01*
X0186234Y0042895D01*
X0186167Y0042870D01*
X0186098Y0042849D01*
X0186028Y0042831D01*
X0185957Y0042818D01*
X0185885Y0042808D01*
X0185813Y0042802D01*
X0185741Y0042800D01*
X0183519Y0042800D01*
X0183519Y0046356D02*
X0183521Y0046439D01*
X0183527Y0046522D01*
X0183537Y0046605D01*
X0183550Y0046688D01*
X0183568Y0046769D01*
X0183589Y0046850D01*
X0183614Y0046929D01*
X0183643Y0047007D01*
X0183675Y0047084D01*
X0183711Y0047159D01*
X0183750Y0047233D01*
X0183793Y0047304D01*
X0183839Y0047374D01*
X0183889Y0047441D01*
X0183941Y0047506D01*
X0183996Y0047568D01*
X0184055Y0047628D01*
X0184116Y0047685D01*
X0184179Y0047739D01*
X0184245Y0047790D01*
X0184314Y0047837D01*
X0184384Y0047882D01*
X0184457Y0047923D01*
X0184531Y0047960D01*
X0184607Y0047995D01*
X0184685Y0048025D01*
X0184763Y0048052D01*
X0184844Y0048075D01*
X0184925Y0048095D01*
X0185007Y0048110D01*
X0185089Y0048122D01*
X0185172Y0048130D01*
X0185255Y0048134D01*
X0185339Y0048134D01*
X0185422Y0048130D01*
X0185505Y0048122D01*
X0185587Y0048110D01*
X0185669Y0048095D01*
X0185750Y0048075D01*
X0185831Y0048052D01*
X0185909Y0048025D01*
X0185987Y0047995D01*
X0186063Y0047960D01*
X0186137Y0047923D01*
X0186210Y0047882D01*
X0186280Y0047837D01*
X0186349Y0047790D01*
X0186415Y0047739D01*
X0186478Y0047685D01*
X0186539Y0047628D01*
X0186598Y0047568D01*
X0186653Y0047506D01*
X0186705Y0047441D01*
X0186755Y0047374D01*
X0186801Y0047304D01*
X0186844Y0047233D01*
X0186883Y0047159D01*
X0186919Y0047084D01*
X0186951Y0047007D01*
X0186980Y0046929D01*
X0187005Y0046850D01*
X0187026Y0046769D01*
X0187044Y0046688D01*
X0187057Y0046605D01*
X0187067Y0046522D01*
X0187073Y0046439D01*
X0187075Y0046356D01*
X0190358Y0048133D02*
X0193025Y0048133D01*
X0195709Y0048133D02*
X0195709Y0042800D01*
X0199411Y0042800D02*
X0199411Y0048133D01*
X0202967Y0048133D02*
X0202967Y0044133D01*
X0202966Y0044133D02*
X0202964Y0044061D01*
X0202958Y0043989D01*
X0202948Y0043917D01*
X0202935Y0043846D01*
X0202917Y0043776D01*
X0202896Y0043707D01*
X0202871Y0043640D01*
X0202843Y0043573D01*
X0202811Y0043509D01*
X0202775Y0043446D01*
X0202736Y0043385D01*
X0202694Y0043326D01*
X0202649Y0043270D01*
X0202601Y0043216D01*
X0202550Y0043165D01*
X0202496Y0043117D01*
X0202440Y0043072D01*
X0202381Y0043030D01*
X0202320Y0042991D01*
X0202257Y0042955D01*
X0202193Y0042923D01*
X0202126Y0042895D01*
X0202059Y0042870D01*
X0201990Y0042849D01*
X0201920Y0042831D01*
X0201849Y0042818D01*
X0201777Y0042808D01*
X0201705Y0042802D01*
X0201633Y0042800D01*
X0199411Y0042800D01*
X0196403Y0035800D02*
X0196403Y0029133D01*
X0196401Y0029061D01*
X0196395Y0028989D01*
X0196385Y0028917D01*
X0196372Y0028846D01*
X0196354Y0028776D01*
X0196333Y0028707D01*
X0196308Y0028640D01*
X0196280Y0028573D01*
X0196248Y0028509D01*
X0196212Y0028446D01*
X0196173Y0028385D01*
X0196131Y0028326D01*
X0196086Y0028270D01*
X0196038Y0028216D01*
X0195987Y0028165D01*
X0195933Y0028117D01*
X0195877Y0028072D01*
X0195818Y0028030D01*
X0195757Y0027991D01*
X0195694Y0027955D01*
X0195630Y0027923D01*
X0195563Y0027895D01*
X0195496Y0027870D01*
X0195427Y0027849D01*
X0195357Y0027831D01*
X0195286Y0027818D01*
X0195214Y0027808D01*
X0195142Y0027802D01*
X0195070Y0027800D01*
X0192019Y0029133D02*
X0192019Y0035800D01*
X0187699Y0031356D02*
X0187699Y0029578D01*
X0187697Y0029495D01*
X0187691Y0029412D01*
X0187681Y0029329D01*
X0187668Y0029246D01*
X0187650Y0029165D01*
X0187629Y0029084D01*
X0187604Y0029005D01*
X0187575Y0028927D01*
X0187543Y0028850D01*
X0187507Y0028775D01*
X0187468Y0028701D01*
X0187425Y0028630D01*
X0187379Y0028560D01*
X0187329Y0028493D01*
X0187277Y0028428D01*
X0187222Y0028366D01*
X0187163Y0028306D01*
X0187102Y0028249D01*
X0187039Y0028195D01*
X0186973Y0028144D01*
X0186904Y0028097D01*
X0186834Y0028052D01*
X0186761Y0028011D01*
X0186687Y0027974D01*
X0186611Y0027939D01*
X0186533Y0027909D01*
X0186455Y0027882D01*
X0186374Y0027859D01*
X0186293Y0027839D01*
X0186211Y0027824D01*
X0186129Y0027812D01*
X0186046Y0027804D01*
X0185963Y0027800D01*
X0185879Y0027800D01*
X0185796Y0027804D01*
X0185713Y0027812D01*
X0185631Y0027824D01*
X0185549Y0027839D01*
X0185468Y0027859D01*
X0185387Y0027882D01*
X0185309Y0027909D01*
X0185231Y0027939D01*
X0185155Y0027974D01*
X0185081Y0028011D01*
X0185008Y0028052D01*
X0184938Y0028097D01*
X0184869Y0028144D01*
X0184803Y0028195D01*
X0184740Y0028249D01*
X0184679Y0028306D01*
X0184620Y0028366D01*
X0184565Y0028428D01*
X0184513Y0028493D01*
X0184463Y0028560D01*
X0184417Y0028630D01*
X0184374Y0028701D01*
X0184335Y0028775D01*
X0184299Y0028850D01*
X0184267Y0028927D01*
X0184238Y0029005D01*
X0184213Y0029084D01*
X0184192Y0029165D01*
X0184174Y0029246D01*
X0184161Y0029329D01*
X0184151Y0029412D01*
X0184145Y0029495D01*
X0184143Y0029578D01*
X0184144Y0029578D02*
X0184144Y0031356D01*
X0184143Y0031356D02*
X0184145Y0031439D01*
X0184151Y0031522D01*
X0184161Y0031605D01*
X0184174Y0031688D01*
X0184192Y0031769D01*
X0184213Y0031850D01*
X0184238Y0031929D01*
X0184267Y0032007D01*
X0184299Y0032084D01*
X0184335Y0032159D01*
X0184374Y0032233D01*
X0184417Y0032304D01*
X0184463Y0032374D01*
X0184513Y0032441D01*
X0184565Y0032506D01*
X0184620Y0032568D01*
X0184679Y0032628D01*
X0184740Y0032685D01*
X0184803Y0032739D01*
X0184869Y0032790D01*
X0184938Y0032837D01*
X0185008Y0032882D01*
X0185081Y0032923D01*
X0185155Y0032960D01*
X0185231Y0032995D01*
X0185309Y0033025D01*
X0185387Y0033052D01*
X0185468Y0033075D01*
X0185549Y0033095D01*
X0185631Y0033110D01*
X0185713Y0033122D01*
X0185796Y0033130D01*
X0185879Y0033134D01*
X0185963Y0033134D01*
X0186046Y0033130D01*
X0186129Y0033122D01*
X0186211Y0033110D01*
X0186293Y0033095D01*
X0186374Y0033075D01*
X0186455Y0033052D01*
X0186533Y0033025D01*
X0186611Y0032995D01*
X0186687Y0032960D01*
X0186761Y0032923D01*
X0186834Y0032882D01*
X0186904Y0032837D01*
X0186973Y0032790D01*
X0187039Y0032739D01*
X0187102Y0032685D01*
X0187163Y0032628D01*
X0187222Y0032568D01*
X0187277Y0032506D01*
X0187329Y0032441D01*
X0187379Y0032374D01*
X0187425Y0032304D01*
X0187468Y0032233D01*
X0187507Y0032159D01*
X0187543Y0032084D01*
X0187575Y0032007D01*
X0187604Y0031929D01*
X0187629Y0031850D01*
X0187650Y0031769D01*
X0187668Y0031688D01*
X0187681Y0031605D01*
X0187691Y0031522D01*
X0187697Y0031439D01*
X0187699Y0031356D01*
X0190686Y0027800D02*
X0190758Y0027802D01*
X0190830Y0027808D01*
X0190902Y0027818D01*
X0190973Y0027831D01*
X0191043Y0027849D01*
X0191112Y0027870D01*
X0191179Y0027895D01*
X0191246Y0027923D01*
X0191310Y0027955D01*
X0191373Y0027991D01*
X0191434Y0028030D01*
X0191493Y0028072D01*
X0191549Y0028117D01*
X0191603Y0028165D01*
X0191654Y0028216D01*
X0191702Y0028270D01*
X0191747Y0028326D01*
X0191789Y0028385D01*
X0191828Y0028446D01*
X0191864Y0028509D01*
X0191896Y0028573D01*
X0191924Y0028640D01*
X0191949Y0028707D01*
X0191970Y0028776D01*
X0191988Y0028846D01*
X0192001Y0028917D01*
X0192011Y0028989D01*
X0192017Y0029061D01*
X0192019Y0029133D01*
X0200036Y0027800D02*
X0202258Y0027800D01*
X0202330Y0027802D01*
X0202402Y0027808D01*
X0202474Y0027818D01*
X0202545Y0027831D01*
X0202615Y0027849D01*
X0202684Y0027870D01*
X0202751Y0027895D01*
X0202818Y0027923D01*
X0202882Y0027955D01*
X0202945Y0027991D01*
X0203006Y0028030D01*
X0203065Y0028072D01*
X0203121Y0028117D01*
X0203175Y0028165D01*
X0203226Y0028216D01*
X0203274Y0028270D01*
X0203319Y0028326D01*
X0203361Y0028385D01*
X0203400Y0028446D01*
X0203436Y0028509D01*
X0203468Y0028573D01*
X0203496Y0028640D01*
X0203521Y0028707D01*
X0203542Y0028776D01*
X0203560Y0028846D01*
X0203573Y0028917D01*
X0203583Y0028989D01*
X0203589Y0029061D01*
X0203591Y0029133D01*
X0203591Y0031356D01*
X0203591Y0030467D02*
X0200036Y0030467D01*
X0200036Y0031356D01*
X0200035Y0031356D02*
X0200037Y0031439D01*
X0200043Y0031522D01*
X0200053Y0031605D01*
X0200066Y0031688D01*
X0200084Y0031769D01*
X0200105Y0031850D01*
X0200130Y0031929D01*
X0200159Y0032007D01*
X0200191Y0032084D01*
X0200227Y0032159D01*
X0200266Y0032233D01*
X0200309Y0032304D01*
X0200355Y0032374D01*
X0200405Y0032441D01*
X0200457Y0032506D01*
X0200512Y0032568D01*
X0200571Y0032628D01*
X0200632Y0032685D01*
X0200695Y0032739D01*
X0200761Y0032790D01*
X0200830Y0032837D01*
X0200900Y0032882D01*
X0200973Y0032923D01*
X0201047Y0032960D01*
X0201123Y0032995D01*
X0201201Y0033025D01*
X0201279Y0033052D01*
X0201360Y0033075D01*
X0201441Y0033095D01*
X0201523Y0033110D01*
X0201605Y0033122D01*
X0201688Y0033130D01*
X0201771Y0033134D01*
X0201855Y0033134D01*
X0201938Y0033130D01*
X0202021Y0033122D01*
X0202103Y0033110D01*
X0202185Y0033095D01*
X0202266Y0033075D01*
X0202347Y0033052D01*
X0202425Y0033025D01*
X0202503Y0032995D01*
X0202579Y0032960D01*
X0202653Y0032923D01*
X0202726Y0032882D01*
X0202796Y0032837D01*
X0202865Y0032790D01*
X0202931Y0032739D01*
X0202994Y0032685D01*
X0203055Y0032628D01*
X0203114Y0032568D01*
X0203169Y0032506D01*
X0203221Y0032441D01*
X0203271Y0032374D01*
X0203317Y0032304D01*
X0203360Y0032233D01*
X0203399Y0032159D01*
X0203435Y0032084D01*
X0203467Y0032007D01*
X0203496Y0031929D01*
X0203521Y0031850D01*
X0203542Y0031769D01*
X0203560Y0031688D01*
X0203573Y0031605D01*
X0203583Y0031522D01*
X0203589Y0031439D01*
X0203591Y0031356D01*
X0207641Y0027800D02*
X0207641Y0035800D01*
X0210307Y0031356D01*
X0212974Y0035800D01*
X0212974Y0027800D01*
X0221408Y0029578D02*
X0221408Y0031356D01*
X0221407Y0031356D02*
X0221409Y0031439D01*
X0221415Y0031522D01*
X0221425Y0031605D01*
X0221438Y0031688D01*
X0221456Y0031769D01*
X0221477Y0031850D01*
X0221502Y0031929D01*
X0221531Y0032007D01*
X0221563Y0032084D01*
X0221599Y0032159D01*
X0221638Y0032233D01*
X0221681Y0032304D01*
X0221727Y0032374D01*
X0221777Y0032441D01*
X0221829Y0032506D01*
X0221884Y0032568D01*
X0221943Y0032628D01*
X0222004Y0032685D01*
X0222067Y0032739D01*
X0222133Y0032790D01*
X0222202Y0032837D01*
X0222272Y0032882D01*
X0222345Y0032923D01*
X0222419Y0032960D01*
X0222495Y0032995D01*
X0222573Y0033025D01*
X0222651Y0033052D01*
X0222732Y0033075D01*
X0222813Y0033095D01*
X0222895Y0033110D01*
X0222977Y0033122D01*
X0223060Y0033130D01*
X0223143Y0033134D01*
X0223227Y0033134D01*
X0223310Y0033130D01*
X0223393Y0033122D01*
X0223475Y0033110D01*
X0223557Y0033095D01*
X0223638Y0033075D01*
X0223719Y0033052D01*
X0223797Y0033025D01*
X0223875Y0032995D01*
X0223951Y0032960D01*
X0224025Y0032923D01*
X0224098Y0032882D01*
X0224168Y0032837D01*
X0224237Y0032790D01*
X0224303Y0032739D01*
X0224366Y0032685D01*
X0224427Y0032628D01*
X0224486Y0032568D01*
X0224541Y0032506D01*
X0224593Y0032441D01*
X0224643Y0032374D01*
X0224689Y0032304D01*
X0224732Y0032233D01*
X0224771Y0032159D01*
X0224807Y0032084D01*
X0224839Y0032007D01*
X0224868Y0031929D01*
X0224893Y0031850D01*
X0224914Y0031769D01*
X0224932Y0031688D01*
X0224945Y0031605D01*
X0224955Y0031522D01*
X0224961Y0031439D01*
X0224963Y0031356D01*
X0224963Y0029578D01*
X0224961Y0029495D01*
X0224955Y0029412D01*
X0224945Y0029329D01*
X0224932Y0029246D01*
X0224914Y0029165D01*
X0224893Y0029084D01*
X0224868Y0029005D01*
X0224839Y0028927D01*
X0224807Y0028850D01*
X0224771Y0028775D01*
X0224732Y0028701D01*
X0224689Y0028630D01*
X0224643Y0028560D01*
X0224593Y0028493D01*
X0224541Y0028428D01*
X0224486Y0028366D01*
X0224427Y0028306D01*
X0224366Y0028249D01*
X0224303Y0028195D01*
X0224237Y0028144D01*
X0224168Y0028097D01*
X0224098Y0028052D01*
X0224025Y0028011D01*
X0223951Y0027974D01*
X0223875Y0027939D01*
X0223797Y0027909D01*
X0223719Y0027882D01*
X0223638Y0027859D01*
X0223557Y0027839D01*
X0223475Y0027824D01*
X0223393Y0027812D01*
X0223310Y0027804D01*
X0223227Y0027800D01*
X0223143Y0027800D01*
X0223060Y0027804D01*
X0222977Y0027812D01*
X0222895Y0027824D01*
X0222813Y0027839D01*
X0222732Y0027859D01*
X0222651Y0027882D01*
X0222573Y0027909D01*
X0222495Y0027939D01*
X0222419Y0027974D01*
X0222345Y0028011D01*
X0222272Y0028052D01*
X0222202Y0028097D01*
X0222133Y0028144D01*
X0222067Y0028195D01*
X0222004Y0028249D01*
X0221943Y0028306D01*
X0221884Y0028366D01*
X0221829Y0028428D01*
X0221777Y0028493D01*
X0221727Y0028560D01*
X0221681Y0028630D01*
X0221638Y0028701D01*
X0221599Y0028775D01*
X0221563Y0028850D01*
X0221531Y0028927D01*
X0221502Y0029005D01*
X0221477Y0029084D01*
X0221456Y0029165D01*
X0221438Y0029246D01*
X0221425Y0029329D01*
X0221415Y0029412D01*
X0221409Y0029495D01*
X0221407Y0029578D01*
X0228138Y0027800D02*
X0229916Y0027800D01*
X0229988Y0027802D01*
X0230060Y0027808D01*
X0230132Y0027818D01*
X0230203Y0027831D01*
X0230273Y0027849D01*
X0230342Y0027870D01*
X0230409Y0027895D01*
X0230476Y0027923D01*
X0230540Y0027955D01*
X0230603Y0027991D01*
X0230664Y0028030D01*
X0230723Y0028072D01*
X0230779Y0028117D01*
X0230833Y0028165D01*
X0230884Y0028216D01*
X0230932Y0028270D01*
X0230977Y0028326D01*
X0231019Y0028385D01*
X0231058Y0028446D01*
X0231094Y0028509D01*
X0231126Y0028573D01*
X0231154Y0028640D01*
X0231179Y0028707D01*
X0231200Y0028776D01*
X0231218Y0028846D01*
X0231231Y0028917D01*
X0231241Y0028989D01*
X0231247Y0029061D01*
X0231249Y0029133D01*
X0231249Y0031800D01*
X0231247Y0031872D01*
X0231241Y0031944D01*
X0231231Y0032016D01*
X0231218Y0032087D01*
X0231200Y0032157D01*
X0231179Y0032226D01*
X0231154Y0032293D01*
X0231126Y0032360D01*
X0231094Y0032424D01*
X0231058Y0032487D01*
X0231019Y0032548D01*
X0230977Y0032607D01*
X0230932Y0032663D01*
X0230884Y0032717D01*
X0230833Y0032768D01*
X0230779Y0032816D01*
X0230723Y0032861D01*
X0230664Y0032903D01*
X0230603Y0032942D01*
X0230540Y0032978D01*
X0230476Y0033010D01*
X0230409Y0033038D01*
X0230342Y0033063D01*
X0230273Y0033084D01*
X0230203Y0033102D01*
X0230132Y0033115D01*
X0230060Y0033125D01*
X0229988Y0033131D01*
X0229916Y0033133D01*
X0228138Y0033133D01*
X0234008Y0033133D02*
X0234008Y0032244D01*
X0234008Y0033133D02*
X0236675Y0033133D01*
X0236675Y0027800D01*
X0240918Y0027800D02*
X0240918Y0031800D01*
X0240918Y0030911D02*
X0242918Y0030911D01*
X0240918Y0031800D02*
X0240920Y0031872D01*
X0240926Y0031944D01*
X0240936Y0032016D01*
X0240949Y0032087D01*
X0240967Y0032157D01*
X0240988Y0032226D01*
X0241013Y0032293D01*
X0241041Y0032360D01*
X0241073Y0032424D01*
X0241109Y0032487D01*
X0241148Y0032548D01*
X0241190Y0032607D01*
X0241235Y0032663D01*
X0241283Y0032717D01*
X0241334Y0032768D01*
X0241388Y0032816D01*
X0241444Y0032861D01*
X0241503Y0032903D01*
X0241564Y0032942D01*
X0241627Y0032978D01*
X0241691Y0033010D01*
X0241758Y0033038D01*
X0241825Y0033063D01*
X0241894Y0033084D01*
X0241964Y0033102D01*
X0242035Y0033115D01*
X0242107Y0033125D01*
X0242179Y0033131D01*
X0242251Y0033133D01*
X0244029Y0033133D01*
X0242918Y0030912D02*
X0242996Y0030910D01*
X0243073Y0030904D01*
X0243150Y0030895D01*
X0243226Y0030881D01*
X0243302Y0030864D01*
X0243377Y0030843D01*
X0243450Y0030818D01*
X0243522Y0030790D01*
X0243593Y0030758D01*
X0243662Y0030723D01*
X0243729Y0030684D01*
X0243795Y0030642D01*
X0243858Y0030596D01*
X0243918Y0030548D01*
X0243976Y0030497D01*
X0244032Y0030442D01*
X0244085Y0030386D01*
X0244135Y0030326D01*
X0244181Y0030264D01*
X0244225Y0030200D01*
X0244266Y0030134D01*
X0244303Y0030066D01*
X0244336Y0029996D01*
X0244366Y0029924D01*
X0244393Y0029852D01*
X0244416Y0029777D01*
X0244435Y0029702D01*
X0244450Y0029626D01*
X0244462Y0029549D01*
X0244470Y0029472D01*
X0244474Y0029395D01*
X0244474Y0029317D01*
X0244470Y0029240D01*
X0244462Y0029163D01*
X0244450Y0029086D01*
X0244435Y0029010D01*
X0244416Y0028935D01*
X0244393Y0028860D01*
X0244366Y0028788D01*
X0244336Y0028716D01*
X0244303Y0028646D01*
X0244266Y0028578D01*
X0244225Y0028512D01*
X0244181Y0028448D01*
X0244135Y0028386D01*
X0244085Y0028326D01*
X0244032Y0028270D01*
X0243976Y0028215D01*
X0243918Y0028164D01*
X0243858Y0028116D01*
X0243795Y0028070D01*
X0243729Y0028028D01*
X0243662Y0027989D01*
X0243593Y0027954D01*
X0243522Y0027922D01*
X0243450Y0027894D01*
X0243377Y0027869D01*
X0243302Y0027848D01*
X0243226Y0027831D01*
X0243150Y0027817D01*
X0243073Y0027808D01*
X0242996Y0027802D01*
X0242918Y0027800D01*
X0240918Y0027800D01*
X0248467Y0027800D02*
X0248467Y0035800D01*
X0251133Y0031356D01*
X0253800Y0035800D01*
X0253800Y0027800D01*
X0253800Y0042800D02*
X0250244Y0042800D01*
X0245581Y0042800D02*
X0243581Y0042800D01*
X0243581Y0046800D01*
X0243581Y0045911D02*
X0245581Y0045911D01*
X0243582Y0046800D02*
X0243584Y0046872D01*
X0243590Y0046944D01*
X0243600Y0047016D01*
X0243613Y0047087D01*
X0243631Y0047157D01*
X0243652Y0047226D01*
X0243677Y0047293D01*
X0243705Y0047360D01*
X0243737Y0047424D01*
X0243773Y0047487D01*
X0243812Y0047548D01*
X0243854Y0047607D01*
X0243899Y0047663D01*
X0243947Y0047717D01*
X0243998Y0047768D01*
X0244052Y0047816D01*
X0244108Y0047861D01*
X0244167Y0047903D01*
X0244228Y0047942D01*
X0244291Y0047978D01*
X0244355Y0048010D01*
X0244422Y0048038D01*
X0244489Y0048063D01*
X0244558Y0048084D01*
X0244628Y0048102D01*
X0244699Y0048115D01*
X0244771Y0048125D01*
X0244843Y0048131D01*
X0244915Y0048133D01*
X0246692Y0048133D01*
X0245581Y0045912D02*
X0245659Y0045910D01*
X0245736Y0045904D01*
X0245813Y0045895D01*
X0245889Y0045881D01*
X0245965Y0045864D01*
X0246040Y0045843D01*
X0246113Y0045818D01*
X0246185Y0045790D01*
X0246256Y0045758D01*
X0246325Y0045723D01*
X0246392Y0045684D01*
X0246458Y0045642D01*
X0246521Y0045596D01*
X0246581Y0045548D01*
X0246639Y0045497D01*
X0246695Y0045442D01*
X0246748Y0045386D01*
X0246798Y0045326D01*
X0246844Y0045264D01*
X0246888Y0045200D01*
X0246929Y0045134D01*
X0246966Y0045066D01*
X0246999Y0044996D01*
X0247029Y0044924D01*
X0247056Y0044852D01*
X0247079Y0044777D01*
X0247098Y0044702D01*
X0247113Y0044626D01*
X0247125Y0044549D01*
X0247133Y0044472D01*
X0247137Y0044395D01*
X0247137Y0044317D01*
X0247133Y0044240D01*
X0247125Y0044163D01*
X0247113Y0044086D01*
X0247098Y0044010D01*
X0247079Y0043935D01*
X0247056Y0043860D01*
X0247029Y0043788D01*
X0246999Y0043716D01*
X0246966Y0043646D01*
X0246929Y0043578D01*
X0246888Y0043512D01*
X0246844Y0043448D01*
X0246798Y0043386D01*
X0246748Y0043326D01*
X0246695Y0043270D01*
X0246639Y0043215D01*
X0246581Y0043164D01*
X0246521Y0043116D01*
X0246458Y0043070D01*
X0246392Y0043028D01*
X0246325Y0042989D01*
X0246256Y0042954D01*
X0246185Y0042922D01*
X0246113Y0042894D01*
X0246040Y0042869D01*
X0245965Y0042848D01*
X0245889Y0042831D01*
X0245813Y0042817D01*
X0245736Y0042808D01*
X0245659Y0042802D01*
X0245581Y0042800D01*
X0239352Y0042800D02*
X0237130Y0042800D01*
X0237058Y0042802D01*
X0236986Y0042808D01*
X0236914Y0042818D01*
X0236843Y0042831D01*
X0236773Y0042849D01*
X0236704Y0042870D01*
X0236637Y0042895D01*
X0236570Y0042923D01*
X0236506Y0042955D01*
X0236443Y0042991D01*
X0236382Y0043030D01*
X0236323Y0043072D01*
X0236267Y0043117D01*
X0236213Y0043165D01*
X0236162Y0043216D01*
X0236114Y0043270D01*
X0236069Y0043326D01*
X0236027Y0043385D01*
X0235988Y0043446D01*
X0235952Y0043509D01*
X0235920Y0043573D01*
X0235892Y0043640D01*
X0235867Y0043707D01*
X0235846Y0043776D01*
X0235828Y0043846D01*
X0235815Y0043917D01*
X0235805Y0043989D01*
X0235799Y0044061D01*
X0235797Y0044133D01*
X0235797Y0046800D01*
X0235799Y0046872D01*
X0235805Y0046944D01*
X0235815Y0047016D01*
X0235828Y0047087D01*
X0235846Y0047157D01*
X0235867Y0047226D01*
X0235892Y0047293D01*
X0235920Y0047360D01*
X0235952Y0047424D01*
X0235988Y0047487D01*
X0236027Y0047548D01*
X0236069Y0047607D01*
X0236114Y0047663D01*
X0236162Y0047717D01*
X0236213Y0047768D01*
X0236267Y0047816D01*
X0236323Y0047861D01*
X0236382Y0047903D01*
X0236443Y0047942D01*
X0236506Y0047978D01*
X0236570Y0048010D01*
X0236637Y0048038D01*
X0236704Y0048063D01*
X0236773Y0048084D01*
X0236843Y0048102D01*
X0236914Y0048115D01*
X0236986Y0048125D01*
X0237058Y0048131D01*
X0237130Y0048133D01*
X0239352Y0048133D01*
X0239352Y0050800D02*
X0239352Y0042800D01*
X0232647Y0042800D02*
X0232203Y0042800D01*
X0232203Y0043244D01*
X0232647Y0043244D01*
X0232647Y0042800D01*
X0224953Y0042800D02*
X0222287Y0050800D01*
X0219620Y0042800D01*
X0220287Y0044800D02*
X0224287Y0044800D01*
X0216048Y0042800D02*
X0216048Y0048133D01*
X0213381Y0048133D01*
X0213381Y0047244D01*
X0210695Y0046800D02*
X0210695Y0044133D01*
X0210693Y0044061D01*
X0210687Y0043989D01*
X0210677Y0043917D01*
X0210664Y0043846D01*
X0210646Y0043776D01*
X0210625Y0043707D01*
X0210600Y0043640D01*
X0210572Y0043573D01*
X0210540Y0043509D01*
X0210504Y0043446D01*
X0210465Y0043385D01*
X0210423Y0043326D01*
X0210378Y0043270D01*
X0210330Y0043216D01*
X0210279Y0043165D01*
X0210225Y0043117D01*
X0210169Y0043072D01*
X0210110Y0043030D01*
X0210049Y0042991D01*
X0209986Y0042955D01*
X0209922Y0042923D01*
X0209855Y0042895D01*
X0209788Y0042870D01*
X0209719Y0042849D01*
X0209649Y0042831D01*
X0209578Y0042818D01*
X0209506Y0042808D01*
X0209434Y0042802D01*
X0209362Y0042800D01*
X0207139Y0042800D01*
X0207139Y0040133D02*
X0207139Y0048133D01*
X0209362Y0048133D01*
X0209434Y0048131D01*
X0209506Y0048125D01*
X0209578Y0048115D01*
X0209649Y0048102D01*
X0209719Y0048084D01*
X0209788Y0048063D01*
X0209855Y0048038D01*
X0209922Y0048010D01*
X0209986Y0047978D01*
X0210049Y0047942D01*
X0210110Y0047903D01*
X0210169Y0047861D01*
X0210225Y0047816D01*
X0210279Y0047768D01*
X0210330Y0047717D01*
X0210378Y0047663D01*
X0210423Y0047607D01*
X0210465Y0047548D01*
X0210504Y0047487D01*
X0210540Y0047424D01*
X0210572Y0047360D01*
X0210600Y0047293D01*
X0210625Y0047226D01*
X0210646Y0047157D01*
X0210664Y0047087D01*
X0210677Y0047016D01*
X0210687Y0046944D01*
X0210693Y0046872D01*
X0210695Y0046800D01*
X0195931Y0050356D02*
X0195487Y0050356D01*
X0195487Y0050800D01*
X0195931Y0050800D01*
X0195931Y0050356D01*
X0192136Y0050800D02*
X0192136Y0044133D01*
X0192134Y0044061D01*
X0192128Y0043989D01*
X0192118Y0043917D01*
X0192105Y0043846D01*
X0192087Y0043776D01*
X0192066Y0043707D01*
X0192041Y0043640D01*
X0192013Y0043573D01*
X0191981Y0043509D01*
X0191945Y0043446D01*
X0191906Y0043385D01*
X0191864Y0043326D01*
X0191819Y0043270D01*
X0191771Y0043216D01*
X0191720Y0043165D01*
X0191666Y0043117D01*
X0191610Y0043072D01*
X0191551Y0043030D01*
X0191490Y0042991D01*
X0191427Y0042955D01*
X0191363Y0042923D01*
X0191296Y0042895D01*
X0191229Y0042870D01*
X0191160Y0042849D01*
X0191090Y0042831D01*
X0191019Y0042818D01*
X0190947Y0042808D01*
X0190875Y0042802D01*
X0190803Y0042800D01*
X0190358Y0042800D01*
X0253800Y0042800D02*
X0253800Y0050800D01*
X0112176Y0048133D02*
X0112104Y0048131D01*
X0112032Y0048125D01*
X0111960Y0048115D01*
X0111889Y0048102D01*
X0111819Y0048084D01*
X0111750Y0048063D01*
X0111683Y0048038D01*
X0111616Y0048010D01*
X0111552Y0047978D01*
X0111489Y0047942D01*
X0111428Y0047903D01*
X0111369Y0047861D01*
X0111313Y0047816D01*
X0111259Y0047768D01*
X0111208Y0047717D01*
X0111160Y0047663D01*
X0111115Y0047607D01*
X0111073Y0047548D01*
X0111034Y0047487D01*
X0110998Y0047424D01*
X0110966Y0047360D01*
X0110938Y0047293D01*
X0110913Y0047226D01*
X0110892Y0047157D01*
X0110874Y0047087D01*
X0110861Y0047016D01*
X0110851Y0046944D01*
X0110845Y0046872D01*
X0110843Y0046800D01*
X0061008Y0027800D02*
X0056564Y0027800D01*
X0052788Y0027800D02*
X0050566Y0027800D01*
X0050473Y0027802D01*
X0050380Y0027808D01*
X0050288Y0027818D01*
X0050195Y0027831D01*
X0050104Y0027849D01*
X0050013Y0027870D01*
X0049924Y0027895D01*
X0049835Y0027924D01*
X0049748Y0027956D01*
X0049662Y0027992D01*
X0049578Y0028032D01*
X0049496Y0028075D01*
X0049415Y0028121D01*
X0049336Y0028171D01*
X0049260Y0028224D01*
X0049186Y0028281D01*
X0049114Y0028340D01*
X0049045Y0028402D01*
X0048978Y0028467D01*
X0048915Y0028535D01*
X0048854Y0028606D01*
X0048796Y0028679D01*
X0048741Y0028754D01*
X0048690Y0028831D01*
X0048642Y0028911D01*
X0048597Y0028993D01*
X0048555Y0029076D01*
X0048518Y0029161D01*
X0048483Y0029247D01*
X0048453Y0029335D01*
X0048426Y0029424D01*
X0048403Y0029515D01*
X0048383Y0029606D01*
X0048368Y0029697D01*
X0048356Y0029790D01*
X0048348Y0029882D01*
X0048344Y0029975D01*
X0048344Y0030069D01*
X0048348Y0030162D01*
X0048356Y0030254D01*
X0048368Y0030347D01*
X0048383Y0030438D01*
X0048403Y0030529D01*
X0048426Y0030620D01*
X0048453Y0030709D01*
X0048483Y0030797D01*
X0048518Y0030883D01*
X0048555Y0030968D01*
X0048597Y0031051D01*
X0048642Y0031133D01*
X0048690Y0031213D01*
X0048741Y0031290D01*
X0048796Y0031365D01*
X0048854Y0031438D01*
X0048915Y0031509D01*
X0048978Y0031577D01*
X0049045Y0031642D01*
X0049114Y0031704D01*
X0049186Y0031763D01*
X0049260Y0031820D01*
X0049336Y0031873D01*
X0049415Y0031923D01*
X0049496Y0031969D01*
X0049578Y0032012D01*
X0049662Y0032052D01*
X0049748Y0032088D01*
X0049835Y0032120D01*
X0049924Y0032149D01*
X0050013Y0032174D01*
X0050104Y0032195D01*
X0050195Y0032213D01*
X0050288Y0032226D01*
X0050380Y0032236D01*
X0050473Y0032242D01*
X0050566Y0032244D01*
X0050121Y0032244D02*
X0051899Y0032244D01*
X0050121Y0032244D02*
X0050038Y0032246D01*
X0049955Y0032252D01*
X0049872Y0032262D01*
X0049789Y0032275D01*
X0049708Y0032293D01*
X0049627Y0032314D01*
X0049548Y0032339D01*
X0049470Y0032368D01*
X0049393Y0032400D01*
X0049318Y0032436D01*
X0049244Y0032475D01*
X0049173Y0032518D01*
X0049103Y0032564D01*
X0049036Y0032614D01*
X0048971Y0032666D01*
X0048909Y0032721D01*
X0048849Y0032780D01*
X0048792Y0032841D01*
X0048738Y0032904D01*
X0048687Y0032970D01*
X0048640Y0033039D01*
X0048595Y0033109D01*
X0048554Y0033182D01*
X0048517Y0033256D01*
X0048482Y0033332D01*
X0048452Y0033410D01*
X0048425Y0033488D01*
X0048402Y0033569D01*
X0048382Y0033650D01*
X0048367Y0033732D01*
X0048355Y0033814D01*
X0048347Y0033897D01*
X0048343Y0033980D01*
X0048343Y0034064D01*
X0048347Y0034147D01*
X0048355Y0034230D01*
X0048367Y0034312D01*
X0048382Y0034394D01*
X0048402Y0034475D01*
X0048425Y0034556D01*
X0048452Y0034634D01*
X0048482Y0034712D01*
X0048517Y0034788D01*
X0048554Y0034862D01*
X0048595Y0034935D01*
X0048640Y0035005D01*
X0048687Y0035074D01*
X0048738Y0035140D01*
X0048792Y0035203D01*
X0048849Y0035264D01*
X0048909Y0035323D01*
X0048971Y0035378D01*
X0049036Y0035430D01*
X0049103Y0035480D01*
X0049173Y0035526D01*
X0049244Y0035569D01*
X0049318Y0035608D01*
X0049393Y0035644D01*
X0049470Y0035676D01*
X0049548Y0035705D01*
X0049627Y0035730D01*
X0049708Y0035751D01*
X0049789Y0035769D01*
X0049872Y0035782D01*
X0049955Y0035792D01*
X0050038Y0035798D01*
X0050121Y0035800D01*
X0052788Y0035800D01*
X0057230Y0032244D02*
X0061008Y0027800D01*
X0061008Y0034023D02*
X0060976Y0034115D01*
X0060941Y0034206D01*
X0060902Y0034296D01*
X0060859Y0034384D01*
X0060814Y0034471D01*
X0060765Y0034556D01*
X0060713Y0034639D01*
X0060658Y0034720D01*
X0060599Y0034798D01*
X0060538Y0034875D01*
X0060474Y0034949D01*
X0060407Y0035020D01*
X0060338Y0035089D01*
X0060266Y0035155D01*
X0060191Y0035219D01*
X0060114Y0035279D01*
X0060035Y0035337D01*
X0059954Y0035392D01*
X0059871Y0035443D01*
X0059785Y0035491D01*
X0059698Y0035536D01*
X0059610Y0035578D01*
X0059519Y0035616D01*
X0059428Y0035650D01*
X0059335Y0035682D01*
X0059241Y0035709D01*
X0059146Y0035733D01*
X0059051Y0035754D01*
X0058954Y0035770D01*
X0058857Y0035783D01*
X0058760Y0035793D01*
X0058662Y0035798D01*
X0058564Y0035800D01*
X0058477Y0035798D01*
X0058390Y0035792D01*
X0058303Y0035783D01*
X0058217Y0035770D01*
X0058131Y0035753D01*
X0058046Y0035732D01*
X0057963Y0035707D01*
X0057880Y0035679D01*
X0057799Y0035648D01*
X0057719Y0035613D01*
X0057641Y0035574D01*
X0057564Y0035532D01*
X0057489Y0035487D01*
X0057417Y0035438D01*
X0057346Y0035387D01*
X0057278Y0035332D01*
X0057213Y0035275D01*
X0057150Y0035214D01*
X0057089Y0035151D01*
X0057032Y0035086D01*
X0056977Y0035018D01*
X0056926Y0034947D01*
X0056877Y0034875D01*
X0056832Y0034800D01*
X0056790Y0034723D01*
X0056751Y0034645D01*
X0056716Y0034565D01*
X0056685Y0034484D01*
X0056657Y0034401D01*
X0056632Y0034318D01*
X0056611Y0034233D01*
X0056594Y0034147D01*
X0056581Y0034061D01*
X0056572Y0033974D01*
X0056566Y0033887D01*
X0056564Y0033800D01*
X0056566Y0033708D01*
X0056572Y0033617D01*
X0056582Y0033526D01*
X0056595Y0033436D01*
X0056613Y0033346D01*
X0056634Y0033257D01*
X0056659Y0033169D01*
X0056688Y0033082D01*
X0056720Y0032996D01*
X0056756Y0032912D01*
X0056796Y0032829D01*
X0056839Y0032749D01*
X0056885Y0032670D01*
X0056935Y0032593D01*
X0056988Y0032518D01*
X0057044Y0032446D01*
X0057104Y0032376D01*
X0057166Y0032309D01*
X0057231Y0032245D01*
D11*
X0117900Y0087400D03*
X0117700Y0105800D03*
X0146100Y0077200D03*
X0160100Y0105800D03*
X0179500Y0104800D03*
D12*
X0202500Y0116400D03*
X0146100Y0077400D03*
D13*
X0146400Y0077600D03*
X0157200Y0095400D03*
X0160000Y0106800D03*
X0148600Y0111800D03*
X0121400Y0089200D03*
X0117800Y0086600D03*
X0117600Y0106600D03*
X0179200Y0106200D03*
D14*
X0187100Y0103600D03*
X0202500Y0088800D03*
X0156500Y0095000D03*
X0145100Y0087800D03*
X0139900Y0086600D03*
X0146500Y0077800D03*
X0121900Y0089400D03*
X0137900Y0106600D03*
X0103100Y0106200D03*
X0103100Y0106000D03*
X0103100Y0105800D03*
X0103100Y0105600D03*
X0103100Y0105400D03*
X0103100Y0105200D03*
X0101100Y0088400D03*
D15*
X0101200Y0088600D03*
X0093000Y0106400D03*
X0117600Y0107000D03*
X0123000Y0090200D03*
X0122800Y0090000D03*
X0134600Y0103800D03*
X0134800Y0104000D03*
X0140000Y0086400D03*
X0146600Y0078000D03*
X0155800Y0094600D03*
X0164200Y0099600D03*
X0164800Y0088000D03*
D16*
X0165000Y0088200D03*
X0155600Y0094400D03*
X0145800Y0103400D03*
X0134400Y0103600D03*
X0134200Y0103400D03*
X0123600Y0090800D03*
X0123400Y0090600D03*
X0101200Y0088800D03*
X0146600Y0078200D03*
X0176600Y0104200D03*
X0187400Y0102800D03*
X0188000Y0088600D03*
D17*
X0188000Y0088800D03*
X0187600Y0102400D03*
X0165200Y0088400D03*
X0164800Y0100000D03*
X0155800Y0105000D03*
X0146000Y0103200D03*
X0133800Y0102800D03*
X0133600Y0102600D03*
X0124200Y0091800D03*
X0124000Y0091400D03*
X0146000Y0088600D03*
X0146600Y0078400D03*
X0101200Y0089000D03*
X0100600Y0101800D03*
X0100600Y0102000D03*
X0091200Y0104200D03*
D18*
X0090800Y0103600D03*
X0100800Y0101200D03*
X0100800Y0101000D03*
X0102000Y0104400D03*
X0114000Y0105400D03*
X0125000Y0093800D03*
X0124800Y0093200D03*
X0124800Y0093000D03*
X0124600Y0092800D03*
X0124600Y0092600D03*
X0133000Y0101200D03*
X0133200Y0101600D03*
X0133200Y0101800D03*
X0133400Y0102200D03*
X0136800Y0087800D03*
X0140000Y0086200D03*
X0146200Y0089000D03*
X0146600Y0078600D03*
X0165400Y0088600D03*
X0175400Y0089200D03*
X0165000Y0100200D03*
X0155200Y0104200D03*
X0155000Y0104000D03*
X0155000Y0103800D03*
X0146200Y0102800D03*
X0176000Y0103600D03*
X0179200Y0107000D03*
X0187600Y0102200D03*
X0188000Y0089200D03*
X0202400Y0090200D03*
X0101200Y0089200D03*
D19*
X0101300Y0089400D03*
X0100900Y0100600D03*
X0100900Y0100800D03*
X0092900Y0106800D03*
X0090700Y0103400D03*
X0090700Y0103200D03*
X0090700Y0103000D03*
X0113700Y0105200D03*
X0125300Y0095400D03*
X0125300Y0095200D03*
X0125300Y0095000D03*
X0125100Y0094400D03*
X0125100Y0094200D03*
X0125100Y0094000D03*
X0124900Y0093600D03*
X0124900Y0093400D03*
X0132700Y0100000D03*
X0132700Y0100200D03*
X0132700Y0100400D03*
X0132900Y0100800D03*
X0132900Y0101000D03*
X0133100Y0101400D03*
X0146300Y0089400D03*
X0146300Y0089200D03*
X0154900Y0093800D03*
X0154900Y0103400D03*
X0154900Y0103600D03*
X0165300Y0100400D03*
X0175700Y0103000D03*
X0175700Y0103200D03*
X0175900Y0103400D03*
X0187700Y0102000D03*
X0188300Y0106600D03*
X0202500Y0106600D03*
X0202500Y0106800D03*
X0202500Y0107000D03*
X0202500Y0107200D03*
X0202500Y0107400D03*
X0202500Y0107600D03*
X0202500Y0107800D03*
X0202500Y0108000D03*
X0202500Y0108200D03*
X0202500Y0108400D03*
X0202500Y0108600D03*
X0202500Y0108800D03*
X0202500Y0109000D03*
X0202500Y0109200D03*
X0202500Y0109400D03*
X0202500Y0109600D03*
X0202500Y0109800D03*
X0202500Y0110000D03*
X0202500Y0110200D03*
X0202500Y0110400D03*
X0202500Y0110600D03*
X0202500Y0110800D03*
X0202500Y0111000D03*
X0202500Y0111200D03*
X0202500Y0111400D03*
X0202500Y0111600D03*
X0202500Y0111800D03*
X0202500Y0112000D03*
X0202500Y0112200D03*
X0202500Y0112400D03*
X0202500Y0112600D03*
X0202500Y0112800D03*
X0202500Y0113000D03*
X0202500Y0113200D03*
X0202500Y0113400D03*
X0202500Y0113600D03*
X0202500Y0113800D03*
X0202500Y0114000D03*
X0202500Y0114200D03*
X0202500Y0114400D03*
X0202500Y0106400D03*
X0202500Y0106200D03*
X0202500Y0106000D03*
X0202500Y0105800D03*
X0202500Y0105600D03*
X0202500Y0105400D03*
X0202500Y0105200D03*
X0202500Y0105000D03*
X0202500Y0104800D03*
X0202500Y0104600D03*
X0202500Y0104400D03*
X0202500Y0104200D03*
X0202500Y0104000D03*
X0202500Y0103800D03*
X0202500Y0103600D03*
X0202500Y0103400D03*
X0202500Y0103200D03*
X0202500Y0103000D03*
X0202500Y0102800D03*
X0202500Y0102600D03*
X0202500Y0102400D03*
X0202500Y0102200D03*
X0202500Y0102000D03*
X0202500Y0101800D03*
X0202500Y0101600D03*
X0202500Y0101400D03*
X0202500Y0101200D03*
X0202500Y0101000D03*
X0202500Y0100800D03*
X0202500Y0100600D03*
X0202500Y0100400D03*
X0202500Y0100200D03*
X0202500Y0100000D03*
X0202500Y0099800D03*
X0202500Y0099600D03*
X0202500Y0099400D03*
X0202500Y0099200D03*
X0202500Y0099000D03*
X0202500Y0098800D03*
X0202500Y0098600D03*
X0202500Y0098400D03*
X0202500Y0098200D03*
X0202500Y0098000D03*
X0202500Y0097800D03*
X0202500Y0097600D03*
X0202500Y0097400D03*
X0202500Y0097200D03*
X0202500Y0097000D03*
X0202500Y0096800D03*
X0202500Y0096600D03*
X0202500Y0096400D03*
X0202500Y0096200D03*
X0202500Y0096000D03*
X0202500Y0095800D03*
X0202500Y0095600D03*
X0202500Y0095400D03*
X0202500Y0095200D03*
X0202500Y0095000D03*
X0202500Y0094800D03*
X0202500Y0094600D03*
X0202500Y0094400D03*
X0202500Y0094200D03*
X0202500Y0094000D03*
X0202500Y0093800D03*
X0202500Y0093600D03*
X0202500Y0093400D03*
X0202500Y0093200D03*
X0202500Y0093000D03*
X0202500Y0092800D03*
X0202500Y0092600D03*
X0202500Y0092400D03*
X0202500Y0092200D03*
X0202500Y0092000D03*
X0202500Y0091800D03*
X0202500Y0091600D03*
X0202500Y0091400D03*
X0202500Y0091200D03*
X0202500Y0091000D03*
X0202500Y0090800D03*
X0202500Y0090600D03*
X0202500Y0090400D03*
X0188100Y0089400D03*
X0175300Y0089400D03*
X0165500Y0088800D03*
X0146700Y0078800D03*
D20*
X0146600Y0079000D03*
X0146600Y0079200D03*
X0146400Y0089600D03*
X0154600Y0093400D03*
X0154800Y0093600D03*
X0154800Y0103200D03*
X0146400Y0102600D03*
X0146800Y0111000D03*
X0146800Y0112800D03*
X0132800Y0100600D03*
X0132600Y0099800D03*
X0132600Y0099600D03*
X0132600Y0099400D03*
X0132600Y0099200D03*
X0132400Y0098800D03*
X0132400Y0098600D03*
X0132400Y0098400D03*
X0132400Y0098200D03*
X0132400Y0098000D03*
X0125400Y0097400D03*
X0125400Y0097200D03*
X0125400Y0097000D03*
X0125400Y0096800D03*
X0125400Y0096600D03*
X0125400Y0096400D03*
X0125400Y0096200D03*
X0125400Y0096000D03*
X0125400Y0095800D03*
X0125400Y0095600D03*
X0125200Y0094800D03*
X0125200Y0094600D03*
X0136000Y0088200D03*
X0136400Y0088000D03*
X0117600Y0107200D03*
X0113400Y0105000D03*
X0111000Y0100400D03*
X0111000Y0100200D03*
X0111000Y0100000D03*
X0111000Y0099800D03*
X0101800Y0104200D03*
X0101000Y0100400D03*
X0101000Y0100200D03*
X0101000Y0100000D03*
X0101200Y0089600D03*
X0090600Y0102400D03*
X0090600Y0102600D03*
X0090600Y0102800D03*
X0165400Y0100600D03*
X0175600Y0102600D03*
X0175600Y0102800D03*
X0175400Y0089600D03*
X0188000Y0089600D03*
X0188000Y0089800D03*
X0187800Y0101800D03*
D21*
X0187900Y0101600D03*
X0188100Y0090200D03*
X0188100Y0090000D03*
X0175300Y0090000D03*
X0175300Y0090200D03*
X0175300Y0090400D03*
X0175300Y0089800D03*
X0165700Y0089000D03*
X0156500Y0087800D03*
X0146500Y0089800D03*
X0146500Y0090000D03*
X0146500Y0090200D03*
X0146700Y0080000D03*
X0146700Y0079800D03*
X0146700Y0079600D03*
X0146700Y0079400D03*
X0135700Y0088400D03*
X0132300Y0096000D03*
X0132300Y0096200D03*
X0132300Y0096400D03*
X0132300Y0096600D03*
X0132300Y0096800D03*
X0132300Y0097000D03*
X0132300Y0097200D03*
X0132300Y0097400D03*
X0132300Y0097600D03*
X0132300Y0097800D03*
X0132500Y0099000D03*
X0121500Y0105400D03*
X0113100Y0104800D03*
X0112900Y0104600D03*
X0112700Y0104400D03*
X0111900Y0103200D03*
X0111700Y0102800D03*
X0111300Y0101800D03*
X0111300Y0101600D03*
X0111100Y0101200D03*
X0111100Y0101000D03*
X0111100Y0100800D03*
X0111100Y0100600D03*
X0101700Y0104000D03*
X0101100Y0099800D03*
X0101100Y0099600D03*
X0101100Y0099400D03*
X0101100Y0099200D03*
X0101100Y0099000D03*
X0101300Y0090800D03*
X0101300Y0090600D03*
X0101300Y0090400D03*
X0101300Y0090200D03*
X0101300Y0090000D03*
X0101300Y0089800D03*
X0090700Y0102000D03*
X0090700Y0102200D03*
X0146500Y0102400D03*
X0146700Y0110600D03*
X0146700Y0110800D03*
X0154900Y0103000D03*
X0160700Y0107200D03*
X0165500Y0100800D03*
X0175500Y0102000D03*
X0175500Y0102200D03*
X0175500Y0102400D03*
D22*
X0175400Y0101800D03*
X0175400Y0101600D03*
X0175400Y0101400D03*
X0175400Y0101200D03*
X0175400Y0101000D03*
X0175400Y0100800D03*
X0175400Y0100600D03*
X0175400Y0100400D03*
X0175400Y0100200D03*
X0175400Y0100000D03*
X0175400Y0099800D03*
X0175400Y0099600D03*
X0175400Y0099400D03*
X0175400Y0099200D03*
X0175400Y0099000D03*
X0175400Y0098800D03*
X0175400Y0098600D03*
X0175400Y0098400D03*
X0175400Y0098200D03*
X0175400Y0098000D03*
X0175400Y0097800D03*
X0175400Y0097600D03*
X0175400Y0097400D03*
X0175400Y0097200D03*
X0175400Y0097000D03*
X0175400Y0096800D03*
X0175400Y0096600D03*
X0175400Y0096400D03*
X0175400Y0096200D03*
X0175400Y0096000D03*
X0175400Y0095800D03*
X0175400Y0095600D03*
X0175400Y0095400D03*
X0175400Y0095200D03*
X0175400Y0095000D03*
X0175400Y0094800D03*
X0175400Y0094600D03*
X0175400Y0094400D03*
X0175400Y0094200D03*
X0175400Y0094000D03*
X0175400Y0093800D03*
X0175400Y0093600D03*
X0175400Y0093400D03*
X0175400Y0093200D03*
X0175400Y0093000D03*
X0175400Y0092800D03*
X0175400Y0092600D03*
X0175400Y0092400D03*
X0175400Y0092200D03*
X0175400Y0092000D03*
X0175400Y0091800D03*
X0175400Y0091600D03*
X0175400Y0091400D03*
X0175400Y0091200D03*
X0175400Y0091000D03*
X0175400Y0090800D03*
X0175400Y0090600D03*
X0165800Y0089200D03*
X0165600Y0101000D03*
X0154800Y0102600D03*
X0154800Y0102800D03*
X0154400Y0093200D03*
X0154400Y0093000D03*
X0146600Y0093000D03*
X0146600Y0092800D03*
X0146600Y0092600D03*
X0146600Y0092400D03*
X0146600Y0092200D03*
X0146600Y0092000D03*
X0146600Y0091800D03*
X0146600Y0091600D03*
X0146600Y0091400D03*
X0146600Y0091200D03*
X0146600Y0091000D03*
X0146600Y0090800D03*
X0146600Y0090600D03*
X0146600Y0090400D03*
X0146600Y0093200D03*
X0146600Y0093400D03*
X0146600Y0093600D03*
X0146600Y0093800D03*
X0146600Y0094000D03*
X0146600Y0094200D03*
X0146600Y0094400D03*
X0146600Y0094600D03*
X0146600Y0094800D03*
X0146600Y0095000D03*
X0146600Y0095200D03*
X0146600Y0095400D03*
X0146600Y0095600D03*
X0146600Y0095800D03*
X0146600Y0096000D03*
X0146600Y0096200D03*
X0146600Y0096400D03*
X0146600Y0096600D03*
X0146600Y0096800D03*
X0146600Y0097000D03*
X0146600Y0097200D03*
X0146600Y0097400D03*
X0146600Y0097600D03*
X0146600Y0097800D03*
X0146600Y0098000D03*
X0146600Y0098200D03*
X0146600Y0098400D03*
X0146600Y0098600D03*
X0146600Y0098800D03*
X0146600Y0099000D03*
X0146600Y0099200D03*
X0146600Y0099400D03*
X0146600Y0099600D03*
X0146600Y0099800D03*
X0146600Y0100000D03*
X0146600Y0100200D03*
X0146600Y0100400D03*
X0146600Y0100600D03*
X0146600Y0100800D03*
X0146600Y0101000D03*
X0146600Y0101200D03*
X0146600Y0101400D03*
X0146600Y0101600D03*
X0146600Y0101800D03*
X0146600Y0102000D03*
X0146600Y0102200D03*
X0146600Y0104800D03*
X0146600Y0105000D03*
X0146600Y0105200D03*
X0146600Y0105400D03*
X0146600Y0105600D03*
X0146600Y0105800D03*
X0146600Y0106000D03*
X0146600Y0106200D03*
X0146600Y0106400D03*
X0146600Y0106600D03*
X0146600Y0106800D03*
X0146600Y0107000D03*
X0146600Y0107200D03*
X0146600Y0107400D03*
X0146600Y0107600D03*
X0146600Y0107800D03*
X0146600Y0108000D03*
X0146600Y0108200D03*
X0146600Y0108400D03*
X0146600Y0108600D03*
X0146600Y0108800D03*
X0146600Y0109000D03*
X0146600Y0109200D03*
X0146600Y0109400D03*
X0146600Y0109600D03*
X0146600Y0109800D03*
X0146600Y0110000D03*
X0146600Y0110200D03*
X0146600Y0110400D03*
X0132400Y0095800D03*
X0132400Y0095600D03*
X0132400Y0095400D03*
X0132400Y0095200D03*
X0132400Y0095000D03*
X0132400Y0094800D03*
X0132400Y0094600D03*
X0132600Y0094400D03*
X0132600Y0094200D03*
X0132600Y0094000D03*
X0132600Y0093800D03*
X0132800Y0093000D03*
X0133000Y0092400D03*
X0135000Y0089000D03*
X0135200Y0088800D03*
X0135400Y0088600D03*
X0146600Y0087000D03*
X0146600Y0086800D03*
X0146600Y0086600D03*
X0146600Y0086400D03*
X0146600Y0086200D03*
X0146600Y0086000D03*
X0146600Y0085800D03*
X0146600Y0085600D03*
X0146600Y0085400D03*
X0146600Y0085200D03*
X0146600Y0085000D03*
X0146600Y0084800D03*
X0146600Y0084600D03*
X0146600Y0084400D03*
X0146600Y0084200D03*
X0146600Y0084000D03*
X0146600Y0083800D03*
X0146600Y0083600D03*
X0146600Y0083400D03*
X0146600Y0083200D03*
X0146600Y0083000D03*
X0146600Y0082800D03*
X0146600Y0082600D03*
X0146600Y0082400D03*
X0146600Y0082200D03*
X0146600Y0082000D03*
X0146600Y0081800D03*
X0146600Y0081600D03*
X0146600Y0081400D03*
X0146600Y0081200D03*
X0146600Y0081000D03*
X0146600Y0080800D03*
X0146600Y0080600D03*
X0146600Y0080400D03*
X0146600Y0080200D03*
X0125200Y0099800D03*
X0125200Y0100000D03*
X0125000Y0100200D03*
X0125000Y0100400D03*
X0125000Y0100600D03*
X0125000Y0100800D03*
X0124800Y0101200D03*
X0122000Y0105200D03*
X0112600Y0104200D03*
X0112400Y0104000D03*
X0112200Y0103800D03*
X0112200Y0103600D03*
X0112000Y0103400D03*
X0111800Y0103000D03*
X0111600Y0102600D03*
X0111600Y0102400D03*
X0111400Y0102200D03*
X0111400Y0102000D03*
X0111200Y0101400D03*
X0101600Y0103600D03*
X0101600Y0103800D03*
X0101200Y0098800D03*
X0101200Y0098600D03*
X0101200Y0098400D03*
X0101200Y0098200D03*
X0101200Y0098000D03*
X0101200Y0097800D03*
X0101200Y0097600D03*
X0101200Y0097400D03*
X0101200Y0097200D03*
X0101200Y0097000D03*
X0101200Y0096800D03*
X0101200Y0096600D03*
X0101200Y0096400D03*
X0101200Y0096200D03*
X0101200Y0096000D03*
X0101200Y0095800D03*
X0101200Y0095600D03*
X0101200Y0095400D03*
X0101200Y0095200D03*
X0101200Y0095000D03*
X0101200Y0094800D03*
X0101200Y0094600D03*
X0101200Y0094400D03*
X0101200Y0094200D03*
X0101200Y0094000D03*
X0101200Y0093800D03*
X0101200Y0093600D03*
X0101200Y0093400D03*
X0101200Y0093200D03*
X0101200Y0093000D03*
X0101200Y0092800D03*
X0101200Y0092600D03*
X0101200Y0092400D03*
X0101200Y0092200D03*
X0101200Y0092000D03*
X0101200Y0091800D03*
X0101200Y0091600D03*
X0101200Y0091400D03*
X0101200Y0091200D03*
X0101200Y0091000D03*
X0112200Y0089400D03*
X0090600Y0101800D03*
X0188000Y0101400D03*
X0188000Y0101200D03*
X0188000Y0101000D03*
X0188000Y0100800D03*
X0188000Y0100600D03*
X0188000Y0100400D03*
X0188000Y0100200D03*
X0188000Y0100000D03*
X0188000Y0099800D03*
X0188000Y0099600D03*
X0188000Y0099400D03*
X0188000Y0099200D03*
X0188000Y0099000D03*
X0188000Y0098800D03*
X0188000Y0098600D03*
X0188000Y0098400D03*
X0188000Y0098200D03*
X0188000Y0098000D03*
X0188000Y0097800D03*
X0188000Y0097600D03*
X0188000Y0097400D03*
X0188000Y0097200D03*
X0188000Y0097000D03*
X0188000Y0096800D03*
X0188000Y0096600D03*
X0188000Y0096400D03*
X0188000Y0096200D03*
X0188000Y0096000D03*
X0188000Y0095800D03*
X0188000Y0095600D03*
X0188000Y0095400D03*
X0188000Y0095200D03*
X0188000Y0095000D03*
X0188000Y0094800D03*
X0188000Y0094600D03*
X0188000Y0094400D03*
X0188000Y0094200D03*
X0188000Y0094000D03*
X0188000Y0093800D03*
X0188000Y0093600D03*
X0188000Y0093400D03*
X0188000Y0093200D03*
X0188000Y0093000D03*
X0188000Y0092800D03*
X0188000Y0092600D03*
X0188000Y0092400D03*
X0188000Y0092200D03*
X0188000Y0092000D03*
X0188000Y0091800D03*
X0188000Y0091600D03*
X0188000Y0091400D03*
X0188000Y0091200D03*
X0188000Y0091000D03*
X0188000Y0090800D03*
X0188000Y0090600D03*
X0188000Y0090400D03*
D23*
X0166200Y0090200D03*
X0159800Y0086000D03*
X0155200Y0088600D03*
X0154800Y0089200D03*
X0154200Y0090600D03*
X0154200Y0090800D03*
X0154200Y0091000D03*
X0154200Y0091200D03*
X0154200Y0091400D03*
X0154800Y0102200D03*
X0165000Y0104800D03*
X0165800Y0103200D03*
X0165800Y0103000D03*
X0165800Y0102800D03*
X0165800Y0102600D03*
X0165800Y0102400D03*
X0111200Y0090000D03*
X0090600Y0101200D03*
D24*
X0092800Y0107200D03*
X0110600Y0090600D03*
X0110800Y0090400D03*
X0140000Y0086000D03*
X0154800Y0102000D03*
X0153800Y0110600D03*
X0166400Y0090800D03*
D25*
X0166100Y0090000D03*
X0166100Y0089800D03*
X0155700Y0088200D03*
X0155500Y0088400D03*
X0154100Y0091600D03*
X0154100Y0091800D03*
X0154100Y0092000D03*
X0154100Y0092200D03*
X0165900Y0101800D03*
X0165900Y0102000D03*
X0165900Y0102200D03*
X0164700Y0105000D03*
X0164500Y0105200D03*
X0146300Y0113000D03*
X0117900Y0086000D03*
X0111500Y0089800D03*
X0101300Y0107000D03*
X0090700Y0101400D03*
X0183900Y0104200D03*
X0187700Y0106800D03*
D26*
X0176100Y0103800D03*
X0175300Y0089000D03*
X0188100Y0089000D03*
X0202500Y0089800D03*
X0202500Y0090000D03*
X0202500Y0114600D03*
X0202500Y0114800D03*
X0202500Y0115000D03*
X0159900Y0086200D03*
X0155100Y0094000D03*
X0146100Y0088800D03*
X0146100Y0103000D03*
X0137900Y0107000D03*
X0133500Y0102400D03*
X0133300Y0102000D03*
X0124500Y0092400D03*
X0124500Y0092200D03*
X0124300Y0092000D03*
X0124100Y0091600D03*
X0112700Y0089200D03*
X0100700Y0101400D03*
X0100700Y0101600D03*
X0102100Y0106800D03*
X0091100Y0104000D03*
X0090900Y0103800D03*
X0155300Y0104400D03*
X0155300Y0104600D03*
X0155500Y0104800D03*
D27*
X0156100Y0105200D03*
X0155300Y0094200D03*
X0145900Y0088400D03*
X0133900Y0103000D03*
X0134100Y0103200D03*
X0123900Y0091200D03*
X0123700Y0091000D03*
X0117900Y0086200D03*
X0100500Y0102200D03*
X0102300Y0104600D03*
X0092900Y0106600D03*
X0147300Y0112600D03*
X0175300Y0088800D03*
X0176300Y0104000D03*
X0187500Y0102600D03*
X0188700Y0104200D03*
X0202500Y0115200D03*
X0202500Y0089600D03*
X0202500Y0089400D03*
D28*
X0202500Y0086400D03*
X0202500Y0116600D03*
X0202500Y0118200D03*
X0141900Y0087200D03*
D29*
X0162400Y0098600D03*
X0188000Y0086400D03*
X0117600Y0106400D03*
X0093200Y0104800D03*
D30*
X0093300Y0104600D03*
X0117900Y0086800D03*
X0137900Y0106000D03*
X0157900Y0095800D03*
X0160300Y0086800D03*
X0175300Y0086400D03*
X0179300Y0105800D03*
X0202500Y0088400D03*
D31*
X0167100Y0086400D03*
X0092700Y0107400D03*
D32*
X0093000Y0106200D03*
X0122600Y0089800D03*
X0160000Y0086400D03*
X0175400Y0088400D03*
X0188000Y0088400D03*
X0189200Y0104600D03*
D33*
X0189400Y0105000D03*
X0189400Y0105200D03*
X0189400Y0105400D03*
X0189400Y0105600D03*
X0189400Y0105800D03*
X0164400Y0087800D03*
X0148000Y0112200D03*
X0117800Y0086400D03*
X0103000Y0105000D03*
X0103000Y0106400D03*
X0093000Y0106000D03*
D34*
X0100800Y0086400D03*
X0138000Y0105200D03*
D35*
X0202500Y0116800D03*
X0202500Y0118000D03*
X0202500Y0088000D03*
X0202500Y0087800D03*
X0202500Y0086600D03*
D36*
X0188000Y0086600D03*
X0188000Y0088000D03*
X0175400Y0088000D03*
X0162000Y0098400D03*
X0160200Y0106400D03*
X0149200Y0111400D03*
X0093200Y0104400D03*
D37*
X0137900Y0105800D03*
X0158300Y0096000D03*
X0161700Y0098200D03*
X0175300Y0087800D03*
X0175300Y0087600D03*
X0175300Y0087400D03*
X0175300Y0087200D03*
X0175300Y0087000D03*
X0175300Y0086800D03*
X0175300Y0086600D03*
X0179300Y0105600D03*
D38*
X0166900Y0086600D03*
X0160700Y0107400D03*
X0156700Y0108200D03*
X0109300Y0092400D03*
X0097500Y0103600D03*
X0097300Y0103800D03*
D39*
X0156800Y0095200D03*
X0160000Y0086600D03*
X0187000Y0103800D03*
D40*
X0179600Y0104600D03*
X0100800Y0088000D03*
X0100800Y0087800D03*
X0100800Y0087600D03*
X0100800Y0087400D03*
X0100800Y0087200D03*
X0100800Y0087000D03*
X0100800Y0086800D03*
X0100800Y0086600D03*
D41*
X0117800Y0088600D03*
X0141600Y0087600D03*
X0202400Y0087600D03*
X0202400Y0087400D03*
X0202400Y0087200D03*
X0202400Y0087000D03*
X0202400Y0086800D03*
X0202400Y0117000D03*
X0202400Y0117200D03*
X0202400Y0117400D03*
X0202400Y0117600D03*
X0202400Y0117800D03*
D42*
X0188000Y0087800D03*
X0188000Y0087600D03*
X0188000Y0087400D03*
X0188000Y0087200D03*
X0188000Y0087000D03*
X0188000Y0086800D03*
X0160200Y0106200D03*
X0158600Y0096200D03*
X0149400Y0111200D03*
X0117600Y0106200D03*
D43*
X0109300Y0092200D03*
X0109500Y0092000D03*
X0109500Y0091800D03*
X0109700Y0091600D03*
X0096900Y0104200D03*
X0145700Y0113200D03*
X0154900Y0110000D03*
X0155100Y0109800D03*
X0157100Y0107400D03*
X0157100Y0107200D03*
X0166700Y0092400D03*
X0166700Y0092200D03*
X0166700Y0092000D03*
X0166700Y0086800D03*
D44*
X0163100Y0099000D03*
X0139900Y0086800D03*
X0137900Y0106400D03*
X0093100Y0105400D03*
X0202500Y0088600D03*
D45*
X0161600Y0087000D03*
D46*
X0157500Y0095600D03*
X0160100Y0106600D03*
X0148900Y0111600D03*
X0139900Y0087000D03*
X0175300Y0088200D03*
X0202500Y0116200D03*
D47*
X0179300Y0105400D03*
X0117900Y0087000D03*
X0100900Y0088200D03*
D48*
X0117900Y0088000D03*
X0161500Y0087200D03*
D49*
X0159600Y0096800D03*
X0159800Y0097000D03*
X0160200Y0097200D03*
X0160400Y0097400D03*
X0160200Y0106000D03*
X0179400Y0105000D03*
X0138000Y0105400D03*
X0117600Y0106000D03*
X0117800Y0087200D03*
D50*
X0161300Y0087400D03*
X0202500Y0088200D03*
D51*
X0141800Y0087400D03*
X0117800Y0088400D03*
D52*
X0117800Y0088200D03*
X0161200Y0087600D03*
D53*
X0179600Y0104400D03*
X0117600Y0105600D03*
X0117800Y0087600D03*
D54*
X0117900Y0087800D03*
D55*
X0124900Y0101000D03*
X0124700Y0101400D03*
X0124700Y0101600D03*
X0124700Y0101800D03*
X0124500Y0102000D03*
X0124500Y0102200D03*
X0124300Y0102400D03*
X0123900Y0103200D03*
X0122500Y0104800D03*
X0122300Y0105000D03*
X0132700Y0093600D03*
X0132700Y0093400D03*
X0132700Y0093200D03*
X0132900Y0092800D03*
X0132900Y0092600D03*
X0133100Y0092200D03*
X0133100Y0092000D03*
X0133300Y0091800D03*
X0133300Y0091600D03*
X0133500Y0091200D03*
X0133700Y0090800D03*
X0133900Y0090400D03*
X0134100Y0090200D03*
X0134300Y0089800D03*
X0134500Y0089600D03*
X0134700Y0089400D03*
X0134900Y0089200D03*
X0137900Y0107200D03*
X0154300Y0092800D03*
X0156100Y0088000D03*
X0165900Y0089400D03*
X0165700Y0101200D03*
X0101500Y0102400D03*
X0101500Y0102600D03*
X0101500Y0102800D03*
X0101500Y0103000D03*
X0101500Y0103200D03*
X0101500Y0103400D03*
X0092900Y0107000D03*
X0090700Y0101600D03*
D56*
X0102700Y0104800D03*
X0137900Y0106800D03*
X0145500Y0103800D03*
X0147700Y0112400D03*
X0145500Y0088000D03*
X0187300Y0103200D03*
X0202500Y0115600D03*
X0202500Y0089000D03*
D57*
X0188000Y0088200D03*
X0179200Y0106000D03*
X0162800Y0098800D03*
X0093200Y0105000D03*
D58*
X0123300Y0090400D03*
X0145700Y0088200D03*
X0145700Y0103600D03*
X0156500Y0105400D03*
X0164500Y0099800D03*
X0175300Y0088600D03*
X0187300Y0103000D03*
X0188900Y0104400D03*
X0188900Y0106400D03*
X0179100Y0106800D03*
X0202500Y0115400D03*
X0202500Y0089200D03*
D59*
X0166300Y0090400D03*
X0166300Y0090600D03*
X0155100Y0088800D03*
X0154900Y0089000D03*
X0154700Y0089400D03*
X0154500Y0089600D03*
X0154500Y0089800D03*
X0154300Y0090000D03*
X0154300Y0090200D03*
X0154300Y0090400D03*
X0165700Y0103400D03*
X0165700Y0103600D03*
X0165500Y0103800D03*
X0165500Y0104000D03*
X0165300Y0104200D03*
X0165300Y0104400D03*
X0165100Y0104600D03*
X0153300Y0110800D03*
X0110900Y0090200D03*
D60*
X0117800Y0088800D03*
D61*
X0117800Y0089000D03*
D62*
X0111800Y0089600D03*
X0124200Y0102600D03*
X0124200Y0102800D03*
X0124000Y0103000D03*
X0123800Y0103400D03*
X0123600Y0103600D03*
X0123400Y0103800D03*
X0123400Y0104000D03*
X0123200Y0104200D03*
X0123000Y0104400D03*
X0122800Y0104600D03*
X0133400Y0091400D03*
X0133600Y0091000D03*
X0133800Y0090600D03*
X0134200Y0090000D03*
X0152800Y0111000D03*
X0154800Y0102400D03*
X0154200Y0092600D03*
X0154200Y0092400D03*
X0166000Y0089600D03*
X0165800Y0101400D03*
X0165800Y0101600D03*
X0164200Y0105400D03*
X0179200Y0107200D03*
D63*
X0179100Y0106600D03*
X0187100Y0103400D03*
X0189300Y0104800D03*
X0189300Y0106000D03*
X0189300Y0106200D03*
X0202500Y0115800D03*
X0163900Y0099400D03*
X0156100Y0094800D03*
X0145300Y0104000D03*
X0135100Y0104200D03*
X0122300Y0089600D03*
X0102900Y0106600D03*
D64*
X0090700Y0101000D03*
X0110300Y0090800D03*
X0166500Y0091000D03*
X0166500Y0091200D03*
D65*
X0166600Y0091400D03*
X0166600Y0091600D03*
X0166600Y0091800D03*
X0154800Y0101800D03*
X0154600Y0110200D03*
X0154200Y0110400D03*
X0187200Y0107000D03*
X0110200Y0091000D03*
X0110000Y0091200D03*
X0109800Y0091400D03*
D66*
X0097200Y0104000D03*
X0090600Y0100800D03*
X0155400Y0109600D03*
X0155600Y0109400D03*
X0155800Y0109200D03*
X0156000Y0109000D03*
X0156200Y0108800D03*
X0156400Y0108600D03*
X0156600Y0108400D03*
X0156800Y0108000D03*
X0157000Y0107800D03*
X0157000Y0107600D03*
X0166800Y0093200D03*
X0166800Y0093000D03*
X0166800Y0092800D03*
X0166800Y0092600D03*
D67*
X0137900Y0107400D03*
X0109300Y0092600D03*
X0098500Y0102400D03*
X0098300Y0102600D03*
X0098100Y0102800D03*
D68*
X0109400Y0092800D03*
D69*
X0109600Y0093000D03*
X0145000Y0113400D03*
D70*
X0154800Y0101600D03*
X0166800Y0093400D03*
X0117600Y0107400D03*
X0100600Y0107200D03*
X0097800Y0103400D03*
X0097800Y0103200D03*
X0098000Y0103000D03*
D71*
X0138000Y0105600D03*
X0159000Y0096400D03*
X0161400Y0098000D03*
X0179400Y0105200D03*
D72*
X0161100Y0097800D03*
X0160700Y0097600D03*
X0159300Y0096600D03*
D73*
X0118200Y0097600D03*
X0118000Y0098400D03*
X0118000Y0098600D03*
X0118000Y0098800D03*
X0118000Y0099000D03*
X0118000Y0099200D03*
X0118000Y0099400D03*
D74*
X0118100Y0098200D03*
X0118100Y0098000D03*
X0118100Y0097800D03*
D75*
X0117600Y0106800D03*
X0093000Y0105800D03*
X0145000Y0104200D03*
X0163600Y0099200D03*
X0179200Y0106400D03*
D76*
X0118000Y0099600D03*
D77*
X0090600Y0100600D03*
X0179200Y0107400D03*
X0186600Y0107200D03*
D78*
X0186900Y0104000D03*
X0137900Y0106200D03*
X0093100Y0105200D03*
D79*
X0140300Y0104400D03*
D80*
X0140400Y0104600D03*
D81*
X0138100Y0104800D03*
X0159900Y0105600D03*
D82*
X0138100Y0105000D03*
D83*
X0148300Y0112000D03*
X0159700Y0107000D03*
X0202500Y0116000D03*
X0093100Y0105600D03*
D84*
X0138084Y0249883D02*
X0138084Y0264783D01*
X0133945Y0264783D01*
X0133848Y0264781D01*
X0133750Y0264775D01*
X0133653Y0264766D01*
X0133557Y0264752D01*
X0133461Y0264735D01*
X0133365Y0264714D01*
X0133271Y0264690D01*
X0133178Y0264661D01*
X0133086Y0264630D01*
X0132995Y0264594D01*
X0132905Y0264555D01*
X0132818Y0264512D01*
X0132732Y0264466D01*
X0132648Y0264417D01*
X0132566Y0264365D01*
X0132486Y0264309D01*
X0132408Y0264250D01*
X0132332Y0264188D01*
X0132260Y0264123D01*
X0132189Y0264056D01*
X0132122Y0263985D01*
X0132057Y0263913D01*
X0131995Y0263837D01*
X0131936Y0263759D01*
X0131880Y0263679D01*
X0131828Y0263597D01*
X0131779Y0263513D01*
X0131733Y0263427D01*
X0131690Y0263340D01*
X0131651Y0263250D01*
X0131615Y0263159D01*
X0131584Y0263067D01*
X0131555Y0262974D01*
X0131531Y0262880D01*
X0131510Y0262784D01*
X0131493Y0262688D01*
X0131479Y0262592D01*
X0131470Y0262495D01*
X0131464Y0262398D01*
X0131462Y0262300D01*
X0131462Y0257333D01*
X0131464Y0257236D01*
X0131470Y0257138D01*
X0131479Y0257041D01*
X0131493Y0256945D01*
X0131510Y0256849D01*
X0131531Y0256753D01*
X0131555Y0256659D01*
X0131584Y0256566D01*
X0131615Y0256474D01*
X0131651Y0256383D01*
X0131690Y0256293D01*
X0131733Y0256206D01*
X0131779Y0256120D01*
X0131828Y0256036D01*
X0131880Y0255954D01*
X0131936Y0255874D01*
X0131995Y0255796D01*
X0132057Y0255720D01*
X0132122Y0255648D01*
X0132189Y0255577D01*
X0132260Y0255510D01*
X0132332Y0255445D01*
X0132408Y0255383D01*
X0132486Y0255324D01*
X0132566Y0255268D01*
X0132648Y0255216D01*
X0132732Y0255167D01*
X0132818Y0255121D01*
X0132905Y0255078D01*
X0132995Y0255039D01*
X0133086Y0255003D01*
X0133178Y0254972D01*
X0133271Y0254943D01*
X0133365Y0254919D01*
X0133461Y0254898D01*
X0133557Y0254881D01*
X0133653Y0254867D01*
X0133750Y0254858D01*
X0133848Y0254852D01*
X0133945Y0254850D01*
X0138084Y0254850D01*
X0142521Y0254850D02*
X0152454Y0269750D01*
X0142521Y0269750D02*
X0152454Y0254850D01*
X0163521Y0260644D02*
X0173454Y0260644D01*
X0185786Y0258989D02*
X0185786Y0265611D01*
X0185788Y0265738D01*
X0185794Y0265866D01*
X0185804Y0265993D01*
X0185817Y0266120D01*
X0185835Y0266246D01*
X0185856Y0266372D01*
X0185882Y0266496D01*
X0185911Y0266621D01*
X0185944Y0266744D01*
X0185981Y0266866D01*
X0186021Y0266987D01*
X0186066Y0267106D01*
X0186113Y0267224D01*
X0186165Y0267341D01*
X0186220Y0267456D01*
X0186278Y0267569D01*
X0186341Y0267681D01*
X0186406Y0267790D01*
X0186475Y0267897D01*
X0186547Y0268002D01*
X0186622Y0268105D01*
X0186700Y0268206D01*
X0186782Y0268304D01*
X0186866Y0268399D01*
X0186954Y0268492D01*
X0187044Y0268582D01*
X0187137Y0268670D01*
X0187232Y0268754D01*
X0187330Y0268836D01*
X0187431Y0268914D01*
X0187534Y0268989D01*
X0187639Y0269061D01*
X0187746Y0269130D01*
X0187856Y0269195D01*
X0187967Y0269258D01*
X0188080Y0269316D01*
X0188195Y0269371D01*
X0188312Y0269423D01*
X0188430Y0269471D01*
X0188549Y0269515D01*
X0188670Y0269555D01*
X0188792Y0269592D01*
X0188915Y0269625D01*
X0189040Y0269654D01*
X0189164Y0269680D01*
X0189290Y0269701D01*
X0189416Y0269719D01*
X0189543Y0269732D01*
X0189670Y0269742D01*
X0189798Y0269748D01*
X0189925Y0269750D01*
X0194064Y0269750D01*
X0194064Y0254850D01*
X0189925Y0254850D01*
X0189798Y0254852D01*
X0189670Y0254858D01*
X0189543Y0254868D01*
X0189416Y0254881D01*
X0189290Y0254899D01*
X0189164Y0254920D01*
X0189040Y0254946D01*
X0188915Y0254975D01*
X0188792Y0255008D01*
X0188670Y0255045D01*
X0188549Y0255085D01*
X0188430Y0255129D01*
X0188312Y0255177D01*
X0188195Y0255229D01*
X0188080Y0255284D01*
X0187967Y0255342D01*
X0187856Y0255405D01*
X0187746Y0255470D01*
X0187639Y0255539D01*
X0187534Y0255611D01*
X0187431Y0255686D01*
X0187330Y0255764D01*
X0187232Y0255846D01*
X0187137Y0255930D01*
X0187044Y0256018D01*
X0186954Y0256108D01*
X0186866Y0256201D01*
X0186782Y0256296D01*
X0186700Y0256394D01*
X0186622Y0256495D01*
X0186547Y0256598D01*
X0186475Y0256703D01*
X0186406Y0256810D01*
X0186341Y0256919D01*
X0186278Y0257031D01*
X0186220Y0257144D01*
X0186165Y0257259D01*
X0186113Y0257376D01*
X0186065Y0257494D01*
X0186021Y0257613D01*
X0185981Y0257734D01*
X0185944Y0257856D01*
X0185911Y0257979D01*
X0185882Y0258104D01*
X0185856Y0258228D01*
X0185835Y0258354D01*
X0185817Y0258480D01*
X0185804Y0258607D01*
X0185794Y0258734D01*
X0185788Y0258862D01*
X0185786Y0258989D01*
X0198826Y0254850D02*
X0202137Y0254850D01*
X0202250Y0254852D01*
X0202363Y0254858D01*
X0202476Y0254867D01*
X0202588Y0254881D01*
X0202700Y0254898D01*
X0202811Y0254919D01*
X0202921Y0254944D01*
X0203030Y0254973D01*
X0203139Y0255005D01*
X0203246Y0255041D01*
X0203352Y0255081D01*
X0203456Y0255124D01*
X0203559Y0255171D01*
X0203660Y0255221D01*
X0203760Y0255275D01*
X0203857Y0255332D01*
X0203953Y0255392D01*
X0204046Y0255456D01*
X0204138Y0255523D01*
X0204227Y0255593D01*
X0204313Y0255665D01*
X0204397Y0255741D01*
X0204478Y0255820D01*
X0204557Y0255901D01*
X0204633Y0255985D01*
X0204705Y0256071D01*
X0204775Y0256160D01*
X0204842Y0256252D01*
X0204906Y0256345D01*
X0204966Y0256441D01*
X0205023Y0256538D01*
X0205077Y0256638D01*
X0205127Y0256739D01*
X0205174Y0256842D01*
X0205217Y0256946D01*
X0205257Y0257052D01*
X0205293Y0257159D01*
X0205325Y0257268D01*
X0205354Y0257377D01*
X0205379Y0257487D01*
X0205400Y0257598D01*
X0205417Y0257710D01*
X0205431Y0257822D01*
X0205440Y0257935D01*
X0205446Y0258048D01*
X0205448Y0258161D01*
X0205448Y0266439D01*
X0205446Y0266552D01*
X0205440Y0266665D01*
X0205431Y0266778D01*
X0205417Y0266890D01*
X0205400Y0267002D01*
X0205379Y0267113D01*
X0205354Y0267223D01*
X0205325Y0267332D01*
X0205293Y0267441D01*
X0205257Y0267548D01*
X0205217Y0267654D01*
X0205174Y0267758D01*
X0205127Y0267861D01*
X0205077Y0267962D01*
X0205023Y0268062D01*
X0204966Y0268159D01*
X0204906Y0268255D01*
X0204842Y0268348D01*
X0204775Y0268440D01*
X0204705Y0268529D01*
X0204633Y0268615D01*
X0204557Y0268699D01*
X0204478Y0268780D01*
X0204397Y0268859D01*
X0204313Y0268935D01*
X0204227Y0269007D01*
X0204138Y0269077D01*
X0204046Y0269144D01*
X0203953Y0269208D01*
X0203857Y0269268D01*
X0203760Y0269325D01*
X0203660Y0269379D01*
X0203559Y0269429D01*
X0203456Y0269476D01*
X0203352Y0269519D01*
X0203246Y0269559D01*
X0203139Y0269595D01*
X0203030Y0269627D01*
X0202921Y0269656D01*
X0202811Y0269681D01*
X0202700Y0269702D01*
X0202588Y0269719D01*
X0202476Y0269733D01*
X0202363Y0269742D01*
X0202250Y0269748D01*
X0202137Y0269750D01*
X0198826Y0269750D01*
X0209738Y0254850D02*
X0216361Y0254850D01*
X0216361Y0269750D01*
X0227786Y0269750D02*
X0236064Y0269750D01*
X0231925Y0269750D02*
X0231925Y0254850D01*
X0239488Y0263128D02*
X0246111Y0263128D01*
X0246111Y0269750D02*
X0239488Y0269750D01*
X0246111Y0269750D02*
X0246111Y0254850D01*
X0254675Y0254850D02*
X0254675Y0269750D01*
X0258814Y0269750D02*
X0250536Y0269750D01*
X0126393Y0269750D02*
X0126393Y0257333D01*
X0126391Y0257236D01*
X0126385Y0257138D01*
X0126376Y0257041D01*
X0126362Y0256945D01*
X0126345Y0256849D01*
X0126324Y0256753D01*
X0126300Y0256659D01*
X0126271Y0256566D01*
X0126240Y0256474D01*
X0126204Y0256383D01*
X0126165Y0256293D01*
X0126122Y0256206D01*
X0126076Y0256120D01*
X0126027Y0256036D01*
X0125975Y0255954D01*
X0125919Y0255874D01*
X0125860Y0255796D01*
X0125798Y0255720D01*
X0125733Y0255648D01*
X0125666Y0255577D01*
X0125595Y0255510D01*
X0125523Y0255445D01*
X0125447Y0255383D01*
X0125369Y0255324D01*
X0125289Y0255268D01*
X0125207Y0255216D01*
X0125123Y0255167D01*
X0125037Y0255121D01*
X0124950Y0255078D01*
X0124860Y0255039D01*
X0124769Y0255003D01*
X0124677Y0254972D01*
X0124584Y0254943D01*
X0124490Y0254919D01*
X0124394Y0254898D01*
X0124298Y0254881D01*
X0124202Y0254867D01*
X0124105Y0254858D01*
X0124007Y0254852D01*
X0123910Y0254850D01*
X0116866Y0254850D02*
X0113141Y0254850D01*
X0113141Y0262300D01*
X0113141Y0260644D02*
X0116866Y0260644D01*
X0113141Y0262300D02*
X0113143Y0262397D01*
X0113149Y0262495D01*
X0113158Y0262592D01*
X0113172Y0262688D01*
X0113189Y0262784D01*
X0113210Y0262880D01*
X0113234Y0262974D01*
X0113263Y0263067D01*
X0113294Y0263159D01*
X0113330Y0263250D01*
X0113369Y0263340D01*
X0113412Y0263427D01*
X0113458Y0263513D01*
X0113507Y0263597D01*
X0113559Y0263679D01*
X0113615Y0263759D01*
X0113674Y0263837D01*
X0113736Y0263913D01*
X0113801Y0263985D01*
X0113868Y0264056D01*
X0113939Y0264123D01*
X0114011Y0264188D01*
X0114087Y0264250D01*
X0114165Y0264309D01*
X0114245Y0264365D01*
X0114327Y0264417D01*
X0114411Y0264466D01*
X0114497Y0264512D01*
X0114584Y0264555D01*
X0114674Y0264594D01*
X0114765Y0264630D01*
X0114857Y0264661D01*
X0114950Y0264690D01*
X0115044Y0264714D01*
X0115140Y0264735D01*
X0115236Y0264752D01*
X0115332Y0264766D01*
X0115429Y0264775D01*
X0115527Y0264781D01*
X0115624Y0264783D01*
X0118935Y0264783D01*
X0116866Y0260644D02*
X0116972Y0260642D01*
X0117077Y0260636D01*
X0117183Y0260627D01*
X0117288Y0260613D01*
X0117392Y0260596D01*
X0117496Y0260575D01*
X0117599Y0260550D01*
X0117701Y0260521D01*
X0117801Y0260489D01*
X0117901Y0260453D01*
X0117999Y0260413D01*
X0118096Y0260370D01*
X0118191Y0260323D01*
X0118284Y0260273D01*
X0118375Y0260220D01*
X0118464Y0260163D01*
X0118552Y0260103D01*
X0118637Y0260040D01*
X0118719Y0259974D01*
X0118799Y0259905D01*
X0118877Y0259833D01*
X0118952Y0259758D01*
X0119024Y0259680D01*
X0119093Y0259600D01*
X0119159Y0259518D01*
X0119222Y0259433D01*
X0119282Y0259345D01*
X0119339Y0259256D01*
X0119392Y0259165D01*
X0119442Y0259072D01*
X0119489Y0258977D01*
X0119532Y0258880D01*
X0119572Y0258782D01*
X0119608Y0258682D01*
X0119640Y0258582D01*
X0119669Y0258480D01*
X0119694Y0258377D01*
X0119715Y0258273D01*
X0119732Y0258169D01*
X0119746Y0258064D01*
X0119755Y0257958D01*
X0119761Y0257853D01*
X0119763Y0257747D01*
X0119761Y0257641D01*
X0119755Y0257536D01*
X0119746Y0257430D01*
X0119732Y0257325D01*
X0119715Y0257221D01*
X0119694Y0257117D01*
X0119669Y0257014D01*
X0119640Y0256912D01*
X0119608Y0256812D01*
X0119572Y0256712D01*
X0119532Y0256614D01*
X0119489Y0256517D01*
X0119442Y0256422D01*
X0119392Y0256329D01*
X0119339Y0256238D01*
X0119282Y0256149D01*
X0119222Y0256061D01*
X0119159Y0255976D01*
X0119093Y0255894D01*
X0119024Y0255814D01*
X0118952Y0255736D01*
X0118877Y0255661D01*
X0118799Y0255589D01*
X0118719Y0255520D01*
X0118637Y0255454D01*
X0118552Y0255391D01*
X0118464Y0255331D01*
X0118375Y0255274D01*
X0118284Y0255221D01*
X0118191Y0255171D01*
X0118096Y0255124D01*
X0117999Y0255081D01*
X0117901Y0255041D01*
X0117801Y0255005D01*
X0117701Y0254973D01*
X0117599Y0254944D01*
X0117496Y0254919D01*
X0117392Y0254898D01*
X0117288Y0254881D01*
X0117183Y0254867D01*
X0117077Y0254858D01*
X0116972Y0254852D01*
X0116866Y0254850D01*
X0107675Y0254850D02*
X0107675Y0264783D01*
X0107261Y0268922D02*
X0108089Y0268922D01*
X0108089Y0269750D01*
X0107261Y0269750D01*
X0107261Y0268922D01*
X0102236Y0264783D02*
X0098097Y0264783D01*
X0098000Y0264781D01*
X0097902Y0264775D01*
X0097805Y0264766D01*
X0097709Y0264752D01*
X0097613Y0264735D01*
X0097517Y0264714D01*
X0097423Y0264690D01*
X0097330Y0264661D01*
X0097238Y0264630D01*
X0097147Y0264594D01*
X0097057Y0264555D01*
X0096970Y0264512D01*
X0096884Y0264466D01*
X0096800Y0264417D01*
X0096718Y0264365D01*
X0096638Y0264309D01*
X0096560Y0264250D01*
X0096484Y0264188D01*
X0096412Y0264123D01*
X0096341Y0264056D01*
X0096274Y0263985D01*
X0096209Y0263913D01*
X0096147Y0263837D01*
X0096088Y0263759D01*
X0096032Y0263679D01*
X0095980Y0263597D01*
X0095931Y0263513D01*
X0095885Y0263427D01*
X0095842Y0263340D01*
X0095803Y0263250D01*
X0095767Y0263159D01*
X0095736Y0263067D01*
X0095707Y0262974D01*
X0095683Y0262880D01*
X0095662Y0262784D01*
X0095645Y0262688D01*
X0095631Y0262592D01*
X0095622Y0262495D01*
X0095616Y0262398D01*
X0095614Y0262300D01*
X0095614Y0254850D01*
X0090424Y0257333D02*
X0090424Y0261472D01*
X0090424Y0259817D02*
X0083801Y0259817D01*
X0083801Y0261472D01*
X0083802Y0261472D02*
X0083804Y0261586D01*
X0083810Y0261700D01*
X0083820Y0261814D01*
X0083834Y0261928D01*
X0083851Y0262041D01*
X0083873Y0262153D01*
X0083898Y0262264D01*
X0083927Y0262375D01*
X0083961Y0262484D01*
X0083997Y0262592D01*
X0084038Y0262699D01*
X0084082Y0262805D01*
X0084130Y0262909D01*
X0084181Y0263011D01*
X0084236Y0263111D01*
X0084294Y0263209D01*
X0084356Y0263306D01*
X0084421Y0263400D01*
X0084489Y0263491D01*
X0084560Y0263581D01*
X0084635Y0263668D01*
X0084712Y0263752D01*
X0084792Y0263833D01*
X0084875Y0263912D01*
X0084961Y0263988D01*
X0085049Y0264061D01*
X0085139Y0264130D01*
X0085232Y0264197D01*
X0085327Y0264260D01*
X0085425Y0264320D01*
X0085524Y0264377D01*
X0085625Y0264430D01*
X0085728Y0264479D01*
X0085833Y0264525D01*
X0085939Y0264568D01*
X0086046Y0264607D01*
X0086155Y0264641D01*
X0086265Y0264673D01*
X0086376Y0264700D01*
X0086488Y0264723D01*
X0086601Y0264743D01*
X0086714Y0264759D01*
X0086828Y0264771D01*
X0086942Y0264779D01*
X0087056Y0264783D01*
X0087170Y0264783D01*
X0087284Y0264779D01*
X0087398Y0264771D01*
X0087512Y0264759D01*
X0087625Y0264743D01*
X0087738Y0264723D01*
X0087850Y0264700D01*
X0087961Y0264673D01*
X0088071Y0264641D01*
X0088180Y0264607D01*
X0088287Y0264568D01*
X0088393Y0264525D01*
X0088498Y0264479D01*
X0088601Y0264430D01*
X0088702Y0264377D01*
X0088801Y0264320D01*
X0088899Y0264260D01*
X0088994Y0264197D01*
X0089087Y0264130D01*
X0089177Y0264061D01*
X0089265Y0263988D01*
X0089351Y0263912D01*
X0089434Y0263833D01*
X0089514Y0263752D01*
X0089591Y0263668D01*
X0089666Y0263581D01*
X0089737Y0263491D01*
X0089805Y0263400D01*
X0089870Y0263306D01*
X0089932Y0263209D01*
X0089990Y0263111D01*
X0090045Y0263011D01*
X0090096Y0262909D01*
X0090144Y0262805D01*
X0090188Y0262699D01*
X0090229Y0262592D01*
X0090265Y0262484D01*
X0090299Y0262375D01*
X0090328Y0262264D01*
X0090353Y0262153D01*
X0090375Y0262041D01*
X0090392Y0261928D01*
X0090406Y0261814D01*
X0090416Y0261700D01*
X0090422Y0261586D01*
X0090424Y0261472D01*
X0090423Y0257333D02*
X0090421Y0257236D01*
X0090415Y0257138D01*
X0090406Y0257041D01*
X0090392Y0256945D01*
X0090375Y0256849D01*
X0090354Y0256753D01*
X0090330Y0256659D01*
X0090301Y0256566D01*
X0090270Y0256474D01*
X0090234Y0256383D01*
X0090195Y0256293D01*
X0090152Y0256206D01*
X0090106Y0256120D01*
X0090057Y0256036D01*
X0090005Y0255954D01*
X0089949Y0255874D01*
X0089890Y0255796D01*
X0089828Y0255720D01*
X0089763Y0255648D01*
X0089696Y0255577D01*
X0089625Y0255510D01*
X0089553Y0255445D01*
X0089477Y0255383D01*
X0089399Y0255324D01*
X0089319Y0255268D01*
X0089237Y0255216D01*
X0089153Y0255167D01*
X0089067Y0255121D01*
X0088980Y0255078D01*
X0088890Y0255039D01*
X0088799Y0255003D01*
X0088707Y0254972D01*
X0088614Y0254943D01*
X0088520Y0254919D01*
X0088424Y0254898D01*
X0088328Y0254881D01*
X0088232Y0254867D01*
X0088135Y0254858D01*
X0088037Y0254852D01*
X0087940Y0254850D01*
X0083801Y0254850D01*
X0079076Y0257333D02*
X0079076Y0262300D01*
X0079075Y0262300D02*
X0079073Y0262397D01*
X0079067Y0262495D01*
X0079058Y0262592D01*
X0079044Y0262688D01*
X0079027Y0262784D01*
X0079006Y0262880D01*
X0078982Y0262974D01*
X0078953Y0263067D01*
X0078922Y0263159D01*
X0078886Y0263250D01*
X0078847Y0263340D01*
X0078804Y0263427D01*
X0078758Y0263513D01*
X0078709Y0263597D01*
X0078657Y0263679D01*
X0078601Y0263759D01*
X0078542Y0263837D01*
X0078480Y0263913D01*
X0078415Y0263985D01*
X0078348Y0264056D01*
X0078277Y0264123D01*
X0078205Y0264188D01*
X0078129Y0264250D01*
X0078051Y0264309D01*
X0077971Y0264365D01*
X0077889Y0264417D01*
X0077805Y0264466D01*
X0077719Y0264512D01*
X0077632Y0264555D01*
X0077542Y0264594D01*
X0077451Y0264630D01*
X0077359Y0264661D01*
X0077266Y0264690D01*
X0077172Y0264714D01*
X0077076Y0264735D01*
X0076980Y0264752D01*
X0076884Y0264766D01*
X0076787Y0264775D01*
X0076689Y0264781D01*
X0076592Y0264783D01*
X0072453Y0264783D01*
X0072453Y0269750D02*
X0072453Y0254850D01*
X0076592Y0254850D01*
X0076689Y0254852D01*
X0076787Y0254858D01*
X0076884Y0254867D01*
X0076980Y0254881D01*
X0077076Y0254898D01*
X0077172Y0254919D01*
X0077266Y0254943D01*
X0077359Y0254972D01*
X0077451Y0255003D01*
X0077542Y0255039D01*
X0077632Y0255078D01*
X0077719Y0255121D01*
X0077805Y0255167D01*
X0077889Y0255216D01*
X0077971Y0255268D01*
X0078051Y0255324D01*
X0078129Y0255383D01*
X0078205Y0255445D01*
X0078277Y0255510D01*
X0078348Y0255577D01*
X0078415Y0255648D01*
X0078480Y0255720D01*
X0078542Y0255796D01*
X0078601Y0255874D01*
X0078657Y0255954D01*
X0078709Y0256036D01*
X0078758Y0256120D01*
X0078804Y0256206D01*
X0078847Y0256293D01*
X0078886Y0256383D01*
X0078922Y0256474D01*
X0078953Y0256566D01*
X0078982Y0256659D01*
X0079006Y0256753D01*
X0079027Y0256849D01*
X0079044Y0256945D01*
X0079058Y0257041D01*
X0079067Y0257138D01*
X0079073Y0257236D01*
X0079075Y0257333D01*
X0061017Y0269750D02*
X0056050Y0254850D01*
X0051083Y0269750D01*
X0047064Y0266439D02*
X0042925Y0269750D01*
X0042925Y0254850D01*
X0047064Y0254850D02*
X0038786Y0254850D01*
X0102236Y0254850D02*
X0102236Y0264783D01*
D85*
X0014300Y0191300D02*
X0014300Y0189078D01*
X0014300Y0190189D02*
X0010300Y0190189D01*
X0010300Y0187322D02*
X0014300Y0184656D01*
X0014300Y0182921D02*
X0014300Y0181143D01*
X0010300Y0181143D01*
X0010300Y0182921D01*
X0010300Y0184656D02*
X0014300Y0187322D01*
X0012522Y0182477D02*
X0012522Y0181143D01*
X0242713Y0322356D02*
X0242758Y0322452D01*
X0242800Y0322551D01*
X0242839Y0322650D01*
X0242875Y0322751D01*
X0242907Y0322852D01*
X0242936Y0322955D01*
X0242962Y0323059D01*
X0242984Y0323163D01*
X0243003Y0323268D01*
X0243018Y0323374D01*
X0243030Y0323480D01*
X0243039Y0323587D01*
X0243044Y0323693D01*
X0243046Y0323800D01*
X0240825Y0323800D02*
X0240827Y0323907D01*
X0240832Y0324013D01*
X0240841Y0324120D01*
X0240853Y0324226D01*
X0240868Y0324332D01*
X0240887Y0324437D01*
X0240909Y0324541D01*
X0240935Y0324645D01*
X0240964Y0324748D01*
X0240997Y0324849D01*
X0241032Y0324950D01*
X0241071Y0325049D01*
X0241113Y0325148D01*
X0241158Y0325244D01*
X0241047Y0324911D02*
X0242824Y0322689D01*
X0241935Y0321800D02*
X0241878Y0321802D01*
X0241822Y0321808D01*
X0241766Y0321818D01*
X0241711Y0321831D01*
X0241657Y0321848D01*
X0241605Y0321869D01*
X0241554Y0321894D01*
X0241504Y0321922D01*
X0241457Y0321953D01*
X0241412Y0321988D01*
X0241370Y0322025D01*
X0241330Y0322065D01*
X0241293Y0322108D01*
X0241259Y0322154D01*
X0241229Y0322201D01*
X0241201Y0322251D01*
X0241178Y0322302D01*
X0241157Y0322355D01*
X0241935Y0321800D02*
X0241992Y0321802D01*
X0242048Y0321808D01*
X0242104Y0321818D01*
X0242159Y0321831D01*
X0242213Y0321848D01*
X0242265Y0321869D01*
X0242316Y0321894D01*
X0242366Y0321922D01*
X0242413Y0321953D01*
X0242458Y0321988D01*
X0242500Y0322025D01*
X0242540Y0322065D01*
X0242577Y0322108D01*
X0242611Y0322154D01*
X0242641Y0322201D01*
X0242669Y0322251D01*
X0242692Y0322302D01*
X0242713Y0322355D01*
X0241158Y0322356D02*
X0241113Y0322452D01*
X0241071Y0322551D01*
X0241032Y0322650D01*
X0240996Y0322751D01*
X0240964Y0322852D01*
X0240935Y0322955D01*
X0240909Y0323059D01*
X0240887Y0323163D01*
X0240868Y0323268D01*
X0240853Y0323374D01*
X0240841Y0323480D01*
X0240832Y0323587D01*
X0240827Y0323693D01*
X0240825Y0323800D01*
X0243046Y0323800D02*
X0243044Y0323907D01*
X0243039Y0324013D01*
X0243030Y0324120D01*
X0243018Y0324226D01*
X0243003Y0324332D01*
X0242984Y0324437D01*
X0242962Y0324541D01*
X0242936Y0324645D01*
X0242907Y0324748D01*
X0242875Y0324849D01*
X0242839Y0324950D01*
X0242800Y0325049D01*
X0242758Y0325148D01*
X0242713Y0325244D01*
X0241935Y0325800D02*
X0241878Y0325798D01*
X0241822Y0325792D01*
X0241766Y0325782D01*
X0241711Y0325769D01*
X0241657Y0325752D01*
X0241605Y0325731D01*
X0241554Y0325706D01*
X0241504Y0325678D01*
X0241457Y0325647D01*
X0241412Y0325612D01*
X0241370Y0325575D01*
X0241330Y0325535D01*
X0241293Y0325492D01*
X0241259Y0325446D01*
X0241229Y0325399D01*
X0241201Y0325349D01*
X0241178Y0325298D01*
X0241157Y0325245D01*
X0241935Y0325800D02*
X0241992Y0325798D01*
X0242048Y0325792D01*
X0242104Y0325782D01*
X0242159Y0325769D01*
X0242213Y0325752D01*
X0242265Y0325731D01*
X0242316Y0325706D01*
X0242366Y0325678D01*
X0242413Y0325647D01*
X0242458Y0325612D01*
X0242500Y0325575D01*
X0242540Y0325535D01*
X0242577Y0325492D01*
X0242611Y0325446D01*
X0242641Y0325399D01*
X0242669Y0325349D01*
X0242692Y0325297D01*
X0242713Y0325245D01*
X0245442Y0325800D02*
X0245442Y0322689D01*
X0245444Y0322631D01*
X0245450Y0322573D01*
X0245459Y0322516D01*
X0245472Y0322459D01*
X0245489Y0322403D01*
X0245510Y0322349D01*
X0245534Y0322296D01*
X0245561Y0322244D01*
X0245592Y0322195D01*
X0245626Y0322148D01*
X0245663Y0322103D01*
X0245702Y0322060D01*
X0245745Y0322021D01*
X0245790Y0321984D01*
X0245837Y0321950D01*
X0245887Y0321919D01*
X0245938Y0321892D01*
X0245991Y0321868D01*
X0246045Y0321847D01*
X0246101Y0321830D01*
X0246158Y0321817D01*
X0246215Y0321808D01*
X0246273Y0321802D01*
X0246331Y0321800D01*
X0246776Y0321800D01*
X0245442Y0010800D02*
X0245442Y0007689D01*
X0245444Y0007631D01*
X0245450Y0007573D01*
X0245459Y0007516D01*
X0245472Y0007459D01*
X0245489Y0007403D01*
X0245510Y0007349D01*
X0245534Y0007296D01*
X0245561Y0007244D01*
X0245592Y0007195D01*
X0245626Y0007148D01*
X0245663Y0007103D01*
X0245702Y0007060D01*
X0245745Y0007021D01*
X0245790Y0006984D01*
X0245837Y0006950D01*
X0245887Y0006919D01*
X0245938Y0006892D01*
X0245991Y0006868D01*
X0246045Y0006847D01*
X0246101Y0006830D01*
X0246158Y0006817D01*
X0246215Y0006808D01*
X0246273Y0006802D01*
X0246331Y0006800D01*
X0246776Y0006800D01*
X0243047Y0006800D02*
X0240824Y0006800D01*
X0241935Y0006800D02*
X0241935Y0010800D01*
X0243047Y0009911D01*
D86*
X0001300Y0011300D02*
X0001300Y0321300D01*
X0001334Y0321576D01*
X0001375Y0321850D01*
X0001423Y0322124D01*
X0001477Y0322397D01*
X0001538Y0322668D01*
X0001605Y0322937D01*
X0001680Y0323205D01*
X0001760Y0323471D01*
X0001847Y0323734D01*
X0001941Y0323996D01*
X0002041Y0324255D01*
X0002147Y0324512D01*
X0002260Y0324766D01*
X0002379Y0325017D01*
X0002504Y0325265D01*
X0002635Y0325510D01*
X0002772Y0325752D01*
X0002915Y0325990D01*
X0003063Y0326225D01*
X0003218Y0326455D01*
X0003378Y0326683D01*
X0003543Y0326906D01*
X0003714Y0327125D01*
X0003891Y0327339D01*
X0004072Y0327550D01*
X0004259Y0327755D01*
X0004450Y0327957D01*
X0004647Y0328153D01*
X0004848Y0328345D01*
X0005054Y0328531D01*
X0005264Y0328712D01*
X0005479Y0328889D01*
X0005698Y0329060D01*
X0005921Y0329225D01*
X0006148Y0329385D01*
X0006379Y0329539D01*
X0006614Y0329688D01*
X0006853Y0329831D01*
X0007094Y0329967D01*
X0007339Y0330098D01*
X0007587Y0330223D01*
X0007839Y0330342D01*
X0008093Y0330454D01*
X0008349Y0330561D01*
X0008608Y0330661D01*
X0008870Y0330754D01*
X0009134Y0330841D01*
X0009400Y0330922D01*
X0009667Y0330996D01*
X0009937Y0331063D01*
X0010208Y0331124D01*
X0010481Y0331178D01*
X0010754Y0331226D01*
X0011029Y0331266D01*
X0011305Y0331300D01*
X0011581Y0331327D01*
X0011858Y0331348D01*
X0012136Y0331361D01*
X0012413Y0331368D01*
X0012691Y0331368D01*
X0012969Y0331361D01*
X0013246Y0331348D01*
X0013524Y0331327D01*
X0013800Y0331300D01*
X0263800Y0331300D01*
X0264042Y0331297D01*
X0264283Y0331288D01*
X0264524Y0331274D01*
X0264765Y0331253D01*
X0265005Y0331227D01*
X0265245Y0331195D01*
X0265484Y0331157D01*
X0265721Y0331114D01*
X0265958Y0331064D01*
X0266193Y0331009D01*
X0266427Y0330949D01*
X0266659Y0330882D01*
X0266890Y0330811D01*
X0267119Y0330733D01*
X0267346Y0330650D01*
X0267571Y0330562D01*
X0267794Y0330468D01*
X0268014Y0330369D01*
X0268232Y0330264D01*
X0268447Y0330155D01*
X0268660Y0330040D01*
X0268870Y0329920D01*
X0269076Y0329795D01*
X0269280Y0329665D01*
X0269481Y0329530D01*
X0269678Y0329390D01*
X0269872Y0329246D01*
X0270062Y0329097D01*
X0270248Y0328943D01*
X0270431Y0328785D01*
X0270610Y0328623D01*
X0270785Y0328456D01*
X0270956Y0328285D01*
X0271123Y0328110D01*
X0271285Y0327931D01*
X0271443Y0327748D01*
X0271597Y0327562D01*
X0271746Y0327372D01*
X0271890Y0327178D01*
X0272030Y0326981D01*
X0272165Y0326780D01*
X0272295Y0326576D01*
X0272420Y0326370D01*
X0272540Y0326160D01*
X0272655Y0325947D01*
X0272764Y0325732D01*
X0272869Y0325514D01*
X0272968Y0325294D01*
X0273062Y0325071D01*
X0273150Y0324846D01*
X0273233Y0324619D01*
X0273311Y0324390D01*
X0273382Y0324159D01*
X0273449Y0323927D01*
X0273509Y0323693D01*
X0273564Y0323458D01*
X0273614Y0323221D01*
X0273657Y0322984D01*
X0273695Y0322745D01*
X0273727Y0322505D01*
X0273753Y0322265D01*
X0273774Y0322024D01*
X0273788Y0321783D01*
X0273797Y0321542D01*
X0273800Y0321300D01*
X0273800Y0011300D01*
X0273797Y0011058D01*
X0273788Y0010817D01*
X0273774Y0010576D01*
X0273753Y0010335D01*
X0273727Y0010095D01*
X0273695Y0009855D01*
X0273657Y0009616D01*
X0273614Y0009379D01*
X0273564Y0009142D01*
X0273509Y0008907D01*
X0273449Y0008673D01*
X0273382Y0008441D01*
X0273311Y0008210D01*
X0273233Y0007981D01*
X0273150Y0007754D01*
X0273062Y0007529D01*
X0272968Y0007306D01*
X0272869Y0007086D01*
X0272764Y0006868D01*
X0272655Y0006653D01*
X0272540Y0006440D01*
X0272420Y0006230D01*
X0272295Y0006024D01*
X0272165Y0005820D01*
X0272030Y0005619D01*
X0271890Y0005422D01*
X0271746Y0005228D01*
X0271597Y0005038D01*
X0271443Y0004852D01*
X0271285Y0004669D01*
X0271123Y0004490D01*
X0270956Y0004315D01*
X0270785Y0004144D01*
X0270610Y0003977D01*
X0270431Y0003815D01*
X0270248Y0003657D01*
X0270062Y0003503D01*
X0269872Y0003354D01*
X0269678Y0003210D01*
X0269481Y0003070D01*
X0269280Y0002935D01*
X0269076Y0002805D01*
X0268870Y0002680D01*
X0268660Y0002560D01*
X0268447Y0002445D01*
X0268232Y0002336D01*
X0268014Y0002231D01*
X0267794Y0002132D01*
X0267571Y0002038D01*
X0267346Y0001950D01*
X0267119Y0001867D01*
X0266890Y0001789D01*
X0266659Y0001718D01*
X0266427Y0001651D01*
X0266193Y0001591D01*
X0265958Y0001536D01*
X0265721Y0001486D01*
X0265484Y0001443D01*
X0265245Y0001405D01*
X0265005Y0001373D01*
X0264765Y0001347D01*
X0264524Y0001326D01*
X0264283Y0001312D01*
X0264042Y0001303D01*
X0263800Y0001300D01*
X0013800Y0001300D01*
X0013528Y0001273D01*
X0013255Y0001253D01*
X0012982Y0001239D01*
X0012708Y0001232D01*
X0012435Y0001232D01*
X0012161Y0001238D01*
X0011888Y0001250D01*
X0011615Y0001270D01*
X0011343Y0001296D01*
X0011071Y0001328D01*
X0010801Y0001367D01*
X0010531Y0001413D01*
X0010262Y0001465D01*
X0009995Y0001523D01*
X0009730Y0001588D01*
X0009465Y0001659D01*
X0009203Y0001737D01*
X0008943Y0001821D01*
X0008685Y0001911D01*
X0008429Y0002008D01*
X0008175Y0002111D01*
X0007924Y0002219D01*
X0007676Y0002334D01*
X0007431Y0002455D01*
X0007188Y0002582D01*
X0006949Y0002714D01*
X0006713Y0002852D01*
X0006480Y0002996D01*
X0006251Y0003146D01*
X0006026Y0003301D01*
X0005804Y0003461D01*
X0005586Y0003627D01*
X0005373Y0003797D01*
X0005163Y0003973D01*
X0004958Y0004154D01*
X0004758Y0004340D01*
X0004562Y0004531D01*
X0004370Y0004726D01*
X0004183Y0004926D01*
X0004002Y0005131D01*
X0003825Y0005339D01*
X0003653Y0005552D01*
X0003487Y0005769D01*
X0003326Y0005990D01*
X0003170Y0006215D01*
X0003019Y0006444D01*
X0002875Y0006676D01*
X0002735Y0006911D01*
X0002602Y0007150D01*
X0002475Y0007392D01*
X0002353Y0007637D01*
X0002237Y0007885D01*
X0002127Y0008135D01*
X0002024Y0008389D01*
X0001926Y0008644D01*
X0001835Y0008902D01*
X0001750Y0009162D01*
X0001671Y0009424D01*
X0001599Y0009688D01*
X0001533Y0009953D01*
X0001473Y0010220D01*
X0001420Y0010488D01*
X0001374Y0010758D01*
X0001334Y0011029D01*
X0001300Y0011300D01*
D87*
X0052798Y0223475D02*
X0054576Y0223475D01*
X0054640Y0223477D01*
X0054705Y0223483D01*
X0054768Y0223492D01*
X0054831Y0223506D01*
X0054893Y0223523D01*
X0054954Y0223544D01*
X0055014Y0223569D01*
X0055072Y0223597D01*
X0055128Y0223629D01*
X0055182Y0223664D01*
X0055234Y0223702D01*
X0055284Y0223743D01*
X0055330Y0223788D01*
X0055375Y0223834D01*
X0055416Y0223884D01*
X0055454Y0223936D01*
X0055489Y0223990D01*
X0055521Y0224046D01*
X0055549Y0224104D01*
X0055574Y0224164D01*
X0055595Y0224225D01*
X0055612Y0224287D01*
X0055626Y0224350D01*
X0055635Y0224413D01*
X0055641Y0224478D01*
X0055643Y0224542D01*
X0055642Y0224542D02*
X0055642Y0226675D01*
X0055643Y0226675D02*
X0055641Y0226739D01*
X0055635Y0226804D01*
X0055626Y0226867D01*
X0055612Y0226930D01*
X0055595Y0226992D01*
X0055574Y0227053D01*
X0055549Y0227113D01*
X0055521Y0227171D01*
X0055489Y0227227D01*
X0055454Y0227281D01*
X0055416Y0227333D01*
X0055375Y0227383D01*
X0055330Y0227429D01*
X0055284Y0227474D01*
X0055234Y0227515D01*
X0055182Y0227553D01*
X0055128Y0227588D01*
X0055072Y0227620D01*
X0055014Y0227648D01*
X0054954Y0227673D01*
X0054893Y0227694D01*
X0054831Y0227711D01*
X0054768Y0227725D01*
X0054705Y0227734D01*
X0054640Y0227740D01*
X0054576Y0227742D01*
X0052798Y0227742D01*
X0052798Y0229875D02*
X0052798Y0223475D01*
X0057766Y0227031D02*
X0057766Y0227742D01*
X0059899Y0227742D01*
X0059899Y0223475D01*
X0063233Y0223475D02*
X0063233Y0226675D01*
X0063233Y0225964D02*
X0064833Y0225964D01*
X0063233Y0226675D02*
X0063235Y0226739D01*
X0063241Y0226804D01*
X0063250Y0226867D01*
X0063264Y0226930D01*
X0063281Y0226992D01*
X0063302Y0227053D01*
X0063327Y0227113D01*
X0063355Y0227171D01*
X0063387Y0227227D01*
X0063422Y0227281D01*
X0063460Y0227333D01*
X0063501Y0227383D01*
X0063546Y0227429D01*
X0063592Y0227474D01*
X0063642Y0227515D01*
X0063694Y0227553D01*
X0063748Y0227588D01*
X0063804Y0227620D01*
X0063862Y0227648D01*
X0063922Y0227673D01*
X0063983Y0227694D01*
X0064045Y0227711D01*
X0064108Y0227725D01*
X0064171Y0227734D01*
X0064236Y0227740D01*
X0064300Y0227742D01*
X0065722Y0227742D01*
X0064833Y0225963D02*
X0064903Y0225961D01*
X0064972Y0225955D01*
X0065041Y0225945D01*
X0065110Y0225932D01*
X0065177Y0225914D01*
X0065244Y0225893D01*
X0065309Y0225868D01*
X0065373Y0225840D01*
X0065435Y0225808D01*
X0065495Y0225772D01*
X0065553Y0225734D01*
X0065609Y0225692D01*
X0065662Y0225647D01*
X0065713Y0225599D01*
X0065761Y0225548D01*
X0065806Y0225495D01*
X0065848Y0225439D01*
X0065886Y0225381D01*
X0065922Y0225321D01*
X0065954Y0225259D01*
X0065982Y0225195D01*
X0066007Y0225130D01*
X0066028Y0225063D01*
X0066046Y0224996D01*
X0066059Y0224927D01*
X0066069Y0224858D01*
X0066075Y0224789D01*
X0066077Y0224719D01*
X0066075Y0224649D01*
X0066069Y0224580D01*
X0066059Y0224511D01*
X0066046Y0224442D01*
X0066028Y0224375D01*
X0066007Y0224308D01*
X0065982Y0224243D01*
X0065954Y0224179D01*
X0065922Y0224117D01*
X0065886Y0224057D01*
X0065848Y0223999D01*
X0065806Y0223943D01*
X0065761Y0223890D01*
X0065713Y0223839D01*
X0065662Y0223791D01*
X0065609Y0223746D01*
X0065553Y0223704D01*
X0065495Y0223666D01*
X0065435Y0223630D01*
X0065373Y0223598D01*
X0065309Y0223570D01*
X0065244Y0223545D01*
X0065177Y0223524D01*
X0065110Y0223506D01*
X0065041Y0223493D01*
X0064972Y0223483D01*
X0064903Y0223477D01*
X0064833Y0223475D01*
X0063233Y0223475D01*
X0068844Y0224897D02*
X0068844Y0226319D01*
X0068846Y0226393D01*
X0068852Y0226468D01*
X0068862Y0226541D01*
X0068875Y0226615D01*
X0068892Y0226687D01*
X0068914Y0226758D01*
X0068938Y0226829D01*
X0068967Y0226897D01*
X0068999Y0226965D01*
X0069035Y0227030D01*
X0069073Y0227093D01*
X0069116Y0227155D01*
X0069161Y0227214D01*
X0069209Y0227271D01*
X0069260Y0227325D01*
X0069314Y0227376D01*
X0069371Y0227424D01*
X0069430Y0227469D01*
X0069492Y0227512D01*
X0069555Y0227550D01*
X0069620Y0227586D01*
X0069688Y0227618D01*
X0069756Y0227647D01*
X0069827Y0227671D01*
X0069898Y0227693D01*
X0069970Y0227710D01*
X0070044Y0227723D01*
X0070117Y0227733D01*
X0070192Y0227739D01*
X0070266Y0227741D01*
X0070340Y0227739D01*
X0070415Y0227733D01*
X0070488Y0227723D01*
X0070562Y0227710D01*
X0070634Y0227693D01*
X0070705Y0227671D01*
X0070776Y0227647D01*
X0070844Y0227618D01*
X0070912Y0227586D01*
X0070977Y0227550D01*
X0071040Y0227512D01*
X0071102Y0227469D01*
X0071161Y0227424D01*
X0071218Y0227376D01*
X0071272Y0227325D01*
X0071323Y0227271D01*
X0071371Y0227214D01*
X0071416Y0227155D01*
X0071459Y0227093D01*
X0071497Y0227030D01*
X0071533Y0226965D01*
X0071565Y0226897D01*
X0071594Y0226829D01*
X0071618Y0226758D01*
X0071640Y0226687D01*
X0071657Y0226615D01*
X0071670Y0226541D01*
X0071680Y0226468D01*
X0071686Y0226393D01*
X0071688Y0226319D01*
X0071688Y0224897D01*
X0071686Y0224823D01*
X0071680Y0224748D01*
X0071670Y0224675D01*
X0071657Y0224601D01*
X0071640Y0224529D01*
X0071618Y0224458D01*
X0071594Y0224387D01*
X0071565Y0224319D01*
X0071533Y0224251D01*
X0071497Y0224186D01*
X0071459Y0224123D01*
X0071416Y0224061D01*
X0071371Y0224002D01*
X0071323Y0223945D01*
X0071272Y0223891D01*
X0071218Y0223840D01*
X0071161Y0223792D01*
X0071102Y0223747D01*
X0071040Y0223704D01*
X0070977Y0223666D01*
X0070912Y0223630D01*
X0070844Y0223598D01*
X0070776Y0223569D01*
X0070705Y0223545D01*
X0070634Y0223523D01*
X0070562Y0223506D01*
X0070488Y0223493D01*
X0070415Y0223483D01*
X0070340Y0223477D01*
X0070266Y0223475D01*
X0070192Y0223477D01*
X0070117Y0223483D01*
X0070044Y0223493D01*
X0069970Y0223506D01*
X0069898Y0223523D01*
X0069827Y0223545D01*
X0069756Y0223569D01*
X0069688Y0223598D01*
X0069620Y0223630D01*
X0069555Y0223666D01*
X0069492Y0223704D01*
X0069430Y0223747D01*
X0069371Y0223792D01*
X0069314Y0223840D01*
X0069260Y0223891D01*
X0069209Y0223945D01*
X0069161Y0224002D01*
X0069116Y0224061D01*
X0069073Y0224123D01*
X0069035Y0224186D01*
X0068999Y0224251D01*
X0068967Y0224319D01*
X0068938Y0224387D01*
X0068914Y0224458D01*
X0068892Y0224529D01*
X0068875Y0224601D01*
X0068862Y0224675D01*
X0068852Y0224748D01*
X0068846Y0224823D01*
X0068844Y0224897D01*
X0076015Y0223475D02*
X0075932Y0223477D01*
X0075849Y0223483D01*
X0075766Y0223493D01*
X0075683Y0223506D01*
X0075602Y0223524D01*
X0075521Y0223545D01*
X0075442Y0223570D01*
X0075364Y0223599D01*
X0075287Y0223631D01*
X0075212Y0223667D01*
X0075138Y0223706D01*
X0075067Y0223749D01*
X0074997Y0223795D01*
X0074930Y0223845D01*
X0074865Y0223897D01*
X0074803Y0223952D01*
X0074743Y0224011D01*
X0074686Y0224072D01*
X0074632Y0224135D01*
X0074581Y0224201D01*
X0074534Y0224270D01*
X0074489Y0224340D01*
X0074448Y0224413D01*
X0074411Y0224487D01*
X0074376Y0224563D01*
X0074346Y0224641D01*
X0074319Y0224719D01*
X0074296Y0224800D01*
X0074276Y0224881D01*
X0074261Y0224963D01*
X0074249Y0225045D01*
X0074241Y0225128D01*
X0074237Y0225211D01*
X0074237Y0225295D01*
X0074241Y0225378D01*
X0074249Y0225461D01*
X0074261Y0225543D01*
X0074276Y0225625D01*
X0074296Y0225706D01*
X0074319Y0225787D01*
X0074346Y0225865D01*
X0074376Y0225943D01*
X0074411Y0226019D01*
X0074448Y0226093D01*
X0074489Y0226166D01*
X0074534Y0226236D01*
X0074581Y0226305D01*
X0074632Y0226371D01*
X0074686Y0226434D01*
X0074743Y0226495D01*
X0074803Y0226554D01*
X0074865Y0226609D01*
X0074930Y0226661D01*
X0074997Y0226711D01*
X0075067Y0226757D01*
X0075138Y0226800D01*
X0075212Y0226839D01*
X0075287Y0226875D01*
X0075364Y0226907D01*
X0075442Y0226936D01*
X0075521Y0226961D01*
X0075602Y0226982D01*
X0075683Y0227000D01*
X0075766Y0227013D01*
X0075849Y0227023D01*
X0075932Y0227029D01*
X0076015Y0227031D01*
X0077793Y0227031D01*
X0076015Y0227031D02*
X0075941Y0227033D01*
X0075866Y0227039D01*
X0075793Y0227049D01*
X0075719Y0227062D01*
X0075647Y0227079D01*
X0075576Y0227101D01*
X0075505Y0227125D01*
X0075437Y0227154D01*
X0075369Y0227186D01*
X0075304Y0227222D01*
X0075241Y0227260D01*
X0075179Y0227303D01*
X0075120Y0227348D01*
X0075063Y0227396D01*
X0075009Y0227447D01*
X0074958Y0227501D01*
X0074910Y0227558D01*
X0074865Y0227617D01*
X0074822Y0227679D01*
X0074784Y0227742D01*
X0074748Y0227807D01*
X0074716Y0227875D01*
X0074687Y0227943D01*
X0074663Y0228014D01*
X0074641Y0228085D01*
X0074624Y0228157D01*
X0074611Y0228231D01*
X0074601Y0228304D01*
X0074595Y0228379D01*
X0074593Y0228453D01*
X0074595Y0228527D01*
X0074601Y0228602D01*
X0074611Y0228675D01*
X0074624Y0228749D01*
X0074641Y0228821D01*
X0074663Y0228892D01*
X0074687Y0228963D01*
X0074716Y0229031D01*
X0074748Y0229099D01*
X0074784Y0229164D01*
X0074822Y0229227D01*
X0074865Y0229289D01*
X0074910Y0229348D01*
X0074958Y0229405D01*
X0075009Y0229459D01*
X0075063Y0229510D01*
X0075120Y0229558D01*
X0075179Y0229603D01*
X0075241Y0229646D01*
X0075304Y0229684D01*
X0075369Y0229720D01*
X0075437Y0229752D01*
X0075505Y0229781D01*
X0075576Y0229805D01*
X0075647Y0229827D01*
X0075719Y0229844D01*
X0075793Y0229857D01*
X0075866Y0229867D01*
X0075941Y0229873D01*
X0076015Y0229875D01*
X0077793Y0229875D01*
X0077793Y0223475D01*
X0076015Y0223475D01*
X0084267Y0223475D02*
X0084623Y0223475D01*
X0084687Y0223477D01*
X0084752Y0223483D01*
X0084815Y0223492D01*
X0084878Y0223506D01*
X0084940Y0223523D01*
X0085001Y0223544D01*
X0085061Y0223569D01*
X0085119Y0223597D01*
X0085175Y0223629D01*
X0085229Y0223664D01*
X0085281Y0223702D01*
X0085331Y0223743D01*
X0085377Y0223788D01*
X0085422Y0223834D01*
X0085463Y0223884D01*
X0085501Y0223936D01*
X0085536Y0223990D01*
X0085568Y0224046D01*
X0085596Y0224104D01*
X0085621Y0224164D01*
X0085642Y0224225D01*
X0085659Y0224287D01*
X0085673Y0224350D01*
X0085682Y0224413D01*
X0085688Y0224478D01*
X0085690Y0224542D01*
X0085690Y0229875D01*
X0086401Y0227742D02*
X0084267Y0227742D01*
X0088845Y0227742D02*
X0088845Y0223475D01*
X0090623Y0223475D01*
X0090687Y0223477D01*
X0090752Y0223483D01*
X0090815Y0223492D01*
X0090878Y0223506D01*
X0090940Y0223523D01*
X0091001Y0223544D01*
X0091061Y0223569D01*
X0091119Y0223597D01*
X0091175Y0223629D01*
X0091229Y0223664D01*
X0091281Y0223702D01*
X0091331Y0223743D01*
X0091377Y0223788D01*
X0091422Y0223834D01*
X0091463Y0223884D01*
X0091501Y0223936D01*
X0091536Y0223990D01*
X0091568Y0224046D01*
X0091596Y0224104D01*
X0091621Y0224164D01*
X0091642Y0224225D01*
X0091659Y0224287D01*
X0091673Y0224350D01*
X0091682Y0224413D01*
X0091688Y0224478D01*
X0091690Y0224542D01*
X0091690Y0227742D01*
X0094715Y0226319D02*
X0094715Y0224897D01*
X0094717Y0224823D01*
X0094723Y0224748D01*
X0094733Y0224675D01*
X0094746Y0224601D01*
X0094763Y0224529D01*
X0094785Y0224458D01*
X0094809Y0224387D01*
X0094838Y0224319D01*
X0094870Y0224251D01*
X0094906Y0224186D01*
X0094944Y0224123D01*
X0094987Y0224061D01*
X0095032Y0224002D01*
X0095080Y0223945D01*
X0095131Y0223891D01*
X0095185Y0223840D01*
X0095242Y0223792D01*
X0095301Y0223747D01*
X0095363Y0223704D01*
X0095426Y0223666D01*
X0095491Y0223630D01*
X0095559Y0223598D01*
X0095627Y0223569D01*
X0095698Y0223545D01*
X0095769Y0223523D01*
X0095841Y0223506D01*
X0095915Y0223493D01*
X0095988Y0223483D01*
X0096063Y0223477D01*
X0096137Y0223475D01*
X0096211Y0223477D01*
X0096286Y0223483D01*
X0096359Y0223493D01*
X0096433Y0223506D01*
X0096505Y0223523D01*
X0096576Y0223545D01*
X0096647Y0223569D01*
X0096715Y0223598D01*
X0096783Y0223630D01*
X0096848Y0223666D01*
X0096911Y0223704D01*
X0096973Y0223747D01*
X0097032Y0223792D01*
X0097089Y0223840D01*
X0097143Y0223891D01*
X0097194Y0223945D01*
X0097242Y0224002D01*
X0097287Y0224061D01*
X0097330Y0224123D01*
X0097368Y0224186D01*
X0097404Y0224251D01*
X0097436Y0224319D01*
X0097465Y0224387D01*
X0097489Y0224458D01*
X0097511Y0224529D01*
X0097528Y0224601D01*
X0097541Y0224675D01*
X0097551Y0224748D01*
X0097557Y0224823D01*
X0097559Y0224897D01*
X0097560Y0224897D02*
X0097560Y0226319D01*
X0097559Y0226319D02*
X0097557Y0226393D01*
X0097551Y0226468D01*
X0097541Y0226541D01*
X0097528Y0226615D01*
X0097511Y0226687D01*
X0097489Y0226758D01*
X0097465Y0226829D01*
X0097436Y0226897D01*
X0097404Y0226965D01*
X0097368Y0227030D01*
X0097330Y0227093D01*
X0097287Y0227155D01*
X0097242Y0227214D01*
X0097194Y0227271D01*
X0097143Y0227325D01*
X0097089Y0227376D01*
X0097032Y0227424D01*
X0096973Y0227469D01*
X0096911Y0227512D01*
X0096848Y0227550D01*
X0096783Y0227586D01*
X0096715Y0227618D01*
X0096647Y0227647D01*
X0096576Y0227671D01*
X0096505Y0227693D01*
X0096433Y0227710D01*
X0096359Y0227723D01*
X0096286Y0227733D01*
X0096211Y0227739D01*
X0096137Y0227741D01*
X0096063Y0227739D01*
X0095988Y0227733D01*
X0095915Y0227723D01*
X0095841Y0227710D01*
X0095769Y0227693D01*
X0095698Y0227671D01*
X0095627Y0227647D01*
X0095559Y0227618D01*
X0095491Y0227586D01*
X0095426Y0227550D01*
X0095363Y0227512D01*
X0095301Y0227469D01*
X0095242Y0227424D01*
X0095185Y0227376D01*
X0095131Y0227325D01*
X0095080Y0227271D01*
X0095032Y0227214D01*
X0094987Y0227155D01*
X0094944Y0227093D01*
X0094906Y0227030D01*
X0094870Y0226965D01*
X0094838Y0226897D01*
X0094809Y0226829D01*
X0094785Y0226758D01*
X0094763Y0226687D01*
X0094746Y0226615D01*
X0094733Y0226541D01*
X0094723Y0226468D01*
X0094717Y0226393D01*
X0094715Y0226319D01*
X0100054Y0227742D02*
X0102898Y0225608D01*
X0101654Y0226497D02*
X0100054Y0223475D01*
X0102898Y0223475D02*
X0102898Y0229875D01*
X0106280Y0226675D02*
X0106280Y0223475D01*
X0107880Y0223475D01*
X0107950Y0223477D01*
X0108019Y0223483D01*
X0108088Y0223493D01*
X0108157Y0223506D01*
X0108224Y0223524D01*
X0108291Y0223545D01*
X0108356Y0223570D01*
X0108420Y0223598D01*
X0108482Y0223630D01*
X0108542Y0223666D01*
X0108600Y0223704D01*
X0108656Y0223746D01*
X0108709Y0223791D01*
X0108760Y0223839D01*
X0108808Y0223890D01*
X0108853Y0223943D01*
X0108895Y0223999D01*
X0108933Y0224057D01*
X0108969Y0224117D01*
X0109001Y0224179D01*
X0109029Y0224243D01*
X0109054Y0224308D01*
X0109075Y0224375D01*
X0109093Y0224442D01*
X0109106Y0224511D01*
X0109116Y0224580D01*
X0109122Y0224649D01*
X0109124Y0224719D01*
X0109122Y0224789D01*
X0109116Y0224858D01*
X0109106Y0224927D01*
X0109093Y0224996D01*
X0109075Y0225063D01*
X0109054Y0225130D01*
X0109029Y0225195D01*
X0109001Y0225259D01*
X0108969Y0225321D01*
X0108933Y0225381D01*
X0108895Y0225439D01*
X0108853Y0225495D01*
X0108808Y0225548D01*
X0108760Y0225599D01*
X0108709Y0225647D01*
X0108656Y0225692D01*
X0108600Y0225734D01*
X0108542Y0225772D01*
X0108482Y0225808D01*
X0108420Y0225840D01*
X0108356Y0225868D01*
X0108291Y0225893D01*
X0108224Y0225914D01*
X0108157Y0225932D01*
X0108088Y0225945D01*
X0108019Y0225955D01*
X0107950Y0225961D01*
X0107880Y0225963D01*
X0107880Y0225964D02*
X0106280Y0225964D01*
X0106279Y0226675D02*
X0106281Y0226739D01*
X0106287Y0226804D01*
X0106296Y0226867D01*
X0106310Y0226930D01*
X0106327Y0226992D01*
X0106348Y0227053D01*
X0106373Y0227113D01*
X0106401Y0227171D01*
X0106433Y0227227D01*
X0106468Y0227281D01*
X0106506Y0227333D01*
X0106547Y0227383D01*
X0106592Y0227429D01*
X0106638Y0227474D01*
X0106688Y0227515D01*
X0106740Y0227553D01*
X0106794Y0227588D01*
X0106850Y0227620D01*
X0106908Y0227648D01*
X0106968Y0227673D01*
X0107029Y0227694D01*
X0107091Y0227711D01*
X0107154Y0227725D01*
X0107217Y0227734D01*
X0107282Y0227740D01*
X0107346Y0227742D01*
X0108769Y0227742D01*
X0111890Y0226319D02*
X0111890Y0225608D01*
X0114735Y0225608D01*
X0114735Y0226319D02*
X0114735Y0224542D01*
X0114733Y0224478D01*
X0114727Y0224413D01*
X0114718Y0224350D01*
X0114704Y0224287D01*
X0114687Y0224225D01*
X0114666Y0224164D01*
X0114641Y0224104D01*
X0114613Y0224046D01*
X0114581Y0223990D01*
X0114546Y0223936D01*
X0114508Y0223884D01*
X0114467Y0223834D01*
X0114422Y0223788D01*
X0114376Y0223743D01*
X0114326Y0223702D01*
X0114274Y0223664D01*
X0114220Y0223629D01*
X0114164Y0223597D01*
X0114106Y0223569D01*
X0114046Y0223544D01*
X0113985Y0223523D01*
X0113923Y0223506D01*
X0113860Y0223492D01*
X0113797Y0223483D01*
X0113732Y0223477D01*
X0113668Y0223475D01*
X0111890Y0223475D01*
X0111890Y0226319D02*
X0111892Y0226393D01*
X0111898Y0226468D01*
X0111908Y0226541D01*
X0111921Y0226615D01*
X0111938Y0226687D01*
X0111960Y0226758D01*
X0111984Y0226829D01*
X0112013Y0226897D01*
X0112045Y0226965D01*
X0112081Y0227030D01*
X0112119Y0227093D01*
X0112162Y0227155D01*
X0112207Y0227214D01*
X0112255Y0227271D01*
X0112306Y0227325D01*
X0112360Y0227376D01*
X0112417Y0227424D01*
X0112476Y0227469D01*
X0112538Y0227512D01*
X0112601Y0227550D01*
X0112666Y0227586D01*
X0112734Y0227618D01*
X0112802Y0227647D01*
X0112873Y0227671D01*
X0112944Y0227693D01*
X0113016Y0227710D01*
X0113090Y0227723D01*
X0113163Y0227733D01*
X0113238Y0227739D01*
X0113312Y0227741D01*
X0113386Y0227739D01*
X0113461Y0227733D01*
X0113534Y0227723D01*
X0113608Y0227710D01*
X0113680Y0227693D01*
X0113751Y0227671D01*
X0113822Y0227647D01*
X0113890Y0227618D01*
X0113958Y0227586D01*
X0114023Y0227550D01*
X0114086Y0227512D01*
X0114148Y0227469D01*
X0114207Y0227424D01*
X0114264Y0227376D01*
X0114318Y0227325D01*
X0114369Y0227271D01*
X0114417Y0227214D01*
X0114462Y0227155D01*
X0114505Y0227093D01*
X0114543Y0227030D01*
X0114579Y0226965D01*
X0114611Y0226897D01*
X0114640Y0226829D01*
X0114664Y0226758D01*
X0114686Y0226687D01*
X0114703Y0226615D01*
X0114716Y0226541D01*
X0114726Y0226468D01*
X0114732Y0226393D01*
X0114734Y0226319D01*
X0116900Y0227031D02*
X0116900Y0227742D01*
X0119034Y0227742D01*
X0119034Y0223475D01*
X0123627Y0223475D02*
X0125405Y0223475D01*
X0125405Y0229875D01*
X0123627Y0229875D01*
X0123553Y0229873D01*
X0123478Y0229867D01*
X0123405Y0229857D01*
X0123331Y0229844D01*
X0123259Y0229827D01*
X0123188Y0229805D01*
X0123117Y0229781D01*
X0123049Y0229752D01*
X0122981Y0229720D01*
X0122916Y0229684D01*
X0122853Y0229646D01*
X0122791Y0229603D01*
X0122732Y0229558D01*
X0122675Y0229510D01*
X0122621Y0229459D01*
X0122570Y0229405D01*
X0122522Y0229348D01*
X0122477Y0229289D01*
X0122434Y0229227D01*
X0122396Y0229164D01*
X0122360Y0229099D01*
X0122328Y0229031D01*
X0122299Y0228963D01*
X0122275Y0228892D01*
X0122253Y0228821D01*
X0122236Y0228749D01*
X0122223Y0228675D01*
X0122213Y0228602D01*
X0122207Y0228527D01*
X0122205Y0228453D01*
X0122207Y0228379D01*
X0122213Y0228304D01*
X0122223Y0228231D01*
X0122236Y0228157D01*
X0122253Y0228085D01*
X0122275Y0228014D01*
X0122299Y0227943D01*
X0122328Y0227875D01*
X0122360Y0227807D01*
X0122396Y0227742D01*
X0122434Y0227679D01*
X0122477Y0227617D01*
X0122522Y0227558D01*
X0122570Y0227501D01*
X0122621Y0227447D01*
X0122675Y0227396D01*
X0122732Y0227348D01*
X0122791Y0227303D01*
X0122853Y0227260D01*
X0122916Y0227222D01*
X0122981Y0227186D01*
X0123049Y0227154D01*
X0123117Y0227125D01*
X0123188Y0227101D01*
X0123259Y0227079D01*
X0123331Y0227062D01*
X0123405Y0227049D01*
X0123478Y0227039D01*
X0123553Y0227033D01*
X0123627Y0227031D01*
X0125405Y0227031D01*
X0123627Y0227031D02*
X0123544Y0227029D01*
X0123461Y0227023D01*
X0123378Y0227013D01*
X0123295Y0227000D01*
X0123214Y0226982D01*
X0123133Y0226961D01*
X0123054Y0226936D01*
X0122976Y0226907D01*
X0122899Y0226875D01*
X0122824Y0226839D01*
X0122750Y0226800D01*
X0122679Y0226757D01*
X0122609Y0226711D01*
X0122542Y0226661D01*
X0122477Y0226609D01*
X0122415Y0226554D01*
X0122355Y0226495D01*
X0122298Y0226434D01*
X0122244Y0226371D01*
X0122193Y0226305D01*
X0122146Y0226236D01*
X0122101Y0226166D01*
X0122060Y0226093D01*
X0122023Y0226019D01*
X0121988Y0225943D01*
X0121958Y0225865D01*
X0121931Y0225787D01*
X0121908Y0225706D01*
X0121888Y0225625D01*
X0121873Y0225543D01*
X0121861Y0225461D01*
X0121853Y0225378D01*
X0121849Y0225295D01*
X0121849Y0225211D01*
X0121853Y0225128D01*
X0121861Y0225045D01*
X0121873Y0224963D01*
X0121888Y0224881D01*
X0121908Y0224800D01*
X0121931Y0224719D01*
X0121958Y0224641D01*
X0121988Y0224563D01*
X0122023Y0224487D01*
X0122060Y0224413D01*
X0122101Y0224340D01*
X0122146Y0224270D01*
X0122193Y0224201D01*
X0122244Y0224135D01*
X0122298Y0224072D01*
X0122355Y0224011D01*
X0122415Y0223952D01*
X0122477Y0223897D01*
X0122542Y0223845D01*
X0122609Y0223795D01*
X0122679Y0223749D01*
X0122750Y0223706D01*
X0122824Y0223667D01*
X0122899Y0223631D01*
X0122976Y0223599D01*
X0123054Y0223570D01*
X0123133Y0223545D01*
X0123214Y0223524D01*
X0123295Y0223506D01*
X0123378Y0223493D01*
X0123461Y0223483D01*
X0123544Y0223477D01*
X0123627Y0223475D01*
X0126367Y0234725D02*
X0127789Y0234725D01*
X0127853Y0234727D01*
X0127918Y0234733D01*
X0127981Y0234742D01*
X0128044Y0234756D01*
X0128106Y0234773D01*
X0128167Y0234794D01*
X0128227Y0234819D01*
X0128285Y0234847D01*
X0128341Y0234879D01*
X0128395Y0234914D01*
X0128447Y0234952D01*
X0128497Y0234993D01*
X0128543Y0235038D01*
X0128588Y0235084D01*
X0128629Y0235134D01*
X0128667Y0235186D01*
X0128702Y0235240D01*
X0128734Y0235296D01*
X0128762Y0235354D01*
X0128787Y0235414D01*
X0128808Y0235475D01*
X0128825Y0235537D01*
X0128839Y0235600D01*
X0128848Y0235663D01*
X0128854Y0235728D01*
X0128856Y0235792D01*
X0128855Y0235792D02*
X0128855Y0237925D01*
X0128856Y0237925D02*
X0128854Y0237989D01*
X0128848Y0238054D01*
X0128839Y0238117D01*
X0128825Y0238180D01*
X0128808Y0238242D01*
X0128787Y0238303D01*
X0128762Y0238363D01*
X0128734Y0238421D01*
X0128702Y0238477D01*
X0128667Y0238531D01*
X0128629Y0238583D01*
X0128588Y0238633D01*
X0128543Y0238679D01*
X0128497Y0238724D01*
X0128447Y0238765D01*
X0128395Y0238803D01*
X0128341Y0238838D01*
X0128285Y0238870D01*
X0128227Y0238898D01*
X0128167Y0238923D01*
X0128106Y0238944D01*
X0128044Y0238961D01*
X0127981Y0238975D01*
X0127918Y0238984D01*
X0127853Y0238990D01*
X0127789Y0238992D01*
X0126367Y0238992D01*
X0123865Y0237569D02*
X0123865Y0236147D01*
X0123863Y0236073D01*
X0123857Y0235998D01*
X0123847Y0235925D01*
X0123834Y0235851D01*
X0123817Y0235779D01*
X0123795Y0235708D01*
X0123771Y0235637D01*
X0123742Y0235569D01*
X0123710Y0235501D01*
X0123674Y0235436D01*
X0123636Y0235373D01*
X0123593Y0235311D01*
X0123548Y0235252D01*
X0123500Y0235195D01*
X0123449Y0235141D01*
X0123395Y0235090D01*
X0123338Y0235042D01*
X0123279Y0234997D01*
X0123217Y0234954D01*
X0123154Y0234916D01*
X0123089Y0234880D01*
X0123021Y0234848D01*
X0122953Y0234819D01*
X0122882Y0234795D01*
X0122811Y0234773D01*
X0122739Y0234756D01*
X0122665Y0234743D01*
X0122592Y0234733D01*
X0122517Y0234727D01*
X0122443Y0234725D01*
X0122369Y0234727D01*
X0122294Y0234733D01*
X0122221Y0234743D01*
X0122147Y0234756D01*
X0122075Y0234773D01*
X0122004Y0234795D01*
X0121933Y0234819D01*
X0121865Y0234848D01*
X0121797Y0234880D01*
X0121732Y0234916D01*
X0121669Y0234954D01*
X0121607Y0234997D01*
X0121548Y0235042D01*
X0121491Y0235090D01*
X0121437Y0235141D01*
X0121386Y0235195D01*
X0121338Y0235252D01*
X0121293Y0235311D01*
X0121250Y0235373D01*
X0121212Y0235436D01*
X0121176Y0235501D01*
X0121144Y0235569D01*
X0121115Y0235637D01*
X0121091Y0235708D01*
X0121069Y0235779D01*
X0121052Y0235851D01*
X0121039Y0235925D01*
X0121029Y0235998D01*
X0121023Y0236073D01*
X0121021Y0236147D01*
X0121021Y0237569D01*
X0121023Y0237643D01*
X0121029Y0237718D01*
X0121039Y0237791D01*
X0121052Y0237865D01*
X0121069Y0237937D01*
X0121091Y0238008D01*
X0121115Y0238079D01*
X0121144Y0238147D01*
X0121176Y0238215D01*
X0121212Y0238280D01*
X0121250Y0238343D01*
X0121293Y0238405D01*
X0121338Y0238464D01*
X0121386Y0238521D01*
X0121437Y0238575D01*
X0121491Y0238626D01*
X0121548Y0238674D01*
X0121607Y0238719D01*
X0121669Y0238762D01*
X0121732Y0238800D01*
X0121797Y0238836D01*
X0121865Y0238868D01*
X0121933Y0238897D01*
X0122004Y0238921D01*
X0122075Y0238943D01*
X0122147Y0238960D01*
X0122221Y0238973D01*
X0122294Y0238983D01*
X0122369Y0238989D01*
X0122443Y0238991D01*
X0122517Y0238989D01*
X0122592Y0238983D01*
X0122665Y0238973D01*
X0122739Y0238960D01*
X0122811Y0238943D01*
X0122882Y0238921D01*
X0122953Y0238897D01*
X0123021Y0238868D01*
X0123089Y0238836D01*
X0123154Y0238800D01*
X0123217Y0238762D01*
X0123279Y0238719D01*
X0123338Y0238674D01*
X0123395Y0238626D01*
X0123449Y0238575D01*
X0123500Y0238521D01*
X0123548Y0238464D01*
X0123593Y0238405D01*
X0123636Y0238343D01*
X0123674Y0238280D01*
X0123710Y0238215D01*
X0123742Y0238147D01*
X0123771Y0238079D01*
X0123795Y0238008D01*
X0123817Y0237937D01*
X0123834Y0237865D01*
X0123847Y0237791D01*
X0123857Y0237718D01*
X0123863Y0237643D01*
X0123865Y0237569D01*
X0117837Y0238992D02*
X0117837Y0234725D01*
X0115704Y0234725D02*
X0115704Y0238992D01*
X0114637Y0238992D02*
X0117837Y0238992D01*
X0114637Y0238992D02*
X0114573Y0238990D01*
X0114508Y0238984D01*
X0114445Y0238975D01*
X0114382Y0238961D01*
X0114320Y0238944D01*
X0114259Y0238923D01*
X0114199Y0238898D01*
X0114141Y0238870D01*
X0114085Y0238838D01*
X0114031Y0238803D01*
X0113979Y0238765D01*
X0113929Y0238724D01*
X0113883Y0238679D01*
X0113838Y0238633D01*
X0113797Y0238583D01*
X0113759Y0238531D01*
X0113724Y0238477D01*
X0113692Y0238421D01*
X0113664Y0238363D01*
X0113639Y0238303D01*
X0113618Y0238242D01*
X0113601Y0238180D01*
X0113587Y0238117D01*
X0113578Y0238054D01*
X0113572Y0237989D01*
X0113570Y0237925D01*
X0113570Y0234725D01*
X0132406Y0228097D02*
X0132406Y0225253D01*
X0132405Y0225253D02*
X0132407Y0225171D01*
X0132413Y0225089D01*
X0132422Y0225007D01*
X0132435Y0224926D01*
X0132452Y0224846D01*
X0132473Y0224766D01*
X0132497Y0224688D01*
X0132525Y0224611D01*
X0132556Y0224535D01*
X0132591Y0224460D01*
X0132630Y0224388D01*
X0132671Y0224317D01*
X0132716Y0224248D01*
X0132764Y0224182D01*
X0132815Y0224117D01*
X0132869Y0224055D01*
X0132926Y0223996D01*
X0132985Y0223939D01*
X0133047Y0223885D01*
X0133112Y0223834D01*
X0133178Y0223786D01*
X0133247Y0223741D01*
X0133318Y0223700D01*
X0133390Y0223661D01*
X0133465Y0223626D01*
X0133541Y0223595D01*
X0133618Y0223567D01*
X0133696Y0223543D01*
X0133776Y0223522D01*
X0133856Y0223505D01*
X0133937Y0223492D01*
X0134019Y0223483D01*
X0134101Y0223477D01*
X0134183Y0223475D01*
X0135961Y0223475D01*
X0135961Y0229875D01*
X0134183Y0229875D01*
X0134101Y0229873D01*
X0134019Y0229867D01*
X0133937Y0229858D01*
X0133856Y0229845D01*
X0133776Y0229828D01*
X0133696Y0229807D01*
X0133618Y0229783D01*
X0133541Y0229755D01*
X0133465Y0229724D01*
X0133390Y0229689D01*
X0133318Y0229650D01*
X0133247Y0229609D01*
X0133178Y0229564D01*
X0133112Y0229516D01*
X0133047Y0229465D01*
X0132985Y0229411D01*
X0132926Y0229354D01*
X0132869Y0229295D01*
X0132815Y0229233D01*
X0132764Y0229168D01*
X0132716Y0229102D01*
X0132671Y0229033D01*
X0132630Y0228962D01*
X0132591Y0228890D01*
X0132556Y0228815D01*
X0132525Y0228739D01*
X0132497Y0228662D01*
X0132473Y0228584D01*
X0132452Y0228504D01*
X0132435Y0228424D01*
X0132422Y0228343D01*
X0132413Y0228261D01*
X0132407Y0228179D01*
X0132405Y0228097D01*
X0138791Y0229875D02*
X0140214Y0229875D01*
X0140288Y0229873D01*
X0140363Y0229867D01*
X0140436Y0229857D01*
X0140510Y0229844D01*
X0140582Y0229827D01*
X0140653Y0229805D01*
X0140724Y0229781D01*
X0140792Y0229752D01*
X0140860Y0229720D01*
X0140925Y0229684D01*
X0140988Y0229646D01*
X0141050Y0229603D01*
X0141109Y0229558D01*
X0141166Y0229510D01*
X0141220Y0229459D01*
X0141271Y0229405D01*
X0141319Y0229348D01*
X0141364Y0229289D01*
X0141407Y0229227D01*
X0141445Y0229164D01*
X0141481Y0229099D01*
X0141513Y0229031D01*
X0141542Y0228963D01*
X0141566Y0228892D01*
X0141588Y0228821D01*
X0141605Y0228749D01*
X0141618Y0228675D01*
X0141628Y0228602D01*
X0141634Y0228527D01*
X0141636Y0228453D01*
X0141636Y0224897D01*
X0141634Y0224823D01*
X0141628Y0224748D01*
X0141618Y0224675D01*
X0141605Y0224601D01*
X0141588Y0224529D01*
X0141566Y0224458D01*
X0141542Y0224387D01*
X0141513Y0224319D01*
X0141481Y0224251D01*
X0141445Y0224186D01*
X0141407Y0224123D01*
X0141364Y0224061D01*
X0141319Y0224002D01*
X0141271Y0223945D01*
X0141220Y0223891D01*
X0141166Y0223840D01*
X0141109Y0223792D01*
X0141050Y0223747D01*
X0140988Y0223704D01*
X0140925Y0223666D01*
X0140860Y0223630D01*
X0140792Y0223598D01*
X0140724Y0223569D01*
X0140653Y0223545D01*
X0140582Y0223523D01*
X0140510Y0223506D01*
X0140436Y0223493D01*
X0140363Y0223483D01*
X0140288Y0223477D01*
X0140214Y0223475D01*
X0138791Y0223475D01*
X0144187Y0223475D02*
X0147031Y0223475D01*
X0147031Y0229875D01*
X0145488Y0234725D02*
X0144066Y0238992D01*
X0146910Y0238992D02*
X0145488Y0234725D01*
X0141475Y0235792D02*
X0141475Y0237569D01*
X0141475Y0236858D02*
X0138631Y0236858D01*
X0138631Y0237569D01*
X0138633Y0237643D01*
X0138639Y0237718D01*
X0138649Y0237791D01*
X0138662Y0237865D01*
X0138679Y0237937D01*
X0138701Y0238008D01*
X0138725Y0238079D01*
X0138754Y0238147D01*
X0138786Y0238215D01*
X0138822Y0238280D01*
X0138860Y0238343D01*
X0138903Y0238405D01*
X0138948Y0238464D01*
X0138996Y0238521D01*
X0139047Y0238575D01*
X0139101Y0238626D01*
X0139158Y0238674D01*
X0139217Y0238719D01*
X0139279Y0238762D01*
X0139342Y0238800D01*
X0139407Y0238836D01*
X0139475Y0238868D01*
X0139543Y0238897D01*
X0139614Y0238921D01*
X0139685Y0238943D01*
X0139757Y0238960D01*
X0139831Y0238973D01*
X0139904Y0238983D01*
X0139979Y0238989D01*
X0140053Y0238991D01*
X0140127Y0238989D01*
X0140202Y0238983D01*
X0140275Y0238973D01*
X0140349Y0238960D01*
X0140421Y0238943D01*
X0140492Y0238921D01*
X0140563Y0238897D01*
X0140631Y0238868D01*
X0140699Y0238836D01*
X0140764Y0238800D01*
X0140827Y0238762D01*
X0140889Y0238719D01*
X0140948Y0238674D01*
X0141005Y0238626D01*
X0141059Y0238575D01*
X0141110Y0238521D01*
X0141158Y0238464D01*
X0141203Y0238405D01*
X0141246Y0238343D01*
X0141284Y0238280D01*
X0141320Y0238215D01*
X0141352Y0238147D01*
X0141381Y0238079D01*
X0141405Y0238008D01*
X0141427Y0237937D01*
X0141444Y0237865D01*
X0141457Y0237791D01*
X0141467Y0237718D01*
X0141473Y0237643D01*
X0141475Y0237569D01*
X0141476Y0235792D02*
X0141474Y0235728D01*
X0141468Y0235663D01*
X0141459Y0235600D01*
X0141445Y0235537D01*
X0141428Y0235475D01*
X0141407Y0235414D01*
X0141382Y0235354D01*
X0141354Y0235296D01*
X0141322Y0235240D01*
X0141287Y0235186D01*
X0141249Y0235134D01*
X0141208Y0235084D01*
X0141163Y0235038D01*
X0141117Y0234993D01*
X0141067Y0234952D01*
X0141015Y0234914D01*
X0140961Y0234879D01*
X0140905Y0234847D01*
X0140847Y0234819D01*
X0140787Y0234794D01*
X0140726Y0234773D01*
X0140664Y0234756D01*
X0140601Y0234742D01*
X0140538Y0234733D01*
X0140473Y0234727D01*
X0140409Y0234725D01*
X0138631Y0234725D01*
X0135767Y0235792D02*
X0135767Y0241125D01*
X0135768Y0235792D02*
X0135766Y0235728D01*
X0135760Y0235663D01*
X0135751Y0235600D01*
X0135737Y0235537D01*
X0135720Y0235475D01*
X0135699Y0235414D01*
X0135674Y0235354D01*
X0135646Y0235296D01*
X0135614Y0235240D01*
X0135579Y0235186D01*
X0135541Y0235134D01*
X0135500Y0235084D01*
X0135455Y0235038D01*
X0135409Y0234993D01*
X0135359Y0234952D01*
X0135307Y0234914D01*
X0135253Y0234879D01*
X0135197Y0234847D01*
X0135139Y0234819D01*
X0135079Y0234794D01*
X0135018Y0234773D01*
X0134956Y0234756D01*
X0134893Y0234742D01*
X0134830Y0234733D01*
X0134765Y0234727D01*
X0134701Y0234725D01*
X0149327Y0234725D02*
X0149327Y0238992D01*
X0149505Y0240592D02*
X0148794Y0242014D01*
X0151880Y0238992D02*
X0154014Y0238992D01*
X0153303Y0241125D02*
X0153303Y0235792D01*
X0153301Y0235728D01*
X0153295Y0235663D01*
X0153286Y0235600D01*
X0153272Y0235537D01*
X0153255Y0235475D01*
X0153234Y0235414D01*
X0153209Y0235354D01*
X0153181Y0235296D01*
X0153149Y0235240D01*
X0153114Y0235186D01*
X0153076Y0235134D01*
X0153035Y0235084D01*
X0152990Y0235038D01*
X0152944Y0234993D01*
X0152894Y0234952D01*
X0152842Y0234914D01*
X0152788Y0234879D01*
X0152732Y0234847D01*
X0152674Y0234819D01*
X0152614Y0234794D01*
X0152553Y0234773D01*
X0152491Y0234756D01*
X0152428Y0234742D01*
X0152365Y0234733D01*
X0152300Y0234727D01*
X0152236Y0234725D01*
X0151880Y0234725D01*
X0156500Y0234725D02*
X0156500Y0237925D01*
X0156500Y0237214D02*
X0158100Y0237214D01*
X0156500Y0237925D02*
X0156502Y0237989D01*
X0156508Y0238054D01*
X0156517Y0238117D01*
X0156531Y0238180D01*
X0156548Y0238242D01*
X0156569Y0238303D01*
X0156594Y0238363D01*
X0156622Y0238421D01*
X0156654Y0238477D01*
X0156689Y0238531D01*
X0156727Y0238583D01*
X0156768Y0238633D01*
X0156813Y0238679D01*
X0156859Y0238724D01*
X0156909Y0238765D01*
X0156961Y0238803D01*
X0157015Y0238838D01*
X0157071Y0238870D01*
X0157129Y0238898D01*
X0157189Y0238923D01*
X0157250Y0238944D01*
X0157312Y0238961D01*
X0157375Y0238975D01*
X0157438Y0238984D01*
X0157503Y0238990D01*
X0157567Y0238992D01*
X0158989Y0238992D01*
X0158100Y0237213D02*
X0158170Y0237211D01*
X0158239Y0237205D01*
X0158308Y0237195D01*
X0158377Y0237182D01*
X0158444Y0237164D01*
X0158511Y0237143D01*
X0158576Y0237118D01*
X0158640Y0237090D01*
X0158702Y0237058D01*
X0158762Y0237022D01*
X0158820Y0236984D01*
X0158876Y0236942D01*
X0158929Y0236897D01*
X0158980Y0236849D01*
X0159028Y0236798D01*
X0159073Y0236745D01*
X0159115Y0236689D01*
X0159153Y0236631D01*
X0159189Y0236571D01*
X0159221Y0236509D01*
X0159249Y0236445D01*
X0159274Y0236380D01*
X0159295Y0236313D01*
X0159313Y0236246D01*
X0159326Y0236177D01*
X0159336Y0236108D01*
X0159342Y0236039D01*
X0159344Y0235969D01*
X0159342Y0235899D01*
X0159336Y0235830D01*
X0159326Y0235761D01*
X0159313Y0235692D01*
X0159295Y0235625D01*
X0159274Y0235558D01*
X0159249Y0235493D01*
X0159221Y0235429D01*
X0159189Y0235367D01*
X0159153Y0235307D01*
X0159115Y0235249D01*
X0159073Y0235193D01*
X0159028Y0235140D01*
X0158980Y0235089D01*
X0158929Y0235041D01*
X0158876Y0234996D01*
X0158820Y0234954D01*
X0158762Y0234916D01*
X0158702Y0234880D01*
X0158640Y0234848D01*
X0158576Y0234820D01*
X0158511Y0234795D01*
X0158444Y0234774D01*
X0158377Y0234756D01*
X0158308Y0234743D01*
X0158239Y0234733D01*
X0158170Y0234727D01*
X0158100Y0234725D01*
X0156500Y0234725D01*
X0156832Y0229875D02*
X0153277Y0229875D01*
X0155054Y0229875D02*
X0155054Y0223475D01*
X0158970Y0227031D02*
X0161815Y0227031D01*
X0161815Y0229875D02*
X0158970Y0229875D01*
X0161815Y0229875D02*
X0161815Y0223475D01*
X0166359Y0223475D02*
X0166359Y0229875D01*
X0164582Y0229875D02*
X0168137Y0229875D01*
X0168357Y0234725D02*
X0168357Y0237925D01*
X0168356Y0237925D02*
X0168358Y0237989D01*
X0168364Y0238054D01*
X0168373Y0238117D01*
X0168387Y0238180D01*
X0168404Y0238242D01*
X0168425Y0238303D01*
X0168450Y0238363D01*
X0168478Y0238421D01*
X0168510Y0238477D01*
X0168545Y0238531D01*
X0168583Y0238583D01*
X0168624Y0238633D01*
X0168669Y0238679D01*
X0168715Y0238724D01*
X0168765Y0238765D01*
X0168817Y0238803D01*
X0168871Y0238838D01*
X0168927Y0238870D01*
X0168985Y0238898D01*
X0169045Y0238923D01*
X0169106Y0238944D01*
X0169168Y0238961D01*
X0169231Y0238975D01*
X0169294Y0238984D01*
X0169359Y0238990D01*
X0169423Y0238992D01*
X0172623Y0238992D01*
X0172623Y0234725D01*
X0170490Y0234725D02*
X0170490Y0238992D01*
X0175807Y0237569D02*
X0175807Y0236147D01*
X0175809Y0236073D01*
X0175815Y0235998D01*
X0175825Y0235925D01*
X0175838Y0235851D01*
X0175855Y0235779D01*
X0175877Y0235708D01*
X0175901Y0235637D01*
X0175930Y0235569D01*
X0175962Y0235501D01*
X0175998Y0235436D01*
X0176036Y0235373D01*
X0176079Y0235311D01*
X0176124Y0235252D01*
X0176172Y0235195D01*
X0176223Y0235141D01*
X0176277Y0235090D01*
X0176334Y0235042D01*
X0176393Y0234997D01*
X0176455Y0234954D01*
X0176518Y0234916D01*
X0176583Y0234880D01*
X0176651Y0234848D01*
X0176719Y0234819D01*
X0176790Y0234795D01*
X0176861Y0234773D01*
X0176933Y0234756D01*
X0177007Y0234743D01*
X0177080Y0234733D01*
X0177155Y0234727D01*
X0177229Y0234725D01*
X0177303Y0234727D01*
X0177378Y0234733D01*
X0177451Y0234743D01*
X0177525Y0234756D01*
X0177597Y0234773D01*
X0177668Y0234795D01*
X0177739Y0234819D01*
X0177807Y0234848D01*
X0177875Y0234880D01*
X0177940Y0234916D01*
X0178003Y0234954D01*
X0178065Y0234997D01*
X0178124Y0235042D01*
X0178181Y0235090D01*
X0178235Y0235141D01*
X0178286Y0235195D01*
X0178334Y0235252D01*
X0178379Y0235311D01*
X0178422Y0235373D01*
X0178460Y0235436D01*
X0178496Y0235501D01*
X0178528Y0235569D01*
X0178557Y0235637D01*
X0178581Y0235708D01*
X0178603Y0235779D01*
X0178620Y0235851D01*
X0178633Y0235925D01*
X0178643Y0235998D01*
X0178649Y0236073D01*
X0178651Y0236147D01*
X0178652Y0236147D02*
X0178652Y0237569D01*
X0178651Y0237569D02*
X0178649Y0237643D01*
X0178643Y0237718D01*
X0178633Y0237791D01*
X0178620Y0237865D01*
X0178603Y0237937D01*
X0178581Y0238008D01*
X0178557Y0238079D01*
X0178528Y0238147D01*
X0178496Y0238215D01*
X0178460Y0238280D01*
X0178422Y0238343D01*
X0178379Y0238405D01*
X0178334Y0238464D01*
X0178286Y0238521D01*
X0178235Y0238575D01*
X0178181Y0238626D01*
X0178124Y0238674D01*
X0178065Y0238719D01*
X0178003Y0238762D01*
X0177940Y0238800D01*
X0177875Y0238836D01*
X0177807Y0238868D01*
X0177739Y0238897D01*
X0177668Y0238921D01*
X0177597Y0238943D01*
X0177525Y0238960D01*
X0177451Y0238973D01*
X0177378Y0238983D01*
X0177303Y0238989D01*
X0177229Y0238991D01*
X0177155Y0238989D01*
X0177080Y0238983D01*
X0177007Y0238973D01*
X0176933Y0238960D01*
X0176861Y0238943D01*
X0176790Y0238921D01*
X0176719Y0238897D01*
X0176651Y0238868D01*
X0176583Y0238836D01*
X0176518Y0238800D01*
X0176455Y0238762D01*
X0176393Y0238719D01*
X0176334Y0238674D01*
X0176277Y0238626D01*
X0176223Y0238575D01*
X0176172Y0238521D01*
X0176124Y0238464D01*
X0176079Y0238405D01*
X0176036Y0238343D01*
X0175998Y0238280D01*
X0175962Y0238215D01*
X0175930Y0238147D01*
X0175901Y0238079D01*
X0175877Y0238008D01*
X0175855Y0237937D01*
X0175838Y0237865D01*
X0175825Y0237791D01*
X0175815Y0237718D01*
X0175809Y0237643D01*
X0175807Y0237569D01*
X0181185Y0234725D02*
X0182607Y0234725D01*
X0182681Y0234727D01*
X0182756Y0234733D01*
X0182829Y0234743D01*
X0182903Y0234756D01*
X0182975Y0234773D01*
X0183046Y0234795D01*
X0183117Y0234819D01*
X0183185Y0234848D01*
X0183253Y0234880D01*
X0183318Y0234916D01*
X0183381Y0234954D01*
X0183443Y0234997D01*
X0183502Y0235042D01*
X0183559Y0235090D01*
X0183613Y0235141D01*
X0183664Y0235195D01*
X0183712Y0235252D01*
X0183757Y0235311D01*
X0183800Y0235373D01*
X0183838Y0235436D01*
X0183874Y0235501D01*
X0183906Y0235569D01*
X0183935Y0235637D01*
X0183959Y0235708D01*
X0183981Y0235779D01*
X0183998Y0235851D01*
X0184011Y0235925D01*
X0184021Y0235998D01*
X0184027Y0236073D01*
X0184029Y0236147D01*
X0184030Y0236147D02*
X0184030Y0239703D01*
X0184029Y0239703D02*
X0184027Y0239777D01*
X0184021Y0239852D01*
X0184011Y0239925D01*
X0183998Y0239999D01*
X0183981Y0240071D01*
X0183959Y0240142D01*
X0183935Y0240213D01*
X0183906Y0240281D01*
X0183874Y0240349D01*
X0183838Y0240414D01*
X0183800Y0240477D01*
X0183757Y0240539D01*
X0183712Y0240598D01*
X0183664Y0240655D01*
X0183613Y0240709D01*
X0183559Y0240760D01*
X0183502Y0240808D01*
X0183443Y0240853D01*
X0183381Y0240896D01*
X0183318Y0240934D01*
X0183253Y0240970D01*
X0183185Y0241002D01*
X0183117Y0241031D01*
X0183046Y0241055D01*
X0182975Y0241077D01*
X0182903Y0241094D01*
X0182829Y0241107D01*
X0182756Y0241117D01*
X0182681Y0241123D01*
X0182607Y0241125D01*
X0181185Y0241125D01*
X0175510Y0231297D02*
X0175510Y0229875D01*
X0173732Y0229875D02*
X0173732Y0231297D01*
X0178417Y0228453D02*
X0178419Y0228379D01*
X0178425Y0228304D01*
X0178435Y0228231D01*
X0178448Y0228157D01*
X0178465Y0228085D01*
X0178487Y0228014D01*
X0178511Y0227943D01*
X0178540Y0227875D01*
X0178572Y0227807D01*
X0178608Y0227742D01*
X0178646Y0227679D01*
X0178689Y0227617D01*
X0178734Y0227558D01*
X0178782Y0227501D01*
X0178833Y0227447D01*
X0178887Y0227396D01*
X0178944Y0227348D01*
X0179003Y0227303D01*
X0179065Y0227260D01*
X0179128Y0227222D01*
X0179193Y0227186D01*
X0179261Y0227154D01*
X0179329Y0227125D01*
X0179400Y0227101D01*
X0179471Y0227079D01*
X0179543Y0227062D01*
X0179617Y0227049D01*
X0179690Y0227039D01*
X0179765Y0227033D01*
X0179839Y0227031D01*
X0179913Y0227033D01*
X0179988Y0227039D01*
X0180061Y0227049D01*
X0180135Y0227062D01*
X0180207Y0227079D01*
X0180278Y0227101D01*
X0180349Y0227125D01*
X0180417Y0227154D01*
X0180485Y0227186D01*
X0180550Y0227222D01*
X0180613Y0227260D01*
X0180675Y0227303D01*
X0180734Y0227348D01*
X0180791Y0227396D01*
X0180845Y0227447D01*
X0180896Y0227501D01*
X0180944Y0227558D01*
X0180989Y0227617D01*
X0181032Y0227679D01*
X0181070Y0227742D01*
X0181106Y0227807D01*
X0181138Y0227875D01*
X0181167Y0227943D01*
X0181191Y0228014D01*
X0181213Y0228085D01*
X0181230Y0228157D01*
X0181243Y0228231D01*
X0181253Y0228304D01*
X0181259Y0228379D01*
X0181261Y0228453D01*
X0181259Y0228527D01*
X0181253Y0228602D01*
X0181243Y0228675D01*
X0181230Y0228749D01*
X0181213Y0228821D01*
X0181191Y0228892D01*
X0181167Y0228963D01*
X0181138Y0229031D01*
X0181106Y0229099D01*
X0181070Y0229164D01*
X0181032Y0229227D01*
X0180989Y0229289D01*
X0180944Y0229348D01*
X0180896Y0229405D01*
X0180845Y0229459D01*
X0180791Y0229510D01*
X0180734Y0229558D01*
X0180675Y0229603D01*
X0180613Y0229646D01*
X0180550Y0229684D01*
X0180485Y0229720D01*
X0180417Y0229752D01*
X0180349Y0229781D01*
X0180278Y0229805D01*
X0180207Y0229827D01*
X0180135Y0229844D01*
X0180061Y0229857D01*
X0179988Y0229867D01*
X0179913Y0229873D01*
X0179839Y0229875D01*
X0179765Y0229873D01*
X0179690Y0229867D01*
X0179617Y0229857D01*
X0179543Y0229844D01*
X0179471Y0229827D01*
X0179400Y0229805D01*
X0179329Y0229781D01*
X0179261Y0229752D01*
X0179193Y0229720D01*
X0179128Y0229684D01*
X0179065Y0229646D01*
X0179003Y0229603D01*
X0178944Y0229558D01*
X0178887Y0229510D01*
X0178833Y0229459D01*
X0178782Y0229405D01*
X0178734Y0229348D01*
X0178689Y0229289D01*
X0178646Y0229227D01*
X0178608Y0229164D01*
X0178572Y0229099D01*
X0178540Y0229031D01*
X0178511Y0228963D01*
X0178487Y0228892D01*
X0178465Y0228821D01*
X0178448Y0228749D01*
X0178435Y0228675D01*
X0178425Y0228602D01*
X0178419Y0228527D01*
X0178417Y0228453D01*
X0178061Y0225253D02*
X0178063Y0225170D01*
X0178069Y0225087D01*
X0178079Y0225004D01*
X0178092Y0224921D01*
X0178110Y0224840D01*
X0178131Y0224759D01*
X0178156Y0224680D01*
X0178185Y0224602D01*
X0178217Y0224525D01*
X0178253Y0224450D01*
X0178292Y0224376D01*
X0178335Y0224305D01*
X0178381Y0224235D01*
X0178431Y0224168D01*
X0178483Y0224103D01*
X0178538Y0224041D01*
X0178597Y0223981D01*
X0178658Y0223924D01*
X0178721Y0223870D01*
X0178787Y0223819D01*
X0178856Y0223772D01*
X0178926Y0223727D01*
X0178999Y0223686D01*
X0179073Y0223649D01*
X0179149Y0223614D01*
X0179227Y0223584D01*
X0179305Y0223557D01*
X0179386Y0223534D01*
X0179467Y0223514D01*
X0179549Y0223499D01*
X0179631Y0223487D01*
X0179714Y0223479D01*
X0179797Y0223475D01*
X0179881Y0223475D01*
X0179964Y0223479D01*
X0180047Y0223487D01*
X0180129Y0223499D01*
X0180211Y0223514D01*
X0180292Y0223534D01*
X0180373Y0223557D01*
X0180451Y0223584D01*
X0180529Y0223614D01*
X0180605Y0223649D01*
X0180679Y0223686D01*
X0180752Y0223727D01*
X0180822Y0223772D01*
X0180891Y0223819D01*
X0180957Y0223870D01*
X0181020Y0223924D01*
X0181081Y0223981D01*
X0181140Y0224041D01*
X0181195Y0224103D01*
X0181247Y0224168D01*
X0181297Y0224235D01*
X0181343Y0224305D01*
X0181386Y0224376D01*
X0181425Y0224450D01*
X0181461Y0224525D01*
X0181493Y0224602D01*
X0181522Y0224680D01*
X0181547Y0224759D01*
X0181568Y0224840D01*
X0181586Y0224921D01*
X0181599Y0225004D01*
X0181609Y0225087D01*
X0181615Y0225170D01*
X0181617Y0225253D01*
X0181615Y0225336D01*
X0181609Y0225419D01*
X0181599Y0225502D01*
X0181586Y0225585D01*
X0181568Y0225666D01*
X0181547Y0225747D01*
X0181522Y0225826D01*
X0181493Y0225904D01*
X0181461Y0225981D01*
X0181425Y0226056D01*
X0181386Y0226130D01*
X0181343Y0226201D01*
X0181297Y0226271D01*
X0181247Y0226338D01*
X0181195Y0226403D01*
X0181140Y0226465D01*
X0181081Y0226525D01*
X0181020Y0226582D01*
X0180957Y0226636D01*
X0180891Y0226687D01*
X0180822Y0226734D01*
X0180752Y0226779D01*
X0180679Y0226820D01*
X0180605Y0226857D01*
X0180529Y0226892D01*
X0180451Y0226922D01*
X0180373Y0226949D01*
X0180292Y0226972D01*
X0180211Y0226992D01*
X0180129Y0227007D01*
X0180047Y0227019D01*
X0179964Y0227027D01*
X0179881Y0227031D01*
X0179797Y0227031D01*
X0179714Y0227027D01*
X0179631Y0227019D01*
X0179549Y0227007D01*
X0179467Y0226992D01*
X0179386Y0226972D01*
X0179305Y0226949D01*
X0179227Y0226922D01*
X0179149Y0226892D01*
X0179073Y0226857D01*
X0178999Y0226820D01*
X0178926Y0226779D01*
X0178856Y0226734D01*
X0178787Y0226687D01*
X0178721Y0226636D01*
X0178658Y0226582D01*
X0178597Y0226525D01*
X0178538Y0226465D01*
X0178483Y0226403D01*
X0178431Y0226338D01*
X0178381Y0226271D01*
X0178335Y0226201D01*
X0178292Y0226130D01*
X0178253Y0226056D01*
X0178217Y0225981D01*
X0178185Y0225904D01*
X0178156Y0225826D01*
X0178131Y0225747D01*
X0178110Y0225666D01*
X0178092Y0225585D01*
X0178079Y0225502D01*
X0178069Y0225419D01*
X0178063Y0225336D01*
X0178061Y0225253D01*
X0184226Y0223831D02*
X0184226Y0223475D01*
X0184582Y0223475D01*
X0184582Y0223831D01*
X0184226Y0223831D01*
X0187192Y0223475D02*
X0190747Y0223475D01*
X0187725Y0227031D01*
X0188792Y0229875D02*
X0188881Y0229873D01*
X0188970Y0229867D01*
X0189059Y0229858D01*
X0189147Y0229844D01*
X0189234Y0229827D01*
X0189321Y0229806D01*
X0189407Y0229781D01*
X0189491Y0229753D01*
X0189574Y0229720D01*
X0189656Y0229685D01*
X0189736Y0229645D01*
X0189814Y0229603D01*
X0189891Y0229557D01*
X0189965Y0229508D01*
X0190037Y0229455D01*
X0190107Y0229400D01*
X0190174Y0229341D01*
X0190239Y0229280D01*
X0190301Y0229216D01*
X0190360Y0229149D01*
X0190416Y0229080D01*
X0190469Y0229008D01*
X0190519Y0228934D01*
X0190566Y0228858D01*
X0190609Y0228781D01*
X0190649Y0228701D01*
X0190686Y0228619D01*
X0190719Y0228537D01*
X0190748Y0228452D01*
X0187724Y0227030D02*
X0187667Y0227088D01*
X0187611Y0227149D01*
X0187559Y0227212D01*
X0187510Y0227277D01*
X0187464Y0227345D01*
X0187422Y0227415D01*
X0187382Y0227487D01*
X0187347Y0227560D01*
X0187314Y0227636D01*
X0187286Y0227712D01*
X0187261Y0227790D01*
X0187240Y0227869D01*
X0187222Y0227949D01*
X0187209Y0228030D01*
X0187199Y0228111D01*
X0187193Y0228193D01*
X0187191Y0228275D01*
X0187192Y0228275D02*
X0187194Y0228354D01*
X0187200Y0228432D01*
X0187209Y0228510D01*
X0187223Y0228587D01*
X0187240Y0228664D01*
X0187261Y0228739D01*
X0187286Y0228814D01*
X0187314Y0228887D01*
X0187346Y0228959D01*
X0187381Y0229029D01*
X0187420Y0229098D01*
X0187462Y0229164D01*
X0187507Y0229228D01*
X0187555Y0229290D01*
X0187606Y0229349D01*
X0187661Y0229406D01*
X0187718Y0229461D01*
X0187777Y0229512D01*
X0187839Y0229560D01*
X0187903Y0229605D01*
X0187969Y0229647D01*
X0188038Y0229686D01*
X0188108Y0229721D01*
X0188180Y0229753D01*
X0188253Y0229781D01*
X0188328Y0229806D01*
X0188403Y0229827D01*
X0188480Y0229844D01*
X0188557Y0229858D01*
X0188635Y0229867D01*
X0188713Y0229873D01*
X0188792Y0229875D01*
X0197272Y0225964D02*
X0201538Y0225964D01*
X0207754Y0227742D02*
X0209887Y0227742D01*
X0212015Y0227742D02*
X0212015Y0223475D01*
X0214940Y0223475D02*
X0214940Y0227742D01*
X0217785Y0227742D02*
X0217785Y0224542D01*
X0217783Y0224478D01*
X0217777Y0224413D01*
X0217768Y0224350D01*
X0217754Y0224287D01*
X0217737Y0224225D01*
X0217716Y0224164D01*
X0217691Y0224104D01*
X0217663Y0224046D01*
X0217631Y0223990D01*
X0217596Y0223936D01*
X0217558Y0223884D01*
X0217517Y0223834D01*
X0217472Y0223788D01*
X0217426Y0223743D01*
X0217376Y0223702D01*
X0217324Y0223664D01*
X0217270Y0223629D01*
X0217214Y0223597D01*
X0217156Y0223569D01*
X0217096Y0223544D01*
X0217035Y0223523D01*
X0216973Y0223506D01*
X0216910Y0223492D01*
X0216847Y0223483D01*
X0216782Y0223477D01*
X0216718Y0223475D01*
X0214940Y0223475D01*
X0209176Y0224542D02*
X0209176Y0229875D01*
X0211837Y0229875D02*
X0211837Y0229519D01*
X0212192Y0229519D01*
X0212192Y0229875D01*
X0211837Y0229875D01*
X0209176Y0224542D02*
X0209174Y0224478D01*
X0209168Y0224413D01*
X0209159Y0224350D01*
X0209145Y0224287D01*
X0209128Y0224225D01*
X0209107Y0224164D01*
X0209082Y0224104D01*
X0209054Y0224046D01*
X0209022Y0223990D01*
X0208987Y0223936D01*
X0208949Y0223884D01*
X0208908Y0223834D01*
X0208863Y0223788D01*
X0208817Y0223743D01*
X0208767Y0223702D01*
X0208715Y0223664D01*
X0208661Y0223629D01*
X0208605Y0223597D01*
X0208547Y0223569D01*
X0208487Y0223544D01*
X0208426Y0223523D01*
X0208364Y0223506D01*
X0208301Y0223492D01*
X0208238Y0223483D01*
X0208173Y0223477D01*
X0208109Y0223475D01*
X0207754Y0223475D01*
X0220168Y0227031D02*
X0220168Y0227742D01*
X0222301Y0227742D01*
X0222301Y0223475D01*
X0224491Y0227742D02*
X0226624Y0227742D01*
X0225913Y0228808D02*
X0225913Y0223475D01*
X0229331Y0223475D02*
X0229331Y0226675D01*
X0229331Y0225964D02*
X0230931Y0225964D01*
X0229331Y0226675D02*
X0229333Y0226739D01*
X0229339Y0226804D01*
X0229348Y0226867D01*
X0229362Y0226930D01*
X0229379Y0226992D01*
X0229400Y0227053D01*
X0229425Y0227113D01*
X0229453Y0227171D01*
X0229485Y0227227D01*
X0229520Y0227281D01*
X0229558Y0227333D01*
X0229599Y0227383D01*
X0229644Y0227429D01*
X0229690Y0227474D01*
X0229740Y0227515D01*
X0229792Y0227553D01*
X0229846Y0227588D01*
X0229902Y0227620D01*
X0229960Y0227648D01*
X0230020Y0227673D01*
X0230081Y0227694D01*
X0230143Y0227711D01*
X0230206Y0227725D01*
X0230269Y0227734D01*
X0230334Y0227740D01*
X0230398Y0227742D01*
X0231820Y0227742D01*
X0230931Y0225963D02*
X0231001Y0225961D01*
X0231070Y0225955D01*
X0231139Y0225945D01*
X0231208Y0225932D01*
X0231275Y0225914D01*
X0231342Y0225893D01*
X0231407Y0225868D01*
X0231471Y0225840D01*
X0231533Y0225808D01*
X0231593Y0225772D01*
X0231651Y0225734D01*
X0231707Y0225692D01*
X0231760Y0225647D01*
X0231811Y0225599D01*
X0231859Y0225548D01*
X0231904Y0225495D01*
X0231946Y0225439D01*
X0231984Y0225381D01*
X0232020Y0225321D01*
X0232052Y0225259D01*
X0232080Y0225195D01*
X0232105Y0225130D01*
X0232126Y0225063D01*
X0232144Y0224996D01*
X0232157Y0224927D01*
X0232167Y0224858D01*
X0232173Y0224789D01*
X0232175Y0224719D01*
X0232173Y0224649D01*
X0232167Y0224580D01*
X0232157Y0224511D01*
X0232144Y0224442D01*
X0232126Y0224375D01*
X0232105Y0224308D01*
X0232080Y0224243D01*
X0232052Y0224179D01*
X0232020Y0224117D01*
X0231984Y0224057D01*
X0231946Y0223999D01*
X0231904Y0223943D01*
X0231859Y0223890D01*
X0231811Y0223839D01*
X0231760Y0223791D01*
X0231707Y0223746D01*
X0231651Y0223704D01*
X0231593Y0223666D01*
X0231533Y0223630D01*
X0231471Y0223598D01*
X0231407Y0223570D01*
X0231342Y0223545D01*
X0231275Y0223524D01*
X0231208Y0223506D01*
X0231139Y0223493D01*
X0231070Y0223483D01*
X0231001Y0223477D01*
X0230931Y0223475D01*
X0229331Y0223475D01*
X0235201Y0223475D02*
X0235201Y0229875D01*
X0235201Y0227742D02*
X0236979Y0227742D01*
X0237043Y0227740D01*
X0237108Y0227734D01*
X0237171Y0227725D01*
X0237234Y0227711D01*
X0237296Y0227694D01*
X0237357Y0227673D01*
X0237417Y0227648D01*
X0237475Y0227620D01*
X0237531Y0227588D01*
X0237585Y0227553D01*
X0237637Y0227515D01*
X0237687Y0227474D01*
X0237733Y0227429D01*
X0237778Y0227383D01*
X0237819Y0227333D01*
X0237857Y0227281D01*
X0237892Y0227227D01*
X0237924Y0227171D01*
X0237952Y0227113D01*
X0237977Y0227053D01*
X0237998Y0226992D01*
X0238015Y0226930D01*
X0238029Y0226867D01*
X0238038Y0226804D01*
X0238044Y0226739D01*
X0238046Y0226675D01*
X0238046Y0224542D01*
X0238044Y0224478D01*
X0238038Y0224413D01*
X0238029Y0224350D01*
X0238015Y0224287D01*
X0237998Y0224225D01*
X0237977Y0224164D01*
X0237952Y0224104D01*
X0237924Y0224046D01*
X0237892Y0223990D01*
X0237857Y0223936D01*
X0237819Y0223884D01*
X0237778Y0223834D01*
X0237733Y0223788D01*
X0237687Y0223743D01*
X0237637Y0223702D01*
X0237585Y0223664D01*
X0237531Y0223629D01*
X0237475Y0223597D01*
X0237417Y0223569D01*
X0237357Y0223544D01*
X0237296Y0223523D01*
X0237234Y0223506D01*
X0237171Y0223492D01*
X0237108Y0223483D01*
X0237043Y0223477D01*
X0236979Y0223475D01*
X0235201Y0223475D01*
X0240535Y0223475D02*
X0242669Y0229875D01*
X0244802Y0223475D01*
X0244269Y0225075D02*
X0241069Y0225075D01*
X0225914Y0228808D02*
X0225912Y0228872D01*
X0225906Y0228937D01*
X0225897Y0229000D01*
X0225883Y0229063D01*
X0225866Y0229125D01*
X0225845Y0229186D01*
X0225820Y0229246D01*
X0225792Y0229304D01*
X0225760Y0229360D01*
X0225725Y0229414D01*
X0225687Y0229466D01*
X0225646Y0229516D01*
X0225601Y0229562D01*
X0225555Y0229607D01*
X0225505Y0229648D01*
X0225453Y0229686D01*
X0225399Y0229721D01*
X0225343Y0229753D01*
X0225285Y0229781D01*
X0225225Y0229806D01*
X0225164Y0229827D01*
X0225102Y0229844D01*
X0225039Y0229858D01*
X0224976Y0229867D01*
X0224911Y0229873D01*
X0224847Y0229875D01*
X0224491Y0229875D01*
X0164913Y0232592D02*
X0164913Y0238992D01*
X0163135Y0238992D01*
X0163071Y0238990D01*
X0163006Y0238984D01*
X0162943Y0238975D01*
X0162880Y0238961D01*
X0162818Y0238944D01*
X0162757Y0238923D01*
X0162697Y0238898D01*
X0162639Y0238870D01*
X0162583Y0238838D01*
X0162529Y0238803D01*
X0162477Y0238765D01*
X0162427Y0238724D01*
X0162381Y0238679D01*
X0162336Y0238633D01*
X0162295Y0238583D01*
X0162257Y0238531D01*
X0162222Y0238477D01*
X0162190Y0238421D01*
X0162162Y0238363D01*
X0162137Y0238303D01*
X0162116Y0238242D01*
X0162099Y0238180D01*
X0162085Y0238117D01*
X0162076Y0238054D01*
X0162070Y0237989D01*
X0162068Y0237925D01*
X0162069Y0237925D02*
X0162069Y0235792D01*
X0162068Y0235792D02*
X0162070Y0235728D01*
X0162076Y0235663D01*
X0162085Y0235600D01*
X0162099Y0235537D01*
X0162116Y0235475D01*
X0162137Y0235414D01*
X0162162Y0235354D01*
X0162190Y0235296D01*
X0162222Y0235240D01*
X0162257Y0235186D01*
X0162295Y0235134D01*
X0162336Y0235084D01*
X0162381Y0235038D01*
X0162427Y0234993D01*
X0162477Y0234952D01*
X0162529Y0234914D01*
X0162583Y0234879D01*
X0162639Y0234847D01*
X0162697Y0234819D01*
X0162757Y0234794D01*
X0162818Y0234773D01*
X0162880Y0234756D01*
X0162943Y0234742D01*
X0163006Y0234733D01*
X0163071Y0234727D01*
X0163135Y0234725D01*
X0164913Y0234725D01*
D88*
X0014800Y0188800D02*
X0014800Y0183800D01*
D89*
X0146295Y0148472D02*
X0147351Y0148472D01*
X0146929Y0149950D01*
X0146612Y0148894D02*
X0146612Y0148050D01*
X0148853Y0148894D02*
X0149381Y0148894D01*
X0148853Y0148894D02*
X0148808Y0148896D01*
X0148764Y0148902D01*
X0148720Y0148911D01*
X0148677Y0148924D01*
X0148636Y0148941D01*
X0148595Y0148961D01*
X0148557Y0148985D01*
X0148521Y0149011D01*
X0148488Y0149041D01*
X0148457Y0149073D01*
X0148428Y0149108D01*
X0148403Y0149145D01*
X0148382Y0149184D01*
X0148363Y0149225D01*
X0148348Y0149267D01*
X0148337Y0149311D01*
X0148329Y0149355D01*
X0148325Y0149400D01*
X0148325Y0149444D01*
X0148329Y0149489D01*
X0148337Y0149533D01*
X0148348Y0149577D01*
X0148363Y0149619D01*
X0148382Y0149660D01*
X0148403Y0149699D01*
X0148428Y0149736D01*
X0148457Y0149771D01*
X0148488Y0149803D01*
X0148521Y0149833D01*
X0148557Y0149859D01*
X0148595Y0149883D01*
X0148636Y0149903D01*
X0148677Y0149920D01*
X0148720Y0149933D01*
X0148764Y0149942D01*
X0148808Y0149948D01*
X0148853Y0149950D01*
X0149381Y0149950D01*
X0149381Y0148050D01*
X0150671Y0148472D02*
X0150671Y0149950D01*
X0150672Y0148472D02*
X0150674Y0148433D01*
X0150679Y0148394D01*
X0150688Y0148357D01*
X0150700Y0148320D01*
X0150716Y0148284D01*
X0150735Y0148250D01*
X0150757Y0148218D01*
X0150782Y0148188D01*
X0150810Y0148160D01*
X0150840Y0148135D01*
X0150872Y0148113D01*
X0150906Y0148094D01*
X0150942Y0148078D01*
X0150979Y0148066D01*
X0151016Y0148057D01*
X0151055Y0148052D01*
X0151094Y0148050D01*
X0151305Y0148050D01*
X0161717Y0149106D02*
X0162140Y0149106D01*
X0161717Y0149106D02*
X0161677Y0149108D01*
X0161637Y0149114D01*
X0161598Y0149123D01*
X0161560Y0149136D01*
X0161524Y0149153D01*
X0161489Y0149173D01*
X0161456Y0149196D01*
X0161426Y0149223D01*
X0161398Y0149252D01*
X0161373Y0149283D01*
X0161352Y0149317D01*
X0161333Y0149353D01*
X0161318Y0149390D01*
X0161307Y0149429D01*
X0161299Y0149468D01*
X0161295Y0149508D01*
X0161295Y0149548D01*
X0161299Y0149588D01*
X0161307Y0149627D01*
X0161318Y0149666D01*
X0161333Y0149703D01*
X0161352Y0149739D01*
X0161373Y0149773D01*
X0161398Y0149804D01*
X0161426Y0149833D01*
X0161456Y0149860D01*
X0161489Y0149883D01*
X0161524Y0149903D01*
X0161560Y0149920D01*
X0161598Y0149933D01*
X0161637Y0149942D01*
X0161677Y0149948D01*
X0161717Y0149950D01*
X0162351Y0149950D01*
X0161823Y0149106D02*
X0161778Y0149104D01*
X0161734Y0149098D01*
X0161690Y0149089D01*
X0161647Y0149076D01*
X0161606Y0149059D01*
X0161565Y0149039D01*
X0161527Y0149015D01*
X0161491Y0148989D01*
X0161458Y0148959D01*
X0161427Y0148927D01*
X0161398Y0148892D01*
X0161373Y0148855D01*
X0161352Y0148816D01*
X0161333Y0148775D01*
X0161318Y0148733D01*
X0161307Y0148689D01*
X0161299Y0148645D01*
X0161295Y0148600D01*
X0161295Y0148556D01*
X0161299Y0148511D01*
X0161307Y0148467D01*
X0161318Y0148423D01*
X0161333Y0148381D01*
X0161352Y0148340D01*
X0161373Y0148301D01*
X0161398Y0148264D01*
X0161427Y0148229D01*
X0161458Y0148197D01*
X0161491Y0148167D01*
X0161527Y0148141D01*
X0161565Y0148117D01*
X0161606Y0148097D01*
X0161647Y0148080D01*
X0161690Y0148067D01*
X0161734Y0148058D01*
X0161778Y0148052D01*
X0161823Y0148050D01*
X0162351Y0148050D01*
X0163853Y0148894D02*
X0164381Y0148894D01*
X0163853Y0148894D02*
X0163808Y0148896D01*
X0163764Y0148902D01*
X0163720Y0148911D01*
X0163677Y0148924D01*
X0163636Y0148941D01*
X0163595Y0148961D01*
X0163557Y0148985D01*
X0163521Y0149011D01*
X0163488Y0149041D01*
X0163457Y0149073D01*
X0163428Y0149108D01*
X0163403Y0149145D01*
X0163382Y0149184D01*
X0163363Y0149225D01*
X0163348Y0149267D01*
X0163337Y0149311D01*
X0163329Y0149355D01*
X0163325Y0149400D01*
X0163325Y0149444D01*
X0163329Y0149489D01*
X0163337Y0149533D01*
X0163348Y0149577D01*
X0163363Y0149619D01*
X0163382Y0149660D01*
X0163403Y0149699D01*
X0163428Y0149736D01*
X0163457Y0149771D01*
X0163488Y0149803D01*
X0163521Y0149833D01*
X0163557Y0149859D01*
X0163595Y0149883D01*
X0163636Y0149903D01*
X0163677Y0149920D01*
X0163720Y0149933D01*
X0163764Y0149942D01*
X0163808Y0149948D01*
X0163853Y0149950D01*
X0164381Y0149950D01*
X0164381Y0148050D01*
X0165671Y0148472D02*
X0165671Y0149950D01*
X0165672Y0148472D02*
X0165674Y0148433D01*
X0165679Y0148394D01*
X0165688Y0148357D01*
X0165700Y0148320D01*
X0165716Y0148284D01*
X0165735Y0148250D01*
X0165757Y0148218D01*
X0165782Y0148188D01*
X0165810Y0148160D01*
X0165840Y0148135D01*
X0165872Y0148113D01*
X0165906Y0148094D01*
X0165942Y0148078D01*
X0165979Y0148066D01*
X0166016Y0148057D01*
X0166055Y0148052D01*
X0166094Y0148050D01*
X0166305Y0148050D01*
X0176295Y0148050D02*
X0177351Y0148050D01*
X0176454Y0149106D01*
X0176770Y0149950D02*
X0176818Y0149948D01*
X0176865Y0149942D01*
X0176913Y0149933D01*
X0176959Y0149920D01*
X0177004Y0149903D01*
X0177047Y0149883D01*
X0177089Y0149860D01*
X0177129Y0149833D01*
X0177166Y0149804D01*
X0177202Y0149771D01*
X0177234Y0149736D01*
X0177264Y0149698D01*
X0177290Y0149658D01*
X0177314Y0149616D01*
X0177334Y0149573D01*
X0177350Y0149528D01*
X0176453Y0149106D02*
X0176425Y0149135D01*
X0176398Y0149167D01*
X0176375Y0149201D01*
X0176354Y0149237D01*
X0176336Y0149274D01*
X0176322Y0149313D01*
X0176310Y0149352D01*
X0176302Y0149393D01*
X0176297Y0149434D01*
X0176295Y0149475D01*
X0176297Y0149516D01*
X0176302Y0149557D01*
X0176311Y0149598D01*
X0176324Y0149637D01*
X0176340Y0149676D01*
X0176359Y0149712D01*
X0176381Y0149747D01*
X0176406Y0149780D01*
X0176434Y0149811D01*
X0176465Y0149839D01*
X0176498Y0149864D01*
X0176532Y0149886D01*
X0176569Y0149905D01*
X0176608Y0149921D01*
X0176647Y0149934D01*
X0176688Y0149943D01*
X0176729Y0149948D01*
X0176770Y0149950D01*
X0178853Y0149950D02*
X0179381Y0149950D01*
X0179381Y0148050D01*
X0179381Y0148894D02*
X0178853Y0148894D01*
X0178808Y0148896D01*
X0178764Y0148902D01*
X0178720Y0148911D01*
X0178677Y0148924D01*
X0178636Y0148941D01*
X0178595Y0148961D01*
X0178557Y0148985D01*
X0178521Y0149011D01*
X0178488Y0149041D01*
X0178457Y0149073D01*
X0178428Y0149108D01*
X0178403Y0149145D01*
X0178382Y0149184D01*
X0178363Y0149225D01*
X0178348Y0149267D01*
X0178337Y0149311D01*
X0178329Y0149355D01*
X0178325Y0149400D01*
X0178325Y0149444D01*
X0178329Y0149489D01*
X0178337Y0149533D01*
X0178348Y0149577D01*
X0178363Y0149619D01*
X0178382Y0149660D01*
X0178403Y0149699D01*
X0178428Y0149736D01*
X0178457Y0149771D01*
X0178488Y0149803D01*
X0178521Y0149833D01*
X0178557Y0149859D01*
X0178595Y0149883D01*
X0178636Y0149903D01*
X0178677Y0149920D01*
X0178720Y0149933D01*
X0178764Y0149942D01*
X0178808Y0149948D01*
X0178853Y0149950D01*
X0180671Y0149950D02*
X0180671Y0148472D01*
X0180672Y0148472D02*
X0180674Y0148433D01*
X0180679Y0148394D01*
X0180688Y0148357D01*
X0180700Y0148320D01*
X0180716Y0148284D01*
X0180735Y0148250D01*
X0180757Y0148218D01*
X0180782Y0148188D01*
X0180810Y0148160D01*
X0180840Y0148135D01*
X0180872Y0148113D01*
X0180906Y0148094D01*
X0180942Y0148078D01*
X0180979Y0148066D01*
X0181016Y0148057D01*
X0181055Y0148052D01*
X0181094Y0148050D01*
X0181305Y0148050D01*
X0191295Y0148050D02*
X0192351Y0148050D01*
X0191823Y0148050D02*
X0191823Y0149950D01*
X0192351Y0149528D01*
X0193853Y0149950D02*
X0193808Y0149948D01*
X0193764Y0149942D01*
X0193720Y0149933D01*
X0193677Y0149920D01*
X0193636Y0149903D01*
X0193595Y0149883D01*
X0193557Y0149859D01*
X0193521Y0149833D01*
X0193488Y0149803D01*
X0193457Y0149771D01*
X0193428Y0149736D01*
X0193403Y0149699D01*
X0193382Y0149660D01*
X0193363Y0149619D01*
X0193348Y0149577D01*
X0193337Y0149533D01*
X0193329Y0149489D01*
X0193325Y0149444D01*
X0193325Y0149400D01*
X0193329Y0149355D01*
X0193337Y0149311D01*
X0193348Y0149267D01*
X0193363Y0149225D01*
X0193382Y0149184D01*
X0193403Y0149145D01*
X0193428Y0149108D01*
X0193457Y0149073D01*
X0193488Y0149041D01*
X0193521Y0149011D01*
X0193557Y0148985D01*
X0193595Y0148961D01*
X0193636Y0148941D01*
X0193677Y0148924D01*
X0193720Y0148911D01*
X0193764Y0148902D01*
X0193808Y0148896D01*
X0193853Y0148894D01*
X0194381Y0148894D01*
X0194381Y0148050D02*
X0194381Y0149950D01*
X0193853Y0149950D01*
X0195671Y0149950D02*
X0195671Y0148472D01*
X0195672Y0148472D02*
X0195674Y0148433D01*
X0195679Y0148394D01*
X0195688Y0148357D01*
X0195700Y0148320D01*
X0195716Y0148284D01*
X0195735Y0148250D01*
X0195757Y0148218D01*
X0195782Y0148188D01*
X0195810Y0148160D01*
X0195840Y0148135D01*
X0195872Y0148113D01*
X0195906Y0148094D01*
X0195942Y0148078D01*
X0195979Y0148066D01*
X0196016Y0148057D01*
X0196055Y0148052D01*
X0196094Y0148050D01*
X0196305Y0148050D01*
M02*
