%
M48
M72
T01C0.02756
T02C0.04000
T03C0.11811
%
T01
X123800Y37300
X156300Y37300
X137800Y136300
X137800Y166300
X137800Y176300
X175300Y166300
X190300Y176300
X201800Y136300
X12125Y151300
X12300Y205800
T02
X21300Y186300
X21300Y176300
X21300Y166300
X21300Y156300
X21300Y146300
X21300Y136300
X21300Y126300
X21300Y116300
X21300Y106300
X21300Y96300
X31300Y96300
X31300Y106300
X31300Y116300
X31300Y126300
X31300Y136300
X31300Y146300
X31300Y156300
X31300Y166300
X31300Y176300
X31300Y186300
X53800Y316300
X63800Y316300
X73800Y316300
X83800Y316300
X93800Y316300
X103800Y316300
X113800Y316300
X123800Y316300
X133800Y316300
X143800Y316300
X153800Y316300
X163800Y316300
X173800Y316300
X183800Y316300
X193800Y316300
X203800Y316300
X213800Y316300
X223800Y316300
X233800Y316300
X243800Y316300
X243800Y16300
X233800Y16300
X223800Y16300
X213800Y16300
X203800Y16300
X193800Y16300
X183800Y16300
X173800Y16300
X163800Y16300
X153800Y16300
X143800Y16300
X133800Y16300
X123800Y16300
X113800Y16300
X103800Y16300
X93800Y16300
X83800Y16300
X73800Y16300
X63800Y16300
X53800Y16300
T03
X36300Y16300
X261300Y16300
X261300Y316300
X36300Y316300
M30
