%
M48
M72
T01C0.04000
T02C0.11811
%
T01
X31300Y66300
X41300Y66300
X51300Y66300
X61300Y66300
X71300Y66300
X81300Y66300
X91300Y66300
X101300Y66300
X111300Y66300
X121300Y66300
X131300Y66300
X141300Y66300
X151300Y66300
X161300Y66300
X171300Y66300
X181300Y66300
X191300Y66300
X201300Y66300
X211300Y66300
X221300Y66300
X171300Y36300
X171300Y26300
X161300Y26300
X161300Y36300
X151300Y36300
X151300Y26300
X141300Y26300
X141300Y36300
X131300Y36300
X131300Y26300
X121300Y26300
X121300Y36300
X111300Y36300
X111300Y26300
X101300Y26300
X101300Y36300
X91300Y36300
X91300Y26300
X81300Y26300
X81300Y36300
X81300Y366300
X71300Y366300
X61300Y366300
X51300Y366300
X41300Y366300
X31300Y366300
X91300Y366300
X101300Y366300
X111300Y366300
X121300Y366300
X131300Y366300
X141300Y366300
X151300Y366300
X161300Y366300
X171300Y366300
X181300Y366300
X191300Y366300
X201300Y366300
X211300Y366300
X221300Y366300
T02
X11300Y11300
X241300Y11300
X241300Y371300
X11300Y371300
M30
