G04 EAGLE Gerber RS-274X export*
G75*
%MOMM*%
%FSLAX34Y34*%
%LPD*%
%INTop Copper*%
%IPPOS*%
%AMOC8*
5,1,8,0,0,1.08239X$1,22.5*%
G01*
%ADD10C,0.609600*%
%ADD11C,1.879600*%
%ADD12R,3.000000X1.400000*%
%ADD13R,1.200000X0.800000*%
%ADD14C,1.651000*%
%ADD15R,1.651000X1.651000*%
%ADD16C,2.032000*%
%ADD17R,1.219200X2.235200*%
%ADD18R,3.600000X2.200000*%
%ADD19C,1.056400*%
%ADD20C,0.600000*%
%ADD21C,0.482600*%

G36*
X211966Y39131D02*
X211966Y39131D01*
X212057Y39139D01*
X212087Y39151D01*
X212119Y39156D01*
X212199Y39199D01*
X212283Y39235D01*
X212315Y39261D01*
X212336Y39272D01*
X212358Y39295D01*
X212414Y39340D01*
X245140Y72066D01*
X245185Y72128D01*
X245211Y72156D01*
X245216Y72167D01*
X245253Y72209D01*
X245265Y72239D01*
X245284Y72266D01*
X245311Y72353D01*
X245345Y72437D01*
X245349Y72478D01*
X245356Y72501D01*
X245355Y72533D01*
X245363Y72604D01*
X245363Y351443D01*
X245352Y351514D01*
X245350Y351586D01*
X245332Y351635D01*
X245324Y351686D01*
X245290Y351749D01*
X245265Y351817D01*
X245233Y351857D01*
X245208Y351904D01*
X245156Y351953D01*
X245112Y352009D01*
X245068Y352037D01*
X245030Y352073D01*
X244965Y352103D01*
X244905Y352142D01*
X244854Y352155D01*
X244807Y352177D01*
X244736Y352184D01*
X244666Y352202D01*
X244614Y352198D01*
X244563Y352204D01*
X244492Y352188D01*
X244421Y352183D01*
X244373Y352162D01*
X244322Y352151D01*
X244261Y352115D01*
X244195Y352086D01*
X244139Y352042D01*
X244111Y352025D01*
X244096Y352007D01*
X244064Y351982D01*
X242514Y350431D01*
X240174Y349462D01*
X240074Y349400D01*
X239974Y349341D01*
X239970Y349336D01*
X239965Y349333D01*
X239890Y349242D01*
X239814Y349154D01*
X239812Y349148D01*
X239808Y349143D01*
X239766Y349035D01*
X239722Y348926D01*
X239721Y348918D01*
X239720Y348914D01*
X239719Y348895D01*
X239704Y348759D01*
X239704Y346082D01*
X238835Y345214D01*
X238823Y345197D01*
X238808Y345185D01*
X238752Y345098D01*
X238692Y345014D01*
X238686Y344995D01*
X238675Y344978D01*
X238650Y344877D01*
X238619Y344779D01*
X238620Y344759D01*
X238615Y344739D01*
X238623Y344636D01*
X238626Y344533D01*
X238632Y344514D01*
X238634Y344494D01*
X238674Y344399D01*
X238710Y344302D01*
X238723Y344286D01*
X238730Y344268D01*
X238835Y344137D01*
X240429Y342544D01*
X241357Y340303D01*
X241357Y208347D01*
X240429Y206106D01*
X219654Y185331D01*
X217413Y184403D01*
X153727Y184403D01*
X151486Y185331D01*
X143167Y193650D01*
X142239Y195891D01*
X142239Y206502D01*
X142236Y206522D01*
X142238Y206541D01*
X142216Y206643D01*
X142200Y206745D01*
X142190Y206762D01*
X142186Y206782D01*
X142133Y206871D01*
X142084Y206962D01*
X142070Y206976D01*
X142060Y206993D01*
X141981Y207060D01*
X141906Y207132D01*
X141888Y207140D01*
X141873Y207153D01*
X141777Y207192D01*
X141683Y207235D01*
X141663Y207237D01*
X141645Y207245D01*
X141478Y207263D01*
X140977Y207263D01*
X139191Y209049D01*
X139191Y233927D01*
X140977Y235713D01*
X155695Y235713D01*
X157481Y233927D01*
X157481Y209049D01*
X155695Y207263D01*
X155194Y207263D01*
X155174Y207260D01*
X155155Y207262D01*
X155053Y207240D01*
X154951Y207224D01*
X154934Y207214D01*
X154914Y207210D01*
X154825Y207157D01*
X154734Y207108D01*
X154720Y207094D01*
X154703Y207084D01*
X154636Y207005D01*
X154564Y206930D01*
X154556Y206912D01*
X154543Y206897D01*
X154504Y206801D01*
X154461Y206707D01*
X154459Y206687D01*
X154451Y206669D01*
X154433Y206502D01*
X154433Y199945D01*
X154447Y199855D01*
X154455Y199764D01*
X154467Y199734D01*
X154472Y199702D01*
X154515Y199621D01*
X154551Y199537D01*
X154577Y199505D01*
X154588Y199485D01*
X154611Y199462D01*
X154656Y199406D01*
X157242Y196820D01*
X157316Y196767D01*
X157386Y196707D01*
X157416Y196695D01*
X157442Y196676D01*
X157529Y196649D01*
X157614Y196615D01*
X157655Y196611D01*
X157677Y196604D01*
X157709Y196605D01*
X157781Y196597D01*
X213359Y196597D01*
X213449Y196611D01*
X213540Y196619D01*
X213570Y196631D01*
X213602Y196636D01*
X213683Y196679D01*
X213767Y196715D01*
X213799Y196741D01*
X213819Y196752D01*
X213842Y196775D01*
X213898Y196820D01*
X228940Y211862D01*
X228993Y211936D01*
X229053Y212006D01*
X229065Y212036D01*
X229084Y212062D01*
X229111Y212149D01*
X229145Y212234D01*
X229149Y212275D01*
X229156Y212297D01*
X229155Y212329D01*
X229163Y212401D01*
X229163Y336249D01*
X229149Y336339D01*
X229141Y336430D01*
X229129Y336460D01*
X229124Y336492D01*
X229081Y336573D01*
X229045Y336657D01*
X229019Y336689D01*
X229008Y336709D01*
X228985Y336732D01*
X228940Y336788D01*
X223231Y342496D01*
X222681Y343826D01*
X222619Y343926D01*
X222559Y344026D01*
X222554Y344030D01*
X222551Y344035D01*
X222461Y344110D01*
X222372Y344186D01*
X222366Y344188D01*
X222362Y344192D01*
X222253Y344234D01*
X222144Y344278D01*
X222136Y344279D01*
X222132Y344280D01*
X222114Y344281D01*
X221977Y344296D01*
X218882Y344296D01*
X217096Y346082D01*
X217096Y365118D01*
X218882Y366904D01*
X237918Y366904D01*
X239291Y365530D01*
X239308Y365518D01*
X239320Y365503D01*
X239407Y365447D01*
X239491Y365387D01*
X239510Y365381D01*
X239527Y365370D01*
X239628Y365345D01*
X239726Y365314D01*
X239746Y365315D01*
X239766Y365310D01*
X239869Y365318D01*
X239972Y365321D01*
X239991Y365327D01*
X240011Y365329D01*
X240106Y365369D01*
X240203Y365405D01*
X240219Y365418D01*
X240237Y365425D01*
X240368Y365530D01*
X255300Y380462D01*
X255353Y380536D01*
X255413Y380606D01*
X255425Y380636D01*
X255444Y380662D01*
X255471Y380749D01*
X255505Y380834D01*
X255509Y380875D01*
X255516Y380897D01*
X255515Y380929D01*
X255523Y381001D01*
X255523Y420990D01*
X255520Y421010D01*
X255522Y421029D01*
X255500Y421131D01*
X255484Y421233D01*
X255474Y421250D01*
X255470Y421270D01*
X255417Y421359D01*
X255368Y421450D01*
X255354Y421464D01*
X255344Y421481D01*
X255265Y421548D01*
X255190Y421620D01*
X255172Y421628D01*
X255157Y421641D01*
X255061Y421680D01*
X254967Y421723D01*
X254947Y421725D01*
X254929Y421733D01*
X254762Y421751D01*
X223637Y421751D01*
X221851Y423537D01*
X221851Y440063D01*
X223637Y441849D01*
X254762Y441849D01*
X254782Y441852D01*
X254801Y441850D01*
X254903Y441872D01*
X255005Y441888D01*
X255022Y441898D01*
X255042Y441902D01*
X255131Y441955D01*
X255222Y442004D01*
X255236Y442018D01*
X255253Y442028D01*
X255320Y442107D01*
X255392Y442182D01*
X255400Y442200D01*
X255413Y442215D01*
X255452Y442311D01*
X255495Y442405D01*
X255497Y442425D01*
X255505Y442443D01*
X255523Y442610D01*
X255523Y466033D01*
X256451Y468274D01*
X258273Y470096D01*
X258274Y470096D01*
X266989Y478811D01*
X267057Y478906D01*
X267127Y478999D01*
X267129Y479005D01*
X267132Y479010D01*
X267167Y479122D01*
X267203Y479233D01*
X267203Y479240D01*
X267205Y479246D01*
X267202Y479362D01*
X267200Y479479D01*
X267198Y479486D01*
X267198Y479491D01*
X267192Y479509D01*
X267154Y479640D01*
X267006Y479997D01*
X266982Y480036D01*
X266966Y480079D01*
X266917Y480140D01*
X266876Y480206D01*
X266841Y480236D01*
X266812Y480271D01*
X266747Y480314D01*
X266687Y480363D01*
X266644Y480380D01*
X266605Y480404D01*
X266530Y480423D01*
X266457Y480451D01*
X266411Y480453D01*
X266367Y480464D01*
X266289Y480458D01*
X266211Y480462D01*
X266167Y480449D01*
X266122Y480445D01*
X266050Y480415D01*
X265975Y480393D01*
X265937Y480367D01*
X265895Y480349D01*
X265788Y480263D01*
X265773Y480253D01*
X265770Y480249D01*
X265764Y480244D01*
X233287Y447767D01*
X233248Y447713D01*
X233202Y447667D01*
X233162Y447593D01*
X233143Y447567D01*
X233137Y447548D01*
X233122Y447520D01*
X232545Y446126D01*
X230830Y444411D01*
X228589Y443483D01*
X162155Y443483D01*
X162065Y443469D01*
X161974Y443461D01*
X161944Y443449D01*
X161912Y443444D01*
X161831Y443401D01*
X161748Y443365D01*
X161715Y443339D01*
X161695Y443328D01*
X161673Y443305D01*
X161617Y443260D01*
X39340Y320983D01*
X39287Y320909D01*
X39227Y320840D01*
X39215Y320810D01*
X39196Y320784D01*
X39169Y320697D01*
X39135Y320612D01*
X39131Y320571D01*
X39124Y320549D01*
X39125Y320516D01*
X39117Y320445D01*
X39117Y312557D01*
X39128Y312486D01*
X39130Y312414D01*
X39148Y312365D01*
X39156Y312314D01*
X39190Y312251D01*
X39215Y312183D01*
X39247Y312143D01*
X39272Y312097D01*
X39324Y312047D01*
X39368Y311991D01*
X39412Y311963D01*
X39450Y311927D01*
X39515Y311897D01*
X39575Y311858D01*
X39626Y311846D01*
X39673Y311824D01*
X39744Y311816D01*
X39814Y311798D01*
X39866Y311802D01*
X39917Y311797D01*
X39988Y311812D01*
X40059Y311817D01*
X40107Y311838D01*
X40158Y311849D01*
X40219Y311886D01*
X40285Y311914D01*
X40341Y311959D01*
X40369Y311975D01*
X40384Y311993D01*
X40416Y312019D01*
X41209Y312812D01*
X41693Y313012D01*
X41792Y313074D01*
X41893Y313134D01*
X41897Y313139D01*
X41902Y313142D01*
X41977Y313232D01*
X42053Y313321D01*
X42055Y313327D01*
X42059Y313331D01*
X42101Y313440D01*
X42145Y313549D01*
X42146Y313556D01*
X42147Y313561D01*
X42148Y313579D01*
X42163Y313716D01*
X42163Y318413D01*
X43091Y320654D01*
X65436Y342999D01*
X67677Y343927D01*
X95980Y343927D01*
X96094Y343946D01*
X96211Y343963D01*
X96216Y343965D01*
X96222Y343966D01*
X96325Y344021D01*
X96430Y344074D01*
X96434Y344079D01*
X96440Y344082D01*
X96520Y344166D01*
X96602Y344250D01*
X96606Y344256D01*
X96609Y344260D01*
X96617Y344277D01*
X96683Y344397D01*
X97062Y345312D01*
X100778Y349028D01*
X105633Y351039D01*
X110887Y351039D01*
X115742Y349028D01*
X119458Y345312D01*
X119837Y344397D01*
X119899Y344297D01*
X119959Y344197D01*
X119963Y344193D01*
X119967Y344188D01*
X120056Y344113D01*
X120145Y344037D01*
X120151Y344035D01*
X120156Y344031D01*
X120264Y343989D01*
X120374Y343945D01*
X120381Y343944D01*
X120386Y343943D01*
X120404Y343942D01*
X120540Y343927D01*
X152099Y343927D01*
X152189Y343941D01*
X152280Y343949D01*
X152310Y343961D01*
X152342Y343966D01*
X152423Y344009D01*
X152507Y344045D01*
X152539Y344071D01*
X152559Y344082D01*
X152582Y344105D01*
X152638Y344150D01*
X165130Y356642D01*
X165183Y356716D01*
X165243Y356786D01*
X165255Y356816D01*
X165274Y356842D01*
X165301Y356929D01*
X165335Y357014D01*
X165339Y357055D01*
X165346Y357077D01*
X165345Y357109D01*
X165353Y357181D01*
X165353Y413100D01*
X165339Y413190D01*
X165331Y413281D01*
X165319Y413311D01*
X165314Y413343D01*
X165271Y413423D01*
X165235Y413507D01*
X165209Y413539D01*
X165198Y413560D01*
X165175Y413582D01*
X165130Y413638D01*
X164388Y414381D01*
X163119Y417443D01*
X163119Y420757D01*
X164388Y423819D01*
X166731Y426162D01*
X169793Y427431D01*
X173107Y427431D01*
X176169Y426162D01*
X178512Y423819D01*
X179781Y420757D01*
X179781Y417443D01*
X178512Y414381D01*
X177770Y413638D01*
X177717Y413564D01*
X177657Y413495D01*
X177645Y413465D01*
X177626Y413438D01*
X177599Y413352D01*
X177565Y413267D01*
X177561Y413226D01*
X177554Y413203D01*
X177555Y413171D01*
X177547Y413100D01*
X177547Y353127D01*
X176619Y350886D01*
X158394Y332661D01*
X156153Y331733D01*
X149098Y331733D01*
X149078Y331730D01*
X149059Y331732D01*
X148957Y331710D01*
X148855Y331694D01*
X148838Y331684D01*
X148818Y331680D01*
X148729Y331627D01*
X148638Y331578D01*
X148624Y331564D01*
X148607Y331554D01*
X148540Y331475D01*
X148468Y331400D01*
X148460Y331382D01*
X148447Y331367D01*
X148408Y331271D01*
X148365Y331177D01*
X148363Y331157D01*
X148355Y331139D01*
X148337Y330972D01*
X148337Y258318D01*
X148339Y258303D01*
X148338Y258290D01*
X148339Y258286D01*
X148338Y258279D01*
X148360Y258177D01*
X148376Y258075D01*
X148386Y258058D01*
X148390Y258038D01*
X148443Y257949D01*
X148492Y257858D01*
X148506Y257844D01*
X148516Y257827D01*
X148595Y257760D01*
X148670Y257688D01*
X148688Y257680D01*
X148703Y257667D01*
X148799Y257628D01*
X148893Y257585D01*
X148913Y257583D01*
X148931Y257575D01*
X149098Y257557D01*
X161233Y257557D01*
X163474Y256629D01*
X176619Y243484D01*
X177547Y241243D01*
X177547Y236474D01*
X177550Y236454D01*
X177548Y236435D01*
X177570Y236333D01*
X177586Y236231D01*
X177596Y236214D01*
X177600Y236194D01*
X177653Y236105D01*
X177702Y236014D01*
X177716Y236000D01*
X177726Y235983D01*
X177805Y235916D01*
X177880Y235844D01*
X177898Y235836D01*
X177913Y235823D01*
X178009Y235784D01*
X178103Y235741D01*
X178123Y235739D01*
X178141Y235731D01*
X178308Y235713D01*
X178809Y235713D01*
X180595Y233927D01*
X180595Y209049D01*
X178809Y207263D01*
X164091Y207263D01*
X162305Y209049D01*
X162305Y233927D01*
X164091Y235713D01*
X164592Y235713D01*
X164612Y235716D01*
X164631Y235714D01*
X164733Y235736D01*
X164835Y235752D01*
X164852Y235762D01*
X164872Y235766D01*
X164961Y235819D01*
X165052Y235868D01*
X165066Y235882D01*
X165083Y235892D01*
X165150Y235971D01*
X165222Y236046D01*
X165230Y236064D01*
X165243Y236079D01*
X165282Y236175D01*
X165325Y236269D01*
X165327Y236289D01*
X165335Y236307D01*
X165353Y236474D01*
X165353Y237189D01*
X165339Y237279D01*
X165331Y237370D01*
X165319Y237400D01*
X165314Y237432D01*
X165271Y237513D01*
X165235Y237597D01*
X165209Y237629D01*
X165198Y237649D01*
X165175Y237672D01*
X165130Y237728D01*
X157718Y245140D01*
X157644Y245193D01*
X157574Y245253D01*
X157544Y245265D01*
X157518Y245284D01*
X157431Y245311D01*
X157346Y245345D01*
X157305Y245349D01*
X157283Y245356D01*
X157251Y245355D01*
X157179Y245363D01*
X134921Y245363D01*
X134831Y245349D01*
X134740Y245341D01*
X134710Y245329D01*
X134678Y245324D01*
X134597Y245281D01*
X134513Y245245D01*
X134481Y245219D01*
X134461Y245208D01*
X134438Y245185D01*
X134382Y245140D01*
X125700Y236458D01*
X125647Y236384D01*
X125587Y236314D01*
X125575Y236284D01*
X125556Y236258D01*
X125529Y236171D01*
X125495Y236086D01*
X125491Y236045D01*
X125484Y236023D01*
X125485Y235991D01*
X125477Y235919D01*
X125477Y183181D01*
X125491Y183091D01*
X125499Y183000D01*
X125511Y182970D01*
X125516Y182938D01*
X125559Y182857D01*
X125595Y182773D01*
X125621Y182741D01*
X125632Y182721D01*
X125655Y182698D01*
X125700Y182642D01*
X142512Y165830D01*
X142586Y165777D01*
X142656Y165717D01*
X142686Y165705D01*
X142712Y165686D01*
X142799Y165659D01*
X142884Y165625D01*
X142925Y165621D01*
X142947Y165614D01*
X142979Y165615D01*
X143051Y165607D01*
X149640Y165607D01*
X149660Y165610D01*
X149679Y165608D01*
X149781Y165630D01*
X149883Y165646D01*
X149900Y165656D01*
X149920Y165660D01*
X150009Y165713D01*
X150100Y165762D01*
X150114Y165776D01*
X150131Y165786D01*
X150198Y165865D01*
X150270Y165940D01*
X150278Y165958D01*
X150291Y165973D01*
X150330Y166069D01*
X150373Y166163D01*
X150375Y166183D01*
X150383Y166201D01*
X150401Y166368D01*
X150401Y171773D01*
X152187Y173559D01*
X190713Y173559D01*
X192499Y171773D01*
X192499Y147247D01*
X190713Y145461D01*
X152187Y145461D01*
X150401Y147247D01*
X150401Y152652D01*
X150398Y152672D01*
X150400Y152691D01*
X150378Y152793D01*
X150362Y152895D01*
X150352Y152912D01*
X150348Y152932D01*
X150295Y153021D01*
X150246Y153112D01*
X150232Y153126D01*
X150222Y153143D01*
X150143Y153210D01*
X150068Y153282D01*
X150050Y153290D01*
X150035Y153303D01*
X149939Y153342D01*
X149845Y153385D01*
X149825Y153387D01*
X149807Y153395D01*
X149640Y153413D01*
X138997Y153413D01*
X136756Y154341D01*
X114211Y176886D01*
X113283Y179127D01*
X113283Y239973D01*
X114211Y242214D01*
X128626Y256629D01*
X130867Y257557D01*
X135382Y257557D01*
X135402Y257560D01*
X135421Y257558D01*
X135523Y257580D01*
X135625Y257596D01*
X135642Y257606D01*
X135662Y257610D01*
X135751Y257663D01*
X135842Y257712D01*
X135856Y257726D01*
X135873Y257736D01*
X135940Y257815D01*
X136012Y257890D01*
X136020Y257908D01*
X136033Y257923D01*
X136072Y258019D01*
X136115Y258113D01*
X136117Y258133D01*
X136125Y258151D01*
X136143Y258318D01*
X136143Y330972D01*
X136140Y330992D01*
X136142Y331011D01*
X136120Y331113D01*
X136104Y331215D01*
X136094Y331232D01*
X136090Y331252D01*
X136037Y331341D01*
X135988Y331432D01*
X135974Y331446D01*
X135964Y331463D01*
X135885Y331530D01*
X135810Y331602D01*
X135792Y331610D01*
X135777Y331623D01*
X135681Y331662D01*
X135587Y331705D01*
X135567Y331707D01*
X135549Y331715D01*
X135382Y331733D01*
X120540Y331733D01*
X120426Y331714D01*
X120309Y331697D01*
X120304Y331695D01*
X120298Y331694D01*
X120195Y331639D01*
X120090Y331586D01*
X120086Y331581D01*
X120080Y331578D01*
X120000Y331494D01*
X119918Y331410D01*
X119914Y331404D01*
X119911Y331400D01*
X119903Y331383D01*
X119837Y331263D01*
X119458Y330348D01*
X115742Y326632D01*
X114827Y326253D01*
X114727Y326191D01*
X114627Y326131D01*
X114623Y326127D01*
X114618Y326123D01*
X114543Y326034D01*
X114467Y325945D01*
X114465Y325939D01*
X114461Y325934D01*
X114419Y325826D01*
X114375Y325716D01*
X114374Y325709D01*
X114373Y325704D01*
X114372Y325686D01*
X114357Y325550D01*
X114357Y315270D01*
X114360Y315250D01*
X114358Y315231D01*
X114380Y315129D01*
X114396Y315027D01*
X114406Y315010D01*
X114410Y314990D01*
X114463Y314901D01*
X114512Y314810D01*
X114526Y314796D01*
X114536Y314779D01*
X114615Y314712D01*
X114690Y314640D01*
X114708Y314632D01*
X114723Y314619D01*
X114819Y314580D01*
X114913Y314537D01*
X114933Y314535D01*
X114951Y314527D01*
X115118Y314509D01*
X115523Y314509D01*
X117309Y312723D01*
X117309Y302197D01*
X115523Y300411D01*
X100997Y300411D01*
X99211Y302197D01*
X99211Y312723D01*
X100997Y314509D01*
X101402Y314509D01*
X101422Y314512D01*
X101441Y314510D01*
X101543Y314532D01*
X101645Y314548D01*
X101662Y314558D01*
X101682Y314562D01*
X101771Y314615D01*
X101862Y314664D01*
X101876Y314678D01*
X101893Y314688D01*
X101960Y314767D01*
X102032Y314842D01*
X102040Y314860D01*
X102053Y314875D01*
X102092Y314971D01*
X102135Y315065D01*
X102137Y315085D01*
X102145Y315103D01*
X102163Y315270D01*
X102163Y325550D01*
X102144Y325664D01*
X102127Y325781D01*
X102125Y325786D01*
X102124Y325792D01*
X102069Y325895D01*
X102016Y326000D01*
X102011Y326004D01*
X102008Y326010D01*
X101924Y326090D01*
X101840Y326172D01*
X101834Y326176D01*
X101830Y326179D01*
X101813Y326187D01*
X101693Y326253D01*
X100778Y326632D01*
X97062Y330348D01*
X96683Y331263D01*
X96621Y331363D01*
X96561Y331463D01*
X96557Y331467D01*
X96553Y331472D01*
X96464Y331547D01*
X96375Y331623D01*
X96369Y331625D01*
X96364Y331629D01*
X96256Y331671D01*
X96146Y331715D01*
X96139Y331716D01*
X96134Y331717D01*
X96116Y331718D01*
X95980Y331733D01*
X71731Y331733D01*
X71641Y331719D01*
X71550Y331711D01*
X71520Y331699D01*
X71488Y331694D01*
X71407Y331651D01*
X71323Y331615D01*
X71291Y331589D01*
X71271Y331578D01*
X71248Y331555D01*
X71192Y331510D01*
X54580Y314898D01*
X54527Y314824D01*
X54467Y314754D01*
X54455Y314724D01*
X54436Y314698D01*
X54409Y314611D01*
X54375Y314526D01*
X54371Y314485D01*
X54364Y314463D01*
X54365Y314431D01*
X54357Y314359D01*
X54357Y313716D01*
X54376Y313600D01*
X54393Y313485D01*
X54395Y313479D01*
X54396Y313473D01*
X54451Y313370D01*
X54504Y313265D01*
X54509Y313261D01*
X54512Y313255D01*
X54597Y313175D01*
X54680Y313093D01*
X54686Y313090D01*
X54690Y313086D01*
X54707Y313078D01*
X54827Y313012D01*
X55311Y312812D01*
X58812Y309311D01*
X60707Y304736D01*
X60707Y299784D01*
X58812Y295209D01*
X55311Y291708D01*
X51822Y290263D01*
X51761Y290225D01*
X51696Y290196D01*
X51657Y290161D01*
X51613Y290134D01*
X51567Y290078D01*
X51515Y290030D01*
X51490Y289984D01*
X51456Y289944D01*
X51431Y289877D01*
X51396Y289814D01*
X51387Y289763D01*
X51368Y289715D01*
X51365Y289643D01*
X51352Y289572D01*
X51360Y289521D01*
X51358Y289469D01*
X51378Y289400D01*
X51388Y289329D01*
X51412Y289283D01*
X51426Y289233D01*
X51467Y289174D01*
X51500Y289110D01*
X51537Y289073D01*
X51567Y289031D01*
X51624Y288988D01*
X51675Y288938D01*
X51738Y288903D01*
X51764Y288884D01*
X51786Y288877D01*
X51822Y288857D01*
X55311Y287412D01*
X58812Y283911D01*
X60257Y280422D01*
X60295Y280361D01*
X60324Y280296D01*
X60359Y280257D01*
X60386Y280213D01*
X60442Y280167D01*
X60490Y280115D01*
X60536Y280090D01*
X60576Y280056D01*
X60643Y280031D01*
X60706Y279996D01*
X60757Y279987D01*
X60805Y279968D01*
X60877Y279965D01*
X60948Y279952D01*
X60999Y279960D01*
X61051Y279958D01*
X61120Y279978D01*
X61191Y279988D01*
X61237Y280012D01*
X61287Y280026D01*
X61346Y280067D01*
X61410Y280100D01*
X61447Y280137D01*
X61489Y280167D01*
X61532Y280224D01*
X61582Y280275D01*
X61617Y280338D01*
X61636Y280364D01*
X61643Y280386D01*
X61663Y280422D01*
X63108Y283911D01*
X66609Y287412D01*
X71184Y289307D01*
X76136Y289307D01*
X80711Y287412D01*
X84212Y283911D01*
X86107Y279336D01*
X86107Y274384D01*
X84212Y269809D01*
X80711Y266308D01*
X77222Y264863D01*
X77161Y264825D01*
X77096Y264796D01*
X77057Y264761D01*
X77013Y264734D01*
X76967Y264678D01*
X76915Y264630D01*
X76890Y264584D01*
X76856Y264544D01*
X76831Y264477D01*
X76796Y264414D01*
X76787Y264363D01*
X76768Y264315D01*
X76765Y264243D01*
X76752Y264172D01*
X76760Y264121D01*
X76758Y264069D01*
X76778Y264000D01*
X76788Y263929D01*
X76812Y263883D01*
X76826Y263833D01*
X76867Y263774D01*
X76900Y263710D01*
X76937Y263673D01*
X76967Y263631D01*
X77024Y263588D01*
X77075Y263538D01*
X77138Y263503D01*
X77164Y263484D01*
X77186Y263477D01*
X77222Y263457D01*
X80711Y262012D01*
X84212Y258511D01*
X86107Y253936D01*
X86107Y248984D01*
X84212Y244409D01*
X80711Y240908D01*
X77222Y239463D01*
X77161Y239425D01*
X77096Y239396D01*
X77057Y239361D01*
X77013Y239334D01*
X76967Y239278D01*
X76915Y239230D01*
X76890Y239184D01*
X76856Y239144D01*
X76831Y239077D01*
X76796Y239014D01*
X76787Y238963D01*
X76768Y238915D01*
X76765Y238843D01*
X76752Y238772D01*
X76760Y238721D01*
X76758Y238669D01*
X76778Y238600D01*
X76788Y238529D01*
X76812Y238483D01*
X76826Y238433D01*
X76867Y238374D01*
X76900Y238310D01*
X76937Y238273D01*
X76967Y238231D01*
X77024Y238188D01*
X77075Y238138D01*
X77138Y238103D01*
X77164Y238084D01*
X77186Y238077D01*
X77222Y238057D01*
X80711Y236612D01*
X84212Y233111D01*
X86107Y228536D01*
X86107Y223584D01*
X84212Y219009D01*
X80711Y215508D01*
X77222Y214063D01*
X77161Y214025D01*
X77096Y213996D01*
X77057Y213961D01*
X77013Y213934D01*
X76967Y213878D01*
X76915Y213830D01*
X76890Y213784D01*
X76856Y213744D01*
X76831Y213677D01*
X76796Y213614D01*
X76787Y213563D01*
X76768Y213515D01*
X76765Y213443D01*
X76752Y213372D01*
X76760Y213321D01*
X76758Y213269D01*
X76778Y213200D01*
X76788Y213129D01*
X76812Y213083D01*
X76826Y213033D01*
X76867Y212974D01*
X76900Y212910D01*
X76937Y212873D01*
X76967Y212831D01*
X77024Y212788D01*
X77075Y212738D01*
X77138Y212703D01*
X77164Y212684D01*
X77186Y212677D01*
X77222Y212657D01*
X80711Y211212D01*
X84212Y207711D01*
X86107Y203136D01*
X86107Y198184D01*
X84212Y193609D01*
X80711Y190108D01*
X77222Y188663D01*
X77161Y188625D01*
X77096Y188596D01*
X77058Y188561D01*
X77013Y188534D01*
X76967Y188478D01*
X76915Y188430D01*
X76890Y188384D01*
X76856Y188344D01*
X76831Y188277D01*
X76796Y188214D01*
X76787Y188163D01*
X76768Y188115D01*
X76765Y188043D01*
X76752Y187972D01*
X76760Y187921D01*
X76758Y187869D01*
X76778Y187800D01*
X76788Y187729D01*
X76812Y187683D01*
X76826Y187633D01*
X76867Y187574D01*
X76900Y187510D01*
X76937Y187473D01*
X76967Y187431D01*
X77024Y187388D01*
X77075Y187338D01*
X77138Y187303D01*
X77164Y187284D01*
X77186Y187277D01*
X77222Y187257D01*
X80711Y185812D01*
X84212Y182311D01*
X86107Y177736D01*
X86107Y172784D01*
X84212Y168209D01*
X80711Y164708D01*
X77222Y163263D01*
X77161Y163225D01*
X77096Y163196D01*
X77058Y163161D01*
X77013Y163134D01*
X76968Y163078D01*
X76915Y163030D01*
X76890Y162984D01*
X76856Y162944D01*
X76831Y162877D01*
X76796Y162814D01*
X76787Y162763D01*
X76768Y162715D01*
X76765Y162643D01*
X76752Y162572D01*
X76760Y162521D01*
X76758Y162469D01*
X76778Y162400D01*
X76788Y162329D01*
X76812Y162283D01*
X76826Y162233D01*
X76867Y162174D01*
X76900Y162110D01*
X76937Y162073D01*
X76967Y162031D01*
X77024Y161988D01*
X77075Y161938D01*
X77138Y161903D01*
X77164Y161884D01*
X77186Y161877D01*
X77222Y161857D01*
X80711Y160412D01*
X84212Y156911D01*
X86107Y152336D01*
X86107Y147384D01*
X85906Y146900D01*
X85880Y146787D01*
X85851Y146673D01*
X85852Y146667D01*
X85850Y146661D01*
X85861Y146544D01*
X85870Y146428D01*
X85873Y146422D01*
X85873Y146416D01*
X85921Y146308D01*
X85967Y146202D01*
X85971Y146196D01*
X85973Y146191D01*
X85986Y146177D01*
X86071Y146071D01*
X97326Y134816D01*
X99149Y132994D01*
X100077Y130753D01*
X100077Y73961D01*
X100091Y73871D01*
X100099Y73780D01*
X100111Y73750D01*
X100116Y73718D01*
X100159Y73637D01*
X100195Y73553D01*
X100221Y73521D01*
X100232Y73501D01*
X100255Y73478D01*
X100300Y73422D01*
X134382Y39340D01*
X134456Y39287D01*
X134526Y39227D01*
X134556Y39215D01*
X134582Y39196D01*
X134669Y39169D01*
X134754Y39135D01*
X134795Y39131D01*
X134817Y39124D01*
X134849Y39125D01*
X134921Y39117D01*
X211876Y39117D01*
X211966Y39131D01*
G37*
G36*
X325450Y10937D02*
X325450Y10937D01*
X325541Y10945D01*
X325571Y10957D01*
X325603Y10962D01*
X325684Y11005D01*
X325768Y11041D01*
X325800Y11067D01*
X325820Y11078D01*
X325843Y11101D01*
X325899Y11146D01*
X344454Y29701D01*
X344507Y29775D01*
X344567Y29845D01*
X344579Y29875D01*
X344598Y29901D01*
X344625Y29988D01*
X344659Y30073D01*
X344663Y30114D01*
X344670Y30136D01*
X344669Y30168D01*
X344677Y30240D01*
X344677Y35112D01*
X344674Y35132D01*
X344676Y35152D01*
X344654Y35253D01*
X344638Y35355D01*
X344628Y35373D01*
X344624Y35392D01*
X344571Y35481D01*
X344522Y35572D01*
X344508Y35586D01*
X344498Y35603D01*
X344419Y35671D01*
X344344Y35742D01*
X344326Y35750D01*
X344311Y35763D01*
X344215Y35802D01*
X344121Y35845D01*
X344101Y35848D01*
X344083Y35855D01*
X343916Y35874D01*
X325175Y35874D01*
X325143Y35868D01*
X325063Y35865D01*
X324366Y35761D01*
X324008Y35851D01*
X323999Y35852D01*
X323990Y35855D01*
X323824Y35874D01*
X323455Y35874D01*
X322804Y36143D01*
X322772Y36151D01*
X322697Y36179D01*
X322013Y36350D01*
X321717Y36569D01*
X321708Y36573D01*
X321702Y36580D01*
X321555Y36661D01*
X321215Y36802D01*
X320716Y37300D01*
X320689Y37320D01*
X320631Y37374D01*
X320064Y37794D01*
X319874Y38110D01*
X319868Y38117D01*
X319865Y38125D01*
X319760Y38256D01*
X319499Y38517D01*
X319230Y39168D01*
X319212Y39196D01*
X319179Y39269D01*
X318816Y39873D01*
X318762Y40238D01*
X318759Y40247D01*
X318759Y40256D01*
X318712Y40417D01*
X318571Y40758D01*
X318571Y41463D01*
X318566Y41495D01*
X318563Y41575D01*
X318459Y42272D01*
X318549Y42630D01*
X318549Y42639D01*
X318553Y42648D01*
X318571Y42815D01*
X318571Y43183D01*
X318841Y43835D01*
X318849Y43867D01*
X318876Y43941D01*
X319047Y44626D01*
X319267Y44922D01*
X319271Y44930D01*
X319278Y44936D01*
X319358Y45083D01*
X319499Y45424D01*
X319998Y45922D01*
X320017Y45949D01*
X320072Y46008D01*
X320491Y46574D01*
X320807Y46764D01*
X320814Y46770D01*
X320823Y46774D01*
X320954Y46878D01*
X321214Y47139D01*
X321866Y47409D01*
X321894Y47426D01*
X321966Y47459D01*
X325277Y49446D01*
X325340Y49499D01*
X325408Y49545D01*
X325433Y49578D01*
X325465Y49604D01*
X325507Y49675D01*
X325557Y49741D01*
X325571Y49780D01*
X325592Y49815D01*
X325610Y49896D01*
X325636Y49974D01*
X325636Y50015D01*
X325645Y50055D01*
X325636Y50137D01*
X325637Y50220D01*
X325624Y50259D01*
X325619Y50300D01*
X325585Y50375D01*
X325559Y50453D01*
X325534Y50486D01*
X325517Y50523D01*
X325460Y50584D01*
X325410Y50649D01*
X325368Y50682D01*
X325348Y50702D01*
X325322Y50716D01*
X325277Y50751D01*
X324598Y51159D01*
X323329Y51920D01*
X322060Y52681D01*
X321966Y52737D01*
X321936Y52749D01*
X321866Y52788D01*
X321214Y53058D01*
X320954Y53318D01*
X320946Y53324D01*
X320941Y53331D01*
X320807Y53433D01*
X320491Y53622D01*
X320072Y54189D01*
X320048Y54212D01*
X319998Y54274D01*
X319499Y54773D01*
X319358Y55113D01*
X319354Y55121D01*
X319351Y55130D01*
X319267Y55275D01*
X319047Y55571D01*
X318876Y56255D01*
X318863Y56286D01*
X318841Y56362D01*
X318571Y57014D01*
X318571Y57382D01*
X318570Y57391D01*
X318571Y57400D01*
X318549Y57567D01*
X318459Y57924D01*
X318563Y58622D01*
X318563Y58655D01*
X318571Y58734D01*
X318571Y59439D01*
X318712Y59779D01*
X318714Y59788D01*
X318719Y59797D01*
X318762Y59959D01*
X318816Y60323D01*
X319179Y60928D01*
X319191Y60959D01*
X319230Y61028D01*
X319499Y61680D01*
X319760Y61940D01*
X319765Y61948D01*
X319773Y61954D01*
X319874Y62087D01*
X320064Y62403D01*
X320631Y62823D01*
X320647Y62840D01*
X320652Y62843D01*
X320663Y62854D01*
X320716Y62896D01*
X321214Y63395D01*
X321555Y63536D01*
X321563Y63541D01*
X321572Y63543D01*
X321717Y63628D01*
X322013Y63847D01*
X322697Y64018D01*
X322727Y64031D01*
X322804Y64053D01*
X323455Y64323D01*
X323824Y64323D01*
X323833Y64325D01*
X323842Y64323D01*
X324008Y64346D01*
X324366Y64435D01*
X325063Y64331D01*
X325096Y64332D01*
X325175Y64323D01*
X328604Y64323D01*
X328675Y64335D01*
X328747Y64336D01*
X328796Y64354D01*
X328847Y64363D01*
X328910Y64396D01*
X328978Y64421D01*
X329018Y64453D01*
X329064Y64478D01*
X329114Y64530D01*
X329170Y64575D01*
X329198Y64618D01*
X329234Y64656D01*
X329264Y64721D01*
X329303Y64782D01*
X329315Y64832D01*
X329337Y64879D01*
X329345Y64951D01*
X329363Y65020D01*
X329359Y65072D01*
X329364Y65124D01*
X329349Y65194D01*
X329344Y65265D01*
X329323Y65313D01*
X329312Y65364D01*
X329275Y65426D01*
X329247Y65492D01*
X329202Y65548D01*
X329186Y65575D01*
X329168Y65590D01*
X329142Y65623D01*
X327627Y67138D01*
X326699Y69378D01*
X326699Y78732D01*
X329422Y83448D01*
X331309Y84537D01*
X331326Y84551D01*
X331346Y84560D01*
X331420Y84629D01*
X331499Y84693D01*
X331511Y84712D01*
X331527Y84727D01*
X331576Y84816D01*
X331630Y84901D01*
X331635Y84923D01*
X331645Y84942D01*
X331664Y85042D01*
X331687Y85141D01*
X331685Y85162D01*
X331689Y85184D01*
X331674Y85285D01*
X331665Y85386D01*
X331657Y85406D01*
X331653Y85428D01*
X331607Y85518D01*
X331567Y85611D01*
X331552Y85627D01*
X331542Y85647D01*
X331469Y85718D01*
X331401Y85793D01*
X331382Y85804D01*
X331366Y85819D01*
X331219Y85900D01*
X329342Y86677D01*
X327627Y88392D01*
X326699Y90633D01*
X326699Y101187D01*
X327627Y103427D01*
X328659Y104459D01*
X328685Y104495D01*
X328717Y104524D01*
X328756Y104594D01*
X328803Y104659D01*
X328816Y104701D01*
X328837Y104739D01*
X328851Y104817D01*
X328875Y104894D01*
X328874Y104938D01*
X328882Y104981D01*
X328871Y105060D01*
X328869Y105140D01*
X328854Y105181D01*
X328847Y105224D01*
X328789Y105357D01*
X328784Y105371D01*
X328782Y105373D01*
X328780Y105378D01*
X326699Y108982D01*
X326699Y118336D01*
X327627Y120577D01*
X329342Y122292D01*
X329427Y122327D01*
X329429Y122328D01*
X329432Y122329D01*
X329533Y122393D01*
X329636Y122456D01*
X329638Y122459D01*
X329640Y122460D01*
X329717Y122554D01*
X329793Y122646D01*
X329794Y122648D01*
X329796Y122651D01*
X329838Y122764D01*
X329881Y122875D01*
X329881Y122878D01*
X329882Y122881D01*
X329886Y123000D01*
X329891Y123121D01*
X329890Y123124D01*
X329891Y123127D01*
X329857Y123240D01*
X329823Y123357D01*
X329821Y123360D01*
X329820Y123363D01*
X329731Y123505D01*
X327573Y126210D01*
X326403Y131335D01*
X327573Y136460D01*
X330850Y140570D01*
X335586Y142851D01*
X343916Y142851D01*
X343936Y142854D01*
X343955Y142852D01*
X344057Y142874D01*
X344159Y142890D01*
X344176Y142900D01*
X344196Y142904D01*
X344285Y142957D01*
X344376Y143005D01*
X344390Y143020D01*
X344407Y143030D01*
X344474Y143109D01*
X344546Y143184D01*
X344554Y143202D01*
X344567Y143217D01*
X344606Y143313D01*
X344649Y143407D01*
X344651Y143427D01*
X344659Y143445D01*
X344677Y143612D01*
X344677Y153782D01*
X344674Y153802D01*
X344676Y153821D01*
X344654Y153923D01*
X344638Y154025D01*
X344628Y154042D01*
X344624Y154062D01*
X344571Y154151D01*
X344522Y154242D01*
X344508Y154256D01*
X344498Y154273D01*
X344419Y154340D01*
X344344Y154411D01*
X344326Y154420D01*
X344311Y154433D01*
X344215Y154472D01*
X344121Y154515D01*
X344101Y154517D01*
X344083Y154525D01*
X343916Y154543D01*
X325175Y154543D01*
X325143Y154538D01*
X325063Y154535D01*
X324366Y154431D01*
X324008Y154520D01*
X323999Y154521D01*
X323990Y154525D01*
X323824Y154543D01*
X323455Y154543D01*
X322804Y154813D01*
X322772Y154821D01*
X322697Y154848D01*
X322013Y155019D01*
X321717Y155239D01*
X321708Y155243D01*
X321702Y155249D01*
X321555Y155330D01*
X321214Y155471D01*
X320716Y155970D01*
X320689Y155989D01*
X320631Y156043D01*
X320064Y156463D01*
X319874Y156779D01*
X319868Y156786D01*
X319865Y156795D01*
X319760Y156926D01*
X319499Y157186D01*
X319230Y157838D01*
X319212Y157866D01*
X319179Y157938D01*
X318816Y158543D01*
X318762Y158908D01*
X318759Y158916D01*
X318759Y158926D01*
X318712Y159087D01*
X318571Y159427D01*
X318571Y160132D01*
X318568Y160150D01*
X318570Y160167D01*
X318565Y160191D01*
X318563Y160244D01*
X318459Y160942D01*
X318549Y161300D01*
X318549Y161309D01*
X318553Y161317D01*
X318571Y161484D01*
X318571Y161853D01*
X318841Y162504D01*
X318849Y162536D01*
X318876Y162611D01*
X319047Y163295D01*
X319267Y163591D01*
X319271Y163599D01*
X319278Y163606D01*
X319358Y163753D01*
X319499Y164093D01*
X319998Y164592D01*
X320017Y164619D01*
X320072Y164677D01*
X320491Y165244D01*
X320807Y165433D01*
X320814Y165440D01*
X320823Y165443D01*
X320954Y165548D01*
X321214Y165808D01*
X321866Y166078D01*
X321894Y166096D01*
X321966Y166129D01*
X325277Y168115D01*
X325340Y168169D01*
X325408Y168215D01*
X325433Y168248D01*
X325465Y168274D01*
X325507Y168345D01*
X325557Y168411D01*
X325571Y168450D01*
X325592Y168485D01*
X325610Y168565D01*
X325636Y168644D01*
X325636Y168685D01*
X325645Y168725D01*
X325636Y168807D01*
X325637Y168890D01*
X325624Y168929D01*
X325619Y168969D01*
X325585Y169045D01*
X325559Y169123D01*
X325534Y169156D01*
X325517Y169193D01*
X325460Y169253D01*
X325410Y169319D01*
X325367Y169352D01*
X325348Y169372D01*
X325323Y169386D01*
X325277Y169421D01*
X321966Y171407D01*
X321936Y171419D01*
X321866Y171457D01*
X321214Y171727D01*
X320954Y171988D01*
X320946Y171993D01*
X320941Y172001D01*
X320807Y172102D01*
X320491Y172292D01*
X320072Y172859D01*
X320048Y172882D01*
X319998Y172944D01*
X319499Y173442D01*
X319358Y173783D01*
X319354Y173791D01*
X319351Y173800D01*
X319267Y173945D01*
X319047Y174241D01*
X318876Y174925D01*
X318863Y174955D01*
X318841Y175032D01*
X318687Y175405D01*
X318649Y175466D01*
X318620Y175531D01*
X318585Y175569D01*
X318557Y175614D01*
X318502Y175659D01*
X318453Y175712D01*
X318408Y175737D01*
X318368Y175770D01*
X318301Y175796D01*
X318238Y175831D01*
X318187Y175840D01*
X318138Y175859D01*
X318066Y175862D01*
X317996Y175874D01*
X317944Y175867D01*
X317892Y175869D01*
X317823Y175849D01*
X317752Y175839D01*
X317706Y175815D01*
X317656Y175801D01*
X317597Y175760D01*
X317533Y175727D01*
X317497Y175690D01*
X317454Y175660D01*
X317411Y175603D01*
X317361Y175552D01*
X317326Y175489D01*
X317307Y175463D01*
X317300Y175441D01*
X317280Y175405D01*
X315352Y170749D01*
X311851Y167248D01*
X308362Y165803D01*
X308301Y165765D01*
X308236Y165736D01*
X308198Y165701D01*
X308153Y165674D01*
X308108Y165618D01*
X308055Y165570D01*
X308030Y165524D01*
X307996Y165484D01*
X307971Y165417D01*
X307936Y165354D01*
X307927Y165303D01*
X307908Y165255D01*
X307905Y165183D01*
X307892Y165112D01*
X307900Y165061D01*
X307898Y165009D01*
X307918Y164940D01*
X307928Y164869D01*
X307952Y164823D01*
X307966Y164773D01*
X308007Y164714D01*
X308040Y164650D01*
X308077Y164613D01*
X308107Y164571D01*
X308164Y164528D01*
X308215Y164478D01*
X308278Y164443D01*
X308304Y164424D01*
X308326Y164417D01*
X308362Y164397D01*
X311851Y162952D01*
X315352Y159451D01*
X317247Y154876D01*
X317247Y149924D01*
X315352Y145349D01*
X311851Y141848D01*
X308362Y140403D01*
X308301Y140365D01*
X308236Y140336D01*
X308198Y140301D01*
X308153Y140274D01*
X308108Y140218D01*
X308055Y140170D01*
X308030Y140124D01*
X307996Y140084D01*
X307971Y140017D01*
X307936Y139954D01*
X307927Y139903D01*
X307908Y139855D01*
X307905Y139783D01*
X307892Y139712D01*
X307900Y139661D01*
X307898Y139609D01*
X307918Y139540D01*
X307928Y139469D01*
X307952Y139423D01*
X307966Y139373D01*
X308007Y139314D01*
X308040Y139250D01*
X308077Y139213D01*
X308107Y139171D01*
X308164Y139128D01*
X308215Y139078D01*
X308278Y139043D01*
X308304Y139024D01*
X308326Y139017D01*
X308362Y138997D01*
X311851Y137552D01*
X315352Y134051D01*
X317247Y129476D01*
X317247Y124524D01*
X315352Y119949D01*
X311851Y116448D01*
X308362Y115003D01*
X308301Y114965D01*
X308236Y114936D01*
X308198Y114901D01*
X308153Y114874D01*
X308108Y114818D01*
X308055Y114770D01*
X308030Y114724D01*
X307996Y114684D01*
X307971Y114617D01*
X307936Y114554D01*
X307927Y114503D01*
X307908Y114455D01*
X307905Y114383D01*
X307892Y114312D01*
X307900Y114261D01*
X307898Y114209D01*
X307918Y114140D01*
X307928Y114069D01*
X307952Y114023D01*
X307966Y113973D01*
X308007Y113914D01*
X308040Y113850D01*
X308077Y113813D01*
X308107Y113771D01*
X308164Y113728D01*
X308215Y113678D01*
X308278Y113643D01*
X308304Y113624D01*
X308326Y113617D01*
X308362Y113597D01*
X311851Y112152D01*
X315352Y108651D01*
X317247Y104076D01*
X317247Y99124D01*
X315352Y94549D01*
X311851Y91048D01*
X308362Y89603D01*
X308301Y89565D01*
X308236Y89536D01*
X308198Y89501D01*
X308153Y89474D01*
X308108Y89418D01*
X308055Y89370D01*
X308030Y89324D01*
X307996Y89284D01*
X307971Y89217D01*
X307936Y89154D01*
X307927Y89103D01*
X307908Y89055D01*
X307905Y88983D01*
X307892Y88912D01*
X307900Y88861D01*
X307898Y88809D01*
X307918Y88740D01*
X307928Y88669D01*
X307952Y88623D01*
X307966Y88573D01*
X308007Y88514D01*
X308040Y88450D01*
X308077Y88413D01*
X308107Y88371D01*
X308164Y88328D01*
X308215Y88278D01*
X308278Y88243D01*
X308304Y88224D01*
X308326Y88217D01*
X308362Y88197D01*
X311851Y86752D01*
X315352Y83251D01*
X317247Y78676D01*
X317247Y73724D01*
X315352Y69149D01*
X311851Y65648D01*
X307276Y63753D01*
X302324Y63753D01*
X297749Y65648D01*
X294248Y69149D01*
X292803Y72638D01*
X292765Y72699D01*
X292736Y72764D01*
X292701Y72803D01*
X292674Y72847D01*
X292618Y72893D01*
X292570Y72945D01*
X292524Y72970D01*
X292484Y73004D01*
X292417Y73029D01*
X292354Y73064D01*
X292303Y73073D01*
X292255Y73092D01*
X292183Y73095D01*
X292112Y73108D01*
X292061Y73100D01*
X292009Y73102D01*
X291940Y73082D01*
X291869Y73072D01*
X291823Y73048D01*
X291773Y73034D01*
X291714Y72993D01*
X291650Y72960D01*
X291613Y72923D01*
X291571Y72893D01*
X291528Y72836D01*
X291478Y72785D01*
X291443Y72722D01*
X291424Y72696D01*
X291417Y72674D01*
X291397Y72638D01*
X289952Y69149D01*
X286451Y65648D01*
X281876Y63753D01*
X276924Y63753D01*
X272349Y65648D01*
X270238Y67759D01*
X270180Y67801D01*
X270128Y67851D01*
X270081Y67873D01*
X270039Y67903D01*
X269970Y67924D01*
X269905Y67954D01*
X269853Y67960D01*
X269803Y67975D01*
X269732Y67973D01*
X269661Y67981D01*
X269610Y67970D01*
X269558Y67969D01*
X269490Y67944D01*
X269420Y67929D01*
X269375Y67902D01*
X269327Y67884D01*
X269271Y67840D01*
X269209Y67803D01*
X269175Y67763D01*
X269135Y67731D01*
X269096Y67670D01*
X269049Y67616D01*
X269030Y67568D01*
X269002Y67524D01*
X268984Y67454D01*
X268957Y67388D01*
X268949Y67316D01*
X268941Y67285D01*
X268943Y67262D01*
X268939Y67221D01*
X268939Y54042D01*
X268018Y51819D01*
X266209Y50010D01*
X228421Y12222D01*
X228380Y12164D01*
X228330Y12112D01*
X228308Y12065D01*
X228278Y12023D01*
X228257Y11954D01*
X228227Y11889D01*
X228221Y11837D01*
X228206Y11787D01*
X228207Y11716D01*
X228200Y11645D01*
X228211Y11594D01*
X228212Y11542D01*
X228237Y11474D01*
X228252Y11404D01*
X228278Y11359D01*
X228296Y11311D01*
X228341Y11255D01*
X228378Y11193D01*
X228418Y11159D01*
X228450Y11119D01*
X228510Y11080D01*
X228565Y11033D01*
X228613Y11014D01*
X228657Y10986D01*
X228726Y10968D01*
X228793Y10941D01*
X228864Y10933D01*
X228896Y10925D01*
X228919Y10927D01*
X228960Y10923D01*
X325360Y10923D01*
X325450Y10937D01*
G37*
G36*
X220789Y21938D02*
X220789Y21938D01*
X220880Y21946D01*
X220910Y21958D01*
X220942Y21963D01*
X221023Y22006D01*
X221107Y22042D01*
X221139Y22068D01*
X221159Y22079D01*
X221182Y22102D01*
X221237Y22147D01*
X256618Y57528D01*
X256671Y57601D01*
X256731Y57671D01*
X256743Y57701D01*
X256762Y57727D01*
X256789Y57814D01*
X256823Y57899D01*
X256827Y57940D01*
X256834Y57962D01*
X256833Y57995D01*
X256841Y58066D01*
X256841Y64685D01*
X256830Y64756D01*
X256828Y64827D01*
X256810Y64876D01*
X256802Y64928D01*
X256768Y64991D01*
X256743Y65058D01*
X256711Y65099D01*
X256686Y65145D01*
X256634Y65194D01*
X256590Y65250D01*
X256546Y65278D01*
X256508Y65314D01*
X256443Y65345D01*
X256383Y65383D01*
X256332Y65396D01*
X256285Y65418D01*
X256214Y65426D01*
X256144Y65443D01*
X256092Y65439D01*
X256041Y65445D01*
X255970Y65430D01*
X255899Y65424D01*
X255851Y65404D01*
X255800Y65393D01*
X255739Y65356D01*
X255673Y65328D01*
X255617Y65283D01*
X255589Y65267D01*
X255574Y65249D01*
X255542Y65223D01*
X254806Y64488D01*
X218170Y27851D01*
X215929Y26923D01*
X130867Y26923D01*
X128626Y27851D01*
X88811Y67666D01*
X87883Y69907D01*
X87883Y126699D01*
X87869Y126789D01*
X87861Y126880D01*
X87849Y126910D01*
X87844Y126942D01*
X87801Y127023D01*
X87765Y127107D01*
X87739Y127139D01*
X87728Y127159D01*
X87705Y127182D01*
X87660Y127238D01*
X87406Y127492D01*
X87348Y127534D01*
X87296Y127583D01*
X87249Y127605D01*
X87207Y127635D01*
X87138Y127656D01*
X87073Y127687D01*
X87021Y127692D01*
X86971Y127708D01*
X86900Y127706D01*
X86829Y127714D01*
X86778Y127703D01*
X86726Y127701D01*
X86658Y127677D01*
X86588Y127661D01*
X86543Y127635D01*
X86495Y127617D01*
X86439Y127572D01*
X86377Y127535D01*
X86343Y127496D01*
X86303Y127463D01*
X86264Y127403D01*
X86217Y127348D01*
X86198Y127300D01*
X86170Y127256D01*
X86152Y127187D01*
X86125Y127120D01*
X86117Y127049D01*
X86109Y127018D01*
X86111Y126994D01*
X86107Y126953D01*
X86107Y121984D01*
X84212Y117409D01*
X80711Y113908D01*
X77222Y112463D01*
X77161Y112425D01*
X77096Y112396D01*
X77058Y112361D01*
X77013Y112334D01*
X76968Y112278D01*
X76915Y112230D01*
X76890Y112184D01*
X76856Y112144D01*
X76831Y112077D01*
X76796Y112014D01*
X76787Y111963D01*
X76768Y111915D01*
X76765Y111843D01*
X76752Y111772D01*
X76760Y111721D01*
X76758Y111669D01*
X76778Y111600D01*
X76788Y111529D01*
X76812Y111483D01*
X76826Y111433D01*
X76867Y111374D01*
X76900Y111310D01*
X76937Y111273D01*
X76967Y111231D01*
X77024Y111188D01*
X77075Y111138D01*
X77138Y111103D01*
X77164Y111084D01*
X77186Y111077D01*
X77222Y111057D01*
X80711Y109612D01*
X84212Y106111D01*
X86107Y101536D01*
X86107Y96584D01*
X84212Y92009D01*
X80711Y88508D01*
X77222Y87063D01*
X77161Y87025D01*
X77096Y86996D01*
X77058Y86961D01*
X77013Y86934D01*
X76968Y86878D01*
X76915Y86830D01*
X76890Y86784D01*
X76856Y86744D01*
X76831Y86677D01*
X76796Y86614D01*
X76787Y86563D01*
X76768Y86515D01*
X76765Y86443D01*
X76752Y86372D01*
X76760Y86321D01*
X76758Y86269D01*
X76778Y86200D01*
X76788Y86129D01*
X76812Y86083D01*
X76826Y86033D01*
X76867Y85974D01*
X76900Y85910D01*
X76937Y85873D01*
X76967Y85831D01*
X77024Y85788D01*
X77075Y85738D01*
X77138Y85703D01*
X77164Y85684D01*
X77186Y85677D01*
X77222Y85657D01*
X80711Y84212D01*
X84212Y80711D01*
X86107Y76136D01*
X86107Y71184D01*
X84212Y66609D01*
X80711Y63108D01*
X76136Y61213D01*
X71184Y61213D01*
X66609Y63108D01*
X63108Y66609D01*
X61213Y71184D01*
X61213Y76136D01*
X63108Y80711D01*
X66609Y84212D01*
X70098Y85657D01*
X70159Y85695D01*
X70224Y85724D01*
X70262Y85759D01*
X70307Y85786D01*
X70353Y85842D01*
X70405Y85890D01*
X70430Y85936D01*
X70464Y85976D01*
X70489Y86043D01*
X70524Y86106D01*
X70533Y86157D01*
X70552Y86205D01*
X70555Y86277D01*
X70568Y86348D01*
X70560Y86399D01*
X70562Y86451D01*
X70542Y86520D01*
X70532Y86591D01*
X70508Y86637D01*
X70494Y86687D01*
X70453Y86746D01*
X70420Y86810D01*
X70383Y86847D01*
X70353Y86889D01*
X70296Y86932D01*
X70245Y86982D01*
X70182Y87017D01*
X70156Y87036D01*
X70134Y87043D01*
X70098Y87063D01*
X66609Y88508D01*
X63108Y92009D01*
X61663Y95498D01*
X61625Y95559D01*
X61596Y95624D01*
X61561Y95662D01*
X61534Y95707D01*
X61478Y95753D01*
X61430Y95805D01*
X61384Y95830D01*
X61344Y95864D01*
X61277Y95889D01*
X61214Y95924D01*
X61163Y95933D01*
X61115Y95952D01*
X61043Y95955D01*
X60972Y95968D01*
X60921Y95960D01*
X60869Y95962D01*
X60800Y95942D01*
X60729Y95932D01*
X60683Y95908D01*
X60633Y95894D01*
X60574Y95853D01*
X60510Y95820D01*
X60473Y95783D01*
X60431Y95753D01*
X60388Y95696D01*
X60338Y95645D01*
X60303Y95582D01*
X60284Y95556D01*
X60277Y95534D01*
X60257Y95498D01*
X58812Y92009D01*
X55311Y88508D01*
X50736Y86613D01*
X45784Y86613D01*
X41209Y88508D01*
X37708Y92009D01*
X36088Y95920D01*
X36037Y96003D01*
X35991Y96089D01*
X35973Y96107D01*
X35959Y96129D01*
X35883Y96192D01*
X35813Y96258D01*
X35789Y96269D01*
X35769Y96286D01*
X35678Y96321D01*
X35590Y96362D01*
X35564Y96365D01*
X35540Y96374D01*
X35442Y96378D01*
X35346Y96389D01*
X35320Y96384D01*
X35294Y96385D01*
X35200Y96358D01*
X35105Y96337D01*
X35083Y96323D01*
X35058Y96316D01*
X34978Y96261D01*
X34894Y96211D01*
X34877Y96191D01*
X34856Y96176D01*
X34797Y96098D01*
X34734Y96024D01*
X34724Y96000D01*
X34709Y95979D01*
X34679Y95886D01*
X34642Y95796D01*
X34639Y95763D01*
X34633Y95745D01*
X34633Y95712D01*
X34624Y95629D01*
X34624Y63146D01*
X34638Y63056D01*
X34646Y62965D01*
X34658Y62935D01*
X34663Y62903D01*
X34706Y62822D01*
X34742Y62738D01*
X34768Y62706D01*
X34779Y62686D01*
X34802Y62663D01*
X34847Y62608D01*
X75308Y22147D01*
X75381Y22094D01*
X75451Y22034D01*
X75481Y22022D01*
X75507Y22003D01*
X75594Y21976D01*
X75679Y21942D01*
X75720Y21938D01*
X75742Y21931D01*
X75775Y21932D01*
X75846Y21924D01*
X220699Y21924D01*
X220789Y21938D01*
G37*
D10*
X349052Y41970D02*
X324668Y41970D01*
X338215Y50098D01*
X324668Y58226D01*
X349052Y58226D01*
X339569Y73978D02*
X339569Y80074D01*
X339570Y73978D02*
X339572Y73841D01*
X339578Y73705D01*
X339588Y73569D01*
X339601Y73433D01*
X339619Y73297D01*
X339641Y73162D01*
X339666Y73028D01*
X339695Y72895D01*
X339729Y72762D01*
X339766Y72630D01*
X339806Y72500D01*
X339851Y72371D01*
X339899Y72243D01*
X339951Y72116D01*
X340006Y71992D01*
X340065Y71868D01*
X340128Y71747D01*
X340194Y71627D01*
X340263Y71510D01*
X340336Y71394D01*
X340412Y71280D01*
X340492Y71169D01*
X340574Y71060D01*
X340660Y70954D01*
X340748Y70850D01*
X340840Y70749D01*
X340935Y70650D01*
X341032Y70554D01*
X341132Y70461D01*
X341235Y70371D01*
X341340Y70284D01*
X341447Y70199D01*
X341558Y70118D01*
X341670Y70041D01*
X341785Y69966D01*
X341901Y69895D01*
X342020Y69827D01*
X342140Y69763D01*
X342263Y69702D01*
X342387Y69645D01*
X342512Y69591D01*
X342640Y69541D01*
X342768Y69495D01*
X342898Y69452D01*
X343029Y69414D01*
X343161Y69379D01*
X343294Y69347D01*
X343428Y69320D01*
X343563Y69296D01*
X343698Y69277D01*
X343834Y69261D01*
X343970Y69249D01*
X344106Y69241D01*
X344243Y69237D01*
X344379Y69237D01*
X344516Y69241D01*
X344652Y69249D01*
X344788Y69261D01*
X344924Y69277D01*
X345059Y69296D01*
X345194Y69320D01*
X345328Y69347D01*
X345461Y69379D01*
X345593Y69414D01*
X345724Y69452D01*
X345854Y69495D01*
X345982Y69541D01*
X346110Y69591D01*
X346235Y69645D01*
X346359Y69702D01*
X346482Y69763D01*
X346602Y69827D01*
X346721Y69895D01*
X346837Y69966D01*
X346952Y70041D01*
X347064Y70118D01*
X347175Y70199D01*
X347282Y70284D01*
X347387Y70371D01*
X347490Y70461D01*
X347590Y70554D01*
X347687Y70650D01*
X347782Y70749D01*
X347874Y70850D01*
X347962Y70954D01*
X348048Y71060D01*
X348130Y71169D01*
X348210Y71280D01*
X348286Y71394D01*
X348359Y71510D01*
X348428Y71627D01*
X348494Y71747D01*
X348557Y71868D01*
X348616Y71992D01*
X348671Y72116D01*
X348723Y72243D01*
X348771Y72371D01*
X348816Y72500D01*
X348856Y72630D01*
X348893Y72762D01*
X348927Y72895D01*
X348956Y73028D01*
X348981Y73162D01*
X349003Y73297D01*
X349021Y73433D01*
X349034Y73569D01*
X349044Y73705D01*
X349050Y73841D01*
X349052Y73978D01*
X349052Y80074D01*
X336860Y80074D01*
X336735Y80072D01*
X336610Y80066D01*
X336485Y80057D01*
X336361Y80043D01*
X336237Y80026D01*
X336113Y80005D01*
X335991Y79980D01*
X335869Y79951D01*
X335748Y79919D01*
X335628Y79883D01*
X335509Y79843D01*
X335392Y79800D01*
X335276Y79753D01*
X335161Y79702D01*
X335049Y79648D01*
X334937Y79590D01*
X334828Y79530D01*
X334721Y79465D01*
X334615Y79398D01*
X334512Y79327D01*
X334411Y79253D01*
X334312Y79176D01*
X334216Y79096D01*
X334122Y79013D01*
X334031Y78928D01*
X333942Y78839D01*
X333857Y78748D01*
X333774Y78654D01*
X333694Y78558D01*
X333617Y78459D01*
X333543Y78358D01*
X333472Y78255D01*
X333405Y78149D01*
X333340Y78042D01*
X333280Y77933D01*
X333222Y77821D01*
X333168Y77709D01*
X333117Y77594D01*
X333070Y77478D01*
X333027Y77361D01*
X332987Y77242D01*
X332951Y77122D01*
X332919Y77001D01*
X332890Y76879D01*
X332865Y76757D01*
X332844Y76633D01*
X332827Y76509D01*
X332813Y76385D01*
X332804Y76260D01*
X332798Y76135D01*
X332796Y76010D01*
X332796Y70591D01*
X332796Y91846D02*
X349052Y91846D01*
X332796Y91846D02*
X332796Y99974D01*
X335505Y99974D01*
X349052Y111704D02*
X349052Y117123D01*
X349052Y111704D02*
X349050Y111579D01*
X349044Y111454D01*
X349035Y111329D01*
X349021Y111205D01*
X349004Y111081D01*
X348983Y110957D01*
X348958Y110835D01*
X348929Y110713D01*
X348897Y110592D01*
X348861Y110472D01*
X348821Y110353D01*
X348778Y110236D01*
X348731Y110120D01*
X348680Y110005D01*
X348626Y109893D01*
X348568Y109781D01*
X348508Y109672D01*
X348443Y109565D01*
X348376Y109459D01*
X348305Y109356D01*
X348231Y109255D01*
X348154Y109156D01*
X348074Y109060D01*
X347991Y108966D01*
X347906Y108875D01*
X347817Y108786D01*
X347726Y108701D01*
X347632Y108618D01*
X347536Y108538D01*
X347437Y108461D01*
X347336Y108387D01*
X347233Y108316D01*
X347127Y108249D01*
X347020Y108184D01*
X346911Y108124D01*
X346799Y108066D01*
X346687Y108012D01*
X346572Y107961D01*
X346456Y107914D01*
X346339Y107871D01*
X346220Y107831D01*
X346100Y107795D01*
X345979Y107763D01*
X345857Y107734D01*
X345735Y107709D01*
X345611Y107688D01*
X345487Y107671D01*
X345363Y107657D01*
X345238Y107648D01*
X345113Y107642D01*
X344988Y107640D01*
X336860Y107640D01*
X336735Y107642D01*
X336610Y107648D01*
X336485Y107657D01*
X336361Y107671D01*
X336237Y107688D01*
X336113Y107709D01*
X335991Y107734D01*
X335869Y107763D01*
X335748Y107795D01*
X335628Y107831D01*
X335509Y107871D01*
X335392Y107914D01*
X335276Y107961D01*
X335161Y108012D01*
X335049Y108066D01*
X334937Y108124D01*
X334828Y108184D01*
X334721Y108249D01*
X334615Y108316D01*
X334512Y108387D01*
X334411Y108461D01*
X334312Y108538D01*
X334216Y108618D01*
X334122Y108701D01*
X334031Y108786D01*
X333942Y108875D01*
X333857Y108966D01*
X333774Y109060D01*
X333694Y109156D01*
X333617Y109255D01*
X333543Y109356D01*
X333472Y109459D01*
X333405Y109565D01*
X333340Y109672D01*
X333280Y109781D01*
X333222Y109893D01*
X333168Y110005D01*
X333117Y110120D01*
X333070Y110236D01*
X333027Y110353D01*
X332987Y110472D01*
X332951Y110592D01*
X332919Y110713D01*
X332890Y110835D01*
X332865Y110957D01*
X332844Y111081D01*
X332827Y111205D01*
X332813Y111329D01*
X332804Y111454D01*
X332798Y111579D01*
X332796Y111704D01*
X332796Y117123D01*
X338215Y125917D02*
X343633Y125917D01*
X338215Y125916D02*
X338070Y125918D01*
X337924Y125924D01*
X337779Y125934D01*
X337634Y125947D01*
X337490Y125965D01*
X337346Y125986D01*
X337202Y126011D01*
X337060Y126041D01*
X336918Y126073D01*
X336777Y126110D01*
X336638Y126151D01*
X336499Y126195D01*
X336362Y126243D01*
X336226Y126294D01*
X336091Y126350D01*
X335958Y126408D01*
X335826Y126471D01*
X335697Y126537D01*
X335569Y126606D01*
X335443Y126679D01*
X335319Y126755D01*
X335197Y126834D01*
X335077Y126917D01*
X334960Y127003D01*
X334844Y127092D01*
X334732Y127184D01*
X334622Y127279D01*
X334514Y127377D01*
X334409Y127478D01*
X334307Y127581D01*
X334207Y127687D01*
X334111Y127796D01*
X334017Y127908D01*
X333927Y128022D01*
X333840Y128138D01*
X333755Y128257D01*
X333674Y128378D01*
X333596Y128500D01*
X333522Y128625D01*
X333451Y128752D01*
X333383Y128881D01*
X333319Y129012D01*
X333259Y129144D01*
X333202Y129278D01*
X333148Y129413D01*
X333098Y129550D01*
X333052Y129688D01*
X333010Y129827D01*
X332971Y129968D01*
X332937Y130109D01*
X332906Y130251D01*
X332878Y130394D01*
X332855Y130538D01*
X332836Y130682D01*
X332820Y130826D01*
X332808Y130972D01*
X332800Y131117D01*
X332796Y131262D01*
X332796Y131408D01*
X332800Y131553D01*
X332808Y131698D01*
X332820Y131844D01*
X332836Y131988D01*
X332855Y132132D01*
X332878Y132276D01*
X332906Y132419D01*
X332937Y132561D01*
X332971Y132702D01*
X333010Y132843D01*
X333052Y132982D01*
X333098Y133120D01*
X333148Y133257D01*
X333202Y133392D01*
X333259Y133526D01*
X333319Y133658D01*
X333383Y133789D01*
X333451Y133918D01*
X333522Y134045D01*
X333596Y134170D01*
X333674Y134292D01*
X333755Y134413D01*
X333840Y134532D01*
X333927Y134648D01*
X334017Y134762D01*
X334111Y134874D01*
X334207Y134983D01*
X334307Y135089D01*
X334409Y135192D01*
X334514Y135293D01*
X334622Y135391D01*
X334732Y135486D01*
X334844Y135578D01*
X334960Y135667D01*
X335077Y135753D01*
X335197Y135836D01*
X335319Y135915D01*
X335443Y135991D01*
X335569Y136064D01*
X335697Y136133D01*
X335826Y136199D01*
X335958Y136262D01*
X336091Y136320D01*
X336226Y136376D01*
X336362Y136427D01*
X336499Y136475D01*
X336638Y136519D01*
X336777Y136560D01*
X336918Y136597D01*
X337060Y136629D01*
X337202Y136659D01*
X337346Y136684D01*
X337490Y136705D01*
X337634Y136723D01*
X337779Y136736D01*
X337924Y136746D01*
X338070Y136752D01*
X338215Y136754D01*
X343633Y136754D01*
X343778Y136752D01*
X343924Y136746D01*
X344069Y136736D01*
X344214Y136723D01*
X344358Y136705D01*
X344502Y136684D01*
X344646Y136659D01*
X344788Y136629D01*
X344930Y136597D01*
X345071Y136560D01*
X345210Y136519D01*
X345349Y136475D01*
X345486Y136427D01*
X345622Y136376D01*
X345757Y136320D01*
X345890Y136262D01*
X346022Y136199D01*
X346151Y136133D01*
X346279Y136064D01*
X346405Y135991D01*
X346529Y135915D01*
X346651Y135836D01*
X346771Y135753D01*
X346888Y135667D01*
X347004Y135578D01*
X347116Y135486D01*
X347226Y135391D01*
X347334Y135293D01*
X347439Y135192D01*
X347541Y135089D01*
X347641Y134983D01*
X347737Y134874D01*
X347831Y134762D01*
X347921Y134648D01*
X348008Y134532D01*
X348093Y134413D01*
X348174Y134292D01*
X348252Y134170D01*
X348326Y134045D01*
X348397Y133918D01*
X348465Y133789D01*
X348529Y133658D01*
X348589Y133526D01*
X348646Y133392D01*
X348700Y133257D01*
X348750Y133120D01*
X348796Y132982D01*
X348838Y132843D01*
X348877Y132702D01*
X348911Y132561D01*
X348942Y132419D01*
X348970Y132276D01*
X348993Y132132D01*
X349012Y131988D01*
X349028Y131844D01*
X349040Y131698D01*
X349048Y131553D01*
X349052Y131408D01*
X349052Y131262D01*
X349048Y131117D01*
X349040Y130972D01*
X349028Y130826D01*
X349012Y130682D01*
X348993Y130538D01*
X348970Y130394D01*
X348942Y130251D01*
X348911Y130109D01*
X348877Y129968D01*
X348838Y129827D01*
X348796Y129688D01*
X348750Y129550D01*
X348700Y129413D01*
X348646Y129278D01*
X348589Y129144D01*
X348529Y129012D01*
X348465Y128881D01*
X348397Y128752D01*
X348326Y128626D01*
X348252Y128500D01*
X348174Y128378D01*
X348093Y128257D01*
X348008Y128138D01*
X347921Y128022D01*
X347831Y127908D01*
X347737Y127796D01*
X347641Y127687D01*
X347541Y127581D01*
X347439Y127478D01*
X347334Y127377D01*
X347226Y127279D01*
X347116Y127184D01*
X347004Y127092D01*
X346888Y127003D01*
X346771Y126917D01*
X346651Y126834D01*
X346529Y126755D01*
X346405Y126679D01*
X346279Y126606D01*
X346151Y126537D01*
X346022Y126471D01*
X345890Y126408D01*
X345757Y126350D01*
X345622Y126294D01*
X345486Y126243D01*
X345349Y126195D01*
X345210Y126151D01*
X345071Y126110D01*
X344930Y126073D01*
X344788Y126041D01*
X344646Y126011D01*
X344502Y125986D01*
X344358Y125965D01*
X344214Y125947D01*
X344069Y125934D01*
X343924Y125924D01*
X343778Y125918D01*
X343633Y125916D01*
X349052Y160640D02*
X324668Y160640D01*
X338215Y168768D01*
X324668Y176896D01*
X349052Y176896D01*
X349052Y192103D02*
X349052Y198876D01*
X349052Y192103D02*
X349050Y191978D01*
X349044Y191853D01*
X349035Y191728D01*
X349021Y191604D01*
X349004Y191480D01*
X348983Y191356D01*
X348958Y191234D01*
X348929Y191112D01*
X348897Y190991D01*
X348861Y190871D01*
X348821Y190752D01*
X348778Y190635D01*
X348731Y190519D01*
X348680Y190404D01*
X348626Y190292D01*
X348568Y190180D01*
X348508Y190071D01*
X348443Y189964D01*
X348376Y189858D01*
X348305Y189755D01*
X348231Y189654D01*
X348154Y189555D01*
X348074Y189459D01*
X347991Y189365D01*
X347906Y189274D01*
X347817Y189185D01*
X347726Y189100D01*
X347632Y189017D01*
X347536Y188937D01*
X347437Y188860D01*
X347336Y188786D01*
X347233Y188715D01*
X347127Y188648D01*
X347020Y188583D01*
X346911Y188523D01*
X346799Y188465D01*
X346687Y188411D01*
X346572Y188360D01*
X346456Y188313D01*
X346339Y188270D01*
X346220Y188230D01*
X346100Y188194D01*
X345979Y188162D01*
X345857Y188133D01*
X345735Y188108D01*
X345611Y188087D01*
X345487Y188070D01*
X345363Y188056D01*
X345238Y188047D01*
X345113Y188041D01*
X344988Y188039D01*
X338215Y188039D01*
X338070Y188041D01*
X337924Y188047D01*
X337779Y188057D01*
X337634Y188070D01*
X337490Y188088D01*
X337346Y188109D01*
X337202Y188134D01*
X337060Y188164D01*
X336918Y188196D01*
X336777Y188233D01*
X336638Y188274D01*
X336499Y188318D01*
X336362Y188366D01*
X336226Y188417D01*
X336091Y188473D01*
X335958Y188531D01*
X335826Y188594D01*
X335697Y188660D01*
X335569Y188729D01*
X335443Y188802D01*
X335319Y188878D01*
X335197Y188957D01*
X335077Y189040D01*
X334960Y189126D01*
X334844Y189215D01*
X334732Y189307D01*
X334622Y189402D01*
X334514Y189500D01*
X334409Y189601D01*
X334307Y189704D01*
X334207Y189810D01*
X334111Y189919D01*
X334017Y190031D01*
X333927Y190145D01*
X333840Y190261D01*
X333755Y190380D01*
X333674Y190501D01*
X333596Y190623D01*
X333522Y190748D01*
X333451Y190875D01*
X333383Y191004D01*
X333319Y191135D01*
X333259Y191267D01*
X333202Y191401D01*
X333148Y191536D01*
X333098Y191673D01*
X333052Y191811D01*
X333010Y191950D01*
X332971Y192091D01*
X332937Y192232D01*
X332906Y192374D01*
X332878Y192517D01*
X332855Y192661D01*
X332836Y192805D01*
X332820Y192949D01*
X332808Y193095D01*
X332800Y193240D01*
X332796Y193385D01*
X332796Y193531D01*
X332800Y193676D01*
X332808Y193821D01*
X332820Y193967D01*
X332836Y194111D01*
X332855Y194255D01*
X332878Y194399D01*
X332906Y194542D01*
X332937Y194684D01*
X332971Y194825D01*
X333010Y194966D01*
X333052Y195105D01*
X333098Y195243D01*
X333148Y195380D01*
X333202Y195515D01*
X333259Y195649D01*
X333319Y195781D01*
X333383Y195912D01*
X333451Y196041D01*
X333522Y196168D01*
X333596Y196293D01*
X333674Y196415D01*
X333755Y196536D01*
X333840Y196655D01*
X333927Y196771D01*
X334017Y196885D01*
X334111Y196997D01*
X334207Y197106D01*
X334307Y197212D01*
X334409Y197315D01*
X334514Y197416D01*
X334622Y197514D01*
X334732Y197609D01*
X334844Y197701D01*
X334960Y197790D01*
X335077Y197876D01*
X335197Y197959D01*
X335319Y198038D01*
X335443Y198114D01*
X335569Y198187D01*
X335697Y198256D01*
X335826Y198322D01*
X335958Y198385D01*
X336091Y198443D01*
X336226Y198499D01*
X336362Y198550D01*
X336499Y198598D01*
X336638Y198642D01*
X336777Y198683D01*
X336918Y198720D01*
X337060Y198752D01*
X337202Y198782D01*
X337346Y198807D01*
X337490Y198828D01*
X337634Y198846D01*
X337779Y198859D01*
X337924Y198869D01*
X338070Y198875D01*
X338215Y198877D01*
X338215Y198876D02*
X340924Y198876D01*
X340924Y188039D01*
X344988Y209063D02*
X324668Y209063D01*
X344988Y209063D02*
X345113Y209065D01*
X345238Y209071D01*
X345363Y209080D01*
X345487Y209094D01*
X345611Y209111D01*
X345735Y209132D01*
X345857Y209157D01*
X345979Y209186D01*
X346100Y209218D01*
X346220Y209254D01*
X346339Y209294D01*
X346456Y209337D01*
X346572Y209384D01*
X346687Y209435D01*
X346799Y209489D01*
X346911Y209547D01*
X347020Y209607D01*
X347127Y209672D01*
X347233Y209739D01*
X347336Y209810D01*
X347437Y209884D01*
X347536Y209961D01*
X347632Y210041D01*
X347726Y210124D01*
X347817Y210209D01*
X347906Y210298D01*
X347991Y210389D01*
X348074Y210483D01*
X348154Y210579D01*
X348231Y210678D01*
X348305Y210779D01*
X348376Y210882D01*
X348443Y210988D01*
X348508Y211095D01*
X348568Y211204D01*
X348626Y211316D01*
X348680Y211428D01*
X348731Y211543D01*
X348778Y211659D01*
X348821Y211776D01*
X348861Y211895D01*
X348897Y212015D01*
X348929Y212136D01*
X348958Y212258D01*
X348983Y212380D01*
X349004Y212504D01*
X349021Y212628D01*
X349035Y212752D01*
X349044Y212877D01*
X349050Y213002D01*
X349052Y213127D01*
X344988Y221806D02*
X324668Y221806D01*
X344988Y221806D02*
X345113Y221808D01*
X345238Y221814D01*
X345363Y221823D01*
X345487Y221837D01*
X345611Y221854D01*
X345735Y221875D01*
X345857Y221900D01*
X345979Y221929D01*
X346100Y221961D01*
X346220Y221997D01*
X346339Y222037D01*
X346456Y222080D01*
X346572Y222127D01*
X346687Y222178D01*
X346799Y222232D01*
X346911Y222290D01*
X347020Y222350D01*
X347127Y222415D01*
X347233Y222482D01*
X347336Y222553D01*
X347437Y222627D01*
X347536Y222704D01*
X347632Y222784D01*
X347726Y222867D01*
X347817Y222952D01*
X347906Y223041D01*
X347991Y223132D01*
X348074Y223226D01*
X348154Y223322D01*
X348231Y223421D01*
X348305Y223522D01*
X348376Y223625D01*
X348443Y223731D01*
X348508Y223838D01*
X348568Y223947D01*
X348626Y224059D01*
X348680Y224171D01*
X348731Y224286D01*
X348778Y224402D01*
X348821Y224519D01*
X348861Y224638D01*
X348897Y224758D01*
X348929Y224879D01*
X348958Y225001D01*
X348983Y225123D01*
X349004Y225247D01*
X349021Y225371D01*
X349035Y225495D01*
X349044Y225620D01*
X349050Y225745D01*
X349052Y225870D01*
X343633Y234232D02*
X338215Y234232D01*
X338070Y234234D01*
X337924Y234240D01*
X337779Y234250D01*
X337634Y234263D01*
X337490Y234281D01*
X337346Y234302D01*
X337202Y234327D01*
X337060Y234357D01*
X336918Y234389D01*
X336777Y234426D01*
X336638Y234467D01*
X336499Y234511D01*
X336362Y234559D01*
X336226Y234610D01*
X336091Y234666D01*
X335958Y234724D01*
X335826Y234787D01*
X335697Y234853D01*
X335569Y234922D01*
X335443Y234995D01*
X335319Y235071D01*
X335197Y235150D01*
X335077Y235233D01*
X334960Y235319D01*
X334844Y235408D01*
X334732Y235500D01*
X334622Y235595D01*
X334514Y235693D01*
X334409Y235794D01*
X334307Y235897D01*
X334207Y236003D01*
X334111Y236112D01*
X334017Y236224D01*
X333927Y236338D01*
X333840Y236454D01*
X333755Y236573D01*
X333674Y236694D01*
X333596Y236816D01*
X333522Y236941D01*
X333451Y237068D01*
X333383Y237197D01*
X333319Y237328D01*
X333259Y237460D01*
X333202Y237594D01*
X333148Y237729D01*
X333098Y237866D01*
X333052Y238004D01*
X333010Y238143D01*
X332971Y238284D01*
X332937Y238425D01*
X332906Y238567D01*
X332878Y238710D01*
X332855Y238854D01*
X332836Y238998D01*
X332820Y239142D01*
X332808Y239288D01*
X332800Y239433D01*
X332796Y239578D01*
X332796Y239724D01*
X332800Y239869D01*
X332808Y240014D01*
X332820Y240160D01*
X332836Y240304D01*
X332855Y240448D01*
X332878Y240592D01*
X332906Y240735D01*
X332937Y240877D01*
X332971Y241018D01*
X333010Y241159D01*
X333052Y241298D01*
X333098Y241436D01*
X333148Y241573D01*
X333202Y241708D01*
X333259Y241842D01*
X333319Y241974D01*
X333383Y242105D01*
X333451Y242234D01*
X333522Y242361D01*
X333596Y242486D01*
X333674Y242608D01*
X333755Y242729D01*
X333840Y242848D01*
X333927Y242964D01*
X334017Y243078D01*
X334111Y243190D01*
X334207Y243299D01*
X334307Y243405D01*
X334409Y243508D01*
X334514Y243609D01*
X334622Y243707D01*
X334732Y243802D01*
X334844Y243894D01*
X334960Y243983D01*
X335077Y244069D01*
X335197Y244152D01*
X335319Y244231D01*
X335443Y244307D01*
X335569Y244380D01*
X335697Y244449D01*
X335826Y244515D01*
X335958Y244578D01*
X336091Y244636D01*
X336226Y244692D01*
X336362Y244743D01*
X336499Y244791D01*
X336638Y244835D01*
X336777Y244876D01*
X336918Y244913D01*
X337060Y244945D01*
X337202Y244975D01*
X337346Y245000D01*
X337490Y245021D01*
X337634Y245039D01*
X337779Y245052D01*
X337924Y245062D01*
X338070Y245068D01*
X338215Y245070D01*
X343633Y245070D01*
X343778Y245068D01*
X343924Y245062D01*
X344069Y245052D01*
X344214Y245039D01*
X344358Y245021D01*
X344502Y245000D01*
X344646Y244975D01*
X344788Y244945D01*
X344930Y244913D01*
X345071Y244876D01*
X345210Y244835D01*
X345349Y244791D01*
X345486Y244743D01*
X345622Y244692D01*
X345757Y244636D01*
X345890Y244578D01*
X346022Y244515D01*
X346151Y244449D01*
X346279Y244380D01*
X346405Y244307D01*
X346529Y244231D01*
X346651Y244152D01*
X346771Y244069D01*
X346888Y243983D01*
X347004Y243894D01*
X347116Y243802D01*
X347226Y243707D01*
X347334Y243609D01*
X347439Y243508D01*
X347541Y243405D01*
X347641Y243299D01*
X347737Y243190D01*
X347831Y243078D01*
X347921Y242964D01*
X348008Y242848D01*
X348093Y242729D01*
X348174Y242608D01*
X348252Y242486D01*
X348326Y242361D01*
X348397Y242234D01*
X348465Y242105D01*
X348529Y241974D01*
X348589Y241842D01*
X348646Y241708D01*
X348700Y241573D01*
X348750Y241436D01*
X348796Y241298D01*
X348838Y241159D01*
X348877Y241018D01*
X348911Y240877D01*
X348942Y240735D01*
X348970Y240592D01*
X348993Y240448D01*
X349012Y240304D01*
X349028Y240160D01*
X349040Y240014D01*
X349048Y239869D01*
X349052Y239724D01*
X349052Y239578D01*
X349048Y239433D01*
X349040Y239288D01*
X349028Y239142D01*
X349012Y238998D01*
X348993Y238854D01*
X348970Y238710D01*
X348942Y238567D01*
X348911Y238425D01*
X348877Y238284D01*
X348838Y238143D01*
X348796Y238004D01*
X348750Y237866D01*
X348700Y237729D01*
X348646Y237594D01*
X348589Y237460D01*
X348529Y237328D01*
X348465Y237197D01*
X348397Y237068D01*
X348326Y236942D01*
X348252Y236816D01*
X348174Y236694D01*
X348093Y236573D01*
X348008Y236454D01*
X347921Y236338D01*
X347831Y236224D01*
X347737Y236112D01*
X347641Y236003D01*
X347541Y235897D01*
X347439Y235794D01*
X347334Y235693D01*
X347226Y235595D01*
X347116Y235500D01*
X347004Y235408D01*
X346888Y235319D01*
X346771Y235233D01*
X346651Y235150D01*
X346529Y235071D01*
X346405Y234995D01*
X346279Y234922D01*
X346151Y234853D01*
X346022Y234787D01*
X345890Y234724D01*
X345757Y234666D01*
X345622Y234610D01*
X345486Y234559D01*
X345349Y234511D01*
X345210Y234467D01*
X345071Y234426D01*
X344930Y234389D01*
X344788Y234357D01*
X344646Y234327D01*
X344502Y234302D01*
X344358Y234281D01*
X344214Y234263D01*
X344069Y234250D01*
X343924Y234240D01*
X343778Y234234D01*
X343633Y234232D01*
D11*
X304800Y50800D03*
X304800Y76200D03*
X304800Y101600D03*
X304800Y127000D03*
X304800Y152400D03*
X304800Y177800D03*
X304800Y203200D03*
X304800Y228600D03*
X304800Y254000D03*
X304800Y279400D03*
X304800Y304800D03*
X304800Y330200D03*
X304800Y355600D03*
X304800Y381000D03*
X304800Y406400D03*
X304800Y431800D03*
X304800Y457200D03*
X304800Y482600D03*
X279400Y50800D03*
X279400Y76200D03*
X279400Y101600D03*
X279400Y127000D03*
X279400Y152400D03*
X279400Y177800D03*
X279400Y203200D03*
X279400Y228600D03*
X279400Y254000D03*
X279400Y279400D03*
X279400Y304800D03*
X279400Y330200D03*
X279400Y355600D03*
X279400Y381000D03*
X279400Y406400D03*
X279400Y431800D03*
X279400Y457200D03*
X279400Y482600D03*
X203200Y482600D03*
X177800Y482600D03*
X152400Y482600D03*
X127000Y482600D03*
X101600Y482600D03*
X76200Y482600D03*
X50800Y482600D03*
X25400Y482600D03*
X73660Y73660D03*
X48260Y73660D03*
X73660Y99060D03*
X48260Y99060D03*
X73660Y124460D03*
X48260Y124460D03*
X73660Y149860D03*
X48260Y149860D03*
X73660Y175260D03*
X48260Y175260D03*
X73660Y200660D03*
X48260Y200660D03*
X73660Y226060D03*
X48260Y226060D03*
X73660Y251460D03*
X48260Y251460D03*
X73660Y276860D03*
X48260Y276860D03*
X73660Y302260D03*
X48260Y302260D03*
X266700Y508000D03*
X241300Y508000D03*
D12*
X239900Y431800D03*
X191900Y431800D03*
D13*
X108260Y307460D03*
X108260Y289460D03*
D14*
X203400Y355600D03*
D15*
X228400Y355600D03*
D16*
X108260Y337830D03*
X108260Y365770D03*
D17*
X194564Y221488D03*
X171450Y221488D03*
X148336Y221488D03*
D18*
X171450Y159510D03*
D11*
X215900Y508000D03*
D19*
X171450Y266700D03*
X171450Y114300D03*
D10*
X93980Y71120D02*
X132080Y33020D01*
X93980Y129540D02*
X73660Y149860D01*
X93980Y129540D02*
X93980Y71120D01*
X132080Y33020D02*
X214717Y33020D01*
X251460Y69763D01*
X251460Y350800D01*
X279400Y378740D02*
X279400Y381000D01*
X279400Y378740D02*
X251460Y350800D01*
D20*
X48260Y175260D02*
X28575Y155575D01*
X28575Y60325D01*
X73025Y15875D01*
X223520Y15875D01*
X262890Y55245D01*
X262890Y307600D01*
D10*
X274620Y355600D02*
X279400Y355600D01*
X262890Y343870D02*
X262890Y307600D01*
X262890Y343870D02*
X274620Y355600D01*
X101600Y462280D02*
X16510Y377190D01*
X16510Y219710D01*
X35560Y200660D01*
X48260Y200660D01*
X101600Y462280D02*
X212080Y462280D01*
X241300Y491500D02*
X241300Y508000D01*
X241300Y491500D02*
X212080Y462280D01*
X304800Y431800D02*
X322580Y449580D01*
X322580Y488188D02*
X312674Y498094D01*
D21*
X275890Y498094D02*
X227376Y449580D01*
D10*
X159314Y449580D01*
X33020Y285750D02*
X41910Y276860D01*
X48260Y276860D01*
X322580Y449580D02*
X322580Y488188D01*
D21*
X312674Y498094D02*
X275890Y498094D01*
D10*
X159314Y449580D02*
X33020Y323286D01*
X33020Y285750D01*
X48260Y302260D02*
X48260Y317200D01*
X68890Y337830D02*
X108260Y337830D01*
X68890Y337830D02*
X48260Y317200D01*
X108260Y307460D02*
X108260Y337830D01*
X142240Y337830D01*
X154940Y337830D01*
D19*
X171450Y419100D03*
D10*
X171450Y159510D02*
X140210Y159510D01*
X119380Y180340D01*
X119380Y238760D01*
X132080Y251460D01*
X171450Y240030D02*
X171450Y221488D01*
X171450Y240030D02*
X160020Y251460D01*
X142240Y251460D01*
X132080Y251460D01*
X142240Y251460D02*
X142240Y337830D01*
X171450Y354340D02*
X171450Y419100D01*
X171450Y354340D02*
X154940Y337830D01*
D20*
X279400Y482600D02*
X304800Y482600D01*
D10*
X279400Y482600D02*
X261620Y464820D01*
X261620Y378160D01*
X235260Y339090D02*
X235260Y209560D01*
X148336Y221488D02*
X148336Y197104D01*
X216200Y190500D02*
X235260Y209560D01*
X216200Y190500D02*
X154940Y190500D01*
X148336Y197104D01*
X228400Y355600D02*
X239060Y355600D01*
X261620Y378160D01*
X228400Y355600D02*
X228400Y345950D01*
X235260Y339090D01*
M02*
