M48
;GenerationSoftware,Autodesk,EAGLE,9.5.2*%
;CreationDate,2019-12-16T14:21:02Z*%
FMAT,2
ICI,OFF
METRIC,TZ,000.000
T3C0.650
T2C0.700
T1C1.016
%
G90
M71
T1
X30480Y20320
X10826Y33783
X10826Y36577
X30480Y5080
X30480Y7620
X30480Y10160
X30480Y12700
X30480Y15240
X30480Y17780
X30480Y43180
X30480Y22860
X30480Y25400
X30480Y27940
X30480Y30480
X30480Y33020
X30480Y35560
X30480Y38100
X30480Y40640
X21590Y50800
X30480Y45720
X30480Y48260
X27940Y5080
X27940Y7620
X27940Y10160
X27940Y12700
X27940Y15240
X27940Y17780
X27940Y20320
X27940Y22860
X27940Y25400
X27940Y27940
X27940Y30480
X27940Y33020
X27940Y35560
X27940Y38100
X27940Y40640
X27940Y43180
X27940Y45720
X27940Y48260
X20320Y48260
X17780Y48260
X15240Y48260
X12700Y48260
X10160Y48260
X7620Y48260
X5080Y48260
X2540Y48260
X7366Y7366
X4826Y7366
X7366Y9906
X4826Y9906
X7366Y12446
X4826Y12446
X7366Y14986
X4826Y14986
X7366Y17526
X4826Y17526
X7366Y20066
X4826Y20066
X7366Y22606
X4826Y22606
X7366Y25146
X4826Y25146
X7366Y27686
X4826Y27686
X7366Y30226
X4826Y30226
X26670Y50800
X24130Y50800
T2
X22840Y35560
X20340Y35560
T3
X17145Y11430
X17145Y41910
X17145Y26670
M30